<svg xmlns="http://www.w3.org/2000/svg" xmlns:xlink="http://www.w3.org/1999/xlink" width="0" height="0" style="display:none;"><symbol id="svg-usuario-carro"><path fill="#b4b4b4" d="M19 9.5h-.32l-1.25-3.12a3 3 0 0 0-2.78-1.88h-6A3 3 0 0 0 5.7 6.91L5.18 9.5H5a3 3 0 0 0-3 3v3a1 1 0 0 0 1 1h1a3 3 0 1 0 6 0h4a3 3 0 0 0 6 0h1a1 1 0 0 0 1-1v-3a3 3 0 0 0-3-3m-6-3h1.65a1 1 0 0 1 .92.63l.95 2.37H13zm-5.34.8a1 1 0 0 1 1-.8H11v3H7.22zM7 17.5a1 1 0 1 1 0-2 1 1 0 0 1 0 2m10 0a1 1 0 1 1 0-2 1 1 0 0 1 0 2m3-3h-.78a3 3 0 0 0-4.44 0H9.22a3 3 0 0 0-4.44 0H4v-2a1 1 0 0 1 1-1h14a1 1 0 0 1 1 1z"></path></symbol><symbol id="svg-usuario-cedula"><path fill="#b4b4b4" d="M19 2H5a3 3 0 0 0-3 3v14a3 3 0 0 0 3 3h14a3 3 0 0 0 3-3V5a3 3 0 0 0-3-3m1 17a1 1 0 0 1-1 1H5a1 1 0 0 1-1-1V5a1 1 0 0 1 1-1h14a1 1 0 0 1 1 1z"></path><path fill="#b4b4b4" fill-rule="evenodd" d="M12 6a3.463 3.463 0 0 0-3.457 3.469A3.463 3.463 0 0 0 12 12.938a3.463 3.463 0 0 0 3.457-3.47A3.463 3.463 0 0 0 12 6m-1.687 3.469a1.687 1.687 0 1 1 3.374 0 1.687 1.687 0 0 1-3.374 0M9.943 14C8.32 14 7 15.366 7 17c0 .495.515 1 1 1 .662 0 .837-.475 1.017-.962.19-.512.384-1.038 1.156-1.038h3.654c.772 0 .966.526 1.156 1.038.18.487.355.962 1.017.962.485 0 1-.505 1-1 0-1.634-1.32-3-2.942-3z" clip-rule="evenodd"></path></symbol><symbol id="svg-usuario-mascota"><path fill="#b4b4b4" stroke="#b4b4b4" stroke-width=".4" d="M11.384 20.46c-.773-.01-1.48.184-2.177.49-1.718.755-3.59-.293-4.02-2.2zm0 0h.007m-.007 0h.007m2.226.527c.558.244 1.138.268 1.71.125 2.028-.503 2.917-2.95 1.82-4.837a198 198 0 0 0-1.93-3.251c-.704-1.158-1.691-1.923-2.978-2.175-.891-.174-1.729-.12-2.484.18-.756.298-1.416.836-1.96 1.609-.715 1.013-1.334 2.108-1.946 3.19q-.194.348-.392.692c-.393.69-.442 1.469-.27 2.23zm0 0c-.74-.324-1.48-.545-2.226-.528m2.226.528-2.226-.528m4.779-2.442a1.58 1.58 0 0 0-.22-.862q-.303-.512-.601-1.026c-.497-.853-.99-1.701-1.528-2.519a2.932 2.932 0 0 0-4.914.004c-.56.85-1.073 1.734-1.59 2.623q-.267.461-.538.923zm0 0v.006m0-.006v.006m0 0c.002 1.137-1.041 1.903-1.99 1.55l-.298-.114c-.301-.116-.612-.236-.927-.325-.887-.25-1.796-.302-2.702-.1-.535.118-1.062.29-1.57.493-.456.181-.906.154-1.272-.032m8.759-1.472L7.41 19.495m5.466-13.151c-.032.97-.348 1.915-1.124 2.635-.523.484-1.147.723-1.774.707-.626-.016-1.24-.287-1.746-.793-.662-.661-1-1.608-1.023-2.553-.024-.944.266-1.91.893-2.608m4.774 2.612L8.252 3.865m4.625 2.479v-.006m0 .006v-.006M8.103 3.732l.149.133m-.15-.133.15.133m-.15-.133c.614-.685 1.402-.994 2.172-.922s1.497.523 1.995 1.308l-.169.107m-3.848-.36c1.15-1.283 2.91-1.119 3.848.36m0 0 .17-.107c.4.63.61 1.379.607 2.22M12.1 4.225l.777 2.113M11.034 7.55c-.25.376-.573.595-1.07.597-.448-.023-.818-.32-1.06-.84-.375-.807-.34-1.6.13-2.355.26-.419.64-.613 1.004-.613.366 0 .746.194 1.009.612.504.8.505 1.817-.013 2.599Zm0 0 .166.11m-.166-.11.166.11m0 0c.564-.85.561-1.952.016-2.816L9.959 8.347c.577-.001.96-.263 1.241-.686ZM7.411 19.496c-.365-.186-.661-.538-.795-1.034zM6.552 9.357 6.55 9.35c-.31-.64-.75-1.12-1.296-1.426-.68-.382-1.411-.405-2.03-.123-.616.281-1.102.857-1.317 1.64-.22.8-.087 1.658.282 2.367.369.708.983 1.284 1.743 1.5 1.175.333 2.293-.274 2.735-1.466.327-.881.221-1.735-.115-2.486Zm12.372-.966.002-.005c.215-.74.217-1.458.025-2.128-.24-.835-.763-1.443-1.421-1.732-.66-.29-1.434-.25-2.15.173-.732.434-1.232 1.2-1.449 2.037-.217.838-.158 1.768.255 2.542.636 1.19 1.893 1.661 3.079 1.106.87-.408 1.387-1.15 1.659-1.993Zm-1.941.51q-.235.194-.487.249a1.1 1.1 0 0 1-.577-.045c-.383-.15-.631-.516-.712-1.041-.126-.813.103-1.488.695-2.004.325-.284.696-.342 1.01-.237.317.106.6.386.725.827.24.846-.015 1.727-.654 2.25Zm4.525 5.97.486-1.867.2.012c.098-1.632-1.093-2.874-2.638-2.651-.779.112-1.457.602-1.908 1.256s-.686 1.488-.565 2.31v.001c.187 1.262 1.133 2.131 2.346 2.079.891-.039 1.578-.501 2.08-1.14Zm-1.855-.273a1 1 0 0 1-.49.039 1.06 1.06 0 0 1-.486-.248c-.29-.27-.39-.68-.3-1.16.14-.747.542-1.242 1.205-1.47l-.065-.19.065.19a.94.94 0 0 1 .94.16c.244.208.403.555.377.981-.052.818-.541 1.479-1.246 1.698ZM6.616 18.46a1.64 1.64 0 0 1 .163-1.301zm-2.003-9.34c.657.373 1.028 1.12.922 1.925-.05.387-.215.689-.588.904-.338.17-.71.11-1.073-.167-.567-.433-.829-1.03-.75-1.795.044-.424.26-.731.533-.887.272-.155.619-.17.956.02Z"></path></symbol><symbol id="svg-usuario-user-add"><path fill="#b4b4b4" d="M10 4a4 4 0 1 0 0 8 4 4 0 0 0 0-8M4 8a6 6 0 1 1 12 0A6 6 0 0 1 4 8m15 3a1 1 0 0 1 1 1v1h1a1 1 0 1 1 0 2h-1v1a1 1 0 1 1-2 0v-1h-1a1 1 0 1 1 0-2h1v-1a1 1 0 0 1 1-1M6.5 18C5.24 18 4 19.213 4 21a1 1 0 1 1-2 0c0-2.632 1.893-5 4.5-5h7c2.607 0 4.5 2.368 4.5 5a1 1 0 1 1-2 0c0-1.787-1.24-3-2.5-3z"></path></symbol><symbol id="svg-usuario-user-check"><path fill="#b4b4b4" d="M10 4a4 4 0 1 0 0 8 4 4 0 0 0 0-8M4 8a6 6 0 1 1 12 0A6 6 0 0 1 4 8m17.664 3.253a1 1 0 0 1 .083 1.411l-2.666 3a1 1 0 0 1-1.495 0l-1.333-1.5a1 1 0 0 1 1.494-1.328l.586.659 1.92-2.16a1 1 0 0 1 1.411-.082M6.5 18C5.24 18 4 19.213 4 21a1 1 0 1 1-2 0c0-2.632 1.893-5 4.5-5h7c2.607 0 4.5 2.368 4.5 5a1 1 0 1 1-2 0c0-1.787-1.24-3-2.5-3z"></path></symbol><symbol id="svg-usuario-user-remove"><path fill="#b4b4b4" d="M10 4a4 4 0 1 0 0 8 4 4 0 0 0 0-8M4 8a6 6 0 1 1 12 0A6 6 0 0 1 4 8m12 6a1 1 0 0 1 1-1h4a1 1 0 1 1 0 2h-4a1 1 0 0 1-1-1m-9.5 4C5.24 18 4 19.213 4 21a1 1 0 1 1-2 0c0-2.632 1.893-5 4.5-5h7c2.607 0 4.5 2.368 4.5 5a1 1 0 1 1-2 0c0-1.787-1.24-3-2.5-3z"></path></symbol><symbol id="svg-usuario-user"><path fill="#b4b4b4" d="M12 4a4 4 0 1 0 0 8 4 4 0 0 0 0-8M6 8a6 6 0 1 1 12 0A6 6 0 0 1 6 8m2 10a3 3 0 0 0-3 3 1 1 0 1 1-2 0 5 5 0 0 1 5-5h8a5 5 0 0 1 5 5 1 1 0 1 1-2 0 3 3 0 0 0-3-3z"></path></symbol><symbol id="svg-usuario-users"><path fill="#b4b4b4" d="M10 4a4 4 0 1 0 0 8 4 4 0 0 0 0-8M4 8a6 6 0 1 1 12 0A6 6 0 0 1 4 8m12.828-4.243a1 1 0 0 1 1.415 0 6 6 0 0 1 0 8.486 1 1 0 1 1-1.415-1.415 4 4 0 0 0 0-5.656 1 1 0 0 1 0-1.415m.702 13a1 1 0 0 1 1.212-.727c1.328.332 2.169 1.18 2.652 2.148.468.935.606 1.98.606 2.822a1 1 0 1 1-2 0c0-.657-.112-1.363-.394-1.928-.267-.533-.677-.934-1.349-1.102a1 1 0 0 1-.727-1.212M6.5 18C5.24 18 4 19.213 4 21a1 1 0 1 1-2 0c0-2.632 1.893-5 4.5-5h7c2.607 0 4.5 2.368 4.5 5a1 1 0 1 1-2 0c0-1.787-1.24-3-2.5-3z"></path></symbol></svg>