<svg width="24" height="24" viewBox="0 0 24 24" fill="none" xmlns="http://www.w3.org/2000/svg">
<path d="M11.5145 2.12584C11.8166 1.95805 12.1838 1.95805 12.4858 2.12584L21.4858 7.12584C21.8033 7.30221 22.0002 7.63683 22.0002 8C22.0002 8.36317 21.8033 8.69779 21.4858 8.87416L12.4858 13.8742C12.1838 14.0419 11.8166 14.0419 11.5145 13.8742L2.51454 8.87416C2.19707 8.69779 2.00018 8.36317 2.00018 8C2.00018 7.63683 2.19707 7.30221 2.51454 7.12584L11.5145 2.12584ZM5.05931 8L12.0002 11.856L18.9411 8L12.0002 4.14396L5.05931 8Z" fill="#B4B4B4"/>
<path d="M2.12602 11.5144C2.39424 11.0316 3.00304 10.8576 3.48583 11.1258L12.0002 15.856L20.5145 11.1258C20.9973 10.8576 21.6061 11.0316 21.8743 11.5144C22.1426 11.9971 21.9686 12.6059 21.4858 12.8742L12.4858 17.8742C12.1838 18.0419 11.8166 18.0419 11.5145 17.8742L2.51454 12.8742C2.03176 12.6059 1.85781 11.9971 2.12602 11.5144Z" fill="#B4B4B4"/>
<path d="M2.12602 15.5144C2.39424 15.0316 3.00304 14.8576 3.48583 15.1258L12.0002 19.856L20.5145 15.1258C20.9973 14.8576 21.6061 15.0316 21.8743 15.5144C22.1426 15.9971 21.9686 16.6059 21.4858 16.8742L12.4858 21.8742C12.1838 22.0419 11.8166 22.0419 11.5145 21.8742L2.51454 16.8742C2.03176 16.6059 1.85781 15.9971 2.12602 15.5144Z" fill="#B4B4B4"/>
</svg>
