<svg xmlns="http://www.w3.org/2000/svg" xmlns:xlink="http://www.w3.org/1999/xlink" width="0" height="0" style="display:none;"><symbol id="svg-dispositivos-camera"><path fill="#b4b4b4" d="M8.293 4.293A1 1 0 0 1 9 4h6a1 1 0 0 1 .707.293L17.414 6H20a2 2 0 0 1 2 2v10a2 2 0 0 1-2 2H4a2 2 0 0 1-2-2V8a2 2 0 0 1 2-2h2.586zM9.414 6 7.707 7.707A1 1 0 0 1 7 8H4v10h16V8h-3a1 1 0 0 1-.707-.293L14.586 6zM12 10.5a2 2 0 1 0 0 4 2 2 0 0 0 0-4m-4 2a4 4 0 1 1 8 0 4 4 0 0 1-8 0"></path></symbol><symbol id="svg-dispositivos-computer"><path fill="#b4b4b4" d="M2 5a2 2 0 0 1 2-2h16a2 2 0 0 1 2 2v11a2 2 0 0 1-2 2h-7v2h3a1 1 0 1 1 0 2H8a1 1 0 1 1 0-2h3v-2H4a2 2 0 0 1-2-2zm18 11V5H4v11z"></path></symbol><symbol id="svg-dispositivos-laptop"><path fill="#b4b4b4" d="M2 5a2 2 0 0 1 2-2h16a2 2 0 0 1 2 2v11a2 2 0 0 1-2 2H4a2 2 0 0 1-2-2zm18 0H4v11h16zM22 20a1 1 0 0 1-1 1H3a1 1 0 1 1 0-2h18a1 1 0 0 1 1 1"></path></symbol><symbol id="svg-dispositivos-mobile"><path fill="#b4b4b4" d="M6 5a2 2 0 0 1 2-2h8a2 2 0 0 1 2 2v14a2 2 0 0 1-2 2H8a2 2 0 0 1-2-2zm10 0H8v14h8z"></path><path fill="#b4b4b4" d="M13 17a1 1 0 1 1-2 0 1 1 0 0 1 2 0"></path></symbol><symbol id="svg-dispositivos-speakers"><path fill="#b4b4b4" d="M4 4a2 2 0 0 1 2-2h12a2 2 0 0 1 2 2v16a2 2 0 0 1-2 2H6a2 2 0 0 1-2-2zm14 0H6v16h12z"></path><path fill="#b4b4b4" d="M12 12a2 2 0 1 0 0 4 2 2 0 0 0 0-4m-4 2a4 4 0 1 1 8 0 4 4 0 0 1-8 0M13.5 7.5a1.5 1.5 0 1 1-3 0 1.5 1.5 0 0 1 3 0"></path></symbol><symbol id="svg-dispositivos-tablet"><path fill="#b4b4b4" d="M4 4a2 2 0 0 1 2-2h12a2 2 0 0 1 2 2v16a2 2 0 0 1-2 2H6a2 2 0 0 1-2-2zm14 0H6v16h12z"></path><path fill="#b4b4b4" d="M13 18a1 1 0 1 1-2 0 1 1 0 0 1 2 0"></path></symbol></svg>