<svg width="24" height="24" viewBox="0 0 24 24" fill="none" xmlns="http://www.w3.org/2000/svg">
<path d="M19.463 5.57573C18.7758 4.82597 17.5346 4.77977 16.7073 5.60711L8.6073 13.7071C8.39783 13.9166 8.39783 14.1834 8.6073 14.3929C8.81678 14.6024 9.08361 14.6024 9.29309 14.3929L15.9931 7.6929C16.3836 7.30238 17.0168 7.30238 17.4073 7.6929C17.7978 8.08342 17.7978 8.71659 17.4073 9.10711L10.7073 15.8071C9.71678 16.7976 8.18361 16.7976 7.19309 15.8071C6.20256 14.8166 6.20256 13.2834 7.19309 12.2929L15.2931 4.1929C16.8606 2.62537 19.408 2.57436 20.9225 4.20821C22.4748 5.77662 22.5205 8.31157 20.8931 9.82133L11.4073 19.3071C9.21678 21.4976 5.78361 21.4976 3.59309 19.3071C1.40256 17.1166 1.40256 13.6834 3.59309 11.4929L11.6931 3.3929C12.0836 3.00238 12.7168 3.00238 13.1073 3.3929C13.4978 3.78342 13.4978 4.41659 13.1073 4.80711L5.0073 12.9071C3.59783 14.3166 3.59783 16.4834 5.0073 17.8929C6.41678 19.3024 8.58361 19.3024 9.99309 17.8929L19.4931 8.3929C19.5033 8.38266 19.5138 8.37264 19.5245 8.36285C20.2742 7.67557 20.3204 6.43446 19.4931 5.60711C19.4828 5.59687 19.4728 5.58641 19.463 5.57573Z" fill="#B4B4B4"/>
</svg>
