<svg width="24" height="24" viewBox="0 0 24 24" fill="none" xmlns="http://www.w3.org/2000/svg">
<path d="M17.7069 8.29289C18.0974 8.68342 18.0974 9.31658 17.7069 9.70711L15.414 12L17.7069 14.2929C18.0974 14.6834 18.0974 15.3166 17.7069 15.7071C17.3164 16.0976 16.6832 16.0976 16.2927 15.7071L13.9998 13.4142L11.7069 15.7071C11.3164 16.0976 10.6832 16.0976 10.2927 15.7071C9.90219 15.3166 9.90219 14.6834 10.2927 14.2929L12.5856 12L10.2927 9.70711C9.90219 9.31658 9.90219 8.68342 10.2927 8.29289C10.6832 7.90237 11.3164 7.90237 11.7069 8.29289L13.9998 10.5858L16.2927 8.29289C16.6832 7.90237 17.3164 7.90237 17.7069 8.29289Z" fill="#B4B4B4"/>
<path fill-rule="evenodd" clip-rule="evenodd" d="M21.9998 5C21.9998 4.44772 21.5521 4 20.9998 4H9.45975C8.8759 4 8.3212 4.25513 7.94124 4.69842L2.79838 10.6984C2.1564 11.4474 2.1564 12.5526 2.79838 13.3016L7.94124 19.3016C8.3212 19.7449 8.8759 20 9.45975 20H20.9998C21.5521 20 21.9998 19.5523 21.9998 19V5ZM19.9998 18H9.45975L4.31689 12L9.45975 6H19.9998V18Z" fill="#B4B4B4"/>
</svg>
