<svg width="24" height="24" viewBox="0 0 24 24" fill="none" xmlns="http://www.w3.org/2000/svg">
<path fill-rule="evenodd" clip-rule="evenodd" d="M5.00004 4.79717C6.51711 4.48543 7.67038 4.4665 8.62603 4.58596C9.74502 4.72583 10.6438 5.05933 11.6489 5.43626L11.6789 5.44751C12.6659 5.81767 13.7589 6.22757 15.126 6.39846C16.23 6.53645 17.4813 6.51627 19.0001 6.2398V15.2027C17.483 15.5144 16.3297 15.5334 15.3741 15.4139C14.2551 15.274 13.3563 14.9405 12.3512 14.5636L12.3212 14.5523C11.3342 14.1822 10.2412 13.7723 8.8741 13.6014C7.77014 13.4634 6.51884 13.4836 5.00006 13.7601L5.00004 4.79717ZM19.7575 4.02979C17.8574 4.50482 16.4828 4.55249 15.3741 4.4139C14.2551 4.27403 13.3563 3.94053 12.3512 3.5636L12.3212 3.55235C11.3342 3.18219 10.2412 2.77229 8.8741 2.6014C7.48735 2.42806 5.86811 2.50431 3.77823 3.02462C3.33267 3.1255 3 3.52388 3 3.99995V20.9999C3 21.5522 3.44772 21.9999 4 21.9999C4.55228 21.9999 5 21.5522 5 20.9999V15.7972C6.5171 15.4854 7.67037 15.4665 8.62603 15.586C9.74502 15.7258 10.6438 16.0593 11.6489 16.4363L11.6789 16.4475C12.6659 16.8177 13.7589 17.2276 15.126 17.3985C16.5174 17.5724 18.1427 17.495 20.2426 16.9701C20.6878 16.8588 21.0001 16.4588 21.0001 15.9999V4.99993C21.0001 4.69199 20.8582 4.40123 20.6155 4.21172C20.3728 4.02222 20.0563 3.9551 19.7575 4.02979Z" fill="#B4B4B4"/>
</svg>
