<svg width="24" height="24" viewBox="0 0 24 24" fill="none" xmlns="http://www.w3.org/2000/svg">
<path d="M17.4764 6.55409L14.6378 3.71409C14.5449 3.62036 14.4344 3.54597 14.3126 3.4952C14.1908 3.44443 14.0601 3.41829 13.9282 3.41829C13.7962 3.41829 13.6656 3.44443 13.5438 3.4952C13.422 3.54597 13.3115 3.62036 13.2185 3.71409C13.0324 3.90145 12.9279 4.15491 12.9279 4.41909C12.9279 4.68328 13.0324 4.93673 13.2185 5.12409L15.3375 7.24409L7.2415 15.3441L5.12255 13.2241C4.93528 13.0378 4.68195 12.9333 4.4179 12.9333C4.15384 12.9333 3.90051 13.0378 3.71324 13.2241C3.61956 13.3171 3.5452 13.4277 3.49446 13.5495C3.44372 13.6714 3.41759 13.8021 3.41759 13.9341C3.41759 14.0661 3.44372 14.1968 3.49446 14.3187C3.5452 14.4405 3.61956 14.5511 3.71324 14.6441L6.52186 17.4541L9.33047 20.2641C9.42304 20.3586 9.53343 20.4338 9.65524 20.4852C9.77706 20.5367 9.90787 20.5635 10.0401 20.5641C10.2386 20.5652 10.433 20.5072 10.5985 20.3974C10.7639 20.2876 10.8929 20.131 10.969 19.9476C11.0452 19.7641 11.065 19.5622 11.0259 19.3674C10.9869 19.1727 10.8907 18.994 10.7498 18.8541L8.6608 16.7641L16.7568 8.66409L18.8757 10.7841C18.9689 10.8767 19.0794 10.95 19.201 10.9998C19.3225 11.0497 19.4526 11.0751 19.5839 11.0746C19.7153 11.0742 19.8452 11.0478 19.9664 10.9971C20.0875 10.9464 20.1975 10.8723 20.29 10.7791C20.3826 10.6859 20.4559 10.5753 20.5057 10.4537C20.5555 10.3322 20.5809 10.202 20.5805 10.0706C20.58 9.93916 20.5537 9.80914 20.503 9.68793C20.4523 9.56671 20.3782 9.45667 20.2851 9.36409L17.4764 6.55409ZM3.71324 17.4641C3.52503 17.2758 3.26977 17.17 3.0036 17.17C2.73743 17.17 2.48216 17.2758 2.29395 17.4641C2.10574 17.6524 2 17.9078 2 18.1741C2 18.4404 2.10574 18.6958 2.29395 18.8841L5.12255 21.7141C5.21594 21.8068 5.3267 21.8801 5.44848 21.9299C5.57026 21.9796 5.70065 22.0049 5.8322 22.0041C5.96374 22.0049 6.09414 21.9796 6.21591 21.9299C6.33769 21.8801 6.44845 21.8068 6.54185 21.7141C6.63553 21.6211 6.70989 21.5105 6.76063 21.3887C6.81137 21.2668 6.8375 21.1361 6.8375 21.0041C6.8375 20.8721 6.81137 20.7414 6.76063 20.6195C6.70989 20.4977 6.63553 20.3871 6.54185 20.2941L3.71324 17.4641ZM21.7043 5.12409L18.8757 2.29409C18.7826 2.20085 18.6719 2.12689 18.5502 2.07643C18.4284 2.02597 18.2979 2 18.1661 2C18.0343 2 17.9038 2.02597 17.782 2.07643C17.6603 2.12689 17.5496 2.20085 17.4564 2.29409C17.3633 2.38733 17.2893 2.49802 17.2389 2.61984C17.1885 2.74166 17.1625 2.87223 17.1625 3.00409C17.1625 3.13595 17.1885 3.26652 17.2389 3.38834C17.2893 3.51016 17.3633 3.62085 17.4564 3.71409L20.2851 6.54409C20.378 6.63782 20.4885 6.71221 20.6103 6.76298C20.7321 6.81375 20.8628 6.83989 20.9947 6.83989C21.1266 6.83989 21.2573 6.81375 21.3791 6.76298C21.5009 6.71221 21.6114 6.63782 21.7043 6.54409C21.798 6.45113 21.8724 6.34053 21.9231 6.21867C21.9739 6.09681 22 5.9661 22 5.83409C22 5.70208 21.9739 5.57137 21.9231 5.44952C21.8724 5.32766 21.798 5.21705 21.7043 5.12409Z" fill="#B4B4B4"/>
</svg>
