<svg width="24" height="24" viewBox="0 0 24 24" fill="none" xmlns="http://www.w3.org/2000/svg">
<path d="M6.54545 11.1429C6.36565 11.1429 6.18989 11.1931 6.04039 11.2873C5.89089 11.3815 5.77437 11.5154 5.70556 11.672C5.63676 11.8286 5.61875 12.001 5.65383 12.1672C5.68891 12.3335 5.77549 12.4862 5.90263 12.6061C6.02977 12.726 6.19175 12.8076 6.3681 12.8407C6.54445 12.8737 6.72723 12.8568 6.89335 12.7919C7.05946 12.727 7.20144 12.6172 7.30134 12.4762C7.40123 12.3352 7.45455 12.1695 7.45455 12C7.45455 11.7727 7.35877 11.5547 7.18828 11.3939C7.01779 11.2332 6.78656 11.1429 6.54545 11.1429ZM19.2727 6H4.72727C4.00395 6 3.31026 6.27092 2.7988 6.75315C2.28734 7.23539 2 7.88944 2 8.57143V15.4286C2 16.1106 2.28734 16.7646 2.7988 17.2468C3.31026 17.7291 4.00395 18 4.72727 18H19.2727C19.996 18 20.6897 17.7291 21.2012 17.2468C21.7127 16.7646 22 16.1106 22 15.4286V8.57143C22 7.88944 21.7127 7.23539 21.2012 6.75315C20.6897 6.27092 19.996 6 19.2727 6ZM20 15.1429C20 15.3702 19.9705 15.5882 19.8 15.7489C19.6295 15.9097 19.5138 16 19.2727 16H4.72727C4.48617 16 4.33049 15.9097 4.16 15.7489C3.98951 15.5882 3.96104 15.2273 3.96104 15V8.85714C3.96104 8.62981 3.98951 8.4118 4.16 8.25105C4.33049 8.09031 4.48617 8 4.72727 8H19.2727C19.5138 8 19.6295 8.09031 19.8 8.25105C19.9705 8.4118 20 8.77267 20 9V15.1429ZM12 9.42857C11.4606 9.42857 10.9333 9.57938 10.4848 9.86194C10.0363 10.1445 9.68675 10.5461 9.48033 11.016C9.27391 11.4858 9.2199 12.0029 9.32513 12.5017C9.43036 13.0005 9.69011 13.4587 10.0715 13.8183C10.4529 14.1779 10.9389 14.4228 11.4679 14.522C11.997 14.6212 12.5453 14.5703 13.0437 14.3757C13.542 14.1811 13.968 13.8515 14.2676 13.4286C14.5673 13.0057 14.7273 12.5086 14.7273 12C14.7273 11.318 14.4399 10.664 13.9285 10.1817C13.417 9.69949 12.7233 9.42857 12 9.42857ZM12 12.8571C11.8202 12.8571 11.6444 12.8069 11.4949 12.7127C11.3454 12.6185 11.2289 12.4846 11.1601 12.328C11.0913 12.1714 11.0733 11.999 11.1084 11.8328C11.1435 11.6665 11.23 11.5138 11.3572 11.3939C11.4843 11.274 11.6463 11.1924 11.8226 11.1593C11.999 11.1263 12.1818 11.1432 12.3479 11.2081C12.514 11.273 12.656 11.3828 12.7559 11.5238C12.8558 11.6648 12.9091 11.8305 12.9091 12C12.9091 12.2273 12.8133 12.4453 12.6428 12.6061C12.4723 12.7668 12.2411 12.8571 12 12.8571ZM17.4545 11.1429C17.2747 11.1429 17.099 11.1931 16.9495 11.2873C16.8 11.3815 16.6835 11.5154 16.6147 11.672C16.5458 11.8286 16.5278 12.001 16.5629 12.1672C16.598 12.3335 16.6846 12.4862 16.8117 12.6061C16.9389 12.726 17.1008 12.8076 17.2772 12.8407C17.4535 12.8737 17.6363 12.8568 17.8024 12.7919C17.9686 12.727 18.1105 12.6172 18.2104 12.4762C18.3103 12.3352 18.3636 12.1695 18.3636 12C18.3636 11.7727 18.2679 11.5547 18.0974 11.3939C17.9269 11.2332 17.6957 11.1429 17.4545 11.1429Z" fill="#B4B4B4"/>
</svg>
