<svg width="24" height="24" viewBox="0 0 24 24" fill="none" xmlns="http://www.w3.org/2000/svg">
<path d="M19 5.78947H16V4.84211C16 4.08833 15.6839 3.36543 15.1213 2.83243C14.5587 2.29944 13.7956 2 13 2H11C10.2044 2 9.44129 2.29944 8.87868 2.83243C8.31607 3.36543 8 4.08833 8 4.84211V5.78947H5C4.20435 5.78947 3.44129 6.08891 2.87868 6.62191C2.31607 7.15491 2 7.87781 2 8.63158V17.1579C2 17.9117 2.31607 18.6346 2.87868 19.1676C3.44129 19.7006 4.20435 20 5 20H19C19.7956 20 20.5587 19.7006 21.1213 19.1676C21.6839 18.6346 22 17.9117 22 17.1579V8.63158C22 7.87781 21.6839 7.15491 21.1213 6.62191C20.5587 6.08891 19.7956 5.78947 19 5.78947ZM10 4.84211C10 4.59085 10.1054 4.34988 10.2929 4.17221C10.4804 3.99455 10.7348 3.89474 11 3.89474H13C13.2652 3.89474 13.5196 3.99455 13.7071 4.17221C13.8946 4.34988 14 4.59085 14 4.84211V5.78947H10V4.84211ZM20 17.1579C20 17.4092 19.8946 17.6501 19.7071 17.8278C19.5196 18.0055 19.2652 18.1053 19 18.1053H5C4.73478 18.1053 4.48043 18.0055 4.29289 17.8278C4.10536 17.6501 4 17.4092 4 17.1579V11.9474C6.54626 12.9043 9.26069 13.3962 12 13.3968C14.7392 13.3952 17.4535 12.9035 20 11.9474V17.1579ZM20 9.87263C17.4784 10.9221 14.7542 11.464 12 11.464C9.24579 11.464 6.5216 10.9221 4 9.87263V8.63158C4 8.38032 4.10536 8.13935 4.29289 7.96169C4.48043 7.78402 4.73478 7.68421 5 7.68421H19C19.2652 7.68421 19.5196 7.78402 19.7071 7.96169C19.8946 8.13935 20 8.38032 20 8.63158V9.87263Z" fill="#B4B4B4"/>
</svg>
