<svg xmlns="http://www.w3.org/2000/svg" xmlns:xlink="http://www.w3.org/1999/xlink" width="0" height="0" style="display:none;"><symbol id="svg-flechas-arrow-down"><path fill="#b4b4b4" d="M12 4a1 1 0 0 1 1 1v11.586l4.293-4.293a1 1 0 0 1 1.414 1.414l-6 6a1 1 0 0 1-1.414 0l-6-6a1 1 0 1 1 1.414-1.414L11 16.586V5a1 1 0 0 1 1-1"></path></symbol><symbol id="svg-flechas-arrow-left-down"><path fill="#b4b4b4" d="M17.707 6.293a1 1 0 0 1 0 1.414L9.414 16H15a1 1 0 1 1 0 2H7a1 1 0 0 1-1-1V9a1 1 0 1 1 2 0v5.586l8.293-8.293a1 1 0 0 1 1.414 0"></path></symbol><symbol id="svg-flechas-arrow-left-up"><path fill="#b4b4b4" d="M8 9.414V15a1 1 0 1 1-2 0V7a1 1 0 0 1 1-1h8a1 1 0 1 1 0 2H9.414l8.293 8.293a1 1 0 0 1-1.414 1.414z"></path></symbol><symbol id="svg-flechas-arrow-left"><path fill="#b4b4b4" d="M11.707 5.293a1 1 0 0 1 0 1.414L7.414 11H19a1 1 0 1 1 0 2H7.414l4.293 4.293a1 1 0 0 1-1.414 1.414l-6-6a1 1 0 0 1 0-1.414l6-6a1 1 0 0 1 1.414 0"></path></symbol><symbol id="svg-flechas-arrow-right-down"><path fill="#b4b4b4" d="M6.293 6.293a1 1 0 0 1 1.414 0L16 14.586V9a1 1 0 1 1 2 0v8a1 1 0 0 1-1 1H9a1 1 0 1 1 0-2h5.586L6.293 7.707a1 1 0 0 1 0-1.414"></path></symbol><symbol id="svg-flechas-arrow-right-up"><path fill="#b4b4b4" d="M8 7a1 1 0 0 1 1-1h8a1 1 0 0 1 1 1v8a1 1 0 1 1-2 0V9.414l-8.293 8.293a1 1 0 0 1-1.414-1.414L14.586 8H9a1 1 0 0 1-1-1"></path></symbol><symbol id="svg-flechas-arrow-right"><path fill="#b4b4b4" d="M12.293 5.293a1 1 0 0 1 1.414 0l6 6a1 1 0 0 1 0 1.414l-6 6a1 1 0 0 1-1.414-1.414L16.586 13H5a1 1 0 1 1 0-2h11.586l-4.293-4.293a1 1 0 0 1 0-1.414"></path></symbol><symbol id="svg-flechas-arrow-up"><path fill="#b4b4b4" d="M12 4a1 1 0 0 1 .707.293l6 6a1 1 0 0 1-1.414 1.414L13 7.414V19a1 1 0 1 1-2 0V7.414l-4.293 4.293a1 1 0 0 1-1.414-1.414l6-6A1 1 0 0 1 12 4"></path></symbol><symbol id="svg-flechas-caret-down"><path fill="#b4b4b4" d="m17 10-5 6-5-6z"></path></symbol><symbol id="svg-flechas-caret-left"><path fill="#b4b4b4" d="m14 17-6-5 6-5z"></path></symbol><symbol id="svg-flechas-caret-right"><path fill="#b4b4b4" d="m10 7 6 5-6 5z"></path></symbol><symbol id="svg-flechas-caret-up"><path fill="#b4b4b4" d="m7 14 5-6 5 6z"></path></symbol><symbol id="svg-flechas-chevron-double-down"><path fill="#b4b4b4" d="M5.293 6.293a1 1 0 0 1 1.414 0L12 11.586l5.293-5.293a1 1 0 1 1 1.414 1.414l-6 6a1 1 0 0 1-1.414 0l-6-6a1 1 0 0 1 0-1.414m0 6a1 1 0 0 1 1.414 0L12 17.586l5.293-5.293a1 1 0 0 1 1.414 1.414l-6 6a1 1 0 0 1-1.414 0l-6-6a1 1 0 0 1 0-1.414"></path></symbol><symbol id="svg-flechas-chevron-double-left"><path fill="#b4b4b4" d="M17.707 5.293a1 1 0 0 1 0 1.414L12.414 12l5.293 5.293a1 1 0 0 1-1.414 1.414l-6-6a1 1 0 0 1 0-1.414l6-6a1 1 0 0 1 1.414 0m-6 0a1 1 0 0 1 0 1.414L6.414 12l5.293 5.293a1 1 0 0 1-1.414 1.414l-6-6a1 1 0 0 1 0-1.414l6-6a1 1 0 0 1 1.414 0"></path></symbol><symbol id="svg-flechas-chevron-double-right"><path fill="#b4b4b4" d="M12.293 5.293a1 1 0 0 1 1.414 0l6 6a1 1 0 0 1 0 1.414l-6 6a1 1 0 0 1-1.414-1.414L17.586 12l-5.293-5.293a1 1 0 0 1 0-1.414m-6 0a1 1 0 0 1 1.414 0l6 6a1 1 0 0 1 0 1.414l-6 6a1 1 0 0 1-1.414-1.414L11.586 12 6.293 6.707a1 1 0 0 1 0-1.414"></path></symbol><symbol id="svg-flechas-chevron-double-up"><path fill="#b4b4b4" d="M11.293 4.293a1 1 0 0 1 1.414 0l6 6a1 1 0 0 1-1.414 1.414L12 6.414l-5.293 5.293a1 1 0 0 1-1.414-1.414zM12 12.414l-5.293 5.293a1 1 0 0 1-1.414-1.414l6-6a1 1 0 0 1 1.414 0l6 6a1 1 0 0 1-1.414 1.414z"></path></symbol><symbol id="svg-flechas-chevron-down"><path fill="#b4b4b4" d="M5.293 9.293a1 1 0 0 1 1.414 0L12 14.586l5.293-5.293a1 1 0 1 1 1.414 1.414l-6 6a1 1 0 0 1-1.414 0l-6-6a1 1 0 0 1 0-1.414"></path></symbol><symbol id="svg-flechas-chevron-left"><path fill="#b4b4b4" d="M14.707 5.293a1 1 0 0 1 0 1.414L9.414 12l5.293 5.293a1 1 0 0 1-1.414 1.414l-6-6a1 1 0 0 1 0-1.414l6-6a1 1 0 0 1 1.414 0"></path></symbol><symbol id="svg-flechas-chevron-right"><path fill="#b4b4b4" d="M9.293 18.707a1 1 0 0 1 0-1.414L14.586 12 9.293 6.707a1 1 0 0 1 1.414-1.414l6 6a1 1 0 0 1 0 1.414l-6 6a1 1 0 0 1-1.414 0"></path></symbol><symbol id="svg-flechas-chevron-up"><path fill="#b4b4b4" d="M11.293 7.293a1 1 0 0 1 1.414 0l6 6a1 1 0 0 1-1.414 1.414L12 9.414l-5.293 5.293a1 1 0 0 1-1.414-1.414z"></path></symbol></svg>