<?xml version="1.0" standalone="no"?>
<!DOCTYPE svg PUBLIC "-//W3C//DTD SVG 1.1//EN" "http://www.w3.org/Graphics/SVG/1.1/DTD/svg11.dtd" >
<svg xmlns="http://www.w3.org/2000/svg">
<defs>
  <font id="svg-flechas" horiz-adv-x="1000">
    <font-face font-family="svg-flechas"
      units-per-em="1000" ascent="1000"
      descent="0" />
    <missing-glyph horiz-adv-x="0" />
    <glyph glyph-name="arrow-down"
      unicode="&#xEA01;"
      horiz-adv-x="1000" d="M500 833.3333333333334A41.6666666666667 41.6666666666667 0 0 0 541.6666666666666 791.6666666666667V308.9166666666668L720.5416666666666 487.7916666666667A41.6666666666667 41.6666666666667 0 0 0 779.4583333333334 428.8750000000001L529.4583333333334 178.875A41.6666666666667 41.6666666666667 0 0 0 470.5416666666667 178.875L220.5416666666667 428.875A41.6666666666667 41.6666666666667 0 1 0 279.4583333333334 487.7916666666666L458.3333333333333 308.9166666666668V791.6666666666667A41.6666666666667 41.6666666666667 0 0 0 500 833.3333333333334" />
    <glyph glyph-name="arrow-left-down"
      unicode="&#xEA02;"
      horiz-adv-x="1000" d="M737.7916666666666 737.7916666666667A41.6666666666667 41.6666666666667 0 0 0 737.7916666666666 678.875L392.25 333.3333333333334H625A41.6666666666667 41.6666666666667 0 1 0 625 250H291.6666666666667A41.6666666666667 41.6666666666667 0 0 0 250 291.6666666666668V625A41.6666666666667 41.6666666666667 0 1 0 333.3333333333333 625V392.25L678.8749999999999 737.7916666666666A41.6666666666667 41.6666666666667 0 0 0 737.7916666666666 737.7916666666666" />
    <glyph glyph-name="arrow-left-up"
      unicode="&#xEA03;"
      horiz-adv-x="1000" d="M333.3333333333333 607.75V375A41.6666666666667 41.6666666666667 0 1 0 250 375V708.3333333333334A41.6666666666667 41.6666666666667 0 0 0 291.6666666666667 750H625A41.6666666666667 41.6666666666667 0 1 0 625 666.6666666666667H392.25L737.7916666666666 321.1250000000001A41.6666666666667 41.6666666666667 0 0 0 678.8749999999999 262.2083333333334z" />
    <glyph glyph-name="arrow-left"
      unicode="&#xEA04;"
      horiz-adv-x="1000" d="M487.7916666666667 779.4583333333334A41.6666666666667 41.6666666666667 0 0 0 487.7916666666667 720.5416666666667L308.9166666666667 541.6666666666667H791.6666666666666A41.6666666666667 41.6666666666667 0 1 0 791.6666666666666 458.3333333333334H308.9166666666667L487.7916666666667 279.4583333333334A41.6666666666667 41.6666666666667 0 0 0 428.875 220.5416666666666L178.875 470.5416666666666A41.6666666666667 41.6666666666667 0 0 0 178.875 529.4583333333333L428.875 779.4583333333333A41.6666666666667 41.6666666666667 0 0 0 487.7916666666667 779.4583333333333" />
    <glyph glyph-name="arrow-right-down"
      unicode="&#xEA05;"
      horiz-adv-x="1000" d="M262.2083333333333 737.7916666666667A41.6666666666667 41.6666666666667 0 0 0 321.125 737.7916666666667L666.6666666666666 392.25V625A41.6666666666667 41.6666666666667 0 1 0 750 625V291.6666666666668A41.6666666666667 41.6666666666667 0 0 0 708.3333333333333 250H375A41.6666666666667 41.6666666666667 0 1 0 375 333.3333333333334H607.75L262.2083333333333 678.875A41.6666666666667 41.6666666666667 0 0 0 262.2083333333333 737.7916666666667" />
    <glyph glyph-name="arrow-right-up"
      unicode="&#xEA06;"
      horiz-adv-x="1000" d="M333.3333333333333 708.3333333333334A41.6666666666667 41.6666666666667 0 0 0 375 750H708.3333333333333A41.6666666666667 41.6666666666667 0 0 0 750 708.3333333333334V375A41.6666666666667 41.6666666666667 0 1 0 666.6666666666666 375V607.75L321.125 262.2083333333334A41.6666666666667 41.6666666666667 0 0 0 262.2083333333334 321.1250000000001L607.75 666.6666666666667H375A41.6666666666667 41.6666666666667 0 0 0 333.3333333333333 708.3333333333334" />
    <glyph glyph-name="arrow-right"
      unicode="&#xEA07;"
      horiz-adv-x="1000" d="M512.2083333333333 779.4583333333334A41.6666666666667 41.6666666666667 0 0 0 571.1249999999999 779.4583333333334L821.125 529.4583333333334A41.6666666666667 41.6666666666667 0 0 0 821.125 470.5416666666667L571.125 220.5416666666666A41.6666666666667 41.6666666666667 0 0 0 512.2083333333334 279.4583333333334L691.0833333333333 458.3333333333334H208.3333333333333A41.6666666666667 41.6666666666667 0 1 0 208.3333333333333 541.6666666666667H691.0833333333333L512.2083333333333 720.5416666666667A41.6666666666667 41.6666666666667 0 0 0 512.2083333333333 779.4583333333334" />
    <glyph glyph-name="arrow-up"
      unicode="&#xEA08;"
      horiz-adv-x="1000" d="M500 833.3333333333334A41.6666666666667 41.6666666666667 0 0 0 529.4583333333334 821.125L779.4583333333334 571.125A41.6666666666667 41.6666666666667 0 0 0 720.5416666666666 512.2083333333335L541.6666666666666 691.0833333333334V208.3333333333334A41.6666666666667 41.6666666666667 0 1 0 458.3333333333333 208.3333333333334V691.0833333333334L279.4583333333333 512.2083333333333A41.6666666666667 41.6666666666667 0 0 0 220.5416666666667 571.125L470.5416666666666 821.125A41.6666666666667 41.6666666666667 0 0 0 500 833.3333333333334" />
    <glyph glyph-name="caret-down"
      unicode="&#xEA09;"
      horiz-adv-x="1000" d="M708.3333333333333 583.3333333333334L500 333.3333333333334L291.6666666666667 583.3333333333334z" />
    <glyph glyph-name="caret-left"
      unicode="&#xEA0A;"
      horiz-adv-x="1000" d="M583.3333333333333 291.6666666666668L333.3333333333333 500L583.3333333333333 708.3333333333334z" />
    <glyph glyph-name="caret-right"
      unicode="&#xEA0B;"
      horiz-adv-x="1000" d="M416.6666666666667 708.3333333333334L666.6666666666666 500L416.6666666666667 291.6666666666668z" />
    <glyph glyph-name="caret-up"
      unicode="&#xEA0C;"
      horiz-adv-x="1000" d="M291.6666666666667 416.6666666666668L500 666.6666666666667L708.3333333333333 416.6666666666668z" />
    <glyph glyph-name="chevron-double-down"
      unicode="&#xEA0D;"
      horiz-adv-x="1000" d="M220.5416666666667 737.7916666666667A41.6666666666667 41.6666666666667 0 0 0 279.4583333333333 737.7916666666667L500 517.25L720.5416666666666 737.7916666666667A41.6666666666667 41.6666666666667 0 1 0 779.4583333333334 678.875L529.4583333333334 428.875A41.6666666666667 41.6666666666667 0 0 0 470.5416666666667 428.875L220.5416666666667 678.875A41.6666666666667 41.6666666666667 0 0 0 220.5416666666667 737.7916666666666M220.5416666666667 487.7916666666666A41.6666666666667 41.6666666666667 0 0 0 279.4583333333334 487.7916666666666L500 267.2500000000001L720.5416666666666 487.7916666666667A41.6666666666667 41.6666666666667 0 0 0 779.4583333333334 428.8750000000001L529.4583333333334 178.875A41.6666666666667 41.6666666666667 0 0 0 470.5416666666667 178.875L220.5416666666667 428.875A41.6666666666667 41.6666666666667 0 0 0 220.5416666666667 487.7916666666666" />
    <glyph glyph-name="chevron-double-left"
      unicode="&#xEA0E;"
      horiz-adv-x="1000" d="M737.7916666666666 779.4583333333334A41.6666666666667 41.6666666666667 0 0 0 737.7916666666666 720.5416666666667L517.25 500L737.7916666666666 279.4583333333334A41.6666666666667 41.6666666666667 0 0 0 678.8749999999999 220.5416666666666L428.875 470.5416666666666A41.6666666666667 41.6666666666667 0 0 0 428.875 529.4583333333333L678.8749999999999 779.4583333333333A41.6666666666667 41.6666666666667 0 0 0 737.7916666666666 779.4583333333333M487.7916666666667 779.4583333333333A41.6666666666667 41.6666666666667 0 0 0 487.7916666666667 720.5416666666666L267.25 500L487.7916666666667 279.4583333333334A41.6666666666667 41.6666666666667 0 0 0 428.875 220.5416666666666L178.875 470.5416666666666A41.6666666666667 41.6666666666667 0 0 0 178.875 529.4583333333333L428.875 779.4583333333333A41.6666666666667 41.6666666666667 0 0 0 487.7916666666667 779.4583333333333" />
    <glyph glyph-name="chevron-double-right"
      unicode="&#xEA0F;"
      horiz-adv-x="1000" d="M512.2083333333333 779.4583333333334A41.6666666666667 41.6666666666667 0 0 0 571.1249999999999 779.4583333333334L821.125 529.4583333333334A41.6666666666667 41.6666666666667 0 0 0 821.125 470.5416666666667L571.125 220.5416666666666A41.6666666666667 41.6666666666667 0 0 0 512.2083333333334 279.4583333333334L732.7499999999999 500L512.2083333333333 720.5416666666667A41.6666666666667 41.6666666666667 0 0 0 512.2083333333333 779.4583333333334M262.2083333333333 779.4583333333334A41.6666666666667 41.6666666666667 0 0 0 321.125 779.4583333333334L571.1249999999999 529.4583333333334A41.6666666666667 41.6666666666667 0 0 0 571.1249999999999 470.5416666666667L321.125 220.5416666666666A41.6666666666667 41.6666666666667 0 0 0 262.2083333333333 279.4583333333334L482.75 500L262.2083333333333 720.5416666666667A41.6666666666667 41.6666666666667 0 0 0 262.2083333333333 779.4583333333334" />
    <glyph glyph-name="chevron-double-up"
      unicode="&#xEA10;"
      horiz-adv-x="1000" d="M470.5416666666666 821.125A41.6666666666667 41.6666666666667 0 0 0 529.4583333333333 821.125L779.4583333333334 571.125A41.6666666666667 41.6666666666667 0 0 0 720.5416666666666 512.2083333333335L500 732.75L279.4583333333333 512.2083333333333A41.6666666666667 41.6666666666667 0 0 0 220.5416666666667 571.125zM500 482.75L279.4583333333333 262.2083333333334A41.6666666666667 41.6666666666667 0 0 0 220.5416666666667 321.1250000000001L470.5416666666666 571.125A41.6666666666667 41.6666666666667 0 0 0 529.4583333333333 571.125L779.4583333333334 321.1250000000001A41.6666666666667 41.6666666666667 0 0 0 720.5416666666666 262.2083333333334z" />
    <glyph glyph-name="chevron-down"
      unicode="&#xEA11;"
      horiz-adv-x="1000" d="M220.5416666666667 612.7916666666667A41.6666666666667 41.6666666666667 0 0 0 279.4583333333333 612.7916666666667L500 392.25L720.5416666666666 612.7916666666667A41.6666666666667 41.6666666666667 0 1 0 779.4583333333334 553.875L529.4583333333334 303.875A41.6666666666667 41.6666666666667 0 0 0 470.5416666666667 303.875L220.5416666666667 553.875A41.6666666666667 41.6666666666667 0 0 0 220.5416666666667 612.7916666666666" />
    <glyph glyph-name="chevron-left"
      unicode="&#xEA12;"
      horiz-adv-x="1000" d="M612.7916666666666 779.4583333333334A41.6666666666667 41.6666666666667 0 0 0 612.7916666666666 720.5416666666667L392.25 500L612.7916666666666 279.4583333333334A41.6666666666667 41.6666666666667 0 0 0 553.875 220.5416666666666L303.875 470.5416666666666A41.6666666666667 41.6666666666667 0 0 0 303.875 529.4583333333333L553.875 779.4583333333333A41.6666666666667 41.6666666666667 0 0 0 612.7916666666666 779.4583333333333" />
    <glyph glyph-name="chevron-right"
      unicode="&#xEA13;"
      horiz-adv-x="1000" d="M387.2083333333333 220.5416666666666A41.6666666666667 41.6666666666667 0 0 0 387.2083333333333 279.4583333333334L607.75 500L387.2083333333333 720.5416666666667A41.6666666666667 41.6666666666667 0 0 0 446.125 779.4583333333334L696.125 529.4583333333334A41.6666666666667 41.6666666666667 0 0 0 696.125 470.5416666666667L446.125 220.5416666666666A41.6666666666667 41.6666666666667 0 0 0 387.2083333333334 220.5416666666666" />
    <glyph glyph-name="chevron-up"
      unicode="&#xEA14;"
      horiz-adv-x="1000" d="M470.5416666666666 696.125A41.6666666666667 41.6666666666667 0 0 0 529.4583333333333 696.125L779.4583333333334 446.1250000000001A41.6666666666667 41.6666666666667 0 0 0 720.5416666666666 387.2083333333334L500 607.75L279.4583333333333 387.2083333333334A41.6666666666667 41.6666666666667 0 0 0 220.5416666666667 446.125z" />
  </font>
</defs>
</svg>
