<svg width="24" height="24" viewBox="0 0 24 24" fill="none" xmlns="http://www.w3.org/2000/svg">
<path d="M12.6508 2.24075C12.2763 1.91976 11.7233 1.92009 11.3488 2.24108L11.2604 2.31825C11.2055 2.36656 11.1266 2.43681 11.0269 2.5273C10.8277 2.70821 10.5454 2.97037 10.2077 3.30005C9.5335 3.95821 8.63218 4.89145 7.72807 5.9893C6.8264 7.08418 5.90543 8.36265 5.206 9.71156C4.51106 11.0518 4 12.5279 4 14C4 18.4183 7.58172 22 12 22C16.4183 22 20 18.4183 20 14C20 12.5279 19.4889 11.0518 18.794 9.71156C18.0946 8.36265 17.1736 7.08418 16.2719 5.9893C15.3678 4.89145 14.4665 3.95821 13.7923 3.30005C13.4546 2.97037 13.1723 2.70821 12.9731 2.5273L12.6508 2.24075ZM6 14C6 12.9721 6.36394 11.8232 6.9815 10.6322C7.59457 9.44986 8.4236 8.29083 9.27193 7.26071C10.1178 6.23355 10.9665 5.35429 11.6048 4.7312C11.7483 4.59111 11.8809 4.46427 12 4.35193C12.1191 4.46427 12.2517 4.59111 12.3952 4.7312C13.0335 5.35429 13.8822 6.23355 14.7281 7.26071C15.5764 8.29083 16.4054 9.44986 17.0185 10.6322C17.6361 11.8232 18 12.9721 18 14C18 17.3137 15.3137 20 12 20C8.68629 20 6 17.3137 6 14Z" fill="#B4B4B4"/>
<path d="M8.35964 14.0416C7.8303 14.1991 7.52889 14.7559 7.68643 15.2853C8.11874 16.7378 9.26213 17.8812 10.7147 18.3135C11.244 18.4711 11.8009 18.1697 11.9584 17.6403C12.1159 17.111 11.8145 16.5542 11.2852 16.3966C10.48 16.157 9.84298 15.52 9.60334 14.7148C9.4458 14.1854 8.88897 13.884 8.35964 14.0416Z" fill="#B4B4B4"/>
</svg>
