<svg xmlns="http://www.w3.org/2000/svg" xmlns:xlink="http://www.w3.org/1999/xlink" width="0" height="0" style="display:none;"><symbol id="svg-vistas-board"><path fill="#b4b4b4" d="M2 5a2 2 0 0 1 2-2h16a2 2 0 0 1 2 2v14a2 2 0 0 1-2 2H4a2 2 0 0 1-2-2zm6 0H4v14h4zm2 0v14h4V5zm6 0v14h4V5z"></path></symbol><symbol id="svg-vistas-grid"><path fill="#b4b4b4" d="M3 5a2 2 0 0 1 2-2h4a2 2 0 0 1 2 2v4a2 2 0 0 1-2 2H5a2 2 0 0 1-2-2zm6 0H5v4h4zm4 0a2 2 0 0 1 2-2h4a2 2 0 0 1 2 2v4a2 2 0 0 1-2 2h-4a2 2 0 0 1-2-2zm6 0h-4v4h4zM3 15a2 2 0 0 1 2-2h4a2 2 0 0 1 2 2v4a2 2 0 0 1-2 2H5a2 2 0 0 1-2-2zm6 0H5v4h4zm4 0a2 2 0 0 1 2-2h4a2 2 0 0 1 2 2v4a2 2 0 0 1-2 2h-4a2 2 0 0 1-2-2zm6 0h-4v4h4z"></path></symbol><symbol id="svg-vistas-layers"><path fill="#b4b4b4" d="M11.515 2.126a1 1 0 0 1 .97 0l9 5a1 1 0 0 1 0 1.748l-9 5a1 1 0 0 1-.97 0l-9-5a1 1 0 0 1 0-1.748zM5.059 8 12 11.856 18.941 8l-6.94-3.856z"></path><path fill="#b4b4b4" d="M2.126 11.514a1 1 0 0 1 1.36-.388L12 15.856l8.515-4.73a1 1 0 0 1 .97 1.748l-9 5a1 1 0 0 1-.97 0l-9-5a1 1 0 0 1-.389-1.36"></path><path fill="#b4b4b4" d="M2.126 15.514a1 1 0 0 1 1.36-.388L12 19.856l8.515-4.73a1 1 0 0 1 .97 1.748l-9 5a1 1 0 0 1-.97 0l-9-5a1 1 0 0 1-.389-1.36"></path></symbol><symbol id="svg-vistas-layout"><path fill="#b4b4b4" d="M2 5a2 2 0 0 1 2-2h16a2 2 0 0 1 2 2v14a2 2 0 0 1-2 2H3.987A2 2 0 0 1 2 19V5m2 4h16V5H4zm4 2H4v8h4zm2 8h10v-8H10z"></path></symbol><symbol id="svg-vistas-table"><path fill="#b4b4b4" d="M2 5.5a2 2 0 0 1 2-2h16a2 2 0 0 1 2 2v13a2 2 0 0 1-2 2H4a2 2 0 0 1-2-2zm9 0H4v3h7zm2 0v3h7v-3zm7 5h-7v3h7zm0 5h-7v3h7zm-9 3v-3H4v3zm-7-5h7v-3H4z"></path></symbol><symbol id="svg-vistas-three-rows"><path fill="#b4b4b4" d="M19 2a2 2 0 0 1 2 2v2a2 2 0 0 1-2 2H5a2 2 0 0 1-2-2V4a2 2 0 0 1 2-2zm0 4V4H5v2zM19 16a2 2 0 0 1 2 2v2a2 2 0 0 1-2 2H5a2 2 0 0 1-2-2v-2a2 2 0 0 1 2-2zm0 4v-2H5v2zM19 9a2 2 0 0 1 2 2v2a2 2 0 0 1-2 2H5a2 2 0 0 1-2-2v-2a2 2 0 0 1 2-2zm0 4v-2H5v2z"></path></symbol><symbol id="svg-vistas-two-columns"><path fill="#b4b4b4" d="M3 5a2 2 0 0 1 2-2h4a2 2 0 0 1 2 2v14a2 2 0 0 1-2 2H5a2 2 0 0 1-2-2zm6 0H5v14h4zM13 5a2 2 0 0 1 2-2h4a2 2 0 0 1 2 2v14a2 2 0 0 1-2 2h-4a2 2 0 0 1-2-2zm6 0h-4v14h4z"></path></symbol><symbol id="svg-vistas-two-rows"><path fill="#b4b4b4" d="M19 3a2 2 0 0 1 2 2v4a2 2 0 0 1-2 2H5a2 2 0 0 1-2-2V5a2 2 0 0 1 2-2zm0 6V5H5v4zM19 13a2 2 0 0 1 2 2v4a2 2 0 0 1-2 2H5a2 2 0 0 1-2-2v-4a2 2 0 0 1 2-2zm0 6v-4H5v4z"></path></symbol><symbol id="svg-vistas-window"><path fill="#b4b4b4" d="M4 3a2 2 0 0 0-2 2v14a2 2 0 0 0 2 2h16a2 2 0 0 0 2-2V5a2 2 0 0 0-2-2zm16 2v4H4V5zM4 11h16v8H4zm6-4a1 1 0 1 1-2 0 1 1 0 0 1 2 0M6 8a1 1 0 1 0 0-2 1 1 0 0 0 0 2"></path></symbol></svg>