<svg width="52" height="52" viewBox="0 0 52 52" fill="none" xmlns="http://www.w3.org/2000/svg">
<path d="M26 52.0078C40.3594 52.0078 52 40.3672 52 26.0078C52 11.6484 40.3594 0.0078125 26 0.0078125C11.6406 0.0078125 0 11.6484 0 26.0078C0 40.3672 11.6406 52.0078 26 52.0078Z" fill="#0033A1"/>
<path d="M27.1799 8.45777C27.6038 8.55821 28.0298 8.6437 28.4493 8.7591C29.6527 9.09462 30.7326 9.65881 31.6931 10.4752C32.8156 11.4262 33.6036 12.5994 34.0935 13.9714C34.5238 15.1789 34.6302 16.4226 34.4854 17.7091C34.3385 19.0106 33.9359 20.2031 33.1968 21.2674C32.7709 21.8828 32.249 22.4342 31.7826 23.0005C32.6431 23.6032 33.5674 24.2123 34.4492 24.879C35.7996 25.8963 36.775 27.2234 37.4289 28.7728C37.7314 29.4887 37.9422 30.2473 38.1403 30.9996C38.2596 31.4548 38.3235 31.9356 38.3277 32.4058C38.3639 36.774 38.3788 38.0391 38.4087 42.4094C38.4108 42.8603 38.3788 43.2771 37.9635 43.5549H37.5162C37.1818 43.3561 37.1307 43.0463 37.1307 42.683C37.1392 38.6054 37.1456 37.6331 37.1265 33.5555C37.1222 32.8503 37.0264 32.1408 36.9177 31.442C36.5706 29.2194 35.4588 27.4221 33.7911 25.954C33.5781 25.768 33.3353 25.6163 33.0967 25.4411C33.0435 25.5287 33.0052 25.5778 32.9839 25.6313C32.5068 26.8323 32.0893 28.0611 31.5398 29.228C30.6069 31.2047 29.4355 33.0426 28.0766 34.7587C27.7784 35.1348 27.4696 35.4896 27.5292 36.0538C27.5612 36.3636 27.4398 36.7291 27.2864 37.0154C26.7838 37.9515 25.968 38.3853 24.9073 38.3832C23.0863 38.3789 21.2653 38.3874 19.4442 38.3917C19.4229 38.411 19.4016 38.4323 19.3803 38.4516C19.376 40.8814 19.3718 40.2061 19.3675 42.6338C19.3675 43.0142 19.2568 43.339 18.9224 43.5549H18.4751C18.1833 43.369 18.0917 43.1061 18.0939 42.7599C18.1045 40.4262 18.1003 41.1956 18.1003 38.8597C18.1003 38.723 18.0917 38.5883 18.0875 38.4516C18.0683 38.4323 18.0491 38.4131 18.03 38.3939C17.0886 38.3874 16.1472 38.3703 15.2057 38.3789C13.9363 38.3917 12.8629 37.4942 12.5285 36.3701C12.1771 35.184 12.3432 34.0727 13.0418 33.0469C13.8235 31.8972 14.5306 30.6876 15.3953 29.6062C16.2515 28.5356 17.2526 27.5781 18.211 26.5929C19.2419 25.533 20.441 24.676 21.6401 23.8212C21.687 23.787 21.721 23.7335 21.7594 23.6908C21.3121 23.3061 20.8478 22.9685 20.4559 22.5582C19.212 21.261 18.4261 19.7287 18.1769 17.925C17.8574 15.617 18.392 13.5184 19.7871 11.6826C20.8563 10.2764 22.2429 9.26558 23.9915 8.82748C24.4622 8.70781 24.9265 8.58172 25.3951 8.45777C25.5676 8.45777 25.7423 8.45777 25.9148 8.45777C26.1384 8.48128 26.1018 8.42915 26.3254 8.45266C26.4489 8.42915 26.8328 8.48128 26.9563 8.45777C27.0308 8.45777 27.1054 8.45777 27.1799 8.45777ZM18.7626 33.2286C18.7648 33.0555 18.7882 32.8802 18.769 32.7092C18.6796 31.9613 18.5731 31.2154 18.4794 30.4696C18.392 29.7772 18.3132 29.0826 18.2195 28.2898C18.03 28.5184 17.9064 28.6916 17.7573 28.8433C16.4027 30.2217 15.2952 31.786 14.292 33.4337C13.8874 34.1005 13.5466 34.7566 13.636 35.5793C13.7127 36.2953 14.3282 37.1287 15.1823 37.1159C16.4198 37.0988 17.6594 37.1116 18.899 37.1116C19.0055 37.1116 19.1119 37.1009 19.2461 37.0945C19.1524 36.2418 19.0608 35.4212 18.965 34.5685C18.2621 34.5685 17.5593 34.5706 16.8564 34.5685C16.4922 34.5685 16.1791 34.2779 16.1727 33.9509C16.1663 33.5897 16.4496 33.3098 16.8415 33.3034C17.4613 33.2948 18.079 33.2927 18.6987 33.2905C18.72 33.2713 18.7413 33.2521 18.7626 33.2328V33.2286ZM20.0171 19.6582C21.6976 23.2784 25.8871 24.7529 29.3375 23.039C33.15 21.1434 34.3214 16.6406 32.3108 13.1914C28.2214 15.3434 24.1321 17.4954 20.0193 19.6582H20.0171ZM26.9499 34.1582C27.4036 33.547 27.8636 32.9849 28.2662 32.3801C29.8082 30.0636 31.0776 27.6123 31.8806 24.9324C31.9487 24.7059 31.8976 24.6119 31.7464 24.5136C31.4269 24.3041 31.1096 24.0926 30.7752 23.9067C30.6836 23.8554 30.5132 23.8532 30.4259 23.9067C29.3183 24.5649 28.1043 24.894 26.8434 25.0137C25.7465 25.1184 24.6539 24.9709 23.6273 24.5585C23.2184 24.3939 22.9585 24.4238 22.6135 24.6888C21.983 25.1718 21.9447 25.1483 22.1279 25.8963C22.7008 28.2428 23.295 30.5829 23.8573 32.9315C23.9361 33.2606 24.0788 33.3247 24.377 33.3119C25.3333 33.2649 26.2449 33.3888 26.952 34.1603L26.9499 34.1582ZM20.8393 25.9924C20.3686 26.3728 19.9682 26.6891 19.5826 27.0182C19.4889 27.0994 19.3718 27.2362 19.3803 27.3388C19.4336 27.9906 19.5166 28.6424 19.5976 29.2921C19.6913 30.0379 19.7999 30.7838 19.8894 31.5296C19.9745 32.2434 20.0363 32.9593 20.1172 33.6731C20.2365 34.7266 20.3579 35.7781 20.4964 36.8274C20.5091 36.93 20.6497 37.0945 20.7349 37.0967C21.687 37.1159 22.6412 37.1095 23.6145 37.1095C22.6923 33.4123 21.7764 29.7366 20.8414 25.9903L20.8393 25.9924ZM19.4676 18.4999C23.5719 16.3457 27.5569 14.2514 31.5909 12.1335C31.3183 11.8771 31.0755 11.6057 30.7901 11.392C30.6623 11.2958 30.4259 11.2402 30.2789 11.2915C29.7699 11.4646 29.2779 11.6847 28.7837 11.8963C27.2886 12.5374 25.7998 13.1914 24.3003 13.824C22.7157 14.4929 21.1226 15.1361 19.5358 15.8029C19.457 15.8371 19.3739 15.9824 19.376 16.0722C19.3931 16.8415 19.4293 17.6087 19.4655 18.4977L19.4676 18.4999ZM29.1799 10.3598C26.82 9.48143 24.6198 9.56905 22.4942 10.8919C22.5794 10.956 22.6475 11.0287 22.7327 11.0693C23.4143 11.4048 24.0959 11.7403 24.7838 12.0609C24.8775 12.1036 25.0224 12.0929 25.1203 12.0545C25.8402 11.7681 26.5559 11.4689 27.2715 11.1719C27.8849 10.9154 28.4983 10.6525 29.182 10.3619L29.1799 10.3598ZM24.2726 34.545C24.4942 35.4383 24.7029 36.2696 24.9286 37.1843C25.2226 37.0817 25.5165 37.0197 25.7657 36.8787C26.2641 36.6009 26.3365 36.1179 26.2854 35.6028C26.2449 35.2032 25.8701 34.7352 25.4803 34.6647C25.0905 34.5941 24.6901 34.5856 24.2705 34.5471L24.2726 34.545ZM19.7466 14.1894C19.7892 14.2214 19.834 14.2535 19.8766 14.2877C21.0182 13.8069 22.1619 13.3239 23.3632 12.8174C22.671 12.4669 22.0214 12.1378 21.2908 11.7681C20.7754 12.5759 20.2621 13.3816 19.7466 14.1894Z" fill="white"/>
<path d="M33.723 43.5545C33.4291 43.3729 33.3226 43.1143 33.3247 42.766C33.3333 38.3059 33.329 36.9488 33.329 32.4888C33.329 32.211 33.3418 31.9032 33.6549 31.8241C33.8615 31.7729 34.1746 31.7793 34.3087 31.9032C34.477 32.0592 34.5771 32.3584 34.5856 32.602C34.6176 33.459 34.5984 34.316 34.5984 35.1729C34.5984 38.6649 34.5963 39.0517 34.6027 42.5437C34.6027 42.9797 34.526 43.3494 34.0958 43.5567H33.723V43.5545Z" fill="white"/>
<path d="M26.5876 8.52829C26.364 8.50478 26.1382 8.48127 25.9146 8.45776C26.1382 8.45776 26.3618 8.45776 26.5833 8.45776C26.5833 8.48127 26.5833 8.50478 26.5876 8.52829Z" fill="white"/>
<path d="M26.5878 8.52829C26.5856 8.50478 26.5835 8.48127 26.5835 8.45776C26.7092 8.45776 26.8327 8.45776 26.9562 8.45776C26.8327 8.48127 26.7113 8.50478 26.5878 8.52829Z" fill="white"/>
<path d="M29.118 19.948C29.3906 19.948 29.5844 19.9437 29.7761 19.948C30.1425 19.9565 30.4534 20.2279 30.447 20.5592C30.4406 20.8712 30.1552 21.2088 29.7591 21.2088C28.1979 21.2045 26.6367 21.2088 25.0755 21.2045C24.7113 21.2045 24.4344 20.9502 24.4259 20.6275C24.4131 20.198 24.6175 19.9522 25.0499 19.9437C25.7315 19.9287 26.413 19.9437 27.0946 19.9287C27.2203 19.9266 27.3736 19.8582 27.4652 19.7684C28.1744 19.0739 28.8688 18.3644 29.5695 17.6634C29.889 17.345 30.2702 17.3343 30.5535 17.6292C30.8411 17.9263 30.8176 18.1998 30.4768 18.546C30.1105 18.9157 29.7399 19.2833 29.3736 19.653C29.3012 19.7257 29.2394 19.809 29.118 19.9522V19.948Z" fill="white"/>
</svg>
