<svg width="80" height="80" viewBox="0 0 80 80" fill="none" xmlns="http://www.w3.org/2000/svg">
<path d="M27.7332 33.0114L28.8531 33.2085C30.2747 33.4534 31.6993 33.6863 33.1268 33.9073C33.328 33.9237 33.5306 33.9085 33.7271 33.8625C34.1494 33.7648 34.5773 33.693 35.0083 33.6475C35.9939 33.6475 36.9884 33.6475 37.9829 33.6475C38.2069 33.6475 38.2875 33.7192 38.2875 33.9432C38.2875 34.7943 38.2875 35.6365 38.2875 36.4877C38.2875 37.0163 38.2875 37.5539 38.2875 38.0914C38.2875 39.6146 38.2875 41.1377 38.2875 42.6608C38.2965 42.7605 38.2808 42.8609 38.2417 42.9531C38.2026 43.0453 38.1414 43.1265 38.0635 43.1894C37.6096 43.5472 37.2625 44.0225 37.0598 44.5638C36.857 45.105 36.8065 45.6914 36.9136 46.2594C37.0207 46.8273 37.2814 47.3551 37.6674 47.7852C38.0533 48.2154 38.5498 48.5317 39.1028 48.6995C39.469 48.8084 39.8498 48.8598 40.2317 48.8518C42.8658 48.8518 45.4999 48.7981 48.1251 48.7712C48.5372 48.7712 48.5372 48.7712 48.5014 49.1744C48.358 50.8319 48.2236 52.4894 48.0803 54.1469C48.0355 54.6666 48.0265 54.6666 47.5248 54.6666H32.6878C32.2219 54.6666 32.2219 54.6666 32.1861 54.2186L31.2901 43.9241C31.2095 43.0281 31.1557 42.1949 31.0661 41.3258C31.0385 41.1805 30.9548 41.0518 30.8332 40.9674C29.8297 40.2865 28.8083 39.6235 27.8049 38.9426C27.3569 38.6469 26.9089 38.3244 26.4878 38.0466C25.9054 37.6524 25.3051 37.2761 24.6959 36.8819C23.7283 36.1741 22.8323 35.538 21.8647 34.857C21.5959 34.6582 21.3802 34.3961 21.2369 34.094C21.0935 33.7919 21.0269 33.4591 21.0428 33.1251C21.0588 32.7911 21.1568 32.4662 21.3283 32.1791C21.4998 31.892 21.7394 31.6517 22.026 31.4793C25.8786 28.9169 29.7312 26.3485 33.5838 23.7741C33.7786 23.6405 33.9484 23.4737 34.0855 23.2813C34.9388 22.1186 36.1937 21.3145 37.6066 21.0251C39.0194 20.7358 40.4894 20.9818 41.7311 21.7154C42.9728 22.449 43.8975 23.6179 44.3258 24.995C44.754 26.3722 44.6552 27.8593 44.0485 29.1677C43.5329 30.2175 42.7096 31.0851 41.6884 31.6549C40.6671 32.2248 39.4964 32.4698 38.3323 32.3573C37.4132 32.2877 36.5249 31.9952 35.7443 31.505C34.9638 31.0148 34.3144 30.3417 33.8525 29.544C33.7629 29.4007 33.7002 29.3111 33.5121 29.4276L27.8317 32.8411L27.6973 32.9128L27.7332 33.0114Z" fill="#0033A1"/>
<path d="M53.053 47.2032H43.8247L46.2079 33.7639C46.7724 34.185 47.4802 34.2657 47.7759 35.0183C48.2866 36.3084 48.8779 37.5717 49.4334 38.844L52.9276 46.9076C52.9634 46.9524 52.9814 47.033 53.053 47.2032Z" fill="#0033A1"/>
<path d="M44.7112 33.6654L44.3797 35.4573C44.0214 37.509 43.654 39.5518 43.2867 41.6036C43.1433 42.401 43.2867 42.2307 42.5162 42.2934C42.0234 42.2934 41.5306 42.2934 41.0378 42.3562C40.8318 42.3562 40.769 42.3024 40.769 42.0963V37.6166C40.769 36.407 40.769 35.1885 40.769 33.979C40.769 33.7012 40.8318 33.5937 41.1274 33.6027C42.2115 33.6027 43.2956 33.6027 44.3708 33.6027L44.7112 33.6654Z" fill="#0033A1"/>
<path d="M54.5493 46.827L50.2397 36.9715L50.3025 36.9178C50.4488 37.079 50.6043 37.2316 50.7684 37.3747C51.5299 38.0467 52.3184 38.7097 53.0799 39.3817C54.1103 40.2776 55.1406 41.2184 56.153 42.1502C56.445 42.3957 56.6542 42.7254 56.752 43.0941C56.8498 43.4629 56.8315 43.8529 56.6996 44.2109C56.4514 45.239 55.8074 46.1277 54.9077 46.6837L54.6837 46.8002C54.6837 46.8002 54.6389 46.8181 54.5493 46.827Z" fill="#0033A1"/>
<path d="M42.8838 43.8076C42.8838 44.0853 42.8121 44.3272 42.7673 44.5691C42.6239 45.3934 42.4627 46.2087 42.3283 47.033C42.3283 47.248 42.2028 47.3197 41.9878 47.3197C41.3248 47.3197 40.6708 47.3197 40.0078 47.3197C39.5695 47.3222 39.1477 47.1529 38.8329 46.8481C38.518 46.5432 38.3351 46.1272 38.3234 45.6891C38.3138 45.4699 38.3478 45.251 38.4234 45.0451C38.4991 44.8391 38.6148 44.6503 38.764 44.4894C38.9132 44.3286 39.0928 44.1989 39.2925 44.108C39.4921 44.0171 39.7078 43.9668 39.9271 43.9599L42.8838 43.8076Z" fill="#0033A1"/>
</svg>
