<svg width="52" height="52" viewBox="0 0 52 52" fill="none" xmlns="http://www.w3.org/2000/svg">
<path d="M26 52C40.3594 52 52 40.3594 52 26C52 11.6406 40.3594 0 26 0C11.6406 0 0 11.6406 0 26C0 40.3594 11.6406 52 26 52Z" fill="#0033A1"/>
<path d="M35.4969 20.9098C34.7397 20.1805 33.9993 19.466 33.1642 18.6606C33.0732 18.8202 33.0417 18.9334 32.9693 18.9946C32.6297 19.2823 32.2994 19.5922 31.9245 19.8279C31.3306 20.1972 30.67 20.29 30.0093 20.0246C29.2689 19.7277 28.6565 19.8204 28.0069 20.3382C27.0791 21.0805 25.9674 21.3812 24.7723 21.1974C23.9242 21.0657 23.2691 20.5683 22.744 19.9262C22.2819 19.3602 21.8866 18.7385 21.4338 18.1038C20.3686 18.6717 19.4128 19.4549 18.5406 20.4236C18.6483 20.5015 18.7485 20.5665 18.8394 20.6426C19.4221 21.1436 20.0364 21.6113 20.5746 22.155C21.3911 22.979 21.6769 23.9867 21.2631 25.0983C20.9513 25.9334 20.5653 26.7406 20.1886 27.5516C20.0624 27.8226 19.7302 27.8931 19.4722 27.7613C19.2124 27.6277 19.0974 27.3512 19.2198 27.058C19.3887 26.6571 19.5966 26.273 19.7691 25.8721C19.9399 25.4731 20.0939 25.0667 20.2405 24.6585C20.4614 24.0442 20.2795 23.5134 19.8805 23.0291C19.3108 22.3406 18.6074 21.8117 17.8429 21.3069C17.3028 22.0158 16.8927 22.7786 16.5605 23.584C16.0131 24.9164 15.7384 26.3045 15.7365 27.7446C15.7365 27.8021 15.7384 27.8597 15.7365 27.9172C15.7254 28.2828 15.5306 28.5055 15.2114 28.5185C14.8792 28.5315 14.6435 28.3051 14.6361 27.9302C14.6064 26.6813 14.7511 25.4453 15.1483 24.2632C16.7312 19.5532 19.9696 16.7139 24.854 15.7656C25.2901 15.6802 25.741 15.6598 26.1809 15.6097C26.3219 14.6243 26.0361 13.9599 25.3383 13.5906C24.9635 13.8504 24.6239 14.1455 24.2342 14.3459C23.3953 14.7801 22.4897 14.8173 21.6286 14.4777C20.8659 14.177 20.1329 13.7836 19.4314 13.3586C18.8654 13.0153 18.3087 12.8539 17.6684 13.0469C17.3789 13.1341 17.1154 13.1229 16.9335 12.8483C16.7517 12.5718 16.85 12.3268 17.0486 12.0985C18.0117 10.9869 19.0751 10.0034 20.4261 9.37241C21.6992 8.78042 22.9295 8.92517 24.1209 9.58768C25.1101 10.137 25.4812 11.0704 25.5852 12.1338C25.6093 12.3825 25.7039 12.5087 25.9099 12.6386C26.218 12.8297 26.4889 13.0803 26.7506 13.2862C27.0958 13.0394 27.4576 12.787 27.8084 12.518C27.877 12.466 27.9253 12.3472 27.9271 12.2563C28.0311 9.29076 31.2212 8.44823 33.0918 9.35942C34.4743 10.0331 35.5841 11.0278 36.5565 12.1932C36.7198 12.3899 36.7477 12.6126 36.6085 12.8316C36.4637 13.0617 36.2447 13.1545 35.9849 13.071C35.2296 12.8297 34.5875 13.019 33.951 13.4718C33.1048 14.0731 32.1769 14.5333 31.1228 14.6558C30.0502 14.7801 29.1315 14.448 28.3707 13.6797C28.3317 13.6407 28.2872 13.6054 28.2482 13.5702C27.5189 13.9265 27.2535 14.5185 27.3407 15.6097C27.8307 15.6728 28.3299 15.7192 28.8216 15.8045C33.7877 16.6601 37.6589 20.4273 38.6647 25.3729C38.7445 25.7626 38.5923 26.0484 38.262 26.1301C37.9428 26.208 37.67 26.0076 37.5865 25.6123C37.3118 24.2966 36.8405 23.0625 36.061 21.8284C35.7214 22.4 35.3929 22.9159 35.1016 23.4503C34.8325 23.944 34.6209 24.4673 34.3537 24.9591C33.8879 25.8202 33.179 26.2785 32.1676 26.234C31.5144 26.2043 30.8593 26.2006 30.2042 26.2136C29.3895 26.2303 28.7548 26.6089 28.2797 27.2584C27.8251 27.8782 27.5115 28.5612 27.3816 29.322C27.3723 29.3777 27.3593 29.4352 27.3444 29.489C27.2516 29.812 26.9974 29.992 26.7116 29.9381C26.4165 29.8843 26.2291 29.6338 26.2718 29.2998C26.3757 28.4665 26.6912 27.7075 27.1236 26.993C27.9865 25.5659 29.2763 24.9962 30.9038 25.0834C31.3622 25.1076 31.8224 25.0964 32.2808 25.1224C32.7318 25.1465 33.0602 24.9517 33.2885 24.5842C33.4518 24.3226 33.6077 24.0516 33.732 23.7695C34.1774 22.7581 34.6618 21.7709 35.5061 20.9079L35.4969 20.9098ZM32.2957 18.1929C29.0573 16.4615 25.8338 16.2629 22.4823 17.5731C22.9128 18.4045 23.3842 19.1561 24.1098 19.7147C24.5663 20.0654 25.0748 20.2064 25.6575 20.1248C26.3831 20.0246 27.029 19.7592 27.5875 19.2915C28.2705 18.72 29.0313 18.5826 29.8739 18.8406C30.039 18.8907 30.2023 18.9761 30.3675 18.9779C30.6774 18.9835 31.0226 19.0169 31.2917 18.9C31.635 18.7515 31.9189 18.4657 32.2957 18.1911V18.1929ZM18.8301 11.8072C19.3739 12.1171 19.8768 12.4289 20.402 12.6998C20.9494 12.9819 21.5043 13.2658 22.0814 13.4774C22.82 13.7465 23.5123 13.5832 24.1822 13.0821C23.6923 12.8761 23.2469 12.6943 22.8071 12.5031C22.4563 12.3491 22.319 12.0633 22.434 11.7608C22.551 11.4546 22.8757 11.3414 23.2413 11.488C23.6217 11.642 24.0003 11.8035 24.4272 11.9816C24.4049 11.8387 24.3956 11.7385 24.3715 11.6439C24.1042 10.6251 22.8182 9.90873 21.6472 10.1388C20.4929 10.3653 19.6355 11.089 18.8283 11.809L18.8301 11.8072ZM34.6785 11.8035C34.0642 11.2393 33.3831 10.7049 32.574 10.3448C31.6554 9.93657 30.7795 10.0795 29.937 10.5471C29.4043 10.844 29.1538 11.3321 29.0926 11.9779C29.5083 11.8053 29.8646 11.6532 30.2246 11.5047C30.6217 11.3414 30.9409 11.4323 31.0727 11.7404C31.21 12.0633 31.0634 12.3435 30.6607 12.5161C30.2339 12.7017 29.8033 12.8817 29.3357 13.0821C29.8627 13.4867 30.4213 13.7057 31.0115 13.5609C31.6164 13.4143 32.2066 13.1693 32.767 12.8947C33.4203 12.5755 34.0327 12.1746 34.6766 11.8016L34.6785 11.8035Z" fill="white" stroke="white" stroke-width="0.4"/>
<path d="M19.2866 40.4567C19.4889 40.6534 19.6968 40.8464 19.8953 41.0506C20.2294 41.392 20.2331 41.663 19.8972 42.0026C19.2421 42.6632 18.5833 43.3202 17.9245 43.9771C17.5051 44.3965 17.2657 44.3965 16.85 43.9827C14.6713 41.8059 12.4945 39.629 10.3177 37.4522C9.65144 36.786 8.98522 36.1198 8.31899 35.4535C7.89773 35.0323 7.89402 34.7929 8.306 34.3809C8.95552 33.7295 9.60505 33.08 10.2564 32.4323C10.6406 32.05 10.893 32.05 11.279 32.4398C11.4645 32.6272 11.6316 32.8295 11.8227 33.0429C11.9545 32.9241 12.0398 32.8517 12.1178 32.7738C12.81 32.0834 13.4966 31.3912 14.1907 30.7028C16.7535 28.1566 20.6191 28.229 23.0966 30.8568C23.1968 30.9626 23.3861 31.0405 23.5327 31.0405C25.3253 31.0535 27.118 31.0739 28.9088 31.0386C29.9481 31.0182 30.8518 31.2038 31.4364 32.1892C31.5552 32.076 31.648 31.9944 31.7352 31.9072C33.0602 30.584 34.3741 29.2497 35.7121 27.9395C37.0891 26.5922 39.3253 27.1434 39.8783 28.9583C40.1808 29.953 39.908 30.816 39.1843 31.5416C37.6588 33.0707 36.1297 34.5962 34.6024 36.1235C34.0735 36.6505 33.5501 37.1831 33.0175 37.7065C31.9245 38.7772 30.6106 39.321 29.0777 39.3228C26.539 39.3247 23.9985 39.3562 21.4616 39.3061C20.4948 39.2876 19.8564 39.7144 19.2885 40.4567H19.2866ZM18.5146 39.5938C18.5332 39.5808 18.5536 39.5697 18.5703 39.5548C18.652 39.475 18.7392 39.3989 18.8153 39.3117C19.5112 38.5137 20.3815 38.1927 21.4449 38.2075C23.9947 38.2409 26.5464 38.2224 29.0963 38.2168C30.3137 38.2149 31.3659 37.7881 32.2288 36.9289C34.2962 34.869 36.3579 32.8053 38.4197 30.7399C39.0303 30.1293 39.0525 29.2701 38.4884 28.7115C37.9224 28.1511 37.0539 28.1678 36.4507 28.7672C34.9197 30.2908 33.3943 31.8181 31.8725 33.3509C31.7742 33.4493 31.6999 33.5941 31.6665 33.7295C31.4197 34.7576 30.5679 35.4573 29.5027 35.461C26.9751 35.4684 24.4476 35.4647 21.92 35.461C21.4932 35.461 21.2389 35.2401 21.2482 34.895C21.2575 34.5609 21.5006 34.3605 21.9144 34.3586C22.4656 34.3549 23.0168 34.3586 23.5679 34.3586C25.5202 34.3586 27.4743 34.3568 29.4266 34.3586C29.9388 34.3586 30.3211 34.1508 30.5289 33.6831C30.8574 32.9408 30.3025 32.1577 29.4489 32.1558C27.4261 32.1503 25.4051 32.141 23.3823 32.1632C22.924 32.1688 22.6215 32.0259 22.3245 31.677C20.504 29.5522 17.2787 29.3499 15.2429 31.2372C14.3837 32.0333 13.5783 32.887 12.7506 33.7147C12.7209 33.7444 12.7079 33.7889 12.7116 33.7833C14.6546 35.7282 16.5772 37.6508 18.5183 39.5919L18.5146 39.5938ZM18.7188 41.5386C16.0687 38.8867 13.4057 36.22 10.7631 33.5755C10.3251 34.0153 9.86671 34.4737 9.43432 34.9079C12.0788 37.5506 14.7456 40.2136 17.39 42.8562C17.8261 42.4238 18.2864 41.9673 18.7188 41.5368V41.5386Z" fill="white" stroke="white" stroke-width="0.4"/>
</svg>
