<svg width="80" height="80" viewBox="0 0 80 80" fill="none" xmlns="http://www.w3.org/2000/svg">
<path d="M38.7398 39.0262C38.6597 38.9824 38.5921 38.9192 38.5431 38.8422C38.4942 38.7653 38.4655 38.6772 38.4598 38.5862V37.6462C38.4648 37.5673 38.4855 37.4902 38.5204 37.4194C38.5554 37.3485 38.604 37.2852 38.6634 37.2332C38.7229 37.1812 38.792 37.1414 38.8669 37.1162C38.9418 37.0909 39.0209 37.0807 39.0998 37.0862H40.7798C40.8576 37.0808 40.9357 37.0911 41.0094 37.1165C41.0831 37.142 41.1509 37.1821 41.2088 37.2344C41.2667 37.2866 41.3135 37.35 41.3463 37.4208C41.3791 37.4916 41.3973 37.5682 41.3998 37.6462V38.5862C41.3983 38.6635 41.3796 38.7396 41.345 38.8088C41.3104 38.878 41.2608 38.9386 41.1998 38.9862L42.3998 41.5462L39.9598 47.3862L37.4998 41.3862L38.7398 39.0262ZM58.7398 53.3062H21.2598C22.6598 45.0062 26.0998 38.2262 33.0798 35.5062L39.9598 53.2062L46.8598 35.5062C53.8398 38.2462 57.2598 45.0062 58.6598 53.3062H58.7398ZM31.4598 26.4262C31.4558 24.7284 31.9557 23.0675 32.896 21.6539C33.8364 20.2403 35.175 19.1375 36.7425 18.485C38.3099 17.8326 40.0357 17.6598 41.7013 17.9886C43.367 18.3174 44.8977 19.133 46.0996 20.3321C47.3016 21.5313 48.1207 23.06 48.4534 24.7249C48.7861 26.3898 48.6174 28.116 47.9685 29.685C47.3197 31.2539 46.22 32.5951 44.8086 33.5388C43.3972 34.4825 41.7376 34.9862 40.0398 34.9862C37.7677 34.9862 35.5883 34.085 33.9798 32.4802C32.3714 30.8755 31.4651 28.6983 31.4598 26.4262Z" fill="#0033A1"/>
</svg>
