<svg width="80" height="80" viewBox="0 0 80 80" fill="none" xmlns="http://www.w3.org/2000/svg">
<path fill-rule="evenodd" clip-rule="evenodd" d="M25.9535 45.7333C26.8411 48.2992 28.4236 50.5683 30.5246 52.288C32.6256 54.0076 35.1628 55.1103 37.8535 55.4733C38.0846 55.0301 38.4611 54.6797 38.9199 54.481C39.3786 54.2823 39.8917 54.2473 40.3731 54.3819C40.8546 54.5164 41.2752 54.8124 41.5644 55.2201C41.8537 55.6279 41.994 56.1226 41.9619 56.6215C41.9297 57.1204 41.7271 57.5931 41.388 57.9603C41.0488 58.3276 40.5938 58.5672 40.099 58.6389C39.6043 58.7106 39.0999 58.6101 38.6705 58.3542C38.241 58.0983 37.9125 57.7025 37.7401 57.2333C34.5989 56.8383 31.6392 55.5421 29.2187 53.5013C26.7982 51.4606 25.0204 48.7626 24.1001 45.7333H21.8735C21.3212 45.7315 20.7922 45.5109 20.4023 45.1198C20.0124 44.7286 19.7935 44.1989 19.7935 43.6466V38.3133C19.7935 37.761 20.0124 37.2313 20.4023 36.8402C20.7922 36.449 21.3212 36.2284 21.8735 36.2266H23.3668C24.3983 32.6704 26.5567 29.5453 29.5173 27.3214C32.4779 25.0975 36.0806 23.8951 39.7835 23.8951C43.4863 23.8951 47.089 25.0975 50.0496 27.3214C53.0102 29.5453 55.1686 32.6704 56.2001 36.2266H57.6935C58.2457 36.2284 58.7748 36.449 59.1646 36.8402C59.5545 37.2313 59.7735 37.761 59.7735 38.3133V43.6466C59.7735 44.1989 59.5545 44.7286 59.1646 45.1198C58.7748 45.5109 58.2457 45.7315 57.6935 45.7333H53.6135C54.3681 43.532 54.5863 41.1823 54.25 38.8797C53.9137 36.5771 53.0326 34.388 51.68 32.4944C50.3274 30.6009 48.5423 29.0575 46.4731 27.9927C44.404 26.928 42.1105 26.3725 39.7835 26.3725C37.4564 26.3725 35.163 26.928 33.0938 27.9927C31.0246 29.0575 29.2395 30.6009 27.8869 32.4944C26.5343 34.388 25.6532 36.5771 25.3169 38.8797C24.9806 41.1823 25.1989 43.532 25.9535 45.7333Z" fill="#0033A1"/>
<path fill-rule="evenodd" clip-rule="evenodd" d="M39.7801 50.4066C37.2812 50.4049 34.8852 49.4109 33.1188 47.6433C31.3524 45.8756 30.3601 43.4789 30.3602 40.98C30.3267 39.7214 30.5456 38.4689 31.0042 37.2963C31.4627 36.1237 32.1514 35.0549 33.0298 34.1529C33.9081 33.2508 34.9583 32.5339 36.1182 32.0444C37.2782 31.5548 38.5245 31.3026 39.7835 31.3026C41.0425 31.3026 42.2888 31.5548 43.4487 32.0444C44.6087 32.5339 45.6588 33.2508 46.5372 34.1529C47.4155 35.0549 48.1043 36.1237 48.5628 37.2963C49.0213 38.4689 49.2403 39.7214 49.2068 40.98V41.26C49.2103 41.3155 49.2103 41.3711 49.2068 41.4266V41.48C49.2068 41.5533 49.2068 41.6266 49.2068 41.6933V41.7466C49.2101 41.7999 49.2101 41.8534 49.2068 41.9066V42V42.16V42.2133C49.2068 42.28 49.2068 42.3466 49.2068 42.4133V42.48C49.2042 42.5288 49.2042 42.5778 49.2068 42.6266V42.7C49.2068 42.7533 49.2068 42.8066 49.2068 42.8666V42.9066L49.1668 43.1V43.1733C49.1589 43.2185 49.1477 43.263 49.1335 43.3066V43.38C49.1335 43.4466 49.1335 43.5066 49.0868 43.5733V43.62C49.0683 43.6679 49.0527 43.7168 49.0401 43.7666V43.8466L49.0002 43.9733V44.04L48.9335 44.22V44.2933C48.9208 44.3344 48.9052 44.3745 48.8868 44.4133V44.4933C48.8868 44.5333 48.8868 44.5733 48.8402 44.6066L48.8001 44.6933C48.8001 44.7466 48.7535 44.8 48.7335 44.8466L48.6935 44.9333L48.6468 45.0333L48.6068 45.12L48.5535 45.22L48.4868 45.36L48.4335 45.4533C48.4183 45.488 48.4005 45.5214 48.3801 45.5533L48.3402 45.62C48.325 45.6546 48.3072 45.6881 48.2868 45.72V45.7733L48.1668 45.9733L48.1335 46.0266C48.1335 46.0666 48.0868 46.1 48.0668 46.1333V46.18C47.9935 46.2933 47.9202 46.4 47.8402 46.5066L48.6268 49.4266L45.7068 48.6466C45.2107 49.003 44.6816 49.311 44.1268 49.5666C42.8939 50.1361 41.5515 50.4295 40.1935 50.4266M51.3135 52.1133L49.8868 46.78L49.5335 46.6666L49.6268 46.5066L49.6668 46.4333L49.7468 46.2866L49.8001 46.1933C49.8001 46.14 49.8468 46.0933 49.8735 46.0466L49.9268 45.9333C49.9268 45.8933 49.9735 45.8466 49.9935 45.8L49.9928 45.8003C50.0464 45.6797 50.0464 45.6797 50.1 45.559L50.1601 45.4266L50.2135 45.3066L50.2668 45.1733L50.3135 45.0533L50.3735 44.9066V44.8066L50.4668 44.6666V44.5866L50.5268 44.4V44.32C50.5268 44.2533 50.5668 44.1933 50.5802 44.1266V44.06L50.6402 43.8533V43.7933C50.6402 43.72 50.6402 43.6533 50.6935 43.58V43.5266C50.6935 43.4533 50.6935 43.3733 50.7402 43.3V43.2466L50.7801 43.0133L50.8202 42.7666C50.8202 42.68 50.8202 42.5933 50.8202 42.5133C50.8202 42.4266 50.8202 42.3466 50.8202 42.26V42V41.7266C50.8202 41.6333 50.8202 41.54 50.8202 41.4533V41.1666C50.8567 39.6609 50.5918 38.1631 50.0408 36.7613C49.4899 35.3596 48.6642 34.0821 47.6122 33.0043C46.5602 31.9264 45.3032 31.0699 43.9152 30.485C42.5272 29.9002 41.0363 29.5989 39.5301 29.5989C38.024 29.5989 36.5331 29.9002 35.1451 30.485C33.7571 31.0699 32.5001 31.9264 31.4481 33.0043C30.3961 34.0821 29.5704 35.3596 29.0195 36.7613C28.4685 38.1631 28.2036 39.6609 28.2401 41.1666C28.2534 43.0037 28.7149 44.8098 29.5845 46.4281C30.4542 48.0464 31.7057 49.4279 33.2305 50.4527C34.7552 51.4775 36.5071 52.1147 38.3339 52.3088C40.1608 52.5029 42.0074 52.2482 43.7135 51.5666L43.8735 51.5066L44.0002 51.4666L44.1468 51.4066L44.2468 51.36L44.3935 51.3L44.5068 51.2466L44.6468 51.18L44.7602 51.1266L44.8801 51.0666L45.0068 51.0066L45.1202 50.94L45.2535 50.8733L45.3602 50.8133L45.4935 50.7333L45.5868 50.68L51.3135 52.1133Z" fill="#0033A1"/>
<path fill-rule="evenodd" clip-rule="evenodd" d="M34.5998 39.02C34.9886 39.0147 35.3701 39.1252 35.6959 39.3373C36.0217 39.5494 36.2771 39.8537 36.4295 40.2113C36.582 40.5689 36.6246 40.9638 36.552 41.3458C36.4794 41.7277 36.2949 42.0795 36.0219 42.3562C35.7489 42.633 35.3997 42.8224 35.0188 42.9002C34.6379 42.978 34.2424 42.9408 33.8827 42.7932C33.523 42.6457 33.2153 42.3945 32.9988 42.0717C32.7822 41.7488 32.6665 41.3688 32.6665 40.98C32.6665 40.4613 32.8721 39.9638 33.2382 39.5964C33.6043 39.2291 34.1012 39.0218 34.6198 39.02M44.9798 39.02C45.3678 39.0187 45.7474 39.1325 46.0706 39.3471C46.3938 39.5617 46.646 39.8673 46.7954 40.2253C46.9448 40.5834 46.9845 40.9777 46.9097 41.3583C46.8348 41.7389 46.6486 42.0888 46.3748 42.3636C46.1009 42.6384 45.7517 42.8257 45.3713 42.9019C44.991 42.978 44.5965 42.9396 44.238 42.7915C43.8795 42.6433 43.573 42.3921 43.3573 42.0696C43.1416 41.7472 43.0265 41.368 43.0265 40.98C43.0265 40.4648 43.2293 39.9702 43.5911 39.6034C43.9529 39.2366 44.4446 39.027 44.9598 39.02H44.9798ZM39.7998 39.02C40.1878 39.0187 40.5674 39.1325 40.8906 39.3471C41.2138 39.5617 41.466 39.8673 41.6154 40.2253C41.7648 40.5834 41.8045 40.9777 41.7297 41.3583C41.6548 41.7389 41.4686 42.0888 41.1948 42.3636C40.9209 42.6384 40.5717 42.8257 40.1913 42.9019C39.811 42.978 39.4165 42.9396 39.058 42.7915C38.6995 42.6433 38.393 42.3921 38.1773 42.0696C37.9616 41.7472 37.8465 41.368 37.8465 40.98C37.8465 40.4648 38.0493 39.9702 38.4111 39.6034C38.7729 39.2366 39.2646 39.027 39.7798 39.02H39.7998Z" fill="#0033A1"/>
</svg>
