<svg width="80" height="80" viewBox="0 0 80 80" fill="none" xmlns="http://www.w3.org/2000/svg">
<path d="M41.2066 54.8867H28.5399C28.3151 54.8907 28.0908 54.8638 27.8732 54.8067C27.4266 54.6733 27.2666 53.88 27.2066 53.54C27.12 53.0068 27.0998 52.4649 27.1466 51.9267V51.5533C27.1925 49.7052 27.6287 47.8877 28.4266 46.22C29.6039 43.7312 31.5229 41.6678 33.9199 40.3133C35.2152 39.5761 36.6264 39.0644 38.0932 38.8C39.5365 38.5284 41.0157 38.5058 42.4666 38.7333C42.5666 38.7333 43.8733 39.0267 44.2933 39.1467C45.2031 39.4281 46.083 39.7988 46.9199 40.2533C47.197 40.3973 47.5196 40.4262 47.8179 40.3338C48.1161 40.2415 48.366 40.0353 48.5132 39.76C48.5923 39.6132 48.6413 39.4521 48.6573 39.2861C48.6734 39.1201 48.6561 38.9526 48.6066 38.7933C48.5636 38.6509 48.4925 38.5185 48.3974 38.404C48.3024 38.2895 48.1854 38.1952 48.0532 38.1267C47.3332 37.7667 46.6133 37.46 45.7466 37.08C45.4932 36.9733 45.2332 36.8933 44.9599 36.8067C47.1652 35.6408 48.8336 33.6666 49.6153 31.2977C50.397 28.9289 50.2315 26.3494 49.1532 24.1C48.3574 22.4733 47.1218 21.1021 45.5865 20.1418C44.0511 19.1815 42.2775 18.6705 40.4666 18.6667C38.9908 18.662 37.5343 19.0021 36.2132 19.66L35.9932 19.7667C34.8409 20.3736 33.8235 21.2077 33.0025 22.2187C32.1814 23.2297 31.5738 24.3965 31.2161 25.6489C30.8585 26.9012 30.7584 28.213 30.9217 29.5051C31.0851 30.7972 31.5085 32.0428 32.1666 33.1667C32.6446 33.9764 33.245 34.7073 33.9466 35.3333C33.9466 35.3333 34.9666 36.1733 35.4466 36.4667L35.6332 36.5933L35.9732 36.8133C35.0932 37.0815 34.2387 37.4273 33.4199 37.8467C31.3437 38.891 29.5228 40.3795 28.0866 42.2067C26.916 43.696 26.026 45.3857 25.4599 47.1933C25.0701 48.3974 24.8458 49.6489 24.7932 50.9133V51.2C24.7193 52.2581 24.7484 53.3209 24.8799 54.3733C24.8968 54.7044 24.9736 55.0297 25.1066 55.3333C25.3922 55.9524 25.855 56.4729 26.4365 56.8289C27.018 57.1849 27.692 57.3605 28.3732 57.3333H41.4066C41.7113 57.3128 41.9962 57.1749 42.2013 56.9486C42.4065 56.7223 42.5159 56.4253 42.5066 56.12C42.5098 55.9514 42.4778 55.784 42.4128 55.6285C42.3477 55.473 42.2509 55.3327 42.1286 55.2167C42.0062 55.1006 41.8611 55.0113 41.7023 54.9545C41.5436 54.8977 41.3748 54.8746 41.2066 54.8867ZM40.4732 35.5067C38.5637 35.5067 36.7323 34.7481 35.3821 33.3978C34.0318 32.0476 33.2732 30.2162 33.2732 28.3067C33.2732 26.3971 34.0318 24.5658 35.3821 23.2155C36.7323 21.8652 38.5637 21.1067 40.4732 21.1067C42.3828 21.1067 44.2142 21.8652 45.5644 23.2155C46.9147 24.5658 47.6732 26.3971 47.6732 28.3067C47.6732 30.2162 46.9147 32.0476 45.5644 33.3978C44.2142 34.7481 42.3828 35.5067 40.4732 35.5067Z" fill="#0033A1"/>
<path d="M60.4001 48.6133C60.4001 48.54 60.3401 48.24 60.3135 48.1067C60.0965 46.8702 59.6118 45.6962 58.8934 44.6667C58.2087 43.6481 57.3235 42.7799 56.2919 42.1151C55.2603 41.4502 54.1039 41.0028 52.8935 40.8C50.8909 40.4196 48.8184 40.7571 47.0401 41.7533C45.7757 42.4209 44.6882 43.3796 43.8675 44.5504C43.0468 45.7212 42.5164 47.0704 42.3201 48.4867C42.0939 50.0214 42.263 51.5885 42.8113 53.0397C43.3595 54.4909 44.2689 55.7782 45.4535 56.78C47.0704 58.1776 49.1362 58.9467 51.2735 58.9467C51.9664 58.9354 52.6565 58.855 53.3335 58.7067C54.9664 58.3591 56.467 57.5545 57.6601 56.3867C58.7216 55.3819 59.5244 54.1354 60.0001 52.7533C60.4432 51.421 60.5799 50.0059 60.4001 48.6133ZM58.0001 50.5667C57.9085 51.3568 57.6831 52.1256 57.3335 52.84C56.9395 53.6224 56.3953 54.3195 55.7318 54.8915C55.0684 55.4634 54.2987 55.899 53.4668 56.1733C52.1488 56.6327 50.7177 56.6537 49.3868 56.2333C48.4728 55.9587 47.6284 55.491 46.9107 54.8619C46.193 54.2328 45.6188 53.4569 45.2268 52.5867C44.638 51.3549 44.4649 49.9653 44.7335 48.6267C44.9224 47.4597 45.4237 46.3657 46.1843 45.4607C46.9449 44.5557 47.9364 43.8736 49.0535 43.4867C49.7771 43.2104 50.5456 43.0703 51.3201 43.0733C52.2761 43.0723 53.2216 43.2731 54.0947 43.6626C54.9678 44.052 55.7488 44.6213 56.3868 45.3333C56.9758 46.0065 57.4287 46.7876 57.7201 47.6333C58.0349 48.5772 58.1307 49.5803 58.0001 50.5667Z" fill="#0033A1"/>
<path d="M55.7068 48.5333H52.5335V47.5333C52.5335 46.7933 52.4935 45.1733 52.4868 45.1067C52.4833 44.7936 52.357 44.4945 52.135 44.2738C51.913 44.0531 51.6132 43.9284 51.3001 43.9267C51.0463 43.8988 50.7904 43.9564 50.573 44.0905C50.3556 44.2245 50.1892 44.4273 50.1001 44.6667C50.1001 44.6667 50.1001 47.8 50.1001 48.5C50.1018 48.5244 50.1018 48.5489 50.1001 48.5733C50.1001 48.5733 47.2801 48.5733 46.8335 48.6133C46.5326 48.6268 46.2482 48.7541 46.0377 48.9695C45.8273 49.1849 45.7066 49.4723 45.7001 49.7733C45.6938 49.9375 45.7206 50.1012 45.779 50.2547C45.8374 50.4082 45.9262 50.5483 46.0401 50.6667C46.2785 50.9002 46.5998 51.0297 46.9335 51.0267C48.0601 51.0267 49.0668 51.0267 50.0268 51.0267H50.1335C50.1335 51.0267 50.1335 51.0267 50.1335 51.1533C50.1335 52.2133 50.1335 53.28 50.1335 54.1933C50.1299 54.3537 50.1585 54.5132 50.2177 54.6623C50.2768 54.8114 50.3652 54.9472 50.4777 55.0615C50.5902 55.1759 50.7245 55.2666 50.8726 55.3281C51.0207 55.3897 51.1797 55.4209 51.3401 55.42C51.5005 55.4219 51.6596 55.3913 51.8078 55.3299C51.956 55.2686 52.0903 55.1779 52.2024 55.0632C52.3146 54.9486 52.4023 54.8124 52.4604 54.6629C52.5184 54.5134 52.5456 54.3536 52.5401 54.1933C52.5401 53.8667 52.5401 51.0133 52.5401 51.0133C53.0601 51.0133 55.3601 51.0133 55.7268 50.9667C55.9315 50.9648 56.1326 50.9121 56.3118 50.8132C56.491 50.7142 56.6428 50.5722 56.7535 50.4C56.8551 50.2315 56.9137 50.0406 56.9241 49.8442C56.9346 49.6477 56.8966 49.4517 56.8135 49.2733C56.7265 49.0519 56.5739 48.8623 56.376 48.73C56.1782 48.5977 55.9447 48.5291 55.7068 48.5333Z" fill="#0033A1"/>
</svg>
