<svg width="80" height="80" viewBox="0 0 80 80" fill="none" xmlns="http://www.w3.org/2000/svg">
<path d="M31.4531 44.2934H48.4331V33.7534H31.4531V44.2934ZM42.5331 36.2934H43.9331V34.8534H45.4131V36.2534H46.7931V37.7534H45.4131V39.2134H43.9331V37.7534H42.5331V36.2934ZM32.8531 36.2934H37.1531V37.7534H32.8531V36.2934Z" fill="#0033A1"/>
<path d="M58.0733 22.6734C58.0733 22.5334 58.0733 22.3934 58.0733 22.2134C54.9057 22.3859 51.7295 22.1234 48.6333 21.4334C45.5262 20.809 42.5793 19.5568 39.9733 17.7534C34.6099 21.1407 28.2986 22.7115 21.9733 22.2334C21.9645 22.3533 21.9645 22.4736 21.9733 22.5934C21.7379 26.9826 21.8583 31.3837 22.3333 35.7534C22.8201 39.9677 23.8903 44.0938 25.5133 48.0134C28.2116 54.6487 33.22 60.0833 39.6133 63.3134C39.706 63.3721 39.8135 63.4032 39.9233 63.4032C40.033 63.4032 40.1405 63.3721 40.2333 63.3134C45.0401 60.9139 49.0894 57.2315 51.9333 52.6734C54.9332 47.6723 56.8289 42.0874 57.4933 36.2934C58.0693 31.7778 58.2634 27.2217 58.0733 22.6734ZM50.2533 46.1134H29.6533V31.8734H32.6933V29.9934H36.3133V31.7534H43.5733V29.9734H47.1733V31.8534H50.2533V46.1134Z" fill="#0033A1"/>
</svg>
