<svg width="80" height="80" viewBox="0 0 80 80" fill="none" xmlns="http://www.w3.org/2000/svg">
<path d="M40.0003 22C30.0754 22 22 30.0747 22 39.9997C22 49.9246 30.0747 58 40.0003 58C49.9259 58 58 49.9253 58 39.9997C58 30.0741 49.9253 22 40.0003 22ZM40.0003 56.3495C30.9851 56.3495 23.6511 49.0124 23.6511 39.9997C23.6511 30.987 30.9851 23.6486 40.0003 23.6486C49.0155 23.6486 56.3495 30.9845 56.3495 39.9997C56.3495 49.0149 49.0149 56.3495 40.0003 56.3495Z" fill="#0033A1"/>
<path d="M50.7301 36.5536C50.6475 36.4699 50.5491 36.4034 50.4406 36.358C50.3321 36.3127 50.2157 36.2893 50.0981 36.2893C49.9805 36.2893 49.8641 36.3127 49.7556 36.358C49.6472 36.4034 49.5488 36.4699 49.4662 36.5536C49.298 36.7297 49.2042 36.9638 49.2042 37.2073C49.2042 37.4508 49.298 37.6849 49.4662 37.861L50.455 38.9037H29.544L30.5346 37.9235C30.7026 37.7524 30.7966 37.5223 30.7966 37.2826C30.7966 37.0429 30.7026 36.8128 30.5346 36.6418C30.4522 36.5579 30.3538 36.4912 30.2453 36.4457C30.1368 36.4002 30.0203 36.3767 29.9027 36.3767C29.785 36.3767 29.6685 36.4002 29.56 36.4457C29.4515 36.4912 29.3532 36.5579 29.2707 36.6418L25.9575 39.982L29.2707 43.3289C29.3533 43.4126 29.4517 43.4791 29.5602 43.5244C29.6687 43.5698 29.7851 43.5932 29.9027 43.5932C30.0203 43.5932 30.1367 43.5698 30.2452 43.5244C30.3537 43.4791 30.4521 43.4126 30.5346 43.3289C30.7025 43.1561 30.7964 42.9247 30.7964 42.6838C30.7964 42.4428 30.7025 42.2114 30.5346 42.0386L29.544 41.01H50.455L49.4649 41.9786C49.2971 42.1479 49.203 42.3767 49.203 42.6151C49.203 42.8536 49.2971 43.0823 49.4649 43.2517C49.5474 43.3356 49.6458 43.4023 49.7543 43.4478C49.8628 43.4933 49.9792 43.5167 50.0969 43.5167C50.2146 43.5167 50.331 43.4933 50.4395 43.4478C50.548 43.4023 50.6464 43.3356 50.7288 43.2517L54.0421 39.9036L50.7301 36.5536Z" fill="#0033A1"/>
</svg>
