<svg width="80" height="80" viewBox="0 0 80 80" fill="none" xmlns="http://www.w3.org/2000/svg">
<path d="M45.1894 36.6708C47.2693 36.7189 49.2956 36.008 50.8894 34.6708C51.122 34.5203 51.3793 34.412 51.6494 34.3508L55.8894 33.3708C56.8494 33.1308 57.0894 32.7108 56.8494 31.6908C56.6094 30.6708 56.2294 30.3708 55.2694 30.5708C54.9894 30.5708 54.7294 30.7108 54.4494 30.7508C53.7445 30.8183 53.0644 31.0462 52.4612 31.4172C51.858 31.7881 51.3477 32.2922 50.9694 32.8908C50.0923 34.1218 48.8214 35.0167 47.3668 35.4276C45.9123 35.8385 44.361 35.7409 42.9694 35.1508C41.576 34.6271 40.3929 33.6607 39.6017 32.3998C38.8105 31.1389 38.4549 29.6532 38.5894 28.1708C38.6395 27.8194 38.5846 27.461 38.4316 27.1407C38.2786 26.8205 38.0343 26.5526 37.7294 26.3708C35.9764 24.9802 33.9212 24.0211 31.7294 23.5708C31.4406 23.4742 31.1355 23.4359 30.8317 23.4582C30.528 23.4804 30.2317 23.5628 29.9601 23.7005C29.6884 23.8382 29.4469 24.0284 29.2493 24.2602C29.0518 24.492 28.9023 24.7607 28.8094 25.0508C28.6682 25.332 28.5873 25.6396 28.5719 25.9539C28.5565 26.2682 28.6069 26.5823 28.7198 26.876C28.8328 27.1697 29.0059 27.4366 29.2279 27.6595C29.45 27.8825 29.7162 28.0566 30.0094 28.1708C32.1294 29.4308 34.2494 30.6708 36.3894 31.8908C36.6479 32.112 36.9701 32.2451 37.3094 32.2708C38.2694 32.2708 38.6094 32.8508 39.0894 33.4708C39.6402 34.1681 40.2277 34.8357 40.8494 35.4708C39.6442 37.326 38.0966 38.9347 36.2894 40.2108C35.6328 40.5727 34.8939 40.7591 34.1442 40.7521C33.3944 40.7451 32.6592 40.5449 32.0094 40.1708C29.7294 39.0508 27.5294 37.7308 25.3494 36.3508C24.3953 35.8415 23.6481 35.0162 23.2358 34.0164C22.8234 33.0166 22.7717 31.9045 23.0894 30.8708C23.4821 29.4162 23.963 27.9869 24.5294 26.5908C24.8694 25.6108 25.3094 24.5908 25.7094 23.7108C26.0855 22.4549 26.9396 21.397 28.0881 20.7649C29.2365 20.1327 30.5872 19.9768 31.8494 20.3308C35.8006 21.1293 39.3905 23.1766 42.0894 26.1708C44.0894 28.4308 44.1894 30.3508 42.3694 33.4708L44.5494 34.3308C44.563 33.7932 44.6232 33.2579 44.7294 32.7308C44.8626 32.1119 45.168 31.5432 45.6103 31.0903C46.0526 30.6374 46.6139 30.3186 47.2294 30.1708C50.3094 29.4308 53.3694 28.6908 56.4694 28.0308C56.9174 27.9343 57.3801 27.9279 57.8307 28.0118C58.2812 28.0956 58.7106 28.2682 59.0939 28.5194C59.4772 28.7706 59.8068 29.0954 60.0635 29.475C60.3203 29.8547 60.499 30.2815 60.5894 30.7308C61.3894 34.0508 62.1494 37.3708 62.9094 40.7308C63.6694 44.0908 64.3294 46.8308 65.0494 49.8908C65.227 50.3887 65.2909 50.9202 65.2362 51.446C65.1815 51.9719 65.0098 52.4788 64.7336 52.9296C64.4573 53.3804 64.0836 53.7636 63.6399 54.051C63.1962 54.3385 62.6937 54.5229 62.1694 54.5908C59.3094 55.2708 56.4494 55.9508 53.5694 56.5908C53.1012 56.7178 52.6118 56.7467 52.1319 56.6757C51.652 56.6046 51.192 56.4351 50.7807 56.1778C50.3694 55.9205 50.0158 55.581 49.7419 55.1806C49.4681 54.7801 49.28 54.3274 49.1894 53.8508L46.5494 42.3708C46.1094 40.5108 45.6494 38.6508 45.1894 36.6708ZM60.5894 50.5108C60.1694 48.6508 59.8094 46.9908 59.3494 45.3508C59.2572 45.1951 59.1253 45.0667 58.9671 44.9789C58.809 44.891 58.6303 44.8468 58.4494 44.8508C56.5894 45.2308 54.7494 45.6708 52.9094 46.1108C52.7958 46.1235 52.6864 46.161 52.5889 46.2207C52.4914 46.2804 52.4083 46.3608 52.3453 46.4563C52.2823 46.5517 52.2411 46.6597 52.2245 46.7728C52.208 46.8859 52.2165 47.0013 52.2494 47.1108C52.5894 48.6908 52.9694 50.2508 53.3494 51.8308C53.3614 51.9442 53.3987 52.0534 53.4586 52.1504C53.5185 52.2474 53.5995 52.3297 53.6955 52.3912C53.7916 52.4527 53.9002 52.4917 54.0134 52.5055C54.1266 52.5193 54.2414 52.5074 54.3494 52.4708C56.2094 52.0508 58.0494 51.6308 59.8894 51.1508C60.1894 51.0708 60.4094 50.6908 60.5894 50.5108ZM51.9694 43.8708H52.2894C54.1094 43.4708 55.9494 43.0708 57.7494 42.6108C57.871 42.5965 57.9878 42.5551 58.0913 42.4898C58.1948 42.4245 58.2823 42.3369 58.3475 42.2333C58.4127 42.1297 58.4539 42.0129 58.4681 41.8913C58.4823 41.7697 58.4691 41.6466 58.4294 41.5308C58.0894 40.0108 57.7494 38.4908 57.4294 36.9508C57.4336 36.8132 57.4032 36.6769 57.3409 36.5542C57.2786 36.4315 57.1864 36.3265 57.0728 36.2488C56.9593 36.1711 56.828 36.1233 56.6911 36.1096C56.5542 36.096 56.4161 36.117 56.2894 36.1708C54.5094 36.5708 52.6894 36.9708 50.9094 37.4508C50.6494 37.4508 50.2494 38.0108 50.2894 38.2508C50.6094 39.9308 51.0294 41.6308 51.4494 43.2908C51.5094 43.5708 51.8294 43.7308 51.9694 43.8708ZM50.4894 31.8708C48.5894 31.8708 48.0694 32.4708 48.6694 33.8708L50.4894 31.8708ZM40.0294 28.5908H39.7094L39.9494 30.2708H40.2894L40.0294 28.5908Z" fill="#0033A1"/>
<path d="M15.4893 60.2908C15.2093 59.2308 14.9293 58.2908 14.7493 57.2908C14.7241 56.9939 14.8018 56.6973 14.9693 56.4508C17.4693 52.1308 19.9693 47.8508 22.4893 43.5508C22.8893 42.8508 23.2693 42.1508 23.7093 41.3508L27.8693 43.7508C26.9893 45.2708 26.1693 46.7308 25.3293 48.1708C24.4893 49.6108 23.7093 50.8508 22.9893 52.1708C22.834 52.5406 22.5841 52.8629 22.2645 53.1052C21.945 53.3475 21.5672 53.5012 21.1693 53.5508C20.8961 53.6074 20.6284 53.6877 20.3693 53.7908L20.9293 55.6108L18.9293 56.2708C19.0293 56.5108 19.0693 56.6508 19.1293 56.8108C19.2843 57.0695 19.3727 57.3626 19.3865 57.6638C19.4003 57.9651 19.3389 58.2651 19.208 58.5367C19.0772 58.8084 18.8808 59.0433 18.6367 59.2203C18.3925 59.3974 18.1082 59.5109 17.8093 59.5508L15.4893 60.2908Z" fill="#0033A1"/>
<path d="M24.4694 37.4307L31.0094 41.2307C30.7128 41.8335 30.3857 42.421 30.0294 42.9907C29.9152 43.0503 29.7883 43.0814 29.6594 43.0814C29.5306 43.0814 29.4037 43.0503 29.2894 42.9907C27.2894 41.9107 25.4694 40.7907 23.5894 39.6507C23.5124 39.5614 23.4591 39.454 23.4347 39.3386C23.4102 39.2233 23.4153 39.1036 23.4494 38.9907C23.7294 38.5107 24.0894 38.0307 24.4694 37.4307Z" fill="#0033A1"/>
<path d="M41.6495 24.1708L40.7295 23.4508C41.702 22.5447 42.9124 21.9343 44.2191 21.6909C45.5258 21.4475 46.8748 21.5811 48.1084 22.0762C49.3419 22.5713 50.409 23.4074 51.1848 24.4866C51.9607 25.5659 52.4132 26.8438 52.4895 28.1708L51.3895 28.4708C51.3223 27.373 50.9547 26.3149 50.3269 25.4119C49.6991 24.509 48.8351 23.7959 47.8295 23.3508C46.8304 22.875 45.7149 22.6993 44.618 22.8448C43.5211 22.9904 42.4899 23.451 41.6495 24.1708Z" fill="#0033A1"/>
<path d="M58.0292 48.6706C58.0467 48.9027 58.0152 49.1359 57.9367 49.355C57.8583 49.5742 57.7346 49.7744 57.5738 49.9426C57.4129 50.1108 57.2185 50.2434 57.0031 50.3316C56.7878 50.4198 56.5562 50.4618 56.3236 50.4547C56.0909 50.4477 55.8624 50.3918 55.6527 50.2907C55.4431 50.1896 55.2571 50.0455 55.1067 49.8678C54.9564 49.6902 54.845 49.4829 54.78 49.2594C54.715 49.0359 54.6976 48.8013 54.7292 48.5706C54.7847 48.1645 54.9886 47.7932 55.3015 47.5283C55.6145 47.2635 56.0144 47.1238 56.4241 47.1363C56.8339 47.1487 57.2246 47.3123 57.521 47.5956C57.8173 47.8789 57.9983 48.2618 58.0292 48.6706Z" fill="#0033A1"/>
<path d="M56.0092 40.0108C56.0092 40.227 55.966 40.441 55.8821 40.6402C55.7982 40.8394 55.6753 41.0198 55.5206 41.1707C55.3659 41.3217 55.1826 41.4402 54.9814 41.5192C54.7802 41.5982 54.5652 41.6362 54.3492 41.6308C54.1199 41.6563 53.8879 41.6331 53.6683 41.5627C53.4486 41.4924 53.2463 41.3766 53.0745 41.2228C52.9026 41.0689 52.7652 40.8806 52.6711 40.67C52.577 40.4595 52.5283 40.2315 52.5283 40.0008C52.5283 39.7702 52.577 39.5422 52.6711 39.3316C52.7652 39.1211 52.9026 38.9327 53.0745 38.7789C53.2463 38.6251 53.4486 38.5092 53.6683 38.4389C53.8879 38.3686 54.1199 38.3454 54.3492 38.3708C54.5662 38.3682 54.7816 38.4087 54.9829 38.4899C55.1842 38.5711 55.3673 38.6915 55.5218 38.8441C55.6762 38.9966 55.7988 39.1783 55.8824 39.3786C55.9661 39.5789 56.0092 39.7938 56.0092 40.0108Z" fill="#0033A1"/>
</svg>
