<svg width="52" height="52" viewBox="0 0 52 52" fill="none" xmlns="http://www.w3.org/2000/svg">
<path d="M26 52C40.3594 52 52 40.3594 52 26C52 11.6406 40.3594 0 26 0C11.6406 0 0 11.6406 0 26C0 40.3594 11.6406 52 26 52Z" fill="#0033A1"/>
<path d="M9.10309 16.0933C9.10011 15.6 9.3656 15.1895 9.57739 14.7778C10.2665 13.4504 11.3612 12.6151 12.8527 12.4332C13.7655 12.3228 14.7022 12.3735 15.627 12.3556C16.0535 12.3467 16.4831 12.3497 16.9097 12.3556C17.2467 12.3586 17.5063 12.5823 17.5063 12.8478C17.5063 13.1581 17.2945 13.337 16.9156 13.337C15.7552 13.34 14.5918 13.3042 13.4315 13.349C11.7997 13.4116 10.5409 14.399 10.171 16.0337C10.0547 16.5408 10.1024 17.0897 10.0935 17.6177C10.0815 18.1636 10.0935 18.7095 10.0935 19.2941C10.2366 19.2941 10.3619 19.2941 10.4902 19.2941C18.4996 19.2941 26.512 19.2941 34.5214 19.2941C34.9868 19.2941 35.1329 19.4045 35.1449 19.7565C35.1538 20.0488 34.9897 20.2427 34.6914 20.2755C34.584 20.2875 34.4737 20.2785 34.3633 20.2785C26.4195 20.2785 18.4728 20.2785 10.529 20.2785H10.1084C10.1024 20.3799 10.0935 20.4724 10.0935 20.5679C10.0935 25.0305 10.0845 29.4931 10.0994 33.9557C10.0994 34.606 10.3888 35.1877 10.7795 35.7067C11.2717 36.357 11.9191 36.7895 12.7125 36.9775C12.978 37.0401 13.2584 37.064 13.5329 37.067C14.5173 37.0759 15.5017 37.0699 16.5308 37.0699C16.5308 36.9417 16.5308 36.8253 16.5308 36.709C16.5308 34.949 16.5159 33.186 16.5398 31.4261C16.5547 30.3462 17.4078 29.3618 18.5533 29.2156C18.9262 29.1679 19.308 29.153 19.6868 29.153C24.0033 29.15 28.3227 29.1441 32.6391 29.153C33.6384 29.153 34.4707 29.508 35.0076 30.4148C35.2582 30.8384 35.3268 31.3038 35.3298 31.7661C35.3477 34.3047 35.3596 36.8402 35.3298 39.3788C35.3149 40.5899 34.8436 41.3983 33.5519 41.9114C33.3879 41.977 33.1969 41.9979 33.018 41.9979C28.3287 42.0009 23.6364 41.9919 18.9471 42.0068C17.6315 42.0098 16.4861 40.8375 16.5278 39.5876C16.5427 39.0865 16.5278 38.5853 16.5278 38.0514C15.5196 38.0514 14.5382 38.0394 13.5567 38.0543C12.5515 38.0693 11.6566 37.756 10.8601 37.1654C9.91149 36.4644 9.30593 35.6074 9.1001 34.45C9.1001 34.45 9.118 34.3375 9.10011 34.3285C9.10011 28.2462 9.10011 22.3294 9.10011 16.25L9.10309 16.0933ZM18.61 30.1792C18.598 30.2179 18.5831 30.2537 18.5712 30.2925C18.6279 30.3283 18.6846 30.3611 18.7353 30.3999C19.8241 31.2441 20.9129 32.0943 22.0046 32.9385C23.171 33.8423 24.3433 34.7462 25.5097 35.653C25.7543 35.8409 26.0228 35.8558 26.2525 35.6828C27.0489 35.0862 27.8305 34.4687 28.615 33.8572C29.4861 33.1831 30.3571 32.5089 31.2282 31.8318C31.9083 31.3008 32.5824 30.7668 33.3252 30.1821H18.607L18.61 30.1792ZM33.3371 40.9896C32.9106 40.6585 32.5735 40.396 32.2364 40.1365C31.3713 39.4683 30.5063 38.8031 29.6442 38.1349C28.9103 37.5621 28.1735 36.9924 27.4516 36.4077C27.2458 36.2407 27.1116 36.2407 26.9058 36.4107C26.3091 36.9029 25.7304 36.9506 25.1458 36.6046C24.9638 36.4972 24.7908 36.2675 24.6208 36.2735C24.4477 36.2794 24.2777 36.5032 24.1077 36.6314C23.3768 37.1922 22.646 37.753 21.9181 38.3168C21.062 38.9791 20.2089 39.6443 19.3557 40.3125C19.0932 40.5153 18.8367 40.7241 18.5772 40.9329C18.5921 40.9538 18.607 40.9747 18.6219 40.9956H33.3371V40.9896ZM34.1694 40.3871C34.241 40.0052 34.3454 39.695 34.3454 39.3848C34.3573 36.8492 34.3603 34.3136 34.3454 31.7781C34.3454 31.4678 34.2291 31.1576 34.1575 30.7966C32.0544 32.4284 30.032 34.0004 27.9856 35.5904C30.0499 37.1922 32.0664 38.7583 34.1694 40.39V40.3871ZM17.6793 30.8145C17.6166 31.0979 17.5271 31.3217 17.5271 31.5454C17.5182 34.2331 17.5182 36.9238 17.5271 39.6115C17.5271 39.8441 17.6256 40.0798 17.6882 40.3572C19.7674 38.7434 21.7839 37.1773 23.8303 35.5874C21.766 33.9855 19.7555 32.4224 17.6793 30.8145Z" fill="white" stroke="white" stroke-width="0.5"/>
<path d="M42.5751 35.1C42.6109 34.9688 42.7661 34.5592 42.7661 34.3356L42.7631 16.1601C42.7631 15.7902 42.3853 15.0136 42.1963 14.6715C41.2984 13.1293 39.9143 12.3627 38.1335 12.3627C31.9318 12.3537 25.7301 12.3597 19.5284 12.3597C19.418 12.3597 19.3046 12.3448 19.2002 12.3687C18.9437 12.4313 18.7409 12.5447 18.7617 12.8668C18.7796 13.1771 18.9795 13.3441 19.3852 13.3441C24.1938 13.3471 29.0054 13.3381 33.814 13.3471C35.4428 13.3501 37.0745 13.359 38.7002 13.4157C39.6876 13.4515 40.4572 13.9616 41.0538 14.7342C41.4804 15.289 41.7191 15.9095 41.7131 16.6224C41.7071 17.5084 41.7131 18.3973 41.7131 19.3042H41.4178H37.0118C36.6211 19.3042 36.4779 19.4205 36.451 19.7337C36.4182 20.0917 36.6151 20.2856 37.0357 20.2856H41.4416H41.7787V20.6734C41.7787 24.8735 41.7817 29.0706 41.7727 33.2707C41.7727 33.6734 41.7399 34.088 41.6385 34.4788C41.3372 35.6541 40.5825 36.4595 39.449 36.8742C38.6973 37.1486 37.8978 37.1009 37.1103 37.0949C36.7643 37.0919 36.6032 37.2262 36.5853 37.5155C36.5644 37.8407 36.7344 38.0405 37.0864 38.0525C37.5249 38.0674 37.9634 38.0644 38.4019 38.0525C39.0373 38.0346 39.6488 37.9063 40.2186 37.6169C41.4357 36.9965 42.2141 36.4245 42.5751 35.1Z" fill="white" stroke="white" stroke-width="0.5"/>
<path d="M16.9455 18.3067C15.9074 18.3067 14.8664 18.3455 13.8312 18.2948C13.0706 18.256 12.3755 17.6624 12.1488 16.9256C11.8237 15.8606 12.3338 14.7957 13.4643 14.4109C13.6731 14.3393 13.9148 14.3393 14.1415 14.3393C16.0566 14.3333 17.9747 14.3214 19.8898 14.3423C20.9189 14.3542 21.5841 14.8434 21.8466 15.7085C22.2493 17.03 21.3574 18.2441 20.0001 18.2769C18.9829 18.3037 17.9627 18.2828 16.9455 18.2828C16.9455 18.2918 16.9455 18.3007 16.9455 18.3067ZM16.9813 17.2955C17.9448 17.2955 18.9113 17.2984 19.8748 17.2955C20.0329 17.2955 20.2119 17.2955 20.3491 17.2239C20.8294 16.9882 21.0531 16.502 20.9338 16.0217C20.8384 15.6399 20.376 15.3207 19.8898 15.3207C17.9597 15.3207 16.0327 15.3147 14.1027 15.3267C13.9058 15.3267 13.6881 15.3774 13.518 15.4728C13.166 15.6667 12.9632 16.1798 13.0497 16.5527C13.1392 16.9375 13.5598 17.2895 13.9893 17.2955C14.9857 17.3074 15.985 17.2984 16.9813 17.2984V17.2955Z" fill="white" stroke="white" stroke-width="0.5"/>
<path d="M36.2903 24.2276C35.6102 24.2276 34.9331 24.2366 34.2529 24.2276C33.6116 24.2157 33.2208 23.8518 32.9643 23.294C32.7077 22.7391 32.8628 22.2529 33.2029 21.8084C33.4952 21.4266 33.9099 21.2745 34.3872 21.2774C35.6579 21.2774 36.9287 21.2685 38.1995 21.2834C38.808 21.2924 39.342 21.4952 39.6134 22.0888C39.858 22.6317 39.8342 23.1806 39.4672 23.6639C39.2077 24.0069 38.8348 24.2157 38.3963 24.2247C37.6953 24.2426 36.9943 24.2306 36.2933 24.2276H36.2903ZM36.3172 23.2462C36.9287 23.2462 37.5432 23.2462 38.1547 23.2462C38.5574 23.2462 38.7573 23.0822 38.7573 22.754C38.7573 22.417 38.5753 22.2618 38.1637 22.2618C36.9168 22.2618 35.6699 22.2618 34.42 22.2618C34.059 22.2618 33.8293 22.4557 33.8234 22.7481C33.8204 23.0464 34.0471 23.2433 34.408 23.2462C35.0434 23.2462 35.6788 23.2462 36.3112 23.2462H36.3172Z" fill="white" stroke="white" stroke-width="0.5"/>
<path d="M35.2697 28.1816C34.9624 28.1816 34.6552 28.1637 34.3509 28.1845C33.5246 28.2412 32.8862 27.4597 32.8415 26.8124C32.7878 26.0159 33.3397 25.3059 34.1689 25.2493C34.9803 25.1926 35.8066 25.2254 36.618 25.297C37.2116 25.3507 37.5875 25.7892 37.7575 26.3351C37.9395 26.9227 37.6591 27.5104 37.1788 27.8922C36.8119 28.1845 36.4122 28.1845 35.9945 28.1816C35.7529 28.1816 35.5113 28.1816 35.2727 28.1816H35.2697ZM35.2905 27.1942C35.2905 27.1942 35.2905 27.1942 35.2905 27.1972C35.6276 27.1972 35.9677 27.2061 36.3048 27.1972C36.5852 27.1882 36.7731 27.0659 36.785 26.7557C36.794 26.4633 36.6389 26.2277 36.3555 26.2187C35.6575 26.2008 34.9594 26.2038 34.2614 26.2217C33.9571 26.2307 33.8498 26.4693 33.8319 26.7318C33.8169 26.9615 34.0586 27.1852 34.3121 27.1912C34.6403 27.2002 34.9654 27.1912 35.2935 27.1912L35.2905 27.1942Z" fill="white" stroke="white" stroke-width="0.5"/>
<path d="M31.8099 14.3859C32.9315 14.2636 33.898 15.3076 33.8354 16.4322C33.7876 17.3271 32.9226 18.2608 32.0545 18.2608C30.7032 18.2608 29.8799 17.4823 29.8799 16.2175C29.8799 15.3762 30.7002 14.2725 31.8099 14.3859ZM31.8487 15.3703C31.2968 15.3703 30.8702 15.767 30.8673 16.2801C30.8673 16.832 31.27 17.2764 31.7711 17.2764C32.4483 17.2764 32.842 16.9065 32.839 16.2741C32.839 15.767 32.4005 15.3703 31.8487 15.3703Z" fill="white" stroke="white" stroke-width="0.5"/>
<path d="M37.7815 14.3872C39.0612 14.3872 39.7772 15.1508 39.7324 16.5737C39.7056 17.4686 38.8882 18.1905 37.9605 18.2681C36.5316 18.3904 35.8187 17.233 35.8068 16.3351C35.7948 15.3149 36.6689 14.2738 37.7785 14.3902L37.7815 14.3872ZM37.7875 15.3716C37.2237 15.3686 36.7971 15.7683 36.7852 16.3112C36.7733 16.8332 37.2088 17.2717 37.7368 17.2747C38.3393 17.2777 38.754 16.9227 38.757 16.4007C38.7629 15.6937 38.4616 15.3745 37.7845 15.3716H37.7875Z" fill="white" stroke="white" stroke-width="0.5"/>
</svg>
