<svg width="52" height="52" viewBox="0 0 52 52" fill="none" xmlns="http://www.w3.org/2000/svg">
<path d="M26 52C40.3594 52 52 40.3594 52 26C52 11.6406 40.3594 0 26 0C11.6406 0 0 11.6406 0 26C0 40.3594 11.6406 52 26 52Z" fill="#0033A1"/>
<path d="M19.9402 28.8038C19.9402 28.2031 19.9402 27.6416 19.9402 27.0801C19.9402 27.0442 19.937 27.005 19.9305 26.9397C19.839 26.9397 19.7542 26.9397 19.6726 26.9397C17.8575 26.9397 16.0392 26.9299 14.2241 26.9397C13.2447 26.9463 12.298 26.104 12.0793 25.2161C12.0336 25.0235 12.014 24.8211 12.014 24.6219C12.0108 21.1354 12.0075 17.6457 12.014 14.1592C12.014 13.2092 12.9183 12.1515 13.9172 12.0732C14.2796 12.0438 14.6452 12.0177 15.0076 12.0144C19.6889 12.0111 24.3734 12.0111 29.0547 12.0144C29.7272 12.0144 30.3638 12.1678 30.8568 12.6543C31.2452 13.0395 31.539 13.4965 31.5423 14.0808C31.5619 17.5249 31.588 20.969 31.5945 24.413C31.5945 25.079 31.4411 25.7221 30.9482 26.2117C30.5009 26.659 29.9557 26.9365 29.3028 26.9397C27.4388 26.943 25.5748 26.9397 23.6879 26.9397V28.7776C23.9066 28.807 24.1417 28.8299 24.3734 28.8658C25.1341 28.9833 25.4703 29.5644 25.5291 30.2042C25.5552 30.4948 25.5389 30.7853 25.5323 31.0791C25.5258 31.3795 25.3071 31.6047 25.0068 31.6047C22.8489 31.608 20.6943 31.6047 18.5365 31.6047C18.2884 31.6047 18.1023 31.4807 18.0893 31.2489C18.0599 30.7951 18.0272 30.3283 18.0958 29.8843C18.197 29.2543 18.7977 28.8201 19.4473 28.807C19.6007 28.807 19.7542 28.807 19.937 28.807L19.9402 28.8038ZM12.9444 23.1921H30.6641V22.8917C30.6641 20.1039 30.6641 17.316 30.6641 14.5281C30.6641 13.5455 30.07 12.9481 29.0907 12.9481C24.38 12.9481 19.6693 12.9481 14.9553 12.9481C14.7236 12.9481 14.4885 12.935 14.2567 12.9513C13.5288 13.0003 12.9542 13.5161 12.9477 14.2832C12.9379 15.3409 12.9444 16.4019 12.9444 17.4596C12.9444 19.3628 12.9444 21.266 12.9444 23.1921ZM12.9444 24.1486C12.9444 24.3347 12.9509 24.4881 12.9444 24.6448C12.915 25.3532 13.5777 26.0061 14.2894 26.0061C19.3004 25.9996 24.3082 26.0061 29.3192 26.0028C29.404 26.0028 29.4889 25.9898 29.5705 25.9669C30.3508 25.7514 30.7784 25.0561 30.638 24.1518H12.9477L12.9444 24.1486ZM19.0197 30.6515H24.5856C24.6803 29.9986 24.4975 29.708 23.7565 29.7244C22.4572 29.757 21.1546 29.7537 19.8554 29.7244C18.9903 29.7048 18.9674 29.9398 19.0229 30.6482L19.0197 30.6515ZM22.7183 28.794V26.9528H20.887V28.794H22.7183Z" fill="white" stroke="white" stroke-width="0.4" stroke-miterlimit="10"/>
<path d="M32.5379 28.807C31.5324 28.807 30.5563 28.7548 29.5933 28.8201C28.4605 28.8952 28.0263 30.1128 28.5454 30.9551C28.8131 31.386 29.2146 31.6047 29.7337 31.6014C32.0057 31.6014 34.2811 31.6014 36.5532 31.6014C37.5358 31.6014 38.1398 32.1956 38.13 33.1717C38.13 33.4165 38.1593 33.5536 38.4401 33.6352C39.2987 33.8898 39.8895 34.6537 39.9385 35.5384C39.9744 36.1946 40.0038 36.8508 39.994 37.5069C39.9842 38.1533 39.834 38.7735 39.3639 39.2534C38.525 40.1153 37.1016 40.3046 36.1451 39.4297C35.5706 38.9074 35.2996 38.2839 35.3323 37.5069C35.3584 36.916 35.3584 36.3219 35.3323 35.731C35.2964 34.8202 36.0701 33.8148 36.9319 33.583C37.02 33.5601 37.1082 33.5275 37.2028 33.4981C37.2028 33.3904 37.2028 33.2957 37.2028 33.1978C37.2028 32.7016 37.0298 32.5318 36.5206 32.5318C35.4629 32.5318 34.4019 32.5318 33.3442 32.5318C32.1298 32.5318 30.9154 32.5057 29.701 32.5383C28.7282 32.5645 27.7619 31.7777 27.5073 30.9126C27.1678 29.7537 27.6313 28.6895 28.6335 28.1508C28.9502 27.9811 29.3484 27.8962 29.7141 27.8832C30.6445 27.8472 31.5748 27.8701 32.5411 27.8701C32.5411 27.7526 32.5411 27.6514 32.5411 27.5469C32.5411 22.8068 32.5379 18.0668 32.5509 13.3267C32.5509 12.5628 33.1157 12.0438 33.8241 12.0307C35.4172 11.9948 37.0102 11.985 38.6033 12.0307C39.4423 12.0536 39.9907 12.5857 39.9973 13.5063C40.0168 15.8861 40.0038 18.2659 40.0038 20.6457C40.0038 23.4728 40.0038 26.2999 40.0038 29.1269C40.0038 29.9039 39.6186 30.4229 38.9102 30.6286C38.8286 30.6515 38.7437 30.6678 38.6621 30.6678C37.0494 30.6678 35.4367 30.671 33.8241 30.6678C33.1712 30.6678 32.5575 30.0443 32.5477 29.3914C32.5477 29.2085 32.5477 29.0257 32.5477 28.8135L32.5379 28.807ZM33.4682 21.3443C33.4682 23.9462 33.4682 26.548 33.4682 29.153C33.4682 29.6003 33.6054 29.7374 34.0526 29.7374C35.5086 29.7374 36.9645 29.7374 38.4238 29.7374C38.8841 29.7374 39.0636 29.5546 39.0636 29.0878C39.0636 23.9233 39.0636 18.7556 39.0636 13.5911C39.0636 13.1341 38.8775 12.9513 38.4172 12.9513C36.9809 12.9513 35.5412 12.9644 34.1048 12.9448C33.576 12.9382 33.4585 13.1863 33.4617 13.6009C33.4715 16.1832 33.4682 18.7654 33.4682 21.3509V21.3443ZM37.1963 34.5264C36.736 34.5884 36.2725 35.1565 36.2692 35.6494C36.2659 36.3676 36.2692 37.0858 36.2725 37.804C36.2725 38.1794 36.4553 38.4928 36.723 38.7181C37.1441 39.0739 37.6305 39.1816 38.1724 38.9531C38.7731 38.7017 39.0408 38.2251 39.0571 37.6179C39.0734 36.9258 39.0342 36.2305 39.0049 35.5352C38.9853 35.0879 38.5674 34.6244 38.1234 34.5395V35.7833H37.1963V34.5264Z" fill="white" stroke="white" stroke-width="0.4" stroke-miterlimit="10"/>
<path d="M21.7095 39.9912C19.2155 39.9912 16.7181 39.9847 14.224 39.9945C13.2447 39.9977 12.2621 39.1686 12.0923 38.2708C11.9878 37.7289 12.014 37.1576 12.0205 36.6027C12.0237 36.0803 11.9258 35.545 12.1315 35.0357C12.4645 34.2065 13.0227 33.6418 13.9465 33.5275C14.2208 33.4949 14.4982 33.4687 14.7757 33.4687C19.5354 33.4655 24.2918 33.4687 29.0514 33.4687C29.7239 33.4687 30.3605 33.6222 30.8534 34.1021C31.2452 34.484 31.5324 34.941 31.5455 35.5254C31.5585 36.1228 31.5945 36.7202 31.5977 37.3176C31.5977 38.0031 31.4998 38.6691 31.0101 39.1947C30.6575 39.5734 30.243 39.9063 29.7076 39.9292C28.676 39.9782 27.6411 39.988 26.6063 39.9945C24.974 40.0043 23.3451 39.9945 21.7128 39.9945L21.7095 39.9912ZM21.7781 39.0576C21.7781 39.0576 21.7781 39.0576 21.7781 39.0608C24.2461 39.0608 26.714 39.0608 29.1787 39.0608C29.3093 39.0608 29.4464 39.051 29.5705 39.0151C30.2821 38.816 30.6445 38.2937 30.6608 37.5461C30.6739 37.0205 30.6608 36.4982 30.6608 35.9726C30.6608 34.9933 30.0634 34.3991 29.0775 34.3991C24.2199 34.3991 19.3624 34.3991 14.508 34.3991C14.4101 34.3991 14.3122 34.3926 14.2175 34.4057C13.5156 34.4873 12.9705 34.9508 12.9476 35.718C12.928 36.4068 12.9345 37.0989 12.9476 37.7877C12.9607 38.4504 13.5385 39.0543 14.224 39.0576C16.741 39.0674 19.2546 39.0608 21.7716 39.0608L21.7781 39.0576Z" fill="white" stroke="white" stroke-width="0.4" stroke-miterlimit="10"/>
<path d="M34.3986 25.9864C34.3692 25.0234 35.1494 24.1419 36.2039 24.1485C37.304 24.155 38.1005 24.9058 38.1169 26.0223C38.1332 27.0114 37.2648 27.9451 36.0798 27.87C35.1886 27.8145 34.3431 26.9886 34.3986 25.9897V25.9864ZM35.3322 25.9962C35.3322 26.5054 35.724 26.9396 36.2039 26.9331C36.8861 26.9233 37.144 26.5022 37.1897 26.0125C37.2354 25.5228 36.7523 25.0919 36.1908 25.0723C35.7534 25.0593 35.3355 25.5098 35.3322 25.9962Z" fill="white" stroke="white" stroke-width="0.4" stroke-miterlimit="10"/>
<path d="M38.1237 20.427V21.3247H34.4185V20.427H38.1237Z" fill="white" stroke="white" stroke-width="0.4" stroke-miterlimit="10"/>
<path d="M38.1235 17.6261V18.5238H34.415V17.6261H38.1235Z" fill="white" stroke="white" stroke-width="0.4" stroke-miterlimit="10"/>
<path d="M34.415 14.8218H38.1105V15.7293H34.415V14.8218Z" fill="white" stroke="white" stroke-width="0.4" stroke-miterlimit="10"/>
<path d="M24.1315 37.2131V38.1141H19.4927V37.2131H24.1315Z" fill="white" stroke="white" stroke-width="0.4" stroke-miterlimit="10"/>
<path d="M14.8019 35.3425V36.2501H13.8911V35.3425H14.8019Z" fill="white" stroke="white" stroke-width="0.4" stroke-miterlimit="10"/>
<path d="M15.7554 36.2501V35.3425H16.6662V36.2501H15.7554Z" fill="white" stroke="white" stroke-width="0.4" stroke-miterlimit="10"/>
<path d="M17.6191 36.2501V35.3425H18.5299V36.2501H17.6191Z" fill="white" stroke="white" stroke-width="0.4" stroke-miterlimit="10"/>
<path d="M19.4863 35.3425H20.3939V36.2533H19.4863V35.3425Z" fill="white" stroke="white" stroke-width="0.4" stroke-miterlimit="10"/>
<path d="M21.354 35.3394H22.2583V36.2502H21.354V35.3394Z" fill="white" stroke="white" stroke-width="0.4" stroke-miterlimit="10"/>
<path d="M23.2144 36.2467V35.349H24.1219V36.2467H23.2144Z" fill="white" stroke="white" stroke-width="0.4" stroke-miterlimit="10"/>
<path d="M25.085 35.3394H25.9892V36.2502H25.085V35.3394Z" fill="white" stroke="white" stroke-width="0.4" stroke-miterlimit="10"/>
<path d="M27.8595 35.3458V36.2534H26.9487V35.3458H27.8595Z" fill="white" stroke="white" stroke-width="0.4" stroke-miterlimit="10"/>
<path d="M28.8228 35.3425H29.7205V36.2533H28.8228V35.3425Z" fill="white" stroke="white" stroke-width="0.4" stroke-miterlimit="10"/>
<path d="M14.7986 38.1206H13.8911V37.2098H14.7986V38.1206Z" fill="white" stroke="white" stroke-width="0.4" stroke-miterlimit="10"/>
<path d="M15.752 38.1141V37.2131H16.6628V38.1141H15.752Z" fill="white" stroke="white" stroke-width="0.4" stroke-miterlimit="10"/>
<path d="M17.6221 38.1076V37.2098H18.5329V38.1076H17.6221Z" fill="white" stroke="white" stroke-width="0.4" stroke-miterlimit="10"/>
<path d="M25.9925 38.1175H25.085V37.2067H25.9925V38.1175Z" fill="white" stroke="white" stroke-width="0.4" stroke-miterlimit="10"/>
<path d="M26.9526 37.2034H27.8536V38.1142H26.9526V37.2034Z" fill="white" stroke="white" stroke-width="0.4" stroke-miterlimit="10"/>
<path d="M28.8193 37.2034H29.7171V38.1109H28.8193V37.2034Z" fill="white" stroke="white" stroke-width="0.4" stroke-miterlimit="10"/>
</svg>
