<svg width="80" height="80" viewBox="0 0 80 80" fill="none" xmlns="http://www.w3.org/2000/svg">
<path d="M29.8325 53.3208V54.6538C29.8325 54.7859 29.8586 54.9167 29.9091 55.0388C29.9597 55.1608 30.0338 55.2717 30.1273 55.3651C30.2207 55.4585 30.3317 55.5326 30.4538 55.5831C30.5758 55.6336 30.7067 55.6595 30.8388 55.6595H33.5762C33.7083 55.6595 33.8391 55.6336 33.9611 55.5831C34.0832 55.5326 34.1941 55.4585 34.2875 55.3651C34.3809 55.2717 34.455 55.1608 34.5055 55.0387C34.556 54.9167 34.5819 54.7859 34.5819 54.6538V53.7088C33.2578 53.6731 31.9343 53.6249 30.6198 53.5624C30.3412 53.5495 30.0704 53.4664 29.8325 53.3208Z" fill="#0033A1"/>
<path d="M45.3306 53.7088V54.6538C45.3306 54.9205 45.4365 55.1763 45.6251 55.3649C45.8137 55.5535 46.0695 55.6595 46.3363 55.6595H49.0736C49.3403 55.6595 49.5961 55.5535 49.7848 55.3649C49.9734 55.1763 50.0793 54.9205 50.0793 54.6538V53.3208C49.8417 53.4674 49.5709 53.5513 49.292 53.5648C47.9769 53.6259 46.6564 53.6739 45.3306 53.7088Z" fill="#0033A1"/>
<path d="M51.5466 44.203L50.3731 44.3071C50.142 44.3275 49.918 44.3972 49.7163 44.5117C49.5145 44.6262 49.3397 44.7827 49.2038 44.9707L47.7161 42.0804C47.4928 41.6466 47.1746 41.2689 46.785 40.9753C46.3954 40.6818 45.9445 40.48 45.4661 40.385C43.6508 40.0233 41.8043 39.8411 39.9533 39.8411H39.8146C38.0081 39.8501 36.2067 40.0326 34.4351 40.3862C33.958 40.4816 33.5086 40.6835 33.1204 40.9767C32.7322 41.27 32.4151 41.647 32.1928 42.0798L30.7051 44.9701C30.5691 44.782 30.3942 44.6255 30.1924 44.511C29.9905 44.3965 29.7664 44.3268 29.5352 44.3065L28.3617 44.2024C28.0719 44.1768 27.7839 44.2674 27.5609 44.4542C27.3379 44.6411 27.1983 44.9088 27.1727 45.1986C27.1471 45.4883 27.2377 45.7764 27.4245 45.9994C27.6114 46.2223 27.8791 46.362 28.1689 46.3875L29.9357 46.5429C29.6499 47.2721 29.5028 48.0483 29.5019 48.8315V51.9087C29.5015 52.2151 29.6194 52.5098 29.8309 52.7315C30.0424 52.9532 30.3312 53.0848 30.6373 53.0989C33.593 53.2387 36.6785 53.3179 39.8836 53.319H39.9515C43.1828 53.319 46.2909 53.2399 49.268 53.0989C49.5741 53.0848 49.863 52.9532 50.0744 52.7315C50.2859 52.5098 50.4038 52.2151 50.4035 51.9087V48.8315C50.4035 48.0485 50.2573 47.2723 49.9726 46.5429L51.7376 46.387C51.8811 46.3743 52.0207 46.3334 52.1484 46.2668C52.2761 46.2001 52.3894 46.109 52.4819 45.9986C52.5743 45.8881 52.6442 45.7606 52.6873 45.6231C52.7305 45.4857 52.7462 45.3412 52.7335 45.1977C52.7208 45.0542 52.68 44.9146 52.6133 44.7869C52.5467 44.6592 52.4556 44.5459 52.3451 44.4534C52.2347 44.361 52.1071 44.2912 51.9697 44.248C51.8323 44.2048 51.6877 44.1891 51.5442 44.2018L51.5466 44.203ZM33.1794 42.5874C33.325 42.3024 33.5334 42.0542 33.7888 41.8614C34.0443 41.6687 34.3401 41.5364 34.6541 41.4746C36.3559 41.135 38.0864 40.9597 39.8217 40.9509H39.955C41.7333 40.9512 43.5072 41.1262 45.2513 41.4734C45.5662 41.5349 45.863 41.6672 46.1194 41.8601C46.3757 42.0531 46.5849 42.3018 46.7312 42.5874L48.0624 44.9897C45.4816 44.7517 42.6585 44.594 39.6242 44.5892C36.4702 44.5839 34.5928 44.7404 31.9262 44.9897C32.1994 44.4601 33.1794 42.5874 33.1794 42.5874ZM35.2741 49.7676C35.2744 49.7692 35.2744 49.7708 35.2741 49.7724C35.2514 49.8748 35.2002 49.9688 35.1266 50.0435C35.0529 50.1182 34.9597 50.1707 34.8576 50.1949L34.8302 50.2008C34.1336 50.334 33.4201 50.3541 32.7171 50.2603C32.2747 50.2015 31.8517 50.0421 31.4805 49.7944C31.3708 49.7213 31.2809 49.6223 31.2186 49.5061C31.1563 49.39 31.1236 49.2603 31.1234 49.1285V48.2603C31.1237 48.171 31.1538 48.0844 31.2091 48.0143C31.2643 47.9442 31.3414 47.8946 31.4281 47.8735C31.4458 47.8693 31.4637 47.8661 31.4817 47.8639L32.1797 47.7925C32.4457 47.7653 32.7137 47.821 32.9468 47.952C33.0807 48.027 33.2342 48.1127 33.4038 48.2055C33.8906 48.4727 34.084 48.5685 34.4428 48.7732C34.6065 48.8667 34.829 48.9964 35.0938 49.1606C35.1619 49.203 35.2172 49.2629 35.254 49.3342C35.2908 49.4054 35.3076 49.4853 35.3027 49.5653C35.2981 49.6333 35.2886 49.7009 35.2741 49.7676ZM43.516 52.4342C43.516 52.5382 43.4747 52.6379 43.4011 52.7115C43.3276 52.785 43.2278 52.8263 43.1238 52.8263H36.8755C36.7715 52.8263 36.6717 52.785 36.5982 52.7115C36.5247 52.6379 36.4833 52.5382 36.4833 52.4342V51.998C36.4833 51.894 36.5247 51.7942 36.5982 51.7207C36.6717 51.6471 36.7715 51.6058 36.8755 51.6058H43.1238C43.2278 51.6058 43.3276 51.6471 43.4011 51.7207C43.4747 51.7942 43.516 51.894 43.516 51.998V52.4342ZM48.7408 49.7926C48.3696 50.0403 47.9466 50.1996 47.5042 50.2585C46.8012 50.3523 46.0877 50.3322 45.3911 50.199L45.3637 50.1931C45.2616 50.1689 45.1683 50.1165 45.0947 50.0418C45.021 49.967 44.9699 49.873 44.9472 49.7706C44.9472 49.7706 44.9472 49.7706 44.9472 49.7658C44.9329 49.6992 44.9236 49.6315 44.9192 49.5635C44.9142 49.4835 44.9309 49.4036 44.9677 49.3323C45.0045 49.261 45.0599 49.2011 45.1281 49.1588C45.3929 48.9946 45.6154 48.8649 45.7791 48.7714C46.1361 48.5667 46.3313 48.4709 46.8181 48.2037C46.9871 48.1109 47.1406 48.0252 47.2745 47.9502C47.5079 47.8192 47.776 47.7635 48.0422 47.7907L48.7384 47.8622C48.7562 47.8644 48.7739 47.8676 48.7914 47.8717C48.8783 47.8925 48.9556 47.942 49.0108 48.0122C49.0661 48.0824 49.0961 48.1691 49.0961 48.2585V49.1255C49.0965 49.2575 49.0643 49.3875 49.0023 49.504C48.9404 49.6205 48.8505 49.7198 48.7408 49.7932V49.7926Z" fill="#0033A1"/>
<path d="M52.1859 32.2585H27.8138C27.5078 32.2585 27.2598 32.5066 27.2598 32.8126V33.7094C27.2598 34.0153 27.5078 34.2634 27.8138 34.2634H52.1859C52.4919 34.2634 52.7399 34.0153 52.7399 33.7094V32.8126C52.7399 32.5066 52.4919 32.2585 52.1859 32.2585Z" fill="#0033A1"/>
<path d="M56.3719 24H23.6281C23.1963 24 22.7822 24.1715 22.4769 24.4769C22.1715 24.7822 22 25.1963 22 25.6281V55.9035C22.0003 56.0723 22.0676 56.2342 22.1871 56.3536C22.3065 56.4729 22.4685 56.54 22.6373 56.5402H24.9421C25.1111 56.5402 25.2731 56.4732 25.3927 56.3538C25.5123 56.2344 25.5797 56.0724 25.58 55.9035V31.9634C25.58 31.7973 25.646 31.6381 25.7634 31.5207C25.8808 31.4033 26.04 31.3373 26.206 31.3373H53.7946C53.9606 31.3373 54.1198 31.4033 54.2372 31.5207C54.3546 31.6381 54.4206 31.7973 54.4206 31.9634V55.9035C54.4207 56.0724 54.488 56.2343 54.6075 56.3537C54.727 56.4731 54.889 56.5402 55.0579 56.5402H57.3627C57.5316 56.5402 57.6936 56.4731 57.8131 56.3537C57.9326 56.2343 57.9998 56.0724 58 55.9035V25.6281C58 25.4143 57.9579 25.2026 57.8761 25.0051C57.7942 24.8075 57.6743 24.6281 57.5231 24.4769C57.3719 24.3257 57.1925 24.2058 56.9949 24.1239C56.7974 24.0421 56.5857 24 56.3719 24ZM54.4206 28.5714C54.4206 28.7243 54.3598 28.871 54.2517 28.9792C54.1436 29.0873 53.9969 29.148 53.844 29.148H26.1566C26.0037 29.148 25.857 29.0873 25.7489 28.9792C25.6408 28.871 25.58 28.7243 25.58 28.5714V26.7862C25.58 26.6332 25.6408 26.4866 25.7489 26.3784C25.857 26.2703 26.0037 26.2095 26.1566 26.2095H53.844C53.9969 26.2095 54.1436 26.2703 54.2517 26.3784C54.3598 26.4866 54.4206 26.6332 54.4206 26.7862V28.5714Z" fill="#0033A1"/>
<path d="M53.3386 26.7534H26.6623C26.4438 26.7534 26.2666 26.9306 26.2666 27.1491V28.2132C26.2666 28.4317 26.4438 28.6089 26.6623 28.6089H53.3386C53.5572 28.6089 53.7343 28.4317 53.7343 28.2132V27.1491C53.7343 26.9306 53.5572 26.7534 53.3386 26.7534Z" fill="#0033A1"/>
</svg>
