<svg width="52" height="52" viewBox="0 0 52 52" fill="none" xmlns="http://www.w3.org/2000/svg">
<path d="M26 52C40.3594 52 52 40.3594 52 26C52 11.6406 40.3594 0 26 0C11.6406 0 0 11.6406 0 26C0 40.3594 11.6406 52 26 52Z" fill="#0033A1"/>
<path d="M34.4569 32.9347C36.3809 33.1882 37.9082 34.5216 38.3467 36.2727C38.9135 38.5338 37.938 40.4519 36.2347 41.4542C34.4539 42.5012 32.3956 42.2536 30.8832 40.9322C30.388 41.2305 29.8779 41.5228 29.3827 41.836C28.8697 42.1641 28.7414 42.1612 28.2134 41.8241C27.6198 41.4452 27.0172 41.0813 26.4057 40.7323C26.3192 40.6816 26.1402 40.7174 26.0388 40.777C25.4153 41.141 24.7889 41.5019 24.1863 41.9016C23.8164 42.1492 23.5032 42.0896 23.1602 41.8778C22.5815 41.5168 21.9849 41.1827 21.4181 40.8039C21.2093 40.6667 21.078 40.6875 20.8871 40.8039C20.3173 41.1589 19.7267 41.481 19.1599 41.842C18.7841 42.0806 18.4679 42.1433 18.0622 41.8569C17.4805 41.4482 16.8481 41.1081 16.2246 40.7621C16.1232 40.7054 15.9353 40.7084 15.8339 40.7651C15.1537 41.1529 14.4945 41.5735 13.8144 41.9583C13.3251 42.2357 13.003 42.0329 13 41.478C13 39.8612 13 38.2415 13 36.6247C13 28.8121 13 20.9966 13.006 13.1841C13.006 12.5994 13.2655 12.0864 13.6056 11.621C14.0262 11.0453 14.5899 10.6814 15.279 10.5203C15.5385 10.4576 15.81 10.4069 16.0755 10.4069C22.832 10.4009 29.5916 10.395 36.3481 10.4069C37.8873 10.4099 39.0925 11.2302 39.4832 12.853C39.5519 13.1364 39.5668 13.4347 39.5668 13.727C39.5727 18.3268 39.5698 22.9237 39.5668 27.5235C39.5668 27.6667 39.5489 27.8158 39.5041 27.9501C39.4087 28.2424 39.0626 28.3796 38.7912 28.2215C38.1319 27.8427 37.4787 27.4519 36.8343 27.0492C36.6046 26.906 36.4018 26.8612 36.1631 27.0134C35.6471 27.3385 35.1191 27.6458 34.603 27.9739C34.5344 28.0187 34.4688 28.132 34.4688 28.2126C34.4598 29.7757 34.4628 31.3417 34.4628 32.9287L34.4569 32.9347ZM34.2063 11.4271C34.0482 11.4271 33.9318 11.4271 33.8185 11.4271C28.1448 11.4271 22.4741 11.4271 16.8004 11.4271C16.4215 11.4271 16.0457 11.454 15.6668 11.4897C14.7958 11.5733 14.0172 12.4383 14.0172 13.3124C14.0172 22.2972 14.0172 31.2821 14.0172 40.2669C14.0172 40.3803 14.0172 40.4936 14.0172 40.6488C14.4169 40.4101 14.8047 40.2341 15.1269 39.9746C15.7414 39.4764 16.2992 39.4973 16.9197 39.9657C17.3612 40.2997 17.8713 40.5384 18.3426 40.8367C18.5156 40.9471 18.6498 40.9441 18.8229 40.8367C19.3986 40.4787 19.9922 40.1536 20.559 39.7867C20.9199 39.551 21.251 39.4884 21.6299 39.73C22.1967 40.0939 22.7783 40.428 23.3451 40.789C23.5927 40.9471 23.8015 40.9321 24.0461 40.78C24.6726 40.3892 25.3109 40.0253 25.9374 39.6405C26.1491 39.5093 26.3371 39.5122 26.5459 39.6405C27.2171 40.0432 27.8883 40.4459 28.5684 40.8307C28.6817 40.8934 28.8786 40.9172 28.983 40.8606C29.3917 40.6458 29.7765 40.3892 30.1643 40.1536C29.2276 38.7009 29.0278 37.1795 29.7437 35.5896C30.4566 34.0026 31.7572 33.1793 33.4277 32.8869C33.4277 32.8034 33.4277 32.7617 33.4277 32.7199C33.4277 26.2378 33.4277 19.7527 33.4277 13.2706C33.4277 12.5756 33.7201 11.9909 34.1973 11.4211L34.2063 11.4271ZM38.5436 26.8881V26.4556C38.5436 22.6045 38.5436 18.7534 38.5436 14.9023C38.5436 14.3326 38.5048 13.7628 38.4839 13.1931C38.4571 12.5189 38.0604 12.0685 37.5324 11.7344C37.1028 11.4599 36.6196 11.4241 36.1065 11.4838C35.2324 11.5882 34.4718 12.4533 34.4688 13.2587C34.4539 17.7153 34.4628 22.1749 34.4628 26.6316C34.4628 26.6972 34.4807 26.7598 34.4927 26.8404C34.8626 26.6196 35.2384 26.4556 35.5427 26.202C36.1691 25.68 36.7478 25.677 37.3832 26.1871C37.7143 26.4526 38.114 26.6316 38.5466 26.8851L38.5436 26.8881ZM30.3701 37.4808C30.3045 39.4377 32.0197 41.1678 34.0571 41.0753C35.6859 41.0008 37.7591 39.5868 37.4637 37.0095C37.2877 35.4643 35.9245 33.8713 33.7529 33.925C31.8974 33.9698 30.3343 35.5389 30.3701 37.4778V37.4808Z" fill="white" stroke="white" stroke-width="0.5"/>
<path d="M23.8672 17.1127C27.0679 17.0291 29.4603 19.6602 29.5319 22.497C29.6154 25.8797 26.9039 28.1379 24.2102 28.3109C20.9319 28.5227 18.0533 25.6232 18.2889 22.2971C18.4768 19.6602 20.732 17.0291 23.8642 17.1127H23.8672ZM23.8582 27.2698C26.4206 27.3414 28.4729 25.2354 28.5087 22.7864C28.5475 20.2627 26.5698 17.8972 23.4257 18.1328C21.2898 18.2939 19.4553 20.0987 19.3121 22.4403C19.1421 25.2026 21.5136 27.3862 23.8552 27.2698H23.8582Z" fill="white" stroke="white" stroke-width="0.5"/>
<path d="M23.7061 33.3887C21.6747 33.3887 19.6433 33.3887 17.6118 33.3887C17.4955 33.3887 17.3762 33.3887 17.2628 33.3768C16.9556 33.335 16.8213 33.165 16.8332 32.8339C16.8452 32.5445 17.0152 32.4073 17.2867 32.3745C17.3702 32.3655 17.4567 32.3685 17.5402 32.3685C21.6657 32.3685 25.7942 32.3685 29.9198 32.3685C30.1882 32.3685 30.4507 32.3685 30.5611 32.6937C30.6655 33.0039 30.5044 33.3112 30.1823 33.3768C30.0808 33.3977 29.9705 33.3917 29.8661 33.3917C27.8137 33.3917 25.7614 33.3917 23.7061 33.3917V33.3887Z" fill="white" stroke="white" stroke-width="0.5"/>
<path d="M22.1787 34.4086C23.7746 34.4086 25.3676 34.4116 26.9635 34.4056C27.2767 34.4056 27.4885 34.5518 27.5213 34.8322C27.5392 34.9903 27.4109 35.1902 27.2976 35.3304C27.235 35.4079 27.0649 35.4258 26.9456 35.4258C23.7657 35.4318 20.5858 35.4318 17.4089 35.4258C16.9942 35.4258 16.8272 35.2588 16.8332 34.8919C16.8361 34.5816 17.039 34.4086 17.4298 34.4056C19.0137 34.4026 20.5977 34.4056 22.1817 34.4056L22.1787 34.4086Z" fill="white" stroke="white" stroke-width="0.5"/>
<path d="M20.6247 30.3215C21.7195 30.3215 22.8142 30.3275 23.909 30.3215C24.2222 30.3215 24.431 30.4796 24.4579 30.7571C24.4758 30.9152 24.3385 31.115 24.2222 31.2552C24.1566 31.3328 23.9895 31.3447 23.8672 31.3447C21.7195 31.3507 19.5747 31.3477 17.4269 31.3477C17.1703 31.3477 16.9287 31.3 16.8482 31.0196C16.7826 30.7869 16.8094 30.5423 17.051 30.414C17.1733 30.3514 17.3284 30.3275 17.4686 30.3275C18.5217 30.3215 19.5717 30.3245 20.6247 30.3245V30.3215Z" fill="white" stroke="white" stroke-width="0.5"/>
<path d="M33.3472 38.9397C33.207 38.877 33.0549 38.8472 32.9534 38.7577C32.6193 38.4683 32.2942 38.1641 31.978 37.8568C31.7185 37.6062 31.7095 37.3616 31.9273 37.117C32.0913 36.9321 32.4553 36.95 32.682 37.1528C32.7924 37.2483 32.9087 37.3348 33.022 37.4302C33.2527 37.6251 33.4854 37.6251 33.7201 37.4302C34.2033 37.0305 34.6806 36.6308 35.1668 36.2341C35.4323 36.0163 35.7634 36.0252 35.9424 36.2639C36.1363 36.5234 36.0975 36.777 35.8082 37.0067C35.0744 37.5913 34.3584 38.1999 33.6306 38.7905C33.556 38.8502 33.4576 38.883 33.3472 38.9397Z" fill="white" stroke="white" stroke-width="0.5"/>
<path d="M23.9179 19.0279C24.246 19.0309 24.4309 19.2128 24.425 19.5648C24.422 19.8005 24.4399 19.9646 24.7084 20.0809C25.0454 20.2271 25.1409 20.5433 25.0037 20.7759C24.8336 21.0713 24.5264 21.1279 24.1983 20.9639C23.8552 20.7909 23.5539 20.8326 23.3421 21.1995C23.1781 21.4829 23.3123 21.8468 23.6673 22.0288C23.9477 22.172 24.24 22.2943 24.5324 22.4106C25.1558 22.6612 25.4571 23.1504 25.5704 23.7828C25.6659 24.3198 25.2692 25.0387 24.6755 25.3429C24.4667 25.4503 24.419 25.5726 24.425 25.7844C24.4369 26.1752 24.249 26.3751 23.897 26.3751C23.5748 26.3751 23.3988 26.1782 23.4107 25.7874C23.4167 25.5667 23.3839 25.4086 23.1363 25.34C23.0229 25.3072 22.9245 25.2087 22.835 25.1252C22.6083 24.9194 22.5665 24.5256 22.7425 24.3257C22.9006 24.1438 23.2825 24.1527 23.5181 24.3407C23.9208 24.6658 24.3593 24.5316 24.5055 24.0334C24.5861 23.759 24.4697 23.4636 24.073 23.3026C23.7061 23.1534 23.3362 22.9983 22.9961 22.7954C22.4323 22.4554 22.1967 21.9065 22.2712 21.2741C22.3428 20.6805 22.6322 20.1972 23.2437 19.9825C23.4794 19.8989 23.4048 19.6991 23.4078 19.535C23.4167 19.1591 23.5509 19.0219 23.9179 19.0279Z" fill="white" stroke="white" stroke-width="0.5"/>
</svg>
