<svg width="52" height="52" viewBox="0 0 52 52" fill="none" xmlns="http://www.w3.org/2000/svg">
<path d="M26 52C40.3594 52 52 40.3594 52 26C52 11.6406 40.3594 0 26 0C11.6406 0 0 11.6406 0 26C0 40.3594 11.6406 52 26 52Z" fill="#0033A1"/>
<path d="M22.7685 44.9933C22.2786 44.7706 22.1004 44.3835 22.1347 43.8559C22.1587 43.4619 22.1347 43.0645 22.1449 42.6705C22.1552 42.2903 22.3779 42.0573 22.6965 42.0573C23.0151 42.0573 23.2344 42.2937 23.2481 42.674C23.2584 43.0577 23.2481 43.4379 23.2481 43.8525H29.0755V36.1202H23.2481C23.2481 36.2778 23.2481 36.4217 23.2481 36.569C23.2481 37.7304 23.2481 38.8952 23.2481 40.0566C23.2481 40.5431 23.0631 40.7795 22.7034 40.7829C22.3368 40.7863 22.1415 40.5499 22.1415 40.0737C22.1381 38.7136 22.1347 37.3536 22.1415 35.9935C22.1415 35.2843 22.4567 34.9828 23.1659 34.9828C23.9675 34.9828 24.7658 34.9828 25.5914 34.9828V31.3137C25.4475 31.3137 25.3036 31.3137 25.1632 31.3137C23.2995 31.3137 21.4358 31.3137 19.5721 31.3137C18.5512 31.3137 18.1401 30.8957 18.1401 29.8714C18.1401 29.5768 18.1401 29.2856 18.1401 28.9396H17.6673C15.4199 28.9396 13.176 28.9396 10.9286 28.9396C10.8052 28.9396 10.6819 28.943 10.5586 28.9293C10.0515 28.871 9.84256 28.4394 10.1303 28.018C10.5175 27.4459 10.9286 26.8875 11.3294 26.3256C12.806 24.2529 14.2859 22.1837 15.7488 20.1042C15.9715 19.7856 16.225 19.6588 16.6121 19.6588C21.2782 19.6691 25.9408 19.6657 30.6069 19.6657C30.6686 19.6657 30.7302 19.6657 30.7919 19.6657C31.1688 19.6828 31.4086 19.8986 31.4051 20.2172C31.4051 20.5324 31.1688 20.7551 30.7885 20.7722C30.4459 20.7859 30.1033 20.7722 29.7059 20.7722C29.8327 21.1491 29.932 21.4745 30.0553 21.7931C30.0827 21.8617 30.1992 21.9336 30.2746 21.9336C32.3233 21.9336 34.372 21.9268 36.4172 21.9199C36.4241 21.9199 36.4309 21.9028 36.4755 21.8582C36.2425 21.5328 36.0095 21.1868 35.7492 20.8682C35.6909 20.7962 35.5265 20.7825 35.4134 20.7791C34.8105 20.7722 34.2041 20.7791 33.5977 20.7757C33.4744 20.7757 33.351 20.7757 33.2277 20.7551C32.916 20.6969 32.7481 20.4982 32.7618 20.1864C32.7755 19.8883 32.9536 19.6862 33.2517 19.6794C34.1767 19.6622 35.1017 19.6622 36.0267 19.6862C36.1808 19.6896 36.3761 19.8301 36.472 19.9637C38.3871 22.6325 40.2919 25.3081 42.1933 27.9906C42.5256 28.4599 42.2892 28.919 41.7068 28.9327C40.9668 28.9533 40.2268 28.9396 39.4868 28.9396C37.8938 28.9396 36.3042 28.9396 34.7111 28.9396H34.2041C34.2041 29.2924 34.2041 29.6213 34.2041 29.9502C34.1972 30.8752 33.769 31.3103 32.8406 31.3137C30.9632 31.3171 29.0892 31.3137 27.2118 31.3137C27.068 31.3137 26.9206 31.3137 26.7494 31.3137V34.9828C27.4105 34.9828 28.0717 35.0102 28.7329 34.976C30.093 34.9075 30.2198 35.3528 30.2095 36.4423C30.1855 38.9158 30.1924 41.3893 30.2095 43.8628C30.2095 44.3869 30.0656 44.7775 29.5723 45.0002H22.7582L22.7685 44.9933ZM21.4152 27.7816H30.9392C30.7234 27.1581 30.5315 26.5723 30.3157 25.9967C30.2814 25.9042 30.1273 25.8049 30.0279 25.8014C27.4654 25.7912 24.8994 25.7912 22.3368 25.8014C22.2374 25.8014 22.0833 25.8768 22.0525 25.9522C21.8298 26.5483 21.6311 27.1547 21.4187 27.7816H21.4152ZM19.274 30.1592H33.0667V28.9567H19.274V30.1592ZM11.6651 27.7645C11.7371 27.7919 11.7713 27.8124 11.8022 27.8124C14.5395 27.8124 17.2802 27.8159 20.0175 27.8124C20.0963 27.8124 20.2264 27.7576 20.2504 27.696C20.4765 27.0793 20.6855 26.4558 20.9151 25.7912C18.3011 25.7912 15.7625 25.7912 13.2239 25.7946C13.1486 25.7946 13.0423 25.8323 13.0012 25.8905C12.5524 26.5037 12.1139 27.1273 11.6651 27.7611V27.7645ZM31.4325 25.7912C31.6381 26.3941 31.8402 26.932 32.0081 27.4836C32.0869 27.7405 32.2034 27.8227 32.474 27.8227C35.088 27.8124 37.7054 27.8159 40.3193 27.8159C40.4289 27.8159 40.542 27.8056 40.7099 27.7953C40.2714 27.1787 39.8705 26.6305 39.4903 26.0687C39.3498 25.8631 39.199 25.7809 38.949 25.7809C36.5817 25.7912 34.2109 25.7877 31.8437 25.7877C31.7237 25.7877 31.6073 25.7877 31.436 25.7877L31.4325 25.7912ZM13.8611 24.6777C16.3415 24.6777 18.7191 24.6777 21.0966 24.6743C21.1788 24.6743 21.3125 24.6195 21.333 24.5578C21.5112 24.0782 21.6687 23.5917 21.84 23.0847C21.7441 23.0642 21.6996 23.047 21.6516 23.047C19.507 23.047 17.3624 23.047 15.2144 23.047C15.1253 23.047 15.002 23.0779 14.9574 23.1429C14.5977 23.6226 14.2551 24.1159 13.8577 24.6743L13.8611 24.6777ZM38.4728 24.6538C38.137 24.181 37.8184 23.7596 37.5306 23.3211C37.3936 23.1087 37.2326 23.0402 36.9859 23.0402C34.9646 23.0504 32.9399 23.047 30.9187 23.047H30.4939C30.6514 23.5198 30.8056 23.9309 30.9221 24.3523C30.994 24.6161 31.1311 24.688 31.3949 24.6846C33.6251 24.6743 35.8588 24.6777 38.0925 24.6777C38.1987 24.6777 38.3049 24.664 38.4728 24.6538ZM22.491 24.6538H29.8601C29.6888 24.1536 29.538 23.6842 29.3599 23.2286C29.329 23.1464 29.1852 23.0573 29.0927 23.0539C27.1468 23.0436 25.1974 23.0436 23.2515 23.0539C23.1659 23.0539 23.0288 23.1258 23.0014 23.1978C22.8233 23.6671 22.6657 24.1467 22.4944 24.6538H22.491ZM15.8721 21.8514C15.9132 21.8993 15.9235 21.9165 15.9304 21.9165C17.9791 21.9233 20.0277 21.9302 22.073 21.9268C22.1484 21.9268 22.2649 21.8514 22.2923 21.7863C22.4156 21.4711 22.5149 21.1422 22.628 20.8065C22.5389 20.7894 22.4944 20.7757 22.4464 20.7757C20.5827 20.7757 18.7191 20.7722 16.8554 20.7791C16.7423 20.7791 16.5984 20.8613 16.5265 20.9504C16.2969 21.2382 16.0914 21.5465 15.8756 21.8514H15.8721ZM23.4365 21.9131H28.9145C28.8049 21.5807 28.7192 21.2724 28.5925 20.9812C28.5514 20.8887 28.4041 20.7825 28.3047 20.7791C26.8864 20.7654 25.4681 20.7654 24.0463 20.7791C23.947 20.7791 23.7997 20.8853 23.7585 20.9812C23.6318 21.2724 23.5461 21.5807 23.4365 21.9131Z" fill="white" stroke="white" stroke-width="0.2"/>
<path d="M26.3966 7C26.7289 7.30833 26.89 7.91129 26.6741 8.30527C26.5885 8.46628 26.3384 8.63073 26.1671 8.6273C25.9958 8.62387 25.7149 8.43545 25.6806 8.28471C25.5813 7.83592 25.5127 7.35287 25.9478 7H26.3932H26.3966Z" fill="white" stroke="white" stroke-width="0.2"/>
<path d="M29.6781 13.2762C29.6028 14.4993 28.9279 15.6024 27.5678 16.1951C26.2111 16.7844 24.9161 16.5651 23.8198 15.5716C22.7304 14.5884 22.4255 13.3379 22.8195 11.9264C22.9531 11.4502 23.2306 11.2687 23.5835 11.3852C23.9055 11.4914 24.0083 11.7928 23.8747 12.2485C23.491 13.5743 24.2207 14.931 25.5157 15.2907C26.8244 15.6572 28.1707 14.8864 28.4962 13.5606C28.7155 12.663 28.4962 11.8614 27.8213 11.2241C27.1498 10.5903 26.3482 10.4156 25.4574 10.6726C25.3855 10.6931 25.317 10.7205 25.2484 10.7411C24.9093 10.837 24.6386 10.7171 24.5256 10.4156C24.4125 10.121 24.5393 9.8298 24.8716 9.70304C25.9508 9.28851 26.9991 9.36388 27.9926 9.95998C29.0717 10.6075 29.7124 11.7791 29.6781 13.2728V13.2762Z" fill="white" stroke="white" stroke-width="0.2"/>
<path d="M26.0196 40.5704C25.7216 40.2895 25.4715 40.0703 25.2385 39.8304C24.9576 39.5392 24.961 39.2446 25.2385 38.9534C25.6154 38.5629 25.9991 38.1792 26.3896 37.7989C26.6808 37.5145 26.9994 37.5077 27.2358 37.7578C27.4516 37.9907 27.4311 38.3059 27.1707 38.5834C27.044 38.7205 26.9138 38.8506 26.7767 38.9774C26.6397 39.1042 26.4958 39.2172 26.2937 39.3919C26.5815 39.6523 26.8247 39.8579 27.0508 40.084C27.39 40.4231 27.3934 40.7109 27.0714 41.0432C26.7014 41.4235 26.3279 41.8003 25.9442 42.1703C25.653 42.4547 25.3344 42.4615 25.098 42.2114C24.8822 41.9785 24.8959 41.6564 25.1631 41.3858C25.4201 41.122 25.6976 40.8753 26.0128 40.5704H26.0196Z" fill="white" stroke="white" stroke-width="0.2"/>
<path d="M22.5284 10.532C22.5284 10.8951 22.1584 11.1898 21.8158 11.0596C21.5691 10.9637 21.3259 10.8232 21.1204 10.6519C20.8326 10.4121 20.9045 9.95644 21.2266 9.77829C21.6342 9.55218 22.525 10.0695 22.5284 10.5354V10.532Z" fill="white" stroke="white" stroke-width="0.2"/>
<path d="M30.3774 14.7529C30.7303 14.9962 31.0626 15.164 31.3059 15.4176C31.4018 15.5203 31.3744 15.8835 31.2682 16.0034C31.1448 16.1404 30.8571 16.2158 30.6652 16.1815C30.4391 16.1404 30.189 15.9965 30.0417 15.8218C29.9184 15.6711 29.8464 15.3936 29.8944 15.2086C29.9389 15.0441 30.1787 14.9311 30.3809 14.7529H30.3774Z" fill="white" stroke="white" stroke-width="0.2"/>
<path d="M24.4095 17.1782C24.1594 17.5311 23.9813 17.8703 23.7175 18.1204C23.6181 18.2163 23.2653 18.1718 23.1317 18.0655C22.9981 17.9559 22.9227 17.6681 22.9604 17.49C23.0118 17.2502 23.1625 16.9967 23.3441 16.8322C23.4811 16.7089 23.7586 16.6369 23.9299 16.6849C24.1012 16.7329 24.2177 16.9658 24.4095 17.1782Z" fill="white" stroke="white" stroke-width="0.2"/>
<path d="M23.5631 7.72974C23.6316 7.77085 23.8064 7.83251 23.9057 7.95242C24.053 8.13057 24.1592 8.34297 24.2552 8.55538C24.3785 8.83287 24.2826 9.06926 24.0393 9.22343C23.7892 9.38102 23.5289 9.34676 23.3473 9.1138C23.1897 8.91167 23.0561 8.68556 22.9636 8.44917C22.8231 8.10316 23.0972 7.74001 23.5666 7.73316L23.5631 7.72974Z" fill="white" stroke="white" stroke-width="0.2"/>
<path d="M29.5444 8.28455C29.2978 8.63741 29.1162 8.96973 28.8558 9.22324C28.7599 9.31574 28.4207 9.29176 28.2974 9.18898C28.1604 9.07593 28.0576 8.795 28.0953 8.62714C28.1569 8.36677 28.3145 8.0927 28.5098 7.9077C28.6366 7.78779 28.9243 7.74668 29.0991 7.8015C29.2566 7.84946 29.3628 8.07557 29.541 8.28112L29.5444 8.28455Z" fill="white" stroke="white" stroke-width="0.2"/>
<path d="M21.0591 12.4162C21.1584 12.4162 21.2578 12.406 21.3537 12.4162C21.6655 12.4505 21.8505 12.6355 21.8676 12.9438C21.8847 13.2385 21.7169 13.4509 21.4325 13.4988C21.1824 13.5399 20.9152 13.5434 20.6651 13.4988C20.3636 13.4474 20.1992 13.2282 20.2266 12.913C20.254 12.6149 20.4321 12.4505 20.7268 12.4162C20.8364 12.4025 20.946 12.4162 21.0591 12.4162Z" fill="white" stroke="white" stroke-width="0.2"/>
<path d="M31.2782 13.5297C31.1788 13.5297 31.0795 13.54 30.9835 13.5297C30.6718 13.4886 30.4902 13.3036 30.4799 12.9953C30.4697 12.7007 30.6409 12.4917 30.9253 12.4472C31.1754 12.4095 31.4426 12.4061 31.6927 12.4472C31.977 12.4951 32.1381 12.7075 32.1209 13.0056C32.1038 13.3208 31.9222 13.4955 31.6105 13.5297C31.5008 13.54 31.3912 13.5297 31.2782 13.5297Z" fill="white" stroke="white" stroke-width="0.2"/>
<path d="M29.5349 17.6648C29.3464 17.8738 29.2334 18.1068 29.0655 18.1582C28.8942 18.2096 28.6099 18.1445 28.4797 18.0211C28.2913 17.8464 28.1405 17.5826 28.0857 17.3291C28.048 17.1544 28.1474 16.8769 28.281 16.7638C28.4043 16.6611 28.7435 16.6302 28.8394 16.7227C29.1032 16.9762 29.2848 17.312 29.5349 17.6648Z" fill="white" stroke="white" stroke-width="0.2"/>
<path d="M25.5913 18.0963C25.6084 17.9524 25.6084 17.7983 25.6496 17.6612C25.7318 17.3906 25.9373 17.2741 26.2148 17.2947C26.4786 17.3152 26.6568 17.4625 26.691 17.7263C26.7219 17.9422 26.7184 18.1683 26.7047 18.3875C26.6876 18.713 26.4718 18.9322 26.1806 18.9425C25.8894 18.9528 25.6564 18.7507 25.6119 18.4286C25.5982 18.319 25.6119 18.2094 25.6119 18.0963C25.605 18.0963 25.5982 18.0963 25.5879 18.0963H25.5913Z" fill="white" stroke="white" stroke-width="0.2"/>
<path d="M22.5217 15.4824C22.4737 15.5577 22.412 15.729 22.2921 15.8318C22.1277 15.9723 21.9256 16.0785 21.7269 16.171C21.4425 16.3012 21.1308 16.1915 21.0006 15.9312C20.8601 15.6468 20.9355 15.4001 21.189 15.222C21.3569 15.1021 21.5384 14.9925 21.7303 14.9102C22.114 14.7424 22.5183 14.9959 22.5251 15.4858L22.5217 15.4824Z" fill="white" stroke="white" stroke-width="0.2"/>
<path d="M31.4156 10.3745C31.3608 10.4499 31.2785 10.6178 31.1483 10.7308C31.0045 10.8576 30.8195 10.9432 30.6413 11.0289C30.3467 11.1659 30.0521 11.0802 29.9047 10.8267C29.754 10.5698 29.8191 10.2717 30.0863 10.0833C30.2576 9.9634 30.4358 9.85377 30.6276 9.77155C31.0079 9.61054 31.4156 9.87776 31.4121 10.3745H31.4156Z" fill="white" stroke="white" stroke-width="0.2"/>
</svg>
