<svg width="80" height="80" viewBox="0 0 80 80" fill="none" xmlns="http://www.w3.org/2000/svg">
<path d="M57.8442 21.3795C57.4864 20.9462 57.0378 20.5985 56.5308 20.3614C56.0237 20.1243 55.4709 20.0037 54.9121 20.0083H31.0493C30.5199 19.9728 29.9893 20.053 29.4935 20.2435C28.9977 20.4339 28.5485 20.7302 28.1765 21.112C27.8046 21.4938 27.5187 21.9521 27.3383 22.4557C27.1579 22.9592 27.0874 23.4962 27.1315 24.0298V29.8237C27.1315 31.9306 27.1315 34.004 27.1315 36.1443C27.1315 39.5499 27.1315 42.9471 27.1315 46.3359V48.6016C27.1315 48.702 27.1315 48.8023 27.1315 48.9026H21.3335L21.3749 49.2705C21.3749 49.4377 21.3749 49.5966 21.4163 49.7554C21.4376 50.0958 21.4847 50.434 21.5571 50.767C21.7701 51.6043 22.2671 52.3398 22.9618 52.8454C23.6564 53.351 24.5046 53.5948 25.359 53.5344H48.6668C48.9402 53.5344 49.2135 53.5344 49.4951 53.5344C50.2408 53.5299 50.9652 53.2838 51.5617 52.8322C52.1582 52.3806 52.5952 51.7475 52.8083 51.0262C52.9595 50.3626 53.0373 49.684 53.0402 49.003C53.0402 48.702 53.0402 48.401 53.0982 48.1V47.7656H51.2511V48.6518C51.2511 49.0615 51.2511 49.4879 51.2511 49.8557C51.2446 50.3651 51.0407 50.8517 50.683 51.2112C50.3254 51.5706 49.8424 51.7744 49.3378 51.7787C48.8245 51.7814 48.3301 51.5836 47.9581 51.2268C47.586 50.8699 47.3651 50.3816 47.3416 49.8641C47.3333 49.736 47.3333 49.6076 47.3416 49.4795V48.911H28.8543V43.7274C28.8543 37.1169 28.8543 30.5037 28.8543 23.8877C28.8372 23.5985 28.8826 23.309 28.9873 23.0393C29.092 22.7696 29.2536 22.5261 29.4608 22.3257C29.668 22.1253 29.9159 21.9728 30.1873 21.8787C30.4588 21.7846 30.7472 21.7512 31.0327 21.7808C37.9571 21.7808 44.8788 21.7808 51.7978 21.7808C51.3482 22.5987 51.1466 23.5319 51.218 24.4645C51.218 26.2704 51.218 28.0763 51.218 29.8822V32.9004H52.9988V24.6234H58.6062V24.3642C58.7023 23.8407 58.6839 23.3023 58.5523 22.7868C58.4207 22.2712 58.179 21.7909 57.8442 21.3795ZM56.6598 22.8426H53.2721C53.428 22.5234 53.6692 22.2547 53.9686 22.0668C54.2679 21.8788 54.6134 21.7792 54.9659 21.7792C55.3185 21.7792 55.6639 21.8788 55.9633 22.0668C56.2626 22.2547 56.5039 22.5234 56.6598 22.8426ZM46.124 51.7787H25.3258C24.9382 51.8172 24.5482 51.7344 24.2089 51.5414C23.8695 51.3485 23.5973 51.0548 23.4291 50.7002H27.6864C33.5286 50.7002 39.368 50.7002 45.2046 50.7002C45.6685 50.7002 45.743 50.7503 45.8093 51.0764C45.874 51.3268 45.9804 51.5643 46.124 51.7787Z" fill="#0033A1"/>
<path d="M42.5871 34.4719H30.519V36.2026H42.5871V34.4719Z" fill="#0033A1"/>
<path d="M42.5954 39.4467H30.519V41.1606H42.5954V39.4467Z" fill="#0033A1"/>
<path d="M42.5871 44.438H30.5107V46.1185H42.5871V44.438Z" fill="#0033A1"/>
<path d="M50.1165 30.1746H42.6123V31.9053H50.1165V30.1746Z" fill="#0033A1"/>
<path d="M50.1248 25.8607H42.5957V27.5495H50.1248V25.8607Z" fill="#0033A1"/>
<path d="M52.1623 35.2413C51.1743 35.2372 50.2071 35.5281 49.3823 36.0773C48.5576 36.6266 47.9121 37.4097 47.527 38.3282C47.142 39.2467 47.0345 40.2597 47.2182 41.2396C47.4019 42.2196 47.8685 43.1229 48.5593 43.836C49.0179 44.3105 49.5651 44.6885 50.1694 44.9483C50.7736 45.208 51.4228 45.3443 52.0795 45.3492H52.1209C52.7756 45.352 53.4243 45.2241 54.0298 44.973C54.6353 44.7219 55.1857 44.3526 55.6494 43.8861C56.1166 43.4241 56.4877 42.8725 56.7409 42.2638C56.994 41.6551 57.1242 41.0014 57.1238 40.3412C57.1326 39.0018 56.6156 37.7133 55.6859 36.7576C54.7561 35.8019 53.4893 35.2567 52.1623 35.2413ZM49.2385 41.1439V39.7894H51.4666V37.4986H52.8084V39.7643H55.0448V41.102H52.8084V43.4179H51.4832V41.1439H49.2385Z" fill="#0033A1"/>
<path d="M32.5649 28.8871V28.9874C32.6133 29.3667 32.7526 29.7283 32.9708 30.0409C33.1654 30.3237 33.4237 30.5558 33.7245 30.7181C33.9835 30.8594 34.2631 30.9581 34.5528 31.0107L34.4866 32.0391H35.9112L35.8367 30.9856C36.2414 30.9034 36.6232 30.7321 36.9548 30.484C37.1215 30.3603 37.2592 30.201 37.358 30.0175C37.4567 29.8339 37.5142 29.6307 37.5264 29.4222C37.5488 29.1352 37.4974 28.8472 37.3773 28.5861C37.2598 28.3632 37.089 28.1735 36.8803 28.0343C36.6688 27.8987 36.4404 27.7918 36.2011 27.7166C35.9609 27.6414 35.7124 27.5745 35.4722 27.5243C35.232 27.4742 35.0084 27.4156 34.8013 27.3571C34.6356 27.3103 34.4808 27.2307 34.3457 27.123C34.2972 27.0863 34.2582 27.0382 34.2322 26.9828C34.2062 26.9275 34.194 26.8665 34.1967 26.8053C34.1986 26.7296 34.2213 26.6559 34.2623 26.5925C34.3032 26.529 34.3608 26.4782 34.4286 26.4458C34.5844 26.3633 34.7578 26.3202 34.9338 26.3204H35.2403C35.3806 26.3339 35.5177 26.3706 35.6462 26.4291C35.7787 26.4901 35.893 26.5852 35.9775 26.705C36.072 26.8666 36.1181 27.0525 36.11 27.2401V27.3655L37.4518 27.1481V27.0645C37.4641 26.8115 37.4264 26.5585 37.3411 26.3203C37.2558 26.0821 37.1245 25.8633 36.9548 25.6766C36.6474 25.3619 36.2561 25.1441 35.8284 25.0496L35.9112 23.9878H34.4783L34.586 25.0245C34.1189 25.0688 33.6738 25.2456 33.3021 25.5345C33.1433 25.6694 33.0146 25.8368 32.9247 26.0256C32.8347 26.2144 32.7855 26.4203 32.7803 26.6297C32.7553 26.916 32.8038 27.204 32.9211 27.4658C33.0297 27.6919 33.1954 27.8851 33.4015 28.026C33.6098 28.1643 33.8354 28.274 34.0724 28.352C34.3043 28.4356 34.5528 28.5025 34.7847 28.5611C35.0167 28.6196 35.2403 28.6781 35.4308 28.745C35.5933 28.792 35.7472 28.8654 35.8864 28.9624C35.9323 28.9991 35.9689 29.0463 35.9934 29.1C36.0179 29.1538 36.0294 29.2126 36.0272 29.2717C36.0231 29.3448 35.9994 29.4153 35.9585 29.4757C35.9176 29.5361 35.8612 29.5841 35.7952 29.6145C35.5969 29.7133 35.3787 29.7647 35.1575 29.7647C34.9363 29.7647 34.718 29.7133 34.5197 29.6145C34.3768 29.531 34.2594 29.4095 34.1801 29.2633C34.1126 29.1528 34.0649 29.0311 34.0393 28.9038C34.0393 28.8035 34.0393 28.745 34.0393 28.7283V28.6029L32.5649 28.8871Z" fill="#0033A1"/>
</svg>
