<svg width="52" height="52" viewBox="0 0 52 52" fill="none" xmlns="http://www.w3.org/2000/svg">
<path d="M26 52C40.3594 52 52 40.3594 52 26C52 11.6406 40.3594 0 26 0C11.6406 0 0 11.6406 0 26C0 40.3594 11.6406 52 26 52Z" fill="#0033A1"/>
<path d="M25.5314 27.6154L17.5107 19.6552L24.3454 12.8706L32.366 20.8308L25.5314 27.6154ZM19.2979 19.6552L25.5314 25.8413L30.5789 20.8308L24.3454 14.6447L19.2979 19.6552Z" fill="white" stroke="white" stroke-width="0.2"/>
<path d="M38.9534 37.1794C38.1627 37.1794 37.4262 36.8389 36.7871 36.1687L27.3367 26.2499C27.2753 26.1853 27.2157 26.1208 27.1562 26.0545L26.6724 25.5241L30.2558 21.9669L30.7522 22.3863C30.8118 22.4346 30.875 22.4866 30.9363 22.544C31.94 23.4866 32.942 24.4292 33.9457 25.3718C36.2528 27.5437 38.6393 29.7873 40.9987 31.9825C41.8021 32.7298 42.1541 33.7871 41.9375 34.8104C41.7226 35.8246 40.9951 36.6418 39.9896 36.993C39.6376 37.1167 39.291 37.1776 38.9552 37.1776L38.9534 37.1794ZM28.4216 25.5635L37.706 35.3085C38.2692 35.8999 38.8613 36.0612 39.569 35.8121C40.1539 35.6078 40.5781 35.1365 40.7009 34.5541C40.8272 33.9538 40.6214 33.3516 40.1358 32.8983C37.7746 30.7012 35.3862 28.4558 33.0773 26.2839C32.1567 25.4184 31.236 24.551 30.3135 23.6855L28.4216 25.5635Z" fill="white" stroke="white" stroke-width="0.2"/>
<path d="M32.4095 21.3827L32.1188 21.2304C32.0502 21.1945 31.9816 21.1641 31.913 21.1354C31.7108 21.0476 31.4798 20.9472 31.283 20.7519C28.7882 18.2968 26.2951 15.8185 24.4014 13.9333C23.766 13.3007 23.7624 12.3402 24.3924 11.7004C25.2174 10.8617 25.9106 10.1754 26.5749 9.53922C27.3313 8.81345 28.4668 8.82062 29.2124 9.55893C31.4202 11.738 33.6009 13.9028 35.6932 15.9923C36.4334 16.7324 36.4406 17.8596 35.7076 18.6122C34.9711 19.3703 34.2346 20.0978 33.5197 20.777C33.3247 20.9616 33.1027 21.0566 32.9059 21.1408C32.8391 21.1695 32.7705 21.1981 32.7019 21.2322L32.4095 21.3809V21.3827ZM27.8837 10.2524C27.7339 10.2524 27.5841 10.3152 27.4523 10.4424C26.797 11.0696 26.1128 11.7488 25.2968 12.5785C25.1488 12.729 25.1488 12.9011 25.2968 13.0498C27.1887 14.9332 29.68 17.4116 32.1712 19.8631C32.2019 19.8935 32.3282 19.9491 32.4149 19.9867C32.4979 19.9509 32.6153 19.9007 32.646 19.872C33.3482 19.2054 34.0739 18.4886 34.7978 17.7431C35.0523 17.4815 35.0523 17.1338 34.7978 16.8776C32.7073 14.7899 30.5284 12.6269 28.3224 10.4496C28.1906 10.3188 28.0372 10.2542 27.8855 10.2542L27.8837 10.2524Z" fill="white" stroke="white" stroke-width="0.2"/>
<path d="M21.9946 31.4521C21.5054 31.4521 21.018 31.255 20.6209 30.8625C19.2435 29.5006 17.8679 28.1351 16.4941 26.7696L14.2249 24.517C13.9343 24.2303 13.7519 23.9023 13.6779 23.5439L13.3403 23.3737L13.6328 22.811C13.6707 22.7375 13.705 22.6586 13.7393 22.5816C13.8404 22.3504 13.9559 22.087 14.1707 21.8594C14.826 21.1623 15.5211 20.4885 16.1908 19.8362L16.3063 19.7233C16.9851 19.0638 17.9635 19.0692 18.6351 19.7341C20.9151 21.9902 23.2078 24.2661 25.4463 26.4972C26.1232 27.171 26.1232 28.1189 25.4463 28.7999C24.679 29.5741 23.9948 30.2515 23.3576 30.8715C22.9623 31.2568 22.4784 31.4503 21.9946 31.4503V31.4521ZM14.9055 23.0636V23.1532C14.9001 23.336 14.9632 23.4776 15.1167 23.6299L17.3877 25.8825C18.7615 27.2462 20.1371 28.6118 21.5126 29.9737C21.8177 30.2748 22.1679 30.2765 22.473 29.9791C23.1049 29.3626 23.7836 28.6906 24.5454 27.9218C24.735 27.7301 24.7368 27.5706 24.5491 27.3842C22.3124 25.1549 20.0215 22.8809 17.7415 20.6247C17.561 20.4455 17.3696 20.4455 17.1873 20.6211L17.0718 20.734C16.411 21.3756 15.7269 22.0404 15.0914 22.716C15.0282 22.7823 14.965 22.9239 14.9037 23.0636H14.9055Z" fill="white" stroke="white" stroke-width="0.2"/>
<path d="M21.6951 41H11.1219C10.3167 41 10.0026 40.6846 10.0008 39.8781V39.4964C10.0008 39.1595 9.999 38.8244 10.0008 38.4875C10.0098 37.4141 10.7698 36.6274 11.8476 36.5737C11.9342 36.5701 12.0209 36.5701 12.1093 36.5701H12.1888H27.1217C28.537 36.5701 29.2862 37.3084 29.2862 38.7062V38.9732C29.2862 39.285 29.2862 39.5968 29.2862 39.9086C29.2844 40.6613 28.9468 40.9982 28.1904 40.9982H21.6915L21.6951 41ZM19.6426 39.7455H21.6951H28.0261C28.0261 39.4893 28.0261 39.233 28.0261 38.9768V38.7097C28.0261 38.0001 27.8492 37.8281 27.1253 37.8281H12.1003C12.0371 37.8281 11.9757 37.8263 11.9125 37.8281C11.4992 37.8478 11.2699 38.0879 11.2663 38.5001C11.2627 38.8316 11.2645 39.1631 11.2663 39.4947V39.7455H19.6426Z" fill="white" stroke="white" stroke-width="0.2"/>
<path d="M27.804 37.3173H12.0081L11.9504 36.7529C11.88 36.0683 12.0894 35.4178 12.5407 34.9214C12.9884 34.4268 13.613 34.1544 14.3008 34.1508C15.7919 34.1437 17.3065 34.1455 18.7706 34.1455H20.4964H21.8954C23.0724 34.1455 24.2874 34.1437 25.486 34.1508C26.7985 34.1598 27.8184 35.158 27.8581 36.4751C27.8599 36.5522 27.8545 36.6167 27.8491 36.674L27.8437 36.7331L27.804 37.3173ZM13.2881 36.0629H26.4988C26.3273 35.6687 25.9464 35.407 25.4788 35.4053C24.2856 35.3981 23.0724 35.3999 21.899 35.3999H20.4982H18.7724C17.3101 35.3999 15.7973 35.3981 14.3098 35.4053C13.9831 35.4053 13.6888 35.5325 13.483 35.7619C13.4018 35.8515 13.3368 35.9536 13.2899 36.0647L13.2881 36.0629Z" fill="white" stroke="white" stroke-width="0.2"/>
</svg>
