<svg width="80" height="80" viewBox="0 0 80 80" fill="none" xmlns="http://www.w3.org/2000/svg">
<path d="M27.7265 48.5542C27.7799 49.894 27.3005 51.2005 26.3932 52.1877C25.4859 53.175 24.2245 53.7628 22.885 53.8224C20.0293 53.9209 18.1091 52.0171 17.6167 48.5706H11.2161C11.2161 48.3573 11.2161 48.2096 11.2161 48.0619C11.2161 44.7795 11.2161 41.4971 11.2161 38.2147C11.1972 37.9308 11.2617 37.6474 11.4017 37.3996C11.5416 37.1518 11.7509 36.9502 12.0039 36.8197C19.1376 32.4651 26.2822 28.105 33.4378 23.7395C34.2256 23.2635 34.6359 23.2963 35.079 23.8872C35.1715 23.9842 35.2409 24.1009 35.2818 24.2286C35.3227 24.3562 35.3341 24.4915 35.3151 24.6243C35.2961 24.757 35.2473 24.8837 35.1723 24.9948C35.0973 25.1059 34.9981 25.1986 34.8821 25.2658C34.7153 25.415 34.5856 25.6008 34.503 25.8087C34.4204 26.0167 34.3872 26.2409 34.4061 26.4638C34.4061 29.1882 34.4061 31.9126 34.4061 34.6698C34.3857 34.9298 34.4194 35.1912 34.5051 35.4375C34.5907 35.6838 34.7265 35.9097 34.9038 36.1009C35.0812 36.2921 35.2962 36.4445 35.5354 36.5484C35.7746 36.6524 36.0327 36.7056 36.2935 36.7048C36.4293 36.7237 36.5674 36.6947 36.6842 36.6228C36.801 36.5509 36.8891 36.4407 36.9335 36.311C37.5244 34.9652 38.1644 33.6686 38.8045 32.3557C39.1163 31.732 39.5594 31.5515 40.3472 31.7649C42.251 32.3065 44.1712 32.8316 46.075 33.4061C46.3423 33.4974 46.6253 33.5343 46.9072 33.5146C47.189 33.4948 47.4641 33.4189 47.7161 33.2912C49.144 32.5855 50.6046 31.9454 52.0325 31.2561C52.4736 31.0177 52.9671 30.8928 53.4685 30.8928C53.9699 30.8928 54.4635 31.0177 54.9046 31.2561C58.9255 33.3896 62.9464 35.4411 67.0165 37.4926C67.4408 37.6905 67.7993 38.0061 68.0494 38.4017C68.2996 38.7974 68.431 39.2565 68.428 39.7246C68.5264 42.1536 68.6741 44.6482 68.7726 47.0443C68.8385 48.1608 68.6708 49.2787 68.2802 50.3267C68.1023 50.9964 67.6699 51.5701 67.0752 51.9256C66.4805 52.2812 65.7705 52.3906 65.0963 52.2305C64.9322 52.2305 64.6696 52.3946 64.5219 52.5423C64.0562 53.0614 63.4525 53.4373 62.7812 53.6262C62.11 53.8151 61.3988 53.8092 60.7308 53.6091C60.0594 53.4515 59.4493 53.0998 58.9765 52.5979C58.5037 52.0959 58.1892 51.4658 58.072 50.7862C58.0052 50.115 58.0052 49.4388 58.072 48.7676L45.3036 42.2028C44.9284 42.6853 44.4443 43.0722 43.8909 43.3318C43.3375 43.5913 42.7306 43.7163 42.1197 43.6963C41.5472 43.676 40.9868 43.5256 40.481 43.2566C39.9752 42.9875 39.5373 42.6069 39.2004 42.1435C38.8636 41.6801 38.6366 41.1462 38.5367 40.5821C38.4368 40.0179 38.4667 39.4385 38.624 38.8876C38.6345 38.7883 38.6222 38.6879 38.5881 38.5941C38.554 38.5002 38.4989 38.4154 38.427 38.346C38.073 38.0608 37.694 37.8081 37.2946 37.5911C37.1387 37.5493 36.9746 37.5493 36.8187 37.5911C36.4077 37.6651 35.9854 37.6459 35.5829 37.535C35.1804 37.4241 34.8079 37.2242 34.4929 36.9502C34.1779 36.6761 33.9284 36.3348 33.7628 35.9515C33.5973 35.5682 33.5198 35.1526 33.5363 34.7354C33.5363 32.0931 33.5363 29.4344 33.5363 26.6772L33.0603 27.0711L22.4747 37.0659C21.7033 37.788 20.9319 38.5102 20.177 39.2487C20.0054 39.435 19.8964 39.6703 19.8652 39.9216C19.8652 40.6273 19.8652 41.3166 19.8652 42.0879H31.8951C32.8798 42.0879 33.1424 42.3341 33.1424 43.3188V47.471C33.1424 48.226 32.8306 48.5378 32.0592 48.5542H27.7265ZM53.6901 32.3229L53.247 32.487C51.8684 33.1435 50.4733 33.7671 49.0947 34.44C48.8486 34.5713 48.5203 34.8339 48.5203 35.0308C48.5203 35.2278 48.8322 35.5068 49.0783 35.6381C51.4416 36.869 53.887 38.067 56.1847 39.2815C56.9068 39.659 57.1037 39.5933 57.4812 38.8712L58.9583 35.9991C59.2865 35.3427 59.2373 35.1621 58.5808 34.8339L54.1004 32.5034L53.6901 32.3229ZM66.4421 41.5628C66.4421 40.8078 66.4421 40.0529 66.2944 39.2979C66.2705 39.1592 66.219 39.0267 66.1428 38.9083C66.0667 38.7899 65.9676 38.688 65.8513 38.6086C64.325 37.788 62.7659 36.9674 61.2231 36.1961C61.1432 36.1329 61.049 36.0902 60.9487 36.0718C60.8484 36.0535 60.7452 36.06 60.648 36.0907C60.5509 36.1215 60.4627 36.1756 60.3913 36.2483C60.3199 36.3211 60.2674 36.4102 60.2384 36.5079C59.6804 37.5911 59.1224 38.6907 58.5972 39.7903C58.541 39.8698 58.5041 39.9613 58.4896 40.0576C58.4751 40.1538 58.4833 40.2522 58.5136 40.3447C58.544 40.4372 58.5955 40.5213 58.6642 40.5904C58.7328 40.6594 58.8167 40.7114 58.9091 40.7422C61.1958 41.9238 63.4825 43.1 65.7692 44.2707C66.2944 44.5333 66.6226 44.2707 66.6062 43.7455C66.5898 43.2204 66.4914 42.2849 66.4421 41.5628ZM25.2975 48.8168C25.2975 48.1247 25.0226 47.461 24.5332 46.9716C24.0438 46.4823 23.3801 46.2073 22.688 46.2073C21.9959 46.2073 21.3322 46.4823 20.8428 46.9716C20.3535 47.461 20.0785 48.1247 20.0785 48.8168C20.0914 49.5062 20.3732 50.1633 20.8638 50.6477C21.3544 51.1322 22.0149 51.4057 22.7044 51.4099C23.3908 51.4056 24.0479 51.131 24.5333 50.6456C25.0186 50.1603 25.2932 49.5032 25.2975 48.8168ZM61.6827 52.0992C62.2398 52.0992 62.7741 51.8779 63.1681 51.4839C63.5621 51.09 63.7834 50.5556 63.7834 49.9985C63.7834 49.4413 63.5621 48.907 63.1681 48.513C62.7741 48.1191 62.2398 47.8978 61.6827 47.8978C61.1269 47.9107 60.5985 48.1417 60.2116 48.5408C59.8247 48.94 59.6103 49.4754 59.6148 50.0313C59.6126 50.305 59.6644 50.5765 59.7671 50.8302C59.8699 51.0839 60.0216 51.3149 60.2136 51.51C60.4056 51.705 60.6342 51.8604 60.8863 51.9671C61.1383 52.0738 61.4089 52.1299 61.6827 52.132V52.0992ZM42.1361 42.0551C42.692 42.0596 43.2274 41.8452 43.6266 41.4583C44.0257 41.0714 44.2567 40.543 44.2696 39.9872C44.2561 39.4708 44.0612 38.9756 43.7191 38.5885C43.377 38.2013 42.9096 37.947 42.3987 37.8701C42.1096 37.8501 41.8195 37.8887 41.5457 37.9836C41.272 38.0786 41.0202 38.2278 40.8056 38.4225C40.591 38.6172 40.418 38.8533 40.2969 39.1165C40.1758 39.3798 40.1092 39.6648 40.101 39.9544C40.1008 40.5004 40.3131 41.025 40.6929 41.4171C41.0728 41.8092 41.5904 42.0381 42.1361 42.0551Z" fill="#0033A1"/>
</svg>
