<svg width="80" height="80" viewBox="0 0 80 80" fill="none" xmlns="http://www.w3.org/2000/svg">
<path d="M44.7026 48.3357C44.2511 48.3356 43.8096 48.4694 43.4341 48.7201C43.0585 48.9709 42.7658 49.3274 42.5929 49.7446C42.42 50.1618 42.3747 50.6208 42.4627 51.0637C42.5508 51.5067 42.7681 51.9135 43.0874 52.2329C43.4067 52.5522 43.8135 52.7697 44.2564 52.8579C44.6992 52.946 45.1583 52.9008 45.5755 52.7281C45.9927 52.5553 46.3493 52.2627 46.6002 51.8872C46.8511 51.5117 46.985 51.0703 46.985 50.6187C46.985 50.0133 46.7446 49.4327 46.3166 49.0046C45.8886 48.5765 45.308 48.3359 44.7026 48.3357ZM44.7026 51.4089C44.5463 51.4089 44.3936 51.3626 44.2636 51.2758C44.1337 51.1889 44.0324 51.0655 43.9726 50.9211C43.9128 50.7767 43.8971 50.6179 43.9276 50.4646C43.9581 50.3113 44.0334 50.1705 44.1439 50.06C44.2544 49.9495 44.3952 49.8742 44.5485 49.8437C44.7018 49.8132 44.8606 49.8289 45.005 49.8887C45.1494 49.9485 45.2728 50.0498 45.3597 50.1797C45.4465 50.3097 45.4928 50.4624 45.4928 50.6187C45.4922 50.8279 45.4086 51.0282 45.2605 51.1758C45.1124 51.3235 44.9118 51.4064 44.7026 51.4064V51.4089Z" fill="#0033A1"/>
<path d="M32.7429 31.9827L32.7564 31.9969C32.8724 32.1124 33.0294 32.1772 33.193 32.1772C33.3567 32.1772 33.5137 32.1124 33.6297 31.9969L34.4341 31.1925L35.2378 31.9969C35.3538 32.1124 35.5108 32.1772 35.6744 32.1772C35.8381 32.1772 35.9951 32.1124 36.1111 31.9969L36.1246 31.9827C36.2402 31.8668 36.3052 31.7098 36.3052 31.5461C36.3052 31.3824 36.2402 31.2253 36.1246 31.1094L35.3209 30.3031L36.1246 29.4994C36.2402 29.3835 36.3052 29.2265 36.3052 29.0627C36.3052 28.899 36.2402 28.742 36.1246 28.6261L36.1111 28.6119C35.9951 28.4965 35.8381 28.4316 35.6744 28.4316C35.5108 28.4316 35.3538 28.4965 35.2378 28.6119L34.4341 29.4163L33.6336 28.6145C33.5175 28.499 33.3604 28.4342 33.1966 28.4342C33.0328 28.4342 32.8757 28.499 32.7596 28.6145L32.7461 28.6287C32.6305 28.7446 32.5655 28.9016 32.5655 29.0653C32.5655 29.229 32.6305 29.3861 32.7461 29.502L33.5466 30.3031L32.7429 31.1069C32.6852 31.1643 32.6395 31.2325 32.6083 31.3077C32.5771 31.3828 32.561 31.4634 32.561 31.5448C32.561 31.6262 32.5771 31.7067 32.6083 31.7819C32.6395 31.857 32.6852 31.9253 32.7429 31.9827Z" fill="#0033A1"/>
<path d="M33.4467 43.7367L30.291 53.7628H40.2385L43.3942 43.7367H33.4467Z" fill="#0033A1"/>
<path d="M45.5313 36.9475L48.6625 27H38.715L35.5845 36.9475H45.5313Z" fill="#0033A1"/>
<path d="M56.4 27H55.4514L52.3208 36.9475H57.9998V28.5592C57.9998 27.6872 57.2836 27 56.4 27Z" fill="#0033A1"/>
<path d="M22 52.1643C22.0021 52.571 22.1584 52.9617 22.4374 53.2575C22.7164 53.5534 23.0973 53.7323 23.5031 53.7583L26.6588 43.7367H22V52.1643Z" fill="#0033A1"/>
<path d="M47.0293 53.7634H56.4004C56.8237 53.7607 57.229 53.5914 57.5284 53.2921C57.8278 52.9928 57.9973 52.5876 58.0001 52.1643V43.7367H50.185L47.0293 53.7634Z" fill="#0033A1"/>
<path d="M23.6004 27C22.7161 27 22 27.6872 22 28.5592V36.9475H28.7944L31.9256 27H23.6004Z" fill="#0033A1"/>
<path d="M32.4977 35.2267C32.596 35.2598 32.6998 35.2732 32.8033 35.2661C32.9067 35.2591 33.0078 35.2317 33.1007 35.1856C33.1935 35.1395 33.2764 35.0755 33.3446 34.9974C33.4127 34.9192 33.4648 34.8284 33.4979 34.7302L33.7497 33.9818C33.7828 33.8835 33.7962 33.7797 33.7891 33.6763C33.782 33.5728 33.7547 33.4718 33.7086 33.3789C33.6625 33.286 33.5985 33.2031 33.5204 33.135C33.4422 33.0668 33.3514 33.0147 33.2532 32.9817C33.1549 32.9486 33.0511 32.9352 32.9476 32.9423C32.8442 32.9493 32.7431 32.9767 32.6503 33.0228C32.5574 33.0689 32.4745 33.1328 32.4063 33.211C32.3382 33.2891 32.2861 33.3799 32.253 33.4782L32.0012 34.2265C31.9681 34.3248 31.9547 34.4286 31.9618 34.5321C31.9688 34.6355 31.9962 34.7366 32.0423 34.8295C32.0884 34.9223 32.1524 35.0052 32.2305 35.0734C32.3087 35.1415 32.3995 35.1936 32.4977 35.2267Z" fill="#0033A1"/>
<path d="M47.5619 43.9718L48.0482 42.4512C48.0797 42.3525 48.0915 42.2484 48.0828 42.1451C48.0742 42.0418 48.0452 41.9411 47.9977 41.849C47.9502 41.7568 47.8849 41.6749 47.8057 41.608C47.7265 41.5411 47.6349 41.4904 47.5362 41.4588C47.4374 41.4273 47.3334 41.4155 47.23 41.4241C47.1267 41.4328 47.0261 41.4617 46.9339 41.5093C46.8418 41.5568 46.7599 41.622 46.6929 41.7012C46.626 41.7804 46.5753 41.872 46.5437 41.9708L46.0581 43.4913C46.0267 43.5903 46.015 43.6945 46.0239 43.798C46.0327 43.9015 46.0619 44.0023 46.1098 44.0945C46.1577 44.1867 46.2232 44.2685 46.3028 44.3353C46.3823 44.4021 46.4743 44.4526 46.5734 44.4838C46.651 44.5087 46.732 44.5213 46.8136 44.5211C46.9804 44.5204 47.1427 44.4669 47.2771 44.3682C47.4116 44.2695 47.5113 44.1307 47.5619 43.9718Z" fill="#0033A1"/>
<path d="M40.6157 39.3948C40.4063 39.3948 40.2055 39.478 40.0574 39.626C39.9094 39.7741 39.8262 39.9749 39.8262 40.1843C39.8262 40.3937 39.9094 40.5946 40.0574 40.7426C40.2055 40.8907 40.4063 40.9739 40.6157 40.9739H42.2148C42.4242 40.9739 42.6251 40.8907 42.7731 40.7426C42.9212 40.5946 43.0044 40.3937 43.0044 40.1843C43.0044 39.9749 42.9212 39.7741 42.7731 39.626C42.6251 39.478 42.4242 39.3948 42.2148 39.3948H40.6157Z" fill="#0033A1"/>
<path d="M45.9342 41.0686C46.0332 41.107 46.1389 41.125 46.245 41.1216C46.3511 41.1182 46.4555 41.0934 46.5518 41.0488C46.6481 41.0041 46.7345 40.9405 46.8057 40.8617C46.8768 40.7829 46.9314 40.6906 46.9661 40.5902C47.0007 40.4899 47.0148 40.3836 47.0074 40.2776C47 40.1717 46.9714 40.0684 46.9232 39.9738C46.8749 39.8792 46.8081 39.7953 46.7267 39.7271C46.6453 39.6589 46.551 39.6079 46.4494 39.577C46.0688 39.4508 45.6698 39.3892 45.2689 39.3948H44.6133C44.4039 39.3948 44.2031 39.4779 44.055 39.626C43.9069 39.7741 43.8237 39.9749 43.8237 40.1843C43.8237 40.3937 43.9069 40.5946 44.055 40.7426C44.2031 40.8907 44.4039 40.9739 44.6133 40.9739H45.2734C45.4974 40.9693 45.7205 41.0013 45.9342 41.0686Z" fill="#0033A1"/>
<path d="M32.3341 38.347C32.3419 38.2546 32.3551 38.1628 32.3733 38.072L32.7321 37.001C32.7988 36.8025 32.7841 36.5856 32.6909 36.3981C32.5978 36.2105 32.434 36.0676 32.2355 36.0008C32.037 35.934 31.8202 35.9488 31.6326 36.042C31.445 36.1351 31.3021 36.2989 31.2354 36.4974L30.8644 37.607C30.8573 37.6276 30.8515 37.6482 30.8464 37.6714C30.8053 37.8488 30.7771 38.029 30.762 38.2105C30.7447 38.4182 30.8103 38.6243 30.9445 38.7839C31.0786 38.9434 31.2705 39.0433 31.4782 39.0618C31.5015 39.0642 31.5249 39.0653 31.5484 39.0651C31.7453 39.0651 31.9352 38.9914 32.0806 38.8585C32.2259 38.7256 32.3164 38.5432 32.3341 38.347Z" fill="#0033A1"/>
<path d="M36.6177 39.3948C36.4083 39.3948 36.2075 39.478 36.0594 39.626C35.9113 39.7741 35.8281 39.9749 35.8281 40.1843C35.8281 40.3937 35.9113 40.5946 36.0594 40.7426C36.2075 40.8907 36.4083 40.9739 36.6177 40.9739H38.2168C38.4262 40.9739 38.627 40.8907 38.7751 40.7426C38.9232 40.5946 39.0064 40.3937 39.0064 40.1843C39.0064 39.9749 38.9232 39.7741 38.7751 39.626C38.627 39.478 38.4262 39.3948 38.2168 39.3948H36.6177Z" fill="#0033A1"/>
<path d="M32.4665 40.9198C32.6533 40.9567 32.8434 40.9748 33.0339 40.9739H34.2188C34.4282 40.9739 34.6291 40.8907 34.7772 40.7426C34.9252 40.5946 35.0084 40.3937 35.0084 40.1843C35.0084 39.9749 34.9252 39.7741 34.7772 39.626C34.6291 39.4779 34.4282 39.3948 34.2188 39.3948H33.0345C32.9481 39.3956 32.8618 39.388 32.7769 39.3722C32.673 39.3453 32.5647 39.3398 32.4586 39.3561C32.3525 39.3724 32.2509 39.4102 32.1599 39.4671C32.0689 39.524 31.9905 39.5989 31.9294 39.6872C31.8683 39.7754 31.8259 39.8752 31.8046 39.9804C31.7834 40.0856 31.7839 40.194 31.806 40.2991C31.8281 40.4041 31.8714 40.5035 31.9332 40.5913C31.995 40.679 32.0741 40.7532 32.1655 40.8094C32.257 40.8655 32.359 40.9024 32.4652 40.9179L32.4665 40.9198Z" fill="#0033A1"/>
<path d="M45.6067 47.4985C45.6846 47.5231 45.7658 47.5357 45.8475 47.5358C46.0149 47.5358 46.1779 47.4826 46.313 47.3838C46.4481 47.2851 46.5483 47.1459 46.5991 46.9865L46.8393 46.2343C46.8972 46.0365 46.8755 45.8239 46.7789 45.6419C46.6822 45.4599 46.5182 45.3229 46.3219 45.2602C46.1256 45.1975 45.9125 45.214 45.7282 45.3063C45.5439 45.3985 45.403 45.5591 45.3355 45.7538L45.0973 46.506C45.0334 46.7052 45.0512 46.9215 45.1467 47.1076C45.2422 47.2937 45.4076 47.4342 45.6067 47.4985Z" fill="#0033A1"/>
</svg>
