<svg width="80" height="80" viewBox="0 0 80 80" fill="none" xmlns="http://www.w3.org/2000/svg">
<path d="M60.1602 35.7467C59.9693 35.358 59.6974 35.0147 59.3628 34.7399C59.0282 34.4651 58.6386 34.2651 58.2202 34.1533C57.8171 34.0512 57.4028 33.9997 56.9869 34H48.8802L48.9602 33.5733C49.0469 33.0867 49.1269 32.6267 49.1802 32.1667C49.2202 31.8467 49.2669 31.5 49.3202 31.2C49.4886 30.3217 49.5557 29.427 49.5202 28.5333C49.2621 26.5448 48.6214 24.625 47.6335 22.88C47.5048 22.635 47.314 22.4281 47.0802 22.28C46.5899 21.9522 46.0375 21.7287 45.4572 21.6232C44.8769 21.5177 44.2812 21.5325 43.7069 21.6667C42.0269 22.0467 41.3002 23 41.3402 24.6933C41.3402 25.0333 41.3402 25.36 41.3402 25.72C41.3402 26.5267 41.3869 27.36 41.3935 28.1733C41.3935 28.4 39.2402 32.36 38.3202 33.86C37.7898 34.6944 37.2064 35.4938 36.5735 36.2533C36.4086 36.4173 36.1918 36.5187 35.9602 36.54C35.7565 36.5512 35.5522 36.5333 35.3535 36.4867C35.1596 36.4532 34.9636 36.4331 34.7669 36.4267C31.1602 36.4267 27.5935 36.4267 24.8869 36.4267C23.2935 36.4267 22.5469 37.1733 22.5469 38.78C22.5469 43.4778 22.5469 48.1822 22.5469 52.8933C22.5469 54.4533 23.2535 55.1533 24.8335 55.1533H33.6335C35.2402 55.1533 35.8602 54.6267 36.0269 53.1H36.0669C36.2657 53.1714 36.4576 53.2606 36.6402 53.3667C37.3827 53.8238 38.2419 54.0554 39.1135 54.0333C41.0202 54.0333 54.1202 54.0333 54.8202 53.8733C55.3718 53.7997 55.9025 53.6138 56.3795 53.3272C56.8564 53.0405 57.2696 52.6592 57.5935 52.2067C58.2462 51.1496 58.4637 49.8807 58.2002 48.6667C58.1706 48.4835 58.2034 48.2956 58.2935 48.1333C58.6726 47.6191 58.9255 47.023 59.0321 46.393C59.1386 45.7631 59.0957 45.117 58.9069 44.5067C58.8579 44.4122 58.8399 44.3047 58.8554 44.1993C58.871 44.094 58.9193 43.9963 58.9935 43.92C59.5639 43.2286 59.8541 42.3484 59.8069 41.4533C59.7845 41.2278 59.7421 41.0047 59.6802 40.7867C59.5933 40.5249 59.5616 40.248 59.5869 39.9733C59.6622 39.7311 59.782 39.505 59.9402 39.3067C60.0838 39.0969 60.2066 38.8736 60.3069 38.64C60.4895 38.175 60.5709 37.6765 60.5457 37.1775C60.5204 36.6786 60.389 36.1908 60.1602 35.7467ZM56.8269 39.5467C56.7322 39.5803 56.6452 39.6324 56.5708 39.7C56.4965 39.7675 56.4362 39.8491 56.3935 39.94C56.3602 40.0212 56.3602 40.1122 56.3935 40.1933C56.4541 40.3404 56.5652 40.461 56.7069 40.5333C57.022 40.6198 57.2925 40.8229 57.4634 41.1015C57.6342 41.3801 57.6927 41.7132 57.6269 42.0333C57.5721 42.4067 57.4128 42.7569 57.1675 43.0436C56.9221 43.3302 56.6006 43.5416 56.2402 43.6533H56.1602C56.0269 43.6533 55.8469 43.7333 55.8002 43.9133C55.8002 43.9133 55.6335 44.5133 55.9535 44.6467C56.2832 44.7405 56.5642 44.9576 56.738 45.2531C56.9118 45.5486 56.9651 45.8996 56.8869 46.2333C56.826 46.6071 56.6602 46.9559 56.4088 47.2392C56.1574 47.5224 55.8308 47.7285 55.4669 47.8333C55.2824 47.9038 55.1209 48.0237 55.0002 48.18L54.9202 48.2867V48.4C54.9623 48.5717 55.0638 48.7229 55.2069 48.8267C55.4043 48.9311 55.5775 49.0759 55.7153 49.2516C55.8531 49.4274 55.9525 49.6301 56.0069 49.8467C56.032 50.0586 56.013 50.2734 55.951 50.4777C55.8891 50.6819 55.7855 50.8711 55.6469 51.0333C55.4937 51.2576 55.2966 51.4483 55.0673 51.5939C54.8381 51.7394 54.5816 51.8368 54.3135 51.88C53.9543 51.939 53.591 51.9702 53.2269 51.9733H39.5602C38.707 51.9823 37.8685 51.7512 37.1402 51.3067C36.6717 51.0398 36.1592 50.8592 35.6269 50.7733C35.5839 50.7717 35.5423 50.7578 35.5069 50.7333C35.5027 50.6823 35.5027 50.631 35.5069 50.58C35.5102 50.5468 35.5102 50.5133 35.5069 50.48C35.5069 48.5933 35.5069 40.9467 35.5069 39.9667C35.5093 39.8022 35.5603 39.6422 35.6535 39.5067C37.8869 38.3333 39.2669 36.3467 40.3202 34.56C40.3202 34.56 42.3735 31.0867 43.0669 29.82C43.3157 29.326 43.4437 28.7799 43.4402 28.2267C43.4402 27.32 43.4002 24.8933 43.3935 24.62C43.3935 23.9533 43.5069 23.82 44.0602 23.7267C44.5028 23.6688 44.951 23.6688 45.3935 23.7267C45.5234 23.7444 45.6451 23.8001 45.7436 23.8866C45.842 23.9732 45.9127 24.0868 45.9469 24.2133C46.3002 25.1733 47.1469 27.32 47.1469 27.32C47.6402 28.58 47.4202 29.8333 47.1935 31.1533C47.1935 31.1533 46.8002 33.4267 46.6402 34.3933L46.3535 36.0333H56.8269C57.1049 36.017 57.3824 36.0728 57.6324 36.1955C57.8824 36.3182 58.0964 36.5035 58.2535 36.7333C58.3784 36.986 58.436 37.2666 58.4208 37.548C58.4056 37.8295 58.3182 38.1022 58.1669 38.34C58.038 38.621 57.8534 38.8729 57.6242 39.0803C57.395 39.2878 57.126 39.4464 56.8335 39.5467H56.8269ZM33.6135 52.8333C33.6135 53.0133 33.5802 53.06 33.5735 53.0667C33.4993 53.0957 33.4199 53.1093 33.3402 53.1067C30.5402 53.1067 27.6869 53.1067 24.8669 53.1067C24.8029 53.1175 24.7375 53.1175 24.6735 53.1067C24.6735 53.1067 24.6735 53.0733 24.6735 52.8867C24.6735 47.26 24.6735 42.9267 24.6735 38.8267C24.6735 38.66 24.6735 38.6267 24.7069 38.6267C24.7402 38.6267 24.7602 38.6267 24.9535 38.6267C27.6202 38.6267 30.5069 38.6267 33.3802 38.6267C33.5469 38.6267 33.6002 38.66 33.6002 38.6667C33.6387 38.7593 33.6525 38.8604 33.6402 38.96C33.6135 40.62 33.6069 51.0933 33.6135 52.8333Z" fill="#0033A1"/>
</svg>
