<svg width="52" height="52" viewBox="0 0 52 52" fill="none" xmlns="http://www.w3.org/2000/svg">
<path d="M26 52C40.3594 52 52 40.3594 52 26C52 11.6406 40.3594 0 26 0C11.6406 0 0 11.6406 0 26C0 40.3594 11.6406 52 26 52Z" fill="#0033A1"/>
<path d="M12 40.1365C12.1096 39.9292 12.2739 39.8144 12.5113 39.8477C12.7013 39.8736 12.7597 39.77 12.8072 39.6108C12.9679 39.0333 13.1396 38.4633 13.3112 37.8895C13.4683 37.3675 13.7678 37.1343 14.312 37.1306C15.1667 37.1232 16.025 37.1269 16.8797 37.1232C16.898 37.1232 16.9126 37.1121 16.9637 37.101C16.9674 37.0159 16.9783 36.9196 16.9783 36.8234C16.9783 35.5944 16.9783 34.3691 16.9783 33.1401C16.9783 33.0587 16.971 32.9736 16.9857 32.8921C17.0258 32.6626 17.1646 32.5293 17.3947 32.5219C17.6139 32.5145 17.7855 32.6848 17.7929 32.9254C17.8038 33.2586 17.7965 33.5881 17.7965 33.9212C17.7965 34.88 17.7965 35.8424 17.7965 36.8012V37.1121H20.7952C20.7952 36.7012 20.7952 36.3088 20.7952 35.9165C20.7952 35.2094 21.1568 34.8429 21.8544 34.8355C22.0078 34.8355 22.1612 34.8355 22.3366 34.8355C22.4461 34.2285 22.552 33.6399 22.6543 33.0513C23.0963 30.5008 23.5382 27.9503 23.9802 25.3961C24.0642 24.9037 24.3491 24.6076 24.8495 24.5076C24.8495 24.0153 24.8604 23.5267 24.8385 23.0417C24.8349 22.9603 24.6997 22.8492 24.6011 22.8122C23.2205 22.3199 21.8362 21.8424 20.4519 21.3574C19.9369 21.1798 19.4255 20.9984 18.8813 20.8059C18.7863 21.0872 18.695 21.3537 18.6037 21.6203C18.3371 22.405 17.9718 23.1713 17.8367 23.9783C17.7052 24.7779 17.8038 25.6145 17.8038 26.4363C17.8038 27.0359 17.8075 27.6356 17.8002 28.2353C17.8002 28.3982 17.8476 28.4722 17.9974 28.5389C18.7023 28.8461 19.053 29.5568 18.8886 30.3046C18.7352 31.0005 18.0777 31.5114 17.3655 31.4892C16.6387 31.4669 16.047 30.9339 15.9155 30.1861C15.7986 29.5272 16.1529 28.8498 16.7884 28.5611C16.9528 28.487 16.9893 28.3982 16.9893 28.2316C16.982 26.9656 16.982 25.7033 16.9893 24.4373C16.9893 24.2522 16.9491 24.1634 16.7628 24.1041C16.3282 23.9672 15.8972 23.8154 15.4772 23.6488C13.9103 23.0232 13.1067 21.3648 13.6363 19.7435C14.2974 17.7038 15.0023 15.6789 15.7036 13.6541C15.7767 13.4431 15.9118 13.2358 16.0689 13.0803C16.4597 12.699 16.9382 12.5769 17.4568 12.7508C18.2604 13.0174 19.0603 13.295 19.8529 13.5874C20.6089 13.8651 20.9632 14.6239 20.7148 15.4013C20.5103 16.0417 20.2875 16.6747 20.072 17.3114C20.0355 17.4151 20.0063 17.5187 19.9624 17.6557C20.335 17.7852 20.6893 17.9148 21.0472 18.037C26.4858 19.936 31.9243 21.8387 37.3666 23.7377C38.1555 24.0116 38.5719 24.6224 38.5171 25.4109C38.4623 26.1993 37.94 26.8434 37.1985 26.9693C36.9319 27.0137 36.6397 26.9545 36.3694 26.899C36.1247 26.8508 35.8909 26.7435 35.6316 26.6547V34.8244C36.0005 34.8244 36.3621 34.8244 36.7237 34.8244C37.3958 34.8244 37.7099 35.1428 37.7135 35.8239C37.7135 36.183 37.7172 36.5421 37.7135 36.9048C37.7135 37.0492 37.7428 37.1158 37.9035 37.138C38.3162 37.1936 38.5646 37.4601 38.6815 37.8525C38.8531 38.4337 39.0284 39.0185 39.1928 39.6034C39.2366 39.7626 39.2987 39.8662 39.4887 39.8403C39.7261 39.807 39.8904 39.9218 40 40.1291V40.4067C39.8576 40.614 39.6603 40.6732 39.4156 40.6732C30.4816 40.6695 21.5476 40.6695 12.61 40.6732C12.3652 40.6732 12.168 40.614 12.0256 40.4067V40.1291L12 40.1365ZM27.1615 24.5187C27.6363 24.6039 27.9176 24.9037 28.0016 25.3961C28.4435 27.9466 28.8855 30.4971 29.3274 33.0476C29.4297 33.6362 29.5356 34.2248 29.6452 34.8318C29.8278 34.8318 29.9885 34.8318 30.1529 34.8318C30.814 34.8392 31.1829 35.2168 31.1865 35.8831C31.1865 36.2866 31.1865 36.6901 31.1865 37.1232C31.6577 37.1232 32.1033 37.1306 32.5453 37.1158C32.5964 37.1158 32.6841 36.99 32.6877 36.9196C32.7023 36.5495 32.695 36.183 32.695 35.8128C32.695 35.165 33.0091 34.8429 33.6447 34.8318C33.725 34.8318 33.8054 34.8244 33.9551 34.8133C33.4292 34.4061 32.9653 34.0508 32.5051 33.6917C32.2494 33.4918 32.191 33.2549 32.3407 33.0513C32.5014 32.8329 32.7315 32.8255 33.0091 33.0365C33.5387 33.4437 34.0647 33.8509 34.5943 34.2581C34.6454 34.2988 34.7075 34.3284 34.7769 34.3691V26.3622C34.6929 26.3326 34.6162 26.303 34.5395 26.2771C32.9142 25.707 31.2925 25.1406 29.6671 24.5743C29.2799 24.4373 28.8928 24.3114 28.5056 24.1708C28.2426 24.0745 28.1331 23.8635 28.2134 23.634C28.2938 23.3971 28.4983 23.3046 28.7686 23.386C28.8124 23.3971 28.8562 23.4119 28.9001 23.4267C30.3355 23.9302 31.7709 24.4299 33.2027 24.9333C34.3277 25.3257 35.4526 25.7255 36.5776 26.1142C37.0853 26.2882 37.4579 26.0957 37.6259 25.5848C37.7939 25.0777 37.604 24.7112 37.0597 24.5224C33.9917 23.4489 30.9236 22.3791 27.8591 21.3093C27.556 21.202 27.2528 21.102 26.9789 21.0095C27.3003 22.1644 27.0373 23.3342 27.1615 24.5187ZM13.5961 39.8292H38.3819C38.2322 39.311 38.0715 38.826 37.9546 38.3263C37.8852 38.0228 37.7391 37.9524 37.4469 37.9524C29.8095 37.9598 22.1722 37.9598 14.5348 37.9598C14.4545 37.9598 14.3668 37.945 14.2901 37.9672C14.2244 37.9857 14.1294 38.0376 14.1111 38.0931C13.9322 38.6595 13.7678 39.2332 13.5961 39.8292ZM30.3647 37.1121C30.3647 36.742 30.3647 36.3829 30.3647 36.0275C30.3647 35.7881 30.2442 35.6672 30.0031 35.6647C27.3295 35.6647 24.6522 35.6647 21.9786 35.6647C21.9165 35.6647 21.8398 35.6462 21.7887 35.6721C21.7229 35.7055 21.6243 35.7758 21.6207 35.8313C21.6061 36.2533 21.6134 36.6753 21.6134 37.1121H30.3647ZM18.4576 19.4843H18.1252C17.0879 19.4843 16.0506 19.4843 15.0133 19.4843C14.7114 19.4843 14.5141 19.6287 14.4216 19.9175C14.0637 21.0243 14.4545 22.1903 15.426 22.7086C15.9556 22.9899 16.5474 23.1602 17.1318 23.386C17.581 22.0645 18.0157 20.7874 18.4576 19.4843ZM19.1406 20.0211C21.0509 20.6874 22.9319 21.3463 24.8495 22.0163C24.7874 21.3056 25.043 20.8244 25.7115 20.5579C23.677 19.8471 21.6864 19.1512 19.6775 18.4516C19.4986 18.9772 19.3269 19.4806 19.1406 20.0248V20.0211ZM14.8562 18.6514C16.1383 18.6514 17.3655 18.6514 18.5927 18.644C18.6585 18.644 18.7608 18.57 18.7827 18.5071C18.9543 18.0333 19.1151 17.5557 19.2831 17.0523C18.1143 16.6636 16.9637 16.2823 15.7913 15.8973C15.4772 16.8228 15.174 17.7149 14.8562 18.6477V18.6514ZM25.989 28.872C25.3316 29.5642 24.6961 30.2306 24.0532 30.908C24.718 31.3929 25.3499 31.8556 25.9927 32.3221C26.6428 31.8482 27.2784 31.3818 27.9285 30.9043C27.2711 30.2157 26.6392 29.5531 25.989 28.872ZM16.0579 15.1126C17.2377 15.505 18.3809 15.8825 19.5534 16.2712C19.6921 15.8455 19.8419 15.442 19.9551 15.0311C20.0282 14.772 19.8675 14.487 19.6008 14.3907C18.7973 14.0983 17.9901 13.817 17.1792 13.5504C16.887 13.4542 16.5985 13.5985 16.4853 13.8836C16.3319 14.276 16.2077 14.6795 16.0579 15.1163V15.1126ZM26.0256 27.5431C26.2557 27.3284 26.5661 27.0581 26.8547 26.7657C27.3514 26.2623 27.3405 26.2586 27.2017 25.5515C27.1688 25.3887 27.0994 25.3405 26.946 25.3442C26.4566 25.3516 25.9671 25.3442 25.474 25.3442C24.8349 25.3442 24.8275 25.3442 24.7143 25.9846C24.6924 26.1031 24.6741 26.2808 24.7362 26.3437C25.1636 26.7657 25.6128 27.1655 26.0256 27.5394V27.5431ZM36.8589 37.1084V35.6795H35.6061C35.6061 35.9165 35.6134 36.1386 35.6061 36.357C35.5987 36.6309 35.4271 36.8123 35.1897 36.8086C34.9559 36.8049 34.7952 36.6235 34.7879 36.3459C34.7842 36.1275 34.7879 35.9091 34.7879 35.6795H33.5314V37.1084H36.8589ZM27.9468 34.8133C27.9139 34.7689 27.9029 34.7467 27.8847 34.7319C27.2966 34.2988 26.7086 33.8657 26.1132 33.4437C26.0548 33.403 25.905 33.4178 25.8356 33.4659C25.3499 33.8065 24.875 34.1618 24.3929 34.5135C24.2724 34.6023 24.1591 34.6912 23.9948 34.8133H27.9431H27.9468ZM23.7172 31.6853C23.5638 32.5738 23.4177 33.4141 23.2606 34.3173C23.9619 33.8028 24.6121 33.3289 25.2878 32.8366C24.7582 32.4479 24.2578 32.0851 23.7172 31.689V31.6853ZM26.6903 32.8329C27.3697 33.3289 28.0198 33.7991 28.7175 34.3099C28.5567 33.3993 28.4106 32.5627 28.2609 31.689C27.724 32.0814 27.2272 32.4442 26.6903 32.8329ZM26.3141 24.5076C26.3141 23.5526 26.3141 22.6234 26.3141 21.6943C26.3141 21.5018 26.1936 21.3796 26.0037 21.3722C25.8028 21.3648 25.6895 21.4907 25.6676 21.6943C25.6676 21.7202 25.6676 21.7498 25.6676 21.7757C25.6676 22.6308 25.6676 23.4897 25.6676 24.3448C25.6676 24.3966 25.6859 24.4484 25.6932 24.5002H26.3141V24.5076ZM17.402 29.2459C17.0258 29.2496 16.7044 29.579 16.7081 29.9566C16.7117 30.3379 17.0368 30.66 17.413 30.6563C17.7892 30.6563 18.107 30.3231 18.107 29.9455C18.107 29.5605 17.7819 29.2422 17.402 29.2459ZM24.1007 29.4828C24.4915 29.1274 24.9517 28.7091 25.4046 28.2945C25.0686 27.9799 24.7545 27.6874 24.4623 27.4135C24.3418 28.1131 24.2103 28.8609 24.1044 29.4791L24.1007 29.4828ZM27.892 29.5457C27.7715 28.8498 27.64 28.102 27.5231 27.4431C27.2236 27.7097 26.9022 27.9947 26.5406 28.313C27.0117 28.7424 27.461 29.157 27.8883 29.5457H27.892Z" fill="white" stroke="white" stroke-width="0.5" stroke-miterlimit="10"/>
<path d="M37.2025 11.9748C37.071 12.0504 37.2386 11.9452 37.2025 11.9748C37.3734 12.2772 37.5476 12.5763 37.7185 12.8787C37.7711 12.974 37.8336 13.066 37.8796 13.1646C37.9651 13.3487 37.9059 13.5426 37.7481 13.6314C37.5903 13.7234 37.3931 13.6741 37.2781 13.5098C37.2255 13.4342 37.1828 13.3487 37.1367 13.2698C36.6733 12.4678 36.3282 11.8466 35.8614 11.0478C35.4736 10.3839 34.7866 9.8777 34.1358 9.87113C33.485 9.86455 32.6665 10.4825 32.2819 11.1465C31.1512 13.0923 30.1947 14.7522 29.0739 16.7047C28.3212 18.0194 29.2054 19.5479 30.7207 19.5511C32.9722 19.5544 35.227 19.5544 37.4786 19.5511C38.9676 19.5511 39.855 18.0359 39.1319 16.7342C38.7835 16.1097 38.4187 15.4918 38.0604 14.8706C38.0341 14.8245 38.0045 14.7785 37.9815 14.7292C37.8895 14.5386 37.9355 14.3545 38.09 14.2559C38.2543 14.1507 38.4712 14.1902 38.5764 14.3742C39.0169 15.1368 39.4573 15.8961 39.8748 16.6718C39.9865 16.8789 40.0227 17.1287 40.095 17.3555V18.0096C40.0555 18.1575 40.0194 18.3087 39.9701 18.4533C39.6348 19.5084 38.6783 20.2414 37.5739 20.248C35.2435 20.2611 32.913 20.271 30.5859 20.248C28.6696 20.2283 27.4863 18.118 28.4329 16.422C29.1692 15.1039 29.9384 13.8023 30.6911 12.4941C30.7338 12.4218 30.77 12.3462 30.8258 12.2377C30.8258 12.2377 32.2195 9.1217 34.0898 9.10527C35.9206 9.09212 37.2025 11.9813 37.2025 11.9813V11.9748Z" fill="white"/>
<path d="M37.2025 11.9748C37.071 12.0504 37.2386 11.9452 37.2025 11.9748ZM37.2025 11.9748C37.3734 12.2772 37.5476 12.5763 37.7185 12.8787C37.7711 12.974 37.8336 13.066 37.8796 13.1646C37.9651 13.3487 37.9059 13.5426 37.7481 13.6314C37.5903 13.7234 37.3931 13.6741 37.2781 13.5098C37.2255 13.4342 37.1828 13.3487 37.1367 13.2698C36.6733 12.4678 36.3282 11.8466 35.8614 11.0478C35.4736 10.3839 34.7866 9.8777 34.1358 9.87113C33.485 9.86455 32.6665 10.4825 32.2819 11.1465C31.1512 13.0923 30.1947 14.7522 29.0739 16.7047C28.3212 18.0194 29.2054 19.5479 30.7207 19.5511C32.9722 19.5544 35.227 19.5544 37.4786 19.5511C38.9676 19.5511 39.855 18.0359 39.1319 16.7342C38.7835 16.1097 38.4187 15.4918 38.0604 14.8706C38.0341 14.8245 38.0045 14.7785 37.9815 14.7292C37.8895 14.5386 37.9355 14.3545 38.09 14.2559C38.2543 14.1507 38.4712 14.1902 38.5764 14.3742C39.0169 15.1368 39.4573 15.8961 39.8748 16.6718C39.9865 16.8789 40.0227 17.1287 40.095 17.3555V18.0096C40.0555 18.1575 40.0194 18.3087 39.9701 18.4533C39.6348 19.5084 38.6783 20.2414 37.5739 20.248C35.2435 20.2611 32.913 20.271 30.5859 20.248C28.6696 20.2283 27.4863 18.118 28.4329 16.422C29.1692 15.1039 29.9384 13.8023 30.6911 12.4941C30.7338 12.4218 30.77 12.3462 30.8258 12.2377C30.8258 12.2377 32.2195 9.1217 34.0898 9.10527C35.9206 9.09212 37.2025 11.9813 37.2025 11.9813V11.9748Z" stroke="white" stroke-width="0.2"/>
<path d="M33.7054 20.3564C32.6568 20.3564 31.628 20.3531 30.5828 20.3399C29.6624 20.3301 28.8341 19.8436 28.3674 19.0383C27.8842 18.2067 27.8776 17.2075 28.3477 16.366C28.8538 15.4621 29.383 14.5516 29.8958 13.6707C30.1325 13.2599 30.3724 12.849 30.6091 12.4381C30.6354 12.3921 30.6584 12.3461 30.688 12.2902L30.7438 12.185C30.7997 12.0601 32.1802 9.01643 34.0932 9H34.1097C35.8813 9 37.1172 11.5408 37.2815 11.8958C37.2848 11.8991 37.2881 11.9056 37.2914 11.9089L37.3473 11.9845L37.3341 11.9944L37.86 12.9115C37.8995 12.9805 37.9422 13.0462 37.9751 13.1185C38.0803 13.3453 38.008 13.5951 37.8009 13.7135C37.5938 13.8285 37.344 13.7661 37.1994 13.5623C37.1599 13.5031 37.1238 13.4406 37.0909 13.3815L37.0547 13.3157C36.8542 12.9706 36.6768 12.6584 36.5025 12.3494C36.2725 11.9451 36.0457 11.5474 35.7794 11.0938C35.3883 10.4232 34.7276 9.97293 34.136 9.96636H34.1294C33.5509 9.96636 32.762 10.5153 32.3676 11.1924C31.2402 13.1317 30.2804 14.7949 29.1595 16.7506C28.8243 17.3357 28.8144 18.0161 29.1332 18.565C29.4521 19.1172 30.047 19.4459 30.7241 19.4492C32.9757 19.4525 35.2305 19.4525 37.482 19.4492C38.146 19.4492 38.7344 19.1205 39.0532 18.5748C39.372 18.0292 39.372 17.3587 39.0466 16.7802C38.8067 16.3496 38.5569 15.9223 38.3104 15.4983C38.1986 15.3043 38.0868 15.1137 37.9751 14.9198L37.9554 14.8869C37.9324 14.8475 37.9126 14.8113 37.8929 14.7719C37.7812 14.5385 37.8403 14.2953 38.0375 14.1703C38.1427 14.1046 38.2676 14.0816 38.386 14.1112C38.501 14.1408 38.5996 14.2131 38.6621 14.3215C39.1321 15.1334 39.5561 15.8664 39.9637 16.6191C40.0459 16.7703 40.0886 16.9412 40.1313 17.1056C40.151 17.1779 40.1675 17.2502 40.1905 17.3225V17.3521V18.0325L40.1543 18.1705C40.128 18.2724 40.0984 18.3776 40.0656 18.4795C39.7139 19.5872 38.7114 20.3366 37.5741 20.3432C36.2297 20.3498 34.9544 20.3564 33.7054 20.3564ZM34.1031 9.19722H34.0899C32.3051 9.21036 30.9312 12.2409 30.918 12.2705L30.8622 12.379C30.8326 12.4381 30.8063 12.4874 30.78 12.5367C30.5433 12.9476 30.3034 13.3585 30.0667 13.7693C29.554 14.6502 29.0281 15.5607 28.5219 16.4613C28.088 17.2403 28.0946 18.1673 28.5416 18.9364C28.9722 19.6825 29.738 20.1328 30.5894 20.1394C32.8803 20.1624 35.1089 20.1559 37.5774 20.1394C38.6292 20.1328 39.5528 19.4393 39.8815 18.4138C39.9144 18.3152 39.9407 18.2133 39.967 18.1147L39.9998 17.9865V17.3587C39.9801 17.2896 39.9604 17.2173 39.944 17.1483C39.9045 16.9873 39.8651 16.8393 39.7928 16.7079C39.3852 15.9584 38.9645 15.2255 38.4944 14.4136C38.4583 14.3511 38.4057 14.3117 38.3432 14.2953C38.2775 14.2788 38.2052 14.292 38.146 14.3314C38.0343 14.4037 38.0047 14.5352 38.0737 14.6798C38.0901 14.7127 38.1099 14.7488 38.1296 14.7817L38.4846 15.3964C38.7344 15.8237 38.9809 16.251 39.2208 16.6816C39.5791 17.3225 39.5791 18.0654 39.2241 18.6734C38.8691 19.2815 38.2183 19.6431 37.482 19.6464C35.2305 19.6497 32.9757 19.6497 30.7241 19.6464C29.978 19.6464 29.3173 19.2782 28.9623 18.6636C28.6073 18.0522 28.6172 17.2995 28.9886 16.652C30.1095 14.6963 31.0692 13.0331 32.1967 11.0938C32.5779 10.4364 33.4063 9.76586 34.1392 9.76914C34.7966 9.77572 35.5263 10.2655 35.9503 10.9952C36.2166 11.4521 36.4434 11.8498 36.6735 12.2541C36.8477 12.5598 37.0252 12.872 37.2257 13.2204L37.2651 13.2894C37.298 13.3453 37.3276 13.4012 37.3637 13.4538C37.4492 13.5754 37.5872 13.6116 37.7023 13.5458C37.8173 13.4801 37.8568 13.3388 37.7943 13.2073C37.7647 13.1415 37.7253 13.0824 37.6891 13.0199L37.1632 12.1029C37.1304 12.1094 37.0975 12.0996 37.0712 12.0601L37.0186 11.978L37.0778 11.9385C36.8575 11.4816 35.6742 9.2005 34.1064 9.2005L34.1031 9.19722Z" fill="white" stroke="white" stroke-width="0.2"/>
<path d="M35.1418 13.6674C35.1418 14.0947 35.1451 14.5253 35.1418 14.9526C35.1352 15.5574 34.6882 16.0176 34.1064 16.0274C33.5213 16.0373 33.0447 15.5705 33.0382 14.9559C33.0283 14.0914 33.0283 13.227 33.0382 12.3625C33.0447 11.7478 33.5148 11.2811 34.0998 11.2877C34.6948 11.2942 35.1319 11.7544 35.1385 12.3789C35.1418 12.8062 35.1385 13.2368 35.1385 13.6641L35.1418 13.6674ZM34.4417 13.651C34.4417 13.2368 34.4417 12.826 34.4417 12.4118C34.4417 12.1521 34.3135 12.0009 34.1031 11.9944C33.8928 11.9878 33.7448 12.1456 33.7416 12.3921C33.7383 13.2335 33.7383 14.075 33.7416 14.9132C33.7416 15.163 33.8895 15.324 34.0966 15.3207C34.3036 15.3207 34.4384 15.163 34.4417 14.9066C34.4417 14.4859 34.4417 14.0651 34.4417 13.6444V13.651Z" fill="white" stroke="white" stroke-width="0.2"/>
<path d="M34.0868 16.1294C33.791 16.1294 33.5116 16.0176 33.2979 15.8105C33.0711 15.5903 32.9462 15.2879 32.9429 14.9625C32.9331 14.1309 32.9331 13.2566 32.9429 12.3658C32.9429 12.0371 33.0711 11.7347 33.2979 11.5178C33.5116 11.3107 33.791 11.1957 34.0901 11.1957H34.1065C34.7573 11.2055 35.2372 11.7052 35.2438 12.3855C35.2438 12.6814 35.2438 12.9805 35.2438 13.2763V13.6707V14.0915C35.2438 14.3807 35.2438 14.67 35.2438 14.9592C35.2372 15.6166 34.7508 16.1195 34.1131 16.1327C34.1065 16.1327 34.0999 16.1327 34.0901 16.1327L34.0868 16.1294ZM34.0868 11.3896C33.8403 11.3896 33.6069 11.4849 33.4327 11.6558C33.2453 11.8399 33.1402 12.0897 33.1402 12.3658C33.1303 13.2566 33.1303 14.1276 33.1402 14.9592C33.1402 15.232 33.2486 15.4851 33.436 15.6692C33.6168 15.8434 33.8633 15.942 34.1065 15.9322C34.6324 15.9223 35.0367 15.5016 35.0433 14.9559C35.0466 14.6667 35.0433 14.3807 35.0433 14.0915V13.6707V13.2763C35.0433 12.9805 35.0433 12.6847 35.0433 12.3888C35.0367 11.8202 34.6423 11.4028 34.1032 11.3962H34.0901L34.0868 11.3896ZM34.0901 15.4227C33.9718 15.4227 33.8666 15.3799 33.7844 15.3011C33.6924 15.209 33.6398 15.0743 33.6398 14.9165C33.6365 14.075 33.6365 13.2336 33.6398 12.3921C33.6398 12.2376 33.6924 12.1029 33.7844 12.0141C33.8666 11.9352 33.9783 11.8958 34.0999 11.8958C34.3662 11.9024 34.5338 12.0996 34.5338 12.4118C34.5338 12.6978 34.5338 12.9838 34.5338 13.2697V13.651V14.029C34.5338 14.3248 34.5338 14.6174 34.5338 14.9132C34.5338 15.2222 34.3596 15.4227 34.0934 15.426H34.0901V15.4227ZM34.0901 12.093C34.0243 12.093 33.9685 12.116 33.9257 12.1555C33.8699 12.2081 33.8403 12.2935 33.8403 12.3921C33.837 13.2336 33.837 14.0717 33.8403 14.9132C33.8403 15.0151 33.8731 15.1038 33.9257 15.1564C33.9685 15.1992 34.0178 15.2255 34.0934 15.2222C34.3136 15.2222 34.3366 15.0019 34.3399 14.9066C34.3399 14.6141 34.3399 14.3183 34.3399 14.0257V13.6477V13.2664C34.3399 12.9805 34.3399 12.6945 34.3399 12.4118C34.3399 12.2705 34.2972 12.0996 34.0967 12.093C34.0967 12.093 34.0901 12.093 34.0868 12.093H34.0901Z" fill="white" stroke="white" stroke-width="0.2"/>
<path d="M35.1417 17.7926C35.1384 18.3744 34.652 18.8478 34.0768 18.8346C33.5081 18.8215 33.0414 18.3481 33.0381 17.7828C33.0381 17.2043 33.5147 16.7343 34.0965 16.7343C34.6848 16.7343 35.145 17.201 35.1384 17.7894L35.1417 17.7926ZM34.1031 17.4377C33.9058 17.4344 33.7415 17.5921 33.7415 17.7828C33.7415 17.9636 33.9025 18.1246 34.0833 18.1312C34.2773 18.1378 34.4383 17.9767 34.4383 17.7795C34.4383 17.5889 34.2937 17.4409 34.1031 17.4377Z" fill="white" stroke="white" stroke-width="0.2"/>
<path d="M34.0999 18.9332C34.0999 18.9332 34.0834 18.9332 34.0769 18.9332C33.4523 18.92 32.9429 18.404 32.9429 17.7828C32.9429 17.4804 33.0612 17.1911 33.2781 16.9742C33.4951 16.7572 33.7942 16.6422 34.0999 16.6356C34.4088 16.6356 34.6981 16.7572 34.9117 16.9709C35.1254 17.1878 35.2437 17.4804 35.2404 17.7926C35.2404 18.1016 35.1122 18.3908 34.8887 18.6111C34.6718 18.8214 34.3924 18.9365 34.0999 18.9365V18.9332ZM34.0966 16.8328C33.8402 16.8328 33.6003 16.9314 33.4162 17.1155C33.2354 17.2963 33.1368 17.533 33.1401 17.7828C33.1401 18.2988 33.5641 18.7261 34.0802 18.736C34.3398 18.7491 34.5699 18.6472 34.7507 18.4664C34.938 18.2857 35.0399 18.0457 35.0432 17.7893C35.0432 17.5297 34.9479 17.2897 34.7704 17.1089C34.5929 16.9314 34.3563 16.8328 34.0966 16.8328ZM34.0966 18.2298C34.0966 18.2298 34.0867 18.2298 34.0802 18.2298C33.8468 18.2232 33.6463 18.0161 33.643 17.7828C33.643 17.6644 33.689 17.5527 33.7745 17.4672C33.8632 17.3818 33.975 17.3357 34.1032 17.3357C34.3497 17.3423 34.5337 17.5297 34.5337 17.7762C34.5337 17.8978 34.4844 18.0161 34.3957 18.1016C34.3135 18.1838 34.2051 18.2265 34.09 18.2265L34.0966 18.2298ZM34.0966 17.5362C34.0276 17.5362 33.9618 17.5625 33.9158 17.6086C33.8698 17.6546 33.8435 17.717 33.8435 17.7795C33.8435 17.9077 33.9618 18.026 34.09 18.0293C34.1459 18.0359 34.2182 18.0063 34.2642 17.9603C34.3135 17.911 34.3431 17.8452 34.3398 17.7762C34.3398 17.6381 34.2379 17.5362 34.0999 17.533H34.0933L34.0966 17.5362Z" fill="white" stroke="white" stroke-width="0.2"/>
</svg>
