<svg width="80" height="80" viewBox="0 0 80 80" fill="none" xmlns="http://www.w3.org/2000/svg">
<path d="M59.1124 48.3761L45.7389 25.3003C45.1572 24.2969 44.3207 23.4636 43.3134 22.8843C42.3061 22.305 41.1635 22 40.0004 22C38.8373 22 37.6947 22.305 36.6874 22.8843C35.6801 23.4636 34.8436 24.2969 34.262 25.3003L20.8876 48.3761C20.3061 49.3798 20 50.5182 20 51.6771C20 52.836 20.3063 53.9744 20.8879 54.978C21.4696 55.9816 22.3061 56.815 23.3135 57.3945C24.3209 57.9739 25.4637 58.279 26.6269 58.2791H53.3731C54.5363 58.279 55.6791 57.9739 56.6865 57.3945C57.6939 56.815 58.5304 55.9816 59.1121 54.978C59.6937 53.9744 60 52.836 60 51.6771C60 50.5182 59.6939 49.3798 59.1124 48.3761ZM56.9602 53.7399C56.5967 54.3672 56.0738 54.8881 55.4441 55.2502C54.8144 55.6123 54.1002 55.803 53.3731 55.8029H26.6269C25.8999 55.803 25.1856 55.6124 24.5559 55.2502C23.9263 54.8881 23.4034 54.3672 23.0398 53.74C22.6763 53.1127 22.4849 52.4012 22.4849 51.6769C22.4849 50.9526 22.6762 50.241 23.0398 49.6138L36.4099 26.5388C36.7734 25.9116 37.2963 25.3908 37.9259 25.0287C38.5555 24.6666 39.2697 24.476 39.9966 24.476C40.7236 24.476 41.4378 24.6666 42.0674 25.0287C42.697 25.3908 43.2199 25.9116 43.5834 26.5388L56.9602 49.6138C57.3237 50.241 57.515 50.9525 57.515 51.6768C57.515 52.4011 57.3237 53.1126 56.9602 53.7399ZM54.8081 50.8514L41.4363 27.7765C41.291 27.5255 41.0819 27.3171 40.83 27.1722C40.5782 27.0273 40.2925 26.951 40.0017 26.951C39.7108 26.951 39.4251 27.0273 39.1733 27.1722C38.9215 27.3171 38.7124 27.5255 38.5671 27.7765L25.1919 50.8514C25.0465 51.1024 24.9699 51.387 24.9699 51.6768C24.9699 51.9666 25.0465 52.2512 25.1919 52.5022C25.3373 52.7531 25.5465 52.9615 25.7984 53.1064C26.0503 53.2513 26.3361 53.3276 26.6269 53.3276H53.3731C53.6639 53.3276 53.9497 53.2513 54.2016 53.1064C54.4535 52.9615 54.6627 52.7531 54.8081 52.5022C54.9535 52.2512 55.0301 51.9666 55.0301 51.6768C55.0301 51.387 54.9535 51.1024 54.8081 50.8514ZM40.0004 50.914C39.6727 50.9142 39.3522 50.8175 39.0796 50.6362C38.807 50.4549 38.5945 50.1972 38.4689 49.8955C38.3434 49.5939 38.3104 49.262 38.3743 48.9417C38.4381 48.6214 38.5959 48.3272 38.8276 48.0963C39.0593 47.8653 39.3545 47.708 39.676 47.6443C39.9975 47.5805 40.3307 47.6131 40.6335 47.738C40.9363 47.863 41.1952 48.0746 41.3773 48.346C41.5594 48.6175 41.6566 48.9367 41.6566 49.2632C41.6566 49.7009 41.4821 50.1207 41.1716 50.4302C40.861 50.7398 40.4397 50.9138 40.0004 50.914ZM42.0713 35.7249L40.5215 46.8388C40.1779 46.7643 39.8221 46.7643 39.4785 46.8388L37.9287 35.7291C37.8846 35.1975 38.0465 34.6693 38.3811 34.2529C38.7158 33.8366 39.1978 33.5637 39.7281 33.4904C40.2585 33.4171 40.7968 33.549 41.2326 33.8588C41.6684 34.1687 41.9685 34.6331 42.0713 35.1566C42.096 35.3466 42.096 35.539 42.0713 35.7291V35.7249Z" fill="#0033A1"/>
</svg>
