<svg width="52" height="52" viewBox="0 0 52 52" fill="none" xmlns="http://www.w3.org/2000/svg">
<path d="M26 52C40.3594 52 52 40.3594 52 26C52 11.6406 40.3594 0 26 0C11.6406 0 0 11.6406 0 26C0 40.3594 11.6406 52 26 52Z" fill="#0033A1"/>
<path d="M26.4302 15.658C27.699 14.4092 29.1781 13.5611 30.9177 13.1972C35.8159 12.1721 40.5172 15.2406 41.5389 20.1422C42.1933 23.2808 41.4621 26.0822 39.225 28.386C35.2316 32.4963 31.1782 36.5531 27.1447 40.6266C26.6205 41.1575 26.143 41.1207 25.552 40.5264C22.0462 36.9971 18.5436 33.4645 15.0411 29.9319C14.42 29.3042 13.7656 28.7066 13.208 28.0254C10.9876 25.3042 10.4066 22.2357 11.6253 18.9535C12.844 15.668 15.2881 13.6847 18.7606 13.1438C21.4685 12.7231 23.8892 13.4977 25.9661 15.3007C26.0863 15.4042 26.2031 15.5111 26.3233 15.6146C26.3367 15.6246 26.3534 15.6279 26.4268 15.658H26.4302ZM26.4502 39.311C30.5538 35.1474 34.7041 31.0605 38.7008 26.8234C41.1683 24.209 41.1749 20.1355 38.9979 17.3007C36.8043 14.4426 32.9177 13.5077 29.6723 15.1538C28.8042 15.5946 28.0529 16.2891 27.305 16.9335C26.5871 17.5545 26.1764 17.5979 25.5153 16.9435C25.2916 16.7231 25.0779 16.4927 24.8442 16.2857C22.6672 14.3558 20.1663 13.7515 17.3984 14.663C12.0794 16.4126 10.4868 23.1806 14.43 27.2241C17.6721 30.5497 20.951 33.8385 24.2198 37.1374C24.931 37.8552 25.6656 38.5497 26.4469 39.3077L26.4502 39.311Z" fill="white" stroke="white" stroke-width="0.8"/>
<path d="M14.6504 22.0854C14.6871 20.6564 15.1546 19.3809 16.1496 18.3158C16.5569 17.8784 17.0678 17.8283 17.4584 18.1622C17.8825 18.5228 17.5219 18.8934 17.1212 19.3876C15.8424 20.9669 15.7456 22.3592 16.794 24.1422C17.0912 24.6464 17.3816 25.2875 16.9543 25.578C16.5336 25.8618 16.006 25.7416 15.6721 25.2708C14.9976 24.3259 14.6871 23.2607 14.6537 22.0921L14.6504 22.0854Z" fill="white" stroke="white" stroke-width="0.8"/>
<path d="M20.891 18.0821C20.5771 18.0554 20.2599 18.0387 19.9494 18.0053C19.4886 17.9552 19.1915 17.7115 19.1848 17.3876C19.1748 17.0537 19.4853 16.7599 19.9594 16.7398C20.3935 16.7232 20.8409 16.7499 21.265 16.8133C21.709 16.8767 21.9661 17.2273 21.8827 17.5479C21.7925 17.8918 21.4152 18.0955 20.891 18.0821Z" fill="white" stroke="white" stroke-width="0.8"/>
</svg>
