<svg width="80" height="80" viewBox="0 0 80 80" fill="none" xmlns="http://www.w3.org/2000/svg">
<path d="M46.0952 51.0534H26.5752V19.2534C26.5752 18.1134 26.9552 17.7534 28.1152 17.7534H44.6352C45.6952 17.7534 46.0952 18.1534 46.0952 19.2134V51.0534ZM29.1752 27.6134H43.4752V20.1934H29.1752V27.6134ZM39.2752 32.1334C39.7752 32.1334 40.1752 31.9734 40.1552 31.4334C40.1352 30.8934 39.8152 30.7534 39.3152 30.7534H33.3152C32.8552 30.7534 32.4552 30.8934 32.4552 31.4334C32.4552 31.9734 32.8552 32.1334 33.3352 32.1334H39.2752Z" fill="#0033A1"/>
<path d="M54.0951 32.6733H55.8151C55.8151 32.7933 55.8151 32.8933 55.8151 33.0133C55.8151 37.0133 55.8151 41.0133 55.8151 44.8933C55.8275 45.8278 55.4916 46.7334 54.8726 47.4336C54.2537 48.1338 53.3962 48.5784 52.4673 48.6808C51.5384 48.7832 50.6047 48.536 49.8481 47.9874C49.0916 47.4388 48.5664 46.6281 48.3751 45.7133C48.3012 45.365 48.2676 45.0093 48.2751 44.6533C48.2751 42.6533 48.2751 40.6533 48.2751 38.6533C48.2751 37.4533 48.0751 37.1533 46.9551 36.7733V35.2333C47.7193 35.269 48.4411 35.5953 48.9728 36.1455C49.5044 36.6957 49.8057 37.4283 49.8151 38.1933C49.8151 40.4133 49.8151 42.6133 49.8151 44.8133C49.7863 45.1104 49.8199 45.4102 49.9138 45.6935C50.0078 45.9768 50.1599 46.2373 50.3605 46.4583C50.5611 46.6793 50.8057 46.8559 51.0786 46.9767C51.3515 47.0976 51.6466 47.16 51.9451 47.16C52.2435 47.16 52.5387 47.0976 52.8116 46.9767C53.0845 46.8559 53.3291 46.6793 53.5297 46.4583C53.7303 46.2373 53.8824 45.9768 53.9763 45.6935C54.0703 45.4102 54.1039 45.1104 54.0751 44.8133C54.0751 41.2933 54.0751 37.7733 54.0751 34.2333L54.0951 32.6733Z" fill="#0033A1"/>
<path d="M48.8752 55.4535H23.8152C23.801 54.8875 23.9979 54.3365 24.3676 53.9076C24.7372 53.4788 25.2533 53.2029 25.8152 53.1335H46.4152C46.7321 53.1114 47.0501 53.1552 47.3493 53.2621C47.6485 53.369 47.9222 53.5367 48.1533 53.7547C48.3845 53.9726 48.5679 54.2361 48.6922 54.5285C48.8164 54.8209 48.8787 55.1358 48.8752 55.4535Z" fill="#0033A1"/>
<path d="M56.1753 28.9134V30.3734C56.1753 30.6734 56.0753 30.7734 55.7753 30.7534H54.1153C53.8153 30.7534 53.6953 30.7534 53.7153 30.3734C53.7353 29.9934 53.5753 30.0534 53.3753 29.9534C52.6744 29.6527 52.0046 29.2843 51.3753 28.8534C51.1725 28.7283 51.002 28.5573 50.8775 28.3541C50.753 28.151 50.6779 27.9214 50.6585 27.684C50.639 27.4465 50.6756 27.2078 50.7654 26.9871C50.8552 26.7664 50.9956 26.5699 51.1753 26.4134C51.2839 26.3253 51.3715 26.214 51.4317 26.0877C51.4919 25.9614 51.5231 25.8233 51.5231 25.6834C51.5231 25.5435 51.4919 25.4054 51.4317 25.2791C51.3715 25.1528 51.2839 25.0415 51.1753 24.9534L49.8153 23.6334C49.6694 23.53 49.5471 23.3968 49.4567 23.2425C49.3662 23.0882 49.3097 22.9164 49.2908 22.7386C49.2718 22.5607 49.291 22.3809 49.347 22.211C49.4029 22.0412 49.4944 21.8852 49.6153 21.7534C49.7435 21.6277 49.8967 21.5304 50.065 21.4678C50.2333 21.4052 50.4129 21.3787 50.592 21.39C50.7712 21.4013 50.946 21.4502 51.1051 21.5335C51.2642 21.6168 51.4039 21.7326 51.5153 21.8734C52.6953 23.0734 53.8753 24.2734 55.0953 25.4534C55.4697 25.778 55.7625 26.186 55.9501 26.6446C56.1377 27.1032 56.2149 27.5995 56.1753 28.0934C56.1753 28.3734 56.1753 28.6334 56.1753 28.9134ZM53.6153 28.9134C54.1353 27.5534 53.1753 26.9134 52.4153 26.2334C52.2382 26.5115 52.0445 26.7786 51.8353 27.0334C51.5153 27.3734 51.5953 27.6534 51.8353 27.9534C52.3227 28.4558 52.9383 28.8155 53.6153 28.9934V28.9134Z" fill="#0033A1"/>
</svg>
