<svg width="52" height="52" viewBox="0 0 52 52" fill="none" xmlns="http://www.w3.org/2000/svg">
<path d="M26 52C40.3594 52 52 40.3594 52 26C52 11.6406 40.3594 0 26 0C11.6406 0 0 11.6406 0 26C0 40.3594 11.6406 52 26 52Z" fill="#0033A1"/>
<path d="M23.8548 37.1895C23.5703 37.1259 23.2992 37.0824 23.0381 37.0054C20.6715 36.2958 19.1251 34.7427 18.5895 32.3426C18.0439 29.9058 18.8339 27.8472 20.7251 26.2104C20.8322 26.1167 20.9226 25.9359 20.9259 25.7953C20.9427 24.6003 20.9393 23.4053 20.9326 22.2104C20.9326 21.879 20.9628 21.5677 21.3075 21.4037C21.6389 21.2463 21.89 21.4104 22.141 21.6145C23.3996 22.6321 24.6615 23.6397 25.9235 24.6539C26.0038 24.7208 26.0908 24.7811 26.1578 24.8346C26.623 24.5133 27.0716 24.202 27.5168 23.8874C27.5703 23.8472 27.6138 23.7769 27.6373 23.71C28.0892 22.4413 28.4239 21.1459 28.4473 19.7869C28.4741 18.2739 27.6071 17.0455 26.1645 16.5635C24.8691 16.1317 23.5335 16.0681 22.1845 16.1886C20.6581 16.3225 19.1753 16.6237 17.7895 17.3133C16.7284 17.8421 15.8146 18.5651 14.9878 19.412C14.1577 20.2622 13.8497 21.2597 14.0104 22.4279C14.1845 23.6932 14.3317 24.9652 14.4924 26.2338C14.5493 26.6991 14.3284 27.0305 13.9334 27.074C13.5552 27.1142 13.2874 26.8531 13.2271 26.3878C13.0631 25.089 12.869 23.7903 12.7518 22.4848C12.6916 21.8221 12.7652 21.1459 12.7819 20.4196C12.1058 20.2823 11.4932 19.894 11.1752 19.1409C10.961 18.6354 10.9543 18.1066 11.0949 17.5844C11.3694 16.5802 12.2899 16.0112 13.5418 16.0948C13.4514 15.2078 13.5953 14.3844 14.325 13.7852C15.0581 13.186 15.8715 13.1157 16.7719 13.4873C16.9895 12.7676 17.4046 12.2053 18.1075 11.9007C18.8004 11.6028 19.4866 11.653 20.1895 12.0111C20.5443 11.1776 21.1234 10.5818 22.0071 10.3442C22.8941 10.1065 23.7008 10.3007 24.4105 10.853C24.6414 10.5584 24.8423 10.2571 25.09 10.0027C26.0373 9.03203 27.4565 8.72742 28.7151 9.25965C30.0339 9.81864 30.7436 10.8429 30.8139 12.2789C30.8406 12.8279 30.8574 13.3869 30.7804 13.9258C30.603 15.1442 29.9134 16.0078 28.7954 16.5266C28.7385 16.5534 28.6816 16.5802 28.6247 16.6103C28.618 16.6137 28.6147 16.6271 28.6381 16.5802C28.926 17.1325 29.2473 17.6346 29.4615 18.1769C29.8699 19.2179 29.7528 20.299 29.572 21.3702C29.4716 21.9627 29.321 22.5451 29.1837 23.1677C29.2708 23.1576 29.3611 23.151 29.4482 23.1309C32.4206 22.4346 35.5001 23.6966 37.1135 26.2773C37.2273 26.4581 37.3344 26.5384 37.562 26.5083C40.347 26.1468 43.0717 28.2355 43.4432 31.0037C43.8516 34.0364 41.9303 36.6473 38.911 37.1494C38.5997 37.1996 38.2783 37.2029 37.9637 37.2029C33.8398 37.2063 29.7126 37.2063 25.5887 37.1996C25.3276 37.1996 25.2071 37.2732 25.1101 37.5209C24.2197 39.7636 21.8397 41.223 19.5167 40.972C16.9226 40.6908 14.864 38.8498 14.4723 36.3962C14.2481 34.987 14.1075 33.5678 13.9401 32.1485C13.8866 31.6799 14.1108 31.3753 14.4924 31.3418C14.8874 31.305 15.1485 31.5728 15.2087 32.0548C15.3728 33.4071 15.5334 34.7627 15.7142 36.1117C15.9619 37.9259 17.5351 39.4055 19.4933 39.69C21.2038 39.9377 23.1084 38.8833 23.8314 37.2799C23.8414 37.2598 23.8414 37.2397 23.8548 37.1828V37.1895ZM22.2347 23.3217C22.2247 23.4656 22.2113 23.556 22.2113 23.6464C22.2113 24.4597 22.1946 25.2765 22.218 26.0899C22.2314 26.5217 22.0908 26.8129 21.7259 27.0706C20.0088 28.2958 19.2824 30.5518 19.9385 32.5334C20.6113 34.5753 22.5326 35.931 24.7887 35.9376C27.3695 35.9477 29.9469 35.9376 32.5277 35.9376C34.4089 35.9376 36.2934 35.9544 38.1746 35.9343C40.5746 35.9109 42.4491 33.8422 42.2282 31.4958C42.0005 29.0723 39.7813 27.3819 37.388 27.807C36.6281 27.9443 36.5947 27.9108 36.2097 27.2514C35.1453 25.4204 33.5553 24.3861 31.4365 24.2388C29.6222 24.1116 28.0825 24.761 26.8105 26.0531C26.4322 26.4347 26.1477 26.4581 25.7327 26.1301C25.3109 25.7953 24.8925 25.4539 24.4707 25.1192C23.7377 24.5334 23.008 23.9443 22.2314 23.325L22.2347 23.3217ZM29.5653 12.9283C29.5653 12.9283 29.5553 12.9283 29.5519 12.9283C29.5519 12.7174 29.5586 12.5065 29.5519 12.2956C29.5185 11.2446 28.6749 10.3676 27.6239 10.294C26.5527 10.217 25.5653 10.9601 25.4281 12.0178C25.3544 12.5869 25.3511 13.1827 25.4214 13.7517C25.5419 14.7559 26.4925 15.5358 27.5 15.5425C28.4641 15.5492 29.3477 14.8095 29.5218 13.8153C29.572 13.5275 29.5553 13.2262 29.5687 12.9316L29.5653 12.9283ZM24.0958 13.2229C24.0958 13.0957 24.0992 12.9685 24.0958 12.8446C24.0657 12.135 23.51 11.576 22.8004 11.5358C22.0741 11.4956 21.4381 11.991 21.3577 12.7107C21.3176 13.0622 21.3176 13.4304 21.3611 13.7819C21.4682 14.6019 22.3218 15.1141 23.1084 14.8664C23.7845 14.6555 24.0992 14.1367 24.0958 13.2262V13.2229ZM20.0489 14.207C20.0489 13.5308 19.7711 13.1157 19.2489 13.012C18.6498 12.8915 18.0941 13.2865 18.0104 13.8923C17.8933 14.7459 18.2682 15.3718 18.9343 15.4254C18.9443 15.4254 18.9544 15.4254 18.9644 15.4254C19.6272 15.4588 20.0456 14.9869 20.0456 14.207H20.0489ZM16.7318 15.6965C16.7318 15.0204 16.4071 14.5886 15.8648 14.5417C15.3393 14.4948 14.8774 14.8597 14.8138 15.3752C14.7133 16.1718 15.0112 16.7241 15.5903 16.8212C16.2397 16.9283 16.8121 16.4162 16.7318 15.6965ZM12.2865 18.2605C12.2865 18.7961 12.6414 19.1744 13.1334 19.1643C13.6121 19.1576 13.9568 18.7827 13.9635 18.2672C13.9702 17.7283 13.6255 17.3501 13.1301 17.3467C12.638 17.3467 12.2865 17.725 12.2865 18.2572V18.2605Z" fill="white" stroke="white" stroke-width="0.4"/>
<path d="M14.8405 29.2062C14.8405 29.5544 14.576 29.8322 14.2246 29.8389C13.8832 29.8456 13.5919 29.5711 13.5786 29.2297C13.5652 28.8849 13.8698 28.5736 14.2145 28.5736C14.5526 28.5736 14.8338 28.8615 14.8371 29.2062H14.8405Z" fill="white" stroke="white" stroke-width="0.4"/>
<path d="M31.4031 33.3402C29.8701 33.3469 28.6115 32.0917 28.6182 30.5619C28.6249 29.0389 29.8634 27.8004 31.3797 27.7937C32.9195 27.787 34.1747 29.0222 34.1781 30.5553C34.1848 32.0883 32.9429 33.3369 31.4031 33.3402ZM31.4031 32.0682C32.2433 32.0682 32.9161 31.3887 32.9094 30.5553C32.9027 29.7218 32.2199 29.059 31.3831 29.0657C30.5663 29.0724 29.8969 29.7452 29.8935 30.5619C29.8902 31.3921 30.5697 32.0716 31.4065 32.0682H31.4031Z" fill="white" stroke="white" stroke-width="0.4"/>
<path d="M23.0615 30.8263C23.0615 28.3694 25.4214 26.9903 27.3427 28.0681C27.7779 28.3125 27.9218 28.6807 27.721 29.0288C27.5235 29.3702 27.172 29.4238 26.7268 29.1861C25.8599 28.7208 24.8423 29.0556 24.464 29.9326C24.0925 30.7861 24.5243 31.7736 25.408 32.0748C25.9402 32.2556 26.4256 32.1886 26.8406 31.7769C27.1385 31.479 27.5067 31.4623 27.7712 31.7133C28.0423 31.9711 28.0323 32.3527 27.7411 32.6706C26.8507 33.6481 25.1837 33.6983 24.0891 32.7644C23.4163 32.192 23.0716 31.4556 23.0649 30.8263H23.0615Z" fill="white" stroke="white" stroke-width="0.4"/>
<path d="M37.3277 33.1359C37.5319 33.1359 37.6691 33.1292 37.803 33.1359C38.1913 33.1627 38.4457 33.4238 38.439 33.7853C38.4323 34.1468 38.1746 34.3978 37.7796 34.4012C37.2407 34.4079 36.7018 34.3978 36.1629 34.4012C35.885 34.4012 35.6675 34.3008 35.5302 34.0598C35.3829 33.802 35.4331 33.5476 35.6005 33.3167C35.9721 32.8045 36.3503 32.2957 36.7185 31.7803C36.829 31.6263 36.9327 31.4623 36.993 31.2849C37.0164 31.2146 36.9461 31.0673 36.8758 31.0204C36.829 30.9903 36.6917 31.0606 36.6181 31.1175C36.5679 31.1577 36.5645 31.2514 36.5311 31.3183C36.3838 31.6129 36.0591 31.7468 35.7578 31.643C35.4599 31.5426 35.2825 31.2279 35.3428 30.91C35.4967 30.0932 36.3336 29.5643 37.1637 29.7585C37.9604 29.9459 38.4792 30.7761 38.2449 31.556C38.1511 31.874 37.9637 32.1652 37.7963 32.4564C37.6725 32.674 37.5118 32.8681 37.3244 33.1359H37.3277Z" fill="white" stroke="white" stroke-width="0.4"/>
</svg>
