<svg width="80" height="80" viewBox="0 0 80 80" fill="none" xmlns="http://www.w3.org/2000/svg">
<path d="M41.9395 46.7611C41.6534 46.1983 41.3576 45.7023 41.1478 45.1776C41.098 45.0308 40.9979 44.9063 40.8653 44.826C40.7327 44.7457 40.576 44.7149 40.4228 44.7388C38.2955 44.7388 36.1683 44.7388 34.041 44.7388C32.7246 44.7388 32.7055 44.7388 32.7341 43.3842C32.7341 42.8214 32.9153 42.6497 33.4877 42.6497H40.1271C40.1192 42.5594 40.1032 42.47 40.0794 42.3826C39.254 39.5726 38.7955 36.6676 38.7153 33.74C38.7153 33.3393 38.5435 33.2821 38.2001 33.2821H25.8181C25.551 33.2821 25.1408 33.1581 25.0454 32.9673C25.0059 32.8218 24.9964 32.6697 25.0178 32.5205C25.0391 32.3712 25.0907 32.2278 25.1694 32.0992C26.1234 30.4966 27.1345 28.9226 28.1171 27.3296C28.4161 26.8036 28.851 26.3676 29.3763 26.0672C29.9015 25.7668 30.4979 25.613 31.1029 25.622C35.3383 25.622 39.577 25.622 43.8188 25.622C44.4263 25.6179 45.0237 25.7768 45.5489 26.0822C46.074 26.3875 46.5077 26.8282 46.8046 27.3582C46.9191 27.5585 47.0526 27.7588 47.1862 27.9782L48.7411 27.4536L48.121 26.4329C47.6814 25.6868 47.0534 25.0694 46.3 24.6425C45.5466 24.2156 44.6942 23.9941 43.8283 24.0004C39.6056 24.0004 35.3829 24.0004 31.1601 24.0004C30.2704 23.9898 29.3941 24.2178 28.6224 24.6607C27.8507 25.1036 27.2117 25.7452 26.772 26.5187C26.0566 27.5967 25.3698 28.6842 24.7211 29.7812C24.6563 29.9064 24.5551 30.009 24.4307 30.0754C24.3064 30.1418 24.1648 30.169 24.0247 30.1532C23.1471 30.1532 22.2599 30.1532 21.3823 30.1532C21.0491 30.169 20.7334 30.3072 20.4958 30.5413C20.2582 30.7754 20.1153 31.089 20.0945 31.4219C20.0413 31.7314 20.1114 32.0494 20.2896 32.3079C20.4679 32.5664 20.7403 32.7449 21.0485 32.8051L22.5557 33.2821C22.384 33.5683 22.2409 33.8163 22.0787 34.0452C21.5088 34.8666 21.1307 35.8055 20.9721 36.7926C20.8108 37.7227 20.7151 38.6631 20.686 39.6067C20.6383 42.6592 20.686 45.7118 20.686 48.7739C20.686 49.4512 21.0008 49.7279 21.6971 49.7279H23.6718C26.1711 49.7279 26.0757 49.8805 26.047 47.3717V46.723L41.9395 46.7611ZM24.4349 40.3793C24.0061 40.3181 23.6109 40.1127 23.3143 39.797C23.0177 39.4813 22.8373 39.074 22.8029 38.6422C22.7685 38.2104 22.8821 37.7797 23.1249 37.421C23.3678 37.0623 23.7255 36.797 24.1392 36.6686C24.5089 36.5776 24.8951 36.5776 25.2648 36.6686C26.2188 36.9643 27.1727 37.3077 28.1266 37.6225C28.3705 37.6846 28.5926 37.8126 28.7687 37.9924C28.9448 38.1722 29.0681 38.3969 29.1252 38.642C29.1823 38.8871 29.171 39.1431 29.0924 39.3822C29.0139 39.6213 28.8712 39.8343 28.6799 39.9978C28.5067 40.178 28.2785 40.2955 28.0312 40.3316C27.6661 40.3603 27.2993 40.3603 26.9342 40.3316V40.3793C26.1234 40.3984 25.2744 40.4366 24.4349 40.3793Z" fill="#0033A1"/>
<path d="M62.7926 30.678C59.0079 30.3608 55.3063 29.3927 51.851 27.8162C51.6555 27.7356 51.436 27.7356 51.2405 27.8162C49.2857 28.7333 47.2303 29.4184 45.1162 29.8576C43.4278 30.201 41.7298 30.449 39.9746 30.7447C39.9701 30.7635 39.9701 30.7831 39.9746 30.802C39.8516 34.3248 40.2241 37.8474 41.0811 41.2666C41.7695 43.9087 43.0459 46.3611 44.815 48.4408C46.5841 50.5204 48.8002 52.1735 51.2977 53.2766C51.3868 53.3141 51.4825 53.3334 51.5791 53.3334C51.6758 53.3334 51.7715 53.3141 51.8605 53.2766C54.1737 52.263 56.2481 50.7745 57.9489 48.9077C59.6498 47.0408 60.9393 44.8372 61.7337 42.4399C62.7191 39.2477 63.2239 35.9266 63.2314 32.5858C63.2314 31.9562 63.2314 31.3266 63.2314 30.678H62.7926ZM59.2058 43.5369C57.7001 46.854 55.0954 49.5497 51.8319 51.1684C51.7367 51.208 51.6346 51.2284 51.5314 51.2284C51.4283 51.2284 51.3262 51.208 51.2309 51.1684C49.2085 50.1461 47.4273 48.7044 46.0061 46.9394C44.5848 45.1744 43.5563 43.1266 42.989 40.9327C42.3547 38.6027 41.9804 36.2097 41.8729 33.7973C41.8729 33.4825 41.8729 33.1582 41.8729 32.8434C41.8729 32.5286 41.9683 32.4046 42.2926 32.3664C44.4741 32.0946 46.6241 31.6122 48.7126 30.926C49.5806 30.6398 50.4201 30.2678 51.2786 29.972C51.4923 29.9008 51.7232 29.9008 51.9369 29.972C54.8002 31.1747 57.8135 31.9834 60.8943 32.3759C61.1232 32.3759 61.3235 32.3759 61.314 32.748C61.3466 36.4497 60.6295 40.1198 59.2058 43.5369Z" fill="#0033A1"/>
<path d="M51.6313 31.2789V39.7498C51.8317 39.7498 52.0034 39.7498 52.1751 39.7498C54.3787 39.7498 56.5822 39.7498 58.7858 39.7498C59.1292 39.7498 59.1865 39.5685 59.2246 39.3205C59.444 37.7847 59.673 36.2488 59.8733 34.713C59.8972 34.3191 59.8972 33.9241 59.8733 33.5301C57.0456 33.1134 54.2783 32.3575 51.6313 31.2789Z" fill="#0033A1"/>
<path d="M51.5743 49.7566V39.8167H44.0669C44.5136 41.9223 45.4176 43.9041 46.7149 45.6217C48.0122 47.3394 49.6712 48.751 51.5743 49.7566Z" fill="#0033A1"/>
</svg>
