<svg width="52" height="52" viewBox="0 0 52 52" fill="none" xmlns="http://www.w3.org/2000/svg">
<path d="M26 52C40.3594 52 52 40.3594 52 26C52 11.6406 40.3594 0 26 0C11.6406 0 0 11.6406 0 26C0 40.3594 11.6406 52 26 52Z" fill="#0033A1"/>
<path d="M23.801 39.9941C23.7605 39.9941 23.7199 39.9941 23.676 39.9941C23.1253 39.9671 22.7469 39.6258 22.6625 39.0819L22.6287 38.8657C22.5409 38.2981 22.453 37.717 22.3686 37.1359C21.8719 36.9399 21.3415 36.717 20.6861 36.4332C20.1861 36.8082 19.6793 37.1832 19.186 37.5447L19.0847 37.619C18.6522 37.9366 18.0846 37.8792 17.6725 37.4737C17.3346 37.1393 16.9968 36.8014 16.6623 36.4636L15.6724 35.4737C15.2906 35.0919 14.9123 34.7101 14.5305 34.3318C14.0947 33.8959 14.0541 33.3621 14.419 32.8655C14.7805 32.3722 15.1623 31.8486 15.5406 31.3148C15.2298 30.6796 15.0102 30.1458 14.8481 29.6255C14.2197 29.5343 13.5879 29.433 12.973 29.335L12.8784 29.3181C12.3683 29.237 12 28.8012 12 28.2843C12 27.6255 12 26.97 12 26.3112C12 25.8214 12 25.3315 12 24.8416C12 24.6727 12 24.5071 12 24.3382C12 24.1558 12 23.97 12 23.7875C12 23.149 12.3345 22.7605 12.9629 22.6625L13.1723 22.6287C13.7196 22.5442 14.2872 22.4564 14.8481 22.3719C15.017 21.8449 15.2433 21.2976 15.544 20.6759C15.1386 20.1117 14.7704 19.6016 14.419 19.1286C14.0643 18.6488 14.0947 18.115 14.5035 17.7029C15.0373 17.1623 15.5846 16.6184 16.1116 16.088L16.7637 15.4359C17.0711 15.1285 17.3921 14.8075 17.7063 14.4967C18.1117 14.0947 18.659 14.0643 19.132 14.4156C19.6725 14.8177 20.1793 15.1893 20.6759 15.544C21.1523 15.3109 21.7402 15.0474 22.3753 14.8481C22.4159 14.5812 22.4564 14.3143 22.4936 14.0474C22.5442 13.7028 22.5983 13.3581 22.649 13.0169C22.7469 12.3446 23.1388 12 23.8112 12C25.2842 12 26.7572 12 28.2302 12C28.8248 12 29.237 12.3581 29.3282 12.9595C29.433 13.6386 29.5309 14.2602 29.6255 14.8481C30.156 15.0204 30.6999 15.2467 31.308 15.544C31.6121 15.3244 31.9195 15.1014 32.2168 14.8852L32.5547 14.6386C32.5986 14.6082 32.6425 14.5744 32.6864 14.544C32.7506 14.5001 32.8114 14.4562 32.8722 14.4089C33.3419 14.0575 33.8892 14.0947 34.3013 14.5068C34.7406 14.946 35.1798 15.3819 35.6156 15.8211L36.3352 16.5407C36.7034 16.9089 37.0717 17.2772 37.4433 17.6454C37.7677 17.9698 38.0481 18.4968 37.5413 19.1759C37.1798 19.6556 36.8284 20.1354 36.4298 20.6928C36.6933 21.328 36.9197 21.8685 37.1325 22.3686C37.592 22.4429 38.0582 22.5138 38.5109 22.5814C38.6934 22.6084 38.8792 22.6388 39.0616 22.6659C39.6427 22.7537 39.984 23.1422 39.9975 23.7301C40.0008 23.9497 40.0008 24.1693 39.9975 24.3821C39.9975 24.47 39.9975 24.5612 39.9975 24.649V25.622C39.9975 26.4362 39.9975 27.2775 39.9975 28.1052C39.9975 28.3991 40.0008 29.1863 38.9468 29.335C38.3521 29.4194 37.7542 29.5174 37.1426 29.6222C37.0987 29.7404 37.0582 29.8654 37.0143 29.9938C36.9872 30.0715 36.9636 30.1492 36.9332 30.2303L36.6933 30.9296L36.0683 30.5343C35.9534 30.4634 35.8419 30.3891 35.7304 30.3215C35.4467 30.1391 35.173 29.9668 34.9027 29.8012C34.5277 29.9262 34.1493 30.058 33.7844 30.183C33.4263 30.308 33.0648 30.4296 32.7067 30.5512C32.5175 30.6154 32.227 30.6357 31.9837 30.5006C31.3722 30.1593 30.7539 29.8046 30.1526 29.4634L30.0445 30.1593C30.0107 30.3756 29.9769 30.5816 29.9431 30.7911C29.9195 30.9431 29.8924 31.0918 29.8688 31.2438C29.8181 31.5445 29.764 31.8587 29.7201 32.1628C29.7201 32.1763 29.7201 32.2202 29.7336 32.2675C29.9093 32.8621 30.0918 33.4466 30.2708 34.0074C30.3992 34.4061 30.2438 34.7676 29.8654 34.95C29.3958 35.1764 28.9194 35.4095 28.4566 35.6392C28.764 35.9737 29.0816 36.3149 29.389 36.6595C29.5444 36.8318 29.6222 37.092 29.5884 37.3285C29.4938 37.9704 29.4025 38.5582 29.3113 39.1191C29.2235 39.6393 28.8012 39.9907 28.2606 39.9907C27.2674 39.9907 26.2741 39.9907 25.2842 39.9907H24.0375C24.0037 39.9907 23.9666 39.9907 23.9328 39.9907C23.8923 39.9907 23.8517 39.9907 23.8078 39.9907L23.801 39.9941ZM20.6253 35.2135C20.7503 35.2135 20.8786 35.2439 21.0138 35.3014C21.7773 35.6358 22.3652 35.8791 22.9192 36.0987C23.2605 36.2338 23.4497 36.4703 23.5003 36.8217C23.5882 37.4433 23.6862 38.0751 23.7808 38.6866L23.8044 38.8285C23.8348 38.8285 23.8686 38.8285 23.9024 38.8285C23.9463 38.8285 23.9902 38.8285 24.0308 38.8285H25.2774C26.2437 38.8285 27.2065 38.8285 28.1728 38.8285C28.2505 38.3521 28.3282 37.8555 28.4059 37.3217C28.1086 36.994 27.8045 36.6663 27.5106 36.3453L26.5376 35.2912L27.3011 34.9095C27.3484 34.8858 27.3822 34.8689 27.4194 34.8487L27.8924 34.6155C28.2708 34.4297 28.6627 34.2372 29.0512 34.048C28.9025 33.5784 28.7539 33.0919 28.6086 32.5986C28.5681 32.4567 28.5241 32.2371 28.5579 31.9938C28.6052 31.6763 28.6593 31.3553 28.71 31.0479C28.7336 30.8992 28.7606 30.7506 28.7843 30.6019C28.7978 30.5107 28.8147 30.4229 28.8282 30.3316C28.8147 30.3316 28.8012 30.3249 28.791 30.3215C28.166 30.7303 27.4836 30.9837 26.7234 31.0985C25.8383 31.2303 24.9497 31.1222 24.0848 30.781C23.2537 30.4533 22.5375 29.9195 21.9564 29.1998C20.3786 27.2471 20.4834 24.3652 22.1996 22.4969C23.6017 20.9665 26.2639 20.1557 28.6356 21.5679C29.5546 22.1152 30.2337 22.8686 30.6593 23.8078C31.3519 25.3416 31.3215 26.8721 30.5715 28.362L30.6019 28.3789C31.1999 28.7201 31.8148 29.0715 32.4229 29.4127C32.7472 29.3012 33.0716 29.1897 33.3993 29.0782C33.8081 28.9363 34.2304 28.791 34.6527 28.6491C34.8892 28.5714 35.1831 28.6052 35.3994 28.7336C35.6223 28.8688 35.8419 29.0073 36.0649 29.1492C36.0818 29.1052 36.0987 29.0579 36.1156 29.014C36.2001 28.7978 36.4163 28.5579 36.7136 28.5073C37.4095 28.389 38.092 28.2741 38.7778 28.1762C38.7947 28.1762 38.8116 28.1694 38.8251 28.1694C38.8251 28.1525 38.8251 28.1322 38.8251 28.1086C38.8251 27.2775 38.8251 26.4362 38.8251 25.622V24.649C38.8251 24.5578 38.8251 24.4666 38.8251 24.3754C38.8251 24.1896 38.8251 23.9936 38.8251 23.8078C38.6596 23.7841 38.494 23.7571 38.3285 23.7335C37.8116 23.6558 37.2778 23.5747 36.7541 23.4868C36.4872 23.4429 36.2406 23.2503 36.1325 23.0071C35.8723 22.4057 35.5987 21.7469 35.2642 20.9395C35.1831 20.7401 35.173 20.4327 35.3419 20.2029C35.8048 19.5577 36.1967 19.0205 36.6055 18.4765C36.6055 18.4765 36.6088 18.4698 36.6122 18.4698C36.244 18.1049 35.8757 17.7367 35.5108 17.3718L34.7912 16.6522C34.3689 16.2299 33.9466 15.8075 33.5209 15.3852C33.4669 15.4258 33.4128 15.4629 33.3588 15.5001C33.3182 15.5305 33.2777 15.5575 33.2371 15.5879L32.8993 15.8346C32.5378 16.0981 32.1594 16.3718 31.7878 16.6387C31.6053 16.767 31.2844 16.8447 31.0107 16.7062C30.2742 16.3346 29.6492 16.0744 29.0444 15.8954C28.7809 15.8177 28.5579 15.5609 28.5106 15.2839C28.4025 14.6285 28.291 13.9392 28.1762 13.1723C26.72 13.1723 25.2639 13.1723 23.8078 13.1723H23.801C23.801 13.1723 23.801 13.1825 23.801 13.1892C23.7504 13.5338 23.6997 13.8818 23.6456 14.2264C23.5949 14.5575 23.5443 14.8886 23.497 15.2231C23.4463 15.5711 23.2334 15.8177 22.899 15.9123C22.1861 16.1184 21.507 16.4359 20.9969 16.6893C20.7435 16.8177 20.4057 16.7907 20.1759 16.6285C19.6286 16.2366 19.0712 15.8312 18.4698 15.3852C18.1725 15.6792 17.8752 15.9765 17.5846 16.267L16.9292 16.9224C16.4191 17.4326 15.892 17.9596 15.3785 18.4799C15.767 19.0036 16.1758 19.5678 16.6285 20.2029C16.7873 20.4259 16.811 20.7503 16.6893 20.9935C16.3211 21.73 16.0677 22.3449 15.8954 22.9294C15.8008 23.2503 15.5643 23.4564 15.2332 23.5037C14.6048 23.5949 13.9663 23.6929 13.3446 23.7909L13.1622 23.8179C13.1622 23.9902 13.1622 24.1625 13.1622 24.3348C13.1622 24.5071 13.1622 24.6794 13.1622 24.8517C13.1622 25.3416 13.1622 25.8315 13.1622 26.3214C13.1622 26.943 13.1622 27.568 13.1622 28.1897C13.8311 28.2978 14.5271 28.4059 15.2062 28.5039C15.5643 28.5546 15.8075 28.764 15.9055 29.1086C16.0711 29.6762 16.3109 30.2607 16.686 31.0073C16.8076 31.2506 16.7806 31.5817 16.6184 31.8114C16.1995 32.4026 15.7738 32.9871 15.3751 33.5344C15.7501 33.9094 16.1217 34.2811 16.4968 34.6561L17.4867 35.646C17.8144 35.9737 18.1421 36.3014 18.4698 36.6257L18.4934 36.6088C19.0306 36.2136 19.5847 35.8048 20.1219 35.3994C20.2773 35.2811 20.4462 35.2203 20.6253 35.2203V35.2135ZM26.0072 22.0071C24.8348 22.0071 23.747 22.5341 23.0544 23.2875C21.7266 24.7369 21.6422 26.9633 22.8584 28.4701C23.3179 29.0377 23.8585 29.4397 24.5071 29.6965C25.1896 29.9668 25.8551 30.0478 26.5444 29.9431C27.2606 29.835 27.889 29.5681 28.46 29.1188L29.0242 28.6762L29.2809 28.2606C30.1019 26.9396 30.2032 25.6423 29.5884 24.2842C29.264 23.5679 28.7404 22.9868 28.0309 22.5645C27.3653 22.1692 26.6694 21.9969 26.0038 21.9969L26.0072 22.0071ZM29.3958 29.1796C29.433 29.1796 29.4667 29.1796 29.5073 29.1796H29.6458L29.5816 29.1424C29.5377 29.1154 29.5039 29.0917 29.4735 29.0715L29.3924 29.014V29.1796H29.3958Z" fill="white" stroke="white" stroke-width="0.4"/>
<path d="M35.0612 41.2442C34.8146 41.2442 34.5409 41.1429 34.2571 40.8557C33.7875 40.3861 33.3044 39.9233 32.9125 39.5516C32.4801 39.6733 32.0476 39.7949 31.5915 39.9266L30.5104 40.2375L30.4023 39.5955C30.3888 39.5111 30.3753 39.4334 30.3617 39.3591C30.328 39.1631 30.2942 38.9739 30.2739 38.7847C30.2503 38.5651 30.3347 38.3421 30.5205 38.1428C30.6658 37.9874 30.8145 37.832 30.9597 37.6766C31.1456 37.4806 31.3347 37.2813 31.5172 37.0786C31.5104 36.9772 31.5003 36.8691 31.4902 36.7576C31.48 36.6495 31.4665 36.5414 31.4598 36.4265C31.4496 36.261 31.4902 36.0819 31.578 35.9265C31.9057 35.3522 32.2402 34.7711 32.5679 34.2103L32.622 34.1157C32.6828 34.0109 32.7706 33.9298 32.8889 33.8724L33.1524 33.7204L33.5071 33.9096L33.4632 33.3825L34.2166 32.9028L34.5443 33.2845C34.5815 33.3251 34.6186 33.369 34.6524 33.4096C34.7335 33.5008 34.8146 33.5954 34.8957 33.6933C35.3247 33.5177 35.7639 33.3521 36.1896 33.1933C36.3518 33.1325 36.514 33.0717 36.6761 33.0075C36.7336 32.9872 36.7842 32.9703 36.8315 32.9535C36.8687 32.9399 36.9228 32.9264 36.9396 32.9163C37.1964 32.771 37.5951 32.6697 38.0478 32.994C38.237 33.1291 38.4329 33.2575 38.639 33.3927C38.737 33.4568 38.835 33.521 38.9363 33.5852C38.9971 33.6258 39.0411 33.6663 39.0715 33.6967C39.0782 33.7035 39.0884 33.7102 39.0951 33.7204L39.4735 34.0582L39.1931 34.4805C39.139 34.5616 39.085 34.6427 39.0309 34.7272C38.9296 34.8826 38.8248 35.0414 38.7167 35.2001C38.8215 35.3961 38.9262 35.5954 39.0276 35.7846C39.1086 35.9367 39.1863 36.0853 39.2674 36.2373C39.3215 36.3353 39.3755 36.4333 39.4296 36.5313C39.5107 36.6765 39.5918 36.8252 39.6695 36.9772C39.8958 37.4164 39.7674 37.9604 39.3586 38.2746C39.0411 38.5178 38.7134 38.7644 38.3992 39.0009L37.6187 39.5888C37.0005 40.0516 36.3653 40.5348 35.7335 41.001C35.5545 41.1361 35.3247 41.2476 35.0646 41.251L35.0612 41.2442ZM33.0003 38.3489C33.1895 38.3489 33.399 38.4063 33.5544 38.555C33.9801 38.957 34.5342 39.4841 35.0781 40.028C35.693 39.5719 36.3146 39.1023 36.916 38.6496L37.6964 38.0617C37.9836 37.8455 38.2809 37.6225 38.5748 37.3995C38.5208 37.2982 38.4633 37.1968 38.4059 37.0887C38.3485 36.9874 38.2944 36.886 38.237 36.7813C38.1559 36.6292 38.0748 36.4772 37.9937 36.3252C37.862 36.0752 37.7268 35.8184 37.5883 35.5684C37.4295 35.2779 37.4464 34.967 37.639 34.6934C37.7302 34.565 37.8147 34.4366 37.9025 34.3048C37.7403 34.2001 37.5748 34.092 37.416 33.9771C37.3282 34.0177 37.2471 34.0413 37.1795 34.065C37.1491 34.0751 37.1187 34.0819 37.0917 34.0954C36.9261 34.1596 36.764 34.2204 36.5984 34.2812C36.1761 34.44 35.7437 34.6055 35.3214 34.7778L35.2842 34.7913C35.0747 34.8758 34.9058 34.9231 34.7572 34.9231L34.8416 35.9367L33.3618 35.1495C33.1152 35.5752 32.8686 36.0042 32.6253 36.4333C32.6321 36.4975 32.6388 36.5651 32.6456 36.636C32.6625 36.7914 32.676 36.9536 32.6828 37.1191C32.6929 37.3556 32.5983 37.6124 32.4429 37.7847C32.23 38.0178 32.0138 38.2475 31.8044 38.4705C31.7267 38.5516 31.6489 38.6361 31.5712 38.7171C31.9834 38.5989 32.3787 38.4874 32.7841 38.3759C32.8517 38.359 32.926 38.3489 33.0071 38.3489H33.0003Z" fill="white" stroke="white" stroke-width="0.4"/>
</svg>
