<svg width="52" height="52" viewBox="0 0 52 52" fill="none" xmlns="http://www.w3.org/2000/svg">
<path d="M26 52C40.3594 52 52 40.3594 52 26C52 11.6406 40.3594 0 26 0C11.6406 0 0 11.6406 0 26C0 40.3594 11.6406 52 26 52Z" fill="#0033A1"/>
<path d="M31.2004 13.3948C31.8284 14.0065 32.4687 14.6101 33.0723 15.2463C33.1783 15.3564 33.1946 15.6215 33.1538 15.7927C33.0723 16.1679 32.9336 16.5309 32.8072 16.8939C32.7419 17.0815 32.795 17.2038 32.9459 17.3098C33.109 17.4199 33.2273 17.3425 33.3455 17.2201C33.4964 17.0651 33.6473 16.9102 33.8023 16.7634C34.0714 16.5146 34.3528 16.5064 34.6138 16.7634C35.303 17.4444 35.9882 18.1295 36.6692 18.8188C36.918 19.0675 36.918 19.3897 36.6937 19.6099C36.4735 19.822 36.1513 19.8138 35.9025 19.5691C35.4091 19.0838 34.9238 18.5945 34.4344 18.1051C34.3651 18.0357 34.2917 17.9705 34.2142 17.8971C34.1489 17.9542 34.0959 17.999 34.047 18.048C33.5535 18.5047 32.9377 18.5618 32.3668 18.2111C31.8121 17.8685 31.5797 17.2609 31.7673 16.6288C31.8407 16.38 31.9345 16.1353 32.0038 15.8865C32.0242 15.8131 32.016 15.6989 31.9712 15.65C31.6735 15.3319 31.3594 15.022 31.0658 14.7283C30.0136 15.7805 28.9819 16.8123 27.9297 17.8645C28.2519 18.1826 28.5822 18.521 28.9288 18.8432C28.9778 18.8881 29.092 18.9003 29.1654 18.8799C29.4101 18.8188 29.6466 18.7331 29.8872 18.6638C30.499 18.4925 31.0944 18.7127 31.4125 19.2225C31.7387 19.7445 31.6694 20.3889 31.2289 20.8578C31.1515 20.9435 31.0495 21.0087 30.9761 21.0658C32.1465 22.2281 33.2803 23.3578 34.4344 24.5037C34.9564 24.1775 35.5722 24.0551 36.2206 24.1938C37.1586 24.3936 37.7826 24.9646 38.0884 25.874C38.2475 26.3512 38.3902 26.8324 38.5411 27.3095C38.5697 27.3992 38.6064 27.489 38.7083 27.5787C38.8551 26.8446 39.0346 26.1146 39.1447 25.3724C39.2466 24.6913 39.1202 24.0144 38.9082 23.3578C38.8796 23.264 38.8388 23.1743 38.8103 23.0764C38.7246 22.7542 38.8633 22.481 39.1528 22.3872C39.4342 22.2974 39.7034 22.4239 39.8217 22.7257C40.1561 23.5821 40.36 24.4793 40.2173 25.3887C40.0378 26.5184 39.7523 27.6317 39.4873 28.7491C39.4016 29.1162 39.0387 29.3405 38.6716 29.3364C38.3046 29.3323 37.9906 29.1121 37.8682 28.7328C37.595 27.909 37.3381 27.0771 37.073 26.2492C36.8731 25.6293 36.4368 25.2745 35.8251 25.2337C35.4703 25.2093 35.1522 25.3071 34.8708 25.5314C34.3732 25.927 34.2386 25.9189 33.7778 25.4784C33.7574 25.458 33.737 25.4458 33.737 25.4458C33.1702 26.0086 32.6074 26.5673 32.016 27.1546C32.2607 27.3911 32.5299 27.6399 32.7868 27.9009C33.7941 28.9163 34.3243 30.1357 34.3365 31.5712C34.3406 32.1177 34.3447 32.6683 34.3365 33.2147C34.3243 33.8509 34.5567 34.3566 35.038 34.7726C36.9425 36.4243 38.8388 38.0882 40.7393 39.748C40.8004 39.801 40.8616 39.854 40.9228 39.907C41.3836 40.3148 41.3795 40.6166 40.9065 40.9877H40.5843C40.4619 40.898 40.3314 40.8165 40.2173 40.7186C39.3282 39.9478 38.4432 39.173 37.5583 38.3981C36.4694 37.4479 35.3846 36.4936 34.2957 35.5475C33.5943 34.9398 33.2558 34.1731 33.2599 33.2474C33.2599 32.6805 33.2762 32.1136 33.2476 31.5508C33.1905 30.4701 32.8521 29.4954 32.0772 28.7083C31.4288 28.0518 30.7722 27.3952 30.1156 26.7467C29.3407 25.9841 28.2682 25.9841 27.4974 26.7467C26.8694 27.3666 26.2536 27.9906 25.6296 28.6105C25.5807 28.6594 25.5358 28.7165 25.4909 28.7695C26.2576 29.3201 27.4281 29.2385 28.1703 28.5901C28.3253 28.4555 28.4639 28.3005 28.6148 28.1619C28.8677 27.9294 29.1613 27.9294 29.4101 28.1619C29.5365 28.2761 29.6548 28.4025 29.773 28.5248C30.0503 28.8103 30.0585 29.0754 29.8097 29.3812C28.9615 30.4293 28.9859 31.4122 29.8872 32.4236C29.9647 32.5092 30.0381 32.6071 30.0667 32.7172C30.1319 32.9537 30.0667 33.1617 29.8464 33.3045C29.6221 33.4513 29.3652 33.4268 29.1572 33.2188C28.5781 32.6397 28.1907 31.9587 28.1051 31.09C26.3392 32.8926 24.6019 34.6706 22.9298 36.3835C23.2235 36.7097 23.5538 37.1298 23.9412 37.4887C24.4551 37.9658 25.0831 38.2635 25.7683 38.4144C26.38 38.549 26.9958 38.6795 27.6116 38.7896C28.4517 38.9364 29.1572 39.2912 29.6588 40.0049C29.9688 40.4453 29.9239 40.7145 29.4753 41H29.1531C29.0186 40.8613 28.8677 40.7349 28.7494 40.584C28.4803 40.2374 28.1377 40.009 27.7095 39.9193C27.0407 39.7806 26.3759 39.646 25.7071 39.5074C24.5937 39.2831 23.6394 38.757 22.8442 37.9495C22.575 37.6763 22.314 37.3908 22.0367 37.1012C21.9266 37.2032 21.8573 37.2725 21.788 37.3419C21.0213 38.1004 20.2627 38.863 19.4919 39.6175C18.6396 40.4535 17.461 40.4494 16.6087 39.6175C16.3395 39.3524 16.0703 39.0873 15.8093 38.8182C15.01 37.9862 15.0141 36.8198 15.8216 36.0001C16.5964 35.213 17.3794 34.4382 18.1665 33.6593C18.2359 33.5899 18.3297 33.5451 18.399 33.5002C17.7709 32.497 18.0075 31.2123 19.2962 30.6373C19.0189 30.0949 18.9699 29.5281 19.2065 28.9571C19.443 28.3902 19.8875 28.0518 20.4666 27.8805C20.1852 26.4205 21.1966 25.454 22.4649 25.4988C22.4853 25.4376 22.5057 25.3683 22.522 25.3031C22.8442 23.9287 24.5122 23.3904 25.5603 24.3406C25.8906 24.6383 26.1761 24.989 26.4738 25.3112C27.685 24.0959 28.8432 22.9377 30.0096 21.7632C30.0096 21.7673 30.0096 21.7469 30.0014 21.7347C29.5161 21.2983 29.5528 20.968 30.0503 20.5316C30.1768 20.4174 30.3114 20.3032 30.4052 20.1646C30.4663 20.0748 30.5275 19.8954 30.4826 19.8424C30.4174 19.7649 30.2502 19.7078 30.1441 19.7323C29.7893 19.8179 29.4386 19.9321 29.0879 20.0504C28.8187 20.1442 28.6026 20.083 28.4068 19.8791C27.8767 19.3408 27.3384 18.8147 26.8082 18.2764C26.5186 17.9827 26.5146 17.6932 26.8 17.4077C28.0602 16.1435 29.3244 14.8792 30.5927 13.6191C30.6743 13.5375 30.7763 13.4804 30.8701 13.4111C30.9761 13.4111 31.0862 13.4111 31.1922 13.4111L31.2004 13.3948ZM19.1208 34.2057C18.2359 35.0866 17.3713 35.9349 16.523 36.7995C16.1886 37.1379 16.209 37.6436 16.5393 37.9944C16.7963 38.2676 17.0695 38.5286 17.3387 38.7978C17.8076 39.2668 18.293 39.2668 18.7701 38.7978C21.6004 35.992 24.4306 33.1821 27.2609 30.3763C27.322 30.3151 27.3751 30.2499 27.3914 30.2336C26.8734 30.1887 26.3474 30.1439 25.8172 30.1072C25.7683 30.1072 25.6948 30.1439 25.6663 30.1846C25.2993 30.7311 24.7732 30.9921 24.1329 31.0329C23.9045 32.1789 23.6843 32.4399 22.5506 32.8844C22.6281 33.7408 22.3426 34.4423 21.5473 34.8215C20.6094 35.2701 19.8019 34.9887 19.129 34.2098L19.1208 34.2057ZM31.1963 26.3145C31.7713 25.7354 32.3341 25.1726 32.8521 24.6506C32.1669 23.9654 31.4655 23.264 30.8211 22.6196C29.9892 23.4475 29.1287 24.2958 28.2927 25.1236C29.4631 24.936 30.4215 25.3969 31.1963 26.3145ZM24.345 28.3291C23.8148 27.7989 23.3091 27.281 22.7871 26.7753C22.4772 26.4776 22.0123 26.4939 21.7186 26.7834C21.4454 27.0526 21.4046 27.5257 21.6778 27.8111C22.314 28.4718 22.9584 29.1202 23.6231 29.7483C23.9698 30.0745 24.4959 29.9726 24.7283 29.5811C24.0758 28.9775 24.0269 28.8266 24.3491 28.325L24.345 28.3291ZM23.0277 30.931C22.991 30.8494 22.9584 30.6577 22.8442 30.5394C22.3711 30.0378 21.8858 29.5444 21.3801 29.0754C21.0906 28.8021 20.6216 28.8429 20.3524 29.1162C20.0792 29.3894 20.0466 29.8788 20.3239 30.1683C20.7847 30.6577 21.2619 31.1308 21.7512 31.5957C21.9878 31.82 22.2855 31.8404 22.5791 31.714C22.8728 31.5875 23.0073 31.3469 23.0277 30.935V30.931ZM26.1883 26.4572C25.7438 26.0086 25.3033 25.5518 24.8466 25.1114C24.553 24.83 24.084 24.8504 23.7944 25.1236C23.5008 25.4009 23.4519 25.8699 23.7332 26.1717C24.1778 26.6489 24.659 27.0934 25.1117 27.5379C25.4624 27.1872 25.8172 26.8324 26.1883 26.4613V26.4572ZM20.6665 33.9855C21.0213 33.9325 21.27 33.802 21.4046 33.4961C21.5392 33.1862 21.4943 32.8926 21.2659 32.6479C21.009 32.3706 20.7399 32.1055 20.4707 31.8445C20.1363 31.5223 19.6632 31.5182 19.3614 31.8241C19.0597 32.1259 19.0637 32.603 19.3818 32.9374C19.6306 33.1984 19.8753 33.4594 20.1485 33.6919C20.2953 33.8183 20.4952 33.8876 20.6705 33.9814L20.6665 33.9855Z" fill="white" stroke="white" stroke-width="0.4" stroke-miterlimit="10"/>
<path d="M38.0268 21.4778C37.7331 21.4737 37.5048 21.2331 37.5088 20.9395C37.517 20.6499 37.7617 20.4093 38.0472 20.4134C38.3367 20.4215 38.5814 20.6621 38.5814 20.9435C38.5814 21.2413 38.3326 21.4819 38.0268 21.4737V21.4778Z" fill="white" stroke="white" stroke-width="0.4" stroke-miterlimit="10"/>
<path d="M21.9313 12.5297C21.775 12.6206 21.975 12.497 21.9313 12.5297C22.1349 12.886 22.3421 13.2458 22.5457 13.6021C22.6111 13.7148 22.6838 13.8238 22.7383 13.9401C22.8401 14.1582 22.771 14.3872 22.582 14.4963C22.393 14.6053 22.1603 14.5472 22.0222 14.3509C21.9604 14.26 21.9095 14.1619 21.8514 14.0637C21.2988 13.1113 20.8917 12.3734 20.3355 11.421C19.8739 10.6322 19.0596 10.0288 18.2854 10.0252C17.5111 10.0215 16.5405 10.7485 16.0825 11.541C14.7412 13.8529 13.6034 15.8231 12.273 18.1423C11.3788 19.7053 12.4293 21.5192 14.2286 21.5229C16.904 21.5265 19.5794 21.5265 22.2549 21.5229C24.0251 21.5229 25.0793 19.7235 24.2178 18.1786C23.8034 17.4371 23.3708 16.7028 22.9455 15.9649C22.9128 15.9103 22.8801 15.8522 22.851 15.794C22.7419 15.5686 22.7928 15.3469 22.9782 15.2306C23.1745 15.107 23.4326 15.1542 23.5562 15.3687C24.0796 16.2738 24.6031 17.179 25.1011 18.095C25.2356 18.3422 25.2792 18.6366 25.3628 18.9092V19.6872C25.3156 19.8616 25.2719 20.0398 25.2174 20.2142C24.8176 21.4647 23.6798 22.3407 22.3712 22.348C19.6049 22.3626 16.835 22.3735 14.0687 22.348C11.7895 22.3226 10.3864 19.818 11.5133 17.8042C12.3893 16.2375 13.3017 14.6926 14.1959 13.1404C14.2468 13.0568 14.2868 12.9659 14.3559 12.8351C14.3559 12.8351 16.0098 9.13095 18.2308 9.1164C20.4046 9.09823 21.9313 12.5334 21.9313 12.5334V12.5297Z" fill="white"/>
<path d="M21.9313 12.5297C21.775 12.6206 21.975 12.497 21.9313 12.5297ZM21.9313 12.5297C22.1349 12.886 22.3421 13.2458 22.5457 13.6021C22.6111 13.7148 22.6838 13.8238 22.7383 13.9401C22.8401 14.1582 22.771 14.3872 22.582 14.4963C22.393 14.6053 22.1603 14.5472 22.0222 14.3509C21.9604 14.26 21.9095 14.1619 21.8514 14.0637C21.2988 13.1113 20.8917 12.3734 20.3355 11.421C19.8739 10.6322 19.0596 10.0288 18.2854 10.0252C17.5111 10.0215 16.5405 10.7485 16.0825 11.541C14.7412 13.8529 13.6034 15.8231 12.273 18.1423C11.3788 19.7053 12.4293 21.5192 14.2286 21.5229C16.904 21.5265 19.5794 21.5265 22.2549 21.5229C24.0251 21.5229 25.0793 19.7235 24.2178 18.1786C23.8034 17.4371 23.3708 16.7028 22.9455 15.9649C22.9128 15.9103 22.8801 15.8522 22.851 15.794C22.7419 15.5686 22.7928 15.3469 22.9782 15.2306C23.1745 15.107 23.4326 15.1542 23.5562 15.3687C24.0796 16.2738 24.6031 17.179 25.1011 18.095C25.2356 18.3422 25.2792 18.6366 25.3628 18.9092V19.6872C25.3156 19.8616 25.2719 20.0398 25.2174 20.2142C24.8176 21.4647 23.6798 22.3407 22.3712 22.348C19.6049 22.3626 16.835 22.3735 14.0687 22.348C11.7895 22.3226 10.3864 19.818 11.5133 17.8042C12.3893 16.2375 13.3017 14.6926 14.1959 13.1404C14.2468 13.0568 14.2868 12.9659 14.3559 12.8351C14.3559 12.8351 16.0098 9.13095 18.2308 9.1164C20.4046 9.09823 21.9313 12.5334 21.9313 12.5334V12.5297Z" stroke="white" stroke-width="0.2"/>
<path d="M17.7763 22.4861C16.5331 22.4861 15.3081 22.4824 14.0685 22.4679C12.9744 22.457 11.9893 21.879 11.4367 20.9194C10.8624 19.9306 10.8551 18.7456 11.4113 17.7459C12.0111 16.67 12.64 15.5904 13.247 14.5435C13.5305 14.0564 13.8141 13.5693 14.094 13.0822C14.1231 13.0276 14.1521 12.9731 14.1885 12.9077L14.2539 12.7841C14.3193 12.6351 15.9624 9.01818 18.2343 9H18.2525C20.3572 9 21.8257 12.0171 22.022 12.4424C22.0257 12.446 22.0329 12.4533 22.0366 12.4569L22.1056 12.5478L22.0875 12.5624L22.7127 13.6492C22.7599 13.7292 22.8108 13.8092 22.8472 13.8928C22.9744 14.1618 22.8872 14.4599 22.64 14.6016C22.3964 14.7398 22.0947 14.6634 21.9275 14.4199C21.8803 14.3508 21.8403 14.2781 21.7967 14.2054L21.753 14.1254C21.5168 13.7147 21.3059 13.3439 21.0951 12.9768C20.8225 12.4969 20.5535 12.0244 20.2372 11.4827C19.7719 10.6867 18.9868 10.1487 18.2852 10.145H18.2743C17.5873 10.145 16.6494 10.7957 16.1841 11.6027C14.8464 13.9073 13.705 15.8812 12.3746 18.204C11.9747 18.8983 11.9638 19.7052 12.3419 20.3596C12.7199 21.0139 13.4288 21.4064 14.2321 21.4101C16.9075 21.4137 19.5829 21.4137 22.2583 21.4101C23.0471 21.4101 23.745 21.0211 24.1267 20.3741C24.5048 19.7271 24.5048 18.931 24.1195 18.2439C23.8359 17.7314 23.5379 17.2261 23.2434 16.7209C23.1089 16.4919 22.9781 16.2628 22.8436 16.0338L22.8217 15.9938C22.7963 15.9502 22.7709 15.903 22.7454 15.8557C22.6145 15.5795 22.6836 15.2923 22.9163 15.1432C23.0399 15.0633 23.1925 15.0378 23.3307 15.0705C23.4688 15.1033 23.5851 15.1941 23.6578 15.3214C24.2176 16.2847 24.7192 17.1571 25.2027 18.0513C25.3009 18.233 25.3517 18.433 25.4026 18.6293C25.4244 18.7165 25.4463 18.8001 25.4717 18.8874V18.9237V19.7343L25.4281 19.9015C25.3954 20.0251 25.3626 20.1487 25.3227 20.2687C24.9046 21.5846 23.7123 22.4752 22.3637 22.4824C20.7679 22.4897 19.2521 22.497 17.769 22.497L17.7763 22.4861ZM18.2488 9.23264H18.2343C16.1151 9.25082 14.4829 12.8459 14.4648 12.8822L14.3993 13.0131C14.363 13.0858 14.3339 13.144 14.3012 13.1985C14.0213 13.6856 13.7377 14.1763 13.4542 14.6634C12.8472 15.7103 12.2183 16.7899 11.6185 17.8623C11.1023 18.7892 11.1096 19.887 11.6403 20.803C12.1529 21.6863 13.0616 22.2243 14.0722 22.2316C16.7912 22.2607 19.4411 22.2498 22.3746 22.2316C23.6215 22.2243 24.7229 21.3992 25.1118 20.1814C25.1482 20.0651 25.1809 19.9452 25.2136 19.8252L25.2536 19.6725V18.9273C25.2282 18.8437 25.2063 18.7601 25.1845 18.6765C25.1373 18.4875 25.09 18.3094 25.0064 18.1531C24.523 17.2625 24.0213 16.3901 23.4651 15.4268C23.4215 15.3541 23.3597 15.3068 23.2834 15.285C23.2071 15.2668 23.1198 15.2814 23.0508 15.325C22.9163 15.4086 22.8835 15.5685 22.9671 15.7394C22.9853 15.7794 23.0108 15.8194 23.0326 15.8594L23.4542 16.5864C23.7487 17.0953 24.0431 17.6005 24.3303 18.1131C24.7556 18.8728 24.7556 19.7598 24.3339 20.4795C23.9123 21.1993 23.138 21.6318 22.2656 21.6318C19.5902 21.6391 16.9148 21.6355 14.2357 21.6318C13.3488 21.6318 12.5673 21.1956 12.1456 20.465C11.7239 19.738 11.7385 18.8437 12.1783 18.0731C13.5087 15.7503 14.6501 13.7765 15.9878 11.4718C16.4386 10.6939 17.4237 9.89422 18.2925 9.89786C19.074 9.90513 19.9391 10.4904 20.4444 11.3519C20.7607 11.8935 21.0297 12.3661 21.3023 12.8459C21.5095 13.2094 21.7203 13.5802 21.9566 13.9909L22.0039 14.0709C22.0402 14.1363 22.0766 14.2054 22.1202 14.2672C22.2183 14.4126 22.3855 14.4562 22.5237 14.3762C22.6618 14.2963 22.7054 14.1327 22.6327 13.9728C22.5964 13.8964 22.5528 13.8237 22.5091 13.751L21.8839 12.6605C21.8439 12.6678 21.8039 12.6569 21.7749 12.6096L21.7131 12.5151L21.7821 12.4678C21.5204 11.9262 20.1173 9.21447 18.2525 9.21447L18.2488 9.23264Z" fill="white" stroke="white" stroke-width="0.2"/>
<path d="M19.485 14.5398C19.485 15.0487 19.4886 15.5576 19.485 16.0665C19.4777 16.7863 18.947 17.3315 18.2563 17.3424C17.562 17.3533 16.9949 16.7972 16.9877 16.0702C16.9768 15.0415 16.9768 14.0164 16.9877 12.9876C16.9949 12.257 17.5547 11.7045 18.249 11.7117C18.9542 11.7226 19.4777 12.2679 19.4813 13.0095C19.485 13.5184 19.4813 14.0273 19.4813 14.5362L19.485 14.5398ZM18.6525 14.518C18.6525 14.0273 18.6525 13.5365 18.6525 13.0494C18.6525 12.7405 18.4999 12.5623 18.2527 12.5551C18.0055 12.5478 17.8237 12.7332 17.8237 13.0276C17.8201 14.0273 17.8201 15.0233 17.8237 16.0229C17.8237 16.3174 18.0019 16.51 18.2454 16.5064C18.4926 16.5064 18.6525 16.3174 18.6525 16.0156C18.6525 15.5176 18.6525 15.016 18.6525 14.518Z" fill="white" stroke="white" stroke-width="0.2"/>
<path d="M18.231 17.4625C17.8784 17.4625 17.5476 17.328 17.2931 17.0808C17.0241 16.8191 16.8751 16.4628 16.8715 16.0739C16.8606 15.0851 16.8606 14.0492 16.8715 12.9913C16.8751 12.6024 17.0241 12.2425 17.2931 11.9808C17.5439 11.7336 17.8784 11.5991 18.2346 11.5991H18.2528C19.027 11.61 19.5941 12.2025 19.6014 13.0132C19.6014 13.3658 19.6014 13.7184 19.6014 14.071V14.5399V15.0379C19.6014 15.3796 19.6014 15.7249 19.6014 16.0666C19.5905 16.8481 19.0161 17.4479 18.2564 17.4588C18.2491 17.4588 18.2382 17.4588 18.231 17.4588V17.4625ZM18.231 11.8354C17.9365 11.8354 17.6603 11.9481 17.4531 12.1516C17.2313 12.3698 17.1077 12.6678 17.1041 12.995C17.0932 14.0528 17.0932 15.0888 17.1041 16.0739C17.1041 16.401 17.2313 16.6991 17.4567 16.9172C17.6712 17.1244 17.9656 17.2407 18.2528 17.2298C18.878 17.2189 19.3578 16.7209 19.3651 16.0702C19.3687 15.7285 19.3651 15.3869 19.3651 15.0452V14.5472V14.0782C19.3651 13.7256 19.3651 13.373 19.3651 13.0241C19.3578 12.3479 18.8889 11.8536 18.2455 11.8427H18.231V11.8354ZM18.2346 16.6264C18.0928 16.6264 17.9692 16.5755 17.8711 16.481C17.762 16.372 17.7003 16.2084 17.6966 16.023C17.693 15.0233 17.693 14.0237 17.6966 13.0241C17.6966 12.8423 17.7584 12.6824 17.8711 12.5733C17.9692 12.4788 18.1001 12.4352 18.2455 12.4315C18.5618 12.4388 18.7581 12.6751 18.7617 13.0422C18.7617 13.3803 18.7617 13.722 18.7617 14.0601V14.5108V14.9615C18.7617 15.3105 18.7617 15.6595 18.7617 16.0121C18.7617 16.3792 18.5545 16.6191 18.2382 16.6191H18.2346V16.6264ZM18.2346 12.6715C18.1546 12.6715 18.0892 12.6969 18.0383 12.7478C17.9729 12.8096 17.9365 12.9114 17.9365 13.0313C17.9329 14.031 17.9329 15.027 17.9365 16.0266C17.9365 16.1502 17.9729 16.252 18.0383 16.3174C18.0892 16.3683 18.1474 16.401 18.2382 16.3938C18.5 16.3938 18.529 16.132 18.529 16.0194C18.529 15.6704 18.529 15.3214 18.529 14.9725V14.5217V14.0673C18.529 13.7293 18.529 13.3876 18.529 13.0495C18.529 12.8787 18.4782 12.6787 18.2419 12.6715C18.2419 12.6715 18.2346 12.6715 18.231 12.6715H18.2346Z" fill="white" stroke="white" stroke-width="0.2"/>
<path d="M19.4851 19.44C19.4814 20.1306 18.9035 20.6941 18.2201 20.6795C17.544 20.665 16.9878 20.1016 16.9878 19.4291C16.9878 18.742 17.5512 18.1823 18.2455 18.1823C18.9435 18.1823 19.4887 18.7384 19.4851 19.4363V19.44ZM18.2528 19.0183C18.0165 19.0147 17.8239 19.2001 17.8239 19.4291C17.8239 19.6435 18.0129 19.8362 18.2273 19.8435C18.4564 19.8507 18.649 19.6617 18.649 19.4254C18.649 19.2001 18.4782 19.0256 18.2492 19.0183H18.2528Z" fill="white" stroke="white" stroke-width="0.2"/>
<path d="M18.2454 20.7958C18.2454 20.7958 18.2272 20.7958 18.2163 20.7958C17.4747 20.7813 16.8713 20.167 16.8677 19.4291C16.8677 19.0692 17.0094 18.7275 17.2639 18.4694C17.5184 18.2113 17.8782 18.0732 18.2417 18.0659C18.6089 18.0659 18.9542 18.2077 19.2087 18.4658C19.4631 18.7239 19.6012 19.0692 19.6012 19.44C19.6012 19.8071 19.4522 20.1524 19.1832 20.4105C18.9251 20.6613 18.5943 20.7958 18.2454 20.7958ZM18.2381 18.3022C17.9327 18.3022 17.6456 18.4222 17.4311 18.6366C17.2166 18.8511 17.1003 19.131 17.1003 19.4291C17.1003 20.0398 17.602 20.5487 18.2199 20.5632C18.5289 20.5777 18.8015 20.4578 19.0196 20.2433C19.2414 20.0288 19.3613 19.7417 19.365 19.44C19.365 19.131 19.2523 18.8438 19.0414 18.633C18.8306 18.4222 18.5471 18.3058 18.2417 18.3022H18.2381ZM18.2381 19.9634C18.2381 19.9634 18.2272 19.9634 18.2199 19.9634C17.94 19.9525 17.7037 19.7126 17.7001 19.4327C17.7001 19.2909 17.7546 19.1601 17.8564 19.0583C17.9618 18.9565 18.0963 18.9056 18.249 18.902C18.5398 18.9093 18.7615 19.1346 18.7615 19.4254C18.7615 19.5708 18.7034 19.7126 18.598 19.8144C18.4998 19.9089 18.369 19.9634 18.2345 19.9634H18.2381ZM18.2381 19.1383C18.1581 19.1383 18.0781 19.171 18.0236 19.2255C17.9691 19.28 17.9364 19.3527 17.9364 19.4291C17.9364 19.5781 18.0782 19.7199 18.2272 19.7271C18.2963 19.7344 18.3799 19.7017 18.4344 19.6435C18.4925 19.5854 18.5253 19.509 18.5253 19.4254C18.5253 19.2619 18.4053 19.1383 18.2417 19.1346H18.2345L18.2381 19.1383Z" fill="white" stroke="white" stroke-width="0.2"/>
</svg>
