<svg width="52" height="52" viewBox="0 0 52 52" fill="none" xmlns="http://www.w3.org/2000/svg">
<path d="M26 52C40.3594 52 52 40.3594 52 26C52 11.6406 40.3594 0 26 0C11.6406 0 0 11.6406 0 26C0 40.3594 11.6406 52 26 52Z" fill="#0033A1"/>
<path d="M26.5039 12.0259C26.4393 12.3703 26.5254 12.6106 26.8698 12.7864C27.6051 13.163 27.7127 14.3755 27.1388 14.9207C26.9523 15.0965 26.7442 15.2508 26.4967 15.4588C26.5003 15.4158 26.4967 15.4516 26.4967 15.4911C26.5003 16.0973 26.4285 16.0041 27.0025 16.0112C27.3433 16.0148 27.5262 16.1942 27.5334 16.5601C27.5406 17.0192 27.5334 17.4748 27.5334 17.9734C27.9746 17.9734 28.4015 17.9734 28.8283 17.9734C29.3521 17.9734 29.4884 18.1097 29.4884 18.6191C29.4884 18.698 29.4955 18.7769 29.4884 18.8522C29.474 19.0244 29.5242 19.089 29.7215 19.1284C30.8802 19.3724 32.0352 19.6486 33.1903 19.9104C33.2441 19.9248 33.3015 19.932 33.3589 19.9391C33.7068 19.9786 33.9292 20.1328 34.0799 20.4808C34.8404 22.2062 35.6224 23.9209 36.4223 25.6283C36.5909 25.9906 36.4618 26.2417 36.286 26.5215C35.5255 27.7304 34.7686 28.9428 34.0046 30.1481C33.7463 30.5535 33.3697 30.6216 33.1437 30.2988C33.0576 30.1768 33.0361 29.9903 33.0361 29.8325C33.0253 28.8855 33.0038 27.9349 33.0396 26.9879C33.0612 26.3709 32.9535 25.8041 32.7024 25.2481C32.5339 24.875 32.376 24.4912 32.2469 24.1038C32.1177 23.7164 31.7519 23.6375 31.4649 23.4653C30.6721 22.9918 29.865 22.5326 29.0615 22.0771C28.9575 22.0197 28.8248 21.9874 28.7064 21.9874C26.8985 21.9802 25.0905 21.9551 23.2826 22.0053C22.8629 22.0161 22.4432 22.2744 22.0343 22.4394C21.403 22.6941 20.7752 22.9559 20.1546 23.2393C20.0255 23.2967 19.9 23.4438 19.8497 23.5765C19.5771 24.3334 19.326 25.101 19.0785 25.8687C19.0355 26.005 19.0247 26.1556 19.0211 26.2991C19.0175 27.4721 19.0211 28.6451 19.0139 29.8181C19.0139 29.9652 18.9852 30.1409 18.9027 30.2521C18.6265 30.6145 18.2965 30.5858 18.049 30.1983C17.7262 29.6961 17.4033 29.1904 17.0876 28.681C16.6572 27.9887 16.2698 27.2605 15.7927 26.604C15.4734 26.1664 15.5129 25.7969 15.7174 25.3593C16.4456 23.7881 17.1773 22.217 17.8696 20.6315C18.0669 20.1795 18.3503 19.9714 18.8238 19.8817C19.7565 19.7096 20.6748 19.4836 21.6003 19.2791C21.8334 19.2289 22.063 19.1571 22.2962 19.1356C22.4935 19.1177 22.515 19.0208 22.5078 18.8666C22.5006 18.7697 22.5078 18.6729 22.5078 18.5724C22.5078 18.1707 22.6728 17.9913 23.0818 17.9806C23.5481 17.9698 24.018 17.9806 24.5202 17.9806C24.5202 17.5752 24.5202 17.1878 24.5202 16.8004C24.5202 16.0614 24.6135 15.9682 25.3524 15.961C25.3919 15.961 25.4277 15.961 25.4815 15.9538V15.3978C24.8646 15.1073 24.4951 14.6266 24.5058 13.9235C24.513 13.4321 24.7426 12.998 25.1695 12.7577C25.4995 12.5712 25.5354 12.3416 25.4851 12.0331C25.4672 12.0187 25.4528 12.0008 25.4349 11.9865C25.3273 11.9865 25.2197 11.9793 25.1121 11.9793C20.5313 11.9793 15.9469 11.9793 11.3662 11.9793C11.2586 11.9793 11.1509 11.9793 11.0254 11.9793V11H41.021V11.9793H40.7053C36.0923 11.9793 31.4828 11.9793 26.8698 11.9793C26.7622 11.9793 26.6545 11.9865 26.5469 11.9865C26.529 12.0008 26.5146 12.0187 26.4967 12.0331L26.5039 12.0259ZM29.4848 20.1113C29.4848 20.4198 29.4669 20.7032 29.4956 20.983C29.5063 21.0906 29.5924 21.2269 29.6857 21.2807C30.5681 21.8009 31.4541 22.3174 32.3509 22.8088C32.7311 23.0169 33.0217 23.2572 33.158 23.6949C33.323 24.2222 33.5454 24.7351 33.775 25.2373C33.9866 25.7073 34.062 26.1915 34.0369 26.7009C34.0153 27.1744 34.0333 27.6479 34.0333 28.1214C34.5175 27.4327 34.9552 26.7368 35.3785 26.0337C35.4107 25.9763 35.4107 25.8723 35.382 25.8113C34.679 24.2473 33.9759 22.6833 33.2585 21.1301C33.2082 21.0225 33.0683 20.9148 32.95 20.8861C31.8093 20.6207 30.6614 20.3732 29.4812 20.1113H29.4848ZM17.9342 28.1286C17.9629 28.1214 17.988 28.1106 18.0167 28.1035C18.0167 27.4721 18.0167 26.8408 18.0167 26.2059C18.0167 26.0409 18.0167 25.8687 18.0705 25.7144C18.3862 24.7495 18.7126 23.7845 19.0498 22.8268C19.0964 22.6976 19.2148 22.5577 19.3368 22.5039C20.3304 22.0663 21.3348 21.6538 22.332 21.2233C22.4002 21.1946 22.4935 21.1193 22.497 21.0655C22.5114 20.7498 22.5042 20.4378 22.5042 20.1041C22.3105 20.1472 22.1634 20.1795 22.0164 20.2118C21.0765 20.4162 20.1403 20.6207 19.2005 20.818C18.9781 20.8646 18.8131 20.9292 18.7306 21.1875C18.6265 21.5103 18.4472 21.808 18.3037 22.1201C17.7513 23.3182 17.1989 24.5163 16.65 25.7144C16.5819 25.8651 16.5747 26.0086 16.6931 26.1628C16.8688 26.3996 17.0123 26.6578 17.1702 26.9054C17.4248 27.3107 17.6795 27.7196 17.9342 28.125V28.1286ZM28.5198 20.9686V18.9957H23.5373V20.9686H28.5198ZM26.5111 17.959V16.9869H25.5461V17.959H26.5111ZM26.0053 13.4895C25.7147 13.4895 25.5031 13.676 25.4995 13.9522C25.4923 14.2141 25.747 14.4867 25.9981 14.4867C26.242 14.4867 26.4967 14.232 26.4967 13.9917C26.4967 13.6724 26.3209 13.4895 26.0053 13.4895Z" fill="white" stroke="white" stroke-width="0.2"/>
<path d="M16.517 35.9845H35.5145C35.518 35.8805 35.5288 35.7872 35.5288 35.6939C35.5288 34.9693 35.5288 34.2483 35.5288 33.5237C35.5288 33.1865 35.6866 33 36.0095 32.9928C37.0175 32.9785 38.0219 32.9785 39.0298 32.9928C39.3455 32.9964 39.5285 33.2332 39.532 33.5811C39.5356 34.381 39.5392 35.1846 39.532 35.9845C39.532 36.1603 39.5894 36.2392 39.7437 36.3324C40.4396 36.7521 40.8952 37.3332 40.9884 38.1762C41.1498 39.6685 40.21 40.6944 38.8648 40.9921C38.7895 41.0101 38.7106 40.9921 38.6317 40.9921C30.1804 40.9921 21.7255 40.9993 13.2742 40.9814C12.4061 40.9814 11.5667 40.3536 11.1973 39.464C10.67 38.1977 11.2475 36.8239 12.3631 36.2535C12.442 36.2141 12.5102 36.0634 12.5102 35.963C12.5209 35.1917 12.5137 34.4205 12.5173 33.6493C12.5173 33.1076 12.6393 32.9892 13.1881 32.9892C14.0777 32.9892 14.9673 32.9892 15.857 32.9892C16.3305 32.9892 16.517 33.1829 16.5206 33.66C16.5206 34.4313 16.5206 35.1989 16.5206 35.9881L16.517 35.9845ZM25.9368 39.9949C28.4873 39.9949 31.0377 39.9949 33.5882 39.9949C35.2203 39.9949 36.8525 40.02 38.4846 39.9877C39.6468 39.9626 40.2315 39.0479 39.9195 37.961C39.7509 37.3763 39.1231 36.9996 38.4057 36.9996C30.1481 36.9996 21.8941 36.9996 13.6365 36.9996C13.5468 36.9996 13.4607 36.9996 13.3747 37.0068C12.3416 37.0857 11.7999 38.0901 12.0725 38.9439C12.2806 39.5967 12.8725 40.0057 13.6293 40.0057C17.733 39.9913 21.8367 39.9985 25.9404 39.9985L25.9368 39.9949ZM13.5253 35.9737H15.4947V34.0116H13.5253V35.9737ZM36.544 35.9809H38.5169V34.008H36.544V35.9809Z" fill="white" stroke="white" stroke-width="0.2"/>
<path d="M30.2701 27.5081C30.6826 27.5081 31.0808 27.5081 31.4825 27.5081C31.8341 27.5081 32.0206 27.6838 32.0242 28.039C32.0314 28.6631 32.0314 29.2909 32.0242 29.915C32.0206 30.2738 31.7839 30.4962 31.4144 30.4962C31.1884 30.4962 30.9624 30.5069 30.74 30.4962C30.4136 30.4746 30.1123 30.4782 30.0872 30.9768C30.3383 31.2208 30.6324 31.5006 30.923 31.7911C31.1561 32.0207 31.1525 32.322 30.9158 32.5552C30.4746 33 30.0333 33.4412 29.5885 33.8824C29.3087 34.1586 29.0684 34.155 28.7922 33.8824C28.638 33.7318 28.4801 33.5847 28.3366 33.4233C28.1035 33.165 27.8811 32.9175 27.4865 33.2726C27.4865 33.6349 27.4865 34.0546 27.4865 34.4743C27.4865 34.7684 27.3143 34.9837 27.0202 34.9908C26.3458 35.0052 25.6714 35.0052 24.997 34.9908C24.6634 34.9801 24.502 34.7828 24.4984 34.442C24.4912 34.0438 24.4984 33.6421 24.4984 33.2583C24.1827 33.0179 23.9639 33.1148 23.7415 33.3838C23.5586 33.6062 23.329 33.7963 23.103 33.9721C22.8627 34.1586 22.6259 34.1156 22.4143 33.9004C21.9802 33.4627 21.5426 33.0323 21.1086 32.5946C20.8467 32.3292 20.8467 32.0243 21.1014 31.7588C21.2592 31.5974 21.4135 31.436 21.5785 31.2817C21.808 31.0665 22.0807 30.8728 21.7327 30.4997C21.374 30.4997 20.9651 30.4997 20.5525 30.4997C20.2261 30.4997 20.036 30.3383 20.0288 30.0155C20.0145 29.3303 20.0145 28.6488 20.0288 27.9636C20.036 27.6193 20.2261 27.4614 20.6171 27.4507C20.94 27.4399 21.2628 27.4579 21.5856 27.4435C21.6753 27.4399 21.808 27.3718 21.8403 27.2964C21.8941 27.1745 21.9946 27.0382 21.8152 26.8911C21.5534 26.6723 21.3274 26.414 21.087 26.1701C20.8539 25.9333 20.8467 25.6786 21.087 25.4383C21.5462 24.972 22.0089 24.5092 22.4753 24.0501C22.651 23.8779 22.999 23.8779 23.1783 24.0501C23.3684 24.233 23.5657 24.4088 23.7343 24.6097C23.9532 24.8679 24.1756 24.9899 24.502 24.6922C24.502 24.3586 24.502 23.9712 24.502 23.5838C24.502 23.1856 24.6957 22.9883 25.0939 22.9883C25.7108 22.9847 26.3242 22.9847 26.9412 22.9883C27.3394 22.9883 27.4937 23.1533 27.4901 23.5586C27.4901 23.8815 27.4972 24.2043 27.4865 24.5272C27.4793 24.685 27.5224 24.7639 27.6802 24.8213C27.8416 24.8787 27.9636 24.911 28.0963 24.7711C28.3115 24.5451 28.5375 24.3299 28.7599 24.1075C28.9931 23.8779 29.3733 23.8528 29.6065 24.0788C30.0549 24.5128 30.4997 24.954 30.9337 25.406C31.1956 25.6786 31.1884 25.9333 30.9265 26.2167C30.7615 26.3961 30.5822 26.5611 30.41 26.7368C30.1876 26.9592 30.1434 27.2187 30.2773 27.5153L30.2701 27.5081ZM29.1868 25.0652C28.9142 25.345 28.6559 25.5961 28.4084 25.858C28.2075 26.0696 27.9923 26.0947 27.7376 25.9656C27.5044 25.8472 27.2677 25.7217 27.0202 25.6392C26.6076 25.5065 26.4928 25.3809 26.4928 24.9504C26.4928 24.6312 26.4928 24.3155 26.4928 24.0106H25.4956C25.4956 24.3801 25.4884 24.7316 25.4956 25.0832C25.5028 25.3701 25.327 25.5208 25.0974 25.6212C24.8212 25.7432 24.5271 25.8293 24.2581 25.9584C23.9854 26.0912 23.7702 26.0589 23.5622 25.8436C23.3218 25.5925 23.0743 25.3522 22.8591 25.1406C22.6187 25.3809 22.3892 25.6033 22.1488 25.8436C22.3641 26.0589 22.5936 26.2813 22.8232 26.5109C23.0887 26.7763 23.103 26.97 22.9344 27.3072C22.816 27.5404 22.712 27.7843 22.6295 28.0354C22.5255 28.3511 22.3533 28.5053 22.0376 28.5089C21.6897 28.5089 21.3417 28.5089 20.9758 28.5089C20.9758 28.7707 20.9866 29.0039 20.9758 29.2371C20.9651 29.438 21.0296 29.5205 21.2413 29.5097C21.5247 29.4953 21.808 29.5097 22.0914 29.5025C22.3712 29.4953 22.5362 29.6173 22.6259 29.8828C22.7228 30.159 22.8376 30.428 22.9595 30.6935C23.0922 30.9804 23.0635 31.1992 22.8447 31.4216C22.6438 31.6225 22.4322 31.8126 22.2493 32.0279C22.199 32.0853 22.1919 32.2467 22.2349 32.3041C22.3927 32.5121 22.5829 32.6951 22.7873 32.9139C22.9308 32.7596 23.0348 32.6449 23.1425 32.5337C23.2572 32.4153 23.3756 32.2969 23.494 32.1821C23.763 31.9274 23.9962 31.9023 24.3262 32.0637C24.5558 32.1749 24.7925 32.2754 25.0329 32.3615C25.449 32.5085 25.5136 32.5875 25.5171 33.0287C25.5171 33.3479 25.5171 33.6636 25.5171 33.9829H26.5215C26.5215 33.6277 26.5251 33.2905 26.5215 32.9498C26.5144 32.6341 26.6471 32.4332 26.9592 32.3364C27.2103 32.261 27.4506 32.1462 27.6874 32.0386C27.9743 31.9059 28.2541 31.9454 28.4729 32.1642C28.7061 32.3973 28.9393 32.6305 29.1617 32.8529C29.4056 32.6054 29.6316 32.3722 29.8576 32.1391C29.6172 31.8987 29.3626 31.644 29.1043 31.3894C28.9285 31.2136 28.9034 31.0163 29.0038 30.7867C29.133 30.4926 29.2442 30.1948 29.3626 29.8971C29.4666 29.6388 29.628 29.4774 29.9437 29.4989C30.2916 29.5205 30.6396 29.5025 30.9839 29.5025V28.5053C30.618 28.5053 30.2665 28.5053 29.915 28.5053C29.6675 28.5053 29.506 28.4013 29.4128 28.1609C29.2908 27.8417 29.1509 27.5332 29.011 27.2211C28.8998 26.97 28.9357 26.7655 29.1366 26.5682C29.3518 26.3602 29.5563 26.1378 29.75 25.9046C29.793 25.8544 29.8002 25.7145 29.7643 25.6679C29.5885 25.4634 29.3912 25.2769 29.1796 25.0617L29.1868 25.0652Z" fill="white" stroke="white" stroke-width="0.2"/>
<path d="M28.5488 12.9765C30.7728 12.9765 33.0004 12.9694 35.2244 12.9694C36.4835 12.9694 37.7426 12.9694 39.0339 12.9694V13.902C39.0196 13.92 39.0017 13.9379 38.9873 13.9558C38.8905 13.9594 38.7936 13.9666 38.6968 13.9666C35.4002 13.9666 32.1036 13.9666 28.807 13.9666H28.4985V13.0232C28.4985 13.0232 28.5308 12.9909 28.5488 12.9765Z" fill="white" stroke="white" stroke-width="0.2"/>
<path d="M23.494 13.0232V13.9487C23.4437 13.9559 23.3899 13.9702 23.3361 13.9702C19.9606 13.9702 16.5851 13.9702 13.2096 13.9702C13.163 13.9702 13.1128 13.9631 13.0662 13.9595C13.0518 13.9415 13.0339 13.9236 13.0195 13.9057V12.9838C13.0949 12.9802 13.163 12.973 13.2276 12.973C16.5851 12.973 19.9427 12.973 23.3003 12.973C23.3505 12.973 23.3971 12.9766 23.4473 12.9802C23.4653 12.9945 23.4796 13.0125 23.4976 13.0268L23.494 13.0232Z" fill="white" stroke="white" stroke-width="0.2"/>
<path d="M11.9937 13.9522H11.0288V13.0375H11.9937V13.9522Z" fill="white" stroke="white" stroke-width="0.2"/>
<path d="M41.0279 13.0447V13.9415H40.0522V13.0447H41.0279Z" fill="white" stroke="white" stroke-width="0.2"/>
<path d="M25.4385 11.9792C25.4385 11.9792 25.4708 12.0115 25.4887 12.0259C25.4708 12.0115 25.4564 11.9936 25.4385 11.9792Z" fill="white" stroke="white" stroke-width="0.2"/>
<path d="M13.0161 13.902C13.0305 13.9199 13.0484 13.9378 13.0627 13.9558" stroke="white" stroke-width="0.2"/>
<path d="M26.5034 12.0259C26.5034 12.0259 26.5357 11.9936 26.5536 11.9792C26.5357 11.9936 26.5214 12.0115 26.5034 12.0259Z" fill="white" stroke="white" stroke-width="0.2"/>
<path d="M38.9868 13.9558C39.0012 13.9378 39.0191 13.9199 39.0334 13.902" stroke="white" stroke-width="0.2"/>
<path d="M23.4941 13.0232C23.4941 13.0232 23.4618 12.9909 23.4438 12.9766C23.4618 12.9909 23.4761 13.0088 23.4941 13.0232Z" fill="white" stroke="white" stroke-width="0.2"/>
<path d="M28.5488 12.9766C28.5488 12.9766 28.5165 13.0088 28.4985 13.0232C28.5165 13.0088 28.5308 12.9909 28.5488 12.9766Z" fill="white" stroke="white" stroke-width="0.2"/>
<path d="M32.4762 38.9869C32.1641 38.9869 31.852 38.9869 31.54 38.9869C31.522 38.9726 31.5077 38.9546 31.4897 38.9403V38.0112H32.4762C32.4762 38.0112 32.5085 38.0435 32.5264 38.0615C32.5264 38.3556 32.5264 38.6462 32.5264 38.9403C32.5121 38.9546 32.4941 38.969 32.4798 38.9833L32.4762 38.9869Z" fill="white" stroke="white" stroke-width="0.2"/>
<path d="M17.5106 38.065C17.5106 38.3592 17.5106 38.6497 17.5106 38.9439C17.4963 38.9582 17.4783 38.9726 17.464 38.9869C17.1519 38.9869 16.8398 38.9869 16.5278 38.9869C16.5098 38.9726 16.4955 38.9546 16.4775 38.9403V38.0112H17.464C17.464 38.0112 17.4963 38.0435 17.5142 38.0615L17.5106 38.065Z" fill="white" stroke="white" stroke-width="0.2"/>
<path d="M22.504 38.011H23.4869V39.0011C23.2215 39.0011 22.9488 39.0154 22.6834 38.9903C22.6188 38.9867 22.522 38.8648 22.5148 38.7894C22.4933 38.5383 22.5076 38.2872 22.5076 38.0074L22.504 38.011Z" fill="white" stroke="white" stroke-width="0.2"/>
<path d="M38.499 39.0011C38.23 39.0011 37.9789 39.0155 37.7278 38.9904C37.6524 38.9832 37.5376 38.8684 37.5305 38.7931C37.5054 38.542 37.5197 38.2873 37.5197 38.0039H38.499V39.0011Z" fill="white" stroke="white" stroke-width="0.2"/>
<path d="M13.4786 38.0112H14.4687C14.4687 38.2839 14.4794 38.5636 14.4615 38.8399C14.4615 38.8937 14.3574 38.9475 14.3001 38.9977C14.2893 39.0085 14.2606 38.9977 14.2427 38.9977C13.3064 38.9618 13.4858 39.2237 13.4786 38.0112Z" fill="white" stroke="white" stroke-width="0.2"/>
<path d="M28.498 38.0112H29.4845C29.4845 38.2839 29.4952 38.5529 29.4773 38.8219C29.4737 38.8865 29.3697 38.9439 29.3087 39.0013C29.2979 39.012 29.2693 39.0013 29.2513 39.0013C28.3366 38.9654 28.4873 39.238 28.498 38.0112Z" fill="white" stroke="white" stroke-width="0.2"/>
<path d="M34.5891 38.0148H35.5182C35.5182 38.3269 35.5182 38.6353 35.5182 38.9438C35.5002 38.9582 35.4859 38.9725 35.468 38.9905C35.1738 38.9905 34.8833 38.9905 34.5891 38.9905L34.5425 38.9474C34.5425 38.6533 34.5425 38.3627 34.5425 38.0686L34.5927 38.0184L34.5891 38.0148Z" fill="white" stroke="white" stroke-width="0.2"/>
<path d="M26.4928 38.0183C26.4928 38.2838 26.4928 38.5241 26.4928 38.768C26.4928 38.8254 26.4605 38.933 26.4389 38.933C26.1448 38.9546 25.8507 38.9653 25.5565 38.9653C25.5386 38.9653 25.5027 38.8685 25.5027 38.8147C25.4955 38.5528 25.5027 38.2945 25.5027 38.0183H26.4999H26.4928Z" fill="white" stroke="white" stroke-width="0.2"/>
<path d="M19.5269 38.9403C19.5269 38.6462 19.5269 38.3556 19.5269 38.0615C19.5448 38.0435 19.5591 38.0292 19.5771 38.0112C19.8784 38.0112 20.1797 38.0112 20.5061 38.0112V38.9403C20.5061 38.9403 20.4739 38.969 20.4559 38.9869C20.1618 38.9869 19.8712 38.9869 19.5771 38.9869C19.5627 38.9726 19.5448 38.9582 19.5304 38.9439L19.5269 38.9403Z" fill="white" stroke="white" stroke-width="0.2"/>
<path d="M17.5107 38.065C17.5107 38.065 17.4784 38.0327 17.4604 38.0148C17.4784 38.0327 17.4927 38.0471 17.5107 38.065Z" fill="white" stroke="white" stroke-width="0.2"/>
<path d="M19.5732 38.0148C19.5732 38.0148 19.5409 38.0471 19.5229 38.065C19.5409 38.0471 19.5552 38.0327 19.5732 38.0148Z" fill="white" stroke="white" stroke-width="0.2"/>
<path d="M32.5229 38.065C32.5229 38.065 32.4906 38.0327 32.4727 38.0148C32.4906 38.0327 32.5049 38.0471 32.5229 38.065Z" fill="white" stroke="white" stroke-width="0.2"/>
<path d="M34.5893 38.0148L34.5391 38.065" stroke="white" stroke-width="0.2"/>
<path d="M16.4741 38.9402C16.4741 38.9402 16.5064 38.9725 16.5243 38.9868C16.5064 38.9725 16.4921 38.9545 16.4741 38.9402Z" fill="white" stroke="white" stroke-width="0.2"/>
<path d="M17.4604 38.9869C17.4604 38.9869 17.4927 38.9582 17.5071 38.9438C17.4927 38.9582 17.4748 38.9725 17.4604 38.9869Z" fill="white" stroke="white" stroke-width="0.2"/>
<path d="M19.5269 38.9402C19.5269 38.9402 19.5591 38.9689 19.5735 38.9832C19.5591 38.9689 19.5412 38.9545 19.5269 38.9402Z" fill="white" stroke="white" stroke-width="0.2"/>
<path d="M20.4521 38.9868C20.4521 38.9868 20.4844 38.9581 20.5024 38.9402C20.4844 38.9545 20.4701 38.9689 20.4521 38.9868Z" fill="white" stroke="white" stroke-width="0.2"/>
<path d="M31.4897 38.9402C31.4897 38.9402 31.522 38.9725 31.54 38.9868C31.522 38.9725 31.5077 38.9545 31.4897 38.9402Z" fill="white" stroke="white" stroke-width="0.2"/>
<path d="M32.4766 38.9869C32.4766 38.9869 32.5088 38.9582 32.5232 38.9438C32.5088 38.9582 32.4909 38.9725 32.4766 38.9869Z" fill="white" stroke="white" stroke-width="0.2"/>
<path d="M34.5425 38.9402L34.5891 38.9832" stroke="white" stroke-width="0.2"/>
<path d="M35.4678 38.9868C35.4678 38.9868 35.5001 38.9581 35.518 38.9402C35.5001 38.9545 35.4857 38.9689 35.4678 38.9868Z" fill="white" stroke="white" stroke-width="0.2"/>
<path d="M28.4871 29.0004C28.5696 30.324 27.3249 31.5186 25.9367 31.497C24.6812 31.4791 23.4723 30.3599 23.501 28.9287C23.5297 27.5978 24.6094 26.5719 25.8183 26.5002C27.3643 26.4069 28.5768 27.6875 28.4871 29.0004ZM25.9689 27.5046C25.1295 27.4508 24.509 28.2543 24.5018 28.9502C24.491 29.768 25.1654 30.4747 25.9259 30.4926C26.7868 30.5142 27.4684 29.8326 27.5042 29.0578C27.5401 28.2112 26.855 27.4687 25.9725 27.5082L25.9689 27.5046Z" fill="white" stroke="white" stroke-width="0.2"/>
</svg>
