<svg width="80" height="80" viewBox="0 0 80 80" fill="none" xmlns="http://www.w3.org/2000/svg">
<path d="M63.9928 39.1705C63.9909 38.9646 63.9174 38.7657 63.7847 38.6081C63.6521 38.4505 63.4687 38.3441 63.2661 38.3071L61.2588 37.9424C61.1494 37.3611 60.9955 36.7891 60.7983 36.2315L62.3509 34.8933C62.5073 34.7584 62.6116 34.5731 62.6456 34.3694C62.6797 34.1657 62.6413 33.9565 62.5373 33.7781L61.6531 32.2601C61.5494 32.0805 61.3861 31.9431 61.1915 31.8717C60.9969 31.8003 60.7834 31.7995 60.5883 31.8694L58.6658 32.5572C58.2805 32.1096 57.8615 31.692 57.4125 31.3082L58.0888 29.3707C58.1568 29.1756 58.1545 28.9629 58.0822 28.7694C58.01 28.5759 57.8723 28.4137 57.6931 28.3109L56.1679 27.4389C55.9886 27.3362 55.7791 27.2995 55.5756 27.3353C55.3721 27.371 55.1876 27.4769 55.0541 27.6346L53.7361 29.1894C53.1788 28.994 52.6073 28.8417 52.0266 28.734L51.6446 26.7195C51.6061 26.5171 51.4982 26.3346 51.3396 26.2033C51.1809 26.0719 50.9814 26.0001 50.7755 26H50.7719L49.015 26.0065C48.809 26.0082 48.61 26.0817 48.4524 26.2143C48.2948 26.347 48.1884 26.5305 48.1516 26.7331L47.7818 28.7404C47.2003 28.8499 46.628 29.0041 46.0702 29.2016L44.7327 27.649C44.5976 27.4927 44.4122 27.3885 44.2084 27.3544C44.0046 27.3204 43.7953 27.3587 43.6168 27.4627L42.098 28.3469C41.9194 28.4508 41.7828 28.614 41.712 28.8081C41.6411 29.0022 41.6405 29.215 41.7102 29.4095L42.3988 31.3312C41.9511 31.717 41.5333 32.1362 41.1491 32.5853L39.2108 31.909C39.016 31.8411 38.8035 31.8435 38.6102 31.9157C38.4169 31.988 38.255 32.1256 38.1525 32.3047L37.2812 33.8314C37.1786 34.0106 37.142 34.2202 37.1778 34.4236C37.2135 34.627 37.3193 34.8115 37.4769 34.9451L39.0317 36.2639C38.8362 36.8224 38.6839 37.3951 38.5763 37.9769L36.5618 38.3597C36.3589 38.3984 36.1759 38.5069 36.0446 38.6662C35.9132 38.8256 35.8416 39.0258 35.8423 39.2324L35.8495 40.9886C35.8502 41.1952 35.9233 41.3951 36.056 41.5535C36.1888 41.7118 36.3728 41.8187 36.5761 41.8555L38.5827 42.2203C38.692 42.8019 38.8462 43.3742 39.0439 43.9319L37.4935 45.2708C37.337 45.4058 37.2326 45.5912 37.1983 45.7949C37.164 45.9987 37.202 46.208 37.3057 46.3867L38.1899 47.9041C38.2941 48.0826 38.4575 48.219 38.6516 48.2898C38.8458 48.3606 39.0586 48.3613 39.2533 48.2919L41.1757 47.6033C41.5612 48.051 41.9802 48.4688 42.429 48.8531L41.7534 50.7906C41.6851 50.9855 41.6872 51.1983 41.7593 51.3919C41.8315 51.5854 41.9691 51.7477 42.1484 51.8503L43.6737 52.7223C43.853 52.8246 44.0625 52.8611 44.2658 52.8254C44.4692 52.7896 44.6537 52.684 44.7874 52.5266L46.1062 50.9719C46.6644 51.1675 47.2369 51.3197 47.8185 51.4273L48.202 53.4418C48.2403 53.6441 48.348 53.8266 48.5066 53.9579C48.6651 54.0893 48.8645 54.1612 49.0704 54.1613H49.074L50.8309 54.1541C51.0368 54.1527 51.2358 54.0794 51.3935 53.9468C51.5511 53.8143 51.6575 53.6308 51.6942 53.4281L52.059 51.4208C52.6405 51.3115 53.2128 51.1576 53.7706 50.9604L55.1081 52.5122C55.2431 52.6687 55.4285 52.773 55.6323 52.8072C55.8361 52.8414 56.0454 52.8032 56.224 52.6993L57.7413 51.8151C57.9199 51.7111 58.0564 51.5479 58.1272 51.3538C58.198 51.1597 58.1987 50.947 58.1291 50.7524L57.4406 48.83C57.8891 48.4436 58.3073 48.0234 58.6917 47.5731L60.6293 48.2494C60.8244 48.3174 61.0372 48.3149 61.2307 48.2425C61.4242 48.1701 61.5864 48.0323 61.689 47.853L62.561 46.3292C62.6638 46.1499 62.7004 45.9404 62.6647 45.7369C62.6289 45.5334 62.523 45.3489 62.3653 45.2154L60.8106 43.8959C61.0061 43.3375 61.1583 42.7648 61.266 42.1829L63.2805 41.8001C63.4835 41.7618 63.6667 41.6535 63.7982 41.494C63.9296 41.3346 64.001 41.1341 63.9999 40.9274L63.9928 39.1705ZM49.9208 49.9956C47.9594 49.9954 46.0421 49.4137 44.4113 48.3239C42.7806 47.2341 41.5096 45.6852 40.7591 43.8731C40.0086 42.061 39.8123 40.067 40.195 38.1433C40.5778 36.2196 41.5223 34.4526 42.9093 33.0658C44.2963 31.6789 46.0633 30.7345 47.987 30.3519C49.9107 29.9693 51.9047 30.1657 53.7168 30.9163C55.5288 31.667 57.0776 32.9381 58.1673 34.5689C59.257 36.1997 59.8386 38.1171 59.8386 40.0785C59.8386 41.3809 59.582 42.6705 59.0836 43.8737C58.5852 45.077 57.8546 46.1703 56.9337 47.0912C56.0127 48.0121 54.9194 48.7425 53.7161 49.2409C52.5128 49.7392 51.2232 49.9957 49.9208 49.9956Z" fill="#0033A1"/>
<path d="M19.9453 48.3264V50.3006C19.9453 50.6956 20.1022 51.0744 20.3815 51.3537C20.6608 51.633 21.0396 51.7899 21.4346 51.7899H25.4859C25.8809 51.7899 26.2597 51.633 26.539 51.3537C26.8183 51.0744 26.9752 50.6956 26.9752 50.3006V48.902C25.0139 48.8483 23.0582 48.7763 21.108 48.6861C20.6963 48.6663 20.2963 48.5426 19.9453 48.3264Z" fill="#0033A1"/>
<path d="M36.7838 47.5955H30.3748C30.2986 47.5955 30.2231 47.5804 30.1526 47.5513C30.0822 47.5221 30.0182 47.4793 29.9642 47.4254C29.9103 47.3715 29.8676 47.3075 29.8384 47.237C29.8092 47.1666 29.7942 47.0911 29.7942 47.0149V46.3673C29.7941 46.291 29.809 46.2155 29.8382 46.1449C29.8673 46.0744 29.9101 46.0103 29.964 45.9563C30.0179 45.9023 30.082 45.8595 30.1524 45.8303C30.2229 45.8011 30.2985 45.786 30.3748 45.786H36.1305C36.1496 45.5322 36.2186 45.2847 36.3334 45.0575C36.4482 44.8304 36.6066 44.6281 36.7996 44.4622L37.8198 43.583C37.7766 43.4334 37.7364 43.2837 37.6989 43.1326L36.3866 42.8967C35.94 42.815 35.5359 42.5798 35.2443 42.2318C34.9526 41.8838 34.7918 41.4448 34.7894 40.9908L34.7822 39.2346C34.7801 38.7802 34.9373 38.3395 35.2265 37.9891C35.5157 37.6386 35.9186 37.4006 36.3651 37.3165L37.6889 37.0647C37.7263 36.9136 37.7661 36.7635 37.8083 36.6143L36.7917 35.7509C36.6758 35.652 36.5719 35.5397 36.4823 35.4164C35.8108 35.4054 35.1309 35.3989 34.4426 35.397C29.774 35.3898 26.9933 35.6214 23.0449 35.9905C23.4492 35.2034 24.9026 32.4342 24.9026 32.4342C25.1179 32.0123 25.4263 31.6447 25.8045 31.3593C26.1826 31.0739 26.6206 30.8781 27.0854 30.7866C29.605 30.2839 32.167 30.0242 34.7362 30.0111H34.9333C36.9524 30.0117 38.9685 30.1647 40.9646 30.4686L40.7135 29.7672C40.5973 29.4446 40.5693 29.0969 40.6322 28.7599C38.7438 28.4989 36.8397 28.3679 34.9333 28.3678H34.7276C32.0528 28.3809 29.3854 28.6512 26.7624 29.175C26.0555 29.3162 25.3895 29.615 24.8141 30.0493C24.2388 30.4835 23.7688 31.042 23.4392 31.6831L21.239 35.9625C21.0375 35.6844 20.7784 35.453 20.4795 35.2839C20.1806 35.1148 19.8487 35.012 19.5066 34.9825L17.7691 34.8286C17.3397 34.7904 16.9128 34.9244 16.5823 35.201C16.2517 35.4776 16.0445 35.8742 16.0064 36.3035C15.9682 36.7328 16.1022 37.1597 16.3788 37.4903C16.6554 37.8209 17.052 38.028 17.4813 38.0662L20.098 38.2921C19.6759 39.3715 19.4593 40.5203 19.4591 41.6793V46.235C19.4589 46.6888 19.6335 47.1253 19.9466 47.4539C20.2596 47.7825 20.6872 47.978 21.1405 47.9998C25.5163 48.207 30.0849 48.3243 34.8304 48.3264H34.9312C35.6938 48.3264 36.4516 48.3233 37.2047 48.3171L36.7838 47.5955ZM27.9963 43.0657C27.9965 43.0681 27.9965 43.0705 27.9963 43.0729C27.9626 43.2244 27.8871 43.3633 27.7783 43.474C27.6696 43.5846 27.532 43.6626 27.3811 43.6989L27.3408 43.7068C26.6598 43.8366 25.9669 43.8937 25.2738 43.8773C24.9186 43.8683 24.5641 43.8404 24.2119 43.7938C23.5568 43.7065 22.9304 43.4702 22.3808 43.1031C22.2186 42.995 22.0856 42.8484 21.9937 42.6765C21.9018 42.5045 21.8539 42.3125 21.8542 42.1175V40.8339C21.8538 40.7013 21.8981 40.5724 21.98 40.468C22.0618 40.3635 22.1764 40.2897 22.3053 40.2584C22.3312 40.2526 22.3574 40.2483 22.3837 40.2454L23.4147 40.1397C23.8088 40.0989 24.2059 40.1811 24.5515 40.3749C24.7493 40.4864 24.9767 40.6131 25.2278 40.7505C25.9472 41.1462 26.235 41.2879 26.766 41.5915C27.0084 41.7297 27.3379 41.9218 27.7301 42.1671C27.8311 42.2296 27.9132 42.3184 27.9675 42.4239C28.0219 42.5295 28.0465 42.6479 28.0387 42.7664C28.0321 42.8671 28.0179 42.9672 27.9963 43.0657Z" fill="#0033A1"/>
<path d="M47.5161 34.6359C47.5165 34.4378 47.5954 34.248 47.7355 34.108C47.8757 33.968 48.0656 33.8893 48.2636 33.8891H51.5732C51.7713 33.8893 51.9612 33.968 52.1013 34.108C52.2414 34.248 52.3203 34.4378 52.3207 34.6359V37.4842H53.815V34.6359C53.8146 34.0419 53.5789 33.4723 53.1593 33.0518C52.7398 32.6313 52.1707 32.3943 51.5768 32.3926H48.2672C47.6729 32.3933 47.1031 32.6298 46.6829 33.05C46.2626 33.4703 46.0262 34.0401 46.0254 34.6344V37.4828H47.5197L47.5161 34.6359Z" fill="#0033A1"/>
<path d="M48.4924 38.3805L44.5894 42.2829V44.0132L50.222 38.3805H48.4924Z" fill="#0033A1"/>
<path d="M54.4284 38.441L46.6187 46.2508H48.3454L55.2292 39.367C55.1909 39.1551 55.0964 38.9573 54.9555 38.7945C54.8146 38.6316 54.6326 38.5095 54.4284 38.441Z" fill="#0033A1"/>
<path d="M51.4903 38.3805L44.6094 45.2622C44.6474 45.4746 44.742 45.6728 44.8832 45.836C45.0243 45.9992 45.2069 46.1213 45.4116 46.1896L53.2206 38.3805H51.4903Z" fill="#0033A1"/>
<path d="M49.6162 46.2507H51.3465L55.2518 42.3447V40.6151L49.6162 46.2507Z" fill="#0033A1"/>
<path d="M54.0561 46.2508C54.3729 46.2498 54.6765 46.1235 54.9005 45.8995C55.1246 45.6754 55.2509 45.3719 55.2518 45.055V43.6161L52.6143 46.2536L54.0561 46.2508Z" fill="#0033A1"/>
<path d="M45.7851 38.3805C45.4683 38.3814 45.1647 38.5077 44.9406 38.7318C44.7166 38.9558 44.5903 39.2594 44.5894 39.5762V41.0152L47.224 38.3805H45.7851Z" fill="#0033A1"/>
</svg>
