<svg width="52" height="52" viewBox="0 0 52 52" fill="none" xmlns="http://www.w3.org/2000/svg">
<path d="M26 52C40.3594 52 52 40.3594 52 26C52 11.6406 40.3594 0 26 0C11.6406 0 0 11.6406 0 26C0 40.3594 11.6406 52 26 52Z" fill="#0033A1"/>
<path d="M26.0105 32.9214C26.2147 31.7315 25.9434 30.5298 25.8647 29.3194C25.8501 29.1124 25.7772 28.9432 25.6109 28.8178C24.9985 28.3599 24.6893 27.7561 24.6835 26.9832C24.6835 26.6595 24.5872 26.3358 24.5551 26.0091C24.5143 25.5716 24.733 25.3704 25.1618 25.4287C25.6314 25.4929 26.098 25.5949 26.5705 25.6212C27.043 25.6474 27.3551 25.8954 27.6438 26.222C27.8217 26.4203 27.9909 26.6887 28.2184 26.7674C28.4896 26.8607 28.5246 26.4612 28.7229 26.3212C29.8838 25.5016 31.0154 24.6383 32.1791 23.8187C33.2933 23.0342 34.3432 23.2733 35.0578 24.4312C35.0636 24.4429 35.0695 24.4516 35.0753 24.4633C35.469 25.4608 36.2128 26.0587 37.1898 26.4641C37.8461 26.7353 38.441 27.1612 39.0739 27.4936C40.3252 28.1528 40.8793 29.2144 40.9931 30.5911C41.1331 32.2856 41.3226 33.9772 41.4976 35.6689C41.5589 36.2668 41.728 36.8297 42.043 37.3517C42.2822 37.7455 42.5243 38.1392 42.6993 38.5709C43.1076 39.5742 42.8947 40.3908 42.0401 41.0617C41.8593 41.2046 41.6697 41.3387 41.4685 41.4525C40.2172 42.1758 38.9631 42.8933 37.7061 43.6078C37.5165 43.7158 37.3152 43.8062 37.114 43.8878C36.029 44.3166 35.2124 44.0687 34.5474 43.1091C34.3053 42.7591 34.0691 42.4033 33.8649 42.0329C33.4333 41.2483 32.8237 40.6417 32.1149 40.105C30.4233 38.8159 28.7579 37.4917 27.0576 36.2143C26.3663 35.6951 26.0309 35.036 26.0105 34.196C25.9988 33.7818 26.0105 33.3706 26.0105 32.9244V32.9214ZM36.7582 27.3712C37.0965 27.9603 37.4377 28.5465 37.7702 29.1386C37.9219 29.4069 37.8577 29.6373 37.5894 29.789C37.3357 29.9319 37.1227 29.859 36.9623 29.6169C36.9157 29.5469 36.8748 29.4711 36.8311 29.3982C36.1865 28.284 35.5449 27.167 34.9003 26.0529C34.6641 25.6416 34.4366 25.2245 34.177 24.8279C33.8212 24.2825 33.3545 24.195 32.7974 24.5362C32.6837 24.6062 32.5758 24.685 32.4679 24.7637C31.5462 25.4375 30.6217 26.1112 29.7 26.7878C29.5833 26.8724 29.4638 26.9628 29.3617 27.0649C29.1721 27.2574 29.1254 27.4849 29.2509 27.7328C29.3792 27.9866 29.5892 28.112 29.8721 28.0828C30.0908 28.0595 30.295 27.9807 30.4962 27.8932C31.1525 27.6045 31.8058 27.3128 32.462 27.027C32.8703 26.8491 33.0512 26.9074 33.2728 27.2895C33.6345 27.9078 33.9903 28.532 34.3461 29.1532C34.9324 30.174 34.8303 31.1977 33.9874 32.0085C33.687 32.2973 33.7862 32.4139 34.0137 32.6356C35.0432 33.6506 36.0699 34.6743 37.0819 35.7097C37.9773 36.6255 37.7119 37.9292 36.5423 38.4251C35.8978 38.6992 35.3057 38.5592 34.7253 37.9788C32.9987 36.2493 31.2837 34.5051 29.5483 32.7873C29.0059 32.2506 28.513 31.714 28.3409 30.9323C28.2621 30.5677 28.055 30.2382 27.8276 29.9319C27.7196 29.7861 27.5942 29.6519 27.4659 29.5236C27.3084 29.369 27.0897 29.2815 26.8972 29.3719C26.7134 29.4594 26.8359 29.6782 26.8476 29.8357C26.9351 30.804 27.0751 31.7635 26.9817 32.7435C26.9322 33.2743 26.8972 33.811 26.9613 34.3447C27.0138 34.7735 27.1801 35.1235 27.5388 35.3947C28.9417 36.4651 30.3387 37.5384 31.7241 38.6263C32.5816 39.3 33.5237 39.8863 34.1682 40.7962C34.2732 40.945 34.3636 40.8779 34.4745 40.8167C36.5365 39.6267 38.5985 38.4338 40.6635 37.2497C40.821 37.1592 40.8502 37.0747 40.7889 36.9026C40.6606 36.5497 40.5789 36.1793 40.541 35.803C40.3689 34.0735 40.1998 32.3439 40.0306 30.6144C39.9577 29.859 39.806 29.1386 39.1264 28.669C38.3885 28.1586 37.5923 27.7416 36.7494 27.3741L36.7582 27.3712ZM25.8268 26.4933C25.5905 26.4174 25.5701 26.5312 25.5964 26.6916C25.6372 26.9424 25.6634 27.1962 25.7159 27.447C25.7743 27.7386 26.3722 28.3103 26.6143 28.2957C27.4805 28.252 28.0959 28.672 28.5771 29.3428C28.9563 29.8707 29.2071 30.4627 29.3996 31.0781C29.4638 31.2794 29.5629 31.4456 29.7146 31.5973C31.5725 33.4523 33.4245 35.313 35.2765 37.1738C35.3611 37.2584 35.4457 37.3488 35.539 37.4247C35.8482 37.6755 36.2128 37.6405 36.4753 37.3401C36.7844 36.9813 36.7494 36.6897 36.3294 36.2697C33.2845 33.2131 30.2279 30.1682 27.2005 27.0941C26.7863 26.6741 26.3518 26.4903 25.8268 26.4933ZM36.1574 43.1441C36.5453 43.1324 36.8923 42.9808 37.2219 42.797C38.1669 42.272 39.106 41.7325 40.0452 41.1987C40.5293 40.9217 41.0281 40.665 41.4626 40.3063C42.0255 39.8454 42.1072 39.4867 41.7951 38.8392C41.6843 38.6088 41.5443 38.3959 41.4335 38.1655C41.3489 37.9846 41.2526 37.9788 41.0981 38.0809C40.8851 38.2209 40.6577 38.3376 40.436 38.4659C38.6481 39.4984 36.8573 40.5308 35.0695 41.5691C34.9674 41.6304 34.737 41.6508 34.8799 41.8696C35.0986 42.205 35.2707 42.5725 35.5478 42.867C35.7111 43.042 35.9065 43.1587 36.1574 43.147V43.1441ZM30.3708 28.984C31.2283 29.8357 32.0654 30.664 32.8966 31.4952C32.9928 31.5915 33.0599 31.5944 33.1737 31.5156C33.8007 31.0898 33.9757 30.3898 33.6053 29.7278C33.3253 29.229 33.022 28.7449 32.7566 28.2403C32.6399 28.0186 32.5262 28.0245 32.3279 28.1149C31.7008 28.4036 31.065 28.6778 30.3708 28.984Z" fill="white" stroke="white" stroke-width="0.4"/>
<path d="M14.251 26.059C14.251 21.7775 14.251 17.4959 14.251 13.2143C14.251 12.141 14.8518 11.3535 15.8288 11.1319C16.0038 11.0911 16.1905 11.0881 16.3713 11.0881C21.2362 11.0881 26.104 11.0881 30.9689 11.0881C32.2697 11.0881 33.1038 11.9281 33.1067 13.2377C33.1067 16.2184 33.1067 19.1992 33.1067 22.1799C33.1067 22.3374 33.1301 22.4979 33.0367 22.6408C32.9259 22.8128 32.7684 22.8799 32.5672 22.8537C32.3601 22.8274 32.2347 22.702 32.188 22.5095C32.1589 22.3812 32.1618 22.2441 32.1618 22.1099C32.1618 20.0188 32.1559 17.9246 32.1676 15.8334C32.1676 15.533 32.0947 15.4484 31.7884 15.4484C26.3869 15.4572 20.9854 15.4601 15.5838 15.4484C15.2513 15.4484 15.1872 15.5476 15.1872 15.8568C15.1959 22.6087 15.1959 29.3606 15.1872 36.1096C15.1872 36.4654 15.3068 36.5208 15.6188 36.5179C18.795 36.5092 21.9683 36.5121 25.1444 36.5121C25.2903 36.5121 25.439 36.5092 25.579 36.5413C25.8211 36.5967 25.9582 36.76 25.9436 37.0138C25.929 37.2646 25.7861 37.4192 25.5353 37.4483C25.404 37.4658 25.2669 37.46 25.1357 37.46C21.9595 37.46 18.7863 37.4658 15.6101 37.4512C15.2718 37.4512 15.1638 37.5446 15.1901 37.8771C15.2193 38.2387 15.1901 38.6062 15.1988 38.9708C15.2193 39.6708 15.6276 40.0703 16.3276 40.0733C17.5438 40.0791 18.76 40.0733 19.9762 40.0733C23.2866 40.0733 26.594 40.0733 29.9043 40.0733C30.0152 40.0733 30.126 40.0645 30.2339 40.0791C30.5256 40.117 30.7122 40.2687 30.6947 40.5808C30.6772 40.8695 30.4935 41.0066 30.2106 41.0182C30.1493 41.0182 30.0881 41.0182 30.0268 41.0182C25.4769 41.0182 20.927 41.0182 16.3772 41.0182C15.3272 41.0182 14.5368 40.4233 14.3005 39.4754C14.2422 39.2362 14.251 38.9912 14.251 38.7491C14.251 34.5171 14.251 30.2823 14.251 26.0503V26.059ZM23.6803 14.5093C26.1011 14.5093 28.5189 14.5122 30.9397 14.5064C31.3364 14.5064 31.8584 14.6843 32.0947 14.4306C32.3251 14.1826 32.1472 13.6635 32.1589 13.2668C32.1647 13.0977 32.1676 12.9285 32.1093 12.7623C31.9372 12.2606 31.5697 12.0331 30.9018 12.0331C26.0865 12.0331 21.2712 12.0331 16.4559 12.0331C16.383 12.0331 16.3101 12.0331 16.2372 12.036C15.6363 12.0652 15.2338 12.4502 15.2047 13.0452C15.1872 13.4097 15.2163 13.7772 15.1901 14.1389C15.1668 14.451 15.2834 14.521 15.5809 14.521C18.2817 14.5093 20.9795 14.5151 23.6803 14.5151V14.5093Z" fill="white" stroke="white"/>
<path d="M22.7469 21.5537C22.6827 22.8866 22.324 24.1611 21.9827 25.4415C21.8573 25.9111 21.7465 26.3836 21.6386 26.8561C21.6153 26.9523 21.5307 27.0865 21.6678 27.1477C21.7815 27.2002 21.8661 27.0836 21.9448 27.0136C22.3473 26.6548 22.6681 26.229 22.9831 25.7944C23.0969 25.6369 23.199 25.4707 23.3244 25.3219C23.4994 25.1149 23.721 25.0944 23.9427 25.2403C24.1585 25.3803 24.2344 25.6136 24.1031 25.8119C23.5402 26.6636 22.9919 27.5356 22.0644 28.0548C21.7173 28.2502 21.3615 28.3173 20.9969 28.081C20.6265 27.8419 20.5565 27.4831 20.6207 27.0894C20.7694 26.1386 21.0757 25.2286 21.3119 24.2982C21.5044 23.5457 21.694 22.7903 21.7611 22.0145C21.7873 21.7199 21.8777 21.3349 21.5715 21.1833C21.2711 21.0375 21.0436 21.3583 20.8453 21.5595C19.7865 22.6358 18.9407 23.8607 18.3399 25.2461C18.2349 25.4911 18.1416 25.7448 18.0862 26.0044C17.9287 26.7307 18.1591 27.0456 18.8999 27.1623C19.2966 27.2265 19.4803 27.4073 19.4424 27.7077C19.4045 28.011 19.1945 28.1365 18.7832 28.1044C17.6487 28.0169 16.9283 27.0427 17.1441 25.8878C17.322 24.9515 17.7566 24.1261 18.2553 23.3299C18.792 22.4724 19.4103 21.6762 20.1132 20.947C20.4457 20.6029 20.8074 20.2996 21.2507 20.1129C21.8923 19.8417 22.3648 20.0429 22.6215 20.6904C22.7294 20.9675 22.7498 21.2562 22.744 21.5508L22.7469 21.5537Z" fill="white" stroke="white" stroke-width="0.4"/>
</svg>
