<svg width="54" height="54" viewBox="0 0 54 54" fill="none" xmlns="http://www.w3.org/2000/svg">
<path d="M27 53C41.3594 53 53 41.3594 53 27C53 12.6406 41.3594 1 27 1C12.6406 1 1 12.6406 1 27C1 41.3594 12.6406 53 27 53Z" fill="#0033A1" stroke="#0033A1" stroke-miterlimit="10"/>
<path d="M43.2614 26.6983C43.416 35.7091 36.2533 43.0905 27.3406 43.264C18.292 43.4413 10.9106 36.3088 10.7522 27.3508C10.59 18.2645 17.7828 10.8529 26.756 10.7511C35.7781 10.6492 43.0728 17.7742 43.2651 26.702L43.2614 26.6983ZM22.4108 26.4983C23.6706 26.4983 24.9304 26.4946 26.1902 26.5021C26.4127 26.5021 26.4995 26.4682 26.4995 26.2155C26.4882 23.8543 26.4919 21.4932 26.4995 19.132C26.4995 18.9321 26.4467 18.8642 26.2392 18.8567C24.2326 18.7963 22.2562 18.5285 20.3175 18.008C20.1327 17.959 20.0384 17.9929 19.9629 18.1853C18.9672 20.7652 18.4467 23.4394 18.3675 26.2041C18.3599 26.4455 18.4316 26.5059 18.6654 26.5021C19.9139 26.4908 21.1624 26.4983 22.4146 26.4983H22.4108ZM31.5725 26.4983C32.821 26.4983 34.0695 26.4908 35.3217 26.5021C35.5631 26.5021 35.6461 26.4531 35.6385 26.1928C35.5556 23.4394 35.0388 20.7765 34.0506 18.2042C33.9752 18.0043 33.8847 17.9514 33.6772 18.008C31.7498 18.5323 29.7809 18.7963 27.7857 18.8529C27.5669 18.8604 27.5028 18.9208 27.5065 19.1433C27.5141 21.5045 27.5141 23.8656 27.5065 26.2268C27.5065 26.4569 27.582 26.5021 27.7932 26.5021C29.053 26.4946 30.3128 26.4983 31.5725 26.4983ZM22.4523 27.5167C21.1925 27.5167 19.9328 27.5243 18.6768 27.5092C18.4278 27.5092 18.3562 27.5733 18.3637 27.826C18.4429 30.5757 18.9634 33.2386 19.9516 35.8072C20.0233 35.9995 20.1063 36.0674 20.3213 36.0108C22.2487 35.4903 24.2138 35.2225 26.209 35.1622C26.4542 35.1546 26.4995 35.0754 26.4995 34.8491C26.4919 32.4993 26.4919 30.1532 26.4995 27.8034C26.4995 27.562 26.4354 27.5054 26.2015 27.5092C24.953 27.5205 23.7046 27.513 22.4561 27.513L22.4523 27.5167ZM31.5801 27.5167C30.3203 27.5167 29.0605 27.5243 27.8045 27.513C27.5707 27.513 27.5028 27.5658 27.5028 27.8072C27.5141 30.157 27.5103 32.5031 27.5028 34.8529C27.5028 35.0792 27.548 35.1584 27.7932 35.1659C29.7885 35.2225 31.7536 35.4903 33.681 36.0108C33.862 36.0599 33.9601 36.041 34.0393 35.8411C35.0351 33.2499 35.5593 30.5681 35.6348 27.7958C35.6423 27.5695 35.5782 27.513 35.3557 27.513C34.0959 27.5243 32.8361 27.5167 31.5801 27.5167ZM39.433 26.4983C40.2779 26.4983 41.1265 26.4946 41.9714 26.5021C42.1751 26.5021 42.2467 26.4569 42.2241 26.2343C42.1713 25.7289 42.1411 25.2235 42.0619 24.7218C41.5791 21.6101 40.259 18.9095 38.1242 16.6011C37.9959 16.4654 37.8979 16.4616 37.7432 16.5332C36.9059 16.9406 36.0421 17.2838 35.1558 17.5667C34.9408 17.6346 34.9068 17.7138 34.9898 17.925C36.0308 20.5879 36.574 23.3564 36.6381 26.2155C36.6418 26.4682 36.7324 26.5059 36.9511 26.5021C37.7772 26.4908 38.6032 26.4983 39.4292 26.4983H39.433ZM14.5353 26.4983C15.3727 26.4983 16.2062 26.4908 17.0436 26.5021C17.2661 26.5021 17.3529 26.4682 17.3566 26.2155C17.417 23.3564 17.9601 20.5917 19.0049 17.925C19.0879 17.7101 19.0539 17.6308 18.8389 17.563C17.9601 17.2876 17.1077 16.9481 16.2817 16.5446C16.078 16.4465 15.9724 16.4918 15.829 16.6502C13.3434 19.3659 12.0007 22.5644 11.7706 26.2381C11.7555 26.4569 11.8234 26.5059 12.0271 26.5021C12.8644 26.4946 13.698 26.4983 14.5353 26.4983ZM11.7932 28.0636C12.0799 31.6242 13.4075 34.7284 15.829 37.3687C15.9912 37.546 16.1082 37.5535 16.3118 37.4554C17.1115 37.0669 17.9337 36.7312 18.7824 36.471C19.0577 36.388 19.0841 36.2824 18.986 36.0259C17.9526 33.3894 17.4245 30.6511 17.3604 27.826C17.3529 27.5469 17.2586 27.5054 17.0134 27.5092C15.4481 27.5205 13.879 27.513 12.3137 27.513C11.9491 27.513 11.7769 27.6965 11.797 28.0636H11.7932ZM42.2279 27.7204C42.2882 27.5205 42.1449 27.5092 41.9601 27.5092C40.2892 27.513 38.6145 27.5167 36.9436 27.5092C36.706 27.5092 36.6456 27.5695 36.6418 27.8072C36.5777 30.6436 36.0459 33.3932 35.0087 36.0372C34.8993 36.3126 34.9672 36.3956 35.2274 36.4748C36.0761 36.735 36.9021 37.0707 37.6979 37.4592C37.9129 37.5648 38.0261 37.5271 38.177 37.3574C40.6626 34.6379 41.9978 31.4356 42.2279 27.7204ZM27.5065 14.8209C27.5065 15.7412 27.5065 16.6615 27.5065 17.5818C27.5065 17.7478 27.5065 17.8572 27.7329 17.8496C29.6074 17.7779 31.4594 17.5365 33.2774 17.0726C33.4471 17.0311 33.5037 16.9859 33.4094 16.8048C32.7456 15.5299 31.946 14.3531 30.8672 13.3913C29.9997 12.6181 29.019 12.0637 27.8649 11.8411C27.6197 11.7959 27.4877 11.8034 27.499 12.1316C27.5254 13.0292 27.5065 13.9269 27.5065 14.8284V14.8209ZM26.4882 14.8284C26.4882 13.9194 26.4768 13.0104 26.4957 12.1014C26.5032 11.8223 26.3976 11.7921 26.1676 11.8336C25.3 11.992 24.5155 12.3428 23.8026 12.852C22.392 13.8628 21.4189 15.2282 20.6192 16.7407C20.4948 16.9708 20.54 17.0274 20.7739 17.0877C22.5655 17.5328 24.3835 17.7817 26.2241 17.8496C26.4353 17.8572 26.4919 17.8006 26.4919 17.5894C26.4806 16.669 26.4882 15.7487 26.4882 14.8284ZM27.5065 39.1942C27.5065 40.0806 27.5065 40.9707 27.5065 41.8571C27.5065 42.1111 27.6373 42.2142 27.8988 42.1664C28.7324 42.0042 29.4867 41.6648 30.1732 41.1744C31.5952 40.1598 32.5721 38.7831 33.383 37.2668C33.5188 37.0141 33.4207 36.9764 33.2133 36.9274C31.433 36.4861 29.6263 36.2409 27.7932 36.1692C27.5367 36.1579 27.5028 36.2485 27.5028 36.471C27.5141 37.38 27.5065 38.289 27.5065 39.198V39.1942ZM26.4882 39.1942C26.4882 38.2626 26.4882 37.3347 26.4882 36.4031C26.4882 36.2371 26.4655 36.1542 26.2656 36.1617C24.391 36.2296 22.5391 36.4748 20.7211 36.9425C20.5136 36.9953 20.5023 37.0556 20.5928 37.2329C21.234 38.4587 21.9997 39.594 23.0256 40.5332C23.8969 41.3328 24.8851 41.9212 26.0582 42.1551C26.4844 42.2418 26.4844 42.2418 26.4844 41.8269C26.4844 40.9481 26.4844 40.0731 26.4844 39.1942H26.4882ZM22.7088 41.6233C22.656 41.4724 22.5466 41.4196 22.4636 41.3442C22.0337 40.9481 21.6376 40.5219 21.268 40.0731C20.6192 39.2847 20.0761 38.4323 19.631 37.5158C19.582 37.4139 19.5744 37.2631 19.3708 37.331C18.5108 37.6176 17.6621 37.9307 16.8173 38.3418C18.5485 39.8807 20.491 40.9707 22.7088 41.627V41.6233ZM37.1774 38.3343C36.374 37.9458 35.5707 37.6553 34.7635 37.3687C34.5372 37.2857 34.4391 37.3347 34.3373 37.5497C33.6923 38.9 32.821 40.0881 31.7536 41.1329C31.6027 41.28 31.4481 41.4234 31.2934 41.5705C33.5112 40.9594 35.4575 39.8769 37.1812 38.3343H37.1774ZM31.267 12.3692C31.6329 12.7464 31.9573 13.0632 32.2628 13.3951C33.1152 14.3192 33.8092 15.3489 34.3599 16.4767C34.4089 16.5747 34.4089 16.7407 34.6126 16.6728C35.4764 16.3899 36.325 16.0693 37.1812 15.6657C35.4575 14.1268 33.515 13.0406 31.267 12.3692ZM16.821 15.662C17.6357 16.058 18.458 16.356 19.2802 16.6426C19.4688 16.7068 19.5518 16.669 19.6386 16.4918C20.0799 15.5488 20.6456 14.6851 21.3095 13.8817C21.7395 13.3612 22.2147 12.8859 22.6937 12.4107C20.4948 13.0368 18.5523 14.1231 16.8248 15.662H16.821Z" fill="white" stroke="white"/>
</svg>
