<svg width="52" height="52" viewBox="0 0 52 52" fill="none" xmlns="http://www.w3.org/2000/svg">
<path d="M26 52C40.3594 52 52 40.3594 52 26C52 11.6406 40.3594 0 26 0C11.6406 0 0 11.6406 0 26C0 40.3594 11.6406 52 26 52Z" fill="#0033A1"/>
<path d="M42.9966 25.3369C42.7491 25.9607 42.1592 26.1811 41.6372 26.4692C41.4032 26.5981 41.3253 26.7472 41.3253 27.0151C41.3354 29.0186 41.332 31.0188 41.332 33.0224C41.332 33.9107 40.9015 34.3378 40.0065 34.3378C36.1451 34.3378 32.2871 34.3378 28.4257 34.348C28.1782 34.348 27.9002 34.426 27.6832 34.5514C24.5677 36.3346 21.4589 38.1348 18.3501 39.9282C17.5127 40.4096 16.9703 40.2638 16.4821 39.4163C15.56 37.8195 14.6311 36.2228 13.7191 34.6192C13.6005 34.409 13.4682 34.3175 13.2275 34.3344C12.8851 34.3548 12.5427 34.348 12.2003 34.3344C11.485 34.3107 11.0477 33.8734 11.0409 33.158C11.0307 32.1952 11.0443 31.2324 11.0307 30.2696C11.0307 30.0933 10.9765 29.8967 10.8917 29.7408C10.2713 28.622 9.63396 27.51 9 26.3947C9 26.2184 9 26.0421 9 25.8624C9.2068 25.3369 9.65091 25.0522 10.1289 24.8657C10.8849 24.5674 11.0951 24.0724 11.0578 23.2723C10.9832 21.6925 11.0341 20.1093 11.0375 18.5295C11.0375 17.5768 11.4409 17.1734 12.3834 17.1734C15.9566 17.1734 19.5299 17.1734 23.1031 17.1666C23.3099 17.1666 23.5438 17.1056 23.7235 17.0039C27.0594 15.0884 30.3886 13.1662 33.7143 11.2406C34.0669 11.0372 34.4398 10.8982 34.8127 11.0948C35.0602 11.227 35.3043 11.4474 35.4467 11.6881C36.4705 13.4205 37.4706 15.163 38.4707 16.909C38.586 17.109 38.7047 17.1904 38.9352 17.1802C39.342 17.1598 39.7522 17.17 40.1624 17.1768C40.8574 17.187 41.332 17.648 41.3354 18.3464C41.3422 19.4313 41.3354 20.5161 41.3422 21.5976C41.3422 21.7637 41.3931 21.9468 41.4744 22.0925C41.9762 23.0011 42.4915 23.9029 43 24.8047V25.3369H42.9966ZM40.2506 33.253V18.2583H12.1156V33.253H40.2472H40.2506ZM34.4398 12.0509C31.4972 13.7493 28.5918 15.4275 25.6864 17.1056C25.9271 17.1768 26.1407 17.1564 26.3475 17.1802C26.7848 17.2243 27.1544 17.0853 27.5307 16.8649C28.9579 16.0207 30.3987 15.2003 31.8328 14.3731C32.226 14.146 32.4498 14.1968 32.7108 14.5562C33.2058 15.2444 33.9076 15.4309 34.6941 15.0783C35.0873 14.902 35.3009 14.9664 35.5247 15.3427C35.7993 15.8072 36.0671 16.2784 36.3383 16.7496C36.6095 17.2209 36.7757 17.2819 37.3622 17.1158C36.3892 15.4309 35.4196 13.7527 34.4364 12.0542L34.4398 12.0509ZM25.7542 34.426C25.1236 34.3582 24.527 34.27 23.9337 34.6429C22.6997 35.4159 21.4182 36.1143 20.1537 36.8398C19.774 37.0567 19.5468 37.0059 19.2993 36.6669C18.7806 35.9549 18.0992 35.7719 17.2924 36.1312C16.916 36.2973 16.6991 36.2363 16.4855 35.8803C16.2651 35.5108 16.0516 35.1345 15.838 34.7616C15.5634 34.287 15.4447 34.2395 14.8107 34.3955C15.7295 35.9854 16.6414 37.5619 17.5602 39.1519C20.3232 37.5551 23.0387 35.9888 25.7508 34.4226L25.7542 34.426ZM35.3484 17.1564C35.1891 16.8818 35.0467 16.6615 34.9314 16.4242C34.8433 16.2411 34.7314 16.2072 34.5381 16.2479C33.6669 16.4343 32.8939 16.2208 32.2396 15.6207C32.0938 15.4885 31.9921 15.4953 31.8396 15.5834C31.2226 15.9495 30.5988 16.3021 29.9784 16.6649C29.7275 16.8107 29.4766 16.9598 29.1478 17.1531H35.3484V17.1564ZM16.8821 34.3616C17.0991 34.965 17.1127 34.9752 17.6754 34.9074C17.7195 34.9006 17.7636 34.9006 17.8077 34.8972C18.6416 34.8396 19.3434 35.1311 19.9401 35.7414C20.7096 35.2972 21.469 34.8565 22.2318 34.4158C22.2217 34.3988 22.2115 34.3819 22.2013 34.3616H16.8788H16.8821ZM10.0408 26.137C10.3628 26.693 10.6646 27.2151 10.9663 27.7338C10.9832 27.7236 11.0002 27.71 11.0172 27.6999V25.5776C10.6781 25.7709 10.3798 25.9404 10.0408 26.137ZM41.4066 24.1165C41.3897 24.1266 41.3727 24.1334 41.3558 24.1436V25.4183C41.5727 25.2895 41.7558 25.181 41.9558 25.0623C41.7626 24.7301 41.5863 24.4216 41.4066 24.1131V24.1165Z" fill="white" stroke="white" stroke-width="0.3"/>
<path d="M26.2015 18.9498C29.7104 18.9498 33.2158 18.9498 36.7246 18.9498C37.3484 18.9498 37.4366 19.0278 37.5281 19.655C37.6298 20.3771 38.1282 20.8721 38.8537 20.9771C39.4741 21.0653 39.552 21.1568 39.552 21.784C39.552 24.4385 39.552 27.0964 39.552 29.7509C39.552 30.3544 39.4639 30.4493 38.8638 30.5273C38.1553 30.6154 37.6298 31.1341 37.5281 31.846C37.4332 32.4936 37.3383 32.5749 36.6704 32.5749C29.6663 32.5749 22.6622 32.5749 15.6547 32.5749C15.014 32.5749 14.9021 32.4766 14.8309 31.8562C14.7462 31.1443 14.1698 30.5951 13.4342 30.5239C12.946 30.4764 12.79 30.3171 12.79 29.8323C12.79 27.11 12.79 24.3877 12.79 21.6654C12.79 21.2111 12.9392 21.0517 13.3867 20.9941C14.2749 20.8788 14.7563 20.3873 14.8411 19.5092C14.8784 19.1024 15.0648 18.9532 15.5462 18.9532C19.0991 18.9532 22.652 18.9532 26.2015 18.9532V18.9498ZM15.8717 20.011C15.4581 21.1602 15.1293 21.4958 14.0173 21.9637C13.9427 21.9942 13.8613 22.1196 13.8613 22.201C13.8546 24.5707 13.8546 26.9371 13.8613 29.3068C13.8613 29.3882 13.9427 29.5204 14.0105 29.5407C14.9903 29.8492 15.5903 30.5137 15.8649 31.5104H16.265C19.4958 31.5104 22.7266 31.5104 25.9608 31.5104C29.368 31.5104 32.7785 31.5104 36.1856 31.5138C36.4026 31.5138 36.5043 31.4663 36.5789 31.2392C36.8467 30.4188 37.4061 29.873 38.2231 29.5882C38.3044 29.5611 38.3858 29.5305 38.4604 29.5034C38.4706 29.4661 38.4807 29.4458 38.4807 29.4255C38.4807 27.0252 38.4807 24.6216 38.4909 22.2213C38.4909 22.0349 38.4062 21.9874 38.2502 21.9332C37.4569 21.6721 36.8874 21.1534 36.6161 20.3601C36.5178 20.0754 36.3924 20.0042 36.1042 20.0042C29.4866 20.0143 22.869 20.011 16.248 20.011H15.8683H15.8717Z" fill="white" stroke="white" stroke-width="0.3"/>
<path d="M31.1244 25.7573C31.1244 28.5 28.9004 30.7171 26.1612 30.7103C23.449 30.7036 21.2251 28.4694 21.2251 25.7539C21.2251 23.018 23.4524 20.8043 26.1985 20.8111C28.9276 20.8178 31.1278 23.0248 31.1278 25.7573H31.1244ZM30.0633 25.781C30.0768 23.6351 28.3546 21.8857 26.212 21.8722C24.0661 21.8586 22.3066 23.5842 22.2862 25.7132C22.2659 27.8558 24.0254 29.6391 26.1612 29.6458C28.3004 29.6526 30.0497 27.9168 30.0599 25.7776L30.0633 25.781Z" fill="white" stroke="white" stroke-width="0.3"/>
<path d="M19.3601 25.7539C19.3601 26.6455 18.6515 27.3507 17.7565 27.3473C16.8819 27.3439 16.1733 26.6421 16.1666 25.7708C16.1598 24.8894 16.8785 24.1605 17.7565 24.1537C18.6346 24.147 19.3567 24.8725 19.3601 25.7573V25.7539ZM17.7599 26.2794C18.0583 26.2828 18.2888 26.0624 18.2956 25.7675C18.3024 25.4623 18.0549 25.2115 17.7565 25.2149C17.4752 25.2216 17.2311 25.4691 17.2311 25.7539C17.2311 26.0454 17.465 26.276 17.7599 26.2794Z" fill="white" stroke="white" stroke-width="0.3"/>
<path d="M34.5722 27.3472C33.6874 27.3404 32.9687 26.6048 32.9856 25.7301C33.006 24.8588 33.7213 24.1537 34.5858 24.1537C35.4639 24.1537 36.186 24.8792 36.1826 25.7606C36.1792 26.6489 35.4639 27.354 34.5722 27.3472ZM34.5892 25.2182C34.3078 25.2182 34.0603 25.4623 34.0535 25.7471C34.0468 26.0488 34.2976 26.2929 34.6028 26.2861C34.8977 26.2793 35.1215 26.0454 35.1181 25.7505C35.1147 25.4589 34.874 25.2216 34.5892 25.2216V25.2182Z" fill="white" stroke="white" stroke-width="0.3"/>
<path d="M28.0629 24.2758C28.0561 24.6114 27.9239 24.7945 27.673 24.8589C27.3916 24.9301 27.1882 24.8081 27.0424 24.5538C26.761 24.0724 26.3305 23.9029 25.8389 24.0792C25.5982 24.1639 25.4016 24.2995 25.388 24.5911C25.3711 24.8996 25.5846 25.025 25.8253 25.0962C26.2152 25.2149 26.622 25.2793 27.0085 25.4115C27.6357 25.6285 28.0696 26.0455 28.1747 26.7303C28.2934 27.4965 27.8493 28.1474 27.0051 28.422C26.8187 28.483 26.717 28.5474 26.6898 28.7644C26.6559 29.0492 26.4525 29.2119 26.1542 29.1949C25.8593 29.1814 25.7101 29.0051 25.6457 28.7169C25.6219 28.6084 25.5135 28.4762 25.4151 28.4356C24.849 28.2118 24.432 27.8491 24.2252 27.2659C24.0964 26.8998 24.215 26.6116 24.5235 26.4964C24.8117 26.3913 25.066 26.5337 25.2151 26.8829C25.4762 27.5033 26.5068 27.7067 26.995 27.2354C27.2085 27.032 27.178 26.6998 26.8865 26.5371C26.6492 26.4048 26.3746 26.3438 26.1135 26.2625C25.8491 26.1811 25.5711 26.137 25.3202 26.0285C24.7134 25.7675 24.3337 25.3268 24.3269 24.6352C24.3201 23.9266 24.6795 23.4418 25.2999 23.1503C25.5101 23.052 25.666 22.9842 25.6796 22.7028C25.6931 22.4451 25.9169 22.3027 26.1745 22.3027C26.4491 22.3027 26.6627 22.4553 26.6831 22.7299C26.7034 22.9808 26.8322 23.052 27.0289 23.1333C27.5713 23.3605 27.9137 23.7673 28.0629 24.269V24.2758Z" fill="white" stroke="white" stroke-width="0.3"/>
</svg>
