<svg width="52" height="52" viewBox="0 0 52 52" fill="none" xmlns="http://www.w3.org/2000/svg">
<path d="M26 52C40.3594 52 52 40.3594 52 26C52 11.6406 40.3594 0 26 0C11.6406 0 0 11.6406 0 26C0 40.3594 11.6406 52 26 52Z" fill="#0033A1"/>
<path d="M28.5446 25.4557C28.5446 22.7717 28.5446 20.0894 28.5446 17.4054C28.5446 16.7747 28.6912 16.6297 29.3203 16.628C30.3974 16.628 31.4762 16.628 32.5534 16.628C32.6691 16.628 32.8125 16.6639 32.8696 16.5189C32.9201 16.3901 32.8011 16.3217 32.7278 16.2467C30.5588 14.0614 28.3865 11.8793 26.2207 9.68912C26.0317 9.49845 25.9192 9.52127 25.7432 9.69889C23.5856 11.881 21.4199 14.0549 19.259 16.232C19.1791 16.3119 19.039 16.3836 19.1058 16.5286C19.1693 16.6655 19.3127 16.6264 19.4301 16.6264C20.5187 16.628 21.6073 16.6264 22.6958 16.628C23.2597 16.628 23.4259 16.7926 23.4259 17.3516C23.4259 18.9128 23.4259 20.4756 23.4275 22.0368C23.4275 22.2926 23.3901 22.5208 23.1326 22.6479C22.7871 22.819 22.4107 22.599 22.3748 22.1883C22.352 21.9374 22.3667 21.6831 22.3667 21.4305C22.3667 20.2865 22.3601 19.1426 22.3716 18.0002C22.3748 17.759 22.3145 17.6808 22.0636 17.684C21.151 17.6987 20.2384 17.6971 19.3258 17.6873C18.4148 17.6775 17.8347 16.9507 18.0677 16.1343C18.1296 15.9175 18.2551 15.7399 18.4116 15.5802C20.6442 13.333 22.8735 11.0841 25.1093 8.84008C25.621 8.32675 26.3364 8.31697 26.8465 8.82868C29.0921 11.0776 31.3296 13.3346 33.5671 15.5916C33.9419 15.9697 34.0592 16.4211 33.8571 16.923C33.6485 17.4396 33.233 17.6775 32.6919 17.6857C31.7794 17.6971 30.8668 17.7036 29.9542 17.6808C29.6527 17.6743 29.5957 17.7672 29.5957 18.0491C29.6038 23.184 29.6022 28.3206 29.6006 33.4555C29.6006 33.6087 29.6168 33.7635 29.5647 33.9134C29.4718 34.1791 29.2828 34.3013 29.0074 34.2752C28.745 34.2491 28.5886 34.0927 28.5511 33.8336C28.5348 33.7146 28.5397 33.5924 28.5397 33.4718C28.5397 30.7992 28.5397 28.1267 28.5397 25.4541L28.5446 25.4557Z" fill="white" stroke="white"/>
<path d="M18.136 25.2144C18.1328 25.0644 18.0317 25.0204 17.9665 24.9536C16.8063 23.7803 15.6411 22.6135 14.4873 21.4353C14.3162 21.2609 14.2282 21.2544 14.0522 21.4353C12.8919 22.6233 11.7169 23.7966 10.5485 24.9764C10.4915 25.0351 10.4002 25.0758 10.4035 25.216C10.9934 25.216 11.5833 25.216 12.1716 25.216C12.6963 25.216 12.8707 25.3838 12.8723 25.8988C12.8756 26.8 12.8756 27.7028 12.8723 28.604C12.8723 29.0342 12.6898 29.2607 12.3558 29.2656C12.0086 29.2705 11.8163 29.0342 11.8147 28.5877C11.8115 27.9163 11.8017 27.2449 11.8196 26.5751C11.8261 26.3209 11.7446 26.2573 11.5035 26.2671C11.0651 26.285 10.6235 26.2671 10.1835 26.2736C9.72229 26.2785 9.36051 26.109 9.17799 25.6723C9.00036 25.2453 9.14051 24.8836 9.45666 24.5658C10.8076 23.2116 12.1537 21.8508 13.5046 20.495C14.0098 19.9882 14.5248 19.9865 15.0316 20.495C16.3842 21.8492 17.7302 23.2083 19.0812 24.5641C19.3957 24.8803 19.5342 25.247 19.3582 25.6723C19.1774 26.1107 18.8139 26.2801 18.3544 26.2736C17.9372 26.2687 17.5168 26.2915 17.1012 26.2671C16.8046 26.2492 16.7134 26.3339 16.715 26.6419C16.7297 28.6431 16.7215 30.6443 16.7215 32.6471C16.7215 33.6705 16.7215 34.6922 16.7215 35.7156C16.7215 35.8362 16.7215 35.9601 16.6971 36.0758C16.6417 36.3512 16.4494 36.4995 16.1805 36.493C15.9132 36.4881 15.7258 36.3382 15.6786 36.0595C15.6606 35.9519 15.6606 35.8411 15.6606 35.7303C15.6606 32.4857 15.6606 29.2412 15.6606 25.9982C15.6606 25.3627 15.8057 25.216 16.4314 25.216C16.9985 25.216 17.5657 25.216 18.1377 25.216L18.136 25.2144Z" fill="white" stroke="white"/>
<path d="M41.6367 25.104C40.9898 24.4799 40.3379 23.859 39.6975 23.2283C39.0864 22.627 38.485 22.0143 37.8853 21.4015C37.7696 21.2826 37.6947 21.2272 37.548 21.3771C36.3307 22.6156 35.1036 23.846 33.8813 25.0812C33.8602 25.1024 33.8471 25.1334 33.7982 25.2132C34.2122 25.2132 34.5886 25.2132 34.965 25.2132C35.229 25.2132 35.493 25.2067 35.757 25.2165C36.0927 25.2279 36.2785 25.4104 36.3095 25.7477C36.3193 25.8455 36.316 25.9449 36.316 26.0443C36.316 29.2433 36.316 32.4439 36.316 35.6428C36.316 36.2327 36.1465 36.5 35.7766 36.4918C35.4164 36.4837 35.2535 36.2246 35.2535 35.6558C35.2535 32.6541 35.2502 29.6523 35.2584 26.6505C35.2584 26.3637 35.2046 26.2415 34.8852 26.2627C34.4468 26.2937 34.0068 26.2725 33.5668 26.2692C33.1317 26.2676 32.796 26.0883 32.6216 25.6793C32.4473 25.2686 32.5565 24.9052 32.8645 24.5956C34.2431 23.2072 35.6218 21.8171 37.0053 20.4335C37.4258 20.0147 37.9701 20.0001 38.3872 20.4156C39.7985 21.8187 41.2 23.2332 42.5966 24.6494C42.8834 24.9394 42.9567 25.3029 42.7905 25.6858C42.6259 26.0655 42.3146 26.2562 41.9056 26.266C41.4118 26.2774 40.9164 26.2774 40.421 26.266C40.2206 26.2611 40.1538 26.3197 40.157 26.5251C40.1684 27.1948 40.1619 27.8662 40.1603 28.5377C40.1603 28.6468 40.157 28.7593 40.1309 28.8636C40.0576 29.1504 39.8588 29.2856 39.5687 29.2563C39.2917 29.2286 39.1141 29.0591 39.1124 28.7821C39.101 27.7603 39.0994 26.7369 39.1124 25.7151C39.1173 25.3909 39.3341 25.2197 39.6877 25.2165C40.3118 25.21 40.9376 25.2149 41.5618 25.2149C41.5878 25.1774 41.6123 25.1415 41.6383 25.104H41.6367Z" fill="white" stroke="white"/>
<path d="M23.4357 33.3753C23.4357 36.0691 23.4357 38.7629 23.4357 41.4566C23.4357 42.0058 23.2776 42.2454 22.9159 42.2486C22.5492 42.2519 22.3765 42.0042 22.3765 41.468C22.3765 36.0479 22.3765 30.6262 22.3765 25.206C22.3765 25.0969 22.3716 24.9844 22.3928 24.8785C22.4498 24.5949 22.6258 24.4336 22.9191 24.4303C23.1962 24.4271 23.4015 24.6324 23.4276 24.9306C23.439 25.0512 23.4341 25.1718 23.4341 25.2924C23.4341 27.9862 23.4341 30.6799 23.4341 33.3737L23.4357 33.3753Z" fill="white" stroke="white"/>
<path d="M12.8774 36.1734C12.8774 37.6237 12.8774 39.0741 12.8774 40.5228C12.8774 40.6434 12.8806 40.7656 12.8627 40.8846C12.8236 41.1453 12.659 41.2985 12.4015 41.3213C12.1277 41.3458 11.9322 41.2154 11.8556 40.9482C11.8197 40.8243 11.8197 40.6874 11.8181 40.5571C11.8165 37.6351 11.8165 34.7132 11.8181 31.7913C11.8181 31.6609 11.8181 31.5241 11.854 31.4002C11.9289 31.1313 12.1229 31.0042 12.3983 31.027C12.659 31.0498 12.8203 31.2014 12.8611 31.4605C12.8806 31.5795 12.8757 31.7017 12.8757 31.8223C12.8757 33.2726 12.8757 34.723 12.8757 36.1717L12.8774 36.1734Z" fill="white" stroke="white"/>
<path d="M39.096 36.1701C39.096 34.6969 39.096 33.2238 39.096 31.749C39.096 31.5958 39.0781 31.4377 39.1596 31.2975C39.2753 31.0971 39.4497 31.0026 39.6827 31.0287C39.9011 31.0531 40.0559 31.1721 40.1113 31.3823C40.1471 31.5175 40.1537 31.6642 40.1537 31.806C40.1553 34.7198 40.1553 37.6335 40.1537 40.5473C40.1537 40.6239 40.1569 40.7021 40.1504 40.7787C40.1194 41.1144 39.9027 41.3328 39.6077 41.3262C39.3128 41.3197 39.0993 41.0997 39.0977 40.7559C39.0895 39.7439 39.0944 38.7319 39.0928 37.7215C39.0928 37.2049 39.0928 36.6883 39.0928 36.1717L39.096 36.1701Z" fill="white" stroke="white"/>
</svg>
