<svg width="80" height="80" viewBox="0 0 80 80" fill="none" xmlns="http://www.w3.org/2000/svg">
<path d="M55.1775 37.254L43.8621 25.9394C42.6207 24.6978 40.937 24.0002 39.1813 24H25.1252C24.8265 24.0004 24.5402 24.1194 24.3292 24.3308C24.1182 24.5423 23.9998 24.8288 24 25.1275V55.3528C24 55.5007 24.0291 55.6473 24.0858 55.784C24.1424 55.9207 24.2254 56.0449 24.33 56.1495C24.4346 56.2541 24.5589 56.3371 24.6956 56.3938C24.8323 56.4504 24.9788 56.4795 25.1268 56.4795H48.6332C49.4055 56.4795 50.1566 56.2264 50.7715 55.759C51.3863 55.2916 51.8311 54.6356 52.0377 53.8914L55.8976 39.9909C56.0307 39.5118 56.0341 39.006 55.9076 38.5251C55.7811 38.0442 55.5291 37.6056 55.1775 37.254ZM34.2084 42.5692C34.2084 42.868 34.0897 43.1546 33.8784 43.3659C33.667 43.5772 33.3804 43.6959 33.0816 43.6959H29.2355C29.0875 43.696 28.9409 43.6669 28.8041 43.6104C28.6674 43.5538 28.5431 43.4708 28.4385 43.3661C28.3338 43.2615 28.2508 43.1372 28.1943 43.0005C28.1377 42.8637 28.1086 42.7172 28.1087 42.5692C28.1087 42.4212 28.1378 42.2747 28.1945 42.138C28.2511 42.0013 28.3341 41.8771 28.4387 41.7724C28.5433 41.6678 28.6676 41.5848 28.8043 41.5282C28.941 41.4715 29.0875 41.4424 29.2355 41.4424H33.0801C33.3789 41.4424 33.6655 41.5611 33.8768 41.7724C34.0881 41.9837 34.2069 42.2703 34.2069 42.5692H34.2084ZM47.5565 38.1683H29.2355C29.0875 38.1684 28.9409 38.1394 28.8041 38.0828C28.6674 38.0262 28.5431 37.9432 28.4385 37.8385C28.3338 37.7339 28.2508 37.6096 28.1943 37.4729C28.1377 37.3361 28.1086 37.1896 28.1087 37.0416V29.2392C28.1086 29.0912 28.1377 28.9446 28.1942 28.8078C28.2508 28.671 28.3338 28.5467 28.4384 28.442C28.5431 28.3373 28.6673 28.2542 28.8041 28.1976C28.9408 28.1409 29.0874 28.1117 29.2355 28.1117H37.4779C39.2336 28.1119 40.9173 28.8095 42.1587 30.0511L48.3562 36.2449C48.514 36.4026 48.6213 36.6037 48.6647 36.8225C48.7081 37.0414 48.6855 37.2682 48.5999 37.4742C48.5142 37.6802 48.3693 37.8561 48.1836 37.9797C47.9978 38.1033 47.7796 38.1689 47.5565 38.1683Z" fill="#0033A1"/>
</svg>
