<svg width="80" height="80" viewBox="0 0 80 80" fill="none" xmlns="http://www.w3.org/2000/svg">
<path d="M39.9969 59.1934C36.3073 59.193 32.7001 58.1022 29.6285 56.0582C26.5568 54.0142 24.1577 51.108 22.7324 47.7048C21.3072 44.3016 20.9193 40.5532 21.6177 36.9303C22.316 33.3074 24.0694 29.9716 26.6575 27.342C29.2456 24.7124 32.553 22.9063 36.1644 22.1504C39.7757 21.3946 43.5299 21.7228 46.9553 23.0938C50.3807 24.4647 53.3246 26.8174 55.4172 29.8562C57.5098 32.8949 58.6578 36.4843 58.7169 40.1734C58.7649 42.6591 58.3157 45.1293 57.3957 47.4389C56.4756 49.7485 55.1034 51.851 53.3595 53.6228C51.6155 55.3947 49.5351 56.8002 47.2404 57.7568C44.9457 58.7135 42.483 59.2019 39.9969 59.1934ZM39.9969 27.1934C37.3917 27.2093 34.8493 27.9947 32.6889 29.4508C30.5285 30.9068 28.8466 32.9688 27.8542 35.3777C26.8619 37.7865 26.6034 40.4349 27.1112 42.9902C27.6191 45.5455 28.8706 47.8937 30.7087 49.7401C32.5467 51.5864 34.8893 52.8485 37.4423 53.3678C39.9953 53.8872 42.6448 53.6406 45.0581 52.6591C47.4714 51.6776 49.5409 50.005 51.0067 47.8512C52.4725 45.6974 53.2693 43.1585 53.2969 40.5534C53.3129 38.8041 52.9804 37.0691 52.319 35.4495C51.6575 33.83 50.6802 32.3583 49.4441 31.1204C48.208 29.8824 46.7379 28.9029 45.1193 28.239C43.5008 27.5751 41.7663 27.2401 40.0169 27.2534L39.9969 27.1934Z" fill="#0033A1"/>
<path d="M28.897 40.4535C28.9009 38.2559 29.556 36.1087 30.7794 34.2831C32.0028 32.4575 33.7397 31.0353 35.7708 30.1962C37.8019 29.357 40.0361 29.1385 42.1913 29.5682C44.3465 29.9979 46.326 31.0565 47.88 32.6105C49.434 34.1644 50.4926 36.144 50.9223 38.2992C51.352 40.4544 51.1335 42.6886 50.2943 44.7197C49.4552 46.7508 48.033 48.4877 46.2074 49.7111C44.3818 50.9345 42.2346 51.5895 40.037 51.5935C38.5733 51.5961 37.1235 51.3098 35.7708 50.7509C34.418 50.192 33.1889 49.3715 32.1539 48.3365C31.119 47.3016 30.2985 46.0725 29.7396 44.7197C29.1807 43.367 28.8944 41.9172 28.897 40.4535ZM34.897 43.9735C33.938 43.9702 33.0144 44.3353 32.317 44.9935C32.2628 45.0366 32.2191 45.0913 32.189 45.1537C32.159 45.216 32.1433 45.2843 32.1433 45.3535C32.1433 45.4227 32.159 45.491 32.189 45.5533C32.2191 45.6157 32.2628 45.6704 32.317 45.7135C33.5792 47.5409 35.4394 48.8706 37.577 49.4735C37.957 49.5935 38.097 49.4735 38.257 49.1535C38.5058 48.5963 38.6121 47.9859 38.5663 47.3774C38.5206 46.7689 38.3242 46.1813 37.9949 45.6675C37.6656 45.1538 37.2138 44.7299 36.68 44.4342C36.1462 44.1385 35.5472 43.9802 34.937 43.9735H34.897ZM32.897 34.4335C31.3397 36.2742 30.5581 38.6477 30.717 41.0535C30.717 41.4135 30.977 41.4335 31.237 41.4535C32.1133 41.5388 32.9908 41.3036 33.7069 40.7915C34.4231 40.2794 34.9294 39.5251 35.132 38.6683C35.3346 37.8115 35.2198 36.9103 34.8088 36.1317C34.3979 35.353 33.7187 34.7497 32.897 34.4335ZM40.017 35.3335C40.8641 35.3306 41.6839 35.034 42.3368 34.4942C42.9896 33.9545 43.435 33.2049 43.597 32.3735C43.597 32.0135 43.597 31.8535 43.237 31.7135C41.146 30.9667 38.8586 30.9809 36.777 31.7535C36.709 31.7639 36.6442 31.7893 36.5873 31.8281C36.5305 31.8668 36.483 31.9178 36.4485 31.9773C36.4139 32.0368 36.3932 32.1032 36.3877 32.1718C36.3823 32.2404 36.3923 32.3093 36.417 32.3735C36.5832 33.2066 37.0325 33.9565 37.6887 34.496C38.3449 35.0356 39.1675 35.3315 40.017 35.3335ZM49.297 40.1535C49.2268 38.1734 48.5261 36.2675 47.297 34.7135C47.2587 34.6463 47.2065 34.588 47.1438 34.5427C47.0811 34.4974 47.0094 34.4661 46.9335 34.451C46.8576 34.4358 46.7794 34.4371 46.7041 34.4548C46.6288 34.4725 46.5582 34.5061 46.497 34.5535C45.8227 34.9267 45.2843 35.5043 44.9593 36.2031C44.6343 36.9019 44.5395 37.6858 44.6885 38.4419C44.8375 39.198 45.2227 39.8873 45.7885 40.4106C46.3543 40.9338 47.0716 41.264 47.837 41.3535C49.297 41.5135 49.297 41.3935 49.297 40.1535ZM47.997 45.2735C47.4346 44.5955 46.6455 44.1444 45.7758 44.0039C44.9062 43.8634 44.0151 44.043 43.2679 44.5094C42.5206 44.9759 41.9678 45.6975 41.7121 46.5404C41.4563 47.3834 41.5149 48.2905 41.877 49.0935C42.017 49.3935 42.117 49.5935 42.537 49.4735C44.8267 48.8121 46.7832 47.3126 48.017 45.2735H47.997ZM42.337 40.5535C42.3582 39.9382 42.1341 39.3397 41.714 38.8896C41.294 38.4395 40.7123 38.1747 40.097 38.1535C39.4817 38.1323 38.8832 38.3564 38.4331 38.7764C37.983 39.1965 37.7182 39.7782 37.697 40.3935C37.6758 41.0088 37.8999 41.6073 38.3199 42.0574C38.74 42.5075 39.3217 42.7723 39.937 42.7935C40.5523 42.8147 41.1508 42.5906 41.6009 42.1706C42.051 41.7505 42.3158 41.1688 42.337 40.5535Z" fill="#0033A1"/>
</svg>
