<svg width="52" height="52" viewBox="0 0 52 52" fill="none" xmlns="http://www.w3.org/2000/svg">
<path d="M26 52C40.3594 52 52 40.3594 52 26C52 11.6406 40.3594 0 26 0C11.6406 0 0 11.6406 0 26C0 40.3594 11.6406 52 26 52Z" fill="#0033A1"/>
<path d="M15.7078 36.487C15.0792 35.7379 14.7796 34.9268 14.747 33.9888C14.1737 33.9888 13.6135 33.9888 13.0533 33.9888C11.783 33.9888 11.0078 33.2169 11.0078 31.9499C11.0078 26.6506 11.0078 21.3513 11.0078 16.052C11.0078 14.7622 11.7765 14 13.0696 14C18.8998 14 24.73 14 30.5602 14C31.8532 14 32.6219 14.7654 32.6219 16.052C32.6219 17.4362 32.6219 18.8172 32.6219 20.2439H32.9704C34.5436 20.2439 36.1135 20.2504 37.6867 20.2439C38.5694 20.2373 39.1915 20.6152 39.5856 21.4066C40.6246 23.4912 41.6669 25.5725 42.7157 27.6505C42.9078 28.0316 43.0055 28.4126 42.999 28.8458C42.9762 29.8458 42.973 30.8457 42.999 31.8424C43.0218 32.8 42.6473 33.4905 41.7646 33.8813C41.6647 34.7477 41.3542 35.6152 40.8331 36.4837C41.3086 36.4837 41.7613 36.4837 42.2108 36.4837C42.6961 36.4837 42.9827 36.7117 42.9893 37.0993C42.9958 37.4869 42.7026 37.7345 42.2271 37.7345C32.0747 37.7345 21.9256 37.7345 11.7733 37.7345C11.1739 37.7345 10.8254 37.2622 11.0893 36.8062C11.2261 36.5652 11.4475 36.4805 11.7211 36.4805C12.9295 36.4837 14.1379 36.4805 15.343 36.4805C15.4407 36.4805 15.5417 36.4805 15.7078 36.4805V36.487ZM12.2586 31.4906C12.2586 31.673 12.2586 31.8163 12.2586 31.9629C12.2586 32.5198 12.4768 32.7381 13.0337 32.7381C13.5842 32.7381 14.1379 32.7283 14.6884 32.7446C14.8968 32.7511 14.9847 32.6827 15.0759 32.4905C15.7534 31.0639 16.8901 30.2692 18.4698 30.2562C20.0658 30.2431 21.2188 31.0314 21.9158 32.4612C22.0168 32.6697 22.1113 32.7478 22.3458 32.7446C25.2511 32.7348 28.1564 32.7381 31.0585 32.7381H31.3712C31.3712 32.5882 31.3712 32.4873 31.3712 32.383C31.3712 26.9502 31.3712 21.5141 31.3712 16.0813C31.3712 15.4494 31.1693 15.2507 30.5243 15.2507C24.7137 15.2507 18.9063 15.2507 13.0956 15.2507C12.454 15.2507 12.2586 15.4462 12.2586 16.0911C12.2586 19.8595 12.2586 23.628 12.2586 27.3964C12.2586 27.5072 12.2586 27.6147 12.2586 27.7417C12.8742 27.7417 13.4441 27.7417 14.0174 27.7417C14.5157 27.7417 14.7535 27.9729 14.7568 28.4582C14.76 29.2269 14.76 29.9989 14.7568 30.7675C14.7568 31.2528 14.5125 31.4841 14.0174 31.4873C13.4474 31.4873 12.8742 31.4873 12.2586 31.4873V31.4906ZM32.6415 21.4978V32.7381C33.1789 32.7381 33.6968 32.7283 34.2146 32.7413C34.4003 32.7446 34.4785 32.6794 34.5566 32.5133C35.2113 31.103 36.3187 30.305 37.8724 30.2562C39.4553 30.204 40.6148 30.9564 41.364 32.3472C41.4063 32.4254 41.4486 32.5003 41.5366 32.6632C41.6245 32.4352 41.732 32.2886 41.732 32.142C41.745 31.1128 41.732 30.0803 41.732 29.051C41.732 29.0348 41.706 29.0217 41.6832 28.9957C41.5692 28.9957 41.4421 28.9957 41.3184 28.9957C39.0905 28.9957 36.8627 28.9957 34.6348 28.9957C34.1006 28.9957 33.8726 28.7709 33.8726 28.2368C33.8726 26.6636 33.8726 25.0937 33.8726 23.5205C33.8726 22.9635 34.0909 22.7486 34.6511 22.7486C35.9311 22.7486 37.2112 22.7486 38.4912 22.7486C38.5987 22.7486 38.7062 22.7388 38.843 22.7323C38.7094 22.4587 38.5857 22.2339 38.4814 21.9962C38.3251 21.6379 38.0678 21.4913 37.6704 21.4946C36.0972 21.5076 34.5273 21.5011 32.9541 21.5011H32.6382L32.6415 21.4978ZM21.3165 36.4674H35.1853C34.5664 35.7379 34.27 34.9236 34.2374 34.0051H22.2611C22.2285 34.9268 21.9321 35.7379 21.3165 36.4674ZM35.1397 27.7221H41.3151C41.3053 27.6733 41.3053 27.6407 41.2923 27.6147C40.7158 26.4616 40.1458 25.3086 39.5563 24.1621C39.5107 24.0742 39.3511 24.0025 39.2436 24.0025C37.9538 23.9928 36.664 23.996 35.3742 23.996C35.296 23.996 35.2178 24.0091 35.1397 24.0188V27.7221ZM18.5285 31.4906C17.1475 31.4808 16.014 32.598 16.0075 33.9725C16.001 35.3372 17.1084 36.4674 18.4666 36.4837C19.8476 36.5 20.9876 35.3893 21.0039 34.0181C21.0169 32.6371 19.903 31.5004 18.5285 31.4906ZM35.4979 33.966C35.4882 35.3437 36.6053 36.4805 37.9798 36.487C39.3446 36.4935 40.4748 35.3861 40.4911 34.0279C40.5073 32.6469 39.3967 31.5069 38.0222 31.4939C36.6412 31.4808 35.5044 32.5948 35.4947 33.9693L35.4979 33.966ZM13.4865 30.2334V29.012H12.2814V30.2334H13.4865Z" fill="white" stroke="white" stroke-width="0.3"/>
<path d="M17.2546 33.9627C17.2416 34.6499 17.7953 35.2232 18.4793 35.2362C19.1665 35.2492 19.7398 34.6955 19.7528 34.0115C19.7658 33.3243 19.2121 32.751 18.5281 32.738C17.8376 32.725 17.2676 33.2754 17.2546 33.9627Z" fill="white" stroke="white" stroke-width="0.3"/>
<path d="M24.3331 17.749C25.5903 17.749 26.8508 17.7425 28.1081 17.7587C28.3002 17.7587 28.5185 17.8337 28.6748 17.9444C28.8735 18.0844 28.9549 18.345 28.8279 18.5567C28.7204 18.7326 28.5185 18.8629 28.3426 18.9867C28.2774 19.0323 28.1602 19.0029 28.0657 19.0029C25.561 19.0029 23.053 19.0029 20.5483 19.0029C20.4865 19.0029 20.4246 19.0029 20.3627 19.0029C20.0077 18.9769 19.7536 18.7098 19.7569 18.3743C19.7569 18.0388 20.0142 17.7685 20.3725 17.7587C20.8513 17.7457 21.33 17.7555 21.8088 17.7555C22.6524 17.7555 23.4928 17.7555 24.3363 17.7555L24.3331 17.749Z" fill="white" stroke="white" stroke-width="0.3"/>
<path d="M25.5638 20.247C26.4172 20.247 27.2673 20.247 28.1207 20.247C28.5799 20.247 28.8633 20.4815 28.8731 20.8561C28.8828 21.2437 28.5897 21.4945 28.1207 21.4945C26.4172 21.4945 24.7105 21.4945 23.007 21.4945C22.5347 21.4945 22.2449 21.2437 22.2546 20.8529C22.2644 20.475 22.5445 20.2438 23.007 20.2438C23.8604 20.2438 24.7105 20.2438 25.5638 20.2438V20.247Z" fill="white" stroke="white" stroke-width="0.3"/>
<path d="M17.8637 18.9965C17.5184 18.99 17.2383 18.6871 17.2546 18.3451C17.2709 18.0129 17.5575 17.7458 17.8897 17.7523C18.2219 17.7588 18.4988 18.0422 18.4988 18.3744C18.4988 18.7197 18.2057 19.0063 17.8604 18.9998L17.8637 18.9965Z" fill="white" stroke="white" stroke-width="0.3"/>
<path d="M17.2546 33.9627C17.2676 33.2754 17.8376 32.725 18.5281 32.738C19.2121 32.751 19.7658 33.3243 19.7528 34.0115C19.7398 34.6955 19.1665 35.2492 18.4793 35.2362C17.7953 35.2232 17.2416 34.6499 17.2546 33.9627Z" fill="white" stroke="white" stroke-width="0.3"/>
<path d="M38.0022 32.7381C38.6895 32.7446 39.2465 33.3113 39.2399 33.9986C39.2334 34.6858 38.6667 35.2428 37.9795 35.2363C37.2922 35.2298 36.7352 34.6663 36.7418 33.9758C36.7483 33.2885 37.3117 32.7316 37.999 32.7381H38.0022Z" fill="white" stroke="white" stroke-width="0.3"/>
</svg>
