<svg width="80" height="80" viewBox="0 0 80 80" fill="none" xmlns="http://www.w3.org/2000/svg">
<path fill-rule="evenodd" clip-rule="evenodd" d="M22.0293 30.9592C22.1755 31.0096 22.3356 31.0009 22.4754 30.9348C22.6152 30.8688 22.7237 30.7507 22.7776 30.6058C22.7732 30.5644 22.7732 30.5226 22.7776 30.4811C24.3159 28.9117 28.7955 29.026 30.5104 30.2317V30.3044C30.497 30.3802 30.4988 30.4579 30.5156 30.533C30.5324 30.6081 30.564 30.6792 30.6084 30.742C30.6529 30.8048 30.7094 30.8582 30.7746 30.8991C30.8399 30.9399 30.9126 30.9674 30.9885 30.98C31.1397 31.0045 31.2946 30.9695 31.4206 30.8823C31.5465 30.7951 31.6338 30.6625 31.6641 30.5123C31.6591 30.4327 31.6591 30.3528 31.6641 30.2732C33.3478 28.9844 37.6819 29.026 39.3449 30.2732V30.4291V35.8961C39.7502 35.7506 40.1348 35.6259 40.509 35.5324V30.2421C42.2031 29.026 46.5372 28.9844 48.2001 30.2421C48.2001 30.3148 48.2001 30.3876 48.2001 30.4603C48.2097 30.5391 48.2352 30.6151 48.2752 30.6836C48.3152 30.7521 48.3688 30.8117 48.4326 30.8588C48.4965 30.9059 48.5693 30.9394 48.6466 30.9573C48.7239 30.9752 48.804 30.9771 48.8821 30.9629C48.9601 30.9488 49.0345 30.9188 49.1005 30.8748C49.1665 30.8308 49.2229 30.7738 49.2661 30.7073C49.3093 30.6407 49.3385 30.5661 49.3518 30.4879C49.3651 30.4096 49.3622 30.3295 49.3434 30.2524V30.1693C51.0688 28.974 55.5795 28.8701 57.0762 30.4291V30.5539C57.128 30.698 57.2345 30.8159 57.3726 30.8821C57.5107 30.9482 57.6694 30.9573 57.8141 30.9072C57.8867 30.8817 57.9535 30.8419 58.0107 30.7904C58.0678 30.7388 58.1141 30.6764 58.147 30.6068C58.1799 30.5372 58.1986 30.4618 58.2021 30.3849C58.2056 30.308 58.1939 30.2312 58.1675 30.1589C55.6627 22.6756 48.5743 19.0067 40.5713 18.7676V17.9465C40.5713 17.7922 40.51 17.6441 40.4008 17.535C40.2917 17.4258 40.1436 17.3645 39.9893 17.3645C39.8349 17.3645 39.6869 17.4258 39.5777 17.535C39.4686 17.6441 39.4072 17.7922 39.4072 17.9465V18.7676C31.4146 19.0067 24.3678 22.6756 21.6759 30.2109C21.6255 30.3571 21.6343 30.5172 21.7003 30.657C21.7663 30.7968 21.8844 30.9053 22.0293 30.9592Z" fill="#0033A1"/>
<path fill-rule="evenodd" clip-rule="evenodd" d="M29.367 47.3394C28.6446 47.3373 27.9378 47.5498 27.3363 47.9499C26.7348 48.3499 26.2656 48.9196 25.9882 49.5866C25.7108 50.2536 25.6377 50.988 25.7781 51.6966C25.9185 52.4053 26.2662 53.0563 26.777 53.5671C27.2878 54.0779 27.9388 54.4256 28.6475 54.566C29.3561 54.7064 30.0905 54.6333 30.7575 54.3559C31.4245 54.0785 31.9942 53.6093 32.3942 53.0078C32.7943 52.4063 33.0068 51.6995 33.0047 50.9771C33.0047 50.0123 32.6215 49.087 31.9393 48.4048C31.2571 47.7226 30.3318 47.3394 29.367 47.3394ZM30.4999 52.11C30.3514 52.259 30.1748 52.3771 29.9803 52.4574C29.7858 52.5377 29.5774 52.5786 29.367 52.5777C29.1567 52.578 28.9484 52.5368 28.754 52.4566C28.5596 52.3763 28.383 52.2586 28.2341 52.11C28.0855 51.9622 27.9675 51.7865 27.887 51.593C27.8065 51.3994 27.7651 51.1919 27.7651 50.9823C27.7651 50.7727 27.8065 50.5652 27.887 50.3716C27.9675 50.1781 28.0855 50.0024 28.2341 49.8546C28.5337 49.5517 28.941 49.3798 29.367 49.3765C29.5781 49.377 29.787 49.4195 29.9815 49.5016C30.176 49.5837 30.3522 49.7037 30.4999 49.8546C30.6485 50.0024 30.7665 50.1781 30.847 50.3716C30.9275 50.5652 30.9689 50.7727 30.9689 50.9823C30.9689 51.1919 30.9275 51.3994 30.847 51.593C30.7665 51.7865 30.6485 51.9622 30.4999 52.11Z" fill="#0033A1"/>
<path fill-rule="evenodd" clip-rule="evenodd" d="M50.9339 47.3394C50.2115 47.3373 49.5047 47.5498 48.9032 47.9499C48.3017 48.3499 47.8325 48.9196 47.5551 49.5866C47.2777 50.2536 47.2046 50.988 47.345 51.6966C47.4854 52.4053 47.8331 53.0563 48.3439 53.5671C48.8547 54.0779 49.5057 54.4256 50.2143 54.566C50.923 54.7064 51.6574 54.6333 52.3244 54.3559C52.9914 54.0785 53.5611 53.6093 53.9611 53.0078C54.3612 52.4063 54.5737 51.6995 54.5716 50.9771C54.5716 50.0123 54.1884 49.087 53.5062 48.4048C52.8239 47.7226 51.8987 47.3394 50.9339 47.3394ZM52.0668 52.11C51.9179 52.2586 51.7413 52.3763 51.5469 52.4566C51.3525 52.5368 51.1442 52.578 50.9339 52.5777C50.7235 52.5786 50.515 52.5377 50.3206 52.4574C50.1261 52.3771 49.9495 52.259 49.801 52.11C49.6524 51.9622 49.5344 51.7865 49.4539 51.593C49.3734 51.3994 49.332 51.1919 49.332 50.9823C49.332 50.7727 49.3734 50.5652 49.4539 50.3716C49.5344 50.1781 49.6524 50.0024 49.801 49.8546C49.9486 49.7037 50.1249 49.5837 50.3194 49.5016C50.5139 49.4195 50.7228 49.377 50.9339 49.3765C51.3599 49.3798 51.7672 49.5517 52.0668 49.8546C52.2154 50.0024 52.3334 50.1781 52.4139 50.3716C52.4944 50.5652 52.5358 50.7727 52.5358 50.9823C52.5358 51.1919 52.4944 51.3994 52.4139 51.593C52.3334 51.7865 52.2154 51.9622 52.0668 52.11Z" fill="#0033A1"/>
<path fill-rule="evenodd" clip-rule="evenodd" d="M58.0222 48.2748L57.7416 48.0461C57.7416 44.346 57.4714 41.5813 55.5694 38.2658C55.4245 37.9499 55.1997 37.6773 54.9172 37.4749C54.6346 37.2726 54.3041 37.1475 53.9584 37.1121C49.8722 36.8158 45.7698 36.8158 41.6836 37.1121C39.0645 37.2992 34.3354 40.7499 32.5685 42.5376C30.7185 42.8286 22.913 43.8575 22.4037 45.905C22.2062 46.7157 22.2478 47.6512 22.0607 48.4826C21.8462 48.5735 21.6646 48.7277 21.5401 48.9245C21.4157 49.1214 21.3544 49.3516 21.3643 49.5843V50.3327C21.3643 51.9749 22.9961 52.1619 24.2745 52.1619H24.711C24.6141 51.7815 24.5652 51.3904 24.5655 50.9979C24.5655 49.7243 25.0714 48.503 25.9719 47.6025C26.8725 46.702 28.0938 46.1961 29.3673 46.1961C30.6408 46.1961 31.8622 46.702 32.7627 47.6025C33.6632 48.503 34.1691 49.7243 34.1691 50.9979C34.1671 51.3897 34.1218 51.7801 34.034 52.1619H46.3087C46.221 51.7801 46.1757 51.3897 46.1736 50.9979C46.1736 50.3673 46.2978 49.7429 46.5391 49.1603C46.7805 48.5777 47.1342 48.0484 47.58 47.6025C48.0259 47.1566 48.5553 46.8029 49.1379 46.5616C49.7204 46.3203 50.3448 46.1961 50.9754 46.1961C51.606 46.1961 52.2304 46.3203 52.813 46.5616C53.3956 46.8029 53.9249 47.1566 54.3708 47.6025C54.8167 48.0484 55.1704 48.5777 55.4117 49.1603C55.653 49.7429 55.7772 50.3673 55.7772 50.9979C55.7776 51.3904 55.7287 51.7815 55.6317 52.1619H56.1826C57.2219 52.1619 58.6666 52.2347 58.6666 50.6549V49.5843C58.6629 49.332 58.6031 49.0836 58.4917 48.8571C58.3802 48.6306 58.2199 48.4317 58.0222 48.2748ZM36.5388 42.8286C35.9672 42.8286 35.4995 42.2673 36.1127 41.7892C36.8299 41.2592 37.6198 40.7499 38.4097 40.251C39.4292 39.5668 40.5735 39.09 41.7772 38.8479C43.0244 38.7543 44.23 38.7023 45.4253 38.6712L45.6747 42.5999C42.5983 42.5895 39.4179 42.6519 36.5388 42.8286ZM53.2828 42.6623C51.651 42.6623 49.8737 42.5999 48.0341 42.5895L47.7846 38.6296C49.4996 38.6296 51.2561 38.7023 53.0749 38.8167C53.1865 38.8246 53.2935 38.864 53.3836 38.9302C53.4737 38.9964 53.5433 39.0868 53.5842 39.1908C53.8614 39.8657 54.0872 40.5606 54.2598 41.2695C54.4988 42.0802 54.3325 42.6935 53.2828 42.6623Z" fill="#0033A1"/>
</svg>
