<svg width="80" height="80" viewBox="0 0 80 80" fill="none" xmlns="http://www.w3.org/2000/svg">
<path d="M46.8402 54.5533V51.7867C46.8402 51.7867 29.2135 51.7467 22.9135 51.7533C22.5623 51.751 22.2163 51.6673 21.9029 51.5089C21.5894 51.3504 21.3169 51.1215 21.1068 50.84C20.7875 50.4714 20.6227 49.9938 20.6468 49.5067C20.6468 45.9933 20.6468 35.4067 20.6468 35.4067H56.7402V36.74H59.0135V35.08C59.0135 33.1867 59.0135 31.2933 58.9602 29.3933C58.9614 28.9362 58.8731 28.4832 58.7002 28.06C57.7002 25.88 56.1935 24.8133 54.0935 24.8067C52.9668 24.8067 22.5268 24.8067 22.5268 24.8067C22.2199 24.7938 21.9126 24.823 21.6135 24.8933C20.7331 25.1261 19.9323 25.593 19.2961 26.2445C18.6598 26.896 18.212 27.7077 18.0002 28.5933C17.8833 29.1498 17.834 29.7184 17.8535 30.2867C17.8535 30.2867 17.7602 43.6933 17.8535 49.62C17.8618 50.2927 18.0094 50.9563 18.2871 51.5691C18.5648 52.1818 18.9665 52.7303 19.4668 53.18C19.8744 53.601 20.3623 53.9359 20.9017 54.1649C21.441 54.3939 22.0209 54.5124 22.6068 54.5133L46.8402 54.5533ZM56.8002 30.78H20.7602L20.7068 30.56C20.5736 30.0714 20.5936 29.5536 20.7641 29.0767C20.9346 28.5998 21.2473 28.1867 21.6602 27.8933C22.0025 27.6774 22.4024 27.5705 22.8068 27.5867C23.7135 27.5867 53.7802 27.5867 54.4135 27.5867C54.9507 27.5623 55.478 27.7374 55.8939 28.0783C56.3099 28.4192 56.5851 28.9018 56.6668 29.4333C56.7068 29.66 56.7268 29.8933 56.7535 30.1333L56.8002 30.78Z" fill="#0033A1"/>
<path d="M63.7732 59.58C63.9301 59.5762 64.0845 59.5399 64.2266 59.4733C64.5708 59.334 64.8667 59.0968 65.0776 58.7911C65.2885 58.4854 65.4052 58.1246 65.4132 57.7533C65.4132 57.7533 65.4132 53.0867 65.4132 51.0867C65.4208 50.6575 65.2863 50.2379 65.0307 49.893C64.7751 49.5482 64.4127 49.2975 63.9999 49.18C63.8734 49.1421 63.7638 49.0617 63.6897 48.9524C63.6156 48.8431 63.5815 48.7115 63.5932 48.58C63.5932 47.4133 63.5932 44.7533 63.5932 44.7533C63.585 44.0864 63.4393 43.4284 63.1651 42.8204C62.891 42.2125 62.4943 41.6676 61.9999 41.22C60.8707 40.2799 59.4268 39.8033 57.9599 39.8867C56.483 39.8594 55.0287 40.2524 53.7666 41.02C53.1972 41.4441 52.7332 41.9936 52.4106 42.6261C52.088 43.2585 51.9156 43.9568 51.9066 44.6667C51.9066 45.96 51.9066 47.2533 51.9066 48.5533C51.9133 48.7004 51.8712 48.8455 51.7867 48.9661C51.7023 49.0867 51.5804 49.176 51.4399 49.22C51.0859 49.3299 50.7715 49.5402 50.5348 49.8254C50.2981 50.1107 50.1493 50.4585 50.1066 50.8267C50.1066 51.0467 50.0532 51.3 50.0532 51.5333C50.0532 52.6867 50.0999 57.7933 50.0999 57.7933C50.1071 58.0747 50.1795 58.3506 50.3113 58.5994C50.4432 58.8481 50.631 59.0628 50.8599 59.2267C51.3196 59.5565 51.8834 59.7082 52.4466 59.6533C53.6999 59.6333 62.2399 59.6133 63.7732 59.58ZM57.7732 57.58C57.6681 57.5795 57.5641 57.5592 57.4666 57.52C57.3221 57.4624 57.1928 57.3723 57.0888 57.2567C56.9847 57.141 56.9087 57.003 56.8666 56.8533C56.8239 56.6968 56.8015 56.5355 56.7999 56.3733C56.7999 56.0133 56.7999 55.6533 56.7999 55.2933C56.813 55.1565 56.7966 55.0184 56.7518 54.8884C56.7069 54.7584 56.6346 54.6396 56.5399 54.54C56.301 54.2935 56.1562 53.971 56.1306 53.6287C56.105 53.2864 56.2003 52.9459 56.3999 52.6667C56.5812 52.3727 56.8553 52.1476 57.1789 52.0269C57.5024 51.9061 57.857 51.8967 58.1866 52C58.5153 52.1015 58.8033 52.3046 59.0094 52.5801C59.2154 52.8556 59.3288 53.1893 59.3332 53.5333C59.3373 53.9417 59.1791 54.335 58.8932 54.6267C58.8192 54.7086 58.7623 54.8044 58.7257 54.9086C58.6891 55.0127 58.6735 55.1231 58.6799 55.2333C58.6799 55.6933 58.6799 56.16 58.6399 56.62C58.6304 56.7965 58.5733 56.9671 58.4747 57.1138C58.3761 57.2605 58.2397 57.3778 58.0799 57.4533C57.9777 57.5167 57.8602 57.5513 57.7399 57.5533L57.7732 57.58ZM61.2399 49H54.0332L53.9999 48.7067C53.9924 48.6625 53.9924 48.6175 53.9999 48.5733V47.24C53.9999 46.34 53.9999 45.4467 53.9999 44.5733C53.9999 43.24 54.9399 42.4733 56.1332 42.1667C56.7217 42.0228 57.3283 41.9666 57.9332 42C58.7647 41.9539 59.5934 42.1311 60.3332 42.5133C61.9399 43.5467 61.5799 45.92 61.5866 47.5533C61.5866 47.94 61.5332 48.7333 61.5199 48.7733L61.4666 48.9867L61.2399 49Z" fill="#0033A1"/>
</svg>
