<svg width="52" height="52" viewBox="0 0 52 52" fill="none" xmlns="http://www.w3.org/2000/svg">
<path d="M26 52C40.3594 52 52 40.3594 52 26C52 11.6406 40.3594 0 26 0C11.6406 0 0 11.6406 0 26C0 40.3594 11.6406 52 26 52Z" fill="#0033A1"/>
<path d="M11.4995 27.4316C11.6666 26.6611 11.7409 25.8721 11.9853 25.114C12.3102 24.1021 12.7589 23.146 13.1983 22.1867C13.9688 20.4972 14.4082 18.7242 14.5877 16.8799C14.6743 15.9888 15.188 15.3482 15.977 15.144C16.8063 14.9274 17.5397 15.2244 18.0657 15.9918C18.9259 17.2389 19.5448 18.6004 19.9625 20.0516C20.1018 20.03 20.1173 19.9155 20.1606 19.835C20.8073 18.6128 21.6459 17.5514 22.7041 16.6571C23.5025 15.9826 24.1894 15.2244 24.5205 14.2064C24.8825 13.0832 24.7093 11.9785 24.3627 10.8862C24.3163 10.7407 24.2575 10.5984 24.2142 10.453C24.0935 10.0229 24.1863 9.64844 24.5267 9.35757C24.8671 9.0667 25.2632 9.02338 25.6592 9.22142C29.1094 10.9573 31.3807 13.6278 32.1512 17.4709C32.2316 17.867 32.278 18.2693 32.3244 18.6685C32.3678 19.0645 32.3894 19.4637 32.4266 19.965C32.835 18.9872 33.0269 18.0558 33.1444 17.1089C33.2651 16.1373 33.7881 15.5153 34.6483 15.3389C35.4559 15.1718 36.1986 15.5277 36.6844 16.3198C38.3894 19.1079 39.5776 22.0846 39.986 25.346C40.017 25.5812 40.0386 25.8164 40.0634 26.0516C40.1222 26.5993 39.8189 27.0201 39.3239 27.0789C38.8597 27.1346 38.4636 26.7973 38.411 26.2589C38.1047 23.0377 37.0124 20.0888 35.3414 17.3348C35.3043 17.276 35.2703 17.2141 35.2362 17.1553C35.1774 17.0563 35.1124 16.9635 34.9763 16.9913C34.8371 17.0192 34.8247 17.1337 34.8123 17.2481C34.7318 17.8546 34.639 18.4611 34.4843 19.0552C33.9861 20.983 33.1321 22.7313 31.8912 24.2909C31.8046 24.3992 31.718 24.5075 31.6189 24.6096C31.3002 24.9407 30.9165 25.0088 30.5607 24.8045C30.2141 24.6065 30.0687 24.2321 30.1924 23.7927C30.5607 22.4838 30.7556 21.1501 30.7216 19.7917C30.6411 16.5241 29.4189 13.8165 26.7484 11.8392C26.6185 11.7433 26.4761 11.6567 26.34 11.5638C26.2379 11.6845 26.2905 11.799 26.3059 11.898C26.6494 14.259 25.8016 16.1589 24.0502 17.6999C23.3168 18.3466 22.6206 19.0243 22.0914 19.8567C21.1477 21.3389 20.5938 22.9541 20.4267 24.7055C20.4143 24.8448 20.3958 24.984 20.371 25.1202C20.2813 25.6338 19.9223 25.9185 19.4365 25.8628C18.994 25.8133 18.6722 25.4389 18.7155 24.9469C18.7588 24.4177 18.7898 23.8917 18.7681 23.3626C18.6784 21.0697 18.0193 18.9593 16.7444 17.0439C16.664 16.9232 16.6114 16.7345 16.4164 16.7778C16.2153 16.8211 16.2524 17.013 16.24 17.1584C16.0265 19.5318 15.3272 21.7659 14.2597 23.8886C11.6697 29.05 13.8326 35.9535 19.0311 39.2304C19.0961 39.2706 19.1549 39.348 19.257 39.3046C19.3096 39.2304 19.2477 39.1778 19.2168 39.1221C17.6418 36.2505 17.7315 33.4285 19.5788 30.7302C21.3643 28.1217 23.2364 25.5719 25.0744 23.0005C25.5262 22.3662 26.1512 22.3693 26.6061 23.0098C28.4441 25.5812 30.3193 28.131 32.0986 30.7426C33.9583 33.4718 34.0356 36.3217 32.4049 39.2025C32.377 39.2489 32.3554 39.2984 32.3152 39.382C32.4915 39.382 32.5906 39.2799 32.6989 39.2087C34.8092 37.8348 36.3811 35.9968 37.4146 33.7008C37.4703 33.5739 37.5229 33.4439 37.5848 33.3202C37.8107 32.8901 38.2594 32.7199 38.6771 32.9024C39.0856 33.0788 39.2805 33.5399 39.1011 33.9886C38.5503 35.3717 37.7952 36.6342 36.8236 37.7636C34.2244 40.7899 30.9413 42.5011 26.9527 42.8415C26.8444 42.8507 26.7268 42.8384 26.6309 42.9126H25.0435C24.4679 42.8291 23.8924 42.7579 23.3199 42.662C17.8831 41.777 13.1674 37.3552 11.9142 31.9927C11.7316 31.2067 11.6573 30.4053 11.4995 29.6162V27.4409V27.4316ZM25.8356 24.7922C24.1337 27.1872 22.4287 29.511 20.8104 31.8937C19.6345 33.6234 19.5015 35.5233 20.2658 37.4697C20.5071 38.0855 20.8444 38.6486 21.3179 39.1313C21.355 39.088 21.3705 39.0787 21.3705 39.0695C21.3705 39.0014 21.3705 38.9302 21.3674 38.8621C21.2158 37.0427 21.8625 35.5357 23.1621 34.2856C23.5644 33.8988 23.9728 33.5213 24.3782 33.1407C24.7185 32.8189 24.963 32.4599 25.0373 31.9679C25.1301 31.3398 25.7985 31.0582 26.3152 31.4388C28.3389 32.9303 29.7159 34.855 30.2389 37.349C30.3595 37.9307 30.3069 38.5218 30.3162 39.1437C30.3905 39.0911 30.4276 39.0695 30.4524 39.0447C30.5019 38.9952 30.5483 38.9426 30.5885 38.8869C32.0676 36.857 32.2811 34.7033 31.195 32.4383C30.8144 31.643 30.2327 30.9747 29.7283 30.2599C28.4503 28.4528 27.1631 26.655 25.8356 24.7953V24.7922ZM28.6669 38.333C28.6422 38.1133 28.6298 37.8905 28.5896 37.6708C28.3266 36.2474 27.6272 35.0468 26.6804 33.9793C26.2812 33.5306 26.2936 33.5492 25.8727 33.9824C25.2632 34.6105 24.6072 35.1953 24.0068 35.8328C23.3539 36.5259 23.0228 37.3645 23.0198 38.3299C23.0198 39.939 24.2761 41.2231 25.8542 41.2107C27.4199 41.1984 28.6607 39.9235 28.6638 38.333H28.6669Z" fill="white"/>
<path d="M39.2679 29.1811C39.729 29.1811 40.091 29.5462 40.0941 30.0011C40.0941 30.4497 39.7228 30.8303 39.2772 30.8427C38.8192 30.852 38.4201 30.4497 38.4294 29.9887C38.4386 29.5369 38.81 29.178 39.271 29.1811H39.2679Z" fill="white"/>
</svg>
