<svg width="80" height="80" viewBox="0 0 80 80" fill="none" xmlns="http://www.w3.org/2000/svg">
<path d="M66.2665 49.6999C66.1749 49.412 66.0261 49.1455 65.8291 48.9164C65.6321 48.6873 65.3909 48.5003 65.1199 48.3666C64.6707 48.1584 64.1871 48.0342 63.6932 47.9999C62.548 47.9039 61.3978 48.1133 60.3599 48.6066C58.1265 49.5933 55.8599 50.6666 53.6665 51.7333L53.4999 51.8133C52.8332 52.1399 52.1665 52.4799 51.4999 52.8533L50.5532 53.3333L50.4399 53.3933L50.6732 53.8599C50.8532 54.2066 51.0132 54.5266 51.1999 54.8599C51.2865 55.0066 51.5999 55.0333 51.7465 54.9733C51.9999 54.8599 52.2532 54.7266 52.4999 54.5933L52.9599 54.3533L54.9599 53.3733C56.7132 52.4933 58.5332 51.5933 60.3399 50.7066C61.3589 50.1489 62.5131 49.8857 63.6732 49.9466C63.7948 49.9568 63.9131 49.9916 64.0208 50.0489C64.1285 50.1062 64.2235 50.1848 64.2999 50.2799C64.3169 50.3855 64.3101 50.4935 64.2801 50.5962C64.2501 50.6988 64.1977 50.7935 64.1265 50.8733L63.9599 51.0533C63.521 51.5572 63.0217 52.005 62.4732 52.3866C60.4732 53.7199 58.0865 55.1933 55.6932 56.5733C52.3401 58.5746 48.815 60.2724 45.1599 61.6466C43.1048 62.42 40.8678 62.573 38.7265 62.0866C36.769 61.5652 34.8802 60.8133 33.0999 59.8466C32.8065 59.6933 32.5132 59.5399 32.2265 59.3799C31.2097 58.7763 30.1088 58.3269 28.9599 58.0466C27.6265 57.7866 26.2932 57.5666 24.9932 57.3799H24.7932C24.5665 57.3399 24.5265 57.3266 24.5265 57.1599C24.5265 56.1733 24.5265 55.1599 24.5265 54.1933C24.5265 52.4555 24.5265 50.7177 24.5265 48.9799C24.5522 48.8775 24.6168 48.789 24.7065 48.7333L25.6799 48.4466C27.0132 48.0399 28.4465 47.6266 29.8465 47.2799C31.0681 46.9876 32.3369 46.9513 33.5732 47.1733C34.7045 47.4349 35.7721 47.9199 36.7132 48.5999C38.4514 49.7248 40.2696 50.7208 42.1532 51.5799C43.4501 52.2032 44.702 52.9161 45.8999 53.7133L46.2732 53.9533C47.1576 54.4925 47.8861 55.2531 48.3865 56.1599C48.4699 56.2602 48.5198 56.3839 48.5296 56.5138C48.5393 56.6438 48.5082 56.7735 48.4408 56.885C48.3733 56.9965 48.2727 57.0842 48.1531 57.1359C48.0334 57.1875 47.9006 57.2006 47.7732 57.1733C47.5484 57.1771 47.3241 57.1502 47.1065 57.0933L45.9999 56.7333C44.5199 56.2733 42.9999 55.7933 41.5132 55.2866C39.5414 54.5507 37.5062 53.9972 35.4332 53.6333C35.0465 53.5799 34.6465 53.5333 34.2665 53.4933L33.7132 53.4266H33.5865V53.5599C33.5865 53.7133 33.5865 53.8533 33.5865 53.9933C33.578 54.2747 33.5513 54.5553 33.5065 54.8333C33.4661 54.9099 33.448 54.9964 33.4546 55.0829C33.4611 55.1693 33.4919 55.2521 33.5435 55.3218C33.5951 55.3915 33.6653 55.4452 33.746 55.4767C33.8267 55.5082 33.9148 55.5163 33.9999 55.4999C35.8742 55.7078 37.7191 56.126 39.4999 56.7466L40.4532 57.0666C42.3665 57.7333 44.3532 58.3999 46.3199 58.9933C47.1844 59.2879 48.1221 59.2879 48.9865 58.9933C49.2949 58.8789 49.5758 58.7011 49.8112 58.4714C50.0466 58.2418 50.2312 57.9653 50.3532 57.6599C50.5082 57.301 50.5882 56.9142 50.5882 56.5233C50.5882 56.1323 50.5082 55.7455 50.3532 55.3866C49.7682 54.2288 48.9045 53.2345 47.8399 52.4933C46.03 51.1851 44.0692 50.0995 41.9999 49.2599C40.5914 48.5807 39.2325 47.8033 37.9332 46.9333C35.9149 45.5228 33.467 44.8625 31.0132 45.0666C29.3032 45.282 27.6221 45.6844 25.9999 46.2666C25.6532 46.3799 25.2932 46.4799 24.9465 46.5733L24.5799 46.6733C24.2599 45.5999 23.8732 45.2466 23.0265 45.2399C21.3599 45.2399 19.8065 45.2399 18.2799 45.2399C18.0747 45.2321 17.8702 45.2673 17.6795 45.3435C17.4889 45.4196 17.3163 45.5349 17.173 45.682C17.0298 45.829 16.9189 46.0045 16.8478 46.1971C16.7766 46.3897 16.7467 46.5951 16.7599 46.7999V59.7799C16.7515 59.985 16.7855 60.1896 16.8598 60.381C16.9341 60.5723 17.047 60.7463 17.1915 60.8921C17.336 61.0379 17.509 61.1523 17.6997 61.2282C17.8904 61.3041 18.0947 61.3399 18.2999 61.3333H23.0065C23.1924 61.3365 23.3774 61.3072 23.5532 61.2466C23.8635 61.1413 24.1276 60.9315 24.3003 60.653C24.473 60.3745 24.5435 60.0447 24.4999 59.7199C24.4999 59.5533 24.4999 59.4466 24.5732 59.4066C24.6465 59.3666 24.7199 59.3533 24.8665 59.4066C25.0132 59.4599 25.2932 59.4733 25.5332 59.4933L26.0599 59.5666C27.7241 59.7825 29.3413 60.2712 30.8465 61.0133C32.4599 61.8666 34.0399 62.6266 35.5465 63.2666C37.379 64.0425 39.3435 64.459 41.3332 64.4933H41.4465C42.9747 64.4367 44.4824 64.1234 45.9065 63.5666C48.9574 62.4601 51.9063 61.0905 54.7199 59.4733L55.5599 59.0133C58.2896 57.5825 60.928 55.9838 63.4599 54.2266C64.4913 53.5823 65.3623 52.7114 66.0065 51.6799C66.1796 51.3839 66.2918 51.0562 66.3364 50.7162C66.3811 50.3762 66.3573 50.0307 66.2665 49.6999ZM19.0932 47.2266C20.1265 47.2266 21.1732 47.2266 22.1999 47.2266C22.2835 47.2183 22.3676 47.237 22.4399 47.2799C22.4813 47.3454 22.5 47.4227 22.4932 47.4999C22.4932 50.1399 22.4932 52.7822 22.4932 55.4266V59.1599C22.4954 59.2044 22.4954 59.2489 22.4932 59.2933C22.4422 59.298 22.3909 59.298 22.3399 59.2933H19.0532C18.9332 59.2933 18.8599 59.2933 18.8265 59.2399C18.7932 59.1866 18.7665 59.1333 18.7665 59.0133C18.7665 55.1733 18.7665 51.3333 18.7665 47.4933C18.7559 47.4055 18.7798 47.317 18.8332 47.2466C18.9052 47.1967 18.9931 47.1754 19.0799 47.1866L19.0932 47.2266Z" fill="#0033A1"/>
<path d="M32.1468 32.4333C32.3097 32.5985 32.4007 32.8213 32.4001 33.0533C32.2801 33.8466 32.1401 34.6466 32.0001 35.42C31.8868 36.0466 31.7735 36.68 31.6735 37.3066C31.6735 37.4066 31.6735 37.5066 31.6201 37.6066C31.4989 38.1443 31.4629 38.6978 31.5135 39.2466C31.562 39.5842 31.6925 39.9047 31.8935 40.1802C32.0946 40.4556 32.3601 40.6776 32.6668 40.8266C33.0137 40.9966 33.3963 41.0811 33.7825 41.073C34.1687 41.0648 34.5474 40.9644 34.8868 40.78L35.3068 40.56C36.7001 39.8333 38.1335 39.08 39.5401 38.3333C39.6582 38.2564 39.796 38.2155 39.9368 38.2155C40.0777 38.2155 40.2155 38.2564 40.3335 38.3333C41.8001 39.1266 43.3401 39.9333 45.0001 40.8C45.2128 40.9028 45.4365 40.9811 45.6668 41.0333L45.9135 41.1066H46.0001L46.2801 41.0733C46.441 41.0609 46.5999 41.0296 46.7535 40.98C48.0135 40.56 48.5468 39.5533 48.2935 38.0666L48.0001 36.6666C47.8001 35.4933 47.5868 34.28 47.3935 33.0866C47.3678 32.8983 47.4155 32.7074 47.5268 32.5533C47.8801 32.1733 48.2668 31.8 48.6401 31.4466L49.0935 31.0133C49.3335 30.7733 49.5801 30.54 49.8268 30.3066C50.3868 29.7666 50.9668 29.2133 51.5135 28.64C51.8032 28.3469 52.0073 27.9802 52.1036 27.5795C52.2 27.1788 52.185 26.7594 52.0601 26.3666C51.938 25.9876 51.7143 25.6493 51.4135 25.3883C51.1126 25.1274 50.746 24.9539 50.3535 24.8866C48.8601 24.6 47.3268 24.4 45.8468 24.22L45.0535 24.1133C44.8821 24.1072 44.7159 24.0526 44.5743 23.9558C44.4327 23.859 44.3215 23.7241 44.2535 23.5666C43.6401 22.28 42.9868 20.9866 42.3668 19.7333L41.9668 18.9333C41.7757 18.4785 41.4425 18.0978 41.0172 17.8479C40.5919 17.5979 40.0971 17.4923 39.6068 17.5466C39.1896 17.6121 38.7962 17.7839 38.4646 18.0454C38.133 18.307 37.8743 18.6495 37.7135 19.04C37.0468 20.4133 36.2868 22 35.5001 23.54C35.3889 23.7785 35.1875 23.9632 34.9401 24.0533C34.1468 24.2 33.3268 24.3133 32.5401 24.42L31.2068 24.6066L30.6668 24.6666C30.1045 24.716 29.5497 24.8301 29.0135 25.0066C28.6743 25.1275 28.3727 25.3351 28.1387 25.6088C27.9048 25.8825 27.7467 26.2128 27.6801 26.5666C27.6046 26.9889 27.6377 27.4234 27.7765 27.8293C27.9153 28.2352 28.1552 28.5991 28.4735 28.8866C29.6268 29.96 30.8335 31.12 32.1468 32.4333ZM45.4801 33.9066C45.7535 35.24 45.9668 36.5733 46.1468 37.9066L46.2468 38.5266C46.2728 38.6833 46.2421 38.844 46.1601 38.98C46 39.0083 45.835 38.98 45.6935 38.9C44.0201 38.0333 42.5268 37.2533 41.1268 36.5066C40.7454 36.2862 40.314 36.1669 39.8735 36.16C39.4582 36.1653 39.0506 36.2729 38.6868 36.4733C37.0268 37.36 35.5201 38.1466 34.0735 38.8866C33.9235 38.9703 33.7504 39.0031 33.5801 38.98C33.5329 38.9055 33.5009 38.8223 33.486 38.7353C33.4711 38.6484 33.4737 38.5593 33.4935 38.4733C33.7068 37.14 33.9401 35.8066 34.1601 34.52L34.3935 33.1866C34.3935 33.0933 34.3935 33 34.3935 32.9266V32.84C34.3577 32.1617 34.0644 31.5227 33.5735 31.0533C32.4668 29.9866 31.1601 28.7266 29.8735 27.4533C29.7553 27.3378 29.6701 27.1928 29.6268 27.0333C29.7533 26.8838 29.9322 26.7884 30.1268 26.7666L32.7935 26.36C33.7068 26.2266 34.6201 26.0933 35.5335 25.9466C35.8998 25.8976 36.2469 25.7537 36.5404 25.5292C36.8339 25.3047 37.0637 25.0073 37.2068 24.6666C37.5001 24.08 37.7935 23.4866 38.0801 22.8933C38.5201 22 38.9735 21.0733 39.4135 20.1733C39.5158 20.0013 39.6414 19.8442 39.7868 19.7066L39.8935 19.5933L39.9868 19.7C40.1241 19.8373 40.2429 19.9919 40.3401 20.16L40.7335 20.9333C41.3068 22.0333 41.8935 23.1666 42.3935 24.3133C42.5934 24.8144 42.9338 25.2471 43.3737 25.5593C43.8137 25.8716 44.3345 26.05 44.8735 26.0733C46.5601 26.2733 48.2535 26.5333 49.7468 26.74C49.8938 26.7692 50.0233 26.8555 50.1068 26.98C50.0791 27.1038 50.0167 27.2171 49.9268 27.3066L49.1068 28.1266C48.2335 29 47.3335 29.9066 46.4001 30.74C45.9512 31.1178 45.6246 31.6206 45.462 32.1844C45.2994 32.7483 45.308 33.3477 45.4868 33.9066H45.4801Z" fill="#0033A1"/>
<path d="M48.4533 50.6667C48.397 50.6961 48.3472 50.7366 48.3071 50.7859C48.267 50.8352 48.2373 50.8922 48.22 50.9534C48.211 51.0222 48.2165 51.0921 48.236 51.1586C48.2555 51.2252 48.2887 51.287 48.3333 51.34C48.5 51.5934 48.66 51.8467 48.8333 52.12L49.14 52.6L49.42 52.4334L49.6867 52.2667C50.12 52 50.5467 51.7267 50.9733 51.4534C52.5294 50.3911 54.1706 49.459 55.88 48.6667C56.9733 48.2067 57.88 47.8867 58.92 48.2467C59.005 48.2621 59.0923 48.2594 59.1762 48.2387C59.26 48.218 59.3386 48.1798 59.4067 48.1267C59.5532 48.0195 59.6914 47.9014 59.82 47.7734L59.9467 47.6534C60.28 47.3534 60.44 47.16 60.4067 46.9534C60.3733 46.7467 60.1533 46.6134 59.74 46.42L59.5133 46.3334C58.3398 45.9699 57.0764 46.0265 55.94 46.4934C53.7311 47.3744 51.6306 48.5063 49.68 49.8667L48.4533 50.6667Z" fill="#0033A1"/>
<path d="M46.5131 48.4933L45.3998 49.3333L45.2998 49.4067L45.3665 49.5067L45.6198 49.8467C45.7931 50.08 45.9598 50.3 46.0998 50.5133C46.1367 50.5956 46.192 50.6685 46.2613 50.7262C46.3306 50.784 46.4122 50.8252 46.4998 50.8467H46.5665C46.7383 50.8301 46.9 50.7575 47.0265 50.64C48.0131 49.8667 49.0265 49.1067 50.0198 48.3867L50.3265 48.1533C50.9552 47.5735 51.7416 47.1931 52.5865 47.06C53.6998 47.06 53.8665 46.3933 53.9598 45.64C53.9624 45.6156 53.9624 45.591 53.9598 45.5667C53.9905 45.4964 54.0013 45.419 53.9912 45.343C53.981 45.2669 53.9502 45.1951 53.9021 45.1353C53.854 45.0756 53.7905 45.0301 53.7184 45.0039C53.6463 44.9777 53.5684 44.9717 53.4931 44.9867H53.0198C52.5672 44.9838 52.117 45.0536 51.6865 45.1933C50.7931 45.5425 49.9412 45.9896 49.1465 46.5267C48.2465 47.18 47.4065 47.82 46.5131 48.4933Z" fill="#0033A1"/>
<path d="M46.0535 47.4933C46.6269 46.96 47.1535 46.4466 48.0135 46.4733C48.1868 46.4733 48.3668 46.26 48.4068 46.12C48.4468 45.98 48.5002 45.6866 48.5402 45.4533C48.5802 45.22 48.5868 45.18 48.6135 45.0466C48.6397 44.9653 48.6449 44.8786 48.6286 44.7946C48.6123 44.7107 48.575 44.6323 48.5202 44.5666C48.4603 44.5113 48.3867 44.4728 48.3071 44.4553C48.2274 44.4377 48.1445 44.4416 48.0668 44.4666C47.9002 44.4666 47.7268 44.52 47.5468 44.5466C47.0821 44.5772 46.6285 44.7019 46.2135 44.9133C45.5392 45.3492 44.9036 45.8421 44.3135 46.3866L43.8602 46.78C43.2868 47.2733 42.9668 47.5466 42.9468 47.8666C42.9268 48.1866 43.1935 48.4866 43.7268 49.0733C43.7616 49.112 43.7995 49.1477 43.8402 49.18L44.0002 49.3333L44.6135 48.7733L45.7602 47.7333L46.0535 47.4933Z" fill="#0033A1"/>
</svg>
