<svg width="80" height="80" viewBox="0 0 80 80" fill="none" xmlns="http://www.w3.org/2000/svg">
<g clip-path="url(#clip0_1869_16029)">
<path d="M37.6533 47.4712C37.6042 47.3731 36.9273 47.4712 36.8292 47.4712C36.39 47.4987 35.9518 47.4035 35.5635 47.1965C35.4416 47.1441 35.334 47.0633 35.2496 46.961C35.0043 46.6569 35.2496 46.1957 35.3967 45.9014C35.4671 45.7968 35.5583 45.708 35.6647 45.6405C35.7711 45.5729 35.8903 45.5281 36.0148 45.5089C36.3013 45.4108 36.6053 45.3748 36.9068 45.4035C37.2082 45.4322 37.5001 45.5248 37.7628 45.6752C38.0256 45.8257 38.2533 46.0304 38.4307 46.2758C38.608 46.5212 38.731 46.8016 38.7914 47.0984C38.7914 47.0984 38.8797 47.0984 38.8895 47.0984C40.1944 43.3603 42.9513 42.3007 46.7384 42.2713C48.9753 42.2713 50.3391 42.2713 52.576 42.2713C54.0159 42.1636 55.4499 42.5448 56.6463 43.3531C57.8428 44.1614 58.7316 45.3496 59.1691 46.7255C59.1691 46.8433 59.2868 46.961 59.3751 47.1278C59.8853 45.6169 60.6604 45.0871 61.8966 45.3225C62.0724 45.339 62.243 45.3915 62.3976 45.4768C62.5522 45.5621 62.6876 45.6783 62.7953 45.8182C62.903 45.9582 62.9807 46.1188 63.0236 46.2901C63.0665 46.4614 63.0736 46.6397 63.0445 46.8138C63.0445 47.687 62.3381 47.481 61.8181 47.5006C61.3681 47.4963 60.9186 47.5291 60.474 47.5987C61.1644 47.9405 61.758 48.4502 62.2003 49.081C62.6425 49.7118 62.9193 50.4436 63.0053 51.2092C63.0936 53.8778 63.0936 56.5661 63.0936 59.2445C63.0936 59.4898 62.554 59.9313 62.24 59.9509C61.0332 60.0392 59.8166 59.9509 58.6001 59.9509C57.3835 59.9509 57.8544 58.9698 57.619 58.283H40.6457C40.2238 59.9509 40.2238 59.9509 38.4284 59.9509C37.6533 59.9509 36.8782 59.9509 36.1129 59.9509C35.3477 59.9509 35.073 59.6272 35.0828 58.8913C35.0828 56.5759 35.0828 54.2605 35.0828 51.9451C35.0547 51.0519 35.2937 50.1706 35.769 49.4138C36.2444 48.6571 36.9346 48.0593 37.7514 47.6968L37.6533 47.4712ZM57.9623 47.8244C57.838 46.6772 57.3043 45.6133 56.4592 44.8276C55.6141 44.0419 54.5141 43.5872 53.3609 43.5467C50.4961 43.4682 47.6214 43.4584 44.7664 43.5467C43.6146 43.5783 42.5159 44.0381 41.685 44.8364C40.854 45.6346 40.3506 46.714 40.2729 47.8636L57.9623 47.8244ZM49.0833 55.3495H52.939C53.8122 55.3495 54.0869 55.1042 54.1164 54.2114C54.1164 53.9171 54.1164 53.7307 54.1164 53.4363C54.1164 52.3964 53.7828 52.0922 52.7919 52.1118C50.4372 52.1707 48.0825 52.1118 45.7377 52.1118C44.0403 52.1118 44.0403 52.1118 44.06 53.8484C44.06 53.9956 44.06 54.1427 44.06 54.2801C44.06 55.0356 44.3445 55.3201 45.1098 55.3201C46.6109 55.3201 47.7588 55.3201 49.0342 55.3201M57.0597 54.0446C57.1247 54.0549 57.1909 54.0549 57.2559 54.0446C57.5393 54.0531 57.8227 54.0267 58.0997 53.9661L58.8257 53.8484L60.1502 53.7111H60.2876C61.0332 53.5737 61.0038 53.0145 60.9253 52.4356C60.8468 51.8568 60.68 51.3171 59.9442 51.4054C58.9631 51.5232 57.982 51.6605 57.0009 51.8175C56.1767 51.9549 56.1669 52.5926 56.3435 53.1714C56.4148 53.3777 56.521 53.5702 56.6575 53.7405C56.7285 53.8558 56.8143 53.9613 56.9126 54.0544C56.967 54.0961 57.0312 54.1231 57.099 54.1329M40.6359 54.1329C41.46 54.2801 41.7249 53.8288 41.8427 53.093C41.9604 52.3571 41.7936 51.8764 40.9891 51.7586L38.3891 51.3956C37.5258 51.2583 37.3393 51.7881 37.2216 52.4749C37.1039 53.1616 37.2805 53.6228 38.0457 53.7307L40.6457 54.1329" fill="#0033A1"/>
<path d="M34.8081 32.5485C34.7184 32.5247 34.6326 32.4884 34.5531 32.4405C34.3274 32.2768 34.1142 32.0964 33.9153 31.9009L32.2671 30.1349C32.2366 30.1121 32.2119 30.0825 32.1948 30.0484C32.1778 30.0143 32.1689 29.9768 32.1689 29.9387C32.1689 29.9006 32.1778 29.8631 32.1948 29.829C32.2119 29.795 32.2366 29.7653 32.2671 29.7425C33.9251 27.8489 35.6225 26.0437 37.2119 24.1796C38.3696 22.8551 39.5469 21.5109 40.6654 20.1864C40.8812 19.9313 40.8714 19.9412 41.1069 20.1864L44.3446 23.6694C44.5702 23.9049 44.7861 24.1698 44.9921 24.4248C45.1981 24.6799 45.2276 24.729 44.9234 24.9645C43.733 25.8736 42.5426 26.7828 41.3522 27.692L35.6225 31.999L34.8474 32.5485" fill="#0033A1"/>
<path d="M20.2776 47.9715L16.4611 43.8803C16.3434 43.7527 16.2354 43.6056 16.1177 43.478C16 43.3505 15.9607 43.2033 16.1177 43.0561L22.2595 38.4743C23.5643 37.4932 24.879 36.5121 26.1839 35.531C26.2692 35.4605 26.3653 35.4042 26.4684 35.3642C26.5045 35.3445 26.545 35.3341 26.5862 35.3341C26.6273 35.3341 26.6678 35.3445 26.7039 35.3642C27.358 36.051 28.0121 36.7476 28.6661 37.454C29.0978 37.9347 29.088 37.9445 28.6661 38.4351L20.464 47.7753C20.4068 47.8452 20.3445 47.9108 20.2776 47.9715Z" fill="#0033A1"/>
<path d="M30.3833 37.5913L29.0686 36.1393L26.9788 33.8337C26.8414 33.6865 26.8316 33.5982 26.9788 33.451L30.4225 30.2624C30.4432 30.2321 30.471 30.2072 30.5035 30.1901C30.536 30.1729 30.5722 30.1639 30.6089 30.1639C30.6457 30.1639 30.6818 30.1729 30.7143 30.1901C30.7468 30.2072 30.7746 30.2321 30.7953 30.2624L34.0722 33.8533C34.1006 33.8732 34.1237 33.8997 34.1397 33.9304C34.1557 33.9611 34.164 33.9953 34.164 34.0299C34.164 34.0645 34.1557 34.0987 34.1397 34.1294C34.1237 34.1601 34.1006 34.1866 34.0722 34.2065L30.5206 37.4834L30.3735 37.5913" fill="#0033A1"/>
<path d="M33.7092 43.4388C32.3517 43.9381 30.9041 44.1454 29.461 44.0471C29.2255 44.0471 29.147 43.949 29.1961 43.7234C29.2451 43.4977 29.1961 43.4683 29.1961 43.3309C29.1961 42.8305 29.1961 42.8305 29.7553 42.7913C30.3145 42.7521 30.7364 42.7913 31.2172 42.6638C33.4328 42.3374 35.472 41.2687 37.0013 39.6326C38.5305 37.9965 39.4591 35.8897 39.6351 33.6571C39.6399 33.618 39.6399 33.5785 39.6351 33.5394C39.6842 33.1764 39.6842 33.1764 40.0472 33.2156H40.3513C40.8615 33.2647 40.891 33.2745 40.8615 33.8043C40.8019 35.33 40.3636 36.8169 39.5861 38.131C38.6093 39.8332 37.2528 41.287 35.6224 42.3792C35.0141 42.7815 34.3371 43.0856 33.6601 43.4388" fill="#0033A1"/>
<path d="M36.2306 33.8827C36.6525 33.8827 37.045 33.8827 37.4374 33.8827C37.4963 33.8827 37.6042 34.0299 37.5944 34.1084C37.5926 34.4378 37.5597 34.7663 37.4963 35.0895C37.284 35.9298 36.9536 36.7358 36.5152 37.4834C36.0487 38.3883 35.3766 39.1712 34.5529 39.7694C34.0668 40.1105 33.5351 40.3813 32.9733 40.5739C32.0413 40.8486 31.07 40.9958 30.1085 41.1822C30.0398 41.1822 29.873 41.1135 29.8632 41.0547C29.8139 40.7297 29.7844 40.4021 29.7749 40.0736C29.7749 40.0049 29.8828 39.9068 29.9613 39.8773C30.1447 39.8106 30.336 39.7677 30.5304 39.7498C31.384 39.6334 32.2165 39.3955 33.0028 39.0434C33.5675 38.8163 34.0814 38.479 34.5143 38.0511C34.9472 37.6233 35.2905 37.1134 35.5242 36.5514C35.8625 35.7725 36.0903 34.9502 36.2012 34.1084C36.2012 34.0299 36.2012 33.9514 36.2012 33.8729" fill="#0033A1"/>
</g>
<defs>
<clipPath id="clip0_1869_16029">
<rect width="47.0836" height="40" fill="white" transform="translate(16 20)"/>
</clipPath>
</defs>
</svg>
