<svg width="47" height="52" viewBox="0 0 47 52" fill="none" xmlns="http://www.w3.org/2000/svg">
<path d="M4.1489 13.8515C4.1489 13.8515 4.16561 13.8515 4.17397 13.8556C4.41213 13.9506 4.39123 13.8226 4.33692 13.6698C4.40377 13.707 4.46644 13.7483 4.52493 13.7813C4.69206 13.5294 4.54583 13.1742 4.85501 12.9801C4.97617 12.9017 5.03049 12.7654 5.23522 12.8191C5.32296 12.8438 5.44831 12.6539 5.56947 12.6373C5.92044 12.5878 6.02489 12.3028 6.16695 12.0633C6.2714 11.8898 6.45942 11.8279 6.6349 11.9518C6.7686 12.0509 6.77278 11.9559 6.77696 11.8609C6.8062 11.8279 6.83545 11.7949 6.8647 11.7618C6.84381 11.7536 6.82292 11.7494 6.80203 11.7412L6.77696 11.8651C6.74771 11.8196 6.68086 11.7618 6.69339 11.7329C6.79367 11.5182 6.85634 11.2497 7.02347 11.1093C7.26162 10.9111 7.25327 10.6302 7.39532 10.4072C7.46217 10.304 7.53738 10.176 7.53738 10.0603C7.53738 9.78775 7.48724 9.51518 7.47053 9.23848C7.46635 9.15175 7.47053 9.04024 7.52067 8.9783C7.60423 8.87092 7.61677 8.78419 7.54991 8.67682C7.57916 8.67682 7.60841 8.68095 7.63766 8.68508C7.69197 8.71398 7.74211 8.74289 7.77971 8.75941C8.11397 8.26796 7.75047 7.98713 7.4956 7.67739C7.50813 7.53698 7.42039 7.35113 7.47889 7.28506C7.70868 7.00836 7.68362 6.74818 7.59587 6.42605C7.56663 6.31867 7.44964 6.33932 7.47053 6.25259C7.52902 6.03371 7.3243 6.00893 7.21148 5.94699C6.95244 5.79831 6.84799 5.49683 6.98169 5.22839C7.02765 5.13753 7.02347 5.01364 7.08614 4.9393C7.16135 4.84844 7.27416 4.74107 7.38279 4.72455C7.57498 4.69564 7.78389 4.74933 7.98026 4.71629C8.06383 4.7039 8.27691 4.72455 8.2226 4.5098C8.49835 4.44372 8.795 4.41068 9.04569 4.29504C9.30474 4.17528 9.54707 3.9977 9.74344 3.79946C9.86879 3.67144 10.0443 3.54341 10.2824 3.60949C10.2114 3.64253 10.1613 3.66731 10.0777 3.70861C10.295 3.78294 10.2323 3.86554 10.1362 3.97292C10.0108 4.10507 10.0484 4.16702 10.2281 4.20832C10.3743 4.24136 10.5122 4.3033 10.6543 4.35286C10.7378 4.38177 10.8214 4.41068 10.9091 4.43959C10.9259 4.41481 10.9384 4.39416 10.9551 4.36938C10.9091 4.20006 10.8674 4.03073 10.8172 3.86141C10.7378 3.5971 10.7587 3.56819 11.0428 3.55167C11.2142 3.53928 11.3855 3.53102 11.5609 3.51863C11.5317 3.46081 11.5108 3.41539 11.4857 3.36583C11.5024 3.3204 11.5192 3.27084 11.5317 3.22541C11.5651 3.20889 11.5944 3.19237 11.6278 3.17586C11.6737 3.20889 11.7239 3.2378 11.7698 3.27084C11.8074 3.32866 11.8451 3.38648 11.9035 3.47733C11.9411 3.403 11.9746 3.33692 12.0122 3.27084C12.054 3.25845 12.0957 3.24606 12.1417 3.2378C12.1417 3.22541 12.1417 3.21302 12.1375 3.20063C12.0957 3.19237 12.054 3.18411 12.0164 3.17999C11.9996 3.17999 11.9829 3.17999 11.9662 3.17999C11.9495 3.11804 11.937 3.05196 11.9203 2.99001C11.9537 2.95697 11.9829 2.92806 12.0164 2.89503C12.242 2.82482 12.4509 2.70092 12.7057 2.75048C12.8353 2.77526 12.9732 2.79591 13.1027 2.79178C13.3993 2.77939 13.6918 2.74635 14.0177 2.71744C14.0177 2.7257 14.0219 2.66788 14.0302 2.61007C14.0469 2.59768 14.0636 2.58116 14.0804 2.56877C14.2182 2.70918 14.3603 2.767 14.5274 2.61007C14.5692 2.56877 14.6402 2.55638 14.6904 2.51921C14.7906 2.44487 14.916 2.38705 14.9787 2.28794C15.1124 2.08144 15.2335 1.87908 15.4968 1.82539C15.4759 1.77171 15.4591 1.73041 15.4424 1.68498C15.7015 1.69737 15.714 1.72215 15.6639 1.90799C15.7474 2.18882 15.8018 2.37879 15.8644 2.59355C16.0441 2.44074 16.2405 2.33337 16.3449 2.16817C16.4494 2.00711 16.4577 1.7841 16.5204 1.55695C16.5622 1.6602 16.5872 1.72215 16.6374 1.8543C16.6583 1.70563 16.6708 1.63129 16.6833 1.54043C16.7377 1.56108 16.7794 1.5776 16.817 1.59412C16.8003 1.5776 16.7836 1.56108 16.7669 1.54456C16.909 1.38763 17.051 1.2307 17.1805 1.08615C17.2934 1.13158 17.3686 1.16049 17.4939 1.21418C17.4605 1.09854 17.4438 1.04485 17.4271 0.987034C17.4354 0.958125 17.4438 0.929216 17.4521 0.896178C17.5064 0.863139 17.6151 0.817711 17.6109 0.792931C17.5775 0.607088 17.4438 0.54514 17.2641 0.598828V0.355167H17.3853C17.4396 0.243661 17.4897 0.144545 17.5649 0C17.6777 0.165194 17.7279 0.334518 17.8282 0.371687C18.1499 0.491452 18.1206 0.875528 18.3755 1.03246C18.4256 1.06137 18.4507 1.13158 18.4883 1.18114C18.5343 1.11919 18.5844 1.05724 18.6304 0.991164C18.6638 1.01181 18.693 1.02833 18.7265 1.04898C18.7599 1.05724 18.7933 1.0655 18.8309 1.07789C18.8727 1.07789 18.9187 1.07789 18.9604 1.07789C19.0858 1.07789 19.1944 1.09441 19.2237 1.24309C19.232 1.28851 19.278 1.32568 19.3072 1.36698C19.3239 1.3835 19.3406 1.40002 19.3574 1.42067C19.3991 1.47023 19.4451 1.52392 19.4869 1.57347C19.4952 1.58586 19.4994 1.59412 19.5078 1.60651C19.5203 1.59412 19.5328 1.58586 19.5454 1.57347C19.9841 1.51153 20.31 1.6602 20.5648 2.03602C20.7236 2.27142 20.9618 2.45313 21.1665 2.65962C21.4297 2.9198 21.8016 2.92393 22.1233 3.0437C22.2236 3.11804 22.3238 3.19237 22.4199 3.27084C22.6497 3.4443 22.8795 3.62188 23.1135 3.7912C23.1511 3.81598 23.1929 3.83663 23.2305 3.85728C23.2305 3.88206 23.2305 3.90271 23.2347 3.92749C23.2723 4.12985 23.3851 4.17941 23.5689 4.08442H23.665C23.8071 4.26614 23.9491 4.17941 24.0954 4.08855C24.1581 4.08855 24.2207 4.08855 24.2876 4.08855C24.4923 4.1505 24.7012 4.21658 24.9059 4.27853C24.977 4.41894 24.8725 4.67086 25.1608 4.67912C25.1901 4.68738 25.2193 4.69564 25.2486 4.7039C25.47 4.83192 26.0006 4.73281 26.2597 4.5098C26.3641 4.5098 26.4686 4.5098 26.573 4.5098C26.7736 4.5098 26.878 4.60065 26.8864 4.81128C26.9073 5.45553 27.4713 5.98828 28.1231 5.98002C28.566 5.97589 28.6913 6.1287 28.7122 6.63667C28.7248 6.97119 28.754 7.30571 28.8125 7.63196C28.8961 8.10277 29.0632 8.18536 29.5729 8.30926C29.8738 8.37947 30.1788 8.43729 30.4838 8.50336C30.5047 8.51575 30.5214 8.52814 30.5423 8.5364C30.5673 8.54879 30.5882 8.56118 30.6133 8.57357C30.6676 8.57357 30.7219 8.5777 30.7762 8.58183C30.8389 8.58183 30.8974 8.5777 30.9601 8.57357C31.2191 8.54466 31.4782 8.51575 31.7414 8.48684C31.8082 8.55292 31.8626 8.63139 31.9378 8.68095C32.0756 8.76767 32.2219 8.84201 32.3639 8.91635C32.4057 8.937 32.4559 8.94939 32.5018 8.96591C32.4433 8.99481 32.389 9.02372 32.3305 9.05263C32.6857 9.05263 32.9029 9.28803 33.1661 9.45323C33.3375 9.56061 33.5965 9.53996 33.8138 9.55647C33.9475 9.56473 34.0812 9.52757 34.2149 9.52757C34.3486 9.52757 34.4823 9.5606 34.6745 9.58125C34.6076 9.49866 34.5867 9.46562 34.5616 9.43671C34.5825 9.40367 34.5993 9.37476 34.6201 9.34172C34.7455 9.31281 34.875 9.26326 35.0004 9.26326C35.109 9.26326 35.2218 9.32933 35.3304 9.36237C35.4516 9.39954 35.556 9.40367 35.6104 9.58125C35.6605 9.74232 35.8903 9.68037 36.0532 9.66798C36.1243 9.66798 36.1953 9.66798 36.2621 9.65972C36.5003 9.63081 36.7468 9.45323 36.9348 9.64733C37.0393 9.6019 37.1229 9.56473 37.2064 9.52344C37.2273 9.54821 37.244 9.57299 37.2649 9.59777L37.2816 9.58125C37.2566 9.5606 37.2315 9.54408 37.2064 9.52344C37.2148 9.50279 37.2189 9.46149 37.2273 9.46149C37.4696 9.4078 37.478 9.26739 37.4571 9.04437C37.4279 8.74702 37.2858 8.4249 37.5407 8.1482C37.5574 8.1482 37.5699 8.1482 37.5866 8.1482C37.7955 8.12755 37.9543 8.02843 38.0922 7.87563C38.1298 7.8302 38.2217 7.8302 38.2886 7.80955C38.2969 7.86737 38.3053 7.92518 38.3094 7.96235C38.6938 8.1771 39.1075 8.27622 39.5712 8.25557C39.5253 8.1771 39.4919 8.11929 39.4626 8.06147C39.5587 8.17297 39.659 8.28861 39.7885 8.43729C39.7467 8.43316 39.776 8.44555 39.7927 8.43729C40.2063 8.26383 40.3818 8.54466 40.5656 8.82136C40.6576 8.96178 40.7578 9.09806 40.8539 9.23435C40.8289 9.32107 40.8038 9.4078 40.7704 9.53583C40.9375 9.69689 41.1088 9.87447 41.301 10.0355C41.4263 10.1388 41.5935 10.2007 41.7021 10.3122C41.8943 10.5063 42.1742 10.6302 42.2411 10.9317C42.2411 10.9358 42.2703 10.9358 42.3038 10.94C42.3121 10.8822 42.3246 10.8202 42.3414 10.7294C42.4458 10.783 42.5294 10.8285 42.6088 10.8656C42.6631 10.8904 42.7425 10.9482 42.7759 10.9317C42.9848 10.8202 43.2438 11.0267 43.436 10.8119C43.4611 10.7872 43.553 10.7913 43.5948 10.8161C43.7954 10.9276 43.9959 11.0432 44.1839 11.1712C44.3845 11.3075 44.5767 11.4562 44.7689 11.6008C44.8608 11.671 44.9443 11.7536 45.0363 11.8279C45.0739 11.8568 45.1157 11.8898 45.1574 11.9064C45.2201 11.927 45.2869 11.9311 45.3496 11.9518C45.4081 11.9724 45.4583 12.0096 45.5669 12.0716C45.5376 11.9394 45.5251 11.8733 45.5084 11.8072H45.6045C45.6212 11.832 45.6379 11.8609 45.6546 11.8898C45.8426 12.0179 46.0348 12.1459 46.2438 12.2822C45.8426 12.3152 45.429 12.3483 45.0028 12.3854C45.0279 12.2863 45.0404 12.2409 45.0446 12.2285C44.89 12.2037 44.748 12.1583 44.6143 12.1665C44.3134 12.1913 44.0753 11.9477 43.7619 12.0179C43.5823 12.0592 43.4151 12.2409 43.4569 12.4887C43.482 12.6373 43.5906 12.7571 43.7828 12.7034C43.8789 12.7241 43.975 12.7406 44.0711 12.7612C44.138 12.7778 44.2048 12.7943 44.2591 12.8314C44.4346 12.9388 44.6101 13.0503 44.7814 13.1618C44.7271 13.1784 44.6686 13.1949 44.6602 13.1949C44.773 13.4716 44.8733 13.7318 44.9819 13.9919C45.0864 14.248 45.1783 14.5082 45.3078 14.7518C45.4165 14.9501 45.5752 15.1153 45.6713 15.2391C45.8594 15.3094 45.9972 15.3589 46.1351 15.4085C46.1435 15.4622 46.1518 15.5117 46.1644 15.5654C46.39 15.4911 46.3524 15.7058 46.4276 15.8008C46.4443 15.8215 46.461 15.8504 46.4861 15.8628C46.5404 15.8917 46.5947 15.9082 46.649 15.9288C46.5989 15.9743 46.5529 16.0238 46.5028 16.0693C46.4735 16.0982 46.4485 16.1271 46.39 16.1931H46.6281C46.5905 16.3583 46.5571 16.507 46.5237 16.6557C46.5237 16.6846 46.532 16.7176 46.5362 16.7465H46.5195L46.5112 16.7383C46.4735 16.7713 46.4025 16.8002 46.4025 16.8333C46.3983 16.9943 46.4151 17.1554 46.4151 17.3165C46.4151 17.7171 46.5696 18.2994 46.766 18.6008C46.7786 18.5389 46.7953 18.4687 46.812 18.4026C46.8454 18.5761 46.8788 18.7495 46.9081 18.923C46.9373 19.0221 46.9666 19.1212 47 19.2203C46.8496 19.2203 46.6992 19.2079 46.5529 19.2245C46.2563 19.2616 45.9972 19.2245 45.805 18.9684C45.78 18.9312 45.7591 18.8982 45.734 18.861L45.7215 18.8486C45.6713 18.8321 45.617 18.8197 45.5669 18.8032C45.5376 18.9065 45.5084 19.0097 45.4791 19.1129C45.4791 19.1625 45.4792 19.2079 45.475 19.2575C45.4457 19.3236 45.4207 19.3897 45.3914 19.4557C45.3914 19.4846 45.3914 19.5135 45.3872 19.5425C45.3705 19.6209 45.3496 19.6994 45.3329 19.7779C45.2828 19.9224 45.2326 20.0628 45.1825 20.2074L45.0488 20.1372C45.0028 20.2321 44.9443 20.3271 44.9151 20.4262C44.8817 20.5419 44.8942 20.6699 44.865 20.7814C44.7856 21.0622 44.6853 21.3389 44.6101 21.6198C44.4722 22.1401 44.3469 22.6687 44.2132 23.1891C44.2006 23.2469 44.1463 23.3047 44.1547 23.3543C44.1965 23.5608 44.0962 23.6764 43.9332 23.7632C43.8998 23.7962 43.8706 23.8251 43.8371 23.8581C43.8539 23.9366 43.8664 24.0151 43.8831 24.0935C43.8831 24.1225 43.8831 24.1472 43.8831 24.1761C43.8538 24.1968 43.8204 24.2174 43.7912 24.2381C43.7076 24.1059 43.6993 24.1101 43.599 24.2877C43.4193 24.2546 43.0809 24.4652 43.1018 24.6139C43.1227 24.8039 43.014 24.8576 42.8678 24.903C42.8469 24.9113 42.8302 24.9237 42.8051 24.9319C42.8218 24.9773 42.8386 25.0186 42.8594 25.0723C42.7926 25.0765 42.7383 25.0847 42.684 25.0888C42.6631 25.0641 42.6464 25.0393 42.6255 25.0145C42.6213 25.0186 42.6171 25.0228 42.6088 25.031C42.6338 25.0517 42.6589 25.0682 42.6798 25.0888C42.6881 25.2375 42.6756 25.3655 42.4625 25.2912V25.5142C42.3748 25.5018 42.3079 25.4936 42.2285 25.4853C42.1909 25.572 42.1492 25.6629 42.1074 25.7496C42.0196 25.8653 41.9319 25.985 41.8316 26.1213C41.535 26.1089 41.5057 26.3897 41.3846 26.588C41.2843 26.7532 41.1882 26.9638 41.0336 27.0381C40.8414 27.1331 40.7662 27.2529 40.7411 27.4346C40.6785 27.4181 40.6367 27.4057 40.645 27.4057C40.5865 27.5172 40.5364 27.5957 40.4988 27.6741C40.3735 27.9302 39.9765 27.9591 39.9556 28.306C39.9556 28.3308 39.8721 28.339 39.8386 28.3679C39.7217 28.4712 39.5211 28.5166 39.5629 28.7355C39.3916 28.8387 39.2203 28.9461 39.0448 29.0535C38.8568 28.942 38.7649 28.9544 38.7732 29.1072C38.7816 29.3178 38.6103 29.45 38.4891 29.4789C38.1925 29.545 38.1214 29.9497 37.7746 29.9001C37.7705 29.9001 37.7621 29.9125 37.7496 29.9249C37.7496 29.9745 37.7579 30.0323 37.7621 30.0942C37.7036 30.0777 37.6242 30.0529 37.6242 30.0529C37.5616 30.247 37.3735 30.2594 37.2315 30.3503C36.8972 30.565 36.563 30.7963 36.2914 31.0771C35.9655 31.4116 35.6271 31.6883 35.18 31.8453C35.0547 31.8907 34.9502 31.9981 34.8165 32.0889C34.7914 32.0766 34.733 32.0435 34.6369 31.9981C34.6619 32.0848 34.6745 32.1344 34.6828 32.1715C34.3987 32.2913 34.0394 32.0889 33.843 32.4358C33.8346 32.4524 33.797 32.4482 33.7762 32.4565C33.4711 32.5597 33.1661 32.6589 32.8653 32.7621C32.7316 32.8075 32.6063 32.8695 32.4684 32.9149C32.2971 32.9686 32.1258 33.0223 31.9461 33.0595C31.8751 33.076 31.7957 33.0512 31.7247 33.0305C31.6787 33.0182 31.6369 32.9851 31.5534 32.9397C31.6578 33.2907 31.3194 33.1834 31.2233 33.3196C31.2526 33.3816 31.2776 33.4353 31.3027 33.489C30.8849 33.6294 30.4712 33.7698 30.0534 33.9143C29.8779 33.9804 29.7025 34.0465 29.527 34.1126C29.4977 34.1167 29.4685 34.1208 29.4392 34.125C29.3431 34.1497 29.2429 34.1663 29.1468 34.2034C28.7874 34.3397 28.4323 34.4801 28.0772 34.6205C27.8724 34.6866 27.6677 34.7527 27.463 34.8188C27.2374 34.8972 27.0117 34.9757 26.7903 35.0583C26.761 35.0624 26.7318 35.0666 26.7025 35.0707C26.573 35.1244 26.4393 35.1739 26.3098 35.2276C25.5703 35.3763 24.9477 35.7191 24.4923 36.3262C24.2625 36.6359 24.0369 36.9498 23.8071 37.2595C23.7862 37.2884 23.7486 37.3091 23.7152 37.3297C23.4185 37.4908 23.2556 37.751 23.1093 38.0401C23.0425 38.1722 22.9255 38.2878 22.8043 38.3787C22.5035 38.6058 22.4868 38.7297 22.7542 38.9817C23.0007 39.2129 22.938 39.5185 22.6247 39.6301C22.5745 39.6466 22.5202 39.659 22.4784 39.692C22.303 39.8242 22.2278 39.7952 22.186 39.5764C22.1567 39.4318 22.1317 39.2873 22.0899 39.1469C22.0188 38.9156 21.8308 38.8495 21.6136 38.8454C21.3545 38.771 21.1707 38.8578 21.179 39.0477C21.1832 39.2212 21.1957 39.3946 21.1999 39.5722C21.1957 39.6011 21.1874 39.63 21.1832 39.6631C21.0871 39.8778 20.9994 40.0967 20.8949 40.3115C20.7487 40.6088 20.8448 40.9186 20.8322 41.2242C20.7194 41.2655 20.6066 41.2985 20.686 41.4637C20.7236 41.5463 20.732 41.6413 20.7445 41.7321C20.7779 41.9304 20.803 42.1203 20.5732 42.2401C20.4938 42.2814 20.4311 42.3599 20.3601 42.4218C20.2891 42.5333 20.2139 42.649 20.1429 42.7605C20.1345 42.8224 20.1261 42.8802 20.122 42.9422C20.1053 42.9959 20.0885 43.0537 20.0676 43.1074C20.0092 43.2437 19.9465 43.38 19.8838 43.5162C19.8378 43.5162 19.7919 43.5245 19.7459 43.5286C19.6791 43.5699 19.6164 43.6154 19.5496 43.6567C19.537 43.6567 19.5245 43.6649 19.512 43.6649C19.5203 43.6773 19.5287 43.6938 19.5412 43.7062C19.5287 43.8136 19.4911 43.921 19.5036 44.0242C19.5454 44.3505 19.4117 44.6313 19.2905 44.9204C19.1443 45.2673 19.0064 45.6183 18.8602 45.9652C18.8351 46.0272 18.8226 46.1098 18.7724 46.1511C18.4799 46.3906 18.5552 46.7045 18.5886 47.0101C18.5928 47.0638 18.6345 47.1257 18.6805 47.1588C18.8602 47.2827 18.9646 47.4189 18.8184 47.6296C18.7557 47.7204 18.6554 47.803 18.6387 47.9021C18.5928 48.1788 18.5468 48.4473 18.2961 48.6249C17.9619 48.7612 17.6025 48.8644 17.2975 49.0502C17.026 49.2154 16.792 49.4632 16.5914 49.711C16.4243 49.9175 16.5455 50.1612 16.6583 50.3635C16.8672 50.7476 16.6875 50.9376 16.3449 50.9211C16.0357 50.9087 16.019 50.9541 15.8937 51.4332C15.8603 51.5612 15.7976 51.6975 15.7057 51.7925C15.4383 52.0733 15.3672 52.065 15.0748 51.7925C15.0622 51.7512 15.0539 51.6851 15.033 51.6768C14.9035 51.6438 14.7698 51.6107 14.6361 51.6025C14.2182 51.5694 13.7962 51.5488 13.3784 51.5199L13.3868 51.5075C13.3868 51.4869 13.3868 51.4621 13.3868 51.4414L13.3492 51.5034C13.2614 51.4001 13.1737 51.2969 13.086 51.1895L13.0776 51.1854C12.9606 51.111 12.8478 51.0367 12.7308 50.9665C12.7057 50.8178 12.6473 50.7063 12.4843 50.6402C12.2963 50.5659 12.1835 50.4131 12.1208 50.2107C12.0623 50.0125 11.9244 49.839 11.8701 49.6449C11.7907 49.3641 11.7406 49.0792 11.54 48.8438C11.5024 48.7983 11.5693 48.6579 11.5902 48.5671C11.6278 48.406 11.6654 48.2449 11.703 48.0839C11.7531 48.1706 11.8033 48.2573 11.8451 48.3316C11.9871 48.1045 11.937 47.9723 11.6403 47.8774C11.586 47.8608 11.5275 47.865 11.4816 47.8402C11.3479 47.7659 11.1849 47.7039 11.1013 47.5883C10.93 47.3487 10.3493 47.1712 10.0819 47.2992C9.8855 47.3942 9.68077 47.4809 9.47186 47.5428C9.20028 47.6213 8.99973 47.4685 8.95795 47.1877C8.94959 47.1381 8.89528 47.0679 8.84514 47.0514C8.55685 46.9523 8.26438 46.8573 7.97191 46.7788C7.89252 46.7582 7.79643 46.7912 7.70451 46.7995C7.70451 46.8325 7.70451 46.8614 7.70868 46.8945C7.81314 46.8945 7.92595 46.8697 8.02622 46.8986C8.25184 46.9647 8.54849 46.9151 8.64041 47.229C8.41479 47.1092 8.18499 47.0349 7.91759 47.0184C7.56663 46.9977 7.35772 46.6838 7.10285 46.4732C6.84381 46.2585 6.51791 46.1263 6.15441 46.1924C5.88283 46.2419 5.79509 46.4567 5.71153 46.6797C5.62379 46.9151 5.48591 47.0927 5.2394 47.1794C5.14748 47.101 5.05556 47.072 4.95111 47.1712C4.88426 47.2372 4.79234 47.2744 4.71713 47.3322C4.5124 47.4892 4.31603 47.6172 4.06534 47.4066C3.99849 47.3487 3.90239 47.324 3.8439 47.2909C3.76033 46.9688 3.96089 46.8366 4.20322 46.7293C4.23246 46.7169 4.245 46.6714 4.25753 46.6343C4.29096 46.531 4.30349 46.4113 4.35781 46.3245C4.4748 46.1428 4.62103 45.9735 4.75473 45.8C4.81323 45.8083 4.87172 45.8166 4.95111 45.8248C4.93857 45.7381 4.94275 45.6762 4.91768 45.6225C4.89261 45.5605 4.82576 45.511 4.80487 45.4449C4.72966 45.226 4.63357 45.1723 4.41213 45.2549C4.33692 45.2838 4.27007 45.3292 4.19486 45.354C3.99013 45.4201 3.76033 45.2549 3.74362 45.0525C3.73109 44.8956 3.71437 44.7304 3.65588 44.59C3.5556 44.3629 3.62245 44.177 3.75616 44.0036C3.88986 43.826 4.09459 43.8136 4.27842 43.859C4.43719 43.9003 4.57507 44.0118 4.73802 44.0986C4.73802 44.0366 4.74638 43.9705 4.75056 43.9044C4.97617 43.9499 5.13494 43.8425 5.24358 43.6649C5.42324 43.3717 5.68646 43.1982 6.004 43.0909C6.24633 43.0083 6.27558 42.905 6.12099 42.7109C6.07921 42.6614 6.07085 42.587 6.04578 42.5251C5.99564 42.397 5.94968 42.269 5.90372 42.141C5.91208 42.1286 5.92461 42.1162 5.93297 42.108L5.89955 42.0997C5.8703 42.0667 5.83687 42.0336 5.80763 42.0006C5.80763 41.8726 5.80763 41.7487 5.80763 41.6206C5.80763 41.5752 5.80763 41.5257 5.80763 41.4802C5.80763 41.3233 5.80763 41.1664 5.8118 41.0053C5.8118 40.8938 5.8118 40.7823 5.8118 40.6708C5.79509 40.6212 5.77838 40.5758 5.76167 40.5262C5.74495 40.5138 5.72824 40.4973 5.71153 40.4849C5.57365 40.4023 5.53605 40.2991 5.59454 40.138C5.63214 40.043 5.60708 39.9274 5.61125 39.82C5.57783 39.7911 5.5444 39.7663 5.51516 39.7374C5.50262 39.7333 5.48591 39.7292 5.4692 39.725C5.44831 39.6259 5.42324 39.5309 5.40235 39.4318C5.40235 39.3699 5.4107 39.3079 5.41488 39.246C5.40235 39.2005 5.38563 39.1551 5.3731 39.1056C5.31043 39.089 5.24775 39.0684 5.18508 39.0519C5.13494 39.0395 5.08481 39.0271 5.03885 39.0147C4.99289 38.9941 4.94693 38.9775 4.90515 38.9569C4.90097 38.8578 4.89261 38.7586 4.88843 38.6595H5.14748C5.16001 38.5769 5.1809 38.4654 5.19762 38.3539C5.26447 38.3704 5.3355 38.387 5.40235 38.3994C5.49009 38.4159 5.57783 38.4407 5.66557 38.4365C5.78256 38.4365 5.89955 38.387 6.01653 38.3994C6.45524 38.4448 6.71428 38.2424 6.8647 37.8542C6.90648 37.7386 6.9608 37.6312 7.01093 37.5197C7.11539 37.2967 7.25327 37.2884 7.40368 37.4908C7.39114 37.5899 7.37025 37.689 7.36608 37.7881C7.36608 37.817 7.42039 37.846 7.44964 37.8749C7.49142 37.8955 7.55827 37.9492 7.57916 37.9327C7.7254 37.8336 7.89252 37.7427 7.98862 37.6064C8.15575 37.3586 8.44822 37.1563 8.36048 36.7887C8.35212 36.7598 8.36465 36.7268 8.38137 36.6979C8.51925 36.4459 8.65712 36.194 8.79082 35.938C8.81589 35.8925 8.82843 35.8347 8.83678 35.7852C8.87021 35.4713 8.84932 35.1533 8.98302 34.8518C9.0248 34.761 9.00809 34.6494 9.02062 34.5132C8.92453 34.6742 8.86185 34.7775 8.79918 34.8807C8.84514 34.6618 8.8911 34.4388 8.94124 34.2199C9.04569 34.0258 9.15015 33.8317 9.2546 33.6376C9.25878 33.5922 9.26713 33.5468 9.27131 33.5014C9.28802 33.4683 9.30056 33.4353 9.31727 33.4064C9.33398 33.3279 9.35487 33.2494 9.37159 33.171C9.38412 33.1379 9.39666 33.1049 9.41337 33.0718C9.48022 32.9603 9.54289 32.8488 9.60974 32.7415C9.79358 32.6506 9.91893 32.5184 9.92728 32.3078C9.92728 32.2335 9.92728 32.1591 9.92728 32.0889C9.89803 31.9898 9.86879 31.8948 9.83954 31.7957C9.83954 31.7544 9.83954 31.7131 9.84372 31.6677C9.86043 31.519 9.97324 31.3538 9.67241 31.329C9.51364 31.3167 9.35487 31.1845 9.36741 30.9656C9.36741 30.9078 9.35488 30.8252 9.31309 30.788C9.15015 30.6518 9.13761 30.4783 9.13761 30.2883C9.13761 30.0323 9.09165 29.7762 9.10836 29.5202C9.1209 29.3137 9.15015 29.1237 8.97048 28.9668C8.94124 28.9379 8.9287 28.8553 8.94542 28.814C9.02062 28.6488 9.08747 28.4753 9.19611 28.3349C9.33398 28.1573 9.51782 28.0169 9.67659 27.8517C9.80194 27.7196 9.76016 27.6576 9.58467 27.67C9.34234 27.6535 9.05823 27.8476 9.04151 28.0458C8.99973 28.0747 8.95377 28.1367 8.91617 28.1325C8.72397 28.1036 8.65295 28.2399 8.60699 28.3638C8.42315 28.8305 8.42315 29.2848 8.7574 29.6978C8.7574 29.7845 8.76158 29.8753 8.7574 29.9621C8.74069 30.3048 8.7198 30.6435 8.6989 30.9863C8.6989 31.3538 8.74069 31.7503 8.46075 32.027C8.25184 32.2335 7.95937 32.3904 7.67944 32.4854C7.54574 32.5308 7.32012 32.4193 7.17806 32.3202C7.06525 32.2417 7.04854 32.0931 7.19059 31.9692C7.3243 31.8494 7.42875 31.6966 7.54991 31.5603C7.6669 31.4529 7.8006 31.4075 7.92177 31.5232C8.07636 31.6677 8.13903 31.5686 8.21006 31.4612C7.92595 31.3001 7.63766 31.3001 7.34519 31.3745C7.34519 31.2919 7.34101 31.2093 7.33683 31.1308C7.3995 31.0028 7.458 30.8748 7.52067 30.7426C7.52067 30.6972 7.52485 30.6518 7.52902 30.6063C7.55409 30.5609 7.57498 30.5196 7.60005 30.4742C7.64183 30.4494 7.68362 30.4205 7.7254 30.3957C7.90506 30.3627 8.03876 30.2883 8.00951 30.0612C7.86745 30.1231 7.75464 30.1768 7.63766 30.2264C7.60423 30.2305 7.57498 30.2388 7.54156 30.2429C7.54991 30.2346 7.54991 30.2264 7.54156 30.2181C7.53738 30.1314 7.52902 30.0447 7.52485 29.9455C7.47053 29.9662 7.44964 29.9662 7.44128 29.9786C7.24491 30.2346 7.03182 30.4824 7.00676 30.8293C7.00258 30.9037 6.96079 30.978 6.91901 31.04C6.84381 31.1556 6.75189 31.2588 6.67668 31.3745C6.48449 31.6553 6.29647 31.9444 6.10428 32.2294C6.004 32.1385 5.93715 32.0807 5.87448 32.0229C5.85359 32.027 5.8327 32.0353 5.8118 32.0394C5.99982 32.2748 5.83687 32.3367 5.68646 32.4111C5.6029 32.2954 5.52351 32.1881 5.44831 32.0807C5.42742 32.0931 5.4107 32.1055 5.38981 32.1137C5.45248 32.2624 5.51098 32.4069 5.57365 32.5556C5.50262 32.5515 5.43577 32.5474 5.36474 32.5432C5.36474 32.63 5.34803 32.7249 5.37728 32.8034C5.43995 32.9727 5.66139 33.0512 5.63214 33.2825C5.60708 33.4601 5.52769 33.5509 5.35221 33.4807C5.16001 33.4022 4.972 33.3031 4.80069 33.1834C4.58761 33.0347 4.38706 32.8777 4.12383 32.791C3.78958 32.6836 3.56814 32.4028 3.36759 32.122C3.01662 31.6347 2.58627 31.2217 2.10579 30.8624C2.0264 30.8046 1.92195 30.7798 1.83003 30.7426C1.88435 30.6931 1.94284 30.6435 2.00969 30.5774C1.72558 30.5196 1.45817 30.4866 1.20749 30.404C1.00693 30.3379 0.710285 30.3751 0.697751 30.119C0.476309 30.0075 0.300827 29.9208 0.142057 29.8423C0.100276 29.8919 0.0543159 29.9414 0.0125344 29.991C0.0125344 29.9455 0.00417815 29.896 0 29.8506C0.029247 29.7969 0.083563 29.7391 0.0793848 29.6895C0.0501378 29.483 0.104454 29.3509 0.325896 29.2889C0.426171 29.26 0.513912 29.1857 0.618366 29.1278C0.584941 29.0659 0.559872 29.0122 0.530625 28.9626C0.689395 28.8264 0.848164 28.6942 1.00276 28.5579C1.22002 28.496 1.33283 28.3473 1.37461 28.1367C1.37461 27.9054 1.37461 27.6741 1.37461 27.4429C1.39968 27.3479 1.42475 27.2529 1.44982 27.1579C1.49578 27.0918 1.5877 27.0175 1.57934 26.9597C1.55009 26.7697 1.48742 26.5797 1.43728 26.3939C1.42475 26.3608 1.41221 26.3278 1.39968 26.2948C1.39132 26.2493 1.38297 26.2039 1.37461 26.1585C1.34536 26.0759 1.31612 25.9974 1.28687 25.9148C1.28687 25.8694 1.28269 25.824 1.27851 25.7785C1.20331 25.6175 1.13228 25.4564 1.05707 25.2953C0.927549 25.0269 0.810561 24.7502 0.664326 24.4941C0.551516 24.2959 0.593297 24.1348 0.706107 23.9655C0.747889 23.9036 0.818917 23.8292 0.810561 23.7673C0.772958 23.4906 0.898302 23.3047 1.09885 23.1396C1.13228 23.1106 1.17406 23.0611 1.16988 23.0239C1.11139 22.5779 1.54592 22.1319 1.15735 21.69C1.22838 21.69 1.30358 21.69 1.36208 21.69C1.25762 21.5372 1.1657 21.405 1.08214 21.2729C1.01111 21.1614 0.96933 21.0127 0.873233 20.9342C0.651791 20.7566 0.505556 20.5377 0.401102 20.2817C0.305005 20.0463 0.263223 19.8481 0.488843 19.6374C0.643435 19.4929 0.726998 19.2781 0.839808 19.1006C0.944262 19.0923 1.08632 19.0923 1.22838 19.0717C1.36208 19.0551 1.49578 19.0138 1.63366 18.9932C1.78407 18.9684 1.93448 18.956 2.08907 18.9395C2.15175 18.9354 2.23531 18.9147 2.27709 18.9436C2.42333 19.0593 2.55285 18.9932 2.68237 18.923C3.04587 18.7206 3.22135 18.3489 3.46786 18.0433C3.49293 18.0103 3.46786 17.9442 3.46786 17.8905C3.47204 17.6427 3.40937 17.3949 3.5765 17.1595C3.68095 17.0109 3.72273 16.8209 3.81465 16.602C3.69766 16.6722 3.63499 16.7135 3.56814 16.7507C3.56396 16.7342 3.5556 16.7176 3.55143 16.7011C3.61828 16.6309 3.68513 16.5607 3.7478 16.4905C3.93582 16.602 4.08205 16.5772 4.17815 16.3707C4.19904 16.3294 4.21993 16.284 4.245 16.2427C4.32021 16.3129 4.39959 16.379 4.4748 16.4492C4.44973 16.5814 4.52076 16.6144 4.64192 16.6103C4.88843 16.5979 5.13494 16.5648 5.38146 16.5814C5.54023 16.5937 5.63214 16.5442 5.61125 16.4038C5.59454 16.3005 5.51516 16.1601 5.42741 16.1229C5.29789 16.0693 5.13494 16.0858 4.98871 16.0982C4.78398 16.1188 4.55418 15.9867 4.48733 15.8008C4.45808 15.7223 4.39123 15.6604 4.34527 15.5902L4.27007 15.6067C4.29514 15.5241 4.32021 15.4374 4.3411 15.3548C4.19068 15.3383 4.10294 15.1813 4.14055 15.0285C4.15308 14.979 4.13219 14.8964 4.09876 14.8592C3.96924 14.7105 3.82301 14.5784 3.66424 14.4173C3.89821 14.281 4.08205 14.1736 4.27007 14.0621C4.21993 13.9713 4.18651 13.9093 4.1489 13.8515Z" fill="#0033A1"/>
</svg>
