<svg width="52" height="52" viewBox="0 0 52 52" fill="none" xmlns="http://www.w3.org/2000/svg">
<path d="M26 52C40.3594 52 52 40.3594 52 26C52 11.6406 40.3594 0 26 0C11.6406 0 0 11.6406 0 26C0 40.3594 11.6406 52 26 52Z" fill="#0033A1"/>
<path d="M24.305 10.4C25.0307 10.5609 25.5491 11.0256 26.0531 11.5404C27.526 13.0347 29.0238 14.5075 30.5003 16.0018C31.7014 17.2173 31.3439 19.1727 29.8067 19.8305C29.4171 19.9985 29.0024 20.0808 28.5841 19.9914C28.3553 19.9449 28.2016 19.9985 28.0515 20.1701C27.9085 20.3274 27.7333 20.4525 27.551 20.6134C28.2338 21.0209 28.5913 21.55 28.5734 22.2936C28.5663 22.6547 28.4554 22.9836 28.2302 23.2624C28.123 23.3982 28.1265 23.4662 28.2624 23.5841C30.99 25.9578 33.7141 28.3351 36.4381 30.7124C37.7108 31.8242 38.9834 32.936 40.2632 34.0442C40.9389 34.6305 41.4 35.3383 41.5359 36.2356C41.543 36.2821 41.568 36.3249 41.5823 36.3678V37.1865C41.5645 37.258 41.5394 37.3331 41.5251 37.4046C41.2427 38.7022 40.4777 39.5924 39.2444 40.0714C39.0013 40.1644 38.7439 40.2108 38.4901 40.2788H37.6142C37.5892 40.2645 37.5678 40.2394 37.5427 40.2359C36.6347 40.1 35.9162 39.646 35.3228 38.9561C34.4934 37.9908 33.6497 37.0328 32.8168 36.0747C30.1749 33.0396 27.5331 30.0046 24.8949 26.966C24.784 26.8408 24.7197 26.8051 24.5731 26.9231C24.2943 27.1518 23.9654 27.2627 23.6043 27.2734C22.8572 27.2948 22.3281 26.9374 21.9099 26.2438C21.7597 26.4226 21.6453 26.5977 21.4952 26.73C21.3093 26.8945 21.2592 27.0589 21.295 27.3127C21.4022 28.0634 21.1627 28.7176 20.6265 29.2503C19.6934 30.1762 18.2528 30.1512 17.284 29.1859C15.8076 27.7202 14.349 26.2367 12.8654 24.7781C12.3471 24.2669 11.8681 23.7486 11.7036 23.0121C11.7036 22.7798 11.7036 22.5438 11.7036 22.3115C11.7179 22.2865 11.7358 22.2614 11.7429 22.2328C12.129 20.8208 13.0835 20.1737 14.5135 20.3667C14.6457 20.3846 14.7101 20.3239 14.7851 20.2488C17.0373 17.993 19.2931 15.7409 21.5488 13.4887C21.6489 13.3886 21.6775 13.3028 21.6489 13.1598C21.4701 12.141 21.9456 11.1686 22.8429 10.6824C23.086 10.5502 23.3505 10.4965 23.6043 10.4072H24.305V10.4ZM20.6372 25.9257C20.6944 25.8756 20.7444 25.8327 20.7909 25.7862C22.8858 23.6914 24.9807 21.5929 27.0827 19.5016C27.2007 19.3837 27.2328 19.3193 27.097 19.1835C25.5455 17.6427 24.0012 16.0948 22.4604 14.5433C22.3174 14.4003 22.2459 14.4253 22.1172 14.554C20.0331 16.6453 17.9418 18.7366 15.8505 20.8208C15.7325 20.9387 15.7039 21.0066 15.8397 21.1425C17.3984 22.6904 18.9499 24.2455 20.5014 25.797C20.5407 25.8363 20.5872 25.8756 20.6408 25.9257H20.6372ZM34.4862 30.5408C34.429 30.4943 34.3718 30.455 34.3218 30.4085C32.0231 28.403 29.7245 26.3975 27.4259 24.3885C27.3043 24.2812 27.2328 24.2812 27.122 24.3992C26.6609 24.8711 26.1925 25.3394 25.7207 25.8005C25.5991 25.9185 25.5812 25.99 25.7028 26.1294C27.7119 28.4245 29.7138 30.7267 31.7121 33.0325C31.8194 33.1576 31.8837 33.1683 32.0053 33.0468C32.7846 32.2568 33.5711 31.4774 34.354 30.6945C34.3933 30.6552 34.429 30.6087 34.4898 30.5408H34.4862ZM37.9181 39.1062C38.9906 39.1133 39.8771 38.5271 40.2382 37.6476C40.6028 36.7611 40.3955 35.7458 39.6698 35.0845C38.8869 34.3695 38.079 33.6867 37.2853 32.9896C37.1817 32.8967 37.1138 32.8752 36.9994 32.9896C36.0985 33.9012 35.1905 34.8056 34.2825 35.7101C34.1859 35.8066 34.1752 35.8674 34.2717 35.971C34.9796 36.7718 35.6695 37.5869 36.3845 38.3805C36.8206 38.8667 37.3926 39.0883 37.9217 39.1062H37.9181ZM22.7785 12.7273C22.7714 13.0919 22.9323 13.3779 23.1861 13.6281C24.4945 14.9294 25.7957 16.2378 27.1041 17.5426C27.4402 17.8786 27.7691 18.2254 28.1194 18.5471C28.4733 18.8689 28.8916 18.944 29.3384 18.7581C29.7817 18.5722 30.0212 18.2254 30.0534 17.7464C30.082 17.3496 29.9033 17.0421 29.628 16.7669C28.0372 15.1832 26.4535 13.596 24.8663 12.0087C24.8055 11.9479 24.7447 11.8836 24.6732 11.83C24.2943 11.5368 23.876 11.4761 23.4435 11.6834C23.0109 11.8907 22.7928 12.2482 22.7785 12.7273ZM14.0416 21.475C13.559 21.4821 13.2015 21.6966 12.9906 22.1292C12.7761 22.5724 12.8333 23.0014 13.1443 23.3804C13.2801 23.5448 13.441 23.6878 13.5911 23.8415C15.1033 25.3537 16.6119 26.8659 18.1241 28.3744C18.6246 28.8749 19.3503 28.8785 19.815 28.403C20.2761 27.9347 20.269 27.2269 19.7792 26.7336C18.1491 25.0963 16.5118 23.4626 14.8745 21.8289C14.6457 21.6001 14.3705 21.4714 14.038 21.475H14.0416ZM22.9501 25.4466C22.9501 25.7612 23.061 25.9435 23.2862 26.0472C23.5471 26.1652 23.7795 26.0973 23.9761 25.9006C25.0486 24.8282 26.1246 23.7593 27.1935 22.6833C27.4723 22.4044 27.4759 22.0434 27.2293 21.8038C26.9897 21.5786 26.6394 21.5929 26.3713 21.8575C25.2953 22.9264 24.2264 24.0024 23.1539 25.0748C23.0324 25.1964 22.9501 25.3358 22.9537 25.4466H22.9501ZM33.4102 34.92C33.4567 34.8771 33.5139 34.8271 33.5711 34.7735C34.2431 34.1014 34.9188 33.4329 35.5873 32.7537C35.8018 32.5356 36.2057 32.3318 36.17 32.0852C36.1378 31.8528 35.7553 31.6633 35.5229 31.456C35.5158 31.4488 35.5086 31.4453 35.5015 31.4381C35.4121 31.3273 35.3371 31.3559 35.2441 31.4488C34.4183 32.2818 33.5854 33.1111 32.756 33.9405C32.7202 33.9763 32.6809 34.0084 32.663 34.0513C32.638 34.1085 33.3244 34.92 33.4102 34.92Z" fill="white" stroke="white" stroke-width="0.5"/>
<path d="M11.7002 38.703C11.7181 38.6673 11.7431 38.6351 11.7467 38.5993C11.904 37.7485 12.358 37.0979 13.0801 36.6332C13.1873 36.5652 13.2624 36.5295 13.1695 36.3722C12.3151 34.9744 13.3625 33.2406 15.0463 33.2621C18.2458 33.2978 21.4453 33.3085 24.6412 33.2621C26.4 33.2335 27.4189 35.0137 26.5681 36.3865C26.5001 36.4937 26.5073 36.5438 26.6181 36.6117C27.7621 37.3267 28.1231 38.4027 28.0409 39.6897C28.023 39.9792 27.8443 40.1365 27.6298 40.2795H12.1077C11.9397 40.1758 11.8003 40.04 11.7002 39.872C11.7002 39.4823 11.7002 39.0927 11.7002 38.7066V38.703ZM19.8723 39.1105C22.1174 39.1105 24.3624 39.107 26.6074 39.1177C26.8576 39.1177 26.8969 39.0462 26.8541 38.8174C26.6825 37.9559 25.9889 37.3624 25.1024 37.3624C21.6133 37.3589 18.1278 37.3589 14.6387 37.3624C13.7629 37.3624 13.0801 37.9416 12.8978 38.7924C12.8442 39.0426 12.8942 39.1213 13.1695 39.1177C15.4038 39.107 17.638 39.1105 19.8723 39.1105ZM19.9045 34.4418C18.2708 34.4418 16.6407 34.4418 15.0069 34.4418C14.5994 34.4418 14.2848 34.5919 14.1132 34.9673C13.8415 35.5643 14.2848 36.1934 14.9855 36.1934C18.2386 36.1934 21.4953 36.1934 24.7485 36.1934C24.8057 36.1934 24.8664 36.1934 24.9236 36.1863C25.2668 36.1363 25.5171 35.9539 25.6457 35.6286C25.8745 35.0388 25.442 34.4489 24.7735 34.4453C23.1505 34.4418 21.5275 34.4453 19.9045 34.4453V34.4418Z" fill="white" stroke="white" stroke-width="0.5"/>
<path d="M22.2746 16.2855C22.7394 16.2962 23.0075 16.7646 22.7894 17.1471C22.7429 17.2293 22.6714 17.3008 22.6035 17.3723C21.8421 18.1373 21.0771 18.8987 20.3156 19.6638C20.2727 19.7067 20.2334 19.746 20.1869 19.7817C19.9331 19.9784 19.6078 19.9605 19.3933 19.7424C19.1788 19.5208 19.1645 19.1955 19.3861 18.9524C19.6292 18.6878 19.8902 18.4376 20.144 18.1838C20.6945 17.6332 21.2451 17.0827 21.792 16.5322C21.9315 16.3892 22.0852 16.2712 22.2711 16.2891L22.2746 16.2855Z" fill="white" stroke="white" stroke-width="0.5"/>
<path d="M18.1636 21.5589C17.8383 21.5589 17.5881 21.3158 17.5845 20.9941C17.5809 20.6723 17.8276 20.415 18.1422 20.4042C18.4639 20.3935 18.7463 20.6688 18.7428 20.9869C18.7428 21.3015 18.4782 21.5553 18.1601 21.5553L18.1636 21.5589Z" fill="white" stroke="white" stroke-width="0.5"/>
</svg>
