<svg width="80" height="80" viewBox="0 0 80 80" fill="none" xmlns="http://www.w3.org/2000/svg">
<path d="M22.1101 40.6862C22.1101 40.5262 21.0101 40.6862 20.8701 40.6862C20.2118 40.7337 19.5534 40.5951 18.9701 40.2862C18.7966 40.203 18.6405 40.0877 18.5101 39.9462C18.1501 39.4862 18.5101 38.7862 18.7301 38.3662C18.8214 38.1862 18.9512 38.0285 19.1101 37.9041C19.2691 37.7797 19.4534 37.6917 19.6501 37.6462C20.0821 37.5012 20.5402 37.4506 20.9934 37.4981C21.4467 37.5455 21.8844 37.6898 22.277 37.9212C22.6696 38.1526 23.0079 38.4657 23.269 38.8392C23.53 39.2127 23.7077 39.638 23.7901 40.0862C23.7901 40.0862 23.9301 40.0862 23.9501 40.0862C25.9501 34.5062 29.9501 32.9462 35.6101 32.8862C38.9701 32.8862 40.9901 32.8862 44.3301 32.8862C46.4859 32.7459 48.6261 33.3369 50.4045 34.5637C52.1829 35.7904 53.4955 37.5811 54.1301 39.6462C54.1301 39.8262 54.3101 39.9862 54.4301 40.2462C55.2101 37.9862 56.4301 37.1862 58.2101 37.5462C58.7273 37.6208 59.1948 37.8949 59.5125 38.3098C59.8302 38.7247 59.9729 39.2475 59.9101 39.7662C59.9101 41.0662 58.8501 40.7662 58.0901 40.7862C57.4206 40.7946 56.7524 40.848 56.0901 40.9462C57.1213 41.4533 58.0083 42.212 58.6689 43.1523C59.3296 44.0925 59.7427 45.1841 59.8701 46.3262C60.0901 50.3262 60.0501 54.3262 60.0101 58.3262C60.0101 58.7062 59.2101 59.3662 58.7501 59.3862C56.9501 59.5262 55.1301 59.3862 53.3101 59.3862C51.4901 59.3862 52.2101 57.8662 51.8301 56.9062H26.5701C25.9301 59.3862 25.9301 59.3862 23.2501 59.3862C22.1101 59.3862 20.9501 59.3862 19.7901 59.3862C18.6301 59.3862 18.2501 58.9062 18.2501 57.7862C18.2501 54.3462 18.2501 50.8862 18.2501 47.4262C18.2102 46.094 18.5698 44.7802 19.2826 43.6539C19.9954 42.5277 21.0289 41.6404 22.2501 41.1062L22.1101 40.6862ZM52.3901 41.2062C52.2209 39.4804 51.4294 37.8751 50.1634 36.69C48.8974 35.5049 47.2433 34.8211 45.5101 34.7662C41.2501 34.6462 36.9701 34.6262 32.7101 34.7662C30.9897 34.8119 29.3481 35.4969 28.1056 36.6876C26.8631 37.8784 26.1088 39.4894 25.9901 41.2062H52.3901ZM39.1501 52.4262H44.8901C46.2101 52.4262 46.6101 52.0662 46.6501 50.7462C46.6501 50.3062 46.6501 50.0262 46.6501 49.5862C46.6501 48.0262 46.1701 47.5862 44.6501 47.5862C41.1501 47.5862 37.6301 47.5862 34.1301 47.5862C31.6101 47.5862 31.6101 47.5862 31.6301 50.1662C31.6301 50.3862 31.6301 50.6062 31.6301 50.8262C31.6301 51.9262 32.0701 52.3662 33.2101 52.3662L39.1501 52.4262ZM51.1501 50.4262H51.4501C51.8733 50.436 52.2962 50.3957 52.7101 50.3062L53.7901 50.1262L55.7901 49.8062H55.9901C57.1101 49.6062 57.0701 48.7462 56.9501 47.8062C56.8301 46.8662 56.5701 46.1462 55.4501 46.2862C53.9901 46.4462 52.5501 46.6662 51.0901 46.9062C49.6301 47.1462 49.8501 48.0462 50.1101 48.9062C50.2107 49.2181 50.3665 49.5094 50.5701 49.7662C50.6744 49.9367 50.8023 50.0916 50.9501 50.2262C50.9779 50.3379 51.0329 50.4409 51.1101 50.5262L51.1501 50.4262ZM26.5901 50.4262C27.8301 50.6462 28.2301 49.9862 28.3901 48.8862C28.5501 47.7862 28.3901 47.0662 27.1301 46.8862L23.2301 46.3462C21.9501 46.1462 21.6701 46.9462 21.4901 47.9662C21.3101 48.9862 21.5901 49.6862 22.7101 49.8462L26.5901 50.4262Z" fill="#0033A1"/>
<path d="M19.05 29.7461C18.63 28.2461 17.89 28.0861 16.05 27.5661C14.965 27.277 13.8628 27.0565 12.75 26.9061C13.81 26.7661 14.89 26.5861 15.95 26.3661C16.6639 26.2606 17.3463 26.0013 17.95 25.6061C18.4131 25.2054 18.7472 24.6765 18.91 24.0861C19.3028 22.9083 19.6168 21.7056 19.85 20.4861C20.0275 21.7721 20.3289 23.038 20.75 24.2661C20.9026 24.7136 21.166 25.1153 21.5157 25.4335C21.8654 25.7518 22.2901 25.9763 22.75 26.0861C23.9024 26.4525 25.0785 26.7399 26.27 26.9461C25.9792 26.9694 25.6949 27.0439 25.43 27.1661L24.63 27.4061C23.93 27.6261 23.21 27.7661 22.51 27.9861C22.075 28.0788 21.6766 28.2967 21.3639 28.613C21.0512 28.9292 20.8378 29.3301 20.75 29.7661C20.49 31.1661 20.17 32.5661 19.89 33.7661C19.65 32.7261 19.29 30.6061 19.05 29.7461ZM17.33 26.9061C18.97 27.0661 19.61 28.0061 19.85 29.5861C19.9139 28.9201 20.1986 28.2946 20.6588 27.809C21.1191 27.3234 21.7284 27.0056 22.39 26.9061C21.7469 26.7724 21.1596 26.4465 20.706 25.9714C20.2524 25.4964 19.9538 24.8947 19.85 24.2461C19.8414 24.9251 19.5773 25.576 19.1103 26.069C18.6432 26.562 18.0076 26.8609 17.33 26.9061Z" fill="#0033A1"/>
<path d="M54.5699 28.5062C54.0099 26.5062 53.0099 26.2862 50.5699 25.5662C49.4899 25.2662 48.5699 25.1262 46.1299 24.6662C47.5499 24.4862 48.9899 24.2662 50.4099 23.9462C51.3804 23.8225 52.3103 23.4806 53.1299 22.9462C53.7418 22.4217 54.181 21.7246 54.3899 20.9462C54.9207 19.3585 55.3352 17.7342 55.6299 16.0862C55.8425 17.8044 56.2175 19.4987 56.7499 21.1462C56.9586 21.7223 57.3014 22.2404 57.75 22.6578C58.1987 23.0751 58.7402 23.3796 59.3299 23.5462C60.8762 24.0252 62.4532 24.3994 64.0499 24.6662C63.655 24.7099 63.2699 24.818 62.9099 24.9862L61.8699 25.3062C60.9099 25.6062 59.8699 25.7862 58.9899 26.0662C58.4213 26.2209 57.9086 26.5345 57.5119 26.9702C57.1152 27.4059 56.8508 27.9456 56.7499 28.5262C56.4099 30.4062 55.9699 32.2862 55.5899 33.9862C55.3899 32.5062 54.8899 29.6462 54.5699 28.5062ZM52.2499 24.6662C54.4499 24.9062 55.3099 26.1662 55.6299 28.2662C55.7309 27.3758 56.1195 26.5427 56.7366 25.8931C57.3538 25.2434 58.1659 24.8127 59.0499 24.6662C58.1884 24.4918 57.4002 24.06 56.7895 23.4279C56.1788 22.7958 55.7744 21.9931 55.6299 21.1262C55.6259 22.0365 55.2734 22.9108 54.6447 23.5692C54.0161 24.2276 53.1591 24.6202 52.2499 24.6662Z" fill="#0033A1"/>
<path d="M64.2501 37.6662C64.2972 37.267 64.254 36.8623 64.1235 36.482C63.9931 36.1017 63.7787 35.7557 63.4964 35.4695C63.214 35.1833 62.8709 34.9643 62.4925 34.8288C62.114 34.6932 61.7099 34.6445 61.3101 34.6862C63.0101 34.3862 64.3501 33.8462 64.1701 31.6462C64.4101 33.6462 65.2701 34.6062 67.2501 34.6462C65.3701 34.8062 64.2701 35.5862 64.2501 37.6662Z" fill="#0033A1"/>
<path d="M36.7498 27.9661C36.7931 27.5985 36.7516 27.2258 36.6283 26.8767C36.505 26.5276 36.3032 26.2114 36.0386 25.9526C35.7739 25.6937 35.4534 25.499 35.1017 25.3835C34.7499 25.2679 34.3764 25.2346 34.0098 25.2861C35.5498 25.0061 36.7498 24.5261 36.5898 22.5461C36.8098 24.2661 37.5898 25.2061 39.3698 25.2461C37.6698 25.3861 36.7498 26.0861 36.7498 27.9661Z" fill="#0033A1"/>
</svg>
