<svg width="52" height="52" viewBox="0 0 52 52" fill="none" xmlns="http://www.w3.org/2000/svg">
<path d="M26 52C40.3594 52 52 40.3594 52 26C52 11.6406 40.3594 0 26 0C11.6406 0 0 11.6406 0 26C0 40.3594 11.6406 52 26 52Z" fill="#0033A1"/>
<path d="M25.9834 10.4127C27.2814 11.4753 28.573 12.5219 29.8678 13.5877C33.5614 16.6259 37.2517 19.6704 40.9421 22.7118C41.0057 22.7627 41.0948 22.804 41.1266 22.8708C41.1966 23.0267 41.292 23.2017 41.2729 23.3576C41.2475 23.5612 41.0502 23.6216 40.8434 23.6216C39.8572 23.6184 38.8678 23.6216 37.8816 23.6216C37.7703 23.6216 37.6557 23.6216 37.4903 23.6216C37.4903 23.768 37.4903 23.8952 37.4903 24.0225C37.4903 27.2324 37.4903 30.4424 37.4903 33.6524C37.4903 33.7669 37.4935 33.8783 37.4808 33.9928C37.4553 34.2187 37.3217 34.3491 37.0958 34.3555C36.8636 34.3618 36.7363 34.225 36.6918 34.0087C36.6727 33.9196 36.6791 33.8242 36.6791 33.7319C36.6791 30.3056 36.6791 26.8793 36.6791 23.4562C36.6791 22.9186 36.7872 22.8168 37.3344 22.8136C38.1075 22.8136 38.8774 22.8136 39.6504 22.8104C39.6663 22.8104 39.6822 22.7945 39.7363 22.7659C35.1075 18.9546 30.4945 15.1529 25.8593 11.3321C21.2337 15.1434 16.6176 18.9482 11.9537 22.7913C12.0969 22.8008 12.1828 22.8136 12.2687 22.8136C12.9686 22.8136 13.6685 22.8136 14.3683 22.8136C14.9474 22.8136 15.0396 22.909 15.0396 23.5007C15.0396 24.8687 15.0396 26.2367 15.0396 27.6047C15.0396 30.7415 15.0396 33.8814 15.0396 37.0182V37.435C15.4659 37.435 15.8731 37.435 16.2803 37.435C16.5126 37.435 16.6844 37.5209 16.7289 37.7659C16.7766 38.0204 16.6112 38.2367 16.3312 38.2399C15.0237 38.2494 13.7194 38.2462 12.4118 38.2399C12.1573 38.2399 12.0078 38.0872 11.9919 37.8358C11.976 37.6068 12.1669 37.4414 12.4436 37.4382C13.0195 37.4318 13.5953 37.4382 14.1966 37.4382V23.6248C13.8657 23.6248 13.5476 23.6248 13.2294 23.6248C12.4468 23.6248 11.6642 23.6248 10.8848 23.6248C10.6685 23.6248 10.4967 23.5707 10.4235 23.348C10.3535 23.1317 10.4458 22.979 10.6144 22.8422C11.7215 21.9355 12.8222 21.0225 13.9293 20.1222C14.1107 19.9758 14.1966 19.8295 14.1934 19.5845C14.1807 17.7934 14.187 16.0055 14.187 14.2144C14.187 14.1031 14.187 13.9917 14.187 13.8517C14.0343 13.8517 13.9134 13.8613 13.7925 13.8517C13.5476 13.8263 13.3821 13.6959 13.3917 13.435C13.4012 13.1741 13.5635 13.05 13.818 13.05C14.3206 13.05 14.8265 13.05 15.3291 13.05C16.8212 13.05 18.3132 13.05 19.8053 13.05C19.8975 13.05 19.9898 13.0469 20.082 13.0564C20.2952 13.0787 20.4193 13.2028 20.4352 13.4159C20.4542 13.645 20.3365 13.7945 20.117 13.839C19.9802 13.8677 19.8339 13.8613 19.6685 13.8708V15.3883C20.0407 15.0829 20.3715 14.8125 20.7024 14.5421C22.2899 13.2346 23.8774 11.9239 25.4649 10.6163C25.5507 10.5432 25.643 10.4795 25.7353 10.4127C25.818 10.4127 25.9007 10.4127 25.9834 10.4127ZM15.0046 19.2028C15.1001 19.1328 15.1637 19.0882 15.2241 19.0373C16.1213 18.2993 17.0184 17.5612 17.9155 16.8199C18.2178 16.5718 18.6282 16.3682 18.7745 16.0469C18.9272 15.7128 18.8222 15.2611 18.8254 14.8602C18.8254 14.5262 18.8254 14.1921 18.8254 13.8613H15.0014V19.1996L15.0046 19.2028Z" fill="white" stroke="white" stroke-miterlimit="10"/>
<path d="M26.597 42.007C26.5302 41.9815 26.4666 41.9561 26.3998 41.9306C25.5758 41.6379 25.1241 40.8012 25.3468 39.955C25.6426 38.832 25.9449 37.7121 26.2566 36.5923C26.3107 36.3951 26.2916 36.2519 26.1612 36.0865C25.5154 35.2752 24.8823 34.4545 24.2269 33.6114C24.2269 34.0854 24.2047 34.5181 24.2333 34.9507C24.2556 35.2752 24.1856 35.5425 23.9947 35.8129C22.9003 37.3558 21.825 38.9147 20.7402 40.464C20.2725 41.1321 19.5695 41.393 18.8632 41.1734C17.8515 40.8553 17.4125 39.6878 17.982 38.7684C18.9046 37.2731 19.8462 35.7874 20.7688 34.2922C20.8643 34.1363 20.9247 33.9327 20.9247 33.7514C20.9374 32.517 20.9152 31.2827 20.9406 30.0483C20.9502 29.657 21.0202 29.2466 21.1538 28.8776C21.6978 27.3696 22.2736 25.8744 22.8462 24.3792C23.7402 22.0472 26.6607 21.3601 28.5218 23.0335C29.4093 23.832 30.3033 24.6241 31.1782 25.4354C31.3659 25.6072 31.4995 25.6103 31.7095 25.4926C32.1803 25.2222 32.667 24.9741 33.1506 24.7227C33.9427 24.3092 34.8876 24.586 35.2789 25.3367C35.6798 26.1098 35.3871 27.0197 34.579 27.4364C33.6564 27.9136 32.7275 28.3717 31.7922 28.8267C31.1623 29.1321 30.5769 29.0335 30.0488 28.569C29.4475 28.0409 28.8399 27.516 28.21 26.9656C28.1654 27.0769 28.1273 27.1533 28.105 27.236C27.7423 28.5117 27.3765 29.7843 27.0297 31.0632C26.9947 31.1904 27.0202 31.3717 27.0901 31.4831C27.7996 32.6379 28.5186 33.7927 29.2535 34.9317C29.6352 35.5234 29.7307 36.1406 29.5525 36.815C29.2312 38.0271 28.8908 39.2328 28.6108 40.4545C28.4263 41.253 28.0191 41.7938 27.2174 42.0101H26.6002L26.597 42.007ZM21.7423 31.6326C21.7423 32.6252 21.755 33.2933 21.736 33.9614C21.7296 34.1554 21.6723 34.3717 21.5705 34.5372C20.7593 35.8606 19.9321 37.1745 19.1082 38.4884C18.9491 38.7397 18.7805 38.9879 18.6405 39.2487C18.3892 39.7164 18.6373 40.2763 19.1336 40.4036C19.4995 40.499 19.8081 40.3749 20.0594 40.0154C21.1379 38.4725 22.2163 36.9327 23.2853 35.3834C23.3648 35.2689 23.403 35.1003 23.3998 34.9571C23.3807 34.1236 23.3489 33.2901 23.3139 32.4598C23.3044 32.218 23.3203 31.9953 23.5907 31.9062C23.8484 31.8235 23.9915 31.9889 24.1283 32.1671C25.0827 33.3919 26.0339 34.6199 26.9915 35.8415C27.1538 36.0483 27.1856 36.2487 27.1156 36.5001C26.7847 37.6962 26.4634 38.8988 26.1389 40.0982C26.0308 40.499 26.1294 40.8171 26.4221 41.0335C26.9215 41.4057 27.5801 41.1321 27.7519 40.4767C28.0891 39.1947 28.4104 37.9094 28.754 36.6305C28.8781 36.1628 28.8144 35.7524 28.5504 35.3421C27.7773 34.1395 27.0297 32.9242 26.263 31.7185C26.1326 31.5149 26.088 31.324 26.158 31.0822C26.6225 29.4757 27.0742 27.8627 27.5324 26.253C27.6692 25.7694 27.9714 25.6835 28.3468 26.0112C29.0912 26.6602 29.8388 27.3028 30.5801 27.9582C30.8505 28.1968 31.1336 28.2477 31.4581 28.0854C32.3584 27.6337 33.2619 27.1915 34.1591 26.7365C34.6013 26.5138 34.754 26.0939 34.5536 25.7121C34.3563 25.3336 33.9173 25.2254 33.4878 25.4545C32.8961 25.7662 32.3012 26.0653 31.719 26.3961C31.4072 26.5711 31.1782 26.5329 30.9205 26.2943C29.9215 25.3749 28.9162 24.4619 27.895 23.5679C26.5016 22.3495 24.2938 22.8998 23.6225 24.6209C23.2694 25.5308 22.964 26.4598 22.5727 27.3505C21.9268 28.8267 21.5069 30.3283 21.7391 31.6326H21.7423Z" fill="white" stroke="white" stroke-miterlimit="10"/>
<path d="M22.4584 21.6204C22.6238 21.6204 22.7861 21.614 22.9515 21.6204C23.346 21.6395 23.5178 21.7731 23.5082 22.0403C23.4987 22.3108 23.3046 22.4094 22.9229 22.4348C22.2707 22.4762 21.5962 22.473 20.9727 22.6448C19.4329 23.0679 18.2177 23.9269 17.6736 25.5144C17.0946 27.1973 17.6959 28.9311 19.3311 29.6628C19.6079 29.7869 19.6938 29.9937 19.592 30.2291C19.4934 30.4582 19.2739 30.5154 18.9907 30.3914C17.0787 29.5451 16.188 27.4804 16.8624 25.3839C17.4923 23.4306 18.9398 22.3617 20.8391 21.8304C21.3576 21.684 21.9011 21.6154 22.452 21.6154C22.4584 21.6727 22.452 21.5981 22.452 21.6172L22.4584 21.6204Z" fill="white" stroke="white" stroke-miterlimit="10"/>
<path d="M27.7044 21.3304C26.4351 21.3304 25.4139 20.3028 25.4234 19.0334C25.4298 17.7895 26.4669 16.762 27.714 16.7651C28.977 16.7651 30.0014 17.8054 29.995 19.0716C29.9886 20.3251 28.9674 21.3335 27.7076 21.3304H27.7044ZM27.7203 20.5223C28.5284 20.5159 29.1869 19.851 29.1837 19.0462C29.1837 18.2445 28.5125 17.5764 27.7108 17.5732C26.8964 17.5732 26.2187 18.2572 26.2315 19.0716C26.2442 19.8765 26.9123 20.5287 27.7235 20.5223H27.7203Z" fill="white" stroke="white" stroke-miterlimit="10"/>
<path d="M35.085 38.2396C33.7584 38.2396 32.435 38.2396 31.1084 38.2396C31.0161 38.2396 30.9207 38.2491 30.8316 38.2301C30.6153 38.1855 30.4816 38.0487 30.488 37.8228C30.4944 37.597 30.628 37.4665 30.8539 37.4379C30.9461 37.4284 31.0384 37.4315 31.1306 37.4315C33.7807 37.4315 36.4307 37.4315 39.084 37.4315C39.523 37.4315 39.7234 37.5556 39.7234 37.8292C39.7234 38.106 39.5198 38.2396 39.0903 38.2396C37.7542 38.2396 36.418 38.2396 35.0819 38.2396H35.085Z" fill="white" stroke="white" stroke-miterlimit="10"/>
<path d="M37.522 36.0424C37.5156 36.2969 37.2961 36.5101 37.0448 36.5069C36.7903 36.5037 36.5867 36.2874 36.5899 36.0265C36.5931 35.7624 36.7967 35.5652 37.0607 35.5716C37.3184 35.5747 37.5284 35.7879 37.522 36.0456V36.0424Z" fill="white" stroke="white" stroke-miterlimit="10"/>
</svg>
