<svg width="52" height="52" viewBox="0 0 52 52" fill="none" xmlns="http://www.w3.org/2000/svg">
<path d="M26 52C40.3594 52 52 40.3594 52 26C52 11.6406 40.3594 0 26 0C11.6406 0 0 11.6406 0 26C0 40.3594 11.6406 52 26 52Z" fill="#0033A1"/>
<path d="M39.3422 31.6252C39.2179 31.2981 39.0936 30.9808 38.9791 30.6603C38.8712 30.3593 38.9497 30.1434 39.195 30.042C39.4371 29.9439 39.6595 30.0518 39.774 30.3462C39.9376 30.7617 40.0913 31.1836 40.2516 31.599C40.3465 31.8411 40.2745 32.0276 40.0684 32.1715C38.8319 33.0514 37.4745 33.6533 35.9861 33.9379C35.8062 33.9738 35.6001 33.8855 35.4202 33.8561C34.9001 34.3108 34.3473 34.7883 33.7978 35.2725C33.7553 35.3117 33.7258 35.3804 33.7193 35.4426C33.5688 36.5711 33.0749 37.0486 31.9038 37.1762C31.8907 37.8533 31.6323 38.4127 31.0206 38.7561C30.4122 39.0996 29.8005 39.0505 29.1921 38.6874C29.1659 38.7463 29.1463 38.7856 29.13 38.8281C28.7374 39.8225 27.7136 40.2314 26.7355 39.7931C26.6505 39.7538 26.5262 39.7276 26.4477 39.7636C25.6365 40.13 24.8285 40.0286 24.0271 39.744C22.8234 39.3188 21.7962 38.5926 20.8182 37.7944C19.0158 36.3225 17.4392 34.6281 15.941 32.8584C15.8004 32.6949 15.6728 32.6262 15.434 32.6098C15.0219 32.5836 14.6163 32.4463 14.2172 32.322C13.1737 31.9981 12.2022 31.5173 11.3092 30.886C10.9821 30.6537 10.9363 30.5294 11.0704 30.1663C12.0844 27.4546 13.2293 24.7985 14.5214 22.2078C14.6915 21.8676 14.8125 21.8055 15.1789 21.884C16.7097 22.2078 18.1163 22.8064 19.3593 23.7681C19.4051 23.8041 19.4803 23.8237 19.5392 23.8172C20.4453 23.7256 21.3514 23.6307 22.2607 23.5326C22.2084 23.4934 22.1299 23.4312 22.0514 23.3756C20.357 22.1915 19.0191 20.7129 18.2864 18.7503C17.8121 17.4746 17.642 16.1662 17.9724 14.825C17.9887 14.7596 18.0051 14.6942 18.028 14.632C18.1163 14.3965 18.3191 14.282 18.5448 14.3376C18.764 14.3932 18.885 14.5928 18.849 14.8479C18.7901 15.2535 18.6822 15.6559 18.6756 16.0615C18.6462 17.9031 19.3528 19.4765 20.5205 20.8569C21.8649 22.4499 23.6019 23.4705 25.5187 24.2195C25.5907 24.249 25.6921 24.249 25.764 24.2195C27.9262 23.3592 29.8627 22.1849 31.2398 20.255C32.1361 18.9989 32.6594 17.6054 32.6169 16.0419C32.6071 15.6461 32.5417 15.2405 32.4305 14.861C31.9562 13.2418 30.3272 12.4764 28.6001 13.0488C27.5042 13.4119 26.7192 14.1381 26.1664 15.1358C26.1304 15.2012 26.1108 15.2895 26.0552 15.3353C25.9243 15.4433 25.7804 15.6035 25.6365 15.6101C25.5089 15.6166 25.3421 15.4629 25.2472 15.3386C25.0967 15.1456 25.0052 14.9068 24.8612 14.704C24.1318 13.6605 23.1603 12.9965 21.8649 12.882C21.0537 12.8101 20.3144 13.0096 19.6799 13.5362C19.4051 13.7619 19.1532 13.7685 18.9799 13.5591C18.8098 13.353 18.8588 13.0914 19.1401 12.8722C20.4289 11.8582 21.842 11.7862 23.3206 12.3586C24.1678 12.6858 24.8416 13.2549 25.3944 13.968C25.4696 14.0661 25.5449 14.1643 25.6201 14.2624C25.6234 14.2689 25.6365 14.2689 25.6626 14.2755C25.8295 14.0694 25.993 13.8503 26.1795 13.6507C27.2229 12.5287 28.4888 11.8974 30.0426 12.0315C31.9464 12.1918 33.2319 13.5035 33.4347 15.4105C33.6833 17.7624 32.8655 19.7643 31.3477 21.4915C30.7557 22.1653 30.0164 22.7083 29.3426 23.3102C29.2641 23.3789 29.1758 23.4312 29.1005 23.4868C30.0459 24.0102 30.9879 24.5303 31.8809 25.0275C32.7183 24.599 33.5459 24.1279 34.4127 23.7485C34.9754 23.5032 35.5903 23.3854 36.1857 23.2186C36.4277 23.1499 36.624 23.2448 36.7287 23.4737C37.517 25.1943 38.3053 26.9182 39.0871 28.642C39.2048 28.9004 39.1067 29.149 38.8843 29.2439C38.6455 29.3453 38.4198 29.2439 38.2922 28.956C37.7754 27.8013 37.2684 26.6401 36.7483 25.4854C36.5422 25.0275 36.3132 24.5793 36.0908 24.1181C34.8969 24.3864 33.8141 24.8574 32.7936 25.5443C32.8917 25.7831 32.98 26.0219 33.0814 26.2541C34.0202 28.4196 34.9623 30.5817 35.8913 32.7537C36.009 33.0252 36.1431 33.0612 36.4081 32.9827C37.4483 32.6818 38.4296 32.2565 39.3422 31.6318V31.6252ZM25.8033 39.0669C25.8327 39.0276 25.8622 38.9917 25.8916 38.9524C25.8 38.8968 25.6953 38.8575 25.6201 38.7856C24.7402 37.9122 23.8636 37.0356 22.9902 36.1589C22.9149 36.0837 22.8364 36.0117 22.7808 35.9267C22.6663 35.7468 22.6762 35.5603 22.8266 35.4033C22.9869 35.2365 23.1766 35.2136 23.3696 35.3444C23.4547 35.4033 23.5266 35.4818 23.6019 35.557C24.6748 36.6267 25.7411 37.7061 26.8239 38.766C26.9776 38.9164 27.1968 39.0407 27.4061 39.0865C27.7757 39.1683 28.1159 38.9622 28.2795 38.6351C28.4529 38.2884 28.3907 37.9122 28.093 37.6145C27.1379 36.6561 26.1795 35.701 25.2243 34.7425C25.1556 34.6739 25.0837 34.6117 25.0313 34.5332C24.907 34.3467 24.9038 34.1505 25.064 33.9869C25.2341 33.8136 25.4337 33.7972 25.6299 33.9477C25.7281 34.0229 25.8131 34.1145 25.8982 34.2028C27.0986 35.4033 28.2991 36.6005 29.4963 37.801C29.7417 38.0463 30.0197 38.1837 30.3697 38.0987C30.6935 38.0234 30.9127 37.8206 31.001 37.5C31.0991 37.1468 30.9879 36.8491 30.7295 36.5907C29.3786 35.2463 28.0309 33.8953 26.6832 32.5477C26.608 32.4724 26.5295 32.4037 26.4739 32.3154C26.3496 32.1191 26.3757 31.9294 26.5426 31.7724C26.6996 31.6252 26.886 31.6121 27.0659 31.7332C27.151 31.792 27.2229 31.8738 27.2949 31.9458C28.623 33.2738 29.9477 34.6052 31.2856 35.9234C31.4524 36.087 31.6879 36.2211 31.9136 36.2767C32.2669 36.3617 32.6202 36.1327 32.7772 35.8056C32.9473 35.4524 32.8753 35.0893 32.5515 34.7654C30.4646 32.6752 28.3711 30.5883 26.2874 28.4915C26.1468 28.3509 26.0355 28.3476 25.8982 28.4523C25.3192 28.9004 24.7238 29.3289 24.171 29.8065C23.3762 30.4934 22.3 30.5687 21.4953 29.9504C20.6841 29.3257 20.4584 28.2658 20.9327 27.3336C21.4495 26.3228 22.1299 25.4331 22.9607 24.6611C23.0131 24.6153 23.0556 24.5564 23.1341 24.4681C21.8159 24.4027 20.5565 24.4681 19.3135 24.7364C19.2514 24.7494 19.1827 24.8378 19.1532 24.9065C18.1817 27.1406 17.2167 29.3747 16.2551 31.6121C16.2191 31.6939 16.2289 31.8444 16.2845 31.9098C17.9331 33.8921 19.6668 35.7893 21.7047 37.3888C22.5159 38.0267 23.3664 38.6024 24.3542 38.9393C24.8252 39.0996 25.3061 39.1945 25.8 39.0636L25.8033 39.0669ZM33.5067 34.4972C33.9548 34.0294 34.4029 33.5519 34.8576 33.0841C34.995 32.9435 34.9786 32.8224 34.9034 32.6523C34.0235 30.6374 33.1534 28.6191 32.2767 26.6041C32.2342 26.5027 32.1786 26.3882 32.0968 26.3228C30.9291 25.4069 29.673 24.6382 28.2566 24.1606C28.1486 24.1247 27.9982 24.1508 27.8902 24.1999C27.3603 24.4354 26.8271 24.6709 26.3103 24.9359C25.8687 25.1616 25.45 25.1878 25.0117 24.9424C24.8481 24.8508 24.665 24.7789 24.4851 24.7265C24.4 24.7004 24.2724 24.7069 24.207 24.7593C23.1145 25.5934 22.2313 26.6107 21.649 27.8602C21.3187 28.5668 21.7897 29.378 22.5617 29.5023C22.9935 29.571 23.3435 29.4172 23.6477 29.1229C24.2888 28.5046 24.9659 27.9355 25.7837 27.5626C26.2711 27.3401 26.3561 27.3597 26.7355 27.7392C28.973 29.9766 31.2136 32.2107 33.5099 34.5038L33.5067 34.4972ZM15.2476 31.7037C16.4644 29.2406 17.5504 26.7448 18.5023 24.1868C17.5373 23.5293 16.5135 23.0877 15.4177 22.7999C15.2639 22.7606 15.1821 22.7999 15.1102 22.9504C13.9719 25.2761 12.9447 27.6509 12.0256 30.0715C11.9667 30.2252 11.983 30.3037 12.1237 30.3953C13.0821 31.0004 14.106 31.442 15.2476 31.7037Z" fill="white" stroke="white" stroke-width="0.4"/>
</svg>
