<svg width="52" height="52" viewBox="0 0 52 52" fill="none" xmlns="http://www.w3.org/2000/svg">
<path d="M26 52C40.3594 52 52 40.3594 52 26C52 11.6406 40.3594 0 26 0C11.6406 0 0 11.6406 0 26C0 40.3594 11.6406 52 26 52Z" fill="#0033A1"/>
<path d="M26.6255 11.8457C26.5712 12.1276 26.6425 12.328 26.9278 12.474C27.5357 12.7865 27.624 13.785 27.1519 14.2367C26.9991 14.3827 26.8259 14.5118 26.6221 14.6816C26.6255 14.6476 26.6221 14.6782 26.6221 14.7088C26.6255 15.208 26.5678 15.1333 27.0399 15.1401C27.3218 15.1401 27.4712 15.2929 27.478 15.5918C27.4848 15.9688 27.478 16.3458 27.478 16.7567C27.8414 16.7567 28.1946 16.7567 28.5444 16.7567C28.9791 16.7567 29.0912 16.8688 29.0912 17.2899C29.0912 17.3545 29.0946 17.419 29.0912 17.4835C29.0776 17.6262 29.1218 17.6771 29.2814 17.7111C30.2392 17.9149 31.1901 18.139 32.1445 18.3564C32.1886 18.3666 32.2362 18.3734 32.2837 18.3801C32.569 18.4107 32.7524 18.5398 32.8781 18.8285C33.5064 20.2515 34.1517 21.6678 34.8106 23.0738C34.9498 23.3727 34.8445 23.5799 34.6985 23.8108C34.0702 24.8093 33.4453 25.8078 32.817 26.803C32.603 27.1392 32.2939 27.1935 32.1071 26.9252C32.0358 26.8233 32.0188 26.6705 32.0188 26.538C32.012 25.7569 31.9951 24.9724 32.0222 24.1912C32.0426 23.6818 31.9509 23.2165 31.7437 22.758C31.6045 22.4489 31.4754 22.1331 31.3667 21.8138C31.2581 21.4946 30.9592 21.43 30.7214 21.2874C30.066 20.8968 29.4037 20.5164 28.738 20.1428C28.6531 20.0953 28.5444 20.0681 28.4459 20.0681C26.955 20.0647 25.4606 20.0409 23.9696 20.0817C23.6232 20.0919 23.2768 20.3025 22.9405 20.4383C22.4209 20.6489 21.9013 20.8662 21.3884 21.0972C21.2831 21.1447 21.1779 21.2636 21.1371 21.3757C20.9129 22.0006 20.7058 22.6323 20.502 23.2674C20.4646 23.3795 20.4578 23.5052 20.4544 23.624C20.451 24.592 20.4544 25.5599 20.4477 26.5279C20.4477 26.6501 20.4239 26.7962 20.356 26.8845C20.1284 27.1833 19.8567 27.1596 19.6529 26.8403C19.3846 26.426 19.1197 26.0082 18.8582 25.5871C18.5016 25.0131 18.1857 24.4154 17.7884 23.872C17.5268 23.5119 17.5574 23.2063 17.7238 22.8463C18.325 21.5489 18.9295 20.2549 19.5001 18.9439C19.6631 18.5703 19.8975 18.3971 20.288 18.3258C21.0556 18.1832 21.8164 17.9964 22.5805 17.8266C22.7707 17.7858 22.9609 17.7247 23.1545 17.7077C23.3175 17.6941 23.3345 17.6126 23.3277 17.4869C23.3243 17.4054 23.3277 17.3273 23.3277 17.2458C23.3277 16.9129 23.4636 16.7669 23.7998 16.7601C24.187 16.7499 24.5708 16.7601 24.9885 16.7601C24.9885 16.4273 24.9885 16.1046 24.9885 15.7854C24.9885 15.1774 25.0632 15.0993 25.6746 15.0925C25.7051 15.0925 25.7391 15.0925 25.7798 15.0891V14.6306C25.2704 14.3929 24.9647 13.9955 24.9749 13.4148C24.9817 13.0072 25.1685 12.6506 25.5217 12.4536C25.7968 12.3008 25.824 12.1106 25.7832 11.8559C25.7696 11.8423 25.7561 11.8287 25.7425 11.8151C25.6542 11.8151 25.5659 11.8083 25.4776 11.8083C21.6975 11.8083 17.914 11.8083 14.1339 11.8083C14.0456 11.8083 13.9573 11.8083 13.8521 11.8083V11H38.6042V11.8083H38.3427C34.5389 11.8083 30.7316 11.8083 26.9278 11.8083C26.8395 11.8083 26.7512 11.8117 26.6629 11.8151C26.6493 11.8287 26.6357 11.8423 26.6221 11.8559L26.6255 11.8457ZM29.0844 18.516C29.0844 18.7707 29.0708 19.0051 29.0912 19.236C29.098 19.3243 29.1727 19.4364 29.2475 19.4805C29.9777 19.9085 30.7079 20.3364 31.4482 20.7406C31.7607 20.9138 32.0018 21.1108 32.1139 21.4742C32.2498 21.9089 32.4332 22.33 32.6234 22.7478C32.8 23.135 32.8611 23.5323 32.8407 23.9569C32.8204 24.3474 32.8373 24.738 32.8373 25.1286C33.2381 24.5614 33.5981 23.984 33.9479 23.4033C33.9751 23.3557 33.9751 23.2708 33.9513 23.2199C33.3739 21.9293 32.7932 20.6421 32.1988 19.3549C32.1581 19.2666 32.0392 19.1749 31.9441 19.1545C31.0033 18.9337 30.0558 18.73 29.081 18.5126L29.0844 18.516ZM19.5544 25.132C19.5782 25.1252 19.5986 25.1184 19.6224 25.1116C19.6224 24.5886 19.6224 24.0689 19.6224 23.5459C19.6224 23.4101 19.6224 23.2674 19.6665 23.1418C19.928 22.3436 20.1963 21.5489 20.4748 20.7576C20.5122 20.6523 20.6107 20.5334 20.7126 20.4892C21.5345 20.1292 22.3598 19.7862 23.1851 19.433C23.2394 19.4092 23.3175 19.3481 23.3209 19.3005C23.3345 19.0424 23.3277 18.7809 23.3277 18.5092C23.1681 18.5432 23.0458 18.5737 22.9236 18.5975C22.1492 18.7639 21.3748 18.9337 20.5971 19.0968C20.4137 19.1341 20.2778 19.1885 20.2099 19.4024C20.125 19.6673 19.9756 19.9153 19.8601 20.17C19.405 21.1583 18.9499 22.1466 18.4948 23.135C18.437 23.2606 18.4337 23.3795 18.5287 23.5052C18.6748 23.6987 18.7937 23.9127 18.9227 24.1199C19.1333 24.4561 19.3439 24.7924 19.551 25.1286L19.5544 25.132ZM28.2863 19.2258V17.599H24.1768V19.2258H28.2863ZM26.6289 16.7431V15.9416H25.8342V16.7431H26.6289ZM26.2112 13.0548C25.97 13.0548 25.7968 13.211 25.7934 13.4385C25.7866 13.6559 25.9972 13.8801 26.2044 13.8801C26.4048 13.8801 26.6153 13.6695 26.6187 13.4725C26.6187 13.211 26.4727 13.0582 26.2146 13.0582L26.2112 13.0548Z" fill="white" stroke="white" stroke-width="0.4"/>
<path d="M18.3857 31.6121H34.0629C34.0663 31.5272 34.0731 31.4491 34.0731 31.371C34.0731 30.7732 34.0731 30.1789 34.0731 29.5811C34.0731 29.3026 34.2022 29.1464 34.4705 29.143C35.2992 29.1328 36.1313 29.1328 36.9634 29.143C37.2249 29.143 37.3743 29.34 37.3777 29.6287C37.3777 30.291 37.3811 30.9498 37.3777 31.6121C37.3777 31.7548 37.4253 31.8227 37.5509 31.8974C38.1249 32.2438 38.5019 32.7227 38.5766 33.419C38.7125 34.6518 37.9313 35.4975 36.8241 35.742C36.763 35.7556 36.6951 35.742 36.6305 35.742C29.6546 35.742 22.682 35.7488 15.706 35.7352C14.9894 35.7352 14.2999 35.219 13.9908 34.482C13.5561 33.4393 14.0316 32.305 14.952 31.8329C15.0199 31.7989 15.0743 31.6767 15.0743 31.5917C15.0845 30.9566 15.0777 30.3181 15.0811 29.683C15.0811 29.2347 15.1796 29.1396 15.6347 29.1362C16.3683 29.1362 17.1019 29.1362 17.8355 29.1362C18.226 29.1362 18.3823 29.2959 18.3823 29.6898C18.3823 30.3249 18.3823 30.96 18.3823 31.6121H18.3857ZM26.1598 34.9201C28.2655 34.9201 30.3678 34.9201 32.4735 34.9201C33.8184 34.9201 35.1667 34.9405 36.5117 34.9133C37.4694 34.8929 37.9517 34.139 37.6936 33.2389C37.5543 32.7567 37.0347 32.4442 36.4437 32.4442C29.6308 32.4442 22.8178 32.4442 16.0049 32.4442C15.9335 32.4442 15.8588 32.4442 15.7875 32.451C14.935 32.5155 14.4867 33.3442 14.7143 34.0507C14.8875 34.5907 15.3765 34.9269 15.9981 34.9269C19.3842 34.9167 22.7703 34.9201 26.1564 34.9201H26.1598ZM15.9199 31.6019H17.5434V29.9853H15.9199V31.6019ZM34.912 31.6087H36.5388V29.9819H34.912V31.6087Z" fill="white" stroke="white" stroke-width="0.4"/>
<path d="M29.7364 24.6157C30.0761 24.6157 30.4055 24.6157 30.7349 24.6157C31.0236 24.6157 31.1765 24.7617 31.1799 25.0538C31.1866 25.57 31.1866 26.0863 31.1799 26.6025C31.1799 26.9014 30.9795 27.0814 30.6772 27.0814C30.4904 27.0814 30.307 27.0916 30.1202 27.0814C29.8519 27.0644 29.604 27.0644 29.5836 27.4787C29.7908 27.6791 30.0319 27.9135 30.273 28.1478C30.4632 28.338 30.4598 28.5859 30.2663 28.7795C29.9028 29.1463 29.536 29.5097 29.1726 29.8731C28.9417 30.1007 28.7447 30.0973 28.5138 29.8731C28.3881 29.7475 28.2556 29.6286 28.1402 29.4961C27.95 29.2822 27.7632 29.0784 27.4405 29.3705C27.4405 29.6694 27.4405 30.0158 27.4405 30.3622C27.4405 30.6033 27.2979 30.7833 27.0534 30.7901C26.4964 30.8003 25.9394 30.8037 25.3858 30.7901C25.1107 30.7833 24.9782 30.6169 24.9748 30.3384C24.968 30.009 24.9748 29.6795 24.9748 29.3637C24.7167 29.1667 24.5333 29.2448 24.3499 29.469C24.1971 29.6524 24.0103 29.8086 23.8235 29.9546C23.6265 30.1075 23.4295 30.0735 23.2529 29.8969C22.8963 29.5369 22.5329 29.1803 22.1763 28.8203C21.9589 28.5995 21.9589 28.3516 22.1695 28.1308C22.2985 27.9984 22.4276 27.8625 22.5635 27.7369C22.7536 27.5603 22.9778 27.3972 22.6891 27.0916C22.3936 27.0916 22.054 27.0916 21.7178 27.0916C21.4495 27.0916 21.2898 26.9591 21.2865 26.6942C21.2763 26.1304 21.2763 25.5666 21.2865 25.0028C21.2932 24.7176 21.4495 24.5885 21.7721 24.5817C22.037 24.5749 22.3053 24.5885 22.5702 24.5749C22.645 24.5715 22.7536 24.5138 22.7808 24.4526C22.825 24.3542 22.9065 24.2421 22.7604 24.1198C22.5431 23.9398 22.3563 23.7258 22.1593 23.5255C21.9657 23.3285 21.9623 23.1213 22.1593 22.9209C22.5363 22.5371 22.9201 22.1534 23.3038 21.773C23.4499 21.6303 23.7386 21.6303 23.8812 21.773C24.0374 21.9224 24.2005 22.0684 24.3397 22.2349C24.5197 22.4488 24.7031 22.5507 24.9748 22.3028C24.9748 22.0277 24.9748 21.7084 24.9748 21.3892C24.9748 21.0598 25.1345 20.9001 25.4639 20.8967C25.9733 20.8967 26.4794 20.8967 26.9888 20.8967C27.3183 20.8967 27.4439 21.0326 27.4439 21.3654C27.4439 21.6303 27.4507 21.8986 27.4439 22.1635C27.4405 22.2926 27.4745 22.3605 27.6036 22.4081C27.736 22.4556 27.8345 22.4828 27.9466 22.3673C28.1232 22.1805 28.31 22.0039 28.4934 21.8205C28.6836 21.6303 28.9994 21.6099 29.193 21.7967C29.5632 22.1568 29.93 22.5202 30.2866 22.8904C30.504 23.1145 30.4972 23.3251 30.2832 23.5594C30.1474 23.7089 29.9979 23.8447 29.8553 23.9874C29.6719 24.1708 29.6345 24.3847 29.7432 24.6293L29.7364 24.6157ZM28.8432 22.5983C28.6157 22.8292 28.4051 23.0364 28.2013 23.2538C28.0349 23.427 27.8583 23.4507 27.6477 23.3421C27.4541 23.2436 27.2605 23.1383 27.0568 23.0738C26.7137 22.9651 26.622 22.8598 26.622 22.5032C26.622 22.2417 26.622 21.9767 26.622 21.7254H25.8001C25.8001 22.0311 25.7933 22.3198 25.8001 22.6119C25.8069 22.8496 25.6609 22.9753 25.4741 23.0568C25.2465 23.1587 25.0054 23.2266 24.7812 23.3353C24.5571 23.4439 24.3771 23.4202 24.2073 23.2402C24.0103 23.033 23.8031 22.836 23.6265 22.6594C23.4261 22.8564 23.2393 23.0432 23.0389 23.2368C23.2189 23.4134 23.4057 23.6002 23.5925 23.787C23.8099 24.0043 23.8235 24.1674 23.6842 24.4425C23.5857 24.636 23.5008 24.8364 23.4329 25.0436C23.348 25.3051 23.2054 25.4342 22.9472 25.4342C22.6586 25.4342 22.3733 25.4342 22.071 25.4342C22.071 25.6515 22.0778 25.8417 22.071 26.0353C22.0608 26.2017 22.1151 26.2697 22.2884 26.2595C22.5227 26.2459 22.757 26.2595 22.9914 26.2561C23.2223 26.2493 23.3582 26.3512 23.4329 26.5685C23.511 26.7961 23.6061 27.0202 23.708 27.2376C23.8167 27.4754 23.7963 27.6554 23.6129 27.8388C23.4465 28.0052 23.2733 28.1614 23.1238 28.338C23.0831 28.3856 23.0763 28.518 23.1103 28.5656C23.2393 28.7354 23.3955 28.8882 23.5654 29.0682C23.6842 28.9392 23.7691 28.8475 23.8574 28.7558C23.9525 28.6573 24.0476 28.5588 24.1495 28.4637C24.3703 28.2531 24.5639 28.2327 24.839 28.3652C25.0292 28.4569 25.2228 28.5418 25.4231 28.6097C25.7662 28.732 25.8205 28.7965 25.8205 29.1599C25.8205 29.4214 25.8205 29.6863 25.8205 29.9479H26.6492C26.6492 29.6558 26.6526 29.3773 26.6492 29.0954C26.6458 28.8339 26.7511 28.6708 27.0126 28.5893C27.2198 28.5248 27.4168 28.4331 27.6137 28.3414C27.8481 28.2327 28.0824 28.2633 28.2624 28.4467C28.456 28.6403 28.6462 28.8305 28.833 29.0173C29.0334 28.8101 29.2202 28.6199 29.407 28.4297C29.21 28.2327 28.996 28.0222 28.7855 27.8116C28.6394 27.6655 28.619 27.5025 28.704 27.3123C28.8092 27.0712 28.9009 26.8233 28.9994 26.5787C29.0877 26.3648 29.2202 26.2323 29.4783 26.2493C29.7636 26.2663 30.0523 26.2527 30.3376 26.2527V25.4308C30.0353 25.4308 29.7466 25.4308 29.4579 25.4308C29.2542 25.4308 29.1183 25.3425 29.0436 25.1455C28.9451 24.884 28.8296 24.6259 28.7141 24.3711C28.6224 24.164 28.653 23.9941 28.816 23.8345C28.9926 23.6613 29.1625 23.4779 29.3221 23.2877C29.356 23.247 29.3662 23.1315 29.3323 23.0941C29.1862 22.9243 29.0232 22.7715 28.85 22.5949L28.8432 22.5983Z" fill="white" stroke="white" stroke-width="0.4"/>
<path d="M28.3132 12.6302C30.1506 12.6302 31.9846 12.6268 33.822 12.6234C34.8612 12.6234 35.8971 12.6234 36.9636 12.6234V13.3944C36.9636 13.3944 36.9364 13.4249 36.9262 13.4385C36.8447 13.4385 36.7666 13.4487 36.6851 13.4487C33.9646 13.4487 31.2442 13.4487 28.5238 13.4487H28.269V12.6676C28.269 12.6676 28.2962 12.6404 28.3098 12.6302H28.3132Z" fill="white" stroke="white" stroke-width="0.4"/>
<path d="M24.1426 12.6675V13.4283C24.1019 13.4351 24.0577 13.4453 24.0136 13.4453C21.2286 13.4453 18.4436 13.4453 15.6587 13.4453C15.6179 13.4453 15.5772 13.4385 15.5398 13.4351C15.5262 13.4215 15.5126 13.4045 15.5024 13.391V12.6302C15.567 12.6268 15.6179 12.62 15.6723 12.62C18.4436 12.62 21.215 12.62 23.983 12.62C24.0237 12.62 24.0645 12.6234 24.1019 12.6268C24.1154 12.6404 24.129 12.654 24.1426 12.6641V12.6675Z" fill="white" stroke="white" stroke-width="0.4"/>
<path d="M14.6536 13.4351H13.8555V12.6812H14.6536V13.4351Z" fill="white" stroke="white" stroke-width="0.4"/>
<path d="M38.6111 12.6846V13.4216H37.8062V12.6846H38.6111Z" fill="white" stroke="white" stroke-width="0.4"/>
<path d="M25.7456 11.8049C25.7456 11.8049 25.7728 11.8321 25.7864 11.8457C25.7728 11.8321 25.7592 11.8185 25.7456 11.8049Z" fill="white" stroke="white" stroke-width="0.4"/>
<path d="M15.499 13.391C15.499 13.391 15.5262 13.4216 15.5364 13.4351C15.5228 13.4216 15.5092 13.4046 15.499 13.391Z" fill="white" stroke="white" stroke-width="0.4"/>
<path d="M26.625 11.8457C26.625 11.8457 26.6522 11.8185 26.6658 11.8049C26.6522 11.8185 26.6386 11.8321 26.625 11.8457Z" fill="white" stroke="white" stroke-width="0.4"/>
<path d="M36.9263 13.4386C36.9263 13.4386 36.9534 13.408 36.9636 13.3944C36.95 13.408 36.9365 13.425 36.9263 13.4386Z" fill="white" stroke="white" stroke-width="0.4"/>
<path d="M24.1423 12.6676C24.1423 12.6676 24.1151 12.6404 24.1016 12.6302C24.1151 12.6438 24.1287 12.6574 24.1423 12.6676Z" fill="white" stroke="white" stroke-width="0.4"/>
<path d="M28.3132 12.6302C28.3132 12.6302 28.286 12.6574 28.2725 12.6676C28.286 12.654 28.2996 12.6404 28.3132 12.6302Z" fill="white" stroke="white" stroke-width="0.4"/>
<path d="M31.5534 34.088C31.2953 34.088 31.0372 34.088 30.779 34.088C30.7654 34.0744 30.7519 34.0642 30.7383 34.0506V33.2831H31.5534C31.5534 33.2831 31.5806 33.3103 31.5941 33.3238C31.5941 33.565 31.5941 33.8061 31.5941 34.0472C31.5806 34.0608 31.5704 34.071 31.5568 34.0846L31.5534 34.088Z" fill="white" stroke="white" stroke-width="0.4"/>
<path d="M19.204 33.3272C19.204 33.5684 19.204 33.8095 19.204 34.0506C19.1904 34.0642 19.1803 34.0744 19.1667 34.088C18.9086 34.088 18.6504 34.088 18.3923 34.088C18.3787 34.0744 18.3651 34.0642 18.3516 34.0506V33.2831H19.1667C19.1667 33.2831 19.1938 33.3103 19.2074 33.3238L19.204 33.3272Z" fill="white" stroke="white" stroke-width="0.4"/>
<path d="M23.3272 33.2832H24.1355V34.0983C23.9148 34.0983 23.6906 34.1085 23.4699 34.0915C23.4189 34.0881 23.3374 33.9862 23.3306 33.9251C23.3136 33.7179 23.3238 33.5107 23.3238 33.2798L23.3272 33.2832Z" fill="white" stroke="white" stroke-width="0.4"/>
<path d="M36.5257 34.1017C36.3049 34.1017 36.0943 34.1153 35.8906 34.0949C35.8294 34.0881 35.7343 33.993 35.7275 33.9319C35.7072 33.7247 35.7207 33.5175 35.7207 33.2798H36.5291V34.1017H36.5257Z" fill="white" stroke="white" stroke-width="0.4"/>
<path d="M15.8796 33.2865H16.6947C16.6947 33.5141 16.7015 33.7416 16.6879 33.9725C16.6879 34.0167 16.603 34.0609 16.5555 34.1016C16.5453 34.1084 16.5249 34.1016 16.5079 34.1016C15.7336 34.0744 15.883 34.2884 15.8796 33.2865Z" fill="white" stroke="white" stroke-width="0.4"/>
<path d="M28.2726 33.2832H29.0843C29.0843 33.5073 29.0945 33.7315 29.0775 33.9522C29.0741 34.0032 28.9892 34.0541 28.9383 34.0983C28.9281 34.1051 28.9077 34.0983 28.8907 34.0983C28.1367 34.0677 28.2624 34.2953 28.2692 33.2798L28.2726 33.2832Z" fill="white" stroke="white" stroke-width="0.4"/>
<path d="M33.2956 33.2865H34.0598C34.0598 33.5446 34.0598 33.7993 34.0598 34.0541C34.0462 34.0676 34.0326 34.0778 34.019 34.0914C33.7779 34.0914 33.5368 34.0914 33.2922 34.0914L33.2549 34.0541C33.2549 33.8129 33.2549 33.5718 33.2549 33.3306L33.2956 33.2899V33.2865Z" fill="white" stroke="white" stroke-width="0.4"/>
<path d="M26.6184 33.2898C26.6184 33.5072 26.6184 33.7075 26.6184 33.9079C26.6184 33.9555 26.5912 34.0438 26.5742 34.0438C26.3331 34.0608 26.0886 34.0675 25.8474 34.0709C25.8304 34.0709 25.8033 33.9894 25.8033 33.9487C25.7999 33.7347 25.8033 33.5173 25.8033 33.2898H26.6252H26.6184Z" fill="white" stroke="white" stroke-width="0.4"/>
<path d="M20.8682 34.0507C20.8682 33.8095 20.8682 33.5684 20.8682 33.3273C20.8817 33.3137 20.8953 33.3001 20.9089 33.2865C21.1568 33.2865 21.4048 33.2865 21.6731 33.2865V34.0541C21.6731 34.0541 21.6459 34.0778 21.6323 34.0914C21.3912 34.0914 21.1501 34.0914 20.9055 34.0914C20.8919 34.0778 20.8817 34.0676 20.8682 34.0541V34.0507Z" fill="white" stroke="white" stroke-width="0.4"/>
<path d="M19.2043 33.3273C19.2043 33.3273 19.1772 33.3001 19.1636 33.2865C19.1772 33.3001 19.1907 33.3137 19.2043 33.3273Z" fill="white" stroke="white" stroke-width="0.4"/>
<path d="M20.9089 33.2865C20.9089 33.2865 20.8817 33.3137 20.8682 33.3273C20.8817 33.3137 20.8953 33.3001 20.9089 33.2865Z" fill="white" stroke="white" stroke-width="0.4"/>
<path d="M31.594 33.3273C31.594 33.3273 31.5668 33.3001 31.5532 33.2865C31.5668 33.3001 31.5804 33.3137 31.594 33.3273Z" fill="white" stroke="white" stroke-width="0.4"/>
<path d="M33.2956 33.2865L33.2549 33.3273" stroke="white" stroke-width="0.4"/>
<path d="M18.3516 34.0507C18.3516 34.0507 18.3787 34.0744 18.3923 34.088C18.3787 34.0744 18.3651 34.0642 18.3516 34.0507Z" fill="white" stroke="white" stroke-width="0.4"/>
<path d="M19.1636 34.088C19.1636 34.088 19.1873 34.0642 19.2009 34.0507C19.1873 34.0642 19.1772 34.0744 19.1636 34.088Z" fill="white" stroke="white" stroke-width="0.4"/>
<path d="M20.8682 34.0507C20.8682 34.0507 20.8919 34.0744 20.9055 34.088C20.8919 34.0744 20.8817 34.0642 20.8682 34.0507Z" fill="white" stroke="white" stroke-width="0.4"/>
<path d="M21.6328 34.088C21.6328 34.088 21.66 34.0642 21.6736 34.0507C21.66 34.0642 21.6464 34.0744 21.6328 34.088Z" fill="white" stroke="white" stroke-width="0.4"/>
<path d="M30.7417 34.0507C30.7417 34.0507 30.7689 34.0744 30.7825 34.088C30.7689 34.0744 30.7553 34.0642 30.7417 34.0507Z" fill="white" stroke="white" stroke-width="0.4"/>
<path d="M31.5532 34.088C31.5532 34.088 31.577 34.0642 31.5906 34.0507C31.577 34.0642 31.5668 34.0744 31.5532 34.088Z" fill="white" stroke="white" stroke-width="0.4"/>
<path d="M33.2583 34.0507L33.2957 34.088" stroke="white" stroke-width="0.4"/>
<path d="M34.0225 34.088C34.0225 34.088 34.0496 34.0642 34.0632 34.0507C34.0496 34.0642 34.036 34.0744 34.0225 34.088Z" fill="white" stroke="white" stroke-width="0.4"/>
<path d="M28.2623 25.852C28.3302 26.9456 27.3045 27.9271 26.16 27.9101C25.1241 27.8931 24.129 26.9728 24.1528 25.7908C24.1765 24.6938 25.0698 23.8482 26.0649 23.787C27.3419 23.7089 28.3404 24.7686 28.2657 25.8486L28.2623 25.852ZM26.1837 24.6191C25.4909 24.575 24.9815 25.2372 24.9713 25.8112C24.9611 26.4871 25.5181 27.0678 26.1464 27.0848C26.8562 27.1018 27.42 26.5414 27.4472 25.8995C27.4777 25.1999 26.9106 24.5886 26.1837 24.6191Z" fill="white" stroke="white" stroke-width="0.4"/>
<path d="M38.9503 40.7347C38.8246 40.5139 38.6412 40.3679 38.356 40.4426C38.0707 40.5173 38.0027 40.7279 38.0163 40.9792C38.0265 41.1388 38.0163 41.2951 38.0163 41.5158C37.911 41.4241 37.8397 41.3698 37.7752 41.3087C36.5593 40.1879 35.3434 39.0637 34.1276 37.9429C33.6045 37.4606 33.1121 37.4606 32.589 37.9429C31.3664 39.0705 30.1437 40.1981 28.9244 41.329C28.8565 41.3936 28.8158 41.4819 28.7512 41.577C28.1773 41.0471 27.6678 40.5818 27.1618 40.1132C26.6218 39.6139 26.1225 39.6105 25.5859 40.1064C25.0798 40.5751 24.5738 41.0437 24.0338 41.5498C23.7043 41.2373 23.3987 40.9452 23.0896 40.6532C22.8723 40.4494 22.6549 40.249 22.4341 40.0486C21.9722 39.6343 21.4492 39.6309 20.9941 40.0486C20.3114 40.6769 19.6322 41.3087 18.9292 41.9607C18.8442 41.886 18.7661 41.8215 18.6948 41.7536C16.4499 39.6818 14.2049 37.6101 11.96 35.5383C11.8886 35.4738 11.8207 35.4025 11.7426 35.3482C11.549 35.2157 11.3113 35.2293 11.1448 35.3787C10.9716 35.5316 10.9513 35.7625 11.0973 35.9493C11.1415 36.0036 11.1958 36.0478 11.2467 36.0953C13.5494 38.2214 15.8521 40.3441 18.1548 42.4702C18.6744 42.9491 19.1669 42.9457 19.6933 42.4634C20.2979 41.9064 20.9024 41.346 21.5069 40.789C21.5715 40.7313 21.636 40.6769 21.7243 40.6022C22.0639 40.9181 22.3968 41.2271 22.7296 41.5362C22.9164 41.7094 23.1032 41.8826 23.29 42.0524C23.796 42.5143 24.2987 42.5143 24.8081 42.0456C25.2531 41.6381 25.698 41.2271 26.1395 40.8162C26.2108 40.7517 26.2618 40.6701 26.3365 40.5818C26.435 40.6634 26.4961 40.7075 26.5538 40.7585C27.0225 41.1898 27.4912 41.6245 27.9633 42.0592C28.4524 42.5109 28.9652 42.5075 29.4611 42.0524C30.6837 40.9249 31.9064 39.7973 33.1291 38.6697C33.2004 38.6052 33.2649 38.5339 33.3057 38.4931C34.6302 39.7158 35.9446 40.9283 37.259 42.1407C37.1163 42.1407 36.9397 42.1475 36.7631 42.1407C36.4914 42.1272 36.2638 42.1917 36.1823 42.4532C36.1008 42.7147 36.257 42.8845 36.4982 43H38.9537V40.7313L38.9503 40.7347Z" fill="white" stroke="white" stroke-width="0.4"/>
</svg>
