<svg width="52" height="52" viewBox="0 0 52 52" fill="none" xmlns="http://www.w3.org/2000/svg">
<path d="M26 52C40.3594 52 52 40.3594 52 26C52 11.6406 40.3594 0 26 0C11.6406 0 0 11.6406 0 26C0 40.3594 11.6406 52 26 52Z" fill="#0033A1"/>
<path d="M28.8758 25.309C28.9182 26.1647 28.9607 26.9992 28.9997 27.8354C29.0351 28.576 29.0669 29.3165 29.097 30.0589C29.1023 30.1776 29.0988 30.2963 29.0881 30.4132C29.0156 31.129 28.6599 31.5683 28.0829 31.6658C27.3626 31.7863 26.6971 31.4727 26.4476 30.8171C26.2706 30.3494 26.191 29.8445 26.0689 29.3573C26.0547 29.297 26.0441 29.2368 25.9804 29.173C25.899 29.561 25.8299 29.9526 25.7361 30.3388C25.5114 31.2618 25.0318 31.6675 24.1787 31.6782C23.5681 31.6853 23.1239 31.3557 22.9876 30.7587C22.9292 30.5 22.9062 30.2254 22.9168 29.9597C22.9752 28.5104 23.0496 27.0594 23.1168 25.6102C23.1204 25.5163 23.1168 25.4224 23.1168 25.3214C22.9133 25.3763 22.7328 25.4454 22.5434 25.4738C21.5559 25.6208 20.8196 25.0309 20.8621 24.0263C20.901 23.0962 21.009 22.1607 21.1842 21.2466C21.3984 20.1304 21.7169 19.0355 21.9895 17.9318C22.2337 16.9432 22.8868 16.3231 23.8212 16.0201C25.3043 15.5382 26.8016 15.5347 28.2793 16.0538C29.1412 16.355 29.7324 16.9414 29.9961 17.8361C30.5305 19.6521 30.9677 21.4893 31.1429 23.3779C31.1641 23.6135 31.1694 23.8509 31.1588 24.0866C31.1146 25.0805 30.3429 25.6704 29.3678 25.4578C29.212 25.4242 29.0634 25.3675 28.8775 25.3108L28.8758 25.309ZM24.1787 25.1708C24.1787 25.1708 24.1823 25.1708 24.184 25.1708C24.1292 26.1576 24.069 27.1445 24.023 28.1331C23.9893 28.8524 23.9628 29.5717 23.9575 30.291C23.9575 30.4061 24.0991 30.6258 24.1557 30.6205C24.315 30.6045 24.5079 30.5301 24.6052 30.4097C24.7114 30.2786 24.745 30.0748 24.7734 29.8959C25.0105 28.4555 25.2353 27.0116 25.4689 25.5712C25.5308 25.1903 25.6901 25.0255 25.9786 25.0185C26.2812 25.0096 26.4759 25.1903 26.5343 25.5624C26.7255 26.783 26.9042 28.0037 27.1024 29.2226C27.1661 29.6124 27.267 29.9986 27.3732 30.3813C27.4352 30.6028 27.6404 30.6931 27.8316 30.624C27.936 30.5868 27.9979 30.3973 28.0528 30.2644C28.0829 30.19 28.0634 30.0943 28.0599 30.0093C28.0068 28.8931 27.959 27.7752 27.8988 26.659C27.7856 24.5348 27.6652 22.4088 27.552 20.2845C27.529 19.8647 27.7006 19.6308 28.021 19.6078C28.3537 19.583 28.5342 19.7956 28.5908 20.2349C28.7342 21.3422 28.8687 22.4513 29.051 23.5533C29.097 23.8314 29.2527 24.1255 29.4421 24.3381C29.7058 24.6322 30.0598 24.4923 30.1076 24.0972C30.1376 23.8545 30.1199 23.6029 30.0952 23.3584C29.927 21.654 29.5147 19.9993 29.0758 18.3481C28.8616 17.5438 28.359 17.1062 27.5962 16.906C26.6458 16.6562 25.6866 16.6526 24.7238 16.8298C23.7646 17.0069 23.0956 17.4694 22.8868 18.4987C22.6461 19.6857 22.3222 20.8568 22.0868 22.0456C21.9611 22.6745 21.9222 23.323 21.8957 23.9661C21.8886 24.1238 22.0496 24.386 22.1859 24.4267C22.3257 24.4675 22.5859 24.3417 22.6903 24.2088C22.8337 24.0228 22.9239 23.7694 22.9593 23.5338C23.1274 22.4194 23.2708 21.3015 23.4159 20.1836C23.4655 19.8009 23.6549 19.5936 23.9716 19.6113C24.2849 19.629 24.4601 19.8611 24.453 20.2491C24.453 20.3359 24.4477 20.421 24.4424 20.506C24.3539 22.0615 24.2654 23.6171 24.1752 25.1744L24.1787 25.1708Z" fill="white" stroke="white" stroke-width="0.4"/>
<path d="M13.4807 28.0517C13.6931 27.9861 13.8701 27.9117 14.0559 27.8763C14.6983 27.7576 15.27 27.917 15.7585 28.3511C16.8433 29.3149 17.9158 30.291 19.0149 31.2354C19.3423 31.517 19.7299 31.7456 20.1175 31.9405C22.0324 32.9025 23.3562 34.3588 23.8872 36.46C24.0641 37.1598 23.9279 37.8827 23.7208 38.5594C23.4766 39.3656 23.3898 40.1752 23.4252 41.0079C23.4323 41.1691 23.4341 41.3303 23.4235 41.4916C23.4022 41.7963 23.1863 42.0018 22.9049 41.9983C22.6377 41.9947 22.4023 41.7963 22.4023 41.5111C22.4023 40.5685 22.3103 39.6207 22.6182 38.6976C22.7368 38.3451 22.7793 37.9659 22.8571 37.5974C23.0005 36.9118 22.8465 36.2793 22.528 35.6698C21.8519 34.3783 20.8803 33.4145 19.537 32.8139C19.114 32.6243 18.714 32.3444 18.3618 32.0397C17.2876 31.1149 16.2363 30.1617 15.1833 29.2121C14.893 28.9517 14.578 28.8028 14.1851 28.9038C13.9055 28.9747 13.709 29.1465 13.6276 29.43C13.5497 29.7029 13.6276 29.919 13.8347 30.1227C15.0417 31.3168 16.2398 32.5198 17.4362 33.7228C17.5336 33.8202 17.6734 33.9318 17.684 34.047C17.7017 34.2295 17.6875 34.4811 17.576 34.5927C17.4645 34.7043 17.215 34.7149 17.0309 34.7043C16.9265 34.6972 16.8203 34.5679 16.7318 34.4775C15.5071 33.2551 14.2877 32.0273 13.0595 30.8101C12.7781 30.532 12.6117 30.2078 12.5799 29.8198C12.4525 28.2448 12.3303 26.6697 12.2047 25.0965C12.1905 24.9246 12.1817 24.751 12.141 24.5863C12.0507 24.2284 11.8012 24.0211 11.4472 23.9485C11.2012 23.8971 11.049 23.9945 11.049 24.2674C11.049 26.3845 11.0402 28.5034 11.0632 30.6206C11.0667 30.8775 11.2154 31.1609 11.3676 31.3842C11.9799 32.2789 12.6029 33.1665 13.2524 34.0346C14.332 35.4803 15.4346 36.91 16.5265 38.3468C16.5655 38.3982 16.5991 38.4531 16.638 38.5045C17.0805 39.091 17.33 39.7288 17.238 40.4835C17.2008 40.79 17.238 41.1071 17.2292 41.4172C17.2203 41.7697 17.0115 41.9947 16.7106 41.9947C16.4062 41.9947 16.2044 41.7733 16.1991 41.4172C16.1938 40.9654 16.2204 40.5118 16.1885 40.0636C16.1708 39.8191 16.1195 39.5356 15.9797 39.3461C15.1284 38.1874 14.2364 37.0571 13.3763 35.9019C12.4542 34.6618 11.5428 33.411 10.6473 32.1531C10.1836 31.5029 9.98181 30.7765 10.0013 29.9473C10.0473 28.0782 10.0154 26.2073 10.0154 24.3365C10.0154 23.2965 10.7658 22.7118 11.7711 22.9634C12.5091 23.1477 13.0949 23.7553 13.1781 24.5119C13.2896 25.5376 13.3515 26.567 13.4347 27.5946C13.4471 27.7416 13.463 27.8869 13.4789 28.0481L13.4807 28.0517Z" fill="white" stroke="white" stroke-width="0.4"/>
<path d="M38.5342 28.0693C38.5926 27.3323 38.6457 26.6395 38.7023 25.9451C38.7413 25.4632 38.7625 24.9777 38.8298 24.5011C38.9572 23.5905 39.7801 22.8995 40.6951 22.9031C41.3889 22.9049 41.98 23.4346 41.9853 24.1255C42.0013 26.3082 42.0136 28.4909 41.9712 30.6719C41.9641 31.074 41.7588 31.5134 41.5287 31.8589C40.8066 32.9502 40.0474 34.0203 39.2669 35.0709C38.2864 36.3908 37.2759 37.6877 36.2653 38.9846C35.9255 39.4204 35.7432 39.8775 35.8034 40.4391C35.8388 40.7686 35.8158 41.1053 35.8069 41.4383C35.7999 41.7732 35.6016 41.9893 35.3096 41.9982C35.0105 42.007 34.784 41.7785 34.7787 41.4348C34.7698 40.8643 34.738 40.2921 34.7911 39.7269C34.8212 39.4222 34.9557 39.0944 35.138 38.8446C36.0352 37.6115 36.9662 36.4032 37.8776 35.1808C38.7253 34.0434 39.5625 32.8989 40.4031 31.7597C40.8119 31.2069 40.9872 30.6063 40.9712 29.8994C40.9288 28.0728 40.9571 26.2445 40.9571 24.4161C40.9571 23.9572 40.7394 23.819 40.3288 24.0228C39.9837 24.1929 39.8439 24.4905 39.8155 24.8572C39.7465 25.7891 39.6775 26.7228 39.6049 27.6547C39.5465 28.4041 39.5147 29.1589 39.405 29.9012C39.3607 30.1988 39.2032 30.5284 38.9961 30.7445C37.7697 32.0113 36.5149 33.2479 35.2689 34.4934C35.2158 34.5465 35.1645 34.6014 35.1043 34.6475C34.8689 34.8247 34.5911 34.8105 34.407 34.605C34.2177 34.3924 34.2088 34.1603 34.3805 33.93C34.4389 33.8538 34.5114 33.7883 34.5787 33.7192C35.7485 32.5481 36.9184 31.377 38.0882 30.2059C38.4705 29.8232 38.5236 29.5221 38.2687 29.1961C37.9944 28.8471 37.4652 28.7673 37.0759 29.0242C36.9432 29.1128 36.8228 29.2226 36.7025 29.3307C35.7308 30.1953 34.7592 31.0581 33.7929 31.928C33.3345 32.3408 32.8284 32.6632 32.2656 32.9272C30.7949 33.6146 29.802 34.7609 29.2268 36.2721C28.9755 36.9312 29.0781 37.6044 29.2746 38.2369C29.5932 39.2627 29.6463 40.3027 29.6144 41.3586C29.602 41.7626 29.4144 42.0017 29.0941 42C28.772 42 28.5667 41.7643 28.5826 41.3568C28.6215 40.3293 28.5207 39.33 28.2286 38.3361C27.7349 36.6601 28.3366 35.2357 29.3702 33.9424C30.094 33.0371 30.9895 32.3621 32.0426 31.8695C32.4797 31.6658 32.8744 31.3433 33.2443 31.0244C34.2053 30.1971 35.1521 29.3538 36.083 28.4945C36.7998 27.8337 37.5821 27.6583 38.5307 28.0746L38.5342 28.0693Z" fill="white" stroke="white" stroke-width="0.4"/>
<path d="M35.3253 22.8145C35.3696 23.5958 35.4174 24.3328 35.4492 25.0716C35.4758 25.6935 35.5183 26.3189 35.4864 26.9372C35.4545 27.5626 35.0935 27.9612 34.5909 28.0498C33.9502 28.1632 33.3272 27.8868 33.0812 27.327C32.922 26.962 32.8352 26.5651 32.7007 26.1364C32.6069 26.489 32.5414 26.8096 32.4335 27.1161C32.191 27.8089 31.6229 28.1455 30.8973 28.0569C30.2938 27.9843 29.8266 27.3553 29.9274 26.7494C29.9699 26.4925 30.1381 26.349 30.3876 26.3295C30.6548 26.31 30.8247 26.4518 30.9221 26.7033C30.9681 26.822 31.0672 26.9177 31.1415 27.0258C31.2583 26.9071 31.4512 26.8043 31.4796 26.6661C31.6919 25.658 31.8725 24.6447 32.0618 23.6313C32.1025 23.4098 32.1432 23.1883 32.1822 22.9651C32.2353 22.6728 32.4016 22.4992 32.706 22.4992C33.0104 22.4992 33.1768 22.6745 33.2299 22.9651C33.4423 24.1273 33.6529 25.2878 33.8653 26.45C33.8706 26.4819 33.8723 26.5155 33.8812 26.5457C33.9537 26.7653 33.9821 27.0736 34.3006 27.0116C34.5926 26.9549 34.4776 26.6573 34.467 26.4695C34.3325 23.9378 34.1838 21.406 34.0387 18.8725C34.0352 18.8194 34.0263 18.7662 34.0263 18.7113C34.0263 18.3977 34.2051 18.178 34.4847 18.1444C34.7431 18.1143 34.9785 18.2773 35.0386 18.5731C35.1731 19.2251 35.2793 19.8824 35.4121 20.5344C35.4776 20.8586 35.559 21.1846 35.6687 21.4964C35.7466 21.7178 35.8421 22.0509 36.1377 21.9659C36.3961 21.8897 36.3288 21.5655 36.2864 21.3369C36.189 20.8196 36.0864 20.304 35.9572 19.7938C35.7023 18.7964 35.4138 17.806 35.1625 16.8085C35.0546 16.3816 34.8121 16.091 34.4139 15.9528C33.2706 15.5577 32.1167 15.5631 30.9752 15.9634C30.7893 16.029 30.6301 16.1743 30.469 16.2965C30.2035 16.4985 29.9221 16.495 29.7221 16.2735C29.5381 16.0698 29.5257 15.7367 29.7682 15.556C30.1062 15.3026 30.4672 15.0369 30.8619 14.9111C32.0654 14.5266 33.2936 14.5355 34.5095 14.8863C35.3908 15.1396 35.9713 15.6835 36.189 16.6119C36.5465 18.1479 36.9483 19.6733 37.3111 21.2076C37.3695 21.4503 37.3606 21.7249 37.3164 21.9747C37.1659 22.8234 36.4775 23.2149 35.6598 22.9421C35.5607 22.9084 35.4652 22.8677 35.3236 22.8145H35.3253Z" fill="white" stroke="white" stroke-width="0.4"/>
<path d="M19.2876 26.1293C19.1956 26.4783 19.1319 26.7919 19.031 27.0913C18.7886 27.8018 18.2629 28.1295 17.5143 28.0587C16.9834 28.0091 16.5692 27.6016 16.5356 26.9921C16.502 26.3827 16.5391 25.7679 16.5639 25.1567C16.5958 24.386 16.6471 23.6153 16.6931 22.8092C16.5409 22.8677 16.4276 22.919 16.3073 22.9545C15.4153 23.2202 14.6543 22.6923 14.6809 21.732C14.7003 21.0428 14.8578 20.3501 15.0171 19.6733C15.2667 18.6192 15.587 17.581 15.8489 16.5304C16.0436 15.7509 16.5197 15.2335 17.2524 14.9766C18.6151 14.4983 19.9973 14.5054 21.3565 14.9873C21.7052 15.1113 22.0185 15.377 22.3034 15.6286C22.5105 15.8129 22.4804 16.0804 22.2945 16.2965C22.1282 16.4896 21.8114 16.5428 21.6256 16.3621C21.1353 15.8873 20.523 15.7633 19.8858 15.703C19.1762 15.6357 18.4682 15.6694 17.7798 15.8784C17.286 16.0272 16.9568 16.3142 16.8294 16.8582C16.4825 18.341 16.0914 19.8151 15.7286 21.2944C15.6914 21.4468 15.6967 21.6169 15.7197 21.7728C15.7303 21.8525 15.8118 21.9641 15.8825 21.9818C15.9516 21.9995 16.0878 21.9411 16.1232 21.8773C16.2507 21.6452 16.3922 21.406 16.4507 21.1509C16.6259 20.3767 16.7657 19.5936 16.9179 18.8141C16.932 18.7397 16.9427 18.6653 16.9621 18.5926C17.0435 18.2808 17.2665 18.1107 17.5373 18.1515C17.8169 18.194 17.9957 18.4137 17.9798 18.7308C17.9461 19.4076 17.9001 20.0826 17.8612 20.7594C17.7497 22.7011 17.6364 24.6447 17.5373 26.5882C17.5302 26.7317 17.6028 26.9815 17.6913 27.0081C17.9391 27.0825 18.0452 26.877 18.086 26.6573C18.3001 25.5287 18.5107 24.4002 18.7213 23.2698C18.7408 23.1635 18.7602 23.059 18.7815 22.9527C18.8399 22.6604 19.0133 22.4938 19.316 22.5009C19.6044 22.5062 19.7708 22.6728 19.8221 22.9492C19.9956 23.9112 20.1619 24.8732 20.3371 25.8352C20.3938 26.1417 20.4451 26.4518 20.5495 26.7423C20.592 26.861 20.769 26.9319 20.8858 27.024C20.9513 26.9319 21.0415 26.8504 21.0769 26.7476C21.1796 26.45 21.4061 26.2781 21.6733 26.3277C21.9494 26.3791 22.1069 26.6059 22.0892 26.9248C22.0556 27.4935 21.7264 27.9152 21.2238 28.0339C20.6221 28.1756 19.9566 27.9187 19.7106 27.3854C19.5337 27.001 19.4381 26.5793 19.2894 26.124L19.2876 26.1293Z" fill="white" stroke="white" stroke-width="0.4"/>
<path d="M28.0921 12.3563C28.0814 12.9923 27.8726 13.5398 27.4302 13.9933C26.6497 14.7906 25.5612 14.8384 24.71 14.1174C23.6852 13.2475 23.6516 11.49 24.6462 10.5846C26.0479 9.30903 27.6939 10.3844 27.9965 11.6583C28.0514 11.885 28.0602 12.1242 28.0903 12.3581L28.0921 12.3563ZM27.0443 12.3244C27.0443 12.3244 27.0355 12.3244 27.0319 12.3244C27.0319 12.2394 27.039 12.1526 27.0319 12.0675C26.9824 11.6016 26.6479 11.2047 26.1877 11.0772C25.7772 10.9638 25.4869 11.187 25.2374 11.4669C24.9754 11.761 24.956 12.126 24.9754 12.4963C25.0037 13.0473 25.4604 13.5628 25.9648 13.6053C26.3913 13.6408 26.9098 13.189 27.016 12.677C27.0408 12.5636 27.0373 12.4431 27.0461 12.3262L27.0443 12.3244Z" fill="white" stroke="white" stroke-width="0.4"/>
<path d="M34.6437 11.9879C34.6561 12.608 34.4738 13.1094 34.0721 13.5239C33.2421 14.3779 31.9271 14.3106 31.2015 13.3521C30.6688 12.6487 30.6104 11.855 30.9873 11.0702C31.3395 10.3367 31.9731 9.98414 32.789 10.0019C33.8526 10.0249 34.6473 10.9036 34.6437 11.9879ZM33.612 12.1066C33.6066 11.4989 33.1996 11.0241 32.6952 11.0347C32.1766 11.0471 31.7961 11.5308 31.805 12.1651C31.8121 12.6913 32.2014 13.0917 32.7076 13.0934C33.2368 13.0934 33.619 12.6789 33.6137 12.1066H33.612Z" fill="white" stroke="white" stroke-width="0.4"/>
<path d="M21.236 12.0534C21.2378 13.1961 20.3617 14.1316 19.2945 14.1263C18.2397 14.1227 17.369 13.1943 17.3672 12.0711C17.3637 10.9319 18.2415 9.99471 19.3069 10C20.3635 10.0053 21.2324 10.9302 21.2342 12.0534H21.236ZM20.2024 12.0871C20.2095 11.5237 19.8201 11.0559 19.3246 11.0347C18.8414 11.0152 18.4061 11.4865 18.399 12.0392C18.3919 12.6008 18.7848 13.0721 19.2768 13.0916C19.7617 13.1111 20.1953 12.6416 20.2024 12.0871Z" fill="white" stroke="white" stroke-width="0.4"/>
</svg>
