<svg width="52" height="52" viewBox="0 0 52 52" fill="none" xmlns="http://www.w3.org/2000/svg">
<path d="M26 52C40.3594 52 52 40.3594 52 26C52 11.6406 40.3594 0 26 0C11.6406 0 0 11.6406 0 26C0 40.3594 11.6406 52 26 52Z" fill="#0033A1"/>
<path d="M33.8085 33.3044C31.7913 33.3044 29.7706 33.3044 27.7534 33.3008C27.5277 33.3008 27.3772 33.3617 27.2196 33.5266C24.3354 36.5469 20.8205 37.6648 16.8006 36.5899C12.7125 35.4971 10.1364 32.7383 9.23709 28.6001C7.94008 22.6489 12.1106 16.8554 18.18 16.1173C21.727 15.6838 24.751 16.8375 27.2017 19.4494C27.3665 19.6214 27.5205 19.6966 27.7606 19.6966C31.7412 19.6895 35.7253 19.6895 39.7059 19.6931C40.8453 19.6931 41.4723 20.3165 41.4723 21.4487C41.4723 24.8202 41.4723 28.1881 41.4723 31.5596C41.4723 32.6703 40.8381 33.308 39.731 33.308C37.7568 33.308 35.7827 33.308 33.8085 33.308V33.3044ZM33.615 32.2546C35.6644 32.2546 37.7138 32.2546 39.7632 32.2546C40.2362 32.2546 40.4225 32.0719 40.4225 31.6061C40.4225 28.1952 40.4225 24.7807 40.4225 21.3698C40.4225 20.9399 40.2326 20.7428 39.8098 20.7428C38.7099 20.7393 37.6063 20.7464 36.5064 20.7357C36.295 20.7357 36.2305 20.7894 36.2305 21.008C36.2413 21.8679 36.2305 22.7313 36.2413 23.5912C36.2413 23.8098 36.1983 23.8886 35.9582 23.8886C34.3997 23.8779 32.8411 23.8779 31.279 23.8886C31.0461 23.8886 30.9888 23.8241 30.9923 23.5984C31.0067 22.7493 30.9888 21.8965 31.0031 21.0474C31.0067 20.8073 30.9494 20.7321 30.6985 20.7357C29.6416 20.75 28.5846 20.7428 27.5241 20.7428C26.9688 20.7428 26.8075 20.9077 26.8075 21.4666C26.8075 24.8237 26.8075 28.1845 26.8075 31.5416C26.8075 32.097 26.9724 32.2618 27.5277 32.2618C29.5556 32.2618 31.5835 32.2618 33.6114 32.2618L33.615 32.2546ZM19.4555 25.9703C20.4157 25.9703 21.3723 25.9631 22.3325 25.9738C22.5654 25.9738 22.6263 25.9094 22.6156 25.68C22.5547 24.4619 22.4543 23.2473 22.2358 22.047C22.2 21.8535 22.1426 21.7747 21.9277 21.7747C20.2939 21.7855 18.6601 21.7819 17.0263 21.7747C16.8292 21.7747 16.7683 21.8464 16.7361 22.0255C16.5139 23.2365 16.41 24.4619 16.3527 25.6908C16.3419 25.9022 16.3993 25.9703 16.6178 25.9703C17.5637 25.9595 18.5132 25.9667 19.459 25.9667L19.4555 25.9703ZM19.502 27.02C18.5418 27.02 17.5852 27.0236 16.625 27.0165C16.4279 27.0165 16.3348 27.0451 16.3455 27.278C16.4029 28.5177 16.5068 29.7538 16.7325 30.9755C16.7647 31.1439 16.8292 31.2084 17.0084 31.2084C18.6529 31.2013 20.2974 31.2013 21.942 31.2084C22.1426 31.2084 22.1964 31.1296 22.2286 30.9505C22.4508 29.7395 22.5547 28.5141 22.612 27.2852C22.6227 27.0666 22.5582 27.0093 22.3433 27.0129C21.3974 27.0236 20.4479 27.0165 19.502 27.0165V27.02ZM13.5258 21.7855C12.8701 21.7855 12.218 21.7855 11.5624 21.7855C11.4262 21.7855 11.3187 21.7926 11.2399 21.9395C10.5914 23.1326 10.2009 24.401 10.1006 25.7589C10.0862 25.9416 10.14 25.9774 10.3084 25.9774C11.8884 25.9738 13.4685 25.9703 15.0521 25.9774C15.2312 25.9774 15.2957 25.9344 15.2993 25.7445C15.3387 24.5013 15.4426 23.2652 15.6755 22.0398C15.7149 21.8392 15.6648 21.7747 15.4498 21.7783C14.8085 21.7926 14.1635 21.7819 13.5186 21.7819L13.5258 21.7855ZM12.7125 27.02C11.9171 27.02 11.1217 27.0236 10.3263 27.0165C10.1364 27.0165 10.0898 27.0666 10.1041 27.2565C10.208 28.6037 10.5986 29.8577 11.2363 31.0436C11.3223 31.2049 11.437 31.2084 11.5839 31.2084C12.8594 31.2084 14.1349 31.1977 15.4104 31.212C15.6755 31.212 15.7185 31.1368 15.6719 30.8967C15.4426 29.7072 15.3423 28.4998 15.3065 27.2923C15.2993 27.0523 15.2169 27.0093 15.0019 27.0129C14.2388 27.0236 13.4756 27.0165 12.7125 27.0165V27.02ZM19.4519 20.7357C20.1935 20.7357 20.9352 20.7357 21.6769 20.7357C21.8166 20.7357 21.9384 20.7572 21.8739 20.535C21.5944 19.6142 21.2792 18.7113 20.7095 17.9195C19.8997 16.7945 19.0542 16.7945 18.2445 17.9267C17.6784 18.7185 17.3631 19.6214 17.0836 20.5422C17.0263 20.7321 17.1194 20.7357 17.2592 20.7357C17.9901 20.7357 18.721 20.7357 19.4519 20.7357ZM19.4877 32.2546C18.7461 32.2546 18.0044 32.2546 17.2627 32.2546C17.1302 32.2546 17.0227 32.2475 17.0836 32.4445C17.3631 33.3761 17.6819 34.2897 18.2624 35.0851C19.0578 36.1815 19.8926 36.1886 20.688 35.0959C21.2684 34.3005 21.5873 33.3868 21.8703 32.4553C21.9348 32.2403 21.8238 32.2511 21.6769 32.2511C20.9459 32.2511 20.215 32.2511 19.4841 32.2511L19.4877 32.2546ZM25.7613 23.8779C25.7613 23.2688 25.7542 22.6561 25.7613 22.047C25.7613 21.8607 25.7363 21.7747 25.5177 21.7783C24.8405 21.7926 24.167 21.7926 23.4898 21.7783C23.2533 21.7711 23.2462 21.8714 23.2784 22.0506C23.5077 23.2759 23.6116 24.512 23.6546 25.7553C23.6618 25.9273 23.7119 25.9774 23.8839 25.9774C24.4285 25.9667 24.9731 25.9631 25.5213 25.9774C25.7398 25.9846 25.7685 25.895 25.7649 25.7087C25.7542 25.0996 25.7649 24.487 25.7649 23.8779H25.7613ZM25.7613 29.1125C25.7613 28.5034 25.7542 27.8907 25.7613 27.2816C25.7613 27.0953 25.7363 27.0093 25.5177 27.0129C24.9731 27.0308 24.4285 27.0236 23.8803 27.0129C23.7083 27.0129 23.6582 27.063 23.651 27.235C23.608 28.4783 23.5041 29.7144 23.2748 30.9397C23.2426 31.1189 23.2497 31.2156 23.4862 31.212C24.1634 31.1941 24.837 31.1977 25.5141 31.212C25.7327 31.2156 25.7613 31.1296 25.7578 30.9433C25.747 30.3342 25.7578 29.7215 25.7578 29.1125H25.7613ZM12.0353 20.7357C13.3467 20.7357 14.5756 20.7357 15.8045 20.7357C15.9801 20.7357 15.9837 20.6139 16.0123 20.4992C16.1556 19.951 16.3312 19.4136 16.5426 18.8869C16.754 18.3566 17.0227 17.855 17.3702 17.314C15.1775 17.8622 13.4506 18.9729 12.0317 20.7321L12.0353 20.7357ZM12.0353 32.2546C13.447 34.0174 15.1775 35.1281 17.3666 35.6727C16.6859 34.6301 16.281 33.5445 15.9944 32.4123C15.955 32.2546 15.8511 32.2511 15.7257 32.2511C15.0951 32.2511 14.4609 32.2511 13.8303 32.2511C13.2571 32.2511 12.6838 32.2511 12.0353 32.2511V32.2546ZM21.5765 17.3104C22.2644 18.3531 22.6621 19.4279 22.9488 20.5494C22.9918 20.7142 23.0849 20.7393 23.2318 20.7393C24.038 20.7357 24.8441 20.7393 25.6503 20.7357C25.7327 20.7357 25.8151 20.7536 25.8867 20.6712C26.3776 20.1015 26.374 20.0334 25.8043 19.5175C25.7649 19.4817 25.7219 19.4458 25.6825 19.41C24.5145 18.3925 23.1817 17.6938 21.5801 17.314L21.5765 17.3104ZM21.5801 35.6727C21.7127 35.644 21.7628 35.6369 21.8166 35.6225C23.3787 35.2213 24.7402 34.4617 25.919 33.3653C26.0551 33.2399 26.2343 33.1181 26.2844 32.9605C26.331 32.8207 26.0874 32.7312 26.0229 32.5843C26.0014 32.5341 25.962 32.4911 25.9441 32.4409C25.8975 32.2976 25.8079 32.2475 25.6503 32.2511C24.8334 32.2582 24.0165 32.2582 23.1996 32.2511C23.0563 32.2511 22.9846 32.2976 22.9488 32.4374C22.6621 33.5588 22.2644 34.6337 21.5801 35.6691V35.6727ZM33.6401 20.7357C33.203 20.7357 32.7695 20.7464 32.3323 20.7321C32.1174 20.7249 32.0242 20.7679 32.0314 21.0116C32.0493 21.5347 32.0457 22.0578 32.0314 22.5773C32.0278 22.7779 32.0851 22.8352 32.2858 22.8352C33.1672 22.8245 34.0485 22.8281 34.9299 22.8352C35.1019 22.8352 35.1843 22.8066 35.1772 22.6059C35.1628 22.0613 35.1664 21.5167 35.1772 20.9721C35.1807 20.7858 35.127 20.7285 34.9371 20.7321C34.5036 20.7428 34.0665 20.7357 33.6293 20.7357H33.6401Z" fill="white" stroke="white" stroke-width="0.4"/>
<path d="M41.0495 13.423C38.7385 14.5767 36.4669 15.7124 34.1417 16.8769C34.1417 16.4792 34.1273 16.1352 34.1452 15.7913C34.156 15.5655 34.0915 15.4939 33.8586 15.4975C32.9736 15.5118 32.0922 15.5046 31.2073 15.5046C27.5957 15.5046 23.9878 15.5046 20.3762 15.5118C20.0968 15.5118 19.9785 15.4688 19.9929 15.1499C20.0215 14.4584 20 14.4584 20.6951 14.4584C25.3636 14.4584 30.0321 14.4584 34.7006 14.4584C35.0207 14.4584 35.1831 14.6161 35.1879 14.9314C35.1879 14.9959 35.195 15.0603 35.1986 15.175C36.3666 14.591 37.5096 14.0213 38.7277 13.4122C37.5275 12.8103 36.3881 12.2406 35.1879 11.6387C35.1879 11.8071 35.1735 11.9325 35.1879 12.0543C35.2309 12.3266 35.1055 12.3696 34.8618 12.3696C31.4151 12.3624 27.9684 12.3624 24.5216 12.3696C24.2493 12.3696 24.1741 12.3051 24.1812 12.0292C24.1992 11.3127 24.1848 11.3127 24.8907 11.3127C27.8573 11.3127 30.8239 11.3091 33.7905 11.3198C34.0879 11.3198 34.1667 11.2374 34.1417 10.9579C34.1166 10.7107 34.1417 10.4563 34.1345 10.2055C34.1273 10.0228 34.1452 9.94041 34.3602 10.0479C36.5386 11.1443 38.7206 12.2335 40.9026 13.3262C40.9384 13.3441 40.967 13.3692 41.0423 13.423H41.0495Z" fill="white" stroke="white" stroke-width="0.4"/>
<path d="M26.2775 36.7761C25.0951 37.3673 23.9593 37.9334 22.7555 38.5389C23.9557 39.1408 25.0951 39.7105 26.2488 40.2873C26.2667 40.23 26.2846 40.2049 26.2846 40.1762C26.2989 39.7821 26.4996 39.5851 26.8865 39.5851C30.2365 39.5851 33.5829 39.5851 36.9329 39.5779C37.2124 39.5779 37.3056 39.6316 37.2948 39.929C37.2697 40.6313 37.2876 40.6313 36.5711 40.6313C33.6044 40.6313 30.6378 40.6349 27.6712 40.6241C27.3989 40.6241 27.3093 40.6886 27.3308 40.9645C27.3559 41.2869 27.338 41.6166 27.338 41.9999C25.027 40.8462 22.7519 39.7069 20.4087 38.5389C22.7411 37.3708 25.0127 36.2351 27.338 35.0742C27.338 35.4683 27.3523 35.8123 27.3344 36.1527C27.3237 36.3748 27.381 36.4536 27.6174 36.4465C28.2158 36.4285 28.8177 36.4393 29.4161 36.4393C33.3214 36.4393 37.2267 36.4429 41.1285 36.4321C41.4259 36.4321 41.4904 36.511 41.4796 36.794C41.4581 37.4891 41.4725 37.4891 40.781 37.4891C36.1017 37.4891 31.4225 37.4891 26.7432 37.4891C26.4399 37.4891 26.287 37.3326 26.2846 37.0197C26.2846 36.9552 26.2775 36.8907 26.2739 36.7725L26.2775 36.7761Z" fill="white" stroke="white" stroke-width="0.4"/>
<path d="M22.1 11.8071C22.1 11.4774 22.2661 11.3126 22.5981 11.3126C22.9301 11.3126 23.1128 11.4918 23.1462 11.8501C23.1797 12.2083 23.0077 12.3779 22.6303 12.3588C22.2529 12.3397 22.075 12.1546 22.0965 11.8035L22.1 11.8071Z" fill="white" stroke="white" stroke-width="0.4"/>
<path d="M21.0537 11.8321C21.0537 12.1857 20.8447 12.3624 20.4267 12.3624C20.1448 12.3624 20.0039 12.151 20.0039 11.7282C20.0039 11.4512 20.2177 11.3126 20.6452 11.3126C20.9175 11.3126 21.0537 11.4858 21.0537 11.8321Z" fill="white" stroke="white" stroke-width="0.4"/>
<path d="M38.853 39.5852C39.2065 39.5852 39.3833 39.7942 39.3833 40.2122C39.3833 40.4941 39.1719 40.635 38.7491 40.635C38.472 40.635 38.3335 40.4212 38.3335 39.9937C38.3335 39.7237 38.5067 39.5888 38.853 39.5888V39.5852Z" fill="white" stroke="white" stroke-width="0.4"/>
<path d="M41.4764 40.1047C41.4764 40.4582 41.2793 40.635 40.8852 40.635C40.5818 40.635 40.4302 40.4236 40.4302 40.0008C40.4302 39.7237 40.644 39.5852 41.0715 39.5852C41.3414 39.5852 41.4776 39.7584 41.48 40.1047H41.4764Z" fill="white" stroke="white" stroke-width="0.4"/>
<path d="M36.7288 29.116C35.9656 29.116 35.2025 29.1088 34.4393 29.1196C34.2279 29.1196 34.1348 29.0909 34.1348 28.8437C34.1383 28.0662 34.1276 28.0662 34.9123 28.0662C36.2952 28.0662 37.6818 28.0698 39.0648 28.0626C39.2869 28.0626 39.3909 28.0877 39.3837 28.3564C39.3694 29.116 39.3837 29.116 38.6205 29.116C37.9899 29.116 37.3558 29.116 36.7252 29.116H36.7288Z" fill="white" stroke="white" stroke-width="0.4"/>
<path d="M34.6396 31.2085C34.3076 31.2085 34.1416 31.0437 34.1416 30.7141C34.1416 30.3438 34.3303 30.1587 34.7077 30.1587C34.7722 30.1587 34.8403 30.1659 34.9048 30.1587C35.1305 30.1229 35.2272 30.2089 35.1914 30.4418C35.1806 30.517 35.1914 30.5922 35.1914 30.6711C35.1914 31.0293 35.0075 31.2085 34.6396 31.2085Z" fill="white" stroke="white" stroke-width="0.4"/>
<path d="M37.2876 30.7176C37.2876 31.0473 37.1216 31.2121 36.7896 31.2121C36.4576 31.2121 36.2748 31.0329 36.2414 30.6747C36.2079 30.3164 36.3799 30.1468 36.7573 30.1659C37.1347 30.185 37.3127 30.3701 37.2912 30.7212L37.2876 30.7176Z" fill="white" stroke="white" stroke-width="0.4"/>
<path d="M38.8568 30.1621C39.2055 30.1621 39.3799 30.3723 39.3799 30.7927C39.3799 31.0722 39.1673 31.2119 38.7421 31.2119C38.4674 31.2119 38.3301 30.9969 38.3301 30.567C38.3301 30.2995 38.5044 30.1657 38.8532 30.1657L38.8568 30.1621Z" fill="white" stroke="white" stroke-width="0.4"/>
</svg>
