<svg width="52" height="52" viewBox="0 0 52 52" fill="none" xmlns="http://www.w3.org/2000/svg">
<path d="M26 52C40.3594 52 52 40.3594 52 26C52 11.6406 40.3594 0 26 0C11.6406 0 0 11.6406 0 26C0 40.3594 11.6406 52 26 52Z" fill="#0033A1"/>
<path d="M39.8264 38.8581C39.7015 38.6396 39.5212 38.4974 39.2402 38.5703C38.9593 38.6431 38.8934 38.8546 38.9038 39.1009C38.9108 39.2569 38.9038 39.413 38.9038 39.6315C38.7998 39.5413 38.7304 39.4858 38.6646 39.4269C37.4611 38.3171 36.2612 37.2073 35.0578 36.0975C34.541 35.6189 34.052 35.6224 33.5353 36.0975C32.3249 37.2142 31.118 38.3275 29.9112 39.4477C29.8418 39.5101 29.8036 39.6003 29.7412 39.6939C29.1725 39.1702 28.6696 38.709 28.1702 38.2443C27.6361 37.7483 27.1436 37.7449 26.6096 38.2373C26.1102 38.702 25.6108 39.1668 25.0732 39.6627C24.7472 39.354 24.4455 39.0662 24.1368 38.7749C23.9218 38.5737 23.7068 38.3726 23.4883 38.1749C23.034 37.7622 22.5138 37.7622 22.0629 38.1749C21.3866 38.7957 20.7173 39.4199 20.0202 40.065C19.937 39.9922 19.8607 39.9263 19.7879 39.8604C17.5683 37.8108 15.3453 35.7611 13.1257 33.7115C13.0563 33.6456 12.9905 33.5762 12.9107 33.5242C12.7199 33.3924 12.4841 33.4063 12.3177 33.552C12.1442 33.7046 12.1269 33.9335 12.2726 34.1173C12.3142 34.1693 12.3697 34.2144 12.4217 34.2629C14.7002 36.3646 16.9787 38.4662 19.2538 40.5679C19.7671 41.043 20.2561 41.0395 20.7763 40.5609C21.3762 40.0095 21.9727 39.4581 22.5727 38.9067C22.6351 38.8477 22.701 38.7957 22.7877 38.7194C23.1241 39.0315 23.4536 39.3367 23.7831 39.6419C23.9669 39.8118 24.1507 39.9818 24.338 40.1517C24.8374 40.6095 25.3368 40.606 25.8396 40.1448C26.2801 39.7425 26.7205 39.3367 27.154 38.9275C27.2234 38.8616 27.2754 38.7818 27.3483 38.6986C27.4454 38.7783 27.5078 38.8234 27.5633 38.8755C28.028 39.302 28.4927 39.7321 28.9574 40.1621C29.443 40.6095 29.9493 40.606 30.4383 40.1552C31.6487 39.0419 32.8555 37.9252 34.0659 36.8085C34.1353 36.7426 34.2011 36.6732 34.2428 36.6351C35.5537 37.8454 36.8542 39.0454 38.1547 40.2453C38.016 40.2453 37.8392 40.2523 37.6657 40.2453C37.3987 40.2349 37.1698 40.2974 37.09 40.554C37.0103 40.8106 37.1629 40.9806 37.4022 41.095H39.8333V38.8512L39.8264 38.8581Z" fill="white" stroke="white" stroke-width="0.4"/>
<path d="M40 41.2758L37.3227 41.2585C36.8441 41.0296 36.8649 40.6897 36.9204 40.5094C37.014 40.2042 37.2602 40.062 37.6695 40.0759C37.6833 40.0759 37.6937 40.0759 37.7076 40.0759L34.2465 36.8818C34.2257 36.9026 34.2049 36.9234 34.1806 36.9442L33.6604 37.4263C32.6269 38.3835 31.5899 39.3372 30.553 40.2909C29.9981 40.8007 29.3877 40.8042 28.8363 40.2978L27.4421 39.0112C27.4213 38.9904 27.397 38.973 27.3728 38.9522C27.3416 38.9938 27.3069 39.032 27.2687 39.0667C26.8318 39.4759 26.3913 39.8817 25.9509 40.284C25.3821 40.8076 24.7821 40.8076 24.2134 40.2909C24.0469 40.1383 23.8804 39.9822 23.714 39.8296L22.7776 38.9626C22.7464 38.9904 22.7152 39.0181 22.6839 39.0424L20.8875 40.6967C20.3014 41.2342 19.7118 41.2377 19.1326 40.7036L12.2693 34.3709C12.2208 34.3258 12.1722 34.2842 12.1341 34.2322C11.9329 33.979 11.9607 33.6426 12.2 33.4276C12.4254 33.2264 12.7479 33.2091 13.0046 33.386C13.0739 33.4311 13.1329 33.49 13.1918 33.5455L13.2369 33.5871L19.8991 39.736C19.9338 39.7707 19.9719 39.8019 20.0101 39.8366L20.4505 39.4308C20.9534 38.9661 21.4458 38.5083 21.9418 38.0505C22.4585 37.5754 23.0758 37.5754 23.5995 38.0505C23.818 38.2482 24.0365 38.4493 24.2515 38.6505C24.4596 38.8447 24.6642 39.0424 24.8792 39.2435L25.07 39.4239L26.4884 38.1095C27.0884 37.5546 27.678 37.5546 28.2849 38.1164L29.7033 39.4239C29.7276 39.3892 29.7553 39.351 29.79 39.3198C30.8755 38.3141 31.9645 37.3118 33.05 36.3061L33.4141 35.9697C33.9968 35.4321 34.5863 35.4321 35.169 35.9697L38.7272 39.2539C38.7272 39.2054 38.7272 39.1568 38.7238 39.1083C38.6995 38.6297 38.963 38.4598 39.1885 38.4008C39.4139 38.3418 39.733 38.3557 39.9688 38.7684L39.9931 38.81V41.2724L40 41.2758ZM37.4371 40.929H39.6532V38.9071C39.5249 38.7095 39.3966 38.7095 39.2856 38.7372C39.1469 38.7719 39.0671 38.8447 39.081 39.0909C39.0879 39.1984 39.0844 39.3094 39.081 39.4343V40.003L38.7029 39.684C38.644 39.6354 38.5954 39.5938 38.5503 39.5522L34.9436 36.2228C34.4927 35.8067 34.1078 35.8067 33.6569 36.2228L33.2928 36.5593C32.2038 37.5615 31.1183 38.5673 30.0328 39.573C30.005 39.6007 29.9773 39.6424 29.9495 39.6909C29.9287 39.7221 29.9114 39.7568 29.8871 39.788L29.7727 39.951L28.0525 38.3661C27.5809 37.9291 27.1959 37.9257 26.7277 38.3592L25.0734 39.8955L24.6469 39.4898C24.4353 39.2886 24.2272 39.0909 24.0226 38.8967C23.8076 38.6956 23.5926 38.4979 23.3776 38.3002C22.9891 37.9499 22.5695 37.9499 22.188 38.3002C21.6921 38.7545 21.1996 39.2123 20.6967 39.677L20.0274 40.2978L19.8332 40.1279C19.7777 40.0793 19.7257 40.0343 19.6737 39.9857L12.963 33.7917C12.9144 33.7466 12.8693 33.7016 12.8138 33.6634C12.6924 33.5802 12.5433 33.5837 12.4358 33.6808C12.3318 33.7709 12.3214 33.8992 12.4115 34.0068C12.4393 34.0414 12.474 34.0726 12.5086 34.1039L12.6716 34.253L19.3754 40.4366C19.8228 40.8493 20.2077 40.8492 20.6621 40.4296L22.4585 38.7753C22.5001 38.7372 22.5452 38.699 22.5972 38.654L22.7949 38.484L23.9567 39.5626C24.1232 39.7152 24.2897 39.8713 24.4561 40.0239C24.8862 40.4192 25.2885 40.4157 25.7254 40.0169C26.1659 39.6146 26.6029 39.2089 27.0398 38.8031C27.0815 38.7649 27.1127 38.7199 27.1508 38.6748L27.3277 38.4563L27.5496 38.6366C27.6017 38.6782 27.6433 38.7129 27.6814 38.7476L29.0756 40.0343C29.4952 40.4192 29.901 40.4157 30.3241 40.0273C31.361 39.0736 32.3945 38.1164 33.4315 37.1627L33.9517 36.6806C33.9968 36.639 34.0419 36.5939 34.0765 36.5558L34.2395 36.3928L38.5989 40.4157H38.0267C37.9122 40.4157 37.7839 40.4192 37.6556 40.4157C37.3504 40.4019 37.288 40.499 37.2533 40.603C37.2325 40.6689 37.1943 40.7903 37.4406 40.9186L37.4371 40.929Z" fill="white" stroke="white" stroke-width="0.4"/>
<path d="M25.7775 36.504C25.5174 36.504 25.2573 36.4936 24.9972 36.4694C22.7222 36.2682 20.787 35.3943 19.2437 33.8718C18.2449 32.8868 17.3952 31.6383 16.9131 30.4523C16.2057 28.7078 15.9247 27.0501 16.0531 25.3854C16.1571 24.0086 16.4241 22.0699 17.0935 20.6688C17.1906 20.4781 17.2634 20.329 17.3293 20.1972C17.7836 19.2747 17.8218 19.2192 19.3789 17.2181C19.587 16.9511 19.8818 16.6147 20.1939 16.2609C20.5269 15.8829 20.8737 15.491 21.0783 15.217C22.2609 13.6356 23.0239 12.2102 23.4054 10.8612C23.5129 10.5213 23.6065 10.1883 23.7001 9.83461C23.7487 9.65774 23.7973 9.47393 23.8527 9.28665L24.2169 8L24.8203 9.19648C26.1659 11.8634 27.9728 15.4529 28.4618 18.9903C28.7115 18.81 28.9473 18.5707 29.0271 18.3071C29.256 17.5094 29.256 17.2805 29.256 16.7222C29.256 16.6251 29.256 16.521 29.256 16.4066C29.2352 16.2263 29.1589 15.9037 29.0826 15.6956L28.2017 13.3027L29.9496 15.1581C30.0502 15.2656 30.175 15.4286 30.2652 15.5465L30.3311 15.6297C31.2987 16.8436 32.079 18.047 32.7241 19.3059C33.7749 21.3625 34.4199 23.3601 34.6904 25.4201C34.9193 27.1541 34.8361 28.7009 34.4338 30.1401C33.7992 32.4152 32.4431 34.1284 30.4074 35.2417C28.8537 36.0913 27.3312 36.5075 25.781 36.5075L25.7775 36.504ZM24.4909 10.8681C24.4631 10.9687 24.4319 11.0658 24.4007 11.1629C23.988 12.6195 23.173 14.1558 21.9106 15.8413C21.6783 16.15 21.3211 16.5592 20.9742 16.9511C20.6864 17.2771 20.3881 17.6169 20.2009 17.8562C18.6819 19.8122 18.6749 19.8261 18.2657 20.655C18.1998 20.7868 18.1235 20.9394 18.0333 21.1232C17.4368 22.3682 17.1941 24.1716 17.0969 25.4617C16.979 26.9807 17.2287 28.4408 17.8842 30.0569C18.3142 31.1181 19.0772 32.2348 19.9824 33.1261C21.3696 34.4926 23.0412 35.2451 25.0978 35.4289C26.7104 35.5746 28.2849 35.2104 29.9149 34.3226C31.694 33.3516 32.8801 31.8464 33.4385 29.8558C33.8026 28.5518 33.8789 27.1437 33.6674 25.5519C33.4107 23.6132 32.8004 21.7266 31.805 19.7776C31.3715 18.9313 30.8721 18.1094 30.2895 17.291C30.2687 17.6308 30.2062 17.9846 30.0294 18.6019C29.7242 19.6076 28.6005 20.1625 28.1913 20.2943L27.567 20.4954L27.5116 19.8434C27.2584 16.7603 25.7949 13.4969 24.4978 10.8716L24.4909 10.8681Z" fill="white" stroke="white" stroke-width="0.4"/>
<path d="M25.7874 33.4417C22.4788 33.4417 19.7876 30.7644 19.7876 27.4593C19.7876 24.1577 22.4753 21.47 25.7839 21.47C29.0959 21.47 31.7802 24.1473 31.7836 27.4524C31.7836 30.7575 29.0994 33.4383 25.7874 33.4417ZM25.7735 32.6198C28.6069 32.6302 30.934 30.3309 30.9513 27.4975C30.9686 24.6328 28.6763 22.3127 25.8082 22.2954C22.9609 22.2815 20.6303 24.5843 20.6165 27.4246C20.6026 30.2823 22.9089 32.6059 25.7735 32.6163V32.6198Z" fill="white" stroke="white" stroke-width="0.4"/>
<path d="M25.7838 33.5738C24.1503 33.5738 22.614 32.9392 21.4556 31.7843C20.2973 30.6295 19.6592 29.0931 19.6592 27.4596C19.6592 24.0852 22.4059 21.342 25.7838 21.3385C29.1617 21.3385 31.9084 24.0817 31.9119 27.4527C31.9119 29.0862 31.2772 30.619 30.1189 31.7774C28.9605 32.9322 27.4242 33.5704 25.7873 33.5704H25.7838V33.5738ZM25.7838 21.6021C22.5481 21.6021 19.9158 24.2343 19.9193 27.4631C19.9193 29.0272 20.5331 30.4977 21.6394 31.604C22.7492 32.7103 24.2197 33.3172 25.7838 33.3172H25.7873C27.3548 33.3172 28.8287 32.7068 29.9351 31.597C31.0414 30.4907 31.6518 29.0203 31.6518 27.4562C31.6518 24.2274 29.0195 21.6021 25.7838 21.6021ZM25.7942 32.7519H25.7734C24.3549 32.745 23.0232 32.1901 22.0244 31.1843C21.0256 30.1786 20.4811 28.8469 20.488 27.4284C20.495 26.0204 21.0533 24.6956 22.0591 23.7003C23.0579 22.7119 24.3792 22.1708 25.7803 22.1708H25.8115C27.2334 22.1778 28.5617 22.7361 29.557 23.7419C30.5524 24.7476 31.0934 26.0828 31.083 27.5013C31.0657 30.4006 28.697 32.7519 25.7977 32.7519H25.7942ZM25.7803 22.4309C24.4486 22.4309 23.1931 22.9477 22.2429 23.8875C21.2857 24.8343 20.7551 26.0932 20.7482 27.4319C20.7412 28.781 21.2614 30.0468 22.2082 31.004C23.1585 31.9577 24.4243 32.4883 25.7734 32.4918H25.7942C28.5513 32.4918 30.8021 30.2584 30.8194 27.5013C30.8264 26.1487 30.3131 24.8794 29.3663 23.9257C28.4195 22.972 27.1571 22.4379 25.8046 22.4309H25.7768H25.7803Z" fill="white" stroke="white" stroke-width="0.4"/>
<path d="M26.7211 28.7771C26.7211 28.2499 26.3326 27.8962 25.7604 27.8233C25.4448 27.7817 25.1084 27.702 24.8379 27.5424C24.2449 27.1922 23.9778 26.6234 24.0298 25.9436C24.0819 25.2431 24.4564 24.7333 25.1084 24.4524C25.2679 24.383 25.3512 24.3137 25.3234 24.1368C25.313 24.064 25.3234 23.9877 25.3304 23.9148C25.3616 23.7033 25.5315 23.5576 25.7327 23.5576C25.9442 23.5576 26.1141 23.7171 26.135 23.9426C26.1419 23.9981 26.1454 24.057 26.135 24.116C26.1107 24.2824 26.1766 24.3553 26.3396 24.4108C27.0505 24.6501 27.536 25.3125 27.543 26.0165C27.543 26.2558 27.4251 26.4292 27.217 26.4777C27.0158 26.5228 26.8598 26.4396 26.7661 26.2627C26.728 26.1864 26.7211 26.0893 26.7107 26.0026C26.6621 25.5344 26.3153 25.1876 25.8436 25.1425C25.3997 25.1009 24.9905 25.3957 24.8691 25.8431C24.7304 26.3563 25.0668 26.8974 25.5905 26.991C25.7673 27.0222 25.9511 27.0187 26.128 27.0534C26.8875 27.2026 27.4493 27.8337 27.5361 28.6279C27.6123 29.3389 27.1927 30.0949 26.5095 30.3724C26.2286 30.4868 26.0899 30.6013 26.1211 30.9203C26.1419 31.1423 25.9407 31.3053 25.7292 31.3087C25.5176 31.3122 25.3477 31.1562 25.32 30.9307C25.3096 30.8579 25.3061 30.7816 25.313 30.7088C25.3338 30.5423 25.2679 30.4695 25.1119 30.407C24.4564 30.1331 24.0992 29.6267 24.016 28.9262C23.9778 28.6106 24.1339 28.3886 24.394 28.3678C24.6437 28.347 24.8136 28.5274 24.8414 28.8395C24.8899 29.3736 25.3026 29.7308 25.8436 29.7065C26.3257 29.6857 26.7106 29.273 26.7141 28.7805L26.7211 28.7771Z" fill="white" stroke="white" stroke-width="0.4"/>
<path d="M25.7324 31.3919C25.4827 31.3919 25.2746 31.2011 25.2434 30.9376C25.233 30.8647 25.2261 30.778 25.2365 30.6948C25.2503 30.5908 25.2295 30.5422 25.0873 30.4833C24.4145 30.2023 24.0296 29.6787 23.936 28.933C23.9117 28.7423 23.9533 28.5724 24.0539 28.451C24.1371 28.3504 24.255 28.288 24.3937 28.2776C24.692 28.2498 24.9001 28.4718 24.9348 28.829C24.9798 29.3145 25.3475 29.6336 25.8469 29.6162C26.2804 29.5989 26.6306 29.2209 26.6341 28.777C26.6341 28.3122 26.2942 27.9793 25.7497 27.91C25.3613 27.8614 25.0388 27.7608 24.796 27.6186C24.1926 27.2614 23.8874 26.6649 23.9429 25.9366C23.9984 25.2083 24.3903 24.6673 25.0735 24.3725C25.2226 24.3101 25.2538 24.265 25.2399 24.1471C25.2261 24.0604 25.2399 23.9737 25.2469 23.9009C25.285 23.6512 25.4896 23.4708 25.7324 23.4708C25.989 23.4708 26.1937 23.665 26.2214 23.9321C26.2283 24.0014 26.2318 24.0604 26.2214 24.1228C26.2075 24.2303 26.2214 24.2754 26.3671 24.324C27.1023 24.5702 27.6225 25.2638 27.6294 26.0094C27.6294 26.2938 27.4803 26.5019 27.2375 26.5539C27.0052 26.606 26.804 26.5123 26.6931 26.2938C26.6514 26.2106 26.641 26.1135 26.6306 26.0268V26.0025C26.5821 25.5725 26.2665 25.2603 25.8399 25.2222C25.4307 25.1841 25.0665 25.4546 24.9556 25.8569C24.8931 26.0823 24.9313 26.325 25.0596 26.5227C25.1845 26.7204 25.3856 26.8557 25.611 26.8938C25.6943 26.9077 25.7775 26.9146 25.8607 26.9216C25.9544 26.9285 26.0549 26.9354 26.152 26.9562C26.9428 27.1123 27.5358 27.7747 27.6294 28.607C27.7127 29.37 27.248 30.1573 26.5509 30.4416C26.2942 30.5457 26.1902 30.6324 26.2179 30.9029C26.2283 31.0173 26.1902 31.1318 26.1104 31.222C26.0203 31.3225 25.8815 31.385 25.7393 31.3884H25.7289L25.7324 31.3919ZM24.4388 28.451C24.4388 28.451 24.418 28.451 24.4076 28.451C24.3174 28.4579 24.2411 28.4961 24.1856 28.5619C24.1163 28.6452 24.0885 28.77 24.1059 28.9122C24.1891 29.592 24.5394 30.0671 25.1498 30.3237C25.3024 30.3862 25.4376 30.4798 25.4029 30.7191C25.3925 30.785 25.4029 30.8543 25.4099 30.9168C25.4307 31.0936 25.5625 31.2185 25.7289 31.2185H25.7359C25.8295 31.2185 25.9197 31.1769 25.9786 31.111C26.0133 31.0728 26.0515 31.0104 26.0411 30.9237C26.0064 30.5561 26.1763 30.4104 26.4815 30.2856C27.1127 30.0289 27.5289 29.318 27.456 28.6313C27.3728 27.8753 26.8353 27.2753 26.1174 27.1331C26.0307 27.1158 25.9405 27.1088 25.8469 27.1019C25.7567 27.095 25.67 27.088 25.5833 27.0741C25.3093 27.0256 25.0665 26.8626 24.9174 26.6233C24.7648 26.3805 24.7197 26.0892 24.7926 25.8187C24.9243 25.3332 25.3717 25.0106 25.8573 25.0557C26.3671 25.1008 26.7486 25.4788 26.8006 25.9921V26.0199C26.811 26.0927 26.8179 26.169 26.8457 26.2245C26.922 26.3701 27.0433 26.4291 27.1994 26.3944C27.3624 26.3597 27.4595 26.2175 27.456 26.0199C27.4491 25.3471 26.9774 24.7193 26.3116 24.4939C26.1624 24.4419 26.0133 24.3587 26.048 24.1055C26.0549 24.0569 26.048 24.0014 26.0445 23.9564C26.0272 23.776 25.8954 23.6512 25.7255 23.6512C25.5659 23.6512 25.4342 23.7691 25.4099 23.9355C25.3995 23.998 25.3925 24.0673 25.4029 24.1298C25.4376 24.3725 25.2954 24.4696 25.1359 24.539C24.5047 24.8095 24.1614 25.2881 24.1094 25.9574C24.0573 26.6268 24.3244 27.1504 24.8758 27.4764C25.1012 27.6082 25.3995 27.6984 25.7636 27.747C26.3948 27.8267 26.8006 28.2359 26.8006 28.7874C26.8006 29.3215 26.374 29.7758 25.8469 29.8C25.8295 29.8 25.8087 29.8 25.7914 29.8C25.2295 29.8 24.8064 29.4186 24.7544 28.8533C24.744 28.7319 24.6885 28.4579 24.4284 28.4579L24.4388 28.451Z" fill="white" stroke="white" stroke-width="0.4"/>
</svg>
