<svg width="80" height="80" viewBox="0 0 80 80" fill="none" xmlns="http://www.w3.org/2000/svg">
<path d="M69.0669 20.38C69.092 20.0801 69.0516 19.7782 68.9484 19.4955C68.8451 19.2127 68.6816 18.9559 68.469 18.7427C68.2565 18.5295 68.0001 18.3652 67.7177 18.2611C67.4353 18.157 67.1335 18.1157 66.8335 18.14C65.8335 18.14 62.0269 18.14 61.8935 18.14C61.4448 18.1315 61.0012 18.2365 60.6038 18.4451C60.2064 18.6537 59.8681 18.9592 59.6202 19.3333C59.5277 19.4798 59.3947 19.5962 59.2373 19.6684C59.0798 19.7406 58.9048 19.7655 58.7335 19.74C57.3135 19.74 50.2735 19.74 48.1669 19.74C47.3437 19.7145 46.526 19.882 45.7793 20.2294C45.0326 20.5767 44.3776 21.094 43.8669 21.74C43.6669 21.98 42.1669 23.74 41.6669 24.4067C41.5477 24.5803 41.3838 24.7185 41.1925 24.8065C41.0012 24.8946 40.7896 24.9292 40.5802 24.9067C35.1935 24.9067 23.3469 24.9067 23.3469 24.9067C21.7202 24.9067 21.0269 25.5733 21.0269 27.2133V42.86C21.0269 44.5 21.6402 45.1067 23.2802 45.1067C25.1935 45.1067 47.7869 45.1067 51.0069 45.1067C52.5469 45.1067 53.2335 44.44 53.2402 42.8867V35.7333C53.2181 35.5429 53.2181 35.3505 53.2402 35.16C53.4414 35.1312 53.6457 35.1312 53.8469 35.16H54.2268C56.0135 35.16 57.2002 34.4933 57.8469 32.9867C57.8935 32.88 58.1335 32.7533 58.5135 32.74C58.6527 32.7164 58.7955 32.7252 58.9307 32.7657C59.066 32.8061 59.1901 32.8772 59.2935 32.9733C59.5793 33.5201 60.0204 33.97 60.5614 34.2666C61.1023 34.5632 61.7189 34.6931 62.3335 34.64C63.2335 34.64 66.0135 34.64 66.5002 34.64C68.3002 34.64 69.0735 33.8667 69.0735 32.08C69.0802 30.14 69.0868 21.2467 69.0669 20.38ZM61.1002 21.2467C61.1002 20.58 61.4268 20.2267 62.1335 20.22H63.7935C64.6869 20.22 65.6068 20.22 66.5135 20.22C66.6405 20.2023 66.7698 20.2281 66.8802 20.2933C66.9545 20.4126 66.9852 20.554 66.9669 20.6933C66.9669 22.0756 66.9669 23.4556 66.9669 24.8333V27.92C66.9669 29.2533 66.9669 30.6533 66.9669 32.02C66.9881 32.1701 66.9575 32.3229 66.8802 32.4533C66.7605 32.5267 66.6195 32.5572 66.4802 32.54H64.7602H63.8935C63.3202 32.54 62.7469 32.54 62.1669 32.54C61.3869 32.54 61.1002 32.2467 61.1002 31.4867C61.0935 28.0667 61.0935 24.6667 61.1002 21.2467ZM59.0069 30.2333C59.0069 30.4667 59.0069 30.6067 58.9202 30.66C58.8335 30.7133 57.4935 30.66 57.3202 30.66C57.1511 30.6397 56.9797 30.6542 56.8165 30.7027C56.6533 30.7512 56.5017 30.8326 56.3711 30.9419C56.2406 31.0512 56.1338 31.1861 56.0574 31.3383C55.981 31.4905 55.9366 31.6567 55.9269 31.8267C55.7669 32.7333 55.4802 32.98 54.5935 32.9867H54.0002C53.7478 33.0179 53.4926 33.0179 53.2402 32.9867C53.1902 32.17 53.2215 31.3505 53.3335 30.54C53.4602 30.4133 53.9002 30.4133 54.5669 30.4133H54.7669C54.9802 30.4133 55.2002 30.4133 55.4335 30.4133C55.7685 30.3819 56.0901 30.2664 56.3687 30.0776C56.6472 29.8888 56.8736 29.6328 57.0269 29.3333C57.1809 29.0488 57.2616 28.7303 57.2616 28.4067C57.2616 28.0831 57.1809 27.7646 57.0269 27.48C56.8669 27.1933 56.3602 26.8133 56.0069 26.9667C55.6535 27.12 55.1869 27.4667 55.1402 27.88C55.0935 28.2933 55.0002 28.2933 54.5535 28.2933H53.8869C52.9163 28.2759 51.9456 28.3182 50.9802 28.42C50.3438 28.5664 49.7588 28.882 49.2869 29.3333C48.7735 29.78 47.2869 31.3333 47.0002 31.58C46.8633 31.7327 46.697 31.8561 46.5112 31.9428C46.3255 32.0295 46.1241 32.0777 45.9192 32.0846C45.7143 32.0914 45.5101 32.0567 45.3189 31.9826C45.1278 31.9085 44.9536 31.7965 44.8069 31.6533C44.6572 31.5115 44.539 31.3399 44.4599 31.1495C44.3808 30.9591 44.3425 30.7542 44.3476 30.5481C44.3526 30.342 44.4008 30.1393 44.4891 29.953C44.5774 29.7667 44.7038 29.601 44.8602 29.4667C45.8202 28.42 48.8602 25.1333 49.4402 24.5267L49.5469 24.4267C49.6365 24.3628 49.7123 24.2815 49.7696 24.1875C49.8269 24.0935 49.8645 23.9889 49.8802 23.88C49.9309 23.4724 49.8209 23.0612 49.5735 22.7333C49.3913 22.617 49.1797 22.5552 48.9635 22.5552C48.7474 22.5552 48.5357 22.617 48.3535 22.7333C47.8683 23.0875 47.441 23.5148 47.0869 24C46.8769 24.36 46.5597 24.6454 46.1796 24.8163C45.7995 24.9872 45.3755 25.0351 44.9669 24.9533C44.6587 24.9235 44.3484 24.9235 44.0402 24.9533H44.0002C44.2669 24.6533 44.5069 24.3267 44.7469 24.0067C45.4135 23.1133 46.0469 22.2733 47.1802 21.9467C47.4234 21.8791 47.6744 21.8432 47.9269 21.84C49.1802 21.84 50.4335 21.84 51.6935 21.84C53.9202 21.84 56.2202 21.84 58.4869 21.84C58.7269 21.84 58.8669 21.84 58.9269 21.9267C59.0019 22.0627 59.03 22.2197 59.0069 22.3733C58.9802 24.6667 58.9802 27.1533 59.0069 30.2333ZM23.1335 27.5667C23.1335 27.34 23.1335 27.1467 23.2069 27.0733C23.314 27.0124 23.4376 26.9867 23.5602 27C28.7735 27 34.0735 27 39.1935 27H44.2269L44.0869 27.16L43.3335 28C42.8945 28.4489 42.5763 29.0015 42.4084 29.6065C42.2406 30.2115 42.2286 30.8491 42.3735 31.46C42.5357 32.0436 42.8425 32.5768 43.2655 33.0103C43.6885 33.4438 44.2141 33.7636 44.7935 33.94C45.3953 34.1629 46.0482 34.2091 46.6754 34.0733C47.3026 33.9375 47.8779 33.6252 48.3335 33.1733C48.7202 32.8 49.1002 32.42 49.4802 32.04C49.8602 31.66 50.2535 31.2667 50.6535 30.8867C50.8045 30.7549 50.97 30.6408 51.1469 30.5467C51.1469 30.6733 51.1469 30.7667 51.1469 30.86C51.1469 31.9667 51.1469 39.7467 51.1469 42.5333C51.1469 42.7467 51.1469 42.88 51.0735 42.9333C51.0002 42.9867 50.8869 43 50.6535 43.0133C40.9602 43.0133 32.1202 43.0133 23.6269 43.0133C23.4002 43.0133 23.2535 43.0133 23.2002 42.9267C23.1182 42.7907 23.0875 42.6299 23.1135 42.4733C23.1469 37.6267 23.1402 32.8467 23.1335 27.56V27.5667Z" fill="#0033A1"/>
<path d="M56.6669 44.5C56.1343 44.468 55.6011 44.5529 55.1048 44.7487C54.6085 44.9445 54.1609 45.2464 53.7935 45.6333C52.6269 46.78 51.4536 47.92 50.2736 49.0666L48.9402 50.3533C48.0878 49.7428 47.0444 49.4589 46.0002 49.5533C45.3802 49.5533 40.9869 49.5533 39.4135 49.5533C38.6974 49.5121 37.9937 49.3475 37.3335 49.0666C35.2397 48.1215 32.8808 47.9399 30.6669 48.5533C28.2642 49.2019 26.1793 50.7017 24.8002 52.7733C24.6834 52.8863 24.5293 52.9527 24.3669 52.96C23.8112 52.8025 23.2236 52.796 22.6646 52.9413C22.1056 53.0867 21.5955 53.3785 21.1869 53.7866C19.8535 55.08 17.1002 57.8533 17.1002 57.8533C16.9381 57.9929 16.808 58.1658 16.7188 58.3602C16.6297 58.5547 16.5835 58.7661 16.5835 58.98C16.5835 59.1939 16.6297 59.4053 16.7188 59.5997C16.808 59.7942 16.9381 59.9671 17.1002 60.1066C20.3869 63.4 23.6935 66.7 26.9335 69.92C27.0762 70.0768 27.2488 70.2036 27.4411 70.2929C27.6334 70.3822 27.8417 70.4322 28.0535 70.44C28.2664 70.432 28.4755 70.3819 28.6689 70.2926C28.8622 70.2034 29.036 70.0767 29.1802 69.92C30.6535 68.4733 31.9869 67.14 33.2602 65.84C33.5935 65.5394 33.8503 65.1636 34.0091 64.7439C34.168 64.3242 34.2243 63.8726 34.1735 63.4266C34.0535 62.76 34.3069 62.3133 35.0536 61.9933C35.7073 61.6846 36.4125 61.4993 37.1335 61.4466C41.1669 61.3866 45.2269 61.4466 48.3135 61.4466H48.3535C48.9029 61.4676 49.4493 61.3576 49.9477 61.1258C50.4462 60.894 50.8823 60.5469 51.2202 60.1133C52.4935 58.54 58.5536 51.1 59.1469 50.3733C59.6014 49.872 59.8967 49.2469 59.9953 48.5774C60.0938 47.908 59.9911 47.2243 59.7002 46.6133C59.4552 46.004 59.0377 45.4795 58.4988 45.1041C57.96 44.7287 57.3233 44.5187 56.6669 44.5ZM31.6135 64.1266C30.7469 65.0333 29.8402 65.9266 28.9469 66.7933L28.0802 67.6533L19.4135 58.9066L20.2402 58.0666C21.1069 57.1866 22.0002 56.28 22.9069 55.4C22.9969 55.3193 23.1029 55.2585 23.218 55.2216C23.3331 55.1846 23.4547 55.1724 23.5748 55.1856C23.695 55.1988 23.811 55.2372 23.9153 55.2982C24.0196 55.3593 24.1099 55.4417 24.1802 55.54C26.5002 57.8333 28.8469 60.2066 31.4469 62.7933C31.5497 62.8667 31.6361 62.9605 31.7008 63.069C31.7654 63.1774 31.8069 63.2981 31.8226 63.4234C31.8382 63.5487 31.8277 63.6759 31.7918 63.7969C31.7558 63.918 31.6951 64.0302 31.6135 64.1266ZM47.6135 53.96C47.3008 54.2314 46.8934 54.3681 46.4802 54.34H42.3135C41.7402 54.34 39.6469 54.34 39.2069 54.34C38.9367 54.3467 38.6795 54.4571 38.4884 54.6482C38.2973 54.8393 38.187 55.0965 38.1802 55.3666C38.1458 55.6303 38.2068 55.8976 38.3523 56.1201C38.4979 56.3427 38.7182 56.5058 38.9735 56.58C39.1334 56.6395 39.303 56.6689 39.4735 56.6666C40.1402 56.6666 45.0869 56.7066 46.8469 56.6666C47.3297 56.6557 47.8048 56.5431 48.2413 56.3364C48.6778 56.1296 49.0658 55.8333 49.3802 55.4666C49.7075 55.0838 49.9522 54.6375 50.099 54.1557C50.2458 53.6739 50.2916 53.167 50.2335 52.6666C50.2247 52.5057 50.2744 52.347 50.3735 52.22C52.0669 50.56 53.8335 48.8866 55.6269 47.16C55.8525 46.9505 56.149 46.8341 56.4569 46.8341C56.7648 46.8341 57.0612 46.9505 57.2869 47.16C57.4014 47.2562 57.495 47.3748 57.5618 47.5086C57.6287 47.6424 57.6674 47.7885 57.6755 47.9379C57.6836 48.0872 57.661 48.2366 57.6091 48.3769C57.5571 48.5172 57.477 48.6453 57.3735 48.7533C54.7535 52 52.0402 55.3333 49.2669 58.7C48.9817 58.9515 48.6138 59.0892 48.2335 59.0866C46.7669 59.12 38.0869 59.12 36.7802 59.0866H36.7002C35.3307 59.0725 34.0083 59.5857 33.0069 60.52C32.7802 60.7266 32.7335 60.7266 32.5069 60.52C30.6669 58.6666 28.7269 56.72 26.8002 54.8133C26.5602 54.5733 26.5402 54.4533 26.7135 54.1466C27.4102 53.0379 28.3784 52.1253 29.5264 51.4953C30.6743 50.8654 31.9641 50.5388 33.2735 50.5466C34.3128 50.5431 35.3398 50.7709 36.2802 51.2133C37.322 51.7048 38.4617 51.9533 39.6135 51.94C42.0469 51.94 44.2802 51.94 46.4202 51.94C47.3669 51.94 47.8602 52.3266 47.8802 53.0733C47.8972 53.2329 47.8804 53.3943 47.831 53.5471C47.7816 53.6998 47.7007 53.8405 47.5935 53.96H47.6135Z" fill="#0033A1"/>
<path d="M35.6131 35.38C35.8198 35.5 36.0331 35.6133 36.2465 35.7267C36.4598 35.84 36.8331 36.0333 37.1131 36.2067C37.6131 36.5267 37.7798 36.7333 37.6465 37.12C37.2865 37.98 36.0998 37.38 35.5131 37.12C35.3811 37.0802 35.2421 37.0692 35.1055 37.0876C34.9688 37.106 34.8377 37.1534 34.7209 37.2266C34.6041 37.2999 34.5043 37.3973 34.4282 37.5122C34.3521 37.6272 34.3015 37.7572 34.2798 37.8933C34.2541 38.1104 34.2905 38.3303 34.385 38.5274C34.4794 38.7245 34.6279 38.8907 34.8131 39.0067C35.0986 39.189 35.4148 39.3178 35.7465 39.3867C36.0131 39.4533 36.1998 39.4467 36.1931 39.76C36.1777 39.9016 36.1923 40.0448 36.236 40.1803C36.2796 40.3159 36.3513 40.4407 36.4465 40.5467C36.5341 40.6322 36.6387 40.6984 36.7536 40.7409C36.8684 40.7834 36.9909 40.8013 37.1131 40.7933C37.8931 40.7933 37.9798 40.1267 38.0265 39.7867C38.0456 39.6277 38.1214 39.481 38.2398 39.3733C38.7651 39.182 39.2189 38.8337 39.5397 38.3758C39.8605 37.9179 40.0327 37.3724 40.0331 36.8133C40.0798 35.4133 39.1331 34.7267 38.2998 34.2867L37.8398 34.0533C37.5048 33.9139 37.189 33.7324 36.8998 33.5133C36.8243 33.4568 36.7649 33.3814 36.7276 33.2947C36.6902 33.2081 36.6763 33.1131 36.6871 33.0194C36.6978 32.9256 36.733 32.8363 36.7891 32.7604C36.8451 32.6845 36.9201 32.6246 37.0065 32.5867C37.1938 32.5333 37.3924 32.5333 37.5798 32.5867C37.9598 32.6667 38.2465 32.9133 38.6731 32.8933C38.84 32.8864 39.0023 32.836 39.1437 32.7471C39.2852 32.6582 39.401 32.534 39.4798 32.3867C39.5518 32.2578 39.5961 32.1154 39.6099 31.9684C39.6237 31.8215 39.6066 31.6733 39.5598 31.5333C39.495 31.3791 39.3986 31.2401 39.2769 31.1253C39.1552 31.0105 39.0109 30.9224 38.8531 30.8667L38.6731 30.8C38.5768 30.7756 38.4862 30.7326 38.4065 30.6733C38.2665 30.5467 38.0531 30.3467 38.0398 30.22C37.9331 29.3867 37.4731 29.2067 37.1065 29.2067C36.5798 29.2067 36.2665 29.56 36.1798 30.24C36.1609 30.3956 36.0877 30.5396 35.9731 30.6467C35.4726 30.8142 35.0373 31.1347 34.7287 31.563C34.4201 31.9912 34.2538 32.5055 34.2531 33.0333C34.2204 33.5154 34.3324 33.9963 34.5747 34.4144C34.817 34.8325 35.1786 35.1687 35.6131 35.38Z" fill="#0033A1"/>
<path d="M43.5802 36.28H43.6269C43.9272 36.2759 44.215 36.1593 44.4336 35.9533C44.5551 35.8428 44.6536 35.7093 44.7234 35.5606C44.7932 35.4119 44.8329 35.2508 44.8402 35.0867C44.8473 34.9256 44.8221 34.7648 44.766 34.6136C44.7099 34.4625 44.624 34.3241 44.5136 34.2067C44.352 34.0273 44.1398 33.9011 43.905 33.8449C43.6702 33.7886 43.4239 33.8049 43.1985 33.8916C42.9732 33.9782 42.7794 34.1312 42.6428 34.3303C42.5063 34.5294 42.4333 34.7652 42.4336 35.0067C42.4246 35.1657 42.4472 35.325 42.5 35.4753C42.5529 35.6255 42.635 35.7638 42.7416 35.8822C42.8482 36.0006 42.9772 36.0967 43.1212 36.165C43.2651 36.2332 43.4211 36.2723 43.5802 36.28Z" fill="#0033A1"/>
<path d="M30.6002 36.28C30.7562 36.2795 30.9105 36.2473 31.0538 36.1854C31.197 36.1235 31.3262 36.0332 31.4335 35.92C31.6655 35.6833 31.7948 35.3647 31.7935 35.0333C31.7953 34.8738 31.7651 34.7155 31.7047 34.5679C31.6443 34.4202 31.5549 34.2862 31.4417 34.1737C31.3286 34.0612 31.1941 33.9725 31.0461 33.9129C30.8981 33.8533 30.7397 33.824 30.5802 33.8266C30.2549 33.8266 29.9428 33.9559 29.7128 34.1859C29.4828 34.416 29.3535 34.728 29.3535 35.0533C29.3535 35.3786 29.4828 35.6907 29.7128 35.9207C29.9428 36.1507 30.2549 36.28 30.5802 36.28H30.6002Z" fill="#0033A1"/>
<path d="M63.16 23.58C63.33 23.5827 63.4988 23.5513 63.6565 23.4876C63.8142 23.424 63.9576 23.3294 64.0781 23.2095C64.1987 23.0896 64.294 22.9467 64.3584 22.7894C64.4229 22.632 64.4551 22.4633 64.4533 22.2933C64.4588 22.1225 64.4294 21.9525 64.3668 21.7935C64.3041 21.6345 64.2097 21.49 64.0892 21.3689C63.9687 21.2478 63.8247 21.1526 63.666 21.0891C63.5074 21.0257 63.3375 20.9953 63.1667 21C63.0014 20.9936 62.8366 21.021 62.6823 21.0803C62.528 21.1396 62.3873 21.2296 62.2688 21.345C62.1504 21.4603 62.0566 21.5986 61.9932 21.7513C61.9298 21.904 61.8981 22.068 61.9 22.2333C61.8914 22.4078 61.9183 22.5823 61.9791 22.7462C62.0398 22.91 62.1331 23.0599 62.2533 23.1866C62.3706 23.3093 62.5112 23.4073 62.6669 23.4749C62.8226 23.5424 62.9903 23.5782 63.16 23.58Z" fill="#0033A1"/>
<path d="M23.6531 56.9467C23.3094 56.9618 22.9823 57.099 22.7306 57.3336C22.4789 57.5682 22.3191 57.8848 22.2798 58.2267C22.2978 58.5705 22.4369 58.897 22.6723 59.1483C22.9078 59.3996 23.2245 59.5596 23.5665 59.6H23.6065C23.9259 59.5907 24.2302 59.4623 24.4598 59.24C24.5956 59.1246 24.7068 58.9831 24.787 58.8239C24.8671 58.6647 24.9145 58.4911 24.9265 58.3133C24.9268 57.9677 24.793 57.6355 24.5531 57.3867C24.3217 57.1286 23.9989 56.9708 23.6531 56.9467Z" fill="#0033A1"/>
</svg>
