<svg width="52" height="52" viewBox="0 0 52 52" fill="none" xmlns="http://www.w3.org/2000/svg">
<path d="M26 52C40.3594 52 52 40.3594 52 26C52 11.6406 40.3594 0 26 0C11.6406 0 0 11.6406 0 26C0 40.3594 11.6406 52 26 52Z" fill="#0033A1"/>
<path d="M41.9894 37.6189C41.9331 37.8162 41.8873 38.0169 41.8239 38.2142C41.3766 39.6231 40.0944 40.6058 38.6221 40.6129C35.5084 40.6305 32.3947 40.6411 29.2845 40.6129C26.7238 40.5847 25.1458 37.7669 26.4103 35.502C27.3931 33.7409 28.4216 32.0044 29.4289 30.2573C29.4853 30.1622 29.5311 30.0601 29.6086 29.9122H29.1648C23.7616 29.9122 18.3584 29.9086 12.9552 29.9157C11.969 29.9157 11.1095 29.655 10.5424 28.8097C10.2959 28.4398 10.1761 27.9819 10 27.5628C10 27.3127 10 27.0626 10 26.8125C10.1726 25.8932 10.7502 25.2627 11.4653 24.7203C11.8809 24.4068 12.2613 24.0475 12.6699 23.727C12.8495 23.5861 12.92 23.4276 12.9305 23.1987C13.0221 20.6626 13.8287 18.3696 15.301 16.3091C15.3609 16.2245 15.4208 16.0977 15.5018 16.0801C15.6779 16.0414 15.8928 16.0062 16.0478 16.0731C16.2556 16.1647 16.3084 16.3936 16.2098 16.612C16.1499 16.7423 16.0583 16.8586 15.9738 16.9783C14.7199 18.7817 14.0119 20.7753 13.8745 22.9662C13.871 23.0472 13.8745 23.1317 13.8745 23.2656C14.0013 23.2656 14.1211 23.2656 14.2408 23.2656C16.1675 23.2656 18.0942 23.2656 20.0209 23.2656C20.1548 23.2656 20.2957 23.2691 20.4189 23.3114C20.6303 23.3818 20.7254 23.5544 20.7078 23.7763C20.6901 23.9982 20.5633 24.1426 20.345 24.1849C20.2323 24.206 20.116 24.199 20.0033 24.199C17.9639 24.199 15.921 24.2025 13.8816 24.1955C13.6456 24.1955 13.4695 24.2624 13.2933 24.4174C12.7509 24.8894 12.1944 25.3402 11.6414 25.8016C11.0074 26.3335 10.796 27.0274 11.0391 27.753C11.2821 28.4821 11.8668 28.9118 12.6875 28.9611C12.7897 28.9682 12.8953 28.9682 13.001 28.9682C18.605 28.9682 24.2054 28.9682 29.8094 28.9752C30.0876 28.9752 30.2426 28.9013 30.3694 28.6512C30.5772 28.2426 30.8132 27.8516 31.0527 27.4606C32.4053 25.2592 35.5436 25.2522 36.9068 27.4466C37.1639 27.8622 37.3999 28.2884 37.6465 28.7075C38.6292 28.3095 39.1329 26.9922 38.6609 25.9778C38.3932 25.4036 38.0445 24.8682 37.7134 24.3293C37.6641 24.2518 37.5056 24.206 37.3999 24.206C36.4101 24.1955 35.4204 24.199 34.4306 24.199C31.6797 24.199 28.9323 24.199 26.1814 24.199C26.0652 24.199 25.9524 24.2025 25.8397 24.192C25.5861 24.1673 25.4417 24.0158 25.4241 23.7658C25.4065 23.5157 25.5368 23.3466 25.7799 23.2867C25.8996 23.2585 26.0264 23.2621 26.1532 23.2621C29.7671 23.2621 33.381 23.2621 36.9948 23.2621H37.4703C37.3858 22.6386 37.3506 22.0363 37.2203 21.4551C36.2023 16.9677 33.5395 13.8787 29.1507 12.498C24.9099 11.1665 21.0565 12.1035 17.6962 15.0234C17.587 15.1185 17.4884 15.2277 17.3757 15.3228C17.1256 15.5377 16.8755 15.5377 16.6818 15.3334C16.4986 15.1397 16.5127 14.8614 16.7381 14.6395C17.499 13.8928 18.3373 13.2412 19.2636 12.7128C26.1321 8.81364 34.6525 11.8252 37.5408 19.1762C38.0621 20.5041 38.3263 21.8884 38.3826 23.3149C38.3897 23.491 38.446 23.6812 38.5305 23.8397C38.763 24.2694 39.0201 24.6851 39.2667 25.1078C40.2142 26.7315 39.8056 28.4575 38.2347 29.4824C38.21 29.5 38.1854 29.5212 38.1396 29.5599C38.3685 29.9615 38.601 30.3665 38.8299 30.7681C38.9039 30.8949 38.9849 31.0182 39.0448 31.1485C39.1575 31.3915 39.08 31.6522 38.8687 31.7719C38.6573 31.8917 38.3932 31.8283 38.2417 31.6064C38.1713 31.5042 38.1149 31.3915 38.0515 31.2858C37.4316 30.2151 36.8187 29.1408 36.1917 28.07C35.1527 26.2912 32.8174 26.2842 31.7854 28.0594C30.2743 30.6589 28.7703 33.2619 27.2768 35.8719C26.2695 37.6295 27.4529 39.6724 29.4783 39.6759C32.4863 39.683 35.4979 39.683 38.5059 39.6759C40.496 39.6724 41.683 37.6506 40.7144 35.9141C40.2494 35.0794 39.7598 34.2551 39.2808 33.4274C39.2456 33.364 39.2068 33.3006 39.1751 33.2372C39.0554 32.9836 39.1117 32.7335 39.3195 32.6032C39.5379 32.4658 39.8303 32.5151 39.9712 32.7582C40.5594 33.7761 41.1476 34.7941 41.7077 35.8261C41.8591 36.1043 41.9049 36.4354 42 36.7419V37.6154L41.9894 37.6189Z" fill="white" stroke="white" stroke-width="0.6" stroke-miterlimit="10"/>
<path d="M35.3743 31.8248C35.3743 32.399 35.3778 32.9696 35.3743 33.5437C35.3637 34.3503 34.7684 34.9667 33.9935 34.9808C33.2151 34.9949 32.5776 34.3679 32.567 33.5508C32.5564 32.3954 32.5564 31.2401 32.567 30.0848C32.5741 29.2641 33.2045 28.6407 33.9865 28.6513C34.779 28.6618 35.3672 29.2747 35.3743 30.1095C35.3778 30.6801 35.3743 31.2542 35.3743 31.8284V31.8248ZM34.4373 31.8002C34.4373 31.2507 34.4373 30.6977 34.4373 30.1482C34.4373 29.7995 34.2683 29.5988 33.9865 29.5917C33.7082 29.5847 33.5075 29.7925 33.5039 30.1236C33.4969 31.2472 33.5004 32.3708 33.5039 33.4944C33.5039 33.829 33.7047 34.0404 33.9794 34.0404C34.2577 34.0404 34.4373 33.829 34.4373 33.4874C34.4409 32.9273 34.4373 32.3637 34.4373 31.8037V31.8002Z" fill="white" stroke="white" stroke-width="0.6" stroke-miterlimit="10"/>
<path d="M21.5534 19.1305C21.5604 18.2428 22.2332 17.5384 23.0609 17.5489C23.8851 17.5595 24.5473 18.2851 24.5403 19.1692C24.5332 20.0709 23.8499 20.7824 23.0081 20.7683C22.1874 20.7542 21.5428 20.0322 21.5534 19.134V19.1305ZM22.4903 19.1586C22.4903 19.539 22.7298 19.8279 23.0433 19.8279C23.3497 19.8279 23.5998 19.5249 23.5998 19.1586C23.5998 18.7923 23.3462 18.4894 23.0398 18.4894C22.7298 18.4894 22.4903 18.7817 22.4903 19.1586Z" fill="white" stroke="white" stroke-width="0.6" stroke-miterlimit="10"/>
<path d="M35.3707 37.3337C35.3637 38.1086 34.7191 38.7426 33.9513 38.7285C33.1904 38.7109 32.567 38.0804 32.5635 37.3231C32.5635 36.5518 33.1975 35.9213 33.9759 35.9213C34.7614 35.9213 35.3743 36.5447 35.3707 37.3337ZM33.983 36.8617C33.7188 36.8547 33.5004 37.066 33.5004 37.3231C33.5004 37.5627 33.7153 37.781 33.9548 37.7881C34.2119 37.7951 34.4303 37.5803 34.4303 37.3196C34.4303 37.066 34.2366 36.8688 33.983 36.8617Z" fill="white" stroke="white" stroke-width="0.6" stroke-miterlimit="10"/>
<path d="M28.4249 18.1054C28.4249 18.2393 28.4355 18.3766 28.4249 18.5105C28.3967 18.7782 28.196 18.9543 27.9424 18.9402C27.6747 18.9226 27.5162 18.7676 27.4986 18.507C27.4809 18.2393 27.4809 17.968 27.4986 17.6968C27.5162 17.4291 27.6888 17.2742 27.9459 17.2671C28.2065 17.2565 28.3756 17.4115 28.4179 17.6722C28.439 17.8131 28.4214 17.961 28.4214 18.1089L28.4249 18.1054Z" fill="white" stroke="white" stroke-width="0.6" stroke-miterlimit="10"/>
<path d="M17.6718 18.0984C17.6718 17.954 17.6577 17.8061 17.6718 17.6652C17.7035 17.4116 17.8726 17.2777 18.1156 17.2707C18.3445 17.2636 18.5383 17.3869 18.5629 17.6229C18.5946 17.9399 18.5982 18.264 18.5665 18.581C18.5418 18.8275 18.3516 18.9543 18.1015 18.9438C17.8514 18.9297 17.7 18.7888 17.6718 18.5387C17.6577 18.3943 17.6718 18.2499 17.6718 18.1055V18.0984Z" fill="white" stroke="white" stroke-width="0.6" stroke-miterlimit="10"/>
</svg>
