<svg width="52" height="52" viewBox="0 0 52 52" fill="none" xmlns="http://www.w3.org/2000/svg">
<path d="M26 52C40.3594 52 52 40.3594 52 26C52 11.6406 40.3594 0 26 0C11.6406 0 0 11.6406 0 26C0 40.3594 11.6406 52 26 52Z" fill="#0033A1"/>
<path d="M42.0158 28.9029C42.0234 32.8185 42.0158 36.738 42.0234 40.6536C42.0234 41.4015 41.4635 41.9269 40.754 41.923C36.7425 41.9 32.7348 41.9115 28.7271 41.9077C28.4779 41.9077 28.2669 41.9345 28.0445 42.1033C27.4539 42.5558 26.7482 42.7744 26.0196 42.8626C25.6169 42.9125 25.2065 42.9547 24.8 42.9777L24.731 41.9384C25.4328 41.9077 26.1308 41.762 26.8211 41.505C27.799 41.1483 27.8681 40.9566 27.7338 40.1551C26.5104 40.6575 25.287 40.8837 24.0675 40.8262L24.0982 39.7562C25.0071 39.7984 25.916 39.6488 26.8173 39.319C27.5728 39.0429 27.7799 38.878 27.7799 38.4254H28.8844V38.6018H40.9112V37.5434H32.6198V36.4388C32.7271 36.4388 32.8345 36.4312 32.9419 36.4235C34.9208 36.2509 36.5277 34.7552 36.5124 32.5884C36.5009 30.3871 34.917 28.7725 32.5584 28.7686C30.8364 28.7648 29.2986 30.0457 28.9419 31.7639L27.9179 31.6143C28.171 30.272 28.4088 29.992 29.5594 28.7533C28.777 28.7533 28.0445 28.7802 27.3158 28.7456C26.8518 28.7226 26.5718 28.784 26.3954 29.3132C26.1001 30.1953 25.3484 30.644 24.4893 30.901V32.0438C24.9649 32.086 25.4481 32.1205 25.9198 32.1896L25.7588 33.2595C25.567 33.2327 25.3676 33.2135 25.1682 33.2097C24.6734 33.1982 24.1825 33.1982 23.6878 33.2097C23.5651 33.2135 23.4424 33.2212 23.3196 33.2327L23.2046 32.1627C23.335 32.1205 23.3925 32.0323 23.3887 31.8406C23.3733 30.8243 23.381 29.808 23.3848 28.7917C23.3887 28.6383 23.3963 28.4695 23.4615 28.3353C23.6763 27.8712 24.0483 27.6565 24.566 27.6565C25.8163 27.6565 27.0665 27.6603 28.3168 27.6565C29.8968 27.6603 31.4769 27.6603 33.057 27.6603H33.475C32.6619 26.4062 31.6265 25.5357 30.265 25.0716C30.2573 25.0678 30.2458 25.0678 30.2343 25.0678L30.5488 24.0361C30.8825 24.1627 31.2084 24.2969 31.5306 24.4465C32.8729 25.0639 33.8623 26.0841 34.5488 27.3842C34.6639 27.6028 34.7866 27.6641 35.0129 27.6641C36.9342 27.6565 38.8518 27.6526 40.7693 27.6641C41.2449 27.6641 41.6821 27.8022 41.8854 28.2893C41.9659 28.481 42.0158 28.6958 42.0158 28.9029ZM40.9151 34.272V30.9201C39.7761 30.598 39.0666 29.8885 38.7636 28.7802H35.8527C38.0196 30.667 38.3571 34.1224 35.8681 36.412H38.7636C39.0742 35.273 39.7876 34.5558 40.9151 34.272ZM40.9112 40.7955V39.737H28.8844V40.7955H40.9112ZM40.9036 36.4158V35.4762C40.4894 35.5606 40.0445 36.017 39.9793 36.4158H40.9036ZM40.9036 29.7044V28.7686H39.9755C40.0483 29.1752 40.4971 29.6277 40.9036 29.7044ZM25.4405 28.7648H24.4932V29.7198C24.9726 29.551 25.2832 29.248 25.4405 28.7648Z" fill="white" stroke="white" stroke-width="0.1"/>
<path d="M33.1949 15.1961C33.2832 16.9027 32.8076 18.4022 31.7568 19.7177C31.1508 20.477 30.3646 21.0561 29.4979 21.501C29.0837 21.7119 28.8344 21.9689 28.8344 22.3946H27.7721C27.7606 21.2402 27.7644 20.0782 27.7721 18.92C27.7759 18.7627 27.8642 18.5825 27.9677 18.4559C28.171 18.2143 28.4241 18.0111 28.635 17.7733C28.8229 17.5662 28.8958 17.3016 28.7884 17.0446C28.6849 16.7953 28.4624 16.6841 28.1863 16.6956C28.0521 16.7033 27.9178 16.6956 27.7644 16.6956C27.7644 16.5077 27.7721 16.3466 27.7606 16.1894C27.7107 15.4799 27.427 14.9161 26.7251 14.64C26.5487 14.571 26.357 14.5096 26.1767 14.5096C24.5238 14.4981 22.8709 14.5019 21.1911 14.5019C21.1374 15.384 20.9648 16.2277 20.4624 16.9487C20.309 17.1712 20.3282 17.2824 20.5161 17.4435C20.9303 17.804 21.3368 18.1721 21.1911 18.8126C21.1911 18.8279 21.2141 18.8509 21.2409 18.897H24.4663C24.5391 20.4118 23.9677 21.5048 22.5334 22.1261C23.0012 22.1491 23.4423 22.13 23.8757 22.0571C24.4893 21.9574 25.0914 21.8078 25.705 21.7043C25.8085 21.6889 26.0118 21.7656 26.0348 21.8385C26.1153 22.1108 26.1422 22.4023 26.1921 22.6861C26.0962 22.7206 26.0118 22.7436 25.9313 22.7819C25.8085 22.8433 25.5899 22.9162 25.5899 22.9814C25.5899 23.0657 25.5746 23.1539 25.5631 23.2421H24.4816C24.4816 23.1923 24.4663 23.1348 24.4471 23.0734C23.5765 23.269 22.729 23.407 21.8622 23.0159C20.8689 22.5633 20.0904 21.4473 20.0904 20.3927C20.0904 19.8788 20.1057 19.361 20.0789 18.851C20.0712 18.6899 19.9907 18.5058 19.8833 18.3907C19.5228 18.0072 19.1355 17.6506 18.7328 17.2594C19.2927 16.7301 19.7721 16.1894 19.9447 15.4262C18.9974 15.1117 18.0463 14.7896 17.0683 14.4674C16.9264 14.4176 16.7884 14.3716 16.6465 14.3255C16.8497 13.4396 17.2716 12.6956 17.9581 12.013C17.682 11.7752 17.3867 11.5182 17.0875 11.2575C17.866 10.36 18.7328 9.69657 19.8028 9.37825C20.4547 9.18266 21.1489 9.0561 21.8315 9.03693C23.4615 8.98707 25.0952 8.99091 26.729 9.02926C28.6849 9.07528 30.3608 9.81162 31.6417 11.3035C32.589 12.4118 33.1144 13.7042 33.1911 15.1961H33.1949ZM32.0943 16.0705C32.1825 15.0964 32.0598 14.1645 31.6456 13.2977C30.6561 11.2344 28.961 10.1875 26.706 10.1299C24.8613 10.0839 23.0128 10.1261 21.1681 10.1951C20.2515 10.2296 19.4461 10.6477 18.7405 11.2076C18.9552 11.4224 19.1546 11.618 19.3656 11.825C19.8411 11.2651 20.4662 11.1462 21.1719 11.2383V12.3083H20.7846C20.3474 12.3121 20.1019 12.5077 20.0942 12.849C20.0904 13.198 20.3397 13.4013 20.7692 13.4051C21.1105 13.4051 21.4519 13.4013 21.797 13.4051C23.3924 13.4281 24.9878 13.432 26.5794 13.4818C27.496 13.5125 28.5008 14.3907 28.7155 15.3035C28.7769 15.5604 28.892 15.71 29.1259 15.8327C29.7395 16.1549 29.9965 16.8222 29.9159 17.4933C29.8392 18.1031 29.4902 18.502 29.0952 18.9008C28.9917 19.0044 28.8843 19.1578 28.8728 19.292C28.8459 19.7138 28.8651 20.1357 28.8651 20.6189C30.7366 19.6141 31.9064 18.2028 32.0943 16.0705ZM23.2237 19.9976H21.1911C21.1911 20.1894 21.1527 20.3812 21.1988 20.5461C21.2524 20.734 21.356 21.0293 21.4825 21.0561C22.1575 21.2019 23.1086 20.6995 23.2237 19.9976ZM19.5113 14.0609L19.5036 14.0456L19.4921 14.0609H19.5113ZM19.4538 14.0839C19.2045 13.6045 19.0089 13.221 18.7673 12.7608C18.5027 13.083 18.2994 13.3284 18.054 13.6275C18.5487 13.7886 18.9629 13.9228 19.4538 14.0839Z" fill="white" stroke="white" stroke-width="0.1"/>
<path d="M32.6192 36.4387V37.5432H28.8838V38.4253H27.7793C27.7793 38.2949 27.764 38.1453 27.7371 37.9574C25.5626 38.8778 23.3843 38.8701 21.2021 37.9842C21.1791 38.7589 21.0218 38.8663 21.9346 39.2537C22.6479 39.5566 23.3728 39.7215 24.0976 39.7561L24.0669 40.826C23.1158 40.7877 22.1647 40.5729 21.2213 40.1856C21.0257 40.8491 21.3402 41.2326 21.9346 41.4627C22.8627 41.8232 23.7985 41.9804 24.7304 41.9382L24.7994 42.9775C24.4504 43.0006 24.1053 43.0082 23.7601 42.989C22.74 42.9392 21.739 42.7321 20.8723 42.1223C20.3737 41.7733 20.0784 41.3476 20.0861 40.6957C20.1053 39.1846 20.0976 37.6736 20.0938 36.1587H21.1637C21.1637 36.5998 21.4437 36.8874 21.9308 37.0753C23.553 37.7081 25.1983 37.7119 26.8167 37.1252C27.7946 36.7685 27.8522 36.5921 27.7371 35.7676C27.1273 36.0207 26.5137 36.2048 25.9001 36.3121L25.7045 35.2498C26.3105 35.1501 26.8819 34.9545 27.4226 34.64C27.856 34.3907 27.856 34.0801 27.4226 33.8308C26.8972 33.5355 26.345 33.3438 25.7582 33.2594L25.9193 32.1894C26.5444 32.2776 27.1542 32.431 27.7294 32.7417C27.7985 32.2929 27.8598 31.9248 27.9174 31.6141L28.9413 31.7637C28.8876 32.0322 28.8608 32.3083 28.8646 32.5921C28.7688 34.4291 30.414 36.4387 32.6192 36.4387ZM28.8761 36.4042H29.4629C29.2788 36.2201 29.0717 36.013 28.8761 35.8212V36.4042Z" fill="white" stroke="white" stroke-width="0.1"/>
<path d="M30.5481 24.0361L30.2337 25.0677C30.1646 25.0677 30.0573 25.1252 30.0112 25.1866C29.7773 25.4857 29.5625 25.8002 29.3363 26.1032C29.0141 26.5289 28.692 26.9469 28.3161 27.4378C27.737 26.8549 27.1924 26.3064 26.6057 25.7158C26.0611 26.2643 25.505 26.828 24.9451 27.3879C24.3506 26.5979 23.7677 25.8232 23.1886 25.0562C22.0381 25.5509 21.0793 26.2834 20.1589 27.0773C19.9939 27.2154 19.9403 27.3688 19.9556 27.5797C19.9709 27.8098 19.9901 28.0399 20.0016 28.2738L18.9585 28.3621C18.9546 28.2738 18.947 28.1856 18.9355 28.0936C18.8626 27.457 18.7284 26.8472 18.4062 26.2988C17.6737 25.0485 16.9144 23.8175 16.1857 22.5672C16.0131 22.2719 15.8252 22.1223 15.4724 22.1684C15.1886 22.2067 14.9009 22.1799 14.6171 22.176C14.4292 22.1722 14.3065 22.2105 14.1646 22.3716C13.923 22.6401 13.62 22.874 13.3055 23.0581C12.8261 23.3342 12.2816 23.2844 11.7523 23.269C11.5759 23.2652 11.48 23.3074 11.3803 23.4723C10.9508 24.2201 10.5059 24.9565 10.0457 25.6851C9.32086 26.8395 8.92201 28.0591 9.20581 29.4397C9.43592 30.5826 10.0342 31.4915 10.9469 32.1972C11.5759 32.688 12.2662 32.9949 13.0179 33.1137L12.922 34.1646C12.8875 34.1607 12.853 34.1607 12.8185 34.1569C11.8597 34.0802 11.0236 33.6507 10.2681 33.0754C9.00639 32.1166 8.26238 30.8242 8.05145 29.2786C7.86736 27.9133 8.18184 26.6132 8.92201 25.4282C9.41674 24.642 9.88462 23.8366 10.3563 23.0313C10.3985 22.9622 10.3909 22.851 10.3755 22.7666C10.3333 22.5059 10.2413 22.2489 10.2336 21.9881C10.2106 21.3515 10.2451 20.7072 10.2183 20.0706C10.1953 19.4876 10.5097 19.1655 10.9853 18.9124C10.7437 18.4291 10.4867 17.9459 10.2605 17.4474C10.2106 17.3323 10.2106 17.1444 10.2681 17.0293C10.6938 16.1357 11.4417 15.6985 12.412 15.5873V14.502C12.6459 14.502 12.8722 14.4828 13.0908 14.5058C13.9882 14.6094 14.8971 14.6746 15.7792 14.8548C16.1397 14.9315 16.5002 15.0274 16.8338 15.1808C17.1713 15.3304 17.482 15.5375 17.7466 15.8251C17.8194 15.9018 17.9 16.0169 17.8923 16.1051C17.8118 17.1866 17.6622 18.2527 17.0371 19.1847C16.8645 19.4378 16.8223 19.7177 16.7916 20.0284C16.6766 21.083 16.9949 21.9613 17.5855 22.828C18.3065 23.8865 18.9086 25.0217 19.5721 26.1377C20.5347 25.2518 21.6162 24.5385 22.8127 24.013C23.2845 23.806 23.7754 23.6449 24.2663 23.48C24.4273 23.4263 24.4849 23.3496 24.4849 23.2422H25.5664C25.551 23.4148 25.5664 23.5835 25.7965 23.6986C26.0956 23.8443 26.3641 24.201 26.6402 24.1933C26.9355 24.1895 27.2231 23.8635 27.5261 23.6947C27.714 23.5873 27.7754 23.457 27.7754 23.2345C27.7754 22.9584 27.7754 22.6784 27.7754 22.3985H28.8377C28.8377 22.4675 28.8454 22.5442 28.8607 22.6247C28.9067 22.8932 28.8684 23.1732 28.8684 23.3956C29.436 23.618 29.9997 23.8175 30.552 24.0361H30.5481ZM29.0256 24.6842C28.3545 24.3966 28.155 24.4426 27.645 24.9373C27.8559 25.1789 28.0668 25.4205 28.2816 25.6698C28.5232 25.3477 28.7648 25.0293 29.0256 24.6842ZM25.0908 25.7082C25.3362 25.455 25.5472 25.2326 25.7696 25.0025C25.3247 24.7034 24.9297 24.1895 24.2778 24.6535C24.4005 24.8299 24.5194 25.014 24.6536 25.1904C24.7878 25.3668 24.9374 25.5279 25.0908 25.7082ZM16.04 18.7475C16.4273 18.061 16.7533 17.3476 16.7341 16.5308C16.7341 16.4656 16.6804 16.3774 16.6267 16.3467C15.668 15.8174 14.6248 15.6755 13.4819 15.6602C13.528 15.898 13.5702 16.0706 13.5932 16.247C13.689 17.0869 13.9422 17.8807 14.2796 18.6516C14.3564 18.828 14.4676 18.9047 14.6708 18.8932C15.0352 18.874 15.3995 18.897 15.7638 18.8817C15.8597 18.8778 15.9978 18.8242 16.04 18.7475ZM15.6833 21.0792V19.9939H14.3832C14.4407 20.3007 14.4906 20.6036 14.5596 20.9028C14.575 20.9718 14.667 21.0677 14.7284 21.0715C15.0505 21.0869 15.3765 21.0792 15.6833 21.0792ZM12.9949 21.9843C13.2864 21.7887 13.551 21.3438 13.5126 21.0293C13.4474 20.5039 13.1521 20.1281 12.6919 20.0591C12.2547 19.9939 11.8137 19.9862 11.3228 19.9478V22.1952C11.8981 22.0993 12.4695 22.3371 12.9949 21.9843ZM11.829 18.1415C12.0284 18.8127 12.4541 19.0658 13.133 18.8433C12.9259 18.1415 12.7149 17.4243 12.4925 16.665C12.2547 16.7417 11.9978 16.7954 11.7753 16.9143C11.4072 17.1099 11.388 17.2403 11.5759 17.6199C11.6641 17.7925 11.7753 17.9574 11.829 18.1415Z" fill="white" stroke="white" stroke-width="0.1"/>
<path d="M25.7048 35.25L25.9003 36.3123C24.3395 36.6076 22.7709 36.4427 21.2177 35.7984C21.1832 35.9288 21.164 36.0477 21.164 36.1589H20.094V34.483C19.722 34.7783 19.4152 35.0544 19.0777 35.2845C17.816 36.1359 16.0173 36.109 14.7786 35.1196C14.7095 35.0659 14.606 35.0352 14.56 34.9662C14.1649 34.3641 13.5782 34.226 12.9224 34.1646L13.0182 33.1138C13.3442 33.1675 13.6855 33.1867 14.0345 33.1714C14.4142 33.1368 14.8016 33.133 15.1774 33.064C16.3663 32.8454 17.3519 32.2624 18.0691 31.2883C18.7057 30.4177 19.024 29.4436 18.9588 28.3621L20.002 28.2739C20.0135 28.5309 20.025 28.7878 20.0211 29.0448C20.0096 29.8348 19.768 30.5712 19.3807 31.25C19.2464 31.4762 19.2886 31.5836 19.4574 31.7294C19.7757 32.0055 20.0825 32.2893 20.443 32.6153C20.4775 32.5731 20.535 32.4504 20.6348 32.3775C21.0988 32.0362 21.2407 31.5951 21.2023 31.0237C21.1525 30.2758 21.1908 29.5242 21.1908 28.7763H22.2992V32.2893C22.5715 32.2509 22.8131 32.2011 23.0585 32.1857C23.1161 32.1819 23.1621 32.1742 23.2043 32.1627L23.3193 33.2327C22.7632 33.2864 22.2263 33.436 21.7278 33.7006C21.5168 33.8118 21.2177 34.0611 21.233 34.2183C21.2522 34.4216 21.5168 34.6594 21.7354 34.7744C22.5715 35.2231 23.4842 35.3574 24.374 35.3343C24.8342 35.3459 25.2791 35.319 25.7048 35.25ZM19.5494 33.3708C19.2848 33.11 19.0125 32.853 18.7556 32.5769C18.5945 32.4043 18.4871 32.4465 18.3375 32.5922C18.1113 32.8109 17.8696 33.0179 17.6165 33.202C16.9492 33.6853 16.1975 33.9729 15.3461 34.1608C16.8725 35.388 18.7019 34.644 19.5494 33.3708Z" fill="white" stroke="white" stroke-width="0.1"/>
<path d="M25.5622 15.6143C25.6274 16.3583 25.5086 17.0371 24.8681 17.482C24.3197 17.8616 23.7061 17.9345 23.1001 17.5817C22.3408 17.1406 22.2104 16.4311 22.3062 15.6181H23.3609C23.4453 16.0246 23.1922 16.6344 23.9093 16.6843C24.3005 16.7149 24.4156 16.4772 24.5038 15.6143H25.5622Z" fill="white" stroke="white" stroke-width="0.1"/>
<path d="M19.5031 14.0457L19.5107 14.0608H19.4917L19.5031 14.0457Z" fill="white" stroke="white" stroke-width="0.1"/>
<path d="M14.7515 25.6314C15.6029 26.0494 15.7524 26.7819 15.6988 27.641H14.7208C14.6019 27.315 14.5559 26.943 14.3488 26.7167C14.1992 26.548 13.8387 26.571 13.5166 26.4981C13.5166 26.7589 13.5089 26.9353 13.5166 27.1156C13.5319 27.4492 13.7045 27.6218 14.042 27.6563C14.7285 27.7215 15.2807 27.9938 15.5569 28.6611C15.6336 28.8452 15.6911 29.0485 15.6988 29.2441C15.7179 29.8001 15.7064 30.3562 15.7064 30.9353H14.6288V32.0207H13.5166C13.5166 31.7062 13.5127 31.3917 13.5166 31.0772C13.5204 30.9315 13.4821 30.8625 13.3325 30.7781C12.5655 30.3371 12.2894 29.6544 12.4504 28.7723H13.4821C13.6355 29.896 13.647 29.9075 14.5674 29.8308C14.7208 29.2249 14.5444 28.6803 13.7812 28.7493C13.7083 28.7493 13.6355 28.7033 13.5588 28.6841C12.9068 28.5115 12.3814 27.756 12.4121 27.1463C12.4428 26.6017 12.4197 26.0532 12.4197 25.4665H13.5012V24.3965H14.6134C14.6134 24.7071 14.6019 25.0369 14.6173 25.3591C14.6211 25.455 14.6786 25.5969 14.7515 25.6314Z" fill="white" stroke="white" stroke-width="0.1"/>
</svg>
