<svg width="52" height="52" viewBox="0 0 52 52" fill="none" xmlns="http://www.w3.org/2000/svg">
<path d="M26 52C40.3594 52 52 40.3594 52 26C52 11.6406 40.3594 0 26 0C11.6406 0 0 11.6406 0 26C0 40.3594 11.6406 52 26 52Z" fill="#0033A1"/>
<path d="M34.6702 33.4174C34.6702 33.2711 34.6702 33.1248 34.52 33.0516C34.445 32.9054 34.3699 32.8322 34.2198 32.7591C33.9195 32.6128 33.5442 32.7591 33.394 33.0516C32.6434 34.222 31.7426 35.173 30.7667 36.0508C30.3163 36.4165 29.8659 36.7822 29.4905 37.148C29.1903 37.4406 29.1152 37.8795 29.3404 38.1721C29.4905 38.3915 29.6407 38.3915 29.7908 38.4647C29.941 38.4647 30.0911 38.4647 30.2412 38.3184C30.8418 37.8795 31.3672 37.4406 31.8927 36.9285C32.3431 36.4896 32.7935 36.0508 33.1688 35.6119C33.6192 35.0998 33.9946 34.5878 34.3699 34.0757L34.52 33.8563C34.52 33.8563 34.5951 33.71 34.6702 33.6368V33.4174C34.7452 33.4174 34.7452 33.4174 34.7452 33.4174H34.6702Z" fill="white"/>
<path d="M34.6702 33.4174C34.6702 33.2711 34.6702 33.1248 34.52 33.0516C34.445 32.9054 34.3699 32.8322 34.2198 32.7591C33.9195 32.6128 33.5442 32.7591 33.394 33.0516C32.6434 34.222 31.7426 35.173 30.7667 36.0508C30.3163 36.4165 29.8659 36.7822 29.4905 37.148C29.1903 37.4406 29.1152 37.8795 29.3404 38.1721C29.4905 38.3915 29.6407 38.3915 29.7908 38.4647C29.941 38.4647 30.0911 38.4647 30.2412 38.3184C30.8418 37.8795 31.3672 37.4406 31.8927 36.9285C32.3431 36.4896 32.7935 36.0508 33.1688 35.6119C33.6192 35.0998 33.9946 34.5878 34.3699 34.0757L34.52 33.8563C34.52 33.8563 34.5951 33.71 34.6702 33.6368V33.4174ZM34.6702 33.4174C34.7452 33.4174 34.7452 33.4174 34.7452 33.4174H34.6702Z" stroke="white" stroke-width="0.2"/>
<path d="M28.5896 38.3918C28.4395 38.3186 28.2893 38.2455 28.0641 38.2455C27.8389 38.2455 27.6888 38.2455 27.5387 38.4649C27.3885 38.6112 27.3135 38.7575 27.3135 38.9038C27.3135 39.0501 27.3885 39.2696 27.5387 39.3427C27.6888 39.489 27.8389 39.5622 28.0641 39.5622C28.2893 39.5622 28.4395 39.5622 28.5896 39.3427C28.7398 39.1964 28.8148 39.0501 28.8148 38.8307C28.8148 38.6112 28.8148 38.4649 28.6647 38.3918H28.5896Z" fill="white" stroke="white" stroke-width="0.2"/>
<path d="M21.6087 16.447C21.4585 16.3738 21.3084 16.3007 21.0832 16.3007C20.858 16.3007 20.7079 16.3007 20.5577 16.5201C20.4076 16.6664 20.3325 16.8127 20.3325 16.959C20.3325 17.1053 20.4076 17.3247 20.5577 17.3979C20.7079 17.5442 20.858 17.6173 21.0832 17.6173C21.3084 17.6173 21.4585 17.6173 21.6087 17.3979C21.7588 17.2516 21.8339 17.1053 21.8339 16.8858C21.8339 16.6664 21.8339 16.5201 21.6837 16.447H21.6087Z" fill="white" stroke="white" stroke-width="0.2"/>
<path d="M19.8071 17.6905C19.8071 17.4711 19.6569 17.3248 19.4317 17.2516C19.2065 17.1785 18.9813 17.1785 18.7561 17.2516L17.1047 17.8368C16.4291 18.0563 15.7534 18.2757 15.0778 18.5683C14.7776 18.6415 14.7025 18.8609 14.6274 19.1535C14.6274 20.1776 14.6274 21.0554 14.6274 21.9332C14.6274 22.0795 14.7025 22.2989 14.8526 22.4452C14.9277 22.5184 15.0778 22.5915 15.228 22.5915C15.3781 22.5915 15.3781 22.5915 15.4532 22.5915C15.6784 22.5184 15.7534 22.4452 15.9036 22.2989C15.9786 22.1526 16.0537 22.0063 16.0537 21.7869C16.0537 21.348 16.0537 20.8359 16.0537 20.397V19.8118L16.7293 19.5924C17.1797 19.4461 17.6301 19.2998 18.0805 19.1535C18.606 19.0072 19.0564 18.7878 19.5068 18.5683C19.6569 18.4952 19.8071 18.422 19.8821 18.2757C19.8821 18.2026 19.8821 18.0563 19.8821 17.91L19.8071 17.6905Z" fill="white" stroke="white" stroke-width="0.2"/>
<path d="M34.7458 22.5183C34.6708 21.8599 34.3705 21.3479 33.845 21.0553C32.719 20.3238 31.4429 20.397 30.467 21.3479C28.8906 22.884 27.3142 24.4202 25.7378 25.9563L23.711 27.9313L23.1104 27.3461C22.66 26.9072 22.1346 26.3952 21.6842 25.9563C21.534 25.81 21.459 25.7368 21.3088 25.6637C21.3088 25.6637 21.1587 25.5905 21.1587 25.5174C20.7083 25.1516 20.0327 24.9322 19.3571 25.0053C18.6815 25.0053 18.081 25.3711 17.7056 25.81C16.955 26.7609 17.03 28.1507 17.8558 28.9554C18.3062 29.3943 18.6815 29.76 19.1319 30.1989C20.1078 31.1499 21.0836 32.1008 22.0595 33.0517C22.4348 33.4175 23.0354 33.7101 23.711 33.7101C24.3866 33.7101 24.9871 33.4906 25.3625 33.0517C27.9898 30.4184 30.7673 27.7119 33.845 24.7859C34.5957 24.0544 34.8209 23.3961 34.7458 22.5914V22.5183ZM32.7941 23.3961C29.9415 26.1757 27.1641 28.9554 24.3115 31.6619C24.1614 31.8082 23.9362 31.8813 23.711 31.8813C23.4858 31.8813 23.3356 31.8082 23.1855 31.6619C22.2847 30.7841 21.459 29.9063 20.5582 29.1017C20.1078 28.6628 19.6574 28.2239 19.207 27.785C19.0568 27.6387 18.9067 27.4193 18.9067 27.1998C18.9067 26.9804 18.9818 26.8341 19.207 26.6878C19.207 26.6878 19.3571 26.6146 19.5072 26.5415C19.5072 26.5415 19.5823 26.5415 19.6574 26.5415C19.8826 26.5415 20.0327 26.6878 20.1828 26.8341C21.0086 27.6387 21.7592 28.3702 22.585 29.1748L22.9603 29.5406C23.4858 30.0526 23.8611 30.1989 24.5367 29.5406C26.4134 27.7119 28.215 25.9563 30.0917 24.1276L31.7432 22.5183C31.8933 22.372 32.1185 22.2988 32.3437 22.2988C32.5689 22.2988 32.719 22.2988 32.7941 22.4451C33.0193 22.6646 33.0944 23.1766 32.7941 23.4692V23.3961Z" fill="white" stroke="white" stroke-width="0.2"/>
<path d="M25.9625 43C25.437 43 24.9115 42.8537 24.5362 42.7074C23.4102 42.3417 22.3592 41.8296 21.3834 41.1713C20.5576 40.6592 19.7319 40.0009 18.756 39.1231C17.9303 38.4648 17.3298 37.8064 16.8043 37.2212C16.1287 36.4166 15.5282 35.5388 14.7775 34.5147C13.9517 33.1981 13.2761 31.7351 12.7507 30.0527C12.4504 29.1017 12.3003 28.2971 12.2252 27.6387C12.0751 26.6147 12 25.7369 12 24.9322C12 23.0304 12 21.1285 12 19.1535V17.6905C12 16.8127 12.5255 16.5201 13.0509 16.3007C13.4263 16.1544 13.8767 16.0081 14.252 15.9349C15.4531 15.5692 16.7292 15.1303 17.9303 14.6914C19.4316 14.1062 20.7828 13.521 22.4343 12.7164C23.0349 12.4238 23.6354 12.1312 24.2359 11.7654C24.5362 11.6191 24.8365 11.4728 25.0617 11.2534C25.8123 10.8145 26.4879 11.0339 26.7882 11.2534L27.5389 11.6191C28.0643 11.9117 28.5147 12.2043 29.1153 12.4969C31.2922 13.5942 33.319 14.4719 35.4209 15.1303C36.3217 15.4229 37.2225 15.7155 38.1233 15.9349L38.874 16.1544C39.5496 16.3738 40 16.8859 40 17.5442V19.5192C40 21.2016 40 22.9572 40 24.6396C40 26.8341 39.5496 29.0286 38.7239 31.0767C38.0483 32.7592 37.1475 34.4416 35.9464 35.9777C35.1957 36.9286 34.37 37.8064 33.3941 38.7574C31.9678 40.0009 30.4665 41.0981 28.815 41.8296C27.9142 42.2685 26.552 43 25.9625 43C26.1126 43 25.8123 43 25.9625 43ZM13.5013 17.7636V19.1535C13.5013 21.0553 13.5013 22.9572 13.5013 24.8591C13.5013 25.5906 13.5764 26.3952 13.7265 27.3461C13.8016 28.0045 14.0268 28.736 14.252 29.6138C14.7024 31.0767 15.3029 32.4666 16.0536 33.6369C16.7292 34.661 17.3298 35.4657 17.9303 36.1972C18.3807 36.7092 18.9812 37.2944 19.7319 37.9527C20.7078 38.7574 21.4584 39.3426 22.2091 39.8546C23.1099 40.4398 24.0107 40.8787 24.9866 41.2444C25.437 41.3907 25.8123 41.537 26.1126 41.4639C26.7131 41.3176 27.3137 41.0981 28.1394 40.7324C29.6408 40.0009 31.067 39.05 32.4182 37.8796C33.3941 37.0018 34.1448 36.1972 34.8204 35.3194C35.9464 33.9295 36.7721 32.3934 37.3727 30.7841C38.1233 28.8823 38.4987 26.8341 38.5737 24.7859C38.5737 23.1035 38.5737 21.3479 38.5737 19.6655V17.6905L37.748 17.471C36.8472 17.1785 35.9464 16.959 35.0456 16.5933C32.8686 15.8618 30.7668 14.984 28.5147 13.8136C27.9142 13.521 27.3887 13.2284 26.8633 12.9358L26.0375 12.4238C25.7373 12.6432 25.5121 12.7895 25.2118 12.9358C24.6113 13.3016 23.9357 13.6673 23.3351 13.9599C21.6086 14.7645 20.1823 15.4229 18.681 16.0081C17.4048 16.447 16.1287 16.8859 14.9276 17.2516C14.5523 17.3979 14.1019 17.471 13.7265 17.6173L13.5013 17.7636Z" fill="white"/>
<path d="M25.9625 43C25.437 43 24.9115 42.8537 24.5362 42.7074C23.4102 42.3417 22.3592 41.8296 21.3834 41.1713C20.5576 40.6592 19.7319 40.0009 18.756 39.1231C17.9303 38.4648 17.3298 37.8064 16.8043 37.2212C16.1287 36.4166 15.5282 35.5388 14.7775 34.5147C13.9517 33.1981 13.2761 31.7351 12.7507 30.0527C12.4504 29.1017 12.3003 28.2971 12.2252 27.6387C12.0751 26.6147 12 25.7369 12 24.9322C12 23.0304 12 21.1285 12 19.1535V17.6905C12 16.8127 12.5255 16.5201 13.0509 16.3007C13.4263 16.1544 13.8767 16.0081 14.252 15.9349C15.4531 15.5692 16.7292 15.1303 17.9303 14.6914C19.4316 14.1062 20.7828 13.521 22.4343 12.7164C23.0349 12.4238 23.6354 12.1312 24.2359 11.7654C24.5362 11.6191 24.8365 11.4728 25.0617 11.2534C25.8123 10.8145 26.4879 11.0339 26.7882 11.2534L27.5389 11.6191C28.0643 11.9117 28.5147 12.2043 29.1153 12.4969C31.2922 13.5942 33.319 14.4719 35.4209 15.1303C36.3217 15.4229 37.2225 15.7155 38.1233 15.9349L38.874 16.1544C39.5496 16.3738 40 16.8859 40 17.5442V19.5192C40 21.2016 40 22.9572 40 24.6396C40 26.8341 39.5496 29.0286 38.7239 31.0767C38.0483 32.7592 37.1475 34.4416 35.9464 35.9777C35.1957 36.9286 34.37 37.8064 33.3941 38.7574C31.9678 40.0009 30.4665 41.0981 28.815 41.8296C27.9142 42.2685 26.552 43 25.9625 43ZM25.9625 43C25.8123 43 26.1126 43 25.9625 43ZM13.5013 17.7636V19.1535C13.5013 21.0553 13.5013 22.9572 13.5013 24.8591C13.5013 25.5906 13.5764 26.3952 13.7265 27.3461C13.8016 28.0045 14.0268 28.736 14.252 29.6138C14.7024 31.0767 15.3029 32.4666 16.0536 33.6369C16.7292 34.661 17.3298 35.4657 17.9303 36.1972C18.3807 36.7092 18.9812 37.2944 19.7319 37.9527C20.7078 38.7574 21.4584 39.3426 22.2091 39.8546C23.1099 40.4398 24.0107 40.8787 24.9866 41.2444C25.437 41.3907 25.8123 41.537 26.1126 41.4639C26.7131 41.3176 27.3137 41.0981 28.1394 40.7324C29.6408 40.0009 31.067 39.05 32.4182 37.8796C33.3941 37.0018 34.1448 36.1972 34.8204 35.3194C35.9464 33.9295 36.7721 32.3934 37.3727 30.7841C38.1233 28.8823 38.4987 26.8341 38.5737 24.7859C38.5737 23.1035 38.5737 21.3479 38.5737 19.6655V17.6905L37.748 17.471C36.8472 17.1785 35.9464 16.959 35.0456 16.5933C32.8686 15.8618 30.7668 14.984 28.5147 13.8136C27.9142 13.521 27.3887 13.2284 26.8633 12.9358L26.0375 12.4238C25.7373 12.6432 25.5121 12.7895 25.2118 12.9358C24.6113 13.3016 23.9357 13.6673 23.3351 13.9599C21.6086 14.7645 20.1823 15.4229 18.681 16.0081C17.4048 16.447 16.1287 16.8859 14.9276 17.2516C14.5523 17.3979 14.1019 17.471 13.7265 17.6173L13.5013 17.7636Z" stroke="white" stroke-width="0.2"/>
</svg>
