<svg width="52" height="52" viewBox="0 0 52 52" fill="none" xmlns="http://www.w3.org/2000/svg">
<path d="M26 52C40.3594 52 52 40.3594 52 26C52 11.6406 40.3594 0 26 0C11.6406 0 0 11.6406 0 26C0 40.3594 11.6406 52 26 52Z" fill="#0033A1"/>
<path d="M32.6124 39.3903C32.6124 39.9878 32.6124 40.5914 32.6124 41.192C32.6124 41.7895 32.3988 42 31.8013 42C27.6871 42 23.5728 42 19.4586 42C18.8611 42 18.6598 41.7957 18.6568 41.1889C18.6568 40.5945 18.6568 40.0032 18.6568 39.381C18.5329 39.3593 18.4215 39.3407 18.3131 39.3222C17.3101 39.1643 16.5269 38.3532 16.4278 37.3502C16.0904 33.9294 15.756 30.5086 15.4217 27.0908C15.2143 24.9764 15.0069 22.862 14.7963 20.7476C14.7963 20.7167 14.7809 20.6888 14.7654 20.6269C14.2329 20.7538 13.7004 20.8808 13.168 21.0046C12.7531 21.1006 12.4776 20.9458 12.3693 20.534C12.2454 20.0604 12.1309 19.5867 12.0194 19.11C11.9359 18.7447 12.1278 18.432 12.4776 18.3422C12.812 18.2556 13.1308 18.4568 13.233 18.8221C13.3011 19.0728 13.3599 19.3267 13.4249 19.5774C13.4311 19.596 13.4466 19.6115 13.4745 19.6548C20.8671 17.7633 28.2691 15.8687 35.6648 13.9772C35.6525 12.6399 34.6618 12.0455 33.6433 12.3148C29.7303 13.3395 25.8079 14.3332 21.8887 15.3363C20.2573 15.7542 18.6227 16.169 16.9912 16.5869C16.6909 16.6643 16.4278 16.6272 16.239 16.364C16.078 16.1381 16.0501 15.878 16.2328 15.6706C16.3535 15.5313 16.5423 15.4229 16.7188 15.3734C17.468 15.1629 18.2264 14.9771 19.0128 14.7759C18.9725 14.5933 18.9416 14.423 18.8982 14.2558C18.5298 12.8287 19.1892 11.7049 20.6195 11.3334C22.2509 10.9093 23.8824 10.4945 25.5169 10.0797C26.8017 9.75461 27.9657 10.4481 28.3031 11.7266C28.3558 11.9247 28.4084 12.126 28.4703 12.355C29.2442 12.1569 29.9965 11.965 30.7488 11.7761C31.7177 11.5316 32.6774 11.2591 33.6557 11.0517C34.9869 10.7669 36.3366 11.5873 36.736 12.8937C36.866 13.3209 36.9681 13.7574 37.0734 14.1939C37.1818 14.6366 37.0022 14.9338 36.5409 15.0514C35.4729 15.3301 34.4049 15.5994 33.3368 15.8718C32.4422 16.1009 31.5475 16.33 30.6528 16.5591V16.6581C31.0429 16.6798 31.436 16.7139 31.8261 16.717C32.9591 16.7201 33.891 17.1473 34.6092 18.0234C34.7856 18.2401 34.9311 18.4877 35.0519 18.7385C35.1447 18.9304 35.2562 19.0047 35.4605 18.98C35.5843 18.9645 35.7113 18.9738 35.8351 18.98C36.3707 18.9923 36.6059 19.2338 36.5626 19.7601C36.4976 20.5495 36.414 21.3358 36.3397 22.1252C36.3087 22.4565 36.2747 22.7877 36.2437 23.119C36.2035 23.5617 35.928 23.8403 35.5565 23.8093C35.1881 23.7784 34.959 23.4874 34.9931 23.054C35.055 22.2955 35.1386 21.5402 35.2098 20.7848C35.2252 20.6207 35.2376 20.4535 35.2531 20.2523C35.1262 20.2461 35.0147 20.2368 34.9064 20.2368C28.7923 20.2368 22.6781 20.2368 16.5609 20.2368C16.499 20.2368 16.4371 20.2368 16.3721 20.2368C16.1182 20.243 15.9975 20.3018 16.0315 20.6269C16.3597 23.8062 16.6662 26.9887 16.9758 30.1711C17.1925 32.4001 17.4092 34.629 17.6228 36.858C17.7156 37.8362 18.0283 38.1241 19.022 38.1241C21.0838 38.1241 23.1456 38.1241 25.2105 38.1241C27.5849 38.1241 29.9594 38.1241 32.3369 38.1241C33.2006 38.1241 33.5411 37.7991 33.6247 36.9477C33.891 34.1894 34.1634 31.4342 34.4358 28.6759C34.4761 28.2672 34.7423 28.0258 35.1076 28.0474C35.4729 28.0691 35.7175 28.3446 35.6803 28.7595C35.5781 29.9327 35.4605 31.1029 35.346 32.2731C35.1912 33.8582 35.0178 35.4432 34.8754 37.0313C34.7516 38.4182 34.1108 39.1333 32.7301 39.3748C32.6991 39.381 32.6712 39.3903 32.6124 39.4058V39.3903ZM31.3463 39.3841H19.9322V40.7338H31.3463V39.3841ZM33.7578 18.9583C33.6526 18.8283 33.5938 18.7447 33.5257 18.6704C33.0396 18.1441 32.4236 17.946 31.727 17.9584C30.9005 17.9769 30.1172 17.8345 29.3774 17.4414C28.8696 17.172 28.3279 17.1473 27.7676 17.2928C26.1578 17.7107 24.5449 18.1162 22.9351 18.528C22.4491 18.6518 21.963 18.7756 21.477 18.9026C21.4801 18.9211 21.4832 18.9366 21.4894 18.9552H33.764L33.7578 18.9583ZM20.2418 14.4633C22.6007 13.8596 24.9195 13.2652 27.2537 12.6677C27.1825 12.3953 27.1298 12.1507 27.0524 11.9154C26.8853 11.4046 26.424 11.1539 25.8946 11.2777C25.5324 11.3644 25.1702 11.4604 24.808 11.5532C23.5016 11.8876 22.1921 12.2219 20.8857 12.5563C20.3006 12.7049 20.0003 13.0578 20.0529 13.5872C20.0808 13.872 20.1706 14.1506 20.2418 14.4602V14.4633Z" fill="white" stroke="white" stroke-width="0.4"/>
<path d="M26.7523 26.156C26.5604 25.8278 26.387 25.5089 26.1951 25.1994C25.9505 24.8031 25.5016 24.8 25.2632 25.1994C24.8732 25.8495 24.4986 26.512 24.1209 27.1714C23.9785 27.4159 23.7804 27.5707 23.4894 27.549C23.0622 27.5181 22.7712 27.063 22.9755 26.6822C23.412 25.8804 23.8361 25.0601 24.3655 24.3202C25.0434 23.3698 26.5449 23.4657 27.1981 24.4533C27.455 24.8403 27.6748 25.2551 27.9101 25.6513C27.9442 25.6452 27.9689 25.6483 27.9751 25.639C28.2506 25.2675 28.5602 25.1715 28.876 25.3603C29.1948 25.5523 29.2599 25.8742 29.0555 26.2891C28.8977 26.6172 28.7367 26.9423 28.5695 27.2673C28.3961 27.6017 28.1702 27.7069 27.8018 27.6481C27.4519 27.5924 27.1021 27.5429 26.7554 27.4809C26.3406 27.4097 26.127 27.2054 26.1084 26.8804C26.0898 26.5429 26.257 26.3417 26.6718 26.2117C26.6904 26.2055 26.7059 26.19 26.7492 26.1591L26.7523 26.156Z" fill="white" stroke="white" stroke-width="0.4"/>
<path d="M22.0778 30.716C21.892 31.0349 21.7032 31.3444 21.5329 31.6633C21.3255 32.0565 21.5484 32.4403 21.9942 32.4465C22.7526 32.4558 23.5142 32.4465 24.2726 32.4527C24.7184 32.4558 24.9847 32.6911 24.9971 33.0595C25.0094 33.3969 24.7834 33.6879 24.446 33.691C23.5297 33.7034 22.6102 33.7436 21.7001 33.6724C20.5299 33.5827 19.8488 32.2236 20.3906 31.1463C20.5732 30.7841 20.7868 30.4405 20.9942 30.069C20.8952 30.0442 20.8178 30.0287 20.7404 30.0071C20.4432 29.9173 20.276 29.6851 20.2884 29.3786C20.3008 29.0938 20.4834 28.8554 20.7744 28.8121C21.2357 28.744 21.7032 28.6883 22.1706 28.6573C22.4585 28.6387 22.6629 28.8028 22.7774 29.066C22.9322 29.4189 23.0839 29.7718 23.2325 30.1247C23.3811 30.4869 23.3006 30.8027 23.0158 30.976C22.7341 31.1494 22.4276 31.0813 22.1644 30.7841C22.1428 30.7624 22.118 30.7439 22.0809 30.7129L22.0778 30.716Z" fill="white" stroke="white" stroke-width="0.4"/>
<path d="M28.4328 33.7002C28.4545 33.9107 28.5288 34.0996 28.4731 34.2265C28.3926 34.4091 28.2378 34.6228 28.0676 34.6816C27.8973 34.7404 27.5908 34.6909 27.4794 34.5701C27.1326 34.1862 26.8385 33.7528 26.5537 33.3225C26.4144 33.112 26.498 32.8798 26.6435 32.6817C26.8788 32.3628 27.111 32.044 27.3524 31.7313C27.5877 31.4279 27.8818 31.3536 28.1728 31.5053C28.4576 31.6539 28.5567 31.9356 28.4545 32.3071C28.4452 32.3381 28.4421 32.3659 28.4267 32.4371C28.8353 32.4371 29.2377 32.4743 29.6278 32.4279C29.9745 32.3876 30.1015 31.9759 29.9064 31.6292C29.5814 31.0502 29.2439 30.4744 28.9127 29.8986C28.8663 29.8181 28.8167 29.7376 28.7827 29.651C28.6619 29.3476 28.7765 29.0256 29.0551 28.8739C29.3182 28.7284 29.6804 28.7718 29.8383 29.0318C30.2965 29.7996 30.798 30.5518 31.1478 31.3691C31.6122 32.4464 30.7701 33.6507 29.5938 33.7033C29.2099 33.7219 28.826 33.7033 28.439 33.7033L28.4328 33.7002Z" fill="white" stroke="white" stroke-width="0.4"/>
<path d="M13.5396 16.6613C13.5396 16.3146 13.8058 16.0483 14.1525 16.0483C14.4931 16.0483 14.7748 16.3208 14.7779 16.6551C14.781 17.0018 14.4807 17.3021 14.1433 17.2928C13.8027 17.2835 13.5365 17.0049 13.5396 16.6613Z" fill="white" stroke="white" stroke-width="0.4"/>
<path d="M35.327 26.5089C34.9803 26.5027 34.7171 26.2333 34.7202 25.8897C34.7233 25.5461 34.9989 25.2675 35.3332 25.2675C35.683 25.2675 35.9678 25.5616 35.9554 25.9114C35.9431 26.255 35.6706 26.515 35.327 26.5089Z" fill="white" stroke="white" stroke-width="0.4"/>
</svg>
