<svg width="52" height="52" viewBox="0 0 52 52" fill="none" xmlns="http://www.w3.org/2000/svg">
<path d="M26 52C40.3594 52 52 40.3594 52 26C52 11.6406 40.3594 0 26 0C11.6406 0 0 11.6406 0 26C0 40.3594 11.6406 52 26 52Z" fill="#0033A1"/>
<path d="M32.5156 30.6272V37.5717C32.7572 37.6582 33.0317 37.7059 33.2524 37.8431C33.8043 38.1862 34.0101 38.6814 33.9504 39.3555C33.8669 40.3101 33.4851 41.0857 32.7841 41.7151C32.1726 42.264 31.4507 42.5891 30.6214 42.5921C25.1565 42.5981 19.6916 42.61 14.2267 42.5832C13.2483 42.5802 12.4399 42.0701 11.8284 41.3183C11.3213 40.6949 11.0528 39.97 11.0498 39.1407C11.0498 38.2995 11.6583 37.6492 12.5532 37.6045C12.5532 37.5061 12.5532 37.4076 12.5532 37.3092C12.5532 33.5386 12.5562 29.7681 12.5532 25.9976C12.5532 24.9565 13.5287 23.7901 14.6026 23.7126C14.9695 23.6857 15.3394 23.6529 15.7093 23.6529C19.1994 23.6469 22.6925 23.6469 26.1827 23.6529C26.4153 23.6529 26.5406 23.6141 26.6152 23.3606C26.7435 22.9459 27.0179 22.6417 27.4475 22.4985C27.871 22.3553 28.1306 21.8452 27.8979 21.3649C27.7995 21.1621 27.7786 20.9234 27.7159 20.6699H23.0445V16.6876H18.0569V20.6401H11.0796V11.7H18.0331V15.6525H23.0207V11.7H30.0039V15.6554H34.9915V11.7H41.9658V20.652H38.252C38.1625 20.9831 38.0789 21.2814 38.0014 21.5767C37.9119 21.9138 38.1177 22.3493 38.425 22.4597C39.0753 22.6954 39.4332 23.1756 39.481 23.8468C39.5257 24.4643 39.4959 25.0877 38.947 25.5262C38.7829 25.6575 38.604 25.7768 38.413 25.8693C38.0521 26.0453 37.8821 26.4212 38.0461 26.7881C38.3265 27.4175 38.1833 28.2139 37.6613 28.6196C37.36 28.8553 37.0737 29.1536 36.7276 29.2699C36.4264 29.3714 36.0326 29.3206 35.7104 29.2282C35.2212 29.085 34.8961 29.1983 34.6664 29.6577C34.371 30.2543 33.9027 30.6242 33.2047 30.6272C32.978 30.6272 32.7543 30.6272 32.5156 30.6272ZM31.5044 37.6015V37.2972C31.5044 33.6401 31.5044 29.9829 31.5044 26.3287C31.5044 25.2846 30.863 24.6463 29.819 24.6463C25.0491 24.6463 20.2822 24.6463 15.5124 24.6463C15.3155 24.6463 15.1157 24.6313 14.9218 24.6522C14.1611 24.7328 13.5645 25.2429 13.5615 26.0483C13.5466 29.8516 13.5526 33.652 13.5526 37.4553C13.5526 37.5031 13.5615 37.5508 13.5675 37.6045H31.5044V37.6015ZM19.0413 38.6068H18.6953C16.7414 38.6068 14.7875 38.6068 12.8366 38.6068C12.1416 38.6068 11.9537 38.8245 12.0581 39.5136C12.07 39.5912 12.0968 39.6687 12.1177 39.7463C12.3802 40.7396 13.3408 41.5928 14.3102 41.5928C19.4321 41.6047 24.5539 41.6017 29.6758 41.5958C30.1053 41.5958 30.5379 41.5749 30.9674 41.5331C31.5521 41.4735 31.9996 41.1483 32.3754 40.7188C32.7244 40.319 32.9243 39.8626 32.9511 39.3138C32.975 38.8335 32.8288 38.6098 32.3456 38.6068C30.3082 38.6068 28.2738 38.6068 26.2364 38.6068C26.1677 38.6068 26.0991 38.6157 26.0186 38.6217C26.0186 38.7858 26.0246 38.9289 26.0186 39.0721C25.9738 40.0267 25.2132 40.6144 24.4615 40.6024C23.1012 40.5845 21.738 40.6024 20.3777 40.5875C19.9541 40.5815 19.617 40.3668 19.3456 40.0357C19.0055 39.618 19.0234 39.1288 19.0413 38.6038V38.6068ZM32.5037 27.7367C32.5037 27.7158 32.5096 27.6949 32.5037 27.7367C32.5037 28.1632 32.4977 28.5868 32.5037 29.0134C32.5156 29.7114 32.3665 29.6189 33.1331 29.6339C33.4284 29.6398 33.6551 29.5384 33.7476 29.2461C34.0041 28.4347 35.1258 27.8918 35.967 28.2647C36.3249 28.4228 36.6113 28.3005 36.8708 28.0379C37.2139 27.6889 37.2467 27.504 37.0975 27.149C36.7455 26.3048 37.2168 25.3085 37.9268 24.9654C38.4667 24.7059 38.6785 24.2465 38.416 23.7126C38.3534 23.5843 38.2132 23.456 38.0819 23.4053C37.2497 23.0861 36.7366 22.0003 37.0945 21.1352C37.2467 20.7653 37.2049 20.5983 36.8857 20.2731C36.5129 19.8913 36.307 19.8943 35.9938 20.0375C35.1317 20.4283 34.0399 19.8734 33.7536 19.077C33.6462 18.7757 33.4403 18.6742 33.157 18.6623C32.7901 18.6474 32.3933 18.5967 32.2143 19.0382C31.8922 19.8376 31.2538 20.124 30.4484 20.1508C30.341 20.1538 30.2217 20.1359 30.1292 20.0882C29.6758 19.8585 29.3387 19.9748 29.0076 20.3537C28.7839 20.6102 28.7063 20.828 28.8405 21.1442C29.1627 21.9049 28.8763 22.7759 28.1783 23.2114C27.9784 23.3367 27.7756 23.462 27.5757 23.5873C28.1723 23.644 28.7331 23.641 29.294 23.6469C29.461 23.6469 29.5386 23.6141 29.5773 23.4173C29.7832 22.4299 30.3141 21.6543 31.1941 21.1502C31.8385 20.7803 32.5126 20.6132 33.2793 20.6997C33.8908 20.7683 34.4576 20.9294 34.9348 21.2725C36.1996 22.1823 36.6948 23.4411 36.3518 24.9595C36.0833 26.1378 35.3525 26.9879 34.1951 27.3847C33.6671 27.5666 33.0943 27.6144 32.4977 27.7337L32.5037 27.7367ZM12.073 12.6814V19.6378H17.0248V12.6814H12.073ZM24.0349 19.6557C25.2341 19.6557 26.4124 19.6467 27.5936 19.6616C28.0142 19.6676 28.4199 19.6885 28.6854 19.2738C28.7093 19.238 28.7689 19.2231 28.8137 19.1993C28.9569 19.1098 29.0225 19.0054 29.0225 18.8115C29.0106 16.8606 29.0165 14.9097 29.0135 12.9588C29.0135 12.8693 29.0046 12.7798 29.0016 12.6903H24.0379V19.6557H24.0349ZM36.0117 12.6843V18.9815C36.6501 18.898 37.1691 19.0919 37.5718 19.5811C37.6046 19.6228 37.6762 19.6527 37.7299 19.6527C38.8068 19.6557 39.8837 19.6557 40.9605 19.6557V12.6843H36.0117ZM32.5305 26.6121C34.1503 26.8239 35.4688 25.738 35.4718 24.1511C35.4718 22.7133 34.5023 21.6931 32.9064 21.6632C31.5998 21.6364 30.5826 22.8027 30.5886 23.7156C30.8958 23.8528 31.1941 23.987 31.4954 24.1212C31.5551 23.1488 32.2531 22.6178 32.9989 22.6625C33.9385 22.7192 34.4307 23.28 34.4874 24.1421C34.5112 24.521 34.3532 24.8909 34.0608 25.1772C33.5895 25.6366 33.0317 25.738 32.4291 25.568C32.4649 25.9349 32.5007 26.272 32.5335 26.6121H32.5305ZM30.0218 19.0083C30.1083 19.0292 30.1889 19.0412 30.2634 19.071C30.7705 19.2619 31.1196 19.1008 31.3314 18.6056C31.4059 18.4326 31.5163 18.2656 31.6446 18.1254C32.0353 17.6869 32.5574 17.6541 33.1003 17.66C33.8729 17.669 34.4516 18.0568 34.7022 18.7399C34.7409 18.8473 34.8573 18.9308 34.9826 19.077V16.6786H30.0218V19.0113V19.0083ZM25.0223 38.6187H20.0347C20.0347 38.7888 20.0287 38.9439 20.0347 39.096C20.0466 39.4182 20.2136 39.5942 20.5298 39.5942C21.8364 39.6001 23.1459 39.6001 24.4525 39.5942C24.7717 39.5942 25.0044 39.3525 25.0163 39.0334C25.0223 38.8991 25.0163 38.7649 25.0163 38.6157L25.0223 38.6187ZM32.9571 24.6373C33.2047 24.6403 33.4911 24.3837 33.497 24.1541C33.506 23.9244 33.2315 23.6529 32.981 23.644C32.7155 23.635 32.5096 23.8438 32.5037 24.1302C32.4977 24.4166 32.6916 24.6343 32.9571 24.6373Z" fill="white"/>
<path d="M32.5037 27.7367C32.5037 27.7158 32.5096 27.6949 32.5037 27.7367ZM32.5037 27.7367C32.5037 28.1632 32.4977 28.5868 32.5037 29.0134C32.5156 29.7114 32.3665 29.6189 33.1331 29.6339C33.4284 29.6398 33.6551 29.5384 33.7476 29.2461C34.0041 28.4347 35.1258 27.8918 35.967 28.2647C36.3249 28.4228 36.6113 28.3005 36.8708 28.0379C37.2139 27.6889 37.2467 27.504 37.0975 27.149C36.7455 26.3048 37.2168 25.3085 37.9268 24.9654C38.4667 24.7059 38.6785 24.2465 38.416 23.7126C38.3534 23.5843 38.2132 23.456 38.0819 23.4053C37.2497 23.0861 36.7366 22.0003 37.0945 21.1352C37.2467 20.7653 37.2049 20.5983 36.8857 20.2731C36.5129 19.8913 36.307 19.8943 35.9938 20.0375C35.1317 20.4283 34.0399 19.8734 33.7536 19.077C33.6462 18.7757 33.4403 18.6742 33.157 18.6623C32.79 18.6474 32.3933 18.5967 32.2143 19.0382C31.8922 19.8376 31.2538 20.124 30.4484 20.1508C30.341 20.1538 30.2217 20.1359 30.1292 20.0882C29.6758 19.8585 29.3387 19.9748 29.0076 20.3537C28.7839 20.6102 28.7063 20.828 28.8405 21.1442C29.1627 21.9049 28.8763 22.7759 28.1783 23.2114C27.9784 23.3367 27.7756 23.462 27.5757 23.5873C28.1723 23.644 28.7331 23.641 29.294 23.6469C29.461 23.6469 29.5386 23.6141 29.5773 23.4173C29.7832 22.4299 30.3141 21.6543 31.1941 21.1502C31.8385 20.7803 32.5126 20.6132 33.2793 20.6997C33.8908 20.7683 34.4576 20.9294 34.9348 21.2725C36.1996 22.1823 36.6948 23.4411 36.3518 24.9595C36.0833 26.1378 35.3525 26.9879 34.1951 27.3847C33.6671 27.5666 33.0943 27.6144 32.4977 27.7337L32.5037 27.7367ZM32.5156 30.6272V37.5717C32.7572 37.6582 33.0317 37.7059 33.2524 37.8431C33.8043 38.1862 34.0101 38.6814 33.9504 39.3555C33.8669 40.3101 33.4851 41.0857 32.7841 41.7151C32.1726 42.264 31.4507 42.5891 30.6214 42.5921C25.1565 42.5981 19.6916 42.61 14.2267 42.5832C13.2483 42.5802 12.4399 42.0701 11.8284 41.3183C11.3213 40.6949 11.0528 39.97 11.0498 39.1407C11.0498 38.2995 11.6583 37.6492 12.5532 37.6045C12.5532 37.5061 12.5532 37.4076 12.5532 37.3092C12.5532 33.5386 12.5562 29.7681 12.5532 25.9976C12.5532 24.9565 13.5287 23.7901 14.6026 23.7126C14.9695 23.6857 15.3394 23.6529 15.7093 23.6529C19.1994 23.6469 22.6925 23.6469 26.1827 23.6529C26.4153 23.6529 26.5406 23.6141 26.6152 23.3606C26.7435 22.9459 27.0179 22.6417 27.4475 22.4985C27.8711 22.3553 28.1306 21.8452 27.8979 21.3649C27.7995 21.1621 27.7786 20.9234 27.7159 20.6699H23.0445V16.6876H18.0569V20.6401H11.0796V11.7H18.0331V15.6525H23.0207V11.7H30.0039V15.6554H34.9915V11.7H41.9658V20.652H38.252C38.1625 20.9831 38.0789 21.2814 38.0014 21.5767C37.9119 21.9138 38.1177 22.3493 38.425 22.4597C39.0753 22.6954 39.4332 23.1756 39.481 23.8468C39.5257 24.4643 39.4959 25.0877 38.947 25.5262C38.7829 25.6575 38.604 25.7768 38.413 25.8693C38.0521 26.0453 37.8821 26.4212 38.0461 26.7881C38.3265 27.4175 38.1833 28.2139 37.6613 28.6196C37.36 28.8553 37.0737 29.1536 36.7276 29.2699C36.4264 29.3714 36.0326 29.3206 35.7104 29.2282C35.2212 29.085 34.8961 29.1983 34.6664 29.6577C34.371 30.2543 33.9027 30.6242 33.2047 30.6272C32.978 30.6272 32.7543 30.6272 32.5156 30.6272ZM31.5044 37.6015V37.2972C31.5044 33.6401 31.5044 29.9829 31.5044 26.3287C31.5044 25.2846 30.863 24.6463 29.819 24.6463C25.0491 24.6463 20.2822 24.6463 15.5124 24.6463C15.3155 24.6463 15.1157 24.6313 14.9218 24.6522C14.1611 24.7328 13.5645 25.2429 13.5615 26.0483C13.5466 29.8516 13.5526 33.652 13.5526 37.4553C13.5526 37.5031 13.5615 37.5508 13.5675 37.6045H31.5044V37.6015ZM19.0413 38.6068H18.6953C16.7414 38.6068 14.7875 38.6068 12.8366 38.6068C12.1416 38.6068 11.9537 38.8245 12.0581 39.5136C12.07 39.5912 12.0968 39.6687 12.1177 39.7463C12.3802 40.7396 13.3408 41.5928 14.3102 41.5928C19.4321 41.6047 24.5539 41.6017 29.6758 41.5958C30.1053 41.5958 30.5379 41.5749 30.9674 41.5331C31.5521 41.4735 31.9996 41.1483 32.3754 40.7188C32.7244 40.319 32.9243 39.8626 32.9511 39.3138C32.975 38.8335 32.8288 38.6098 32.3456 38.6068C30.3082 38.6068 28.2738 38.6068 26.2364 38.6068C26.1677 38.6068 26.0991 38.6157 26.0186 38.6217C26.0186 38.7858 26.0246 38.929 26.0186 39.0721C25.9738 40.0267 25.2132 40.6144 24.4615 40.6024C23.1012 40.5845 21.738 40.6024 20.3777 40.5875C19.9541 40.5815 19.617 40.3668 19.3456 40.0357C19.0055 39.618 19.0234 39.1288 19.0413 38.6038V38.6068ZM12.073 12.6814V19.6378H17.0248V12.6814H12.073ZM24.0349 19.6557C25.2341 19.6557 26.4124 19.6467 27.5936 19.6616C28.0142 19.6676 28.4199 19.6885 28.6854 19.2738C28.7093 19.238 28.7689 19.2231 28.8137 19.1993C28.9569 19.1098 29.0225 19.0054 29.0225 18.8115C29.0106 16.8606 29.0165 14.9097 29.0135 12.9588C29.0135 12.8693 29.0046 12.7798 29.0016 12.6903H24.0379V19.6557H24.0349ZM36.0117 12.6843V18.9815C36.6501 18.898 37.1691 19.0919 37.5718 19.5811C37.6046 19.6229 37.6762 19.6527 37.7299 19.6527C38.8068 19.6557 39.8837 19.6557 40.9605 19.6557V12.6843H36.0117ZM32.5305 26.6121C34.1503 26.8239 35.4688 25.738 35.4718 24.1511C35.4718 22.7133 34.5023 21.6931 32.9064 21.6632C31.5998 21.6364 30.5826 22.8027 30.5886 23.7156C30.8958 23.8528 31.1941 23.987 31.4954 24.1212C31.5551 23.1488 32.2531 22.6178 32.9989 22.6625C33.9385 22.7192 34.4307 23.28 34.4874 24.1421C34.5112 24.521 34.3532 24.8909 34.0608 25.1772C33.5895 25.6366 33.0317 25.738 32.4291 25.568C32.4649 25.9349 32.5007 26.272 32.5335 26.6121H32.5305ZM30.0218 19.0083C30.1083 19.0292 30.1889 19.0412 30.2634 19.071C30.7705 19.2619 31.1196 19.1008 31.3314 18.6056C31.4059 18.4326 31.5163 18.2656 31.6446 18.1254C32.0353 17.6869 32.5574 17.6541 33.1003 17.66C33.8729 17.669 34.4516 18.0568 34.7022 18.7399C34.7409 18.8473 34.8573 18.9308 34.9826 19.077V16.6786H30.0218V19.0113V19.0083ZM25.0223 38.6187H20.0347C20.0347 38.7888 20.0287 38.9439 20.0347 39.096C20.0466 39.4182 20.2136 39.5942 20.5298 39.5942C21.8364 39.6001 23.1459 39.6001 24.4525 39.5942C24.7717 39.5942 25.0044 39.3525 25.0163 39.0334C25.0223 38.8991 25.0163 38.7649 25.0163 38.6157L25.0223 38.6187ZM32.9571 24.6373C33.2047 24.6403 33.4911 24.3837 33.497 24.1541C33.506 23.9244 33.2315 23.6529 32.981 23.644C32.7155 23.635 32.5096 23.8438 32.5037 24.1302C32.4977 24.4166 32.6916 24.6343 32.9571 24.6373Z" stroke="white" stroke-width="0.2" stroke-miterlimit="10"/>
<path d="M22.4956 36.6102C20.1688 36.6102 17.8421 36.6102 15.5183 36.6102C14.9784 36.6102 14.5488 36.1836 14.5488 35.6437C14.5488 32.6338 14.5488 29.621 14.5488 26.6111C14.5488 26.0831 14.9843 25.6446 15.5183 25.6446C20.1509 25.6446 24.7806 25.6357 29.4132 25.6506C30.1142 25.6506 30.4961 26.0324 30.499 26.7215C30.5199 29.6598 30.511 32.598 30.505 35.5363C30.505 36.1747 29.9949 36.6251 29.3804 36.6221C27.0865 36.6013 24.7895 36.6132 22.4956 36.6132V36.6102ZM29.4908 35.6079V26.6559H15.5631V35.6079H29.4908Z" fill="white" stroke="white" stroke-width="0.2" stroke-miterlimit="10"/>
<path d="M13.0605 16.6498V15.6863H16.0287V16.6498H13.0605Z" fill="white" stroke="white" stroke-width="0.2" stroke-miterlimit="10"/>
<path d="M13.0576 18.64V17.6794H16.0257V18.64H13.0576Z" fill="white" stroke="white" stroke-width="0.2" stroke-miterlimit="10"/>
<path d="M16.0316 13.688V14.6605H13.0635V13.688H16.0316Z" fill="white" stroke="white" stroke-width="0.2" stroke-miterlimit="10"/>
<path d="M27.9963 16.6536H25.0342V15.6812H27.9963V16.6536Z" fill="white" stroke="white" stroke-width="0.2" stroke-miterlimit="10"/>
<path d="M27.9907 14.6571H25.0405V13.6906H27.9907V14.6571Z" fill="white" stroke="white" stroke-width="0.2" stroke-miterlimit="10"/>
<path d="M28.0052 17.677V18.6435H25.0371V17.677H28.0052Z" fill="white" stroke="white" stroke-width="0.2" stroke-miterlimit="10"/>
<path d="M36.999 16.6464V15.6888H39.9612V16.6464H36.999Z" fill="white" stroke="white" stroke-width="0.2" stroke-miterlimit="10"/>
<path d="M39.9614 14.6571H37.0112V13.6906H39.9614V14.6571Z" fill="white" stroke="white" stroke-width="0.2" stroke-miterlimit="10"/>
<path d="M39.9764 17.6794V18.64H37.0083V17.6794H39.9764Z" fill="white" stroke="white" stroke-width="0.2" stroke-miterlimit="10"/>
<path d="M22.4032 34.6142C21.2398 34.6142 20.0764 34.6052 18.9131 34.6142C17.8601 34.6261 16.8518 33.7551 16.6132 32.7796C16.2731 31.3806 16.986 30.1844 18.3045 29.7131C18.5551 29.6236 18.8534 29.6683 19.1219 29.6176C19.2412 29.5967 19.3933 29.5222 19.447 29.4267C19.9661 28.5109 20.7357 27.8905 21.7619 27.7145C23.1161 27.4818 24.6166 27.8159 25.5234 29.3969C25.61 29.549 25.7173 29.6355 25.9291 29.6355C27.1134 29.6355 28.0709 30.3037 28.4229 31.5029C28.7809 32.7259 27.9039 34.2503 26.654 34.5396C26.4362 34.5903 26.2095 34.6082 25.9858 34.6082C24.7896 34.6142 23.5964 34.6112 22.4002 34.6112L22.4032 34.6142ZM19.972 30.8884C19.7752 30.8228 19.623 30.7691 19.4739 30.7213C18.7759 30.4887 18.0898 30.7661 17.7586 31.3209C17.4693 31.8042 17.4424 32.3143 17.7109 32.8244C17.9794 33.3345 18.403 33.6119 18.9787 33.6149C21.3353 33.6208 23.6949 33.6238 26.0514 33.6089C26.2722 33.6089 26.5078 33.5254 26.7077 33.424C27.2536 33.1436 27.5429 32.6484 27.5012 32.0607C27.4505 31.3776 27.1432 30.951 26.4392 30.7005C25.953 30.5275 25.5115 30.7124 25.0432 30.8824C24.7568 29.555 23.9812 28.7048 22.609 28.6481C21.1205 28.5885 20.3211 29.4923 19.975 30.8854L19.972 30.8884Z" fill="white" stroke="white" stroke-width="0.2" stroke-miterlimit="10"/>
</svg>
