<svg width="54" height="54" viewBox="0 0 54 54" fill="none" xmlns="http://www.w3.org/2000/svg">
<path d="M27 53C41.3594 53 53 41.3594 53 27C53 12.6406 41.3594 1 27 1C12.6406 1 1 12.6406 1 27C1 41.3594 12.6406 53 27 53Z" fill="#0033A1" stroke="#0033A1" stroke-miterlimit="10"/>
<path d="M35.0025 40.8854C33.1526 40.8711 31.4207 40.363 29.7568 39.5936C27.227 38.4235 25.0192 36.774 22.9474 34.9383C20.8362 33.0669 18.8753 31.0452 17.1327 28.823C15.501 26.7405 14.0911 24.5291 13.2753 21.9885C12.6956 20.1779 12.4845 18.3387 12.9676 16.4637C13.1823 15.6264 13.6367 14.9537 14.3595 14.4885C15.1932 13.9553 16.0413 13.4436 16.9001 12.9534C17.7267 12.4811 18.6141 12.6779 19.1508 13.4687C20.4247 15.3509 21.6878 17.2438 22.9366 19.1438C23.4555 19.9346 23.2766 20.8256 22.5287 21.4196C21.881 21.9349 21.2262 22.4358 20.575 22.9404C20.1348 23.2839 20.0776 23.588 20.3352 24.089C21.1153 25.6026 22.1422 26.9373 23.3052 28.1682C24.7007 29.6425 26.1356 31.0702 27.8066 32.2439C28.372 32.6411 28.9732 32.9703 29.5779 33.2959C29.9894 33.5177 30.315 33.439 30.6156 33.0561C31.1201 32.4156 31.6175 31.768 32.122 31.1239C32.784 30.2794 33.675 30.1327 34.5696 30.7267C36.3873 31.9361 38.2015 33.1456 40.0157 34.3586C40.9353 34.9741 41.1357 35.8651 40.5703 36.8097C40.1767 37.4717 39.7509 38.1158 39.3859 38.7921C38.7418 39.9801 37.7363 40.5956 36.4267 40.7745C35.9544 40.8389 35.482 40.8961 35.0025 40.889V40.8854ZM35.1385 39.9479C35.5429 39.9372 35.9436 39.8906 36.3444 39.8334C37.307 39.6938 38.0584 39.2465 38.5415 38.3699C38.9208 37.6793 39.3501 37.0173 39.7545 36.341C40.0586 35.8293 39.9835 35.475 39.4969 35.1494C37.6898 33.9436 35.8828 32.7377 34.0722 31.5318C33.5569 31.1883 33.2206 31.2384 32.8413 31.725C32.3367 32.3691 31.8429 33.0168 31.3348 33.6573C30.7587 34.3873 29.95 34.5626 29.1306 34.1296C28.6869 33.8935 28.2468 33.6466 27.8174 33.3818C26.3181 32.4514 25.0299 31.2634 23.7847 30.0289C22.1244 28.3829 20.5785 26.651 19.4979 24.547C19.0291 23.6346 19.1759 22.8438 19.9845 22.214C20.6143 21.7238 21.2441 21.2371 21.8739 20.7433C22.3355 20.3819 22.3963 20.0348 22.0778 19.5553C20.8612 17.7232 19.641 15.8912 18.4173 14.0591C18.131 13.6297 17.7481 13.5438 17.3044 13.805C16.5566 14.2487 15.8087 14.6996 15.0644 15.1469C14.474 15.5011 14.0661 16.0021 13.88 16.6712C13.7798 17.0326 13.719 17.4048 13.6796 17.7805C13.5437 19.0615 13.7369 20.3032 14.1054 21.527C14.7102 23.5236 15.7264 25.3128 16.9323 26.9945C19.0828 29.9931 21.6413 32.616 24.4538 34.9956C26.3932 36.638 28.4686 38.0765 30.8339 39.0497C32.2115 39.6151 33.6356 39.9658 35.1349 39.955L35.1385 39.9479Z" fill="white" stroke="white" stroke-miterlimit="10"/>
<path d="M29.0914 16.4889C32.9702 16.6535 36.4268 19.4088 37.3536 23.3556C37.5039 23.9997 37.5826 24.6545 37.5862 25.3165C37.5862 25.6278 37.418 25.8354 37.1496 25.8532C36.8741 25.8711 36.6594 25.66 36.6487 25.3165C36.6308 24.5901 36.5377 23.8745 36.3266 23.1731C35.6718 20.9904 34.3299 19.3658 32.319 18.2995C31.2848 17.752 30.1756 17.4586 29.0019 17.4228C28.8659 17.4193 28.7264 17.405 28.5904 17.3835C28.3507 17.3441 28.2218 17.1903 28.2075 16.9505C28.1932 16.7108 28.3363 16.5319 28.5832 16.4853C28.6727 16.4674 28.7657 16.471 28.8552 16.4746C28.9482 16.4746 29.0377 16.4889 29.0842 16.4889H29.0914Z" fill="white" stroke="white" stroke-miterlimit="10"/>
<path d="M28.9768 19.2936C32.1328 19.4439 34.6627 22.0202 34.77 25.2013C34.7843 25.6128 34.6197 25.849 34.3156 25.8561C34.0257 25.8633 33.8575 25.645 33.8325 25.2443C33.7001 23.1295 32.6839 21.6016 30.7731 20.6784C30.2077 20.4064 29.603 20.2669 28.9696 20.2383C28.8408 20.2311 28.712 20.2239 28.5868 20.1989C28.3291 20.1452 28.1931 19.9591 28.211 19.7087C28.2289 19.4797 28.3935 19.3151 28.644 19.2936C28.7514 19.2829 28.8623 19.2936 28.9732 19.2936H28.9768Z" fill="white" stroke="white" stroke-miterlimit="10"/>
<path d="M28.8443 22.1104C30.5082 22.164 31.9395 23.624 31.9574 25.2879C31.961 25.6135 31.7928 25.8318 31.5208 25.8532C31.2596 25.8747 31.0485 25.6815 31.0235 25.3523C30.9483 24.4219 30.5368 23.717 29.6959 23.2876C29.3989 23.1337 29.0805 23.0729 28.7441 23.0479C28.3469 23.0192 28.1394 22.7652 28.2252 22.4396C28.2897 22.2034 28.4793 22.0996 28.8443 22.1139V22.1104Z" fill="white" stroke="white" stroke-miterlimit="10"/>
</svg>
