<svg width="80" height="80" viewBox="0 0 80 80" fill="none" xmlns="http://www.w3.org/2000/svg">
<path d="M43.3472 40.2131C43.1166 40.3125 42.8399 40.3472 42.7835 40.4698C42.5263 41.0469 42.3005 41.6398 42.1072 42.2454C42.075 42.3435 42.2227 42.4935 42.287 42.6196C42.4132 42.5367 42.6054 42.4788 42.6545 42.3661C42.9036 41.7943 43.1149 41.2079 43.4864 40.6325C43.957 42.0589 44.4271 43.4852 44.9293 45.0085L33.7773 45.7472C33.921 46.6159 34.5359 47.0883 35.5443 47.0883C38.1398 47.0968 40.7353 47.0913 43.3303 47.0913C43.7868 47.0913 44.2507 47.1389 44.6987 47.0809C45.5171 46.9755 45.8316 47.3418 45.8722 48.0757C45.7876 48.0961 45.7017 48.1096 45.6152 48.116C42.2509 48.116 38.8866 48.1306 35.5223 48.1111C33.7035 48.1007 32.4742 47.07 32.1755 45.4291C31.5889 42.2159 30.9881 39.0032 30.373 35.7908C30.0241 33.9518 29.6825 32.1104 29.275 30.2823C29.1215 29.638 28.876 29.0235 28.5474 28.461C27.9032 27.3315 27.1259 26.992 25.811 27.2419C25.5449 27.2925 25.3257 27.6155 25.1115 27.8356C24.806 28.1563 24.4109 28.3585 23.988 28.4106C23.565 28.4628 23.1379 28.362 22.7736 28.1239C22.0087 27.6143 21.7686 26.575 22.2454 25.8332C22.7223 25.0914 23.7109 24.7836 24.4949 25.1627C24.7818 25.3023 25.067 25.523 25.2383 25.7753C25.4773 26.127 25.7529 26.2203 26.1801 26.2191C28.3913 26.2105 29.4571 26.9353 30.2546 28.9364C30.7489 30.1775 30.7489 30.1775 32.1495 30.1775C39.6458 30.1775 47.1421 30.1647 54.6417 30.1988C55.3711 30.2022 56.0919 30.3682 56.7593 30.6865C57.7361 31.1741 58.0951 32.1043 57.979 33.1106C57.6588 35.8865 57.293 38.6576 56.9115 41.428C56.8748 41.6956 56.6544 42.0461 56.4172 42.1478C56.2531 42.2179 55.9099 41.9315 55.6523 41.7919C55.4043 41.6572 55.1766 41.4871 54.9224 41.3652C51.7988 39.8761 48.6661 38.3997 45.5481 36.9045C44.8019 36.5467 44.0827 36.4364 43.3984 36.9654C42.7142 37.4945 42.6714 38.1949 42.938 38.9428C43.0896 39.3689 43.2158 39.8029 43.3472 40.2131ZM45.8271 36.1291C45.9962 35.9956 46.1089 35.9536 46.136 35.8853C46.3891 35.255 46.6382 34.6223 46.8591 33.9811C46.8851 33.9055 46.712 33.6818 46.6669 33.6903C46.5266 33.7171 46.3327 33.7952 46.2859 33.9024C46.0376 34.4603 45.8175 35.0323 45.6265 35.6159C45.587 35.7372 45.7409 35.9176 45.8277 36.1273L45.8271 36.1291ZM44.0235 35.4586C43.6966 34.8204 43.3866 34.1938 43.0462 33.5812C43.0107 33.5203 42.7604 33.488 42.6753 33.5392C42.5902 33.5904 42.5299 33.7891 42.571 33.8768C42.8502 34.4693 43.1495 35.0531 43.4689 35.6281C43.5106 35.7025 43.7101 35.7439 43.8212 35.7244C43.8967 35.7092 43.9463 35.5635 44.0224 35.4568L44.0235 35.4586ZM49.8357 36.5973C49.8272 36.5211 49.8182 36.4449 49.8092 36.3687C49.6446 36.3218 49.4439 36.1938 49.3205 36.2413C48.7274 36.4685 48.1459 36.7296 47.5783 37.0234C47.4797 37.0752 47.5067 37.3397 47.4757 37.5061C47.6978 37.4604 47.9345 37.4452 48.138 37.3629C48.7101 37.1215 49.2698 36.8539 49.8345 36.5954L49.8357 36.5973ZM42.1168 39.0099L41.9837 38.7435C41.809 38.7203 41.605 38.632 41.4641 38.6868C40.8937 38.9087 40.3368 39.1623 39.7895 39.4341C39.6768 39.489 39.6447 39.6779 39.5748 39.7999C39.7349 39.8358 39.9254 39.9425 40.0505 39.8956C40.6023 39.6895 41.1355 39.4396 41.6749 39.2043C41.822 39.144 41.9691 39.0763 42.1168 39.0099ZM42.3219 36.8813C42.1912 36.7186 42.1528 36.6131 42.079 36.5869C41.4077 36.3461 40.7342 36.1115 40.0499 35.9018C39.98 35.8804 39.7754 36.0292 39.763 36.1157C39.7506 36.2023 39.8673 36.3742 39.9688 36.412C40.569 36.6381 41.1761 36.8515 41.7932 37.0319C41.9234 37.0691 42.1021 36.949 42.3219 36.8813Z" fill="#0033A1"/>
<path d="M49.7721 46.2289C49.3336 47.0146 48.983 47.7028 48.5676 48.355C48.4143 48.5988 48.1077 48.7506 47.871 48.9451C47.6697 48.725 47.3699 48.5348 47.2837 48.2807C46.194 45.0634 45.127 41.8399 44.0828 38.6101C44.0045 38.3663 44.0197 37.9171 44.1673 37.833C44.3843 37.711 44.8065 37.7366 45.0596 37.8543C48.1967 39.3172 51.323 40.8015 54.4384 42.3071C54.6948 42.429 54.9704 42.7337 55.002 42.9776C55.0217 43.1348 54.6396 43.4042 54.382 43.5134C53.74 43.7962 53.0682 44.0193 52.3202 44.2997L55.0674 47.5132C55.6986 48.2508 55.6823 48.3721 54.874 48.9676C54.4773 49.2594 54.0803 49.5516 53.6831 49.8442C53.2356 50.1751 52.8619 50.1172 52.522 49.6851C51.6411 48.5641 50.7455 47.4498 49.7721 46.2289Z" fill="#0033A1"/>
<path d="M38.3763 52.7198C38.3858 54.0047 37.3369 54.9995 35.9735 54.9995C34.6281 54.9995 33.5894 53.9974 33.5894 52.6985C33.5894 51.4617 34.6394 50.462 35.9566 50.4431C37.2935 50.4291 38.3684 51.4391 38.3763 52.7198Z" fill="#0033A1"/>
<path d="M52.3401 52.7578C52.3243 54.0311 51.2415 55.0204 49.8877 54.9997C48.5699 54.9796 47.5464 53.9866 47.5464 52.7279C47.5464 51.4478 48.6133 50.4366 49.9565 50.4457C51.2906 50.4549 52.3541 51.4887 52.3401 52.7578Z" fill="#0033A1"/>
</svg>
