<svg width="52" height="52" viewBox="0 0 52 52" fill="none" xmlns="http://www.w3.org/2000/svg">
<path d="M26 52C40.3594 52 52 40.3594 52 26C52 11.6406 40.3594 0 26 0C11.6406 0 0 11.6406 0 26C0 40.3594 11.6406 52 26 52Z" fill="#0033A1"/>
<path d="M23.6944 25.5025C23.2771 25.273 22.8529 25.0783 22.4703 24.8279C21.4758 24.1741 20.7942 23.2734 20.4673 22.1537C20.3177 21.6425 20.2795 21.1 20.2238 20.5679C20.1891 20.2375 20.2099 19.9002 20.2238 19.5698C20.2308 19.4029 20.1647 19.3577 20.0082 19.3647C19.7231 19.3751 19.4379 19.3716 19.1528 19.3681C18.5164 19.3612 18.1095 18.9647 18.1025 18.3457C18.1025 18.1197 18.0956 17.8971 18.1025 17.6711C18.1164 17.2607 18.3216 16.9686 18.6972 16.7843C18.7563 16.753 18.8224 16.6626 18.8224 16.5965C18.8711 13.8354 20.1404 11.8149 22.6686 10.563C22.7903 10.5039 22.8424 10.4378 22.839 10.2987C22.8285 9.99267 22.8563 9.68665 22.832 9.38063C22.7694 8.57384 23.4232 8.07655 24.0387 8.04177C25.002 7.98265 25.9722 7.98961 26.9355 8.04177C27.6693 8.08002 28.1353 8.65382 28.1387 9.36324C28.1387 9.65535 28.1492 9.94747 28.1353 10.2396C28.1283 10.3961 28.17 10.4795 28.3265 10.5491C28.9038 10.796 29.4289 11.1264 29.9018 11.5367C31.046 12.5278 31.7936 13.7484 32.0753 15.2194C32.1588 15.6645 32.1657 16.1236 32.197 16.5757C32.204 16.68 32.2144 16.7426 32.3292 16.7948C32.7152 16.9617 32.9134 17.2677 32.9308 17.6746C32.9412 17.918 32.9412 18.1649 32.9308 18.4083C32.903 18.9821 32.5135 19.3507 31.9223 19.3647C31.5815 19.3751 31.2407 19.3716 30.8999 19.3647C30.7712 19.3647 30.7295 19.4064 30.733 19.5281C30.7399 19.8967 30.733 20.2619 30.733 20.6305C30.733 22.7483 29.408 24.6366 27.3806 25.4052C27.3563 25.4156 27.3319 25.4295 27.3006 25.4469C27.4537 25.6834 27.5962 25.9129 27.7562 26.132C27.791 26.1806 27.8814 26.2119 27.9509 26.2189C30.3887 26.5145 32.4057 27.5925 33.9914 29.4078C35.1634 30.7501 35.7476 32.315 35.6989 34.099C35.6746 34.9614 35.6989 35.8274 35.6989 36.6898C35.6989 37.128 35.6885 37.5696 35.692 38.0078C35.692 38.0808 35.7337 38.1608 35.7789 38.2269C36.1232 38.752 36.4814 39.2701 36.8187 39.8022C37.236 40.4629 37.0691 41.3045 36.4153 41.7322C36.2066 41.8713 35.9319 41.9826 35.685 41.9861C34.1445 42.0035 32.6074 41.9861 31.0668 41.9861C30.6356 41.9861 30.2044 42 29.7767 42C25.0333 42 20.2864 42 15.5431 42C14.8406 42 14.319 41.6662 14.0929 41.0437C13.9295 40.5951 13.9816 40.1604 14.2494 39.7535C14.5485 39.2945 14.8615 38.8459 15.1536 38.3834C15.2197 38.2825 15.2579 38.1469 15.2614 38.0286C15.2683 36.5403 15.237 35.0484 15.2753 33.56C15.3135 31.9638 15.9465 30.5728 16.9932 29.3661C18.3425 27.8151 20.0569 26.8275 22.0808 26.358C22.4112 26.2815 22.7555 26.2606 23.0893 26.1946C23.1832 26.1772 23.2876 26.1041 23.3467 26.0276C23.4858 25.8503 23.5971 25.659 23.7083 25.4921L23.6944 25.5025ZM33.6089 41.1863V41.1793C34.2349 41.1793 34.8643 41.1793 35.4903 41.1793C35.765 41.1793 35.9806 41.0889 36.1093 40.8455C36.2345 40.609 36.1927 40.3899 36.0467 40.1743C35.306 39.058 34.5687 37.9417 33.828 36.8254C33.0977 35.723 32.3709 34.6206 31.6406 33.5217C30.5104 31.8177 29.3767 30.1172 28.2431 28.4132C27.5128 27.3143 26.7894 26.2085 26.0557 25.113C25.7775 24.6957 25.2419 24.6957 24.9637 25.113C23.6875 27.0326 22.4147 28.9557 21.1419 30.8753C20.0465 32.5272 18.9476 34.1825 17.8522 35.8343C16.8958 37.2775 15.943 38.7207 14.9832 40.1639C14.8267 40.3969 14.785 40.6264 14.9241 40.8698C15.0666 41.1167 15.3031 41.1828 15.5813 41.1828C16.5063 41.1793 17.4348 41.1828 18.3599 41.1828C20.2134 41.1828 22.0669 41.1863 23.9205 41.1897C27.1511 41.1897 30.3817 41.1897 33.6124 41.1897L33.6089 41.1863ZM22.839 11.415C22.7798 11.4289 22.759 11.4324 22.7416 11.4393C21.9417 11.8671 21.2671 12.4339 20.742 13.1677C19.9213 14.3153 19.5805 15.588 19.6883 16.9825C19.7196 17.3998 19.6048 17.5181 19.1736 17.5285C19.0171 17.5285 18.9371 17.5911 18.9371 17.7441C18.9371 17.9493 18.9371 18.151 18.9371 18.3562C18.9371 18.4918 19.0206 18.5474 19.1562 18.544C19.4066 18.544 19.657 18.544 19.9074 18.544C23.5936 18.544 27.2763 18.544 30.9625 18.544C31.2616 18.544 31.5606 18.544 31.8597 18.544C32.0058 18.544 32.0823 18.4883 32.0823 18.3388C32.0823 18.1475 32.0823 17.9597 32.0857 17.7685C32.0927 17.5946 32.0162 17.5042 31.8388 17.532C31.4807 17.5842 31.2859 17.3164 31.3242 16.9721C31.3972 16.374 31.345 15.7758 31.2059 15.1916C30.9347 14.0544 30.3644 13.0877 29.4915 12.2879C29.0951 11.9262 28.6569 11.6271 28.1526 11.3802C28.1457 11.4498 28.1353 11.4985 28.1353 11.5437C28.1353 12.4826 28.1353 13.4215 28.1353 14.357C28.1353 14.5239 28.1283 14.7047 28.0657 14.8543C27.8014 15.4733 27.2554 15.6924 26.626 15.7167C25.9096 15.7445 25.1898 15.7306 24.4734 15.7167C24.2404 15.7132 23.997 15.6819 23.7779 15.6089C23.2702 15.4385 22.8111 15.056 22.8355 14.3466C22.8633 13.5641 22.8424 12.7817 22.8424 12.0027C22.8424 11.8149 22.8424 11.6236 22.8424 11.415H22.839ZM29.8636 19.389C29.7836 19.389 29.721 19.389 29.6584 19.389C28.1596 19.389 26.6643 19.389 25.1654 19.389C23.8718 19.389 22.5747 19.389 21.281 19.3855C21.0932 19.3855 21.0411 19.4412 21.0515 19.6185C21.0654 19.9385 21.0515 20.2584 21.0515 20.5748C21.0515 22.404 22.1469 23.9655 23.8857 24.6505C24.1048 24.7375 24.2578 24.7618 24.3656 24.5184C24.3899 24.4593 24.4525 24.4141 24.5047 24.3688C25.2106 23.7707 26.1809 23.882 26.7408 24.6123C26.7755 24.6575 26.8833 24.7027 26.932 24.6853C27.9649 24.3202 28.7543 23.6699 29.3141 22.7414C29.9401 21.6981 29.9018 20.5609 29.8601 19.389H29.8636ZM27.2937 11.8532C27.2937 11.0185 27.2867 10.1805 27.2972 9.34585C27.2972 9.1372 27.2102 9.00853 27.0329 8.92855C26.9216 8.87986 26.7964 8.8277 26.6747 8.8277C25.8818 8.81726 25.0854 8.79292 24.2926 8.83465C23.8892 8.85552 23.6597 9.00157 23.6666 9.49539C23.6875 11.1264 23.677 12.7573 23.6701 14.3883C23.6701 14.5691 23.7466 14.6978 23.9031 14.7639C24.0457 14.8265 24.2056 14.8786 24.3586 14.8821C24.9568 14.896 25.5549 14.8925 26.1565 14.8925C26.3513 14.8925 26.546 14.8995 26.7408 14.8786C27.1198 14.8404 27.2902 14.6491 27.2902 14.2805C27.2902 13.4702 27.2902 12.6634 27.2902 11.8532H27.2937ZM16.1064 36.8637L16.1586 36.8741C18.3112 33.633 20.4603 30.3885 22.6129 27.1474C22.3695 27.1544 22.1539 27.1961 21.9417 27.2517C21.0828 27.4778 20.2795 27.8255 19.5318 28.295C18.3634 29.0288 17.414 29.9642 16.7637 31.1709C16.3568 31.9221 16.1308 32.7254 16.1064 33.5704C16.0786 34.5546 16.1064 35.5422 16.1064 36.5263C16.1064 36.6376 16.1064 36.7524 16.1064 36.8637ZM34.7913 36.7524C34.7913 36.7524 34.8226 36.742 34.8365 36.7385C34.8365 36.6863 34.8365 36.6307 34.8365 36.5785C34.8365 35.6535 34.833 34.7285 34.8365 33.8034C34.8434 32.4194 34.3531 31.2092 33.4942 30.1346C32.4613 28.841 31.1259 27.9507 29.5437 27.4152C29.1855 27.2935 28.8169 27.21 28.4517 27.1092C28.4413 27.1265 28.4343 27.1439 28.4239 27.1613C30.5452 30.3607 32.6665 33.5565 34.7913 36.7559V36.7524Z" fill="white" stroke="white" stroke-width="0.7"/>
<path d="M26.8039 30.3152C26.7378 31.2994 26.6683 32.2801 26.6022 33.2642C26.5396 34.1718 26.4874 35.083 26.4144 35.9906C26.397 36.2236 26.3623 36.467 26.2649 36.6757C26.1119 37.006 25.6772 37.1834 25.3329 37.1069C24.9052 37.013 24.6165 36.7139 24.5852 36.3105C24.46 34.617 24.3279 32.9234 24.2201 31.2264C24.1749 30.5135 24.1749 29.8006 24.1714 29.0877C24.1679 28.3678 24.7487 27.7871 25.4755 27.7975C26.2649 27.8114 26.7761 28.3991 26.7796 29.0877C26.7796 29.4945 26.7796 29.9049 26.7796 30.3118C26.7865 30.3118 26.7935 30.3118 26.8004 30.3118L26.8039 30.3152ZM25.4407 36.2897C25.472 36.2897 25.5033 36.2966 25.5346 36.3001C25.552 36.1784 25.5729 36.0602 25.5798 35.9384C25.632 35.1734 25.6702 34.4048 25.7259 33.6398C25.8371 32.1375 25.9658 30.6352 25.9241 29.1224C25.9171 28.8199 25.7433 28.6217 25.472 28.6252C25.2008 28.6252 25.0095 28.8234 25.0164 29.1259C25.0373 30.0405 25.0477 30.9586 25.1034 31.8732C25.1834 33.2572 25.2981 34.6378 25.399 36.0184C25.4059 36.1088 25.4233 36.1993 25.4372 36.2897H25.4407Z" fill="white" stroke="white" stroke-width="0.2"/>
<path d="M25.4608 39.9129C24.7722 39.9442 24.2088 39.3391 24.2332 38.6714C24.2575 38.0142 24.8278 37.496 25.5164 37.5204C26.1945 37.5412 26.7301 38.0837 26.7127 38.7375C26.6953 39.4191 26.1458 39.9303 25.4608 39.9129ZM25.0817 38.7236C25.0817 38.9288 25.2521 39.0957 25.4642 39.0992C25.6833 39.1026 25.8676 38.9288 25.8676 38.7201C25.8676 38.5149 25.6764 38.3411 25.4608 38.3445C25.2486 38.3515 25.0852 38.5184 25.0852 38.7236H25.0817Z" fill="white" stroke="white" stroke-width="0.2"/>
</svg>
