<svg width="52" height="52" viewBox="0 0 52 52" fill="none" xmlns="http://www.w3.org/2000/svg">
<path d="M26 52C40.3594 52 52 40.3594 52 26C52 11.6406 40.3594 0 26 0C11.6406 0 0 11.6406 0 26C0 40.3594 11.6406 52 26 52Z" fill="#0033A1"/>
<path d="M45.0463 31.9104C44.9999 31.9569 44.9212 31.9998 44.9069 32.057C44.6602 33.1294 43.9488 33.7622 42.9515 34.109C42.7119 34.1912 42.4438 34.2269 42.19 34.2341C41.5251 34.2519 40.8566 34.2341 40.1917 34.2484C40.0808 34.2484 39.9307 34.3449 39.8735 34.4378C39.2157 35.546 38.2827 36.2396 37.0065 36.5005C35.3191 36.8437 33.5925 35.9607 32.831 34.6023C32.6809 34.3377 32.5164 34.2269 32.1911 34.2305C28.3017 34.2448 24.4086 34.2412 20.5192 34.2341C20.2618 34.2341 20.1474 34.3199 20.0115 34.5487C19.3824 35.5889 18.4708 36.2646 17.2589 36.4934C15.7896 36.7722 14.5527 36.3254 13.5267 35.2636C13.3408 35.0706 13.1764 34.8418 13.0441 34.6059C12.8976 34.3413 12.7331 34.2126 12.4078 34.2269C11.8037 34.2591 11.1959 34.2126 10.5918 34.2376C9.36917 34.2877 8.05719 33.1366 7.86773 31.9783C7.86415 31.9533 7.82483 31.9319 7.7998 31.9068C7.7998 30.1838 7.7998 28.4642 7.7998 26.7412C8.0286 26.305 8.21806 25.8367 8.50048 25.4363C9.00811 24.7214 9.81245 24.5212 10.6168 24.3424C11.0422 24.2495 11.4676 24.1565 11.8859 24.0386C12.5687 23.8491 12.9369 23.3236 13.2658 22.7445C14.1738 21.1393 15.0496 19.5128 16.0363 17.9541C16.8871 16.61 18.149 15.7878 19.7828 15.6912C20.9374 15.6233 22.0993 15.6197 23.2539 15.6126C25.4489 15.6019 27.6439 15.5876 29.8353 15.6197C30.7898 15.634 31.73 15.7735 32.5951 16.2561C33.5031 16.7637 34.2038 17.4608 34.715 18.3545C35.4657 19.6593 36.2093 20.9642 36.9564 22.269C37.0672 22.462 37.1745 22.6587 37.2746 22.8553C37.6642 23.6203 38.3006 23.9528 39.1407 24.06C40.1631 24.1887 41.2034 24.2959 42.14 24.7786C43.6057 25.5293 44.5208 26.7197 44.8998 28.3212C44.9355 28.475 44.9963 28.6251 45.0428 28.7753V31.9033L45.0463 31.9104ZM41.9541 26.0905C41.9612 26.0619 41.9684 26.0333 41.9755 26.0047C41.7253 25.8868 41.4858 25.7223 41.2248 25.6615C40.3525 25.4685 39.4767 25.2969 38.5973 25.1468C37.6964 24.9895 36.9528 24.5819 36.4845 23.7955C35.5336 22.2011 34.6041 20.596 33.7069 18.9694C32.8846 17.4787 31.5941 16.8066 29.9604 16.7852C27.0147 16.7494 24.069 16.7709 21.1233 16.778C20.68 16.778 20.2368 16.7995 19.7971 16.8531C18.6173 16.9961 17.6521 17.5394 17.0337 18.5619C16.1114 20.0776 15.2212 21.6148 14.3633 23.1663C13.9057 23.9957 13.3873 24.7321 12.4614 25.0574C12.0074 25.2147 11.532 25.3076 11.0672 25.4328C10.5239 25.5793 9.94115 25.6258 9.45139 26.087C9.89468 26.087 10.2772 26.0762 10.6561 26.087C11.0744 26.1013 11.3103 26.4015 11.2174 26.8162C11.0529 27.5741 10.8921 28.332 10.6919 29.0827C10.6132 29.3866 10.3773 29.5796 10.0269 29.576C9.68018 29.576 9.32985 29.576 8.96164 29.576C8.96164 30.1873 8.98666 30.7665 8.95449 31.3456C8.92231 31.9926 9.42637 32.8685 10.2021 32.9829C10.9314 33.0901 11.6821 33.0651 12.4722 33.1008C12.347 31.8997 12.5687 30.8344 13.3015 29.9371C14.0344 29.0398 14.9746 28.4893 16.1614 28.4106C17.3554 28.332 18.4279 28.6752 19.293 29.4831C20.3083 30.434 20.7301 31.6459 20.5228 33.0544H32.259C32.1339 31.9104 32.3591 30.8558 33.067 29.9657C33.7784 29.0684 34.715 28.5143 35.8768 28.4178C37.0923 28.3177 38.1969 28.6609 39.0799 29.4866C40.0951 30.4376 40.517 31.6494 40.3061 33.0687C40.9746 33.0687 41.6037 33.0758 42.2329 33.0687C42.8549 33.0615 43.6092 32.5575 43.7201 31.9462C43.8595 31.1811 43.8738 30.3911 43.9453 29.5796C43.6164 29.5796 43.3912 29.5724 43.1624 29.5796C41.7146 29.6189 40.2775 28.1318 40.3883 26.6697C40.4169 26.2943 40.5992 26.0977 40.9746 26.0905C41.2999 26.0834 41.6252 26.0905 41.9505 26.0905H41.9541ZM13.6197 32.4967C13.5124 33.9838 14.996 35.5067 16.5725 35.4066C18.149 35.303 19.436 34.1912 19.4145 32.4037C19.3967 30.8522 18.2313 29.6296 16.4939 29.5939C14.8387 29.5581 13.541 30.9988 13.6197 32.5003V32.4967ZM33.4066 32.4681C33.285 33.9838 34.7829 35.5139 36.3666 35.4066C37.9609 35.2994 39.23 34.1626 39.2014 32.3966C39.1764 30.8272 38.0003 29.6261 36.2772 29.5903C34.6256 29.5581 33.3458 30.9917 33.4066 32.4681ZM43.7522 28.407C43.6021 28.0674 43.4805 27.7493 43.3197 27.4561C43.2661 27.3596 43.1123 27.2667 43.0015 27.2595C42.5582 27.2381 42.1114 27.2488 41.6609 27.2488C41.9791 28.1282 42.5296 28.4392 43.7522 28.4035V28.407ZM9.66231 28.407C9.75168 28.0317 9.84105 27.6599 9.93042 27.2774H8.98309V28.407H9.66231Z" fill="white" stroke="white" stroke-width="0.4"/>
<path d="M19.6933 24.3458C18.2883 24.3458 16.8834 24.3458 15.4785 24.3458C14.8457 24.3458 14.5919 23.9311 14.9172 23.377C15.8574 21.7754 16.794 20.1703 17.7807 18.601C18.2812 17.8073 19.082 17.3998 20.0186 17.3748C21.327 17.3426 22.6354 17.3641 23.9438 17.3641C24.4192 17.3641 24.6766 17.6179 24.6766 18.0933C24.6766 19.9344 24.6766 21.7754 24.6766 23.6165C24.6766 24.0955 24.4228 24.3458 23.9473 24.3458C22.5317 24.3458 21.1125 24.3458 19.6968 24.3458H19.6933ZM16.3937 23.1625H23.4969V18.5259C22.3351 18.5259 21.184 18.4973 20.04 18.5366C19.4716 18.5581 18.9783 18.8262 18.6708 19.341C18.2025 20.1203 17.7378 20.8996 17.2731 21.6789C16.9799 22.1723 16.6904 22.6656 16.3972 23.1625H16.3937Z" fill="white" stroke="white" stroke-width="0.4"/>
<path d="M27.0113 18.5251V23.1617H34.0895C33.8142 22.7113 33.5604 22.2931 33.3066 21.8748C33.1565 21.6281 33.0599 21.3779 33.2601 21.1098C33.5604 20.7094 34.0645 20.8452 34.2825 21.2206C34.64 21.8319 35.019 22.4325 35.3693 23.0509C35.498 23.2797 35.6017 23.5371 35.6517 23.7945C35.7196 24.1448 35.4479 24.2628 35.1763 24.345C35.1083 24.3665 35.0333 24.3486 34.9582 24.3486C32.1698 24.3486 29.3814 24.3486 26.593 24.3486C26.0067 24.3486 25.8423 24.1877 25.8423 23.605C25.8423 21.764 25.8423 19.9193 25.8423 18.0783C25.8423 17.5421 26.0175 17.3669 26.5537 17.3669C27.7656 17.3669 28.981 17.3347 30.1893 17.374C31.8052 17.4241 32.5309 18.1283 33.228 19.4832C33.3674 19.7549 33.2244 20.0695 32.9455 20.2053C32.6417 20.359 32.3521 20.2768 32.1769 19.9944C32.0983 19.8621 32.0232 19.7299 31.9553 19.594C31.5978 18.8898 31.0008 18.5823 30.2394 18.5323C30.1893 18.5323 30.1428 18.5323 30.0928 18.5323C29.0775 18.5323 28.0587 18.5323 27.0077 18.5323L27.0113 18.5251Z" fill="white" stroke="white" stroke-width="0.4"/>
<path d="M15.9114 26.0895C15.7291 26.0895 15.5503 26.0931 15.368 26.0895C14.9962 26.0788 14.7853 25.8643 14.7817 25.514C14.7817 25.1601 14.9927 24.9384 15.3609 24.9313C15.7219 24.9241 16.0866 24.9241 16.4476 24.9313C16.7872 24.9384 17.1054 25.2208 17.1054 25.5068C17.1054 25.7928 16.7944 26.0788 16.4548 26.0931C16.2725 26.1002 16.0937 26.0931 15.9114 26.0931V26.0895Z" fill="white" stroke="white" stroke-width="0.4"/>
<path d="M26.9542 26.0898C26.7719 26.0898 26.5932 26.0969 26.4109 26.0898C26.0498 26.0755 25.8353 25.8502 25.8425 25.4963C25.8496 25.1603 26.0569 24.9422 26.4001 24.9315C26.7755 24.9208 27.1473 24.9208 27.5226 24.9315C27.8587 24.9387 28.1733 25.2425 28.1661 25.5249C28.1554 25.7966 27.848 26.0755 27.5334 26.0898C27.3403 26.0969 27.1473 26.0898 26.9542 26.0898Z" fill="white" stroke="white" stroke-width="0.4"/>
<path d="M14.7853 32.4789C14.7781 31.4314 15.5539 30.7701 16.5012 30.7558C17.4557 30.7415 18.3244 31.5887 18.2672 32.4717C18.1993 33.5656 17.4056 34.2627 16.4011 34.2449C15.586 34.2306 14.7102 33.4262 14.7853 32.4825V32.4789ZM16.4798 33.0723C16.7693 33.0723 17.1018 32.7756 17.1089 32.5039C17.1161 32.2394 16.7908 31.9212 16.5048 31.9105C16.1973 31.8997 15.9543 32.15 15.9507 32.4789C15.9435 32.8149 16.1723 33.0687 16.4833 33.0723H16.4798Z" fill="white" stroke="white" stroke-width="0.4"/>
<path d="M34.5719 32.4825C34.5647 31.435 35.3405 30.7701 36.2878 30.7558C37.2423 30.7415 38.111 31.5887 38.0538 32.4717C37.9859 33.5871 37.1494 34.2949 36.1555 34.2413C35.3369 34.1984 34.5075 33.4226 34.5719 32.4825ZM36.2807 33.0759C36.5702 33.0723 36.8955 32.7577 36.8955 32.4932C36.8955 32.2251 36.5595 31.9176 36.2735 31.914C35.9625 31.914 35.7301 32.1643 35.7337 32.4968C35.7337 32.8292 35.9696 33.0795 36.2807 33.0723V33.0759Z" fill="white" stroke="white" stroke-width="0.4"/>
</svg>
