<svg width="54" height="54" viewBox="0 0 54 54" fill="none" xmlns="http://www.w3.org/2000/svg">
<path d="M27 53C41.3594 53 53 41.3594 53 27C53 12.6406 41.3594 1 27 1C12.6406 1 1 12.6406 1 27C1 41.3594 12.6406 53 27 53Z" fill="#0033A1" stroke="#0033A1" stroke-miterlimit="10"/>
<path d="M26.8109 44.5193C23.586 44.4885 20.4844 43.613 17.6511 41.818C17.4311 41.6772 17.2552 41.6596 17.0132 41.7608C15.2094 42.4955 13.4012 43.2083 11.5974 43.9342C11.1399 44.1189 10.7131 44.0882 10.326 43.767C9.9124 43.4282 9.81121 42.9135 10.0356 42.3416C10.7043 40.6653 11.3554 38.9803 12.0594 37.3173C12.2661 36.8246 12.2485 36.4682 11.9582 35.9931C7.75225 29.1079 8.93571 20.0977 14.7474 14.4796C17.5543 11.7651 20.8979 10.1461 24.7607 9.60933C33.5949 8.38627 42.1343 14.33 44.0965 23.063C46.1554 32.2183 40.7968 41.2593 31.7779 43.8506C30.2865 44.2773 28.5531 44.5193 26.8109 44.5193ZM11.0827 42.8827C13.0096 42.1128 14.8486 41.3825 16.6788 40.6346C17.2068 40.419 17.6643 40.4542 18.1571 40.7577C23.3705 43.9386 28.7686 44.2421 34.2724 41.6112C40.4713 38.646 44.1625 31.6244 43.1858 24.8448C42.627 20.9512 40.9596 17.612 38.034 14.9723C33.8676 11.2151 28.971 9.88209 23.4892 11.0304C19.0765 11.9543 15.6229 14.4092 13.1856 18.2059C11.0475 21.5276 10.2688 25.1835 10.7527 29.1035C11.0519 31.5364 11.8878 33.7757 13.2164 35.8303C13.5156 36.2923 13.5596 36.741 13.344 37.2425C12.9876 38.0872 12.6577 38.9363 12.3189 39.7854C11.9186 40.7929 11.5138 41.8004 11.0827 42.8871V42.8827Z" fill="white" stroke="white" stroke-width="0.8" stroke-miterlimit="10"/>
<path d="M32.8557 23.1032C33.9336 22.562 34.9895 22.0297 36.0454 21.5105C36.8681 21.1058 37.7348 21.2862 38.2715 21.9549C38.5443 22.2936 38.6587 22.6896 38.6587 23.1208C38.6587 25.7077 38.6719 28.2946 38.6587 30.8771C38.6499 32.3025 37.3168 33.0988 36.041 32.4697C35.0863 31.9989 34.136 31.515 33.1813 31.0398C33.0801 30.987 32.9745 30.943 32.8557 30.8903C32.8118 31.1938 32.7942 31.4842 32.7282 31.757C32.3982 33.1252 31.2455 34.0007 29.7585 34.0051C27.4136 34.0095 25.073 34.0051 22.7281 34.0051C21.3027 34.0051 19.8728 34.0051 18.4474 34.0051C16.516 34.0051 15.2886 32.782 15.2886 30.8639C15.2886 28.277 15.2886 25.6901 15.2886 23.1076C15.2886 21.207 16.516 19.9795 18.4254 19.9751C22.1386 19.9751 25.8474 20.0059 29.5605 19.9619C31.5623 19.9355 32.8382 21.339 32.825 22.9888C32.825 23.0108 32.8382 23.0328 32.8557 23.1032ZM24.0656 21.1498C22.1738 21.1498 20.2864 21.1498 18.3946 21.1498C17.176 21.1498 16.4676 21.8493 16.4632 23.0636C16.4632 25.6857 16.4632 28.3034 16.4632 30.9255C16.4632 32.1177 17.176 32.8304 18.3638 32.8348C22.1562 32.8348 25.9485 32.8348 29.7409 32.8348C30.92 32.8348 31.6415 32.1045 31.6415 30.9211C31.6415 28.299 31.6415 25.6813 31.6415 23.0592C31.6415 21.8757 30.9156 21.1542 29.7321 21.1542C27.8403 21.1542 25.9529 21.1542 24.0612 21.1542L24.0656 21.1498ZM37.4928 26.9967C37.4928 25.7428 37.4928 24.4934 37.4928 23.2395C37.4928 22.5356 37.1057 22.2936 36.4765 22.606C35.3459 23.1691 34.2196 23.7367 33.0889 24.291C32.9041 24.3834 32.8162 24.4846 32.8162 24.709C32.8294 26.2268 32.825 27.7446 32.8162 29.2624C32.8162 29.478 32.8865 29.5924 33.0757 29.6848C34.2108 30.2391 35.3371 30.8111 36.4633 31.3742C37.0969 31.6866 37.484 31.4534 37.4884 30.7495C37.4884 29.4956 37.4884 28.2462 37.4884 26.9923L37.4928 26.9967Z" fill="white" stroke="white" stroke-width="0.8" stroke-miterlimit="10"/>
<path d="M39.5035 35.3647C39.5035 35.5495 39.4199 35.6903 39.3232 35.8223C38.1705 37.4325 36.7582 38.7656 35.082 39.8258C34.7125 40.059 34.3649 40.0106 34.1713 39.7026C33.9866 39.4035 34.0746 39.0867 34.4397 38.8535C36.0015 37.8593 37.3214 36.6098 38.3949 35.1052C38.562 34.8676 38.782 34.7444 39.0856 34.8368C39.3496 34.9204 39.4683 35.1184 39.4991 35.3647H39.5035Z" fill="white" stroke="white" stroke-width="0.8" stroke-miterlimit="10"/>
<path d="M19.1512 15.0337C19.1468 15.2581 19.05 15.4209 18.8784 15.5441C17.3518 16.6308 16.0847 17.9682 15.0817 19.552C14.8661 19.8908 14.5361 19.9656 14.2458 19.7808C13.9466 19.5916 13.8894 19.2529 14.1138 18.9009C15.1828 17.2071 16.5379 15.7817 18.1701 14.6158C18.3857 14.4618 18.6056 14.4046 18.852 14.5366C19.0544 14.6466 19.1468 14.8226 19.1512 15.0337Z" fill="white" stroke="white" stroke-width="0.8" stroke-miterlimit="10"/>
<path d="M19.0366 22.3246C19.151 22.3246 19.2698 22.3202 19.3842 22.3246C19.7097 22.3466 19.9341 22.5622 19.9517 22.8701C19.9693 23.1605 19.7801 23.4685 19.481 23.4553C18.9046 23.4289 18.7022 23.6356 18.7506 24.212C18.7726 24.4495 18.5351 24.6079 18.2755 24.6387C18.0027 24.6695 17.796 24.5595 17.6772 24.3176C17.4704 23.8908 17.642 22.9757 17.9763 22.6502C18.2403 22.395 18.4691 22.3246 19.0366 22.3246Z" fill="white" stroke="white" stroke-width="0.8" stroke-miterlimit="10"/>
</svg>
