<svg width="54" height="54" viewBox="0 0 54 54" fill="none" xmlns="http://www.w3.org/2000/svg">
<path d="M27 53C41.3594 53 53 41.3594 53 27C53 12.6406 41.3594 1 27 1C12.6406 1 1 12.6406 1 27C1 41.3594 12.6406 53 27 53Z" fill="#0033A1" stroke="#0033A1" stroke-miterlimit="10"/>
<path d="M25.8408 10.8235C26.1626 10.7991 26.4884 10.7461 26.8102 10.7502C29.2379 10.795 31.5882 11.1983 33.8123 12.2411C35.0831 12.8358 36.2522 13.573 37.3438 14.4447C38.6229 15.4671 39.7023 16.6728 40.6066 18.0333C41.8204 19.8622 42.6758 21.8541 43.022 24.0333C43.1565 24.8969 43.2216 25.7726 43.2787 26.6443C43.3153 27.2268 43.352 27.8174 43.2746 28.3918C43.132 29.4305 42.9609 30.4732 42.7043 31.4875C42.2766 33.1698 41.519 34.7136 40.5495 36.1514C39.8449 37.1983 39.0302 38.1596 38.1015 39.0109C36.8347 40.1718 35.4131 41.1127 33.8652 41.85C32.7491 42.3796 31.576 42.7584 30.3744 43.015C29.6371 43.1738 28.8713 43.2187 28.1178 43.2798C27.519 43.3286 26.9202 43.3571 26.3214 43.3409C24.9895 43.3042 23.6779 43.0965 22.4192 42.6728C21.4742 42.3551 20.5618 41.9396 19.6371 41.5649C19.4579 41.4916 19.2664 41.4142 19.1239 41.2879C18.7491 40.9539 18.3581 41.0842 17.963 41.2105C17.2013 41.4508 16.4477 41.7034 15.686 41.9437C14.9161 42.184 14.1381 42.4121 13.3642 42.6484C13.0098 42.7543 12.6595 42.8602 12.3092 42.9702C12.0485 43.0557 11.8082 43.0802 11.5882 42.8684C11.3601 42.6484 11.3642 42.3918 11.4416 42.1148C11.8082 40.791 12.1789 39.4671 12.5455 38.1474C12.7573 37.3857 12.9772 36.628 13.1605 35.8622C13.1972 35.7075 13.1157 35.4956 13.0261 35.349C12.4151 34.3388 11.9182 33.2757 11.5801 32.1514C11.3072 31.2472 11.0302 30.3225 10.9161 29.3897C10.7776 28.2248 10.7003 27.0272 10.7858 25.8582C11.0058 22.8398 12.0037 20.0659 13.7756 17.6015C14.3296 16.8317 14.9487 16.0944 15.6249 15.4264C16.8917 14.1677 18.3459 13.1372 19.9589 12.3592C21.1687 11.7726 22.4436 11.3571 23.7593 11.0761C24.4477 10.9294 25.1524 10.8683 25.853 10.7706C25.853 10.791 25.8571 10.8072 25.8612 10.8276L25.8408 10.8235ZM12.8958 41.4631C13.3724 41.3246 13.7838 41.2105 14.1911 41.0842C15.5475 40.6606 16.9039 40.237 18.2603 39.8093C18.5903 39.7034 18.8795 39.7156 19.2013 39.8989C19.8163 40.2533 20.4518 40.5791 21.1035 40.8724C22.6106 41.5445 24.1952 41.96 25.8408 42.0659C27.2461 42.1555 28.6595 42.1148 30.0404 41.8134C31.2216 41.5567 32.3744 41.1779 33.466 40.6484C34.7084 40.0415 35.8571 39.296 36.8998 38.3836C37.8856 37.5242 38.741 36.5588 39.4783 35.4834C40.3866 34.1596 41.0587 32.7258 41.5027 31.182C41.8367 30.0211 42.0119 28.8317 42.0689 27.6341C42.1178 26.5588 42.0119 25.4875 41.8326 24.4162C41.6045 23.0476 41.1891 21.7482 40.5821 20.5099C39.6779 18.6647 38.4559 17.0557 36.8876 15.7075C35.7919 14.7624 34.5944 13.9967 33.2827 13.3816C31.5231 12.5547 29.6575 12.1433 27.7308 12.0333C26.5821 11.9681 25.4375 12.0537 24.2929 12.2655C22.8876 12.5262 21.5557 12.9702 20.2807 13.6015C19.0831 14.2003 18.0078 14.9702 16.9976 15.85C16.0404 16.685 15.2339 17.6464 14.5292 18.685C13.5068 20.2003 12.7858 21.8622 12.3825 23.6504C12.0893 24.9539 11.8856 26.2614 12.0241 27.6015C12.1056 28.3877 12.1626 29.1779 12.2848 29.9559C12.4762 31.1535 12.8836 32.294 13.3927 33.3897C13.686 34.0252 14.0648 34.6199 14.3866 35.239C14.4599 35.3857 14.517 35.5893 14.4803 35.736C14.1422 37.0068 13.7797 38.2655 13.4253 39.5323C13.2542 40.1514 13.0831 40.7706 12.8958 41.459V41.4631Z" fill="white" stroke="white"/>
<path d="M22.6554 24.7954C22.9405 25.777 23.5515 26.5469 24.2399 27.2597C25.6819 28.7506 27.3275 29.9726 29.1442 30.9624C29.5271 31.1742 29.686 31.1538 29.9711 30.828C30.5291 30.1925 31.1116 29.5693 31.5923 28.8768C32.1992 28.0011 32.9813 28.0214 33.7634 28.4817C35.0424 29.2271 36.2766 30.0459 37.5393 30.8198C37.8978 31.0398 38.0363 31.276 37.9467 31.7282C37.7348 32.7832 37.409 33.773 36.7858 34.6609C36.1014 35.6263 35.1646 36.2373 34.0607 36.5917C33.0342 36.9176 31.967 36.9868 30.8998 36.9094C29.8693 36.8361 28.855 36.6406 27.8693 36.3188C26.1748 35.7689 24.635 34.9298 23.2705 33.7933C22.5862 33.2231 21.9059 32.6365 21.2827 31.997C20.0729 30.7587 19.0383 29.3738 18.2196 27.8422C17.7226 26.9094 17.3112 25.9318 16.908 24.9542C16.5495 24.0825 16.5169 23.1457 16.6228 22.2333C16.7817 20.8198 17.3153 19.5245 18.1422 18.3555C18.4192 17.9644 18.7206 17.5897 19.0342 17.2271C19.132 17.1172 19.3112 17.0438 19.4619 17.0316C20.0566 16.9787 20.6554 16.9054 21.246 16.9339C21.7878 16.9624 22.0566 17.4308 22.2847 17.8585C22.8509 18.9257 23.3927 20.0051 23.9304 21.0846C24.4192 22.0662 24.1829 22.9583 23.5352 23.773C23.2623 24.1192 22.9609 24.441 22.6554 24.7954ZM21.0424 18.1925C20.5 18.225 20.5 18.225 20.175 18.225C19.8654 18.1842 19.7348 18.2862 19.576 18.5021C18.9487 19.3534 18.4314 20.2618 18.1096 21.2801C17.853 22.0907 17.8163 22.9135 17.8937 23.7322C17.9752 24.5754 18.3458 25.3534 18.7206 26.107C19.5475 27.7648 20.5617 29.3005 21.7959 30.6935C22.6595 31.663 23.5882 32.5632 24.6391 33.3127C25.743 34.0988 26.9283 34.7669 28.2522 35.1212C29.1035 35.3493 29.9792 35.5449 30.855 35.6223C31.6208 35.6874 32.4069 35.606 33.1727 35.5082C33.9548 35.4104 34.6554 35.0764 35.2501 34.5388C35.9955 33.8626 36.3744 32.995 36.6106 32.0377C36.6676 31.8015 36.6147 31.7159 36.4232 31.6019C35.853 31.2719 35.2949 30.9176 34.7369 30.5673C34.2073 30.2333 33.686 29.887 33.1524 29.5571C32.9365 29.4227 32.7369 29.3901 32.5862 29.6793C32.468 29.9074 32.301 30.1111 32.1422 30.3147C31.6371 30.942 31.1401 31.5856 30.4436 32.0214C30.0363 32.2781 29.6045 32.5062 29.1076 32.2699C28.5169 31.9848 27.9263 31.7037 27.3642 31.3738C26.1992 30.6854 25.1279 29.8626 24.1462 28.9339C23.5801 28.4003 23.0546 27.8218 22.5617 27.219C22.0607 26.6121 21.6819 25.9278 21.4619 25.166C21.3112 24.6447 21.3968 24.2088 21.8326 23.8178C22.1788 23.5082 22.468 23.1212 22.7287 22.7343C22.9039 22.4695 23.0464 22.1355 22.9039 21.8096C22.6432 21.2149 22.3621 20.6324 22.0648 20.0581C21.743 19.4349 21.3927 18.8239 21.0464 18.2007L21.0424 18.1925Z" fill="white" stroke="white"/>
</svg>
