<svg width="24" height="24" viewBox="0 0 24 24" fill="none" xmlns="http://www.w3.org/2000/svg">
<path d="M19 2H5C4.20435 2 3.44129 2.31607 2.87868 2.87868C2.31607 3.44129 2 4.20435 2 5V19C2 19.7956 2.31607 20.5587 2.87868 21.1213C3.44129 21.6839 4.20435 22 5 22H19C19.7956 22 20.5587 21.6839 21.1213 21.1213C21.6839 20.5587 22 19.7956 22 19V5C22 4.20435 21.6839 3.44129 21.1213 2.87868C20.5587 2.31607 19.7956 2 19 2ZM20 19C20 19.2652 19.8946 19.5196 19.7071 19.7071C19.5196 19.8946 19.2652 20 19 20H5C4.73478 20 4.48043 19.8946 4.29289 19.7071C4.10536 19.5196 4 19.2652 4 19V5C4 4.73478 4.10536 4.48043 4.29289 4.29289C4.48043 4.10536 4.73478 4 5 4H19C19.2652 4 19.5196 4.10536 19.7071 4.29289C19.8946 4.48043 20 4.73478 20 5V19Z" fill="#B4B4B4"/>
<path fill-rule="evenodd" clip-rule="evenodd" d="M12 6C10.0944 6 8.54321 7.54947 8.54321 9.46875C8.54321 11.388 10.0944 12.9375 12 12.9375C13.9056 12.9375 15.4568 11.388 15.4568 9.46875C15.4568 7.54947 13.9056 6 12 6ZM10.3128 9.46875C10.3128 8.54031 11.0646 7.78125 12 7.78125C12.9354 7.78125 13.6872 8.54031 13.6872 9.46875C13.6872 10.3972 12.9354 11.1563 12 11.1563C11.0646 11.1563 10.3128 10.3972 10.3128 9.46875ZM9.94239 14C8.32087 14 7 15.3655 7 17C7 17.4954 7.51487 18 8 18C8.66167 18 8.83713 17.5253 9.0171 17.0385C9.20654 16.526 9.40098 16 10.1728 16H13.8272C14.599 16 14.7935 16.526 14.9829 17.0385C15.1629 17.5253 15.3383 18 16 18C16.4851 18 17 17.4954 17 17C17 15.3655 15.6791 14 14.0576 14H9.94239Z" fill="#B4B4B4"/>
</svg>
