<svg width="24" height="24" viewBox="0 0 24 24" fill="none" xmlns="http://www.w3.org/2000/svg">
<path d="M11.384 20.4596L11.384 20.4595C10.6106 20.4501 9.90462 20.6437 9.20665 20.9503C7.48915 21.705 5.61742 20.6565 5.18711 18.7508L11.384 20.4596ZM11.384 20.4596L11.3912 20.4594M11.384 20.4596L11.3912 20.4594M13.6173 20.9872C14.1754 21.2311 14.7554 21.2545 15.3279 21.1124L15.3279 21.1124C17.3551 20.6089 18.2443 18.1624 17.1471 16.2747L17.1471 16.2746C16.5131 15.1843 15.8699 14.1003 15.2162 13.0239C14.5132 11.8662 13.5256 11.1014 12.2388 10.8494L12.2388 10.8494C11.3478 10.6749 10.5103 10.7294 9.75499 11.0282C8.99946 11.3271 8.33903 11.8653 7.79443 12.6376L7.7944 12.6376C7.08008 13.6511 6.46122 14.7462 5.84947 15.8288C5.71874 16.0602 5.58834 16.2909 5.4574 16.5202L5.45736 16.5203C5.06379 17.21 5.01487 17.9887 5.1871 18.7508L13.6173 20.9872ZM13.6173 20.9872C12.8761 20.6633 12.1375 20.4415 11.3912 20.4594M13.6173 20.9872L11.3912 20.4594M16.1699 18.0175L16.1699 18.0175C16.1784 17.7035 16.1041 17.4146 15.9501 17.1554L15.9501 17.1554C15.7471 16.8135 15.5476 16.4709 15.3487 16.1292C14.8519 15.2758 14.3582 14.4278 13.8209 13.6101L13.8208 13.61C12.6557 11.8357 10.0744 11.8369 8.9067 13.6139L8.90669 13.6139C8.34741 14.4647 7.83407 15.3483 7.31752 16.2373C7.13903 16.5445 6.96016 16.8524 6.77888 17.1598L16.1699 18.0175ZM16.1699 18.0175L16.1699 18.0234M16.1699 18.0175L16.1699 18.0234M16.1699 18.0234C16.1724 19.1598 15.1286 19.926 14.1805 19.573C14.0822 19.5363 13.9824 19.4979 13.8815 19.459C13.5809 19.3431 13.2698 19.2231 12.9546 19.1344C12.0683 18.8846 11.1586 18.8321 10.2532 19.0332C9.71827 19.1519 9.19088 19.3248 8.68249 19.5269C8.2267 19.7081 7.77708 19.6813 7.41126 19.4954M16.1699 18.0234L7.41126 19.4954M12.877 6.34373L12.8769 6.34373C12.8455 7.31408 12.5293 8.25851 11.7527 8.97866L11.7527 8.97867C11.2299 9.46344 10.6061 9.70234 9.97924 9.68611C9.35266 9.66989 8.73834 9.39924 8.2325 8.89312C7.57147 8.23175 7.23318 7.28486 7.20954 6.34032C7.1859 5.39572 7.47635 4.43071 8.10267 3.73174M12.877 6.34373L8.25162 3.86521M12.877 6.34373L12.877 6.33803M12.877 6.34373L12.877 6.33803M8.10267 3.73174L8.25162 3.86521M8.10267 3.73174C8.10267 3.73174 8.10267 3.73175 8.10267 3.73175L8.25162 3.86521M8.10267 3.73174C8.71583 3.04744 9.50381 2.73814 10.274 2.8102C11.0437 2.88221 11.7709 3.33259 12.2693 4.11813L12.1004 4.22528M8.25162 3.86521C9.40171 2.58168 11.1621 2.74638 12.1004 4.22528M12.1004 4.22528L12.2693 4.11814C12.6693 4.74863 12.8803 5.49662 12.877 6.33803M12.1004 4.22528L12.877 6.33803M11.0336 7.54997C10.7843 7.92578 10.461 8.14458 9.96355 8.14697C9.51626 8.12427 9.14637 7.82755 8.90447 7.30672L8.90444 7.30665C8.52935 6.49987 8.56367 5.7075 9.03378 4.9523L9.03379 4.95229C9.29457 4.53331 9.67328 4.33923 10.0383 4.33919C10.4036 4.33916 10.7838 4.53344 11.0469 4.95063L11.0469 4.95063C11.5514 5.75067 11.5523 6.76811 11.0336 7.54997ZM11.0336 7.54997L11.2003 7.66054M11.0336 7.54997L11.2003 7.66054M11.2003 7.66054C11.7639 6.81091 11.7611 5.70836 11.216 4.84396L9.95905 8.34699C10.5364 8.34586 10.9191 8.08423 11.2003 7.66054ZM7.41126 19.4954C7.04551 19.3095 6.74952 18.9574 6.61569 18.4613L7.41126 19.4954ZM6.55229 9.35678L6.55237 9.35675L6.54982 9.35147C6.24048 8.71035 5.79918 8.23161 5.25417 7.92523L5.25414 7.92521C4.57338 7.54267 3.84273 7.51986 3.22489 7.80176C2.60843 8.08303 2.12206 8.65915 1.90673 9.44134L1.90672 9.44135C1.68644 10.2417 1.81994 11.1002 2.18901 11.8088C2.5578 12.5169 3.17159 13.0932 3.93151 13.3088L3.93159 13.3088C5.10654 13.6416 6.22483 13.0354 6.66725 11.843C6.99438 10.962 6.88818 10.1083 6.55229 9.35678ZM18.9239 8.39096L18.924 8.39098L18.9256 8.38551C19.141 7.64632 19.1433 6.92774 18.9511 6.2575L18.9511 6.25744C18.7115 5.42308 18.1876 4.815 17.5297 4.52575C16.8702 4.23578 16.0956 4.27518 15.3791 4.6995C14.6477 5.13267 14.1483 5.89913 13.9311 6.73645C13.7137 7.5742 13.773 8.50446 14.1861 9.27761C14.8221 10.4681 16.079 10.9393 17.2649 10.3837L17.2649 10.3837C18.1344 9.97613 18.6519 9.23454 18.9239 8.39096ZM16.9829 8.90067L16.9828 8.90074C16.8253 9.02992 16.6654 9.11376 16.4961 9.14993C16.3289 9.18564 16.1401 9.17757 15.9187 9.10485C15.5363 8.95553 15.288 8.58885 15.2069 8.06397C15.0815 7.2506 15.3098 6.57559 15.9019 6.05983L15.902 6.05981C16.2271 5.77647 16.5979 5.71812 16.9123 5.82325C17.2286 5.92901 17.512 6.20875 17.6372 6.64972L17.6372 6.64979C17.8778 7.49569 17.6224 8.37687 16.9829 8.90067ZM21.5081 14.8709L21.5081 14.8709L21.9942 13.0043L22.1939 13.0163C22.1939 13.0163 22.1939 13.0162 22.1939 13.0162C22.2921 11.3838 21.1006 10.1423 19.5562 10.3646C18.777 10.4766 18.0992 10.9668 17.6483 11.6206C17.1971 12.2749 16.9617 13.1089 17.0832 13.9319L17.0832 13.932C17.2696 15.194 18.2157 16.0632 19.4289 16.0105C20.3204 15.9721 21.007 15.51 21.5081 14.8709ZM19.6533 14.5977L19.6533 14.5977C19.4798 14.6517 19.3183 14.6662 19.1626 14.6368C19.0084 14.6076 18.8471 14.5328 18.6765 14.3889C18.3879 14.1188 18.2862 13.7096 18.3767 13.2287C18.5174 12.4815 18.9193 11.9874 19.5824 11.7583L19.5171 11.5693L19.5824 11.7583C19.9431 11.6337 20.2794 11.7136 20.5216 11.9197C20.7657 12.1275 20.9254 12.4742 20.8987 12.9001L20.8987 12.9001C20.8475 13.7182 20.3579 14.3789 19.6533 14.5977ZM6.61566 18.4612C6.49168 18.0004 6.54366 17.5588 6.77886 17.1598L6.61566 18.4612ZM4.61317 9.12174C5.27022 9.49398 5.64138 10.2405 5.53521 11.0463C5.4841 11.4328 5.32007 11.735 4.94702 11.9499C4.60908 12.1209 4.23612 12.0599 3.87382 11.783C3.30722 11.3495 3.04505 10.7531 3.12433 9.98794C3.16823 9.56434 3.38321 9.25705 3.65699 9.10113C3.92912 8.94616 4.27569 8.93071 4.61317 9.12174Z" fill="#B4B4B4" stroke="#B4B4B4" stroke-width="0.4"/>
</svg>
