<svg width="24" height="24" viewBox="0 0 24 24" fill="none" xmlns="http://www.w3.org/2000/svg">
<path d="M11.2031 22.5063C11.2444 22.5063 11.2778 22.4729 11.2778 22.4316C11.2778 22.3904 11.2444 22.3569 11.2031 22.3569C11.1619 22.3569 11.1284 22.3904 11.1284 22.4316C11.1284 22.4729 11.1619 22.5063 11.2031 22.5063Z" fill="#0033A1"/>
<path d="M9.16194 22.6308C9.54693 22.6308 9.85903 22.3187 9.85903 21.9337C9.85903 21.5487 9.54693 21.2366 9.16194 21.2366C8.77694 21.2366 8.46484 21.5487 8.46484 21.9337C8.46484 22.3187 8.77694 22.6308 9.16194 22.6308Z" fill="#0033A1"/>
<path d="M7.31961 21.8091C6.84658 21.8091 6.44824 21.4108 6.44824 20.9378C6.44824 20.4647 6.84658 20.0664 7.31961 20.0664C7.79264 20.0664 8.19098 20.4647 8.19098 20.9378C8.19098 21.4357 7.79264 21.8091 7.31961 21.8091Z" fill="#0033A1"/>
<path d="M5.75081 20.2406C5.37737 20.2406 5.07861 19.9419 5.07861 19.5684C5.07861 19.195 5.37737 18.8962 5.75081 18.8962C6.12426 18.8962 6.42301 19.195 6.42301 19.5684C6.42301 19.9419 6.12426 20.2406 5.75081 20.2406Z" fill="#0033A1"/>
<path d="M4.55603 18.3735C4.28217 18.3735 4.05811 18.1495 4.05811 17.8756C4.05811 17.6018 4.28217 17.3777 4.55603 17.3777C4.82989 17.3777 5.05396 17.6018 5.05396 17.8756C5.05396 18.1495 4.82989 18.3735 4.55603 18.3735Z" fill="#0033A1"/>
<path d="M3.90862 16.1826C4.07362 16.1826 4.20737 16.0488 4.20737 15.8838C4.20737 15.7188 4.07362 15.5851 3.90862 15.5851C3.74362 15.5851 3.60986 15.7188 3.60986 15.8838C3.60986 16.0488 3.74362 16.1826 3.90862 16.1826Z" fill="#0033A1"/>
<path d="M4.05809 13.8922C4.09934 13.8922 4.13278 13.8587 4.13278 13.8175C4.13278 13.7762 4.09934 13.7428 4.05809 13.7428C4.01684 13.7428 3.9834 13.7762 3.9834 13.8175C3.9834 13.8587 4.01684 13.8922 4.05809 13.8922Z" fill="#0033A1"/>
<path d="M12.3482 23.2531C11.925 23.2531 11.5018 23.2282 11.1034 23.1784C10.7051 23.1286 10.4063 22.7552 10.4561 22.332C10.5308 21.9336 10.8793 21.6598 11.3026 21.7095C12.6221 21.8838 13.9665 21.7344 15.2113 21.2614C17.2528 20.4896 18.871 18.9959 19.7673 17.029C20.6636 15.0622 20.7383 12.8465 19.9914 10.805C18.647 7.24482 15.0868 5.07884 11.3026 5.57677C10.9042 5.62656 10.5308 5.3527 10.4561 4.95436C10.4063 4.53113 10.7051 4.18258 11.1034 4.10789C15.5598 3.51038 19.7922 6.0498 21.3607 10.2822C22.2569 12.6971 22.1574 15.2863 21.1117 17.6266C20.0412 19.9668 18.1242 21.7593 15.7341 22.6556C14.6387 23.0539 13.4935 23.2531 12.3482 23.2531Z" fill="#0033A1"/>
<path d="M11.452 7.96686C11.4271 7.96686 11.4022 7.96686 11.3773 7.96686L6.09933 7.39425C5.75078 7.36935 5.45203 7.14529 5.32755 6.82164C5.20306 6.47309 5.27775 6.12454 5.50182 5.87558L9.11178 1.99176C9.38564 1.693 9.85866 1.66811 10.1574 1.94197C10.4811 2.21583 10.4811 2.68886 10.2072 2.98761L7.36904 6.04985L11.5267 6.49798C11.9251 6.54778 12.2238 6.89632 12.174 7.31956C12.1242 7.69301 11.8255 7.96686 11.452 7.96686Z" fill="#00AEEF"/>
<path d="M15.1368 16.0084H11.3525L11.6513 10.5312C11.6762 10.2573 11.9003 10.0333 12.199 10.0582C12.4729 10.0831 12.6969 10.3071 12.672 10.6059L12.4231 15.0125H15.1368C15.4106 15.0125 15.6596 15.2366 15.6596 15.5353C15.6596 15.8341 15.4355 16.0084 15.1368 16.0084Z" fill="#00AEEF"/>
</svg>
