<svg width="24" height="24" viewBox="0 0 24 24" fill="none" xmlns="http://www.w3.org/2000/svg">
<path d="M7.5161 7.44688C7.77409 7.56415 8.03209 7.65796 8.26663 7.75178C8.40735 7.79869 8.57153 7.86905 8.71225 7.91596C8.89988 7.96286 9.08751 7.98632 9.25169 8.00977C9.34551 8.03323 9.43932 8.05668 9.53314 8.08013C9.6035 8.10359 9.65041 8.08013 9.69732 8.05668C10.1195 7.79869 10.5886 7.63451 11.0576 7.51724C11.386 7.42342 11.7378 7.35306 12.0662 7.2827C12.418 7.21234 12.7463 7.18888 13.0981 7.14198C13.5438 7.07161 13.9659 7.21234 14.3647 7.37652C14.6696 7.49379 14.951 7.63451 15.2559 7.72832C15.5374 7.84559 15.8423 7.84559 16.1472 7.79869C16.1941 7.79869 16.2644 7.82214 16.2879 7.82214C16.3582 7.77523 16.4286 7.75178 16.499 7.70487C16.4755 7.61106 16.4521 7.51724 16.4286 7.42342C16.4051 7.35306 16.3817 7.2827 16.4521 7.21234C16.4521 7.21234 16.4521 7.18888 16.4521 7.16543C16.3817 6.93089 16.4755 6.74326 16.5693 6.55563C16.6866 6.32109 16.8977 6.20382 17.0853 6.08655C17.5778 5.75819 18.0469 5.42984 18.5395 5.10148C18.6802 5.00767 18.8209 4.91385 18.9616 4.82003C18.9851 4.79658 19.0554 4.77313 19.0789 4.79658C19.1258 4.79658 19.1962 4.84349 19.1962 4.91385C19.1962 4.96076 19.1727 5.03112 19.1258 5.07803C19.032 5.17184 18.9147 5.21875 18.7975 5.28911C18.7036 5.33602 18.6098 5.42984 18.5395 5.47674C18.2111 5.71128 17.8827 5.94582 17.5544 6.18036C17.3902 6.29763 17.2026 6.4149 17.0384 6.53217C16.8273 6.6729 16.6162 7.11852 16.757 7.47033C16.7804 7.54069 16.8039 7.61106 16.8273 7.68142C16.8273 7.70487 16.8273 7.75178 16.8273 7.79869C16.8977 7.72832 16.9211 7.79869 16.9446 7.86905C17.4371 8.78375 17.9297 9.69846 18.4456 10.6132C18.7975 11.2464 19.1493 11.9031 19.5011 12.5598C19.6887 12.9116 20.1343 13.1227 20.533 12.8178C20.6972 12.7006 20.8379 12.6067 21.0021 12.4895C21.0959 12.4426 21.1663 12.4426 21.2132 12.5364C21.2601 12.6067 21.2367 12.724 21.1663 12.7709C20.9552 12.9351 20.7441 13.0993 20.5096 13.2166C20.1109 13.4042 19.6887 13.2869 19.3838 12.9586C19.29 13.0758 19.2196 13.1696 19.1258 13.2869C18.8678 13.5449 18.6333 13.8029 18.3753 14.0609C18.3284 14.1078 18.3284 14.1313 18.3518 14.1782C18.5629 14.6238 18.516 15.0225 18.258 15.4212C18.1173 15.6323 17.9766 15.7965 17.7655 15.8903C17.6248 15.9372 17.4606 15.9607 17.2964 16.0076C17.1791 16.8754 16.6866 17.3444 15.8892 17.4617C15.7719 17.837 15.6312 18.1888 15.3263 18.4233C15.0448 18.6579 14.7165 18.7048 14.3647 18.6344C14.2708 18.611 14.2239 18.6344 14.177 18.7282C13.9894 19.1269 13.7549 19.4318 13.3796 19.5726C13.0747 19.6898 12.7463 19.6898 12.4414 19.6195C12.0427 19.5257 11.6909 19.3615 11.3625 19.1035C11.3391 19.1035 11.3156 19.08 11.2922 19.08C11.2218 19.1739 11.1515 19.2911 11.0811 19.3849C10.6589 19.9713 9.88495 20.0651 9.34551 19.596C9.18133 19.4553 9.06406 19.2442 9.04061 18.9393C8.6888 19.1035 8.36044 19.08 8.03209 18.869C7.72718 18.6579 7.56301 18.3295 7.53955 17.9073C7.14084 18.0715 6.74212 18.0481 6.41376 17.6963C6.08541 17.3679 5.94468 16.9692 6.06195 16.4767C5.89778 16.4767 5.7336 16.4767 5.59287 16.4297C5.21761 16.3125 4.98307 16.0076 4.8658 15.5854C4.77199 15.1867 4.8658 14.8349 5.07689 14.53C5.14725 14.4362 5.21761 14.3189 5.26452 14.2251C5.28797 14.1782 5.28797 14.1313 5.26452 14.0843C5.02998 13.756 4.74853 13.4042 4.49054 13.0524C4.44363 13.0055 4.42018 12.982 4.34982 13.0289C3.9511 13.2635 3.57583 13.2166 3.22403 12.9586C2.91912 12.724 2.63768 12.5364 2.33277 12.3488C2.21551 12.2784 2.19205 12.1846 2.23896 12.0908C2.28587 11.9969 2.37968 11.9735 2.49695 12.0439C2.80185 12.2549 3.13021 12.466 3.43511 12.6771C3.81037 12.9586 4.27945 12.8178 4.51399 12.3722C4.84235 11.7155 5.19416 11.0822 5.54597 10.4255C5.92123 9.76882 6.27304 9.08865 6.6483 8.43194C6.81248 8.10359 7.00011 7.79869 7.16429 7.47033C7.35192 7.09507 7.25811 6.60254 6.92975 6.39145C6.43722 6.03964 5.94468 5.71128 5.45215 5.38293C5.38179 5.33602 5.31143 5.26566 5.33488 5.17184C5.35834 5.05457 5.47561 4.98421 5.56942 5.05457C5.71014 5.14839 5.85087 5.24221 5.99159 5.33602C6.3434 5.57056 6.69521 5.82855 7.04702 6.06309C7.44574 6.32109 7.63337 6.83707 7.53955 7.30615C7.53955 7.35306 7.53955 7.39997 7.5161 7.44688ZM9.25169 8.36158C9.18133 8.36158 9.11097 8.33813 9.04061 8.31467C8.89988 8.29122 8.75916 8.29122 8.64189 8.24431C8.24317 8.10359 7.86791 7.96286 7.46919 7.79869C7.39883 7.75178 7.35192 7.77523 7.30501 7.86905C6.97666 8.50231 6.62485 9.13556 6.27304 9.76882C5.94468 10.3786 5.61633 10.965 5.28797 11.5748C5.10034 11.95 4.88926 12.3018 4.70162 12.6771C4.67817 12.724 4.67817 12.7475 4.70162 12.7944C4.95962 13.1227 5.21761 13.4511 5.45215 13.8029C5.49906 13.8733 5.52251 13.8733 5.56942 13.8029C5.61633 13.756 5.66324 13.6856 5.71014 13.6622C5.99159 13.4042 6.31995 13.2869 6.69521 13.3573C7.00011 13.4042 7.25811 13.5449 7.44574 13.8264C7.49265 13.9202 7.53955 14.014 7.58646 14.1078C7.91482 13.7091 8.31353 13.5449 8.78261 13.7794C9.32205 14.014 9.53314 14.53 9.39242 15.2101C9.76768 15.1398 10.096 15.257 10.354 15.5619C10.612 15.8668 10.6824 16.2421 10.612 16.6643C11.1046 16.6408 11.4095 16.9457 11.5971 17.4148C11.7847 17.8839 11.7378 18.353 11.4798 18.7751C11.4798 18.7986 11.5033 18.7986 11.5033 18.7986C11.5267 18.7986 11.5267 18.822 11.5502 18.822C11.8785 19.0331 12.2303 19.2208 12.6291 19.2911C12.9809 19.338 13.3092 19.2911 13.5907 19.0331C13.7549 18.8924 13.8721 18.7048 13.9425 18.4937C13.3561 18.1653 12.7932 17.8135 12.2303 17.4852C12.1365 17.4148 12.0896 17.3444 12.1365 17.2506C12.1834 17.1568 12.2773 17.1334 12.3711 17.1803C12.8401 17.4617 13.3327 17.7432 13.8018 18.0246C14.0128 18.1419 14.2005 18.2826 14.4585 18.3061C14.6696 18.3295 14.9041 18.3061 15.0917 18.1888C15.3497 18.0246 15.4904 17.7432 15.5608 17.4383C15.5608 17.4148 15.5374 17.3444 15.5139 17.3444C15.4201 17.2506 15.3263 17.2037 15.2325 17.1334C14.7634 16.805 14.2943 16.4767 13.8252 16.1718C13.6376 16.031 13.4265 15.8903 13.2154 15.7496C13.1685 15.7027 13.1216 15.6323 13.145 15.5619C13.1685 15.515 13.2154 15.4447 13.2623 15.4212C13.3092 15.3978 13.3796 15.4447 13.4265 15.4681C14.1536 15.9607 14.8572 16.4532 15.5843 16.9457C15.6781 17.0161 15.7719 17.1334 15.8892 17.1099C16.2644 17.0395 16.5928 16.8988 16.8039 16.547C16.9211 16.3594 16.9915 16.1483 16.9915 15.9372C16.8508 15.8668 16.7335 15.8199 16.5928 15.7496C16.3582 15.6089 16.1472 15.4447 15.9126 15.2805C15.7953 15.1867 15.5608 14.9991 15.5374 14.9991C15.3497 14.8583 15.1855 14.7176 14.9979 14.6003C14.7165 14.3892 14.435 14.1782 14.1536 13.9905C14.0598 13.9202 14.0363 13.8029 14.0832 13.7325C14.1301 13.6622 14.2239 13.6387 14.2943 13.6856C14.3647 13.7325 14.435 13.7794 14.5054 13.8264C15.0917 14.2485 15.6546 14.6707 16.2175 15.0694C16.4755 15.2336 16.71 15.4447 16.9915 15.5619C17.3668 15.7027 17.7186 15.6558 17.9766 15.257C18.1407 14.9991 18.2346 14.7411 18.1173 14.4127C18.0469 14.2485 17.9297 14.1313 17.8124 14.0374C17.0853 13.3807 16.3348 12.7944 15.5608 12.208C15.0448 11.8093 14.5054 11.4341 13.9659 11.0353C13.5672 10.7539 13.1685 10.449 12.7463 10.1675C12.7229 10.1441 12.676 10.1206 12.6291 10.1206C12.4883 10.1206 12.3476 10.1675 12.2303 10.1675C11.9489 10.1675 11.6909 10.1441 11.4095 10.1206C11.3625 10.1206 11.3391 10.1206 11.3156 10.1675C11.2687 10.3083 11.1984 10.4255 11.128 10.5428C10.6824 11.2699 10.096 11.7859 9.2986 11.9266C9.04061 11.95 8.75916 11.95 8.50117 11.8562C8.19626 11.7155 8.05554 11.4341 8.19626 11.0822C8.33699 10.7304 8.47771 10.3786 8.61843 10.0034C8.7357 9.675 8.85297 9.34665 8.89988 8.99484C8.92334 8.92448 8.94679 8.83066 8.97024 8.7603C9.06406 8.61958 9.15788 8.50231 9.25169 8.36158ZM16.6397 7.96286C16.5224 8.00977 16.4286 8.08013 16.3348 8.10359C15.8423 8.24431 15.3732 8.17395 14.9275 7.98632C14.5757 7.84559 14.2239 7.68142 13.8721 7.56415C13.6376 7.47033 13.4265 7.42342 13.1685 7.47033C13.0747 7.49379 12.9809 7.49379 12.8636 7.51724C12.5587 7.56415 12.2303 7.5876 11.9254 7.65796C11.6205 7.72833 11.2922 7.79869 10.9873 7.8925C10.5417 8.00977 10.096 8.17395 9.69732 8.4554C9.41587 8.64303 9.22824 8.87757 9.15788 9.27629C9.11097 9.58119 8.9937 9.88609 8.87643 10.191C8.78261 10.5193 8.64189 10.8242 8.50117 11.1526C8.4308 11.3168 8.45426 11.4575 8.59498 11.5044C8.6888 11.5513 8.75916 11.5748 8.85297 11.5748C9.36896 11.6217 9.83804 11.4575 10.2368 11.1057C10.612 10.7773 10.8935 10.3552 11.1046 9.88609C11.1515 9.79227 11.1984 9.74537 11.2922 9.76882C11.5267 9.79227 11.7847 9.81573 12.0193 9.83918C12.2069 9.83918 12.3945 9.81573 12.5822 9.76882C12.6994 9.74537 12.7463 9.74536 12.8167 9.79227C13.2154 10.0737 13.6141 10.3552 14.0128 10.6601C14.693 11.1526 15.3497 11.6451 16.0064 12.1377C16.71 12.6537 17.3902 13.1931 18.0469 13.7794C18.0938 13.8264 18.1173 13.8264 18.1876 13.7794C18.5395 13.4511 18.8678 13.0758 19.1727 12.7006C19.1962 12.6771 19.1962 12.6067 19.1727 12.5833C18.7975 11.95 18.4456 11.2933 18.0938 10.6366C17.742 9.9799 17.3902 9.34665 17.0384 8.68994C16.9211 8.4554 16.7804 8.22086 16.6397 7.96286ZM6.9532 17.6728C7.00011 17.6728 7.04702 17.6728 7.09393 17.6728C7.32847 17.6259 7.5161 17.5555 7.65682 17.3444C7.77409 17.1803 7.89136 16.9926 8.00863 16.805C8.31353 16.3359 8.64189 15.8434 8.94679 15.3743C9.13442 15.0929 9.18133 14.8114 9.04061 14.4831C8.80607 13.9436 8.14936 13.8264 7.79755 14.3189C7.37538 14.9521 6.9532 15.6089 6.53103 16.2421C6.27304 16.6174 6.27304 17.0865 6.55449 17.4148C6.55449 17.4148 6.57794 17.4383 6.57794 17.4617C6.6014 17.4852 6.62485 17.5321 6.67176 17.5321C6.76557 17.579 6.85939 17.6259 6.9532 17.6728ZM7.86791 17.8839C7.89136 17.9543 7.89136 18.0481 7.91482 18.1184C8.00863 18.4468 8.19626 18.6344 8.50117 18.6813C8.75916 18.7048 8.9937 18.611 9.13442 18.3999C9.48623 17.8839 9.83804 17.3444 10.1664 16.8285C10.3071 16.6408 10.354 16.4063 10.3071 16.1718C10.2368 15.8199 10.0257 15.6089 9.72077 15.5385C9.43932 15.4681 9.20478 15.5854 9.01715 15.8434C8.71225 16.3125 8.3839 16.7816 8.07899 17.2741C7.96172 17.4617 7.84445 17.6259 7.86791 17.8839ZM5.14725 15.3274C5.14725 15.3743 5.1707 15.4447 5.1707 15.4916C5.24107 15.7965 5.40524 16.0076 5.66324 16.1014C5.94468 16.1952 6.22613 16.1248 6.41376 15.8434C6.67176 15.4681 6.92975 15.0929 7.16429 14.6941C7.32847 14.4127 7.28156 14.0374 7.02357 13.8498C6.62485 13.5449 6.08541 13.6153 5.78051 14.0609C5.61633 14.2954 5.45215 14.5769 5.28797 14.8349C5.19416 14.9756 5.14725 15.1163 5.14725 15.3274ZM10.1195 19.5491C10.4009 19.5257 10.6589 19.4084 10.8466 19.1504C10.9638 18.9862 11.0576 18.822 11.1749 18.6344C11.5033 18.1653 11.4329 17.4852 11.0107 17.1334C10.7762 16.9457 10.4948 16.9692 10.3071 17.2272C10.0257 17.6728 9.72077 18.095 9.43932 18.5406C9.27515 18.7986 9.32205 19.1504 9.55659 19.338C9.72077 19.4788 9.9084 19.5491 10.1195 19.5491Z" fill="#0033A1"/>
<path d="M10.1195 20.112C9.81465 20.112 9.50975 19.9948 9.2283 19.7837C9.06412 19.6664 8.94685 19.4788 8.87649 19.2442C8.54813 19.3381 8.21978 19.2677 7.93833 19.0566C7.65688 18.8455 7.46925 18.5641 7.39889 18.1888C6.97672 18.2826 6.60146 18.1888 6.29655 17.8605C5.9682 17.5321 5.80402 17.1334 5.85093 16.6878C5.73366 16.6878 5.63984 16.6878 5.54603 16.6409C5.1004 16.5001 4.7955 16.1718 4.67823 15.6323C4.56096 15.1867 4.65478 14.7645 4.91277 14.3893L5.00659 14.2486C5.03004 14.2251 5.03004 14.2016 5.05349 14.1782C4.81895 13.8733 4.60787 13.5684 4.37333 13.2869C3.95116 13.4746 3.52899 13.4511 3.10682 13.1462C2.89573 12.982 2.66119 12.8413 2.45011 12.7006L2.21557 12.5364C1.98103 12.3722 1.95757 12.1377 2.05139 11.9735C2.0983 11.8797 2.19211 11.8093 2.28593 11.7859C2.35629 11.7624 2.47356 11.7624 2.59083 11.8562L2.84882 11.997C3.08336 12.1612 3.3179 12.3253 3.52899 12.4895C3.66971 12.5833 3.81043 12.6068 3.95116 12.5833C4.11534 12.5364 4.23261 12.4191 4.32642 12.255C4.56096 11.8093 4.81895 11.3403 5.05349 10.8946L6.97672 7.35309C7.11744 7.09509 7.04708 6.74329 6.81254 6.57911C6.41382 6.29766 5.99165 6.01621 5.59294 5.75822L5.33494 5.57059C5.26458 5.52368 5.07695 5.38296 5.12386 5.10151C5.14731 4.96078 5.21767 4.86697 5.33494 4.79661C5.42876 4.77315 5.56948 4.77315 5.6633 4.84351C5.78057 4.91388 5.87438 4.98424 5.9682 5.0546L6.43728 5.38296C6.67182 5.54713 6.90636 5.71131 7.16435 5.87549C7.60998 6.18039 7.84452 6.74329 7.7507 7.30618L7.79761 7.32963C7.98524 7.4 8.14942 7.47036 8.33705 7.54072C8.47777 7.58763 8.64195 7.65799 8.78267 7.68144C8.87649 7.7049 8.9703 7.72835 9.06412 7.75181C9.13448 7.75181 9.20484 7.77526 9.27521 7.79871C9.36902 7.82217 9.48629 7.84562 9.60356 7.89253C10.0023 7.63454 10.4714 7.4469 11.0108 7.30618L11.0812 7.25927C11.4095 7.18891 11.7144 7.0951 12.0428 7.04819C12.2304 7.00128 12.4415 6.97782 12.6291 6.95437C12.7698 6.95437 12.934 6.93092 13.0747 6.90746C13.5673 6.8371 14.0364 6.97783 14.4351 7.16546C14.5758 7.18891 14.6931 7.25927 14.8103 7.30618C14.9745 7.37654 15.1387 7.4469 15.3029 7.51727C15.5374 7.61108 15.7954 7.63454 16.1003 7.56417C16.1472 7.56417 16.1941 7.56417 16.241 7.56417L16.2176 7.49381C16.1941 7.42345 16.1707 7.28273 16.2176 7.16546C16.1707 6.88401 16.2879 6.64947 16.3818 6.48529C16.5459 6.18039 16.757 6.03967 16.9446 5.9224L18.5395 4.84351C18.6568 4.77315 18.7741 4.67934 18.8913 4.60898C18.9382 4.58552 19.079 4.51516 19.1962 4.58552C19.2666 4.63243 19.4073 4.72625 19.4308 4.86697C19.4542 5.03115 19.3604 5.17187 19.3135 5.24223C19.1962 5.33605 19.079 5.40641 18.9851 5.45332L18.8913 5.50023C18.8444 5.52368 18.7975 5.57059 18.7506 5.59404C18.7271 5.6175 18.6802 5.6644 18.6333 5.68786C18.305 5.9224 17.9766 6.15694 17.6483 6.39148C17.5545 6.46184 17.4372 6.5322 17.3434 6.60256L17.1557 6.71983C17.015 6.81365 16.8508 7.11855 16.9446 7.35309C16.9681 7.42345 16.9916 7.49381 17.015 7.58763C17.0619 7.61108 17.1088 7.68144 17.1088 7.72835L18.8913 10.9885C19.1493 11.4575 19.4308 11.9501 19.6653 12.4426C19.7357 12.5833 19.8529 12.6771 19.9937 12.724C20.0875 12.7475 20.2282 12.7475 20.3924 12.6302C20.5097 12.5599 20.6035 12.4661 20.7207 12.3957L20.9084 12.3019C21.0725 12.1612 21.2836 12.2315 21.4009 12.4191C21.4478 12.513 21.4713 12.6302 21.4478 12.724C21.4244 12.8413 21.3774 12.9351 21.2836 12.982L21.1195 13.0993C20.9553 13.2166 20.7911 13.3338 20.6035 13.4277C20.2048 13.6153 19.7591 13.5684 19.4073 13.2869C19.3604 13.3338 19.3135 13.4042 19.2666 13.4511C19.0321 13.6857 18.7975 13.9202 18.5864 14.1782C18.7741 14.6473 18.7271 15.1163 18.4457 15.562C18.305 15.7496 18.1173 15.9841 17.8359 16.1014C17.7421 16.1483 17.6248 16.1718 17.5075 16.1952H17.4841C17.3199 17.0161 16.8274 17.5321 16.0534 17.6728C15.9361 17.9777 15.772 18.353 15.4436 18.611C15.1152 18.869 14.7634 18.9393 14.3413 18.8924C14.1067 19.3615 13.8018 19.643 13.4266 19.8071C13.1217 19.9244 12.7933 19.9479 12.3946 19.854C12.0428 19.7602 11.691 19.6195 11.3392 19.385C11.3157 19.4319 11.2688 19.4788 11.2453 19.5257C10.9639 19.9244 10.5417 20.112 10.1195 20.112ZM10.7059 17.2272H10.6824C10.6121 17.2272 10.5417 17.2741 10.4948 17.3445C10.1899 17.8136 9.90846 18.2357 9.60356 18.6814C9.50975 18.8221 9.5332 19.0332 9.67392 19.1504C9.81465 19.2442 9.95537 19.3146 10.1195 19.3146C10.3541 19.2912 10.5652 19.1973 10.6824 18.9863C10.7528 18.8924 10.8232 18.7986 10.8701 18.7048L11.0108 18.4937C11.2688 18.1185 11.1984 17.6025 10.8701 17.321C10.8232 17.2507 10.7763 17.2272 10.7059 17.2272ZM11.7613 18.7048C12.0193 18.869 12.3242 19.0097 12.6526 19.0801C12.9809 19.127 13.2389 19.0566 13.45 18.869C13.5438 18.7986 13.6142 18.7048 13.6611 18.5875L12.1366 17.6963C11.9255 17.579 11.8551 17.3445 11.949 17.1334C11.9959 17.0396 12.0662 16.9692 12.16 16.9458C12.2539 16.8989 12.3711 16.9223 12.4649 16.9692L12.8402 17.1803C13.192 17.3914 13.5438 17.6025 13.8956 17.7901L14.0129 17.8605C14.1771 17.9543 14.2944 18.0481 14.4585 18.0481C14.6931 18.0715 14.8338 18.0481 14.9745 17.9543C15.1387 17.837 15.256 17.6728 15.3263 17.4383C15.2794 17.4383 15.256 17.4148 15.2091 17.3914L13.1217 15.9372C12.9575 15.82 12.8871 15.6323 12.9575 15.4682C13.0044 15.3743 13.0982 15.2336 13.2155 15.1867C13.3093 15.1633 13.4266 15.1867 13.5438 15.2571L15.7016 16.7347C15.725 16.7816 15.7485 16.805 15.772 16.805C15.8189 16.8519 15.8423 16.8754 15.8658 16.8754C16.241 16.805 16.4756 16.6643 16.6397 16.4063C16.6867 16.289 16.7336 16.1952 16.757 16.078C16.6632 16.0311 16.5928 16.0076 16.499 15.9372C16.3114 15.82 16.1472 15.7027 15.983 15.5854L14.0364 14.1782C13.8487 14.0609 13.8018 13.8029 13.9191 13.6153C14.0364 13.4277 14.2474 13.3808 14.4351 13.498L15.1387 14.014C15.5374 14.2955 15.9361 14.5769 16.3348 14.8584L16.499 14.9991C16.6867 15.1164 16.8508 15.2571 17.0619 15.3274C17.3903 15.4447 17.6483 15.3743 17.8124 15.1163C17.9532 14.8818 18.0001 14.7176 17.9297 14.5065C17.8828 14.3893 17.8124 14.3189 17.6952 14.2016C16.9916 13.5918 16.2879 13.0524 15.4436 12.4191C14.9511 12.0439 14.4585 11.6921 13.966 11.3168L13.8487 11.2464C13.45 10.9415 13.0513 10.6601 12.6291 10.3552C12.6057 10.3552 12.5588 10.3552 12.4884 10.3786C12.418 10.4021 12.3242 10.4021 12.2304 10.4021C11.9959 10.4021 11.7613 10.3786 11.5502 10.3552H11.4799C11.4095 10.4725 11.3626 10.5663 11.2922 10.6601C10.7763 11.5279 10.1195 12.0204 9.32211 12.1377C8.99376 12.2081 8.71231 12.1846 8.43086 12.0673C8.21978 11.9735 8.0556 11.8328 7.98524 11.6452C7.91488 11.4575 7.91488 11.223 8.00869 10.9885C8.07905 10.7774 8.17287 10.5897 8.24323 10.3786C8.31359 10.2145 8.38396 10.0503 8.43086 9.90957C8.52468 9.65158 8.64195 9.32322 8.71231 8.94796C8.73577 8.80723 8.75922 8.71342 8.80613 8.6196C8.82958 8.59615 8.85303 8.54924 8.87649 8.52579C8.78267 8.52579 8.6654 8.50233 8.57159 8.47888C8.19632 8.33815 7.82106 8.19743 7.46925 8.03325C7.1878 8.57269 6.90636 9.06523 6.62491 9.58121L5.4053 11.8328C5.24113 12.1142 5.07695 12.4191 4.91277 12.724C5.12386 12.982 5.31149 13.2635 5.52257 13.5215C5.54603 13.498 5.54603 13.498 5.56948 13.4746C5.89784 13.1697 6.2731 13.0524 6.71873 13.0993C7.09399 13.1697 7.39889 13.3573 7.58652 13.6622C7.58652 13.6857 7.60998 13.6857 7.60998 13.7091C7.98524 13.3808 8.40741 13.3338 8.82958 13.5215C9.39248 13.8029 9.67392 14.2955 9.62702 14.9522C9.97883 14.9522 10.2603 15.1163 10.4948 15.3978C10.7294 15.6792 10.8466 16.0311 10.8232 16.4298C11.2453 16.5001 11.5502 16.7816 11.7613 17.321C11.9724 17.7666 11.949 18.2357 11.7613 18.7048ZM8.0556 17.8605V17.9308C8.0556 17.9777 8.0556 18.0246 8.07905 18.0481C8.14942 18.3061 8.29014 18.4234 8.52468 18.4468C8.71231 18.4703 8.87649 18.3999 8.9703 18.2592C9.32211 17.7432 9.67392 17.2272 10.0023 16.6878C10.1195 16.547 10.143 16.3829 10.0961 16.2187C10.0492 15.9841 9.90846 15.82 9.69738 15.7731C9.48629 15.7262 9.32211 15.7965 9.20484 15.9841C9.01721 16.2421 8.85303 16.5001 8.68886 16.7581C8.54813 16.9692 8.40741 17.2038 8.26669 17.4148C8.14942 17.579 8.07905 17.6963 8.0556 17.8605ZM8.3605 14.2486C8.19632 14.2486 8.0556 14.3189 7.96178 14.4596C7.77415 14.7645 7.56307 15.0694 7.35198 15.3978C7.1409 15.7262 6.92981 16.0545 6.69527 16.3829C6.48419 16.6878 6.50764 17.0161 6.69527 17.2507L6.76563 17.3445C6.81254 17.3679 6.8829 17.3914 6.95326 17.4148L7.00017 17.4383C7.02363 17.4383 7.04708 17.4383 7.07053 17.4148C7.25817 17.4148 7.39889 17.3445 7.49271 17.2038C7.56307 17.0865 7.65688 16.9692 7.72725 16.8519L8.00869 16.4063C8.26669 16.0076 8.52468 15.6089 8.78267 15.2336C8.9234 14.9991 8.94685 14.8114 8.85303 14.5769C8.78267 14.3893 8.6185 14.272 8.43086 14.2486C8.40741 14.2486 8.38396 14.2486 8.3605 14.2486ZM6.24965 16.289C6.2731 16.2656 6.2731 16.2656 6.24965 16.289C6.24965 16.2656 6.24965 16.2656 6.24965 16.289ZM5.3584 15.304C5.3584 15.3509 5.38185 15.3978 5.38185 15.4447C5.42876 15.6792 5.54603 15.7965 5.73366 15.8669C5.94474 15.9372 6.10892 15.8669 6.24965 15.6792C6.50764 15.304 6.76563 14.9287 7.00017 14.53C7.04708 14.4596 7.07053 14.3658 7.04708 14.272C7.02363 14.1782 6.97672 14.0844 6.90636 14.0375C6.60146 13.8029 6.17928 13.8733 5.94474 14.2016C5.82747 14.3658 5.71021 14.5535 5.59294 14.7411L5.45221 14.9756C5.4053 15.046 5.3584 15.1398 5.3584 15.304ZM7.46925 14.3893C7.46925 14.4127 7.46925 14.4127 7.46925 14.3893C7.46925 14.4127 7.49271 14.4127 7.46925 14.3893ZM12.676 9.51085C12.7464 9.51085 12.8402 9.53431 12.9106 9.58121L13.3093 9.86266C13.5907 10.0737 13.8722 10.2614 14.1302 10.4725C14.8103 10.965 15.4671 11.4575 16.1472 11.9501C16.8977 12.513 17.531 13.0055 18.1173 13.5449C18.4222 13.24 18.7037 12.9351 18.9382 12.6302C18.7037 12.2081 18.4926 11.8093 18.2581 11.3872L16.5694 8.26779C16.499 8.29125 16.4521 8.3147 16.3818 8.33816C15.9127 8.47888 15.3967 8.43197 14.8572 8.19743L14.5993 8.10362C14.3413 7.98635 14.0833 7.86908 13.8253 7.77526C13.5673 7.7049 13.4031 7.65799 13.2155 7.7049C13.1451 7.72835 13.0747 7.72835 13.0044 7.72835C12.9575 7.72835 12.9106 7.72835 12.8871 7.75181L12.6526 7.77526C12.418 7.79871 12.1835 7.84562 11.9724 7.89253C11.6441 7.96289 11.3392 8.03325 11.0577 8.12707C10.5417 8.24434 10.143 8.43197 9.81465 8.66651C9.55665 8.83069 9.41593 9.04177 9.36902 9.32322C9.29866 9.65158 9.18139 9.97993 9.08757 10.2848C8.99376 10.5428 8.89994 10.7774 8.78267 11.0119L8.68886 11.2464C8.6654 11.2934 8.6654 11.3168 8.6654 11.3168C8.73577 11.3168 8.80613 11.3403 8.85303 11.3403C9.32211 11.3872 9.72083 11.2464 10.1195 10.9181C10.4244 10.6601 10.6824 10.2848 10.9404 9.76885C11.0343 9.58122 11.1515 9.51085 11.3392 9.53431L11.5033 9.55776C11.691 9.58121 11.8786 9.60467 12.0662 9.60467C12.2539 9.60467 12.4415 9.58121 12.6057 9.55776C12.6057 9.53431 12.6526 9.51085 12.676 9.51085ZM19.0086 12.5599C18.9851 12.5599 19.0086 12.5599 19.0086 12.5599C18.9851 12.5599 19.0086 12.5599 19.0086 12.5599ZM12.6526 9.88612L12.6057 9.76885L12.6526 9.88612C12.6526 9.88612 12.6291 9.88612 12.6526 9.88612ZM16.8274 7.86908L16.8508 7.89253L16.9212 7.79871L16.8274 7.86908ZM16.7336 7.7049L16.7805 7.72835V7.7049H16.7336ZM7.39889 7.42345L7.51616 7.4469L7.42234 7.4C7.42234 7.42345 7.39889 7.42345 7.39889 7.42345Z" fill="#0033A1"/>
<path d="M4.53741 4.77308C4.53741 4.77308 4.4905 4.74963 4.46704 4.74963C4.37323 4.67927 4.27941 4.63236 4.20905 4.58545C4.11523 4.51509 4.09178 4.42127 4.13869 4.32746C4.1856 4.23364 4.25596 4.21019 4.34977 4.2571C4.44359 4.32746 4.56086 4.39782 4.65468 4.46818C4.70158 4.51509 4.72504 4.58545 4.70158 4.65581C4.67813 4.74963 4.63122 4.77308 4.53741 4.77308Z" fill="#00AEEF"/>
<path d="M4.53741 5.00769L4.46705 4.98423C4.4436 4.98423 4.39669 4.96078 4.34978 4.93732C4.27942 4.89042 4.20906 4.84351 4.13869 4.7966C3.90415 4.65588 3.85725 4.39788 3.95106 4.21025C4.04488 3.99917 4.25596 3.95226 4.4436 4.04607C4.56087 4.11644 4.65468 4.1868 4.77195 4.25716C4.91267 4.35097 4.95958 4.53861 4.88922 4.72624C4.86577 4.84351 4.77195 5.00769 4.53741 5.00769Z" fill="#00AEEF"/>
<path d="M22.3158 11.95C22.2923 11.9969 22.2689 12.0438 22.2454 12.0907C22.1516 12.1376 22.0812 12.208 21.9874 12.2549C21.9171 12.2784 21.8467 12.2549 21.7998 12.1846C21.7529 12.1142 21.7529 12.0204 21.8232 11.95C21.9171 11.8796 21.9874 11.8093 22.0812 11.7624C22.1985 11.7389 22.3158 11.8093 22.3158 11.95Z" fill="#00AEEF"/>
<path d="M21.9169 12.5129C21.7996 12.5129 21.6824 12.4425 21.612 12.3253C21.5182 12.1142 21.5416 11.9031 21.7058 11.7624C21.7996 11.692 21.8934 11.6217 22.0107 11.5513C22.1045 11.5044 22.2218 11.5044 22.3156 11.5513C22.4329 11.6217 22.5032 11.7389 22.5267 11.8796V11.9735L22.5033 12.0673L22.3156 11.95L22.4798 12.1142C22.4563 12.1611 22.4329 12.2315 22.3625 12.2784C22.2687 12.3487 22.1749 12.3956 22.0811 12.466C22.0342 12.4895 21.9873 12.5129 21.9169 12.5129Z" fill="#00AEEF"/>
</svg>
