<svg width="24" height="24" viewBox="0 0 24 24" fill="none" xmlns="http://www.w3.org/2000/svg">
<g clip-path="url(#clip0_325_776)">
<path d="M12.0002 23.4025C11.9255 23.4025 11.8509 23.4025 11.7762 23.4025C8.73882 23.3278 5.87575 22.083 3.75957 19.8921C1.64339 17.7012 0.523057 14.8133 0.597745 11.7759C0.722227 5.52697 5.90065 0.522816 12.1745 0.597505C15.2367 0.647298 18.0749 1.89211 20.216 4.10788C22.3322 6.29875 23.4774 9.18672 23.4027 12.249C23.3529 15.2365 22.133 18.0498 19.9421 20.166C17.8011 22.2573 14.9878 23.4025 12.0002 23.4025ZM12.0002 2.14107C6.64754 2.14107 2.2409 6.44813 2.11642 11.8008C2.06662 14.4398 3.06248 16.9295 4.8799 18.8216C6.72223 20.7386 9.18696 21.8091 11.826 21.8589C14.4152 21.9087 16.9795 20.9129 18.8716 19.0705C20.7388 17.2531 21.8094 14.8133 21.8592 12.2241C21.9089 9.58506 20.938 7.09543 19.0957 5.17842C17.2533 3.2614 14.7637 2.19087 12.1247 2.14107C12.0998 2.14107 12.05 2.14107 12.0002 2.14107Z" fill="#0033A1"/>
<path d="M18.025 17.527V17.1536C18.025 15.8839 18.025 14.5893 18.025 13.3196C18.025 12.8963 18.0001 12.4731 17.9752 12.0498C17.9005 11.5519 17.776 11.054 17.527 10.581C17.2781 10.1577 16.9544 9.83408 16.4814 9.63491C15.8839 9.38595 15.2366 9.31126 14.5893 9.41084C13.8922 9.51043 13.2947 9.80918 12.8465 10.3818C12.7968 10.4565 12.747 10.5063 12.6723 10.581C12.6723 10.2324 12.6474 9.90877 12.6474 9.61001C12.1246 9.56022 10.5312 9.58512 10.3071 9.63491V17.527C11.1287 17.527 11.9503 17.5519 12.7719 17.527V17.1536C12.7719 15.8839 12.7719 14.6142 12.7719 13.3445C12.7719 13.0208 12.8217 12.722 12.9212 12.4233C13.0955 11.8507 13.6183 11.5519 14.2905 11.5768C14.9378 11.6266 15.2864 11.9005 15.4109 12.5478C15.4856 12.8963 15.5104 13.2698 15.5104 13.6432C15.5353 14.8133 15.5104 16.0084 15.5353 17.1785C15.5353 17.2781 15.5602 17.4025 15.5602 17.527H18.025Z" fill="#00AEEF"/>
<path d="M8.71376 17.5269C8.71376 17.4522 8.71376 17.4273 8.71376 17.3775C8.71376 14.8381 8.71376 12.3236 8.71376 9.78414C8.71376 9.73435 8.71376 9.70945 8.68886 9.65966C8.68886 9.65966 8.68886 9.63476 8.66397 9.63476L8.63907 9.60986H6.27393V17.5269H8.71376Z" fill="#00AEEF"/>
<path d="M7.44399 8.51444C8.24067 8.51444 8.88797 7.91693 8.91287 7.12025C8.93776 6.29867 8.31536 5.65137 7.49378 5.65137C6.6722 5.65137 6.0498 6.24888 6.0249 7.04556C6.0249 7.86713 6.64731 8.48954 7.44399 8.51444Z" fill="#00AEEF"/>
</g>
<defs>
<clipPath id="clip0_325_776">
<rect width="24" height="24" fill="white"/>
</clipPath>
</defs>
</svg>
