<svg width="24" height="24" viewBox="0 0 24 24" fill="none" xmlns="http://www.w3.org/2000/svg">
<path d="M14.7327 22.0539H3V2H14.7327C15.1015 2 15.4012 2.29966 15.4012 2.66847C15.4012 3.03727 15.1015 3.33693 14.7327 3.33693H4.35998V20.694H14.7327C15.1015 20.694 15.4012 20.9936 15.4012 21.3624C15.4012 21.7543 15.1015 22.0539 14.7327 22.0539Z" fill="#0033A1"/>
<path d="M17.4297 12.6954H9.20069C8.83188 12.6954 8.53223 12.3958 8.53223 12.027C8.53223 11.6582 8.83188 11.3585 9.20069 11.3585H17.4297C17.7985 11.3585 18.0982 11.6582 18.0982 12.027C18.0982 12.3958 17.7985 12.6954 17.4297 12.6954Z" fill="#0033A1"/>
<path d="M16.8073 16.7062C16.6459 16.7062 16.4845 16.6601 16.3462 16.5218C16.0696 16.2913 16.0466 15.8533 16.3001 15.5998L19.5733 12.05L16.3001 8.47714C16.0466 8.20054 16.0696 7.78563 16.3462 7.53207C16.6228 7.27852 17.0378 7.30157 17.2913 7.57817L21.3713 12.05L17.2913 16.4987C17.153 16.637 16.9686 16.7062 16.8073 16.7062Z" fill="#00AEEF"/>
</svg>
