<svg width="24" height="24" viewBox="0 0 24 24" fill="none" xmlns="http://www.w3.org/2000/svg">
<g clip-path="url(#clip0_325_775)">
<path d="M11.9252 17.3777L10.8796 17.3528C9.90864 17.3279 8.86299 17.303 7.84225 17.2781C7.4937 17.2781 7.12025 17.2034 6.74681 17.1287C5.90034 16.9295 5.30283 16.3818 5.05386 15.5851C4.95428 15.2366 4.85469 14.8881 4.8049 14.4897C4.65552 12.7968 4.65552 11.1038 4.8298 9.48557C4.85469 9.16191 4.95428 8.83826 5.00407 8.6142C5.30283 7.54366 6.1244 6.87146 7.21984 6.77187C7.91694 6.72208 8.61403 6.69718 9.31113 6.67229L9.90864 6.64739C11.8008 6.5727 13.668 6.5976 15.4356 6.67229C15.8837 6.69718 16.4315 6.72208 16.9543 6.77187C17.9999 6.89635 18.7468 7.54366 19.0207 8.5644C19.1203 8.93785 19.1949 9.31129 19.2198 9.63494C19.3692 11.3528 19.3692 13.0208 19.17 14.6142C19.1452 14.8632 19.0954 15.1619 18.9958 15.4607C18.6721 16.4814 17.9252 17.1038 16.8547 17.2034C16.1327 17.2532 15.3858 17.303 14.6638 17.3279C14.0414 17.3528 13.419 17.3528 12.7468 17.3777H11.9252ZM12.0995 8.14117C11.4024 8.14117 10.6804 8.14117 9.98333 8.19096L9.36092 8.21586C8.68872 8.24075 8.01652 8.26565 7.34432 8.31544C6.87129 8.36523 6.62233 8.5644 6.49785 9.01254C6.44806 9.21171 6.39826 9.43577 6.37337 9.63494C6.22399 11.1536 6.19909 12.7221 6.37337 14.3403C6.39826 14.5893 6.47295 14.8632 6.54764 15.1121C6.59743 15.3113 6.72191 15.5354 7.09536 15.61C7.36922 15.6847 7.64308 15.7096 7.89204 15.7345C8.91279 15.7594 9.95843 15.7843 10.9294 15.8092L11.9252 15.8341L12.7219 15.8092C13.3941 15.7843 14.0165 15.7843 14.614 15.7594C15.3111 15.7345 16.0082 15.7096 16.7053 15.6349C17.1286 15.5851 17.3775 15.4109 17.502 14.9876C17.5767 14.8134 17.6265 14.6142 17.6514 14.4399C17.8257 12.9461 17.8256 11.3777 17.6763 9.78432C17.6514 9.53536 17.6016 9.2615 17.5269 8.96274C17.4273 8.5644 17.2032 8.36523 16.7551 8.31544C16.307 8.26565 15.8339 8.24075 15.3609 8.21586C14.3153 8.19096 13.1949 8.14117 12.0995 8.14117Z" fill="#00AEEF"/>
<path d="M11.9998 23.4523C11.95 23.4523 11.9002 23.4523 11.8504 23.4523C8.76325 23.4025 5.87528 22.1328 3.73421 19.8921C1.59313 17.6764 0.472794 14.7635 0.522587 11.7013C0.671964 5.52698 5.7757 0.547729 11.95 0.547729C11.9749 0.547729 12.0247 0.547729 12.0496 0.547729C15.1367 0.572626 18.1242 1.89213 20.2653 4.13279C22.4313 6.39835 23.5516 9.36101 23.4272 12.4979C23.2031 18.6722 18.1989 23.4523 11.9998 23.4523ZM11.8753 21.9087C11.9251 21.9087 11.95 21.9087 11.9998 21.9087C17.3525 21.9087 21.7093 17.7759 21.9085 12.4481C22.0081 9.73445 21.0371 7.17014 19.1699 5.20333C17.3276 3.26142 14.7135 2.11619 12.0496 2.0913C12.0247 2.0913 11.9749 2.0913 11.95 2.0913C6.62217 2.0913 2.19064 6.39835 2.06616 11.751C2.01636 14.3901 2.98732 16.9046 4.82964 18.8216C6.69686 20.7635 9.18649 21.8589 11.8753 21.9087Z" fill="#0033A1"/>
<path d="M10.705 10.1577C11.8253 10.7552 12.9457 11.3278 14.1158 11.9254C12.9457 12.5478 11.8502 13.1453 10.7299 13.7428C10.6303 13.5187 10.6054 10.6556 10.705 10.1577Z" fill="#00AEEF"/>
</g>
<defs>
<clipPath id="clip0_325_775">
<rect width="24" height="24" fill="white"/>
</clipPath>
</defs>
</svg>
