<svg width="24" height="24" viewBox="0 0 24 24" fill="none" xmlns="http://www.w3.org/2000/svg">
<path d="M2.16582 21.4854C2.04134 21.4854 1.89196 21.4605 1.76748 21.3858C1.51852 21.2364 1.36914 20.9377 1.36914 20.6389V5.55178C1.36914 4.48124 2.16582 3.63477 3.16167 3.63477H20.8131C21.809 3.63477 22.6057 4.50613 22.6057 5.55178V15.2115C22.6057 16.2821 21.809 17.1285 20.8131 17.1285H5.92516L2.58906 21.3609C2.46458 21.4605 2.3152 21.4854 2.16582 21.4854ZM3.16167 4.7551C2.76333 4.7551 2.43968 5.10365 2.43968 5.52688V19.8173L5.42723 15.9833H20.838C21.2364 15.9833 21.56 15.6348 21.56 15.2115V5.55178C21.56 5.12854 21.2364 4.77999 20.838 4.77999H3.16167V4.7551Z" fill="#0033A1"/>
<path d="M17.5268 10.6556H7.61804C7.31928 10.6556 7.09521 10.4066 7.09521 10.083C7.09521 9.75934 7.34418 9.51038 7.61804 9.51038H17.5268C17.8255 9.51038 18.0496 9.75934 18.0496 10.083C18.0496 10.3817 17.8255 10.6556 17.5268 10.6556Z" fill="#00AEEF"/>
<path d="M17.5268 13.3943H7.61804C7.31928 13.3943 7.09521 13.1453 7.09521 12.8216C7.09521 12.498 7.34418 12.249 7.61804 12.249H17.5268C17.8255 12.249 18.0496 12.498 18.0496 12.8216C18.0496 13.1453 17.8255 13.3943 17.5268 13.3943Z" fill="#00AEEF"/>
<path d="M17.5268 7.91696H7.61804C7.31928 7.91696 7.09521 7.66799 7.09521 7.34434C7.09521 7.02069 7.34418 6.77173 7.61804 6.77173H17.5268C17.8255 6.77173 18.0496 7.02069 18.0496 7.34434C18.0496 7.6431 17.8255 7.91696 17.5268 7.91696Z" fill="#00AEEF"/>
</svg>
