<svg width="24" height="24" viewBox="0 0 24 24" fill="none" xmlns="http://www.w3.org/2000/svg">
<path d="M7.51851 19.1951L7.16996 18.8963C6.97079 18.6972 6.8961 18.4233 6.97079 18.1743L7.99154 14.5893L8.11602 14.4648L17.2778 5.30298L20.7384 8.76356L11.477 18.0499L7.51851 19.1951ZM9.18656 15.2864L8.53926 17.5021L10.755 16.8548L18.8712 8.73866L17.3027 7.1702L9.18656 15.2864Z" fill="#0033A1"/>
<path d="M21.1618 8.36511L17.7012 4.90453L19.668 2.91283C20.39 2.19084 21.6348 2.19084 22.3319 2.91283L23.1286 3.70951C23.8754 4.4564 23.8754 5.65142 23.1286 6.37341L21.1618 8.36511ZM19.5684 4.90453L21.1618 6.49789L22.2074 5.45225C22.4315 5.22818 22.4315 4.87964 22.2074 4.65557L21.4107 3.85889C21.1866 3.63482 20.8381 3.63482 20.614 3.85889L19.5684 4.90453Z" fill="#00AEEF"/>
<path d="M20.1907 22.332H3.28618C2.29033 22.332 1.46875 21.5104 1.46875 20.5145V5.82573C1.46875 4.82988 2.29033 4.0083 3.28618 4.0083H15.809C16.1824 4.0083 16.4812 4.30706 16.4812 4.6805C16.4812 5.05394 16.1824 5.30291 15.809 5.30291H3.28618C3.01232 5.30291 2.78825 5.52697 2.78825 5.80083V20.4896C2.78825 20.7635 3.01232 20.9876 3.28618 20.9876H20.1907C20.4646 20.9876 20.6887 20.7635 20.6887 20.4896V10.1826C20.6887 9.80913 20.9874 9.51038 21.3609 9.51038C21.7343 9.51038 22.0331 9.80913 22.0331 10.1826V20.5145C22.0082 21.5104 21.1866 22.332 20.1907 22.332Z" fill="#0033A1"/>
</svg>
