<svg width="24" height="24" viewBox="0 0 24 24" fill="none" xmlns="http://www.w3.org/2000/svg">
<path d="M16.1706 12.7315C14.6767 12.7315 13.439 11.5151 13.439 9.99987C13.439 9.78646 13.4603 9.57305 13.5243 9.35964C13.5884 9.06087 13.8871 8.89014 14.1859 8.95416C14.4847 9.01818 14.6554 9.31696 14.5914 9.61573C14.57 9.74378 14.5487 9.87182 14.5487 9.99987C14.5487 10.8962 15.2743 11.6218 16.1706 11.6218C17.0669 11.6218 17.7925 10.8962 17.7925 9.99987C17.7925 9.85048 17.7712 9.7011 17.7285 9.57305C17.6431 9.27428 17.8139 8.95416 18.1126 8.89014C18.4114 8.80477 18.7102 8.9755 18.7956 9.27428C18.8596 9.50903 18.9023 9.76512 18.9023 9.99987C18.8809 11.4937 17.6645 12.7315 16.1706 12.7315Z" fill="#00AEEF"/>
<path d="M21.4417 12.3686C21.271 12.3686 21.0789 12.2832 20.9722 12.1125C19.9052 10.4906 18.1125 9.53026 16.1705 9.53026C14.2285 9.53026 12.4358 10.4906 11.3474 12.1339C11.1767 12.3686 10.8352 12.4326 10.5791 12.2832C10.3231 12.1125 10.259 11.7711 10.4298 11.515C11.7102 9.57294 13.8443 8.42053 16.1705 8.42053C18.4966 8.42053 20.6307 9.57294 21.9112 11.515C22.0819 11.7711 21.9966 12.1125 21.7405 12.2832C21.6551 12.3259 21.5484 12.3686 21.4417 12.3686Z" fill="#0033A1"/>
<path d="M16.1707 15.0362C14.3994 15.0362 12.7562 14.1399 11.7745 12.6674C11.6038 12.4113 11.6678 12.0698 11.9239 11.8991C12.18 11.7284 12.5214 11.7924 12.6921 12.0485C13.4604 13.2223 14.7622 13.9265 16.1707 13.9265C17.5792 13.9265 18.881 13.2223 19.6493 12.0485C19.82 11.7924 20.1615 11.7284 20.4176 11.8991C20.6523 12.0698 20.7377 12.4113 20.567 12.6674C19.5853 14.1399 17.942 15.0362 16.1707 15.0362Z" fill="#0033A1"/>
<path d="M15.6582 20.5423H3.06705C2.4695 20.5423 2 20.0514 2 19.4752V8.12183C2 7.8444 2.1067 7.56697 2.32011 7.3749L6.3749 3.32011C6.54563 3.1067 6.82306 3 7.10049 3H15.6369C16.2344 3 16.7039 3.49084 16.7039 4.06705V7.3749C16.7039 7.67367 16.4478 7.92977 16.1491 7.92977C15.8503 7.92977 15.5942 7.67367 15.5942 7.3749V4.06705L7.10049 4.08839L3.06705 8.14318V19.4539L15.6369 19.4112L15.6155 16.082C15.6155 15.7832 15.8716 15.5272 16.1704 15.5272C16.4692 15.5272 16.7253 15.7832 16.7253 16.082V19.4752C16.7253 20.0514 16.2344 20.5423 15.6582 20.5423Z" fill="#0033A1"/>
<path d="M7.4422 8.46331H2.87523C2.59779 8.46331 2.3417 8.29258 2.235 8.03649C2.12829 7.75906 2.19232 7.46029 2.38438 7.26822L6.2471 3.4055C6.46051 3.19209 6.75928 3.12807 7.01538 3.23477C7.27147 3.34148 7.4422 3.59757 7.4422 3.875V8.46331ZM3.85691 7.35358H6.33247V4.87803L3.85691 7.35358Z" fill="#0033A1"/>
</svg>
