<svg width="24" height="24" viewBox="0 0 24 24" fill="none" xmlns="http://www.w3.org/2000/svg">
<path d="M12.1852 12.8718C11.5653 12.8718 11.0781 12.3847 11.0781 11.7647C11.0781 11.1447 11.5653 10.6576 12.1852 10.6576C12.8052 10.6576 13.2923 11.1447 13.2923 11.7647C13.2923 12.3847 12.7831 12.8718 12.1852 12.8718ZM12.1852 11.5211C12.0524 11.5211 11.9417 11.6319 11.9417 11.7647C11.9417 12.0304 12.4288 12.0304 12.4288 11.7647C12.4288 11.6319 12.3181 11.5211 12.1852 11.5211Z" fill="#00AEEF"/>
<path d="M8.28826 12.8718C7.66828 12.8718 7.18115 12.3847 7.18115 11.7647C7.18115 11.1447 7.66828 10.6576 8.28826 10.6576C8.90825 10.6576 9.39538 11.1447 9.39538 11.7647C9.39538 12.3847 8.90825 12.8718 8.28826 12.8718ZM8.28826 11.5211C8.15541 11.5211 8.0447 11.6319 8.0447 11.7647C8.0447 12.0304 8.53183 12.0304 8.53183 11.7647C8.53183 11.6319 8.42112 11.5211 8.28826 11.5211Z" fill="#00AEEF"/>
<path d="M16.0602 12.8718C15.4403 12.8718 14.9531 12.3847 14.9531 11.7647C14.9531 11.1447 15.4403 10.6576 16.0602 10.6576C16.6802 10.6576 17.1673 11.1447 17.1673 11.7647C17.1673 12.3847 16.6802 12.8718 16.0602 12.8718ZM16.0602 11.5211C15.9274 11.5211 15.8167 11.6319 15.8167 11.7647C15.8167 12.0304 16.3038 12.0304 16.3038 11.7647C16.3038 11.6319 16.1931 11.5211 16.0602 11.5211Z" fill="#00AEEF"/>
<path d="M2 21.9502L4.05923 16.1489C3.26211 14.7539 2.86355 13.1597 2.86355 11.5433C2.86355 6.29559 7.137 2 12.4069 2C17.6767 2 21.9502 6.27345 21.9502 11.5433C21.9502 16.8132 17.6546 21.0866 12.3847 21.0866C10.7683 21.0866 9.17408 20.6659 7.77912 19.8909L2 21.9502ZM7.93412 18.4074L8.19983 18.5624C9.46193 19.3152 10.9233 19.7138 12.4069 19.7138C16.9239 19.7138 20.5995 16.0382 20.5995 11.5212C20.5995 7.00414 16.9239 3.32853 12.4069 3.32853C7.88983 3.32853 4.21422 7.00414 4.21422 11.5212C4.21422 13.0047 4.61278 14.4439 5.36562 15.7282L5.52062 15.9939L4.21422 19.7359L7.93412 18.4074Z" fill="#0033A1"/>
</svg>
