<svg width="24" height="24" viewBox="0 0 24 24" fill="none" xmlns="http://www.w3.org/2000/svg">
<path d="M18.9964 21.2205H5.18452C4.53638 21.2205 4 20.6841 4 20.0359V7.60969C4 7.2968 4.1341 7.00626 4.33524 6.78277L8.78276 2.33524C9.00626 2.11175 9.2968 2 9.60969 2H18.9741C19.6222 2 20.1586 2.53638 20.1586 3.18452V20.0806C20.1809 20.7064 19.6446 21.2205 18.9964 21.2205ZM18.9517 3.16217L9.63204 3.20687L5.20687 7.63204V20.0359L18.9517 19.9912V3.16217Z" fill="#0033A1"/>
<path d="M9.98974 7.98958H5.00583C4.69294 7.98958 4.42474 7.81079 4.29065 7.52025C4.1789 7.2297 4.24595 6.89446 4.44709 6.67097L8.69347 2.42459C8.91697 2.2011 9.22986 2.13405 9.5204 2.26814C9.81094 2.37989 9.98974 2.64808 9.98974 2.96097V7.98958ZM6.0786 6.76037H8.78287V4.05609L6.0786 6.76037Z" fill="#0033A1"/>
<path d="M16.627 10.8726H7.84367C7.50843 10.8726 7.24023 10.6044 7.24023 10.2692C7.24023 9.93396 7.50843 9.66577 7.84367 9.66577H16.627C16.9622 9.66577 17.2304 9.93396 17.2304 10.2692C17.2304 10.5821 16.9622 10.8726 16.627 10.8726Z" fill="#00AEEF"/>
<path d="M16.627 13.7782H7.84367C7.50843 13.7782 7.24023 13.51 7.24023 13.1747C7.24023 12.8395 7.50843 12.5713 7.84367 12.5713H16.627C16.9622 12.5713 17.2304 12.8395 17.2304 13.1747C17.2304 13.51 16.9622 13.7782 16.627 13.7782Z" fill="#00AEEF"/>
<path d="M16.627 16.6836H7.84367C7.50843 16.6836 7.24023 16.4154 7.24023 16.0801C7.24023 15.7449 7.50843 15.4767 7.84367 15.4767H16.627C16.9622 15.4767 17.2304 15.7449 17.2304 16.0801C17.2304 16.4154 16.9622 16.6836 16.627 16.6836Z" fill="#00AEEF"/>
</svg>
