<svg width="24" height="24" viewBox="0 0 24 24" fill="none" xmlns="http://www.w3.org/2000/svg">
<path d="M20.4282 19.2619H3.57175C2.70615 19.2619 2 18.5557 2 17.6901V7.39402C2 6.52842 2.70615 5.82227 3.57175 5.82227H20.4282C21.2939 5.82227 22 6.52842 22 7.39402V17.6901C22 18.5557 21.2939 19.2619 20.4282 19.2619ZM3.57175 6.82454C3.27563 6.82454 3.02506 7.07511 3.02506 7.37124V17.6901C3.02506 17.9863 3.27563 18.2368 3.57175 18.2368H20.4282C20.7244 18.2368 20.9749 17.9863 20.9749 17.6901V7.39402C20.9749 7.09789 20.7244 6.84732 20.4282 6.84732H3.57175V6.82454Z" fill="#0033A1"/>
<path d="M16.7385 10.4009H7.26237C6.98902 10.4009 6.76123 10.1731 6.76123 9.87699C6.76123 9.58087 6.98902 9.37585 7.26237 9.37585H16.7385C17.0118 9.37585 17.2396 9.60364 17.2396 9.87699C17.2396 10.1503 17.0118 10.4009 16.7385 10.4009Z" fill="#00AEEF"/>
<path d="M7.62614 7.98633C7.35279 7.98633 7.125 7.75854 7.125 7.48519V4.50114C7.125 4.22779 7.35279 4 7.62614 4C7.89949 4 8.12728 4.22779 8.12728 4.50114V7.48519C8.12728 7.75854 7.89949 7.98633 7.62614 7.98633Z" fill="#00AEEF"/>
<path d="M16.3737 7.98633C16.1003 7.98633 15.8726 7.75854 15.8726 7.48519V4.50114C15.8726 4.22779 16.1003 4 16.3737 4C16.647 4 16.8748 4.22779 16.8748 4.50114V7.48519C16.8976 7.75854 16.6698 7.98633 16.3737 7.98633Z" fill="#00AEEF"/>
<path d="M8.92524 12.9749H7.26237C6.98902 12.9749 6.76123 12.7471 6.76123 12.4738C6.76123 12.2004 6.98902 11.9727 7.26237 11.9727H8.92524C9.19859 11.9727 9.42638 12.2004 9.42638 12.4738C9.42638 12.7471 9.19859 12.9749 8.92524 12.9749Z" fill="#0033A1"/>
<path d="M12.8199 12.9749H11.1799C10.9065 12.9749 10.6787 12.7471 10.6787 12.4738C10.6787 12.2004 10.9065 11.9727 11.1799 11.9727H12.8427C13.1161 11.9727 13.3439 12.2004 13.3439 12.4738C13.3439 12.7471 13.1161 12.9749 12.8199 12.9749Z" fill="#0033A1"/>
<path d="M16.7377 12.9749H15.0749C14.8015 12.9749 14.5737 12.7471 14.5737 12.4738C14.5737 12.2004 14.8015 11.9727 15.0749 11.9727H16.7377C17.0111 11.9727 17.2389 12.2004 17.2389 12.4738C17.2389 12.7471 17.0111 12.9749 16.7377 12.9749Z" fill="#0033A1"/>
<path d="M8.92524 15.3895H7.26237C6.98902 15.3895 6.76123 15.1617 6.76123 14.8883C6.76123 14.615 6.98902 14.3872 7.26237 14.3872H8.92524C9.19859 14.3872 9.42638 14.615 9.42638 14.8883C9.42638 15.1617 9.19859 15.3895 8.92524 15.3895Z" fill="#0033A1"/>
<path d="M12.8199 15.3895H11.1799C10.9065 15.3895 10.6787 15.1617 10.6787 14.8883C10.6787 14.615 10.9065 14.3872 11.1799 14.3872H12.8427C13.1161 14.3872 13.3439 14.615 13.3439 14.8883C13.3439 15.1617 13.1161 15.3895 12.8199 15.3895Z" fill="#0033A1"/>
<path d="M16.7377 15.3895H15.0749C14.8015 15.3895 14.5737 15.1617 14.5737 14.8883C14.5737 14.615 14.8015 14.3872 15.0749 14.3872H16.7377C17.0111 14.3872 17.2389 14.615 17.2389 14.8883C17.2389 15.1617 17.0111 15.3895 16.7377 15.3895Z" fill="#0033A1"/>
</svg>
