<svg width="24" height="24" viewBox="0 0 24 24" fill="none" xmlns="http://www.w3.org/2000/svg">
<path d="M10.3888 19.125C10.1084 18.8231 9.84957 18.5212 9.54763 18.1977C8.31829 16.7526 7.02425 15.3723 5.81648 13.9489L5.79491 13.9273C4.19893 12.3745 3.50878 9.91579 4.09109 7.75906V7.73749C4.75968 4.97687 7.49873 2.84171 10.3456 2.88484C11.6181 2.88484 12.9121 3.27305 13.9689 3.98477C16.1688 5.42979 17.2903 8.34138 16.6433 10.8863C16.708 10.8863 16.7943 10.8648 16.8374 10.8432C16.9668 10.7785 17.0962 10.7569 17.2256 10.7569C17.355 10.7569 17.4628 10.7569 17.5707 10.8001C18.1746 7.95316 16.9237 4.86904 14.4866 3.27305C13.2788 2.45349 11.8338 2.00058 10.3672 2.00058C7.06739 1.95744 4.00483 4.32985 3.2284 7.52182C2.58138 10.0021 3.33624 12.7411 5.14789 14.5312C6.37723 15.9762 7.67127 17.3565 8.87904 18.78C8.87904 18.78 8.87904 18.78 8.90061 18.8015C9.26726 19.2113 9.65547 19.7074 10.1084 20.1171C10.2809 20.2897 10.5829 20.2897 10.7554 20.0956C11.3377 19.4486 11.8985 18.8015 12.4592 18.1545C12.3083 17.8526 12.2004 17.5291 12.0926 17.2056C11.5318 17.831 10.9495 18.4996 10.3888 19.125Z" fill="#0033A1"/>
<path d="M10.3677 6.22777C9.22459 6.22777 8.14623 6.87479 7.60704 7.86689C6.65808 9.50601 7.4992 11.7274 9.28929 12.3313C11.0362 13.0215 13.1067 11.8568 13.4518 10.0021C13.9047 8.10413 12.3087 6.16307 10.3677 6.22777ZM12.5891 9.80795V9.82952C12.3734 11.102 10.8206 11.9647 9.6128 11.4902C9.6128 11.4902 9.59124 11.4902 9.59124 11.4686C8.3619 11.0804 7.71488 9.41974 8.3619 8.29823C8.3619 8.29823 8.3619 8.29823 8.3619 8.27667C8.75011 7.58651 9.56967 7.09046 10.3677 7.11203H10.3892C11.7048 7.0689 12.891 8.51391 12.5891 9.80795Z" fill="#0033A1"/>
<path d="M20.5899 16.3645H19.4253H15.2412V14.0999C15.2412 13.0647 16.0823 12.2235 17.1176 12.2235C18.1528 12.2235 18.9939 13.0647 18.9939 14.0999V15.2645H19.8566V14.0999C19.8566 12.5902 18.6273 11.3608 17.1176 11.3608C15.6078 11.3608 14.3785 12.5902 14.3785 14.0999V16.3645H13.6452C13.408 16.3645 13.2139 16.5586 13.2139 16.7958V20.0956C13.2139 21.2818 14.1844 22.2308 15.349 22.2308H18.8645C20.0507 22.2308 20.9997 21.2602 20.9997 20.0956V16.7958C20.9997 16.5586 20.8271 16.3645 20.5899 16.3645ZM20.1586 20.074C20.1586 20.7858 19.5762 21.3681 18.8645 21.3681H15.349C14.6373 21.3681 14.055 20.7858 14.055 20.074V17.2056H14.7883H19.4037H20.1586V20.074Z" fill="#00AEEF"/>
<path d="M17.1179 20.5055C17.785 20.5055 18.3257 19.9648 18.3257 19.2977C18.3257 18.6307 17.785 18.09 17.1179 18.09C16.4509 18.09 15.9102 18.6307 15.9102 19.2977C15.9102 19.9648 16.4509 20.5055 17.1179 20.5055Z" fill="#00AEEF"/>
</svg>
