<svg width="24" height="24" viewBox="0 0 24 24" fill="none" xmlns="http://www.w3.org/2000/svg">
<path d="M19.2688 22.0041H4.28261C3.58505 22.0041 3 21.4641 3 20.789V7.85048C3 7.53546 3.13501 7.22043 3.38253 6.99541L8.19793 2.36003C8.44545 2.13501 8.76047 2 9.098 2H19.2688C19.9664 2 20.5514 2.54004 20.5514 3.2151V20.7665C20.5514 21.4416 19.9889 22.0041 19.2688 22.0041ZM19.2463 3.2151L9.098 3.2601L4.30511 7.87298L4.32761 20.7665L19.2463 20.7215V3.2151Z" fill="#0033A1"/>
<path d="M9.50295 8.23299H4.08001C3.74248 8.23299 3.44996 8.03047 3.31495 7.73795C3.17993 7.44543 3.24744 7.0854 3.49496 6.86038L8.10784 2.45001C8.33286 2.225 8.69289 2.15749 9.00791 2.27C9.30044 2.40501 9.50295 2.69753 9.50295 3.01256V8.23299ZM5.2501 6.97289H8.19785V4.13765L5.2501 6.97289Z" fill="#0033A1"/>
<path d="M12.3381 16.1087C11.9781 16.1087 11.6855 15.8162 11.6855 15.4787V11.9909C11.6855 11.6534 11.9781 11.3608 12.3381 11.3608C12.6981 11.3608 12.9907 11.6534 12.9907 11.9909V15.4787C13.0132 15.8387 12.7206 16.1087 12.3381 16.1087Z" fill="#0033A1"/>
<path d="M10.3134 11.8333C10.1334 11.8333 9.95341 11.7658 9.8184 11.6308C9.57088 11.3833 9.59338 10.9783 9.8634 10.7307L12.3386 8.57056L14.8138 10.7307C15.0838 10.9558 15.1063 11.3608 14.8588 11.6308C14.6113 11.8783 14.2063 11.9008 13.9362 11.6533L12.3386 10.2807L10.7635 11.6533C10.6285 11.7658 10.471 11.8333 10.3134 11.8333Z" fill="#00AEEF"/>
</svg>
