<svg width="24" height="24" viewBox="0 0 24 24" fill="none" xmlns="http://www.w3.org/2000/svg">
<path d="M12.8964 12.224C12.6225 12.224 12.4233 11.9999 12.4233 11.751V7.94183C12.4233 5.57668 14.3404 3.65967 16.7055 3.65967C19.0706 3.65967 20.9877 5.57668 20.9877 7.94183V11.5767C20.9877 11.8505 20.7636 12.0497 20.5146 12.0497C20.2408 12.0497 20.0416 11.8256 20.0416 11.5767V7.94183C20.0416 6.0995 18.5478 4.60573 16.7055 4.60573C14.8632 4.60573 13.3694 6.0995 13.3694 7.94183V11.751C13.3694 11.9999 13.1453 12.224 12.8964 12.224Z" fill="#0033A1"/>
<path d="M13.3695 8.86306C13.2948 8.86306 13.1952 8.86306 13.1205 8.86306C12.8466 8.86306 12.6475 8.63899 12.6475 8.39003C12.6475 8.11617 12.8715 7.9419 13.1205 7.917C13.1952 7.917 13.2699 7.917 13.3446 7.917C17.3778 7.917 19.1952 5.72613 19.2699 5.62655C19.4441 5.42738 19.7429 5.37758 19.9421 5.55186C20.1412 5.72613 20.191 5.99999 20.0168 6.22406C19.9421 6.32364 17.9006 8.86306 13.3695 8.86306Z" fill="#0033A1"/>
<path d="M16.7052 11.751C14.8629 11.751 13.3691 10.2572 13.3691 8.41492C13.3691 8.14106 13.5932 7.94189 13.8422 7.94189C14.0911 7.94189 14.3152 8.16596 14.3152 8.41492C14.3152 9.73443 15.3857 10.805 16.7052 10.805C18.0247 10.805 19.0953 9.73443 19.0953 8.41492C19.0953 8.14106 19.3193 7.94189 19.5683 7.94189C19.8173 7.94189 20.0413 8.16596 20.0413 8.41492C20.0413 10.2572 18.5476 11.751 16.7052 11.751Z" fill="#0033A1"/>
<path d="M23.054 17.527C22.7801 17.527 22.5809 17.3029 22.5809 17.054C22.5809 15.0872 21.61 13.2448 19.9668 12.1494C19.7428 12 19.6681 11.7013 19.8175 11.5021C19.9668 11.278 20.2656 11.2282 20.4648 11.3776C22.3818 12.6473 23.5021 14.7635 23.5021 17.054C23.527 17.3029 23.3029 17.527 23.054 17.527Z" fill="#00AEEF"/>
<path d="M20.2904 19.0954C20.0166 19.0954 19.8174 18.8714 19.8174 18.6224V15.9834C19.8174 15.7095 20.0414 15.5104 20.2904 15.5104C20.5394 15.5104 20.7634 15.7344 20.7634 15.9834V18.6224C20.7634 18.8963 20.5643 19.0954 20.2904 19.0954Z" fill="#00AEEF"/>
<path d="M0.946173 19.0954C0.672315 19.0954 0.473145 18.8714 0.473145 18.6224V17.0539C0.473145 14.4398 1.99182 12.0249 4.33206 10.9046C4.58103 10.7801 4.85489 10.8797 4.97937 11.1037C5.07895 11.3527 4.97937 11.6266 4.7553 11.751C2.71381 12.722 1.4192 14.7884 1.4192 17.0539V18.6473C1.4192 18.8963 1.19514 19.0954 0.946173 19.0954Z" fill="#00AEEF"/>
<path d="M13.6431 17.5269C13.3692 17.5269 13.1701 17.3029 13.1701 17.0539C13.1701 14.8133 11.8506 12.722 9.83396 11.751C9.60989 11.6265 9.51031 11.3527 9.60989 11.1037C9.73437 10.8796 10.0082 10.7552 10.2323 10.8796C12.5974 12.0249 14.1161 14.4398 14.1161 17.0539C14.1161 17.3029 13.892 17.5269 13.6431 17.5269Z" fill="#00AEEF"/>
<path d="M7.29436 12.224C4.92922 12.224 3.01221 10.307 3.01221 7.94183C3.01221 5.57668 4.92922 3.65967 7.29436 3.65967C9.65951 3.65967 11.5765 5.57668 11.5765 7.94183C11.5765 10.307 9.65951 12.224 7.29436 12.224ZM7.29436 4.60573C5.45204 4.60573 3.95827 6.0995 3.95827 7.94183C3.95827 9.78415 5.45204 11.2779 7.29436 11.2779C9.13669 11.2779 10.6305 9.78415 10.6305 7.94183C10.6305 6.0995 9.13669 4.60573 7.29436 4.60573Z" fill="#0033A1"/>
<path d="M3.7591 8.93773C3.68441 8.93773 3.58483 8.93773 3.51014 8.93773C3.23628 8.93773 3.03711 8.71366 3.03711 8.4647C3.03711 8.19084 3.23628 7.99167 3.51014 7.99167C7.99147 8.09126 9.98317 5.65142 10.0828 5.55184C10.257 5.35267 10.5558 5.30288 10.755 5.47715C10.9541 5.65142 11.0039 5.92528 10.8296 6.14935C10.755 6.24893 8.56408 8.93773 3.7591 8.93773Z" fill="#0033A1"/>
<path d="M4.00819 19.0954C3.73433 19.0954 3.53516 18.8714 3.53516 18.6224V15.9834C3.53516 15.7095 3.75922 15.5104 4.00819 15.5104C4.28204 15.5104 4.48121 15.7344 4.48121 15.9834V18.6224C4.48121 18.8963 4.28204 19.0954 4.00819 19.0954Z" fill="#00AEEF"/>
<path d="M10.8798 19.0954C10.6059 19.0954 10.4067 18.8714 10.4067 18.6224V15.9834C10.4067 15.7095 10.6308 15.5104 10.8798 15.5104C11.1287 15.5104 11.3528 15.7344 11.3528 15.9834V18.6224C11.3528 18.8963 11.1536 19.0954 10.8798 19.0954Z" fill="#00AEEF"/>
<path d="M13.643 19.0954C13.3691 19.0954 13.1699 18.8713 13.1699 18.6224V17.3029C13.1699 17.029 13.394 16.8298 13.643 16.8298C13.8919 16.8298 14.116 17.0539 14.116 17.3029V18.6224C14.116 18.8962 13.8919 19.0954 13.643 19.0954Z" fill="#00AEEF"/>
<path d="M16.7055 14.6639C16.4565 14.6639 16.1826 14.5643 15.9835 14.3651L14.0416 12.5477C13.8673 12.3734 13.8424 12.0747 14.0416 11.8755C14.2158 11.7012 14.5146 11.6763 14.7138 11.8506L16.6308 13.6929C16.6806 13.7427 16.7304 13.7178 16.7553 13.6929L18.6972 11.8755C18.8963 11.7012 19.1951 11.7012 19.3694 11.9004C19.5436 12.0996 19.5436 12.3983 19.3445 12.5726L17.4275 14.39C17.2283 14.5643 16.9544 14.6639 16.7055 14.6639Z" fill="#00AEEF"/>
<path d="M7.29461 14.6639C7.04564 14.6639 6.77178 14.5643 6.57261 14.3651L4.63071 12.5477C4.45643 12.3734 4.45643 12.0747 4.63071 11.8755C4.80498 11.7012 5.10373 11.6763 5.3029 11.8506L7.21992 13.6929C7.26971 13.7178 7.3195 13.7178 7.3444 13.6929L9.28631 11.8755C9.48548 11.6763 9.78423 11.7012 9.9585 11.8755C10.1328 12.0747 10.1328 12.3734 9.93361 12.5477L8.0166 14.39C7.81743 14.5643 7.54357 14.6639 7.29461 14.6639Z" fill="#00AEEF"/>
</svg>
