<svg width="24" height="24" viewBox="0 0 24 24" fill="none" xmlns="http://www.w3.org/2000/svg">
<path d="M12.2987 8.16588C14.0912 8.16588 15.5601 9.63476 15.5601 11.4273C15.5601 11.726 15.7842 11.9501 16.0829 11.9501C16.3817 11.9501 16.6058 11.726 16.6058 11.4273C16.6058 9.03725 14.6638 7.12024 12.2987 7.12024C11.9999 7.12024 11.7759 7.34431 11.7759 7.64306C11.7759 7.94182 11.9999 8.16588 12.2987 8.16588Z" fill="#00AEEF"/>
<path d="M12.2987 5.52696C15.5601 5.52696 18.1991 8.19086 18.1991 11.4274C18.1991 11.7261 18.4232 11.9502 18.7219 11.9502C19.0207 11.9502 19.2448 11.7261 19.2448 11.4274C19.2448 7.59335 16.1327 4.45642 12.2738 4.45642C11.9999 4.45642 11.7759 4.70538 11.7759 4.97924C11.7759 5.278 11.9999 5.52696 12.2987 5.52696Z" fill="#00AEEF"/>
<path d="M12.2987 1.79248C11.9999 1.79248 11.7759 2.01655 11.7759 2.3153C11.7759 2.61406 11.9999 2.83812 12.2987 2.83812C17.029 2.83812 20.8879 6.69704 20.8879 11.4273C20.8879 11.7261 21.112 11.9502 21.4107 11.9502C21.7095 11.9502 21.9336 11.7261 21.9336 11.4273C21.9336 6.12443 17.6016 1.79248 12.2987 1.79248Z" fill="#00AEEF"/>
<path d="M20.9874 17.5767L17.3277 14.7884C17.1783 14.639 16.9542 14.5643 16.7302 14.5643C16.4812 14.5643 16.2571 14.6639 16.0829 14.8381L14.8132 16.083C14.614 16.2821 14.3401 16.3319 14.0912 16.2074C13.4688 15.9336 12.8215 15.5601 12.199 15.1618C11.4771 14.6639 10.78 14.0913 10.1576 13.4689C9.53515 12.8216 8.96253 12.1245 8.46461 11.4025C8.06627 10.805 7.71772 10.1825 7.39407 9.53524C7.26959 9.28628 7.34428 8.98753 7.54345 8.81325L8.81316 7.56844C8.98743 7.39416 9.08702 7.1701 9.08702 6.92114C9.08702 6.69707 8.98743 6.473 8.83805 6.29873L6.12436 2.71367C6.09946 2.68877 6.09946 2.66387 6.07457 2.63898C5.90029 2.4896 5.67623 2.39001 5.45216 2.39001C5.2032 2.39001 4.97913 2.4896 4.80486 2.66387L4.30693 3.1618C2.21565 5.00412 1.49366 7.96678 2.5144 10.5062C3.43556 12.8464 4.80486 14.9626 6.57249 16.7801C8.38992 18.6224 10.5559 20.0664 13.0206 21.0373C13.8422 21.361 14.6887 21.5103 15.5351 21.5103C17.3775 21.5103 19.17 20.7884 20.4895 19.3942L21.0123 18.8713C21.1866 18.6971 21.2862 18.473 21.2862 18.224C21.2862 18 21.2115 17.7759 21.0372 17.6016C21.0372 17.6016 21.0123 17.5767 20.9874 17.5767ZM19.7675 18.6722C18.0995 20.3651 15.6098 20.9128 13.419 20.0415C11.0787 19.1452 9.03722 17.7759 7.34428 16.0332C5.65133 14.3153 4.35673 12.3485 3.48536 10.1328C2.63888 7.96678 3.26129 5.50205 5.00403 3.95848L5.02893 3.93358L5.42727 3.53524L7.96668 6.89624L6.79656 8.04147C6.27374 8.53939 6.14926 9.31118 6.44801 9.98338C6.77166 10.6805 7.17 11.3527 7.59324 12C8.11606 12.7718 8.73847 13.5186 9.41067 14.2157C10.0829 14.8879 10.8298 15.5103 11.6264 16.0332C12.2737 16.4813 12.9708 16.8547 13.643 17.1784C14.2903 17.4772 15.0621 17.3278 15.56 16.8299L16.7551 15.6597L20.1659 18.2738L19.7675 18.6722Z" fill="#0033A1"/>
</svg>
