<svg width="24" height="24" viewBox="0 0 24 24" fill="none" xmlns="http://www.w3.org/2000/svg">
<path d="M14.7656 5.01708C14.3999 5.01708 14.1027 4.71993 14.1027 4.35422V2.41135L9.85129 2.45707L9.89701 4.35422C9.89701 4.71993 9.59986 5.01708 9.23415 5.01708C8.86843 5.01708 8.57129 4.71993 8.57129 4.35422V2.41135C8.57129 1.70278 9.14272 1.13135 9.87415 1.13135H14.1713C14.8799 1.13135 15.4742 1.70278 15.4742 2.41135V4.35422C15.4285 4.71993 15.1313 5.01708 14.7656 5.01708Z" fill="#00AEEF"/>
<path d="M18.2401 22.0001H5.76007L4.13721 6.73145H19.863L18.2401 22.0001ZM6.94865 20.6744H17.0287L18.3544 8.05716H5.62293L6.94865 20.6744Z" fill="#0033A1"/>
<path d="M9.00541 19.9885C8.66255 19.9885 8.38826 19.7371 8.34255 19.3942L7.29112 9.47421C7.2454 9.10849 7.51969 8.78849 7.88541 8.74278C8.25112 8.69706 8.57112 8.97135 8.61684 9.33707L9.66827 19.2571C9.71398 19.6228 9.4397 19.9428 9.07398 19.9885C9.05112 19.9885 9.02827 19.9885 9.00541 19.9885Z" fill="#0033A1"/>
<path d="M14.9944 19.9886C14.9715 19.9886 14.9487 19.9886 14.9258 19.9886C14.5372 19.9428 14.2858 19.6228 14.3315 19.2571L15.383 9.31424C15.4287 8.94852 15.7487 8.67424 16.1144 8.71995C16.4801 8.76566 16.7544 9.08567 16.7087 9.45138L15.6344 19.3943C15.6115 19.7371 15.3144 19.9886 14.9944 19.9886Z" fill="#0033A1"/>
<path d="M11.9998 19.9886C11.6341 19.9886 11.3369 19.6914 11.3369 19.3257V9.19997C11.3369 8.83425 11.6341 8.53711 11.9998 8.53711C12.3655 8.53711 12.6626 8.83425 12.6626 9.19997V19.3257C12.6626 19.6914 12.3655 19.9886 11.9998 19.9886Z" fill="#0033A1"/>
<path d="M19.3372 8.05701C18.9715 8.05701 18.6743 7.75987 18.6743 7.39415V5.19986C18.6743 5.10843 18.6058 5.03986 18.5143 5.03986H5.50858C5.41715 5.03986 5.34858 5.10843 5.34858 5.19986V7.39415C5.34858 7.75987 5.05143 8.05701 4.68572 8.05701C4.32 8.05701 4 7.75987 4 7.39415V5.19986C4 4.377 4.66286 3.69128 5.50858 3.69128H18.4915C19.3143 3.69128 20.0001 4.35414 20.0001 5.19986V7.39415C20.0001 7.75987 19.7029 8.05701 19.3372 8.05701Z" fill="#0033A1"/>
</svg>
