<svg width="24" height="24" viewBox="0 0 24 24" fill="none" xmlns="http://www.w3.org/2000/svg">
<path d="M3.51168 21.9999C3.22247 21.9999 3 21.7775 3 21.4883V19.3971C3 16.0155 4.95773 12.901 8.00556 11.4327C8.27252 11.2992 8.58398 11.4104 8.69521 11.6774C8.80645 11.9443 8.69521 12.2558 8.42825 12.367C5.75862 13.6574 4.02336 16.416 4.02336 19.3971V21.466C4.02336 21.7552 3.77864 21.9999 3.51168 21.9999Z" fill="#00AEEF"/>
<path d="M20.1081 19.9087C19.8189 19.9087 19.5964 19.6863 19.5964 19.3971C19.5964 16.416 17.8612 13.6574 15.1693 12.367C14.9246 12.2558 14.8133 11.9443 14.9246 11.6774C15.058 11.4104 15.3695 11.2992 15.6142 11.4327C18.6621 12.901 20.642 16.0378 20.642 19.3971C20.642 19.6863 20.3973 19.9087 20.1081 19.9087Z" fill="#00AEEF"/>
<path d="M11.8099 12.99C8.78435 12.99 6.31494 10.5206 6.31494 7.49499C6.31494 4.46941 8.78435 2 11.8099 2C14.8355 2 17.3049 4.46941 17.3049 7.49499C17.3049 10.5206 14.8355 12.99 11.8099 12.99ZM11.8099 3.02336C9.34052 3.02336 7.3383 5.02558 7.3383 7.49499C7.3383 9.9644 9.34052 11.9444 11.8099 11.9444C14.2793 11.9444 16.2816 9.94215 16.2816 7.47274C16.2816 5.00333 14.2793 3.02336 11.8099 3.02336Z" fill="#0033A1"/>
<path d="M7.20427 8.6741C7.09304 8.6741 6.9818 8.6741 6.87057 8.6741C6.58136 8.6741 6.35889 8.42939 6.35889 8.14018C6.35889 7.85097 6.6036 7.6285 6.89281 7.6285C12.8327 7.73973 15.5469 4.42494 15.5691 4.38045C15.7471 4.15798 16.0808 4.11348 16.3033 4.29146C16.5035 4.49168 16.548 4.82539 16.37 5.04786C16.2365 5.20358 13.4334 8.6741 7.20427 8.6741Z" fill="#0033A1"/>
<path d="M7.51656 22C7.22735 22 7.00488 21.7775 7.00488 21.4883V18.0178C7.00488 17.7286 7.22735 17.5061 7.51656 17.5061C7.80577 17.5061 8.02824 17.7286 8.02824 18.0178V21.4883C8.02824 21.7553 7.80577 22 7.51656 22Z" fill="#00AEEF"/>
<path d="M16.5039 22C16.2147 22 15.9922 21.7775 15.9922 21.4883V18.0178C15.9922 17.7286 16.2147 17.5061 16.5039 17.5061C16.7931 17.5061 17.0155 17.7286 17.0155 18.0178V21.4883C17.0378 21.7553 16.7931 22 16.5039 22Z" fill="#00AEEF"/>
<path d="M20.1084 22.0001C19.8192 22.0001 19.5967 21.7776 19.5967 21.4884V19.7531C19.5967 19.4639 19.8192 19.2415 20.1084 19.2415C20.3976 19.2415 20.62 19.4639 20.62 19.7531V21.4884C20.6423 21.7554 20.3976 22.0001 20.1084 22.0001Z" fill="#00AEEF"/>
</svg>
