<svg width="24" height="24" viewBox="0 0 24 24" fill="none" xmlns="http://www.w3.org/2000/svg">
<g clip-path="url(#clip0_325_769)">
<path d="M1.29482 23.278L0.821792 22.8797C0.572829 22.6307 0.473244 22.2573 0.572829 21.9087L1.94212 17.0788L2.1164 16.9046L14.44 4.53113L19.1205 9.21163L6.62262 21.7593L1.29482 23.278ZM3.56038 18.0249L2.68901 21.0125L5.67656 20.1411L16.5811 9.21163L14.44 7.07055L3.56038 18.0249Z" fill="#0033A1"/>
<path d="M19.6434 8.68882L14.9878 4.00832L17.6517 1.34442C18.6475 0.348572 20.2658 0.348572 21.2368 1.34442L22.3073 2.41496C23.3031 3.41081 23.3031 5.02907 22.3073 6.02492L19.6434 8.68882ZM17.5023 4.00832L19.6434 6.1494L21.0376 4.75521C21.3363 4.45646 21.3363 3.98343 21.0376 3.68467L19.967 2.61413C19.6932 2.34027 19.1704 2.34027 18.8965 2.61413L17.5023 4.00832Z" fill="#00AEEF"/>
</g>
<defs>
<clipPath id="clip0_325_769">
<rect width="24" height="24" fill="white"/>
</clipPath>
</defs>
</svg>
