<svg width="24" height="24" viewBox="0 0 24 24" fill="none" xmlns="http://www.w3.org/2000/svg">
<path d="M18.7566 22.2327H4.24335C3.56516 22.2327 3 21.6901 3 20.9893V7.92287C3 7.60638 3.13564 7.28989 3.3617 7.04122L8.04122 2.3617C8.26728 2.13564 8.58377 2 8.92287 2H18.7566C19.4348 2 20 2.54255 20 3.24335V20.9893C20 21.6901 19.4348 22.2327 18.7566 22.2327ZM18.734 3.26596L8.92287 3.28856L4.26596 7.96808L4.28856 21.0119L18.734 20.9667V3.26596Z" fill="#0033A1"/>
<path d="M9.30692 8.3298H4.06225C3.72315 8.3298 3.42927 8.12635 3.31624 7.83246C3.1806 7.51597 3.24842 7.17688 3.49709 6.95082L7.95054 2.49736C8.17661 2.2713 8.5157 2.20348 8.80958 2.31651C9.10347 2.42954 9.30692 2.72343 9.30692 3.06252V8.3298ZM5.19257 7.04124H8.04097V4.19284L5.19257 7.04124Z" fill="#0033A1"/>
<path d="M12.0656 13.6876C11.7039 13.6876 11.4326 13.3937 11.4326 13.0546V9.528C11.4326 9.1663 11.7265 8.89502 12.0656 8.89502C12.4047 8.89502 12.6986 9.1889 12.6986 9.528V13.0546C12.6986 13.4163 12.4047 13.6876 12.0656 13.6876Z" fill="#0033A1"/>
<path d="M12.0657 16.5133L9.66946 14.3431C9.39818 14.1171 9.39818 13.7101 9.62424 13.4389C9.85031 13.1676 10.2572 13.1676 10.5285 13.3937L12.0657 14.7952L13.603 13.3937C13.8742 13.1676 14.2585 13.1676 14.5072 13.4389C14.7333 13.6875 14.7333 14.0944 14.462 14.3431L12.0657 16.5133Z" fill="#00AEEF"/>
</svg>
