<svg width="24" height="24" viewBox="0 0 24 24" fill="none" xmlns="http://www.w3.org/2000/svg">
<path d="M17.3527 20.0416C16.805 20.0416 16.4315 20.0167 16.3817 20.0167C16.083 19.9918 15.8838 19.7429 15.8838 19.4441C15.9336 19.1453 16.1576 18.9213 16.4564 18.9462C16.5062 18.9462 20.3651 19.22 22.2572 17.8756C22.5062 17.7014 22.8298 17.7512 23.0041 18.0001C23.1784 18.2491 23.1286 18.5727 22.8796 18.747C21.3112 19.8673 18.7469 20.0416 17.3527 20.0416Z" fill="#00AEEF"/>
<path d="M18.2489 17.1536L14.8879 14.5893C14.7385 14.4648 14.5393 14.3901 14.3402 14.3901C14.1161 14.3901 13.9169 14.4648 13.7426 14.6391L12.5725 15.7843C12.3982 15.9586 12.1493 16.0084 11.9252 15.9088C11.3277 15.6349 10.7551 15.3113 10.1825 14.9378C9.53517 14.4897 8.88787 13.9669 8.31526 13.3694C7.71775 12.7967 7.19493 12.1743 6.77169 11.5021C6.39824 10.9544 6.07459 10.3818 5.77584 9.78429C5.67625 9.56022 5.72605 9.28636 5.90032 9.11209L7.07044 7.96686C7.21982 7.81748 7.31941 7.59342 7.31941 7.36935C7.31941 7.14529 7.24472 6.94612 7.09534 6.79674L4.60571 3.51043C4.58082 3.48553 4.58082 3.46064 4.55592 3.46064C4.40654 3.31126 4.20737 3.23657 3.98331 3.23657C3.75924 3.23657 3.56007 3.31126 3.3858 3.48553L2.93766 3.93367C1.02065 5.62661 0.373349 8.34031 1.29451 10.6806C2.14098 12.8216 3.3858 14.7635 5.02895 16.4316C6.697 18.1245 8.6887 19.444 10.9543 20.3403C11.7011 20.6391 12.4978 20.7884 13.2696 20.7884C14.9377 20.7884 16.6057 20.1162 17.8256 18.8465L18.2987 18.3735C18.448 18.2241 18.5476 18.0001 18.5476 17.776C18.5476 17.5768 18.4729 17.3776 18.3236 17.2034C18.2738 17.1785 18.2738 17.1536 18.2489 17.1536ZM17.1036 18.1494C15.585 19.7179 13.3194 20.2158 11.3028 19.4191C9.16173 18.5727 7.29451 17.3528 5.72605 15.7345C4.18248 14.166 2.98746 12.3486 2.19078 10.332C1.41899 8.34031 1.96671 6.07475 3.58497 4.65566L3.60986 4.63076L3.98331 4.28222L6.32356 7.36935L5.22812 8.415C4.75509 8.88802 4.63061 9.58512 4.90447 10.1826C5.20322 10.8299 5.55177 11.4523 5.95011 12.0498C6.44804 12.7469 6.99575 13.444 7.61816 14.0664C8.26546 14.6889 8.93766 15.2366 9.65966 15.7345C10.2572 16.1328 10.9045 16.5063 11.5269 16.7801C12.1244 17.054 12.8215 16.9295 13.2696 16.4565L14.365 15.3859L17.502 17.776L17.1036 18.1494Z" fill="#0033A1"/>
</svg>
