<svg width="24" height="24" viewBox="0 0 24 24" fill="none" xmlns="http://www.w3.org/2000/svg">
<path d="M18.1993 13.444C18.1993 13.0207 18.1993 12.5975 18.1993 12.1493C18.1993 11.6265 17.9504 11.1784 17.5271 10.8796C17.1039 10.5809 16.5811 10.5062 16.108 10.6805C16.0085 10.7303 15.884 10.7801 15.7844 10.8298C15.7595 10.8298 15.7346 10.8547 15.7097 10.8547C15.5105 10.4564 15.1122 10.1079 14.6392 10.0083C14.1661 9.88378 13.6931 9.98337 13.3197 10.2821C13.0956 9.88379 12.7719 9.60993 12.3736 9.51034C11.9504 9.38586 11.552 9.41076 11.1537 9.63482V8.16594C11.1537 7.44395 11.1537 6.72196 11.1537 5.97507C11.1537 5.87549 11.1537 5.7759 11.1288 5.70121C11.079 5.30287 10.8549 4.95432 10.5313 4.68047C10.1827 4.4315 9.7844 4.33192 9.38606 4.38171C8.56448 4.50619 7.99187 5.1535 7.99187 5.99997V12.224C7.96697 12.1244 7.94207 12.0249 7.91718 11.9502C7.66821 11.2282 6.87153 10.7801 6.12465 10.9543C5.67651 11.0539 5.27817 11.3029 5.05411 11.7012C4.83004 12.0747 4.78025 12.5477 4.92962 13.0207L6.32382 17.3776C6.47319 17.8506 6.62257 18.3236 6.77195 18.7966C6.99601 19.4937 7.26987 20.0664 7.66821 20.5643C8.81344 22.0581 10.3072 22.8547 12.1246 22.9294C12.2242 22.9294 12.3238 22.9294 12.4234 22.9294C13.8176 22.9294 15.0873 22.4564 16.1827 21.5103C17.5022 20.3651 18.1744 18.9211 18.2242 17.2033C18.2242 15.9585 18.2242 14.6888 18.1993 13.444ZM10.5562 13.668C10.6807 13.7427 10.8051 13.7427 10.9296 13.668C11.0541 13.5933 11.1288 13.4937 11.1537 13.3444C11.1537 13.3195 11.1537 13.2946 11.1537 13.2697V11.0788C11.1537 10.7054 11.3529 10.4066 11.6765 10.307C12.0002 10.2074 12.3487 10.307 12.5728 10.6058C12.6475 10.7054 12.6973 10.8547 12.6973 11.029C12.6973 11.4522 12.6973 11.9004 12.6973 12.3236C12.6973 12.7469 12.6973 13.195 12.6973 13.6182C12.6973 13.7178 12.7222 13.8423 12.8217 13.9419C12.9462 14.0664 13.0956 14.0913 13.245 14.0415C13.3944 13.9917 13.4939 13.8423 13.5188 13.668C13.5188 13.6431 13.5188 13.6182 13.5188 13.6182V12.9709C13.5188 12.4979 13.5188 12 13.5188 11.5269C13.5188 11.2033 13.6682 10.9792 13.967 10.8298C14.2408 10.7303 14.4898 10.7552 14.7388 10.9543C14.9379 11.0788 15.0375 11.278 15.0375 11.5269C15.0375 11.6514 15.0375 11.751 15.0375 11.8755V14.3402C15.0375 14.5892 15.2118 14.7883 15.4358 14.7883C15.5603 14.7883 15.635 14.7386 15.7097 14.6888C15.7844 14.6141 15.8342 14.4896 15.8342 14.3651C15.8342 13.8921 15.8342 13.4191 15.8342 12.946V12.2489C15.8342 11.8506 16.0334 11.5767 16.3819 11.4771C16.606 11.4025 16.8549 11.4522 17.0541 11.6016C17.2782 11.7012 17.3778 11.9253 17.3778 12.1742C17.3778 12.5726 17.3778 12.946 17.3778 13.3444C17.3778 14.6141 17.3778 15.9336 17.3778 17.2282C17.3529 19.6182 15.5852 21.6348 13.1952 22.0581C10.7305 22.4813 8.31552 20.9875 7.56863 18.5975C7.39435 18.0249 7.22008 17.4771 7.04581 16.9294C6.97112 16.6556 6.87153 16.3817 6.79684 16.1327L6.57278 15.4854C6.27402 14.5643 6.00016 13.668 5.70141 12.7469C5.57693 12.3236 5.7761 11.9004 6.19933 11.7759C6.27402 11.751 6.34871 11.751 6.4234 11.751C6.74705 11.751 7.04581 11.9751 7.14539 12.2987C7.44415 13.1701 7.71801 14.0415 8.01676 14.9377C8.06655 15.112 8.19104 15.2116 8.34041 15.2365C8.46489 15.2614 8.58938 15.2365 8.66406 15.1369C8.76365 15.0622 8.81344 14.9377 8.81344 14.7883C8.81344 14.3402 8.81344 13.917 8.81344 13.4688V8.91283C8.81344 7.94188 8.81344 6.97092 8.81344 5.99997C8.81344 5.55184 9.13709 5.20329 9.56033 5.20329C9.98357 5.20329 10.3321 5.52694 10.3321 5.95018C10.3321 6.39831 10.3321 6.84644 10.3321 7.29457V8.93773C10.3321 10.3817 10.3321 11.8257 10.3321 13.2697C10.357 13.444 10.4068 13.5684 10.5562 13.668Z" fill="#0033A1"/>
<path d="M13.071 2.71378C13.071 2.81337 13.0212 2.91295 12.9465 2.98764C12.6228 3.31129 12.2743 3.65984 11.9506 3.98349C11.9008 4.03328 11.851 4.08308 11.8013 4.13287C11.6519 4.25735 11.4527 4.25735 11.3282 4.13287C11.2037 3.98349 11.2037 3.78432 11.3282 3.65984C11.7266 3.2615 12.1249 2.86316 12.5232 2.46482C12.6228 2.36523 12.7722 2.34034 12.8967 2.39013C13.0212 2.46482 13.071 2.5644 13.071 2.71378Z" fill="#00AEEF"/>
<path d="M5.9255 6.19918C5.65164 6.19918 5.37778 6.19918 5.10392 6.19918C4.90475 6.19918 4.75537 6.0498 4.75537 5.87552C4.75537 5.67635 4.90475 5.52698 5.10392 5.52698C5.65164 5.52698 6.19935 5.52698 6.74707 5.52698C6.94624 5.52698 7.09562 5.67635 7.09562 5.87552C7.09562 6.0747 6.94624 6.19918 6.74707 6.19918C6.47321 6.19918 6.19935 6.19918 5.9255 6.19918Z" fill="#00AEEF"/>
<path d="M9.90902 2.24068C9.90902 2.51454 9.90902 2.8133 9.90902 3.08715C9.90902 3.26143 9.78453 3.38591 9.63516 3.41081C9.48578 3.41081 9.3364 3.33612 9.28661 3.18674C9.26171 3.13695 9.23682 3.08715 9.23682 3.03736C9.23682 2.51454 9.23682 1.96682 9.23682 1.444C9.23682 1.21993 9.38619 1.07056 9.58536 1.07056C9.78453 1.07056 9.90902 1.21993 9.90902 1.444C9.90902 1.69296 9.90902 1.96682 9.90902 2.24068Z" fill="#00AEEF"/>
<path d="M13.2448 6.19918C12.971 6.19918 12.6971 6.19918 12.4232 6.19918C12.1992 6.19918 12.0498 6.0747 12.0498 5.87552C12.0498 5.67635 12.1992 5.52698 12.4232 5.52698C12.971 5.52698 13.4938 5.52698 14.0415 5.52698C14.2158 5.52698 14.3403 5.62656 14.3901 5.77594C14.4149 5.92532 14.3652 6.0747 14.2158 6.14938C14.166 6.19918 14.0913 6.19918 14.0415 6.19918C13.7676 6.19918 13.4938 6.19918 13.2448 6.19918Z" fill="#00AEEF"/>
<path d="M7.94217 3.83402C7.94217 4.03319 7.86749 4.13278 7.743 4.18257C7.59363 4.25726 7.46915 4.23236 7.34466 4.10788C7.1206 3.88382 6.89653 3.65975 6.67246 3.43568C6.52309 3.28631 6.34881 3.11203 6.19944 2.96265C6.05006 2.81328 6.05006 2.61411 6.19944 2.46473C6.32392 2.34025 6.52309 2.34025 6.67246 2.48963C7.04591 2.86307 7.44425 3.23651 7.81769 3.63485C7.89238 3.68465 7.91728 3.78423 7.94217 3.83402Z" fill="#00AEEF"/>
</svg>
