<svg width="24" height="24" viewBox="0 0 24 24" fill="none" xmlns="http://www.w3.org/2000/svg">
<path d="M20.0126 10.3332C20.0126 10.0187 20.0126 9.72679 19.9901 9.41238C19.9901 9.36746 19.9901 9.32255 19.9901 9.27763C19.9452 8.9183 19.8778 8.55898 19.788 8.19965C19.6083 7.43608 19.2939 6.71742 18.9122 6.06614C18.9122 6.04368 18.8897 6.04368 18.8897 6.02123C18.71 5.75173 18.5079 5.45978 18.3058 5.21274C18.2384 5.12291 18.1486 5.03308 18.0812 4.94324C17.9465 4.78604 17.8117 4.65129 17.6545 4.49408C17.4973 4.35934 17.3625 4.20213 17.2053 4.08984C17.0032 3.93264 16.8011 3.77543 16.599 3.64068C16.5765 3.61822 16.5316 3.57331 16.5091 3.55085C16.1723 3.34873 15.8354 3.14661 15.4985 2.9894C15.4761 2.9894 15.4761 2.96694 15.4536 2.96694C14.443 2.49533 13.3201 2.22583 12.1748 2.22583C12.1523 2.22583 12.1523 2.22583 12.1298 2.22583C12.1074 2.22583 12.1074 2.22583 12.0849 2.22583C10.9396 2.22583 9.81667 2.49533 8.78361 2.96694C8.76115 2.96694 8.76115 2.9894 8.73869 2.9894C8.40182 3.14661 8.06495 3.32627 7.75054 3.55085C7.70562 3.57331 7.68316 3.61822 7.63825 3.64068C7.43613 3.77543 7.23401 3.93264 7.05434 4.08984C6.89714 4.22459 6.73993 4.35934 6.60518 4.49408C6.44798 4.62883 6.31323 4.78604 6.17848 4.94324C6.11111 5.03308 6.02127 5.12291 5.9539 5.21274C5.75178 5.45978 5.54966 5.75173 5.36999 6.02123C5.36999 6.04368 5.34754 6.04368 5.34754 6.06614C4.96575 6.71742 4.65134 7.43608 4.47168 8.19965C4.38184 8.55898 4.31447 8.9183 4.26955 9.27763C4.26955 9.32255 4.26955 9.36746 4.26955 9.41238C4.2471 9.72679 4.22464 10.0412 4.2471 10.3332C4.2471 10.4904 4.26955 10.6476 4.29201 10.8048C4.31447 11.0069 4.33693 11.1866 4.35939 11.3887C4.38184 11.4561 4.35939 11.5234 4.38184 11.5908H4.4043C4.69625 13.1404 5.43737 14.5777 6.58272 15.7006C7.68316 16.9807 8.78361 18.2833 9.86159 19.5409C9.83913 19.5634 9.86159 19.5185 9.86159 19.5409C10.468 20.2371 11.0519 20.9333 11.6807 21.6295C11.793 21.7643 11.9726 21.8092 12.1298 21.7643C12.287 21.8092 12.4667 21.7643 12.579 21.6295C13.2078 20.9333 13.7917 20.2371 14.3981 19.5409C14.3756 19.5185 14.4206 19.5634 14.3981 19.5409C15.4985 18.3057 16.599 16.9807 17.6994 15.7006C18.8223 14.6002 19.5634 13.1404 19.8554 11.6133H19.8778C19.9003 11.5459 19.9003 11.4785 19.9003 11.4111C19.9452 11.209 19.9677 11.0069 19.9677 10.8272C19.9901 10.6476 20.0126 10.4904 20.0126 10.3332ZM17.0032 15.0493L16.9808 15.0718C15.6782 16.5765 14.2858 18.0587 12.9608 19.5858C12.6464 19.9227 12.3769 20.2147 12.1298 20.5066C11.8603 20.2147 11.6133 19.9227 11.3214 19.6083C9.99634 18.0587 8.58148 16.5765 7.27892 15.0718L7.25646 15.0493C6.2234 14.0612 5.54966 12.7137 5.30262 11.2764C5.28016 11.1866 5.2577 11.0967 5.2577 10.9844C5.23525 10.8048 5.21279 10.6027 5.21279 10.423C5.21279 10.2209 5.21279 10.0412 5.21279 9.83908C5.21279 9.74925 5.21279 9.63696 5.23525 9.54713C5.32508 8.53652 5.63949 7.52591 6.15602 6.62759C6.29077 6.38055 6.47043 6.15597 6.62764 5.93139C7.18909 5.21274 7.86283 4.60637 8.64886 4.15721C8.73869 4.08984 8.82852 4.02247 8.94081 3.97755C9.0531 3.91018 9.16539 3.86526 9.27768 3.79789C9.54718 3.6856 9.81667 3.57331 10.1086 3.48348C10.1311 3.48348 10.1311 3.48348 10.1535 3.46102C10.7824 3.28135 11.4561 3.16906 12.1298 3.16906C12.8036 3.16906 13.4549 3.2589 14.1061 3.46102C14.1286 3.46102 14.1286 3.46102 14.1511 3.48348C14.443 3.57331 14.7125 3.6856 14.982 3.79789C15.0943 3.8428 15.2066 3.91018 15.3189 3.97755C15.4312 4.02247 15.521 4.08984 15.6333 4.15721C16.4193 4.62883 17.0931 5.21274 17.6545 5.93139C18.4181 6.98692 18.9121 8.24456 19.0244 9.54713C19.0244 9.63696 19.0244 9.74925 19.0469 9.83908C19.0469 10.0412 19.0469 10.2209 19.0469 10.423C19.0469 10.6027 19.0244 10.8048 19.002 10.9844C18.9795 11.0967 18.9795 11.1866 18.9571 11.2764C18.71 12.7137 18.0363 14.0612 17.0032 15.0493Z" fill="#0033A1"/>
<path d="M9.14301 8.53652C8.15486 10.2882 9.07564 12.6688 10.9846 13.2976C12.871 14.0387 15.0944 12.7811 15.4312 10.7823C15.9029 8.73864 14.1961 6.67251 12.1075 6.73989C10.8723 6.73989 9.72692 7.45854 9.14301 8.53652ZM14.5105 10.5802V10.6027C14.2859 11.9726 12.624 12.9158 11.3214 12.3993C11.3214 12.3993 11.299 12.3993 11.299 12.3768C9.97396 11.9726 9.30022 10.1984 9.97396 9.00814V8.98568C10.3782 8.22211 11.2316 7.70558 12.085 7.70558H12.1075C13.5672 7.6382 14.8473 9.1878 14.5105 10.5802Z" fill="#00AEEF"/>
<path d="M12.1299 13.7467C11.7032 13.7467 11.2989 13.6794 10.9171 13.5222C9.92899 13.2077 9.14296 12.4442 8.76118 11.4111C8.35693 10.4005 8.42431 9.32252 8.94084 8.4242C9.54721 7.25638 10.7824 6.51527 12.085 6.51527C13.1405 6.47036 14.1735 6.96443 14.8922 7.81783C15.6109 8.67124 15.9028 9.79413 15.6782 10.8497C15.4986 11.8603 14.8473 12.7361 13.9041 13.2751C13.3426 13.5895 12.7362 13.7467 12.1299 13.7467ZM12.1074 6.98689C10.9621 6.98689 9.88408 7.63817 9.36754 8.64878C8.91838 9.41235 8.87347 10.378 9.21034 11.2539C9.54721 12.1298 10.2209 12.8035 11.0743 13.0955C11.9278 13.4323 12.871 13.3425 13.6795 12.8709C14.5104 12.3993 15.0719 11.6357 15.2066 10.7598C15.4087 9.83905 15.1842 8.87336 14.5553 8.13225C13.9265 7.36867 13.0282 6.94197 12.1074 6.98689ZM12.085 12.781C11.8155 12.781 11.546 12.7361 11.2765 12.6463H11.254L11.1866 12.6014C10.5354 12.3993 9.95145 11.8154 9.6595 11.0742C9.36754 10.3107 9.41246 9.50218 9.77179 8.87336C10.2209 8.01996 11.1417 7.45851 12.085 7.45851H12.3095C12.9833 7.50342 13.657 7.86275 14.1286 8.44666C14.6676 9.09794 14.8697 9.90642 14.7125 10.6251L14.488 10.5802L14.7125 10.6251L14.488 10.5802L14.7125 10.6475C14.6227 11.3662 14.1286 12.0399 13.41 12.4217C12.9833 12.6688 12.5341 12.781 12.085 12.781ZM11.4112 12.1971C11.9502 12.3993 12.6015 12.3319 13.1854 12.0175C13.7693 11.6806 14.1735 11.1416 14.2634 10.5802V10.5352C14.3981 9.95134 14.2185 9.2776 13.7918 8.76107C13.3651 8.22208 12.7587 7.90767 12.1299 7.93012H11.8828C11.2091 8.01995 10.5354 8.46911 10.1985 9.09794C9.90653 9.61447 9.86162 10.2882 10.1087 10.8946C10.3557 11.5234 10.8273 11.995 11.3663 12.1747L11.4112 12.1971Z" fill="#00AEEF"/>
</svg>
