<svg width="24" height="24" viewBox="0 0 24 24" fill="none" xmlns="http://www.w3.org/2000/svg">
<path d="M8.6392 10.332C8.6392 10.0084 8.46492 9.73452 8.26575 9.58514C8.09148 9.46066 7.89231 9.41087 7.69314 9.41087H6.54791C6.42343 9.41087 6.07488 9.23659 6.00019 9.16191C5.85082 8.93784 5.80102 8.81336 5.80102 8.71377C5.75123 8.48971 5.72634 8.19095 5.65165 7.91709C5.55206 7.64323 5.40268 7.31958 5.07903 7.14531L4.606 6.84655C4.33214 6.67228 4.00849 6.64738 3.73463 6.72207C3.46078 6.79676 3.23671 6.97103 3.08733 7.22L1.22011 10.1578C0.946253 10.581 0.796875 11.054 0.796875 11.5519V19.469C0.796875 19.6681 0.971149 19.8424 1.17032 19.8424H2.66409C2.86327 19.8424 3.03754 19.693 3.03754 19.4939L3.38609 12.9461C3.41098 12.6723 3.48567 12.3984 3.65995 12.1495L4.606 10.7553L4.92966 11.0789C5.05414 11.2034 5.22841 11.2781 5.42758 11.2781H7.71804C8.21596 11.2781 8.6392 10.8549 8.6392 10.332ZM5.12883 10.2075C4.80517 9.8839 4.23256 9.93369 3.9836 10.332L3.03754 11.7262C2.78858 12.0748 2.66409 12.498 2.6392 12.9212L2.31555 19.0955H1.54376V11.5519C1.54376 11.2034 1.64335 10.8549 1.84252 10.5561L3.70974 7.61834C3.75953 7.51875 3.85912 7.46896 3.9338 7.44406C4.00849 7.41917 4.10808 7.41917 4.23256 7.49386L4.70559 7.76771C4.80517 7.8424 4.87986 7.94199 4.95455 8.14116C4.97945 8.31543 5.02924 8.5644 5.05414 8.81336C5.07903 9.11211 5.22841 9.33618 5.40268 9.58514C5.67654 9.95859 6.09978 10.1578 6.54791 10.1578H7.71804C7.71804 10.1578 7.71804 10.1578 7.74293 10.1578C7.71804 10.1578 7.81762 10.1827 7.84252 10.2075C7.89231 10.2324 7.91721 10.2573 7.91721 10.3569C7.91721 10.4565 7.84252 10.5312 7.74293 10.5312H5.42758L5.12883 10.2075Z" fill="#00AEEF"/>
<path d="M6.02503 7.17017C6.8466 7.17017 7.5188 6.49797 7.5188 5.67639C7.5188 4.85482 6.8466 4.18262 6.02503 4.18262C5.20345 4.18262 4.53125 4.85482 4.53125 5.67639C4.53125 6.49797 5.20345 7.17017 6.02503 7.17017ZM6.02503 4.92951C6.44826 4.92951 6.77191 5.25316 6.77191 5.67639C6.77191 6.09963 6.44826 6.42328 6.02503 6.42328C5.60179 6.42328 5.27814 6.09963 5.27814 5.67639C5.27814 5.25316 5.60179 4.92951 6.02503 4.92951Z" fill="#00AEEF"/>
<path d="M12.3738 13.8921C10.7306 13.8921 9.38623 15.2365 9.38623 16.8796C9.38623 18.5228 10.7306 19.8672 12.3738 19.8672C14.0169 19.8672 15.3613 18.5228 15.3613 16.8796C15.3613 15.2365 14.0169 13.8921 12.3738 13.8921ZM12.3738 19.0954C11.129 19.0954 10.1331 18.0996 10.1331 16.8547C10.1331 15.6099 11.129 14.6141 12.3738 14.6141C13.6186 14.6141 14.6144 15.6099 14.6144 16.8547C14.6144 18.0996 13.5937 19.0954 12.3738 19.0954Z" fill="#0033A1"/>
<path d="M12.3737 15.386C11.5521 15.386 10.8799 16.0582 10.8799 16.8798C10.8799 17.7013 11.5521 18.3735 12.3737 18.3735C13.1952 18.3735 13.8674 17.7013 13.8674 16.8798C13.8674 16.0582 13.1952 15.386 12.3737 15.386ZM12.3737 17.6267C11.9504 17.6267 11.6268 17.303 11.6268 16.8798C11.6268 16.4565 11.9504 16.1329 12.3737 16.1329C12.7969 16.1329 13.1205 16.4565 13.1205 16.8798C13.1205 17.2781 12.772 17.6267 12.3737 17.6267Z" fill="#0033A1"/>
<path d="M22.8301 9.03742C23.0292 9.03742 23.2035 8.86314 23.2035 8.66397C23.2035 8.4648 23.0292 8.29053 22.8301 8.29053H20.5147C20.216 8.29053 19.9172 8.41501 19.718 8.61418L16.9546 11.3777C16.8799 11.4524 16.8301 11.5519 16.8301 11.6515C16.8301 11.8507 17.0044 12.025 17.2035 12.025H22.8052C23.0044 12.025 23.1786 11.8507 23.1786 11.6515C23.1786 11.4524 23.0044 11.2781 22.8052 11.2781H20.938V9.03742H22.8301ZM20.1911 11.2781H18.1247L20.216 9.18679V11.2781H20.1911Z" fill="#0033A1"/>
<path d="M22.4567 13.5187C22.6558 13.5187 22.8301 13.3445 22.8301 13.1453C22.8301 12.9461 22.6558 12.7719 22.4567 12.7719H21.3114C21.1123 12.7719 20.938 12.9461 20.938 13.1453C20.938 13.3445 21.1123 13.5187 21.3114 13.5187H22.4567Z" fill="#0033A1"/>
<path d="M22.8054 17.6266H16.0834C15.8842 17.6266 15.71 17.8009 15.71 18.0001C15.71 18.1993 15.8842 18.3735 16.0834 18.3735H22.8054C23.0046 18.3735 23.1788 18.1993 23.1788 18.0001C23.1788 17.776 23.0295 17.6017 22.8054 17.6266Z" fill="#0033A1"/>
<path d="M20.6141 7.54361H22.8299C23.029 7.54361 23.2033 7.36934 23.2033 7.17017C23.2033 6.971 23.029 6.79672 22.8299 6.79672H20.6141C19.7676 6.79672 18.9461 7.12037 18.3486 7.69299L15.2116 10.581C15.0125 10.7552 14.7635 10.9046 14.5394 11.0291L10.0332 5.80087C9.98341 5.72618 9.85893 5.67639 9.75934 5.67639H8.63901V6.42328H9.58507L11.6266 8.78842V11.4025L8.98756 11.527C7.54357 11.6017 6.39835 12.7967 6.39835 14.2656V16.4316C6.17428 16.6307 6.0249 16.9295 6.0249 17.2532C6.0249 17.3527 6.07469 17.4523 6.12449 17.527C6.24897 18 6.62241 18.3735 7.14523 18.3735H8.63901C8.83818 18.3735 9.01245 18.1992 9.01245 18C9.01245 17.8009 8.83818 17.6266 8.63901 17.6266H7.14523C6.94606 17.6266 6.77179 17.4523 6.77179 17.2532C6.77179 17.054 6.94606 16.8797 7.14523 16.8797H8.26557C8.46474 16.8797 8.63901 16.7054 8.63901 16.5063C8.63901 16.3071 8.46474 16.1328 8.26557 16.1328H7.14523V14.2656C7.14523 13.22 7.96681 12.3486 9.03735 12.2988L13.4689 12.0996C14.3154 12.0498 15.112 11.7262 15.7095 11.1536L18.8465 8.2656C19.3195 7.79257 19.9668 7.54361 20.6141 7.54361ZM13.4191 11.3278L12.3734 11.3776V9.65979L13.7676 11.2781C13.6432 11.3029 13.5436 11.3278 13.4191 11.3278Z" fill="#0033A1"/>
<path d="M22.8054 16.1327H17.9506C17.7514 16.1327 17.5771 16.307 17.5771 16.5062C17.5771 16.7054 17.7514 16.8796 17.9506 16.8796H22.8054C23.0045 16.8796 23.1788 16.7054 23.1788 16.5062C23.1788 16.2821 23.0294 16.1078 22.8054 16.1327Z" fill="#0033A1"/>
</svg>
