<svg width="24" height="24" viewBox="0 0 24 24" fill="none" xmlns="http://www.w3.org/2000/svg">
<g clip-path="url(#clip0_325_778)">
<path d="M9.46067 20.0664C9.16192 19.7178 8.86316 19.3693 8.51461 18.9958C7.09553 17.3029 5.60175 15.7095 4.20756 14.0912L4.18266 14.0664C2.31544 12.2489 1.54366 9.43565 2.21586 6.94602V6.92113C2.98764 3.7344 6.14947 1.26967 9.43578 1.31947C10.9047 1.31947 12.3984 1.7676 13.6183 2.58918C16.1578 4.25723 17.4524 7.61822 16.7055 10.556C16.7802 10.5311 16.8549 10.5062 16.9296 10.4813C17.0789 10.4315 17.2283 10.4066 17.3777 10.3817C17.5271 10.3817 17.6515 10.3817 17.776 10.4315C18.4482 7.17009 17.0042 3.58503 14.191 1.7427C12.7968 0.796645 11.1287 0.29872 9.43578 0.29872C5.65154 0.224031 2.11627 2.98752 1.22001 6.67216C0.448224 9.51034 1.31959 12.6971 3.41088 14.7634C4.82997 16.4315 6.34864 18.0249 7.71793 19.668C7.71793 19.668 7.71793 19.668 7.74283 19.6929C8.16607 20.1659 8.6142 20.7386 9.13702 21.2116C9.33619 21.4108 9.68474 21.4108 9.88391 21.1867C10.5561 20.4398 11.2034 19.6929 11.8507 18.946C11.6764 18.5975 11.552 18.224 11.4275 17.8257C10.7802 18.5726 10.1329 19.3195 9.46067 20.0664Z" fill="#0033A1"/>
<path d="M6.24901 7.07055C5.15357 8.93777 6.12453 11.5021 8.19092 12.1992C10.2075 12.9959 12.6225 11.6515 12.9959 9.51038C13.5187 7.31951 11.7013 5.10374 9.43573 5.15353C8.11623 5.15353 6.87142 5.90042 6.24901 7.07055ZM12 9.31121V9.33611C11.7511 10.805 9.95855 11.8008 8.56436 11.2531C8.56436 11.2531 8.53947 11.2531 8.53947 11.2282C7.12038 10.7552 6.39839 8.86308 7.14527 7.56847C7.14527 7.56847 7.14527 7.56847 7.14527 7.54358C7.59341 6.722 8.51457 6.17428 9.43573 6.17428H9.46063C11.0042 6.12449 12.3735 7.79254 12 9.31121Z" fill="#0033A1"/>
<path d="M22.5311 12.6722C20.3402 12.6722 18.7717 11.8755 17.6016 11.4523C17.5518 11.4274 17.4771 11.4274 17.4273 11.4274C17.3776 11.4274 17.3278 11.4274 17.278 11.4523C15.9585 11.9253 13.9668 12.6722 12.3485 12.6722C12.0746 12.6722 11.8257 12.8962 11.8257 13.195C11.8257 14.6888 12 15.9834 12.2738 17.1037C12.2738 17.2033 12.2987 17.3029 12.3485 17.4025C12.7219 18.722 13.2448 19.8174 13.8921 20.7137C13.9419 20.8133 13.9917 20.8879 14.0663 20.9377C14.9875 22.1328 16.0829 23.0041 17.1784 23.6265C17.3278 23.7261 17.5269 23.7261 17.7012 23.6265C19.2448 22.7303 20.8132 21.361 21.8589 19.195C21.9087 19.1203 21.9336 19.0456 21.9585 18.9709C22.4564 17.8755 22.8049 16.5809 22.9543 15.0124C22.9792 14.9377 23.0041 14.8631 22.9792 14.7884C23.029 14.2904 23.0539 13.7676 23.0539 13.2199C23.0539 12.9211 22.8298 12.6722 22.5311 12.6722ZM17.4273 22.556C16.6805 22.1079 15.9585 21.5353 15.3361 20.8382L20.4398 19.6431C19.5933 20.9875 18.5477 21.8838 17.4273 22.556ZM21.0622 18.4232L14.639 19.917C14.1908 19.2448 13.7925 18.4481 13.4937 17.5021L21.8091 15.5353C21.6597 16.6556 21.3859 17.6016 21.0622 18.4232ZM21.9087 14.4647L13.2448 16.5062C13.0456 15.6348 12.9211 14.7137 12.8962 13.6182C14.5892 13.4938 16.2821 12.8962 17.4273 12.4979C18.3983 12.8714 19.9419 13.4938 21.9834 13.6431C21.9585 13.917 21.9336 14.1909 21.9087 14.4647Z" fill="#00AEEF"/>
</g>
<defs>
<clipPath id="clip0_325_778">
<rect width="24" height="24" fill="white"/>
</clipPath>
</defs>
</svg>
