<svg width="24" height="24" viewBox="0 0 24 24" fill="none" xmlns="http://www.w3.org/2000/svg">
<path d="M16.5809 22.8547H7.21993C6.69711 22.8547 6.19918 22.556 5.95022 22.083L1.24483 13.6431C0.995865 13.1701 0.995865 12.5975 1.24483 12.1245L5.92533 3.65972C6.17429 3.18669 6.67221 2.88794 7.19503 2.88794H16.5809C17.1037 2.88794 17.6017 3.18669 17.8506 3.65972L22.5311 12.1245C22.7801 12.5975 22.7801 13.1701 22.5311 13.6431L17.8506 22.1079C17.6017 22.5809 17.1037 22.8547 16.5809 22.8547ZM7.21993 4.18255C7.14524 4.18255 7.07055 4.23234 7.02076 4.30703L2.34026 12.7718C2.29047 12.8464 2.29047 12.946 2.34026 13.0207L7.02076 21.4854C7.04566 21.5352 7.12035 21.585 7.21993 21.585H16.6058C16.6805 21.585 16.7552 21.5352 16.805 21.4606L21.4855 12.9958C21.5353 12.9211 21.5353 12.8215 21.4855 12.7469L16.805 4.28213C16.7552 4.23234 16.6805 4.18255 16.5809 4.18255H7.21993Z" fill="#0033A1"/>
<path d="M11.552 18.6972C11.2283 18.6972 10.9296 18.5727 10.6806 18.3237C10.4566 18.0748 10.3321 17.776 10.3321 17.4275C10.3321 17.0789 10.4566 16.7801 10.7055 16.5312C11.1785 16.0582 11.9752 16.0582 12.4234 16.5312C12.6474 16.7801 12.7719 17.0789 12.7719 17.4275C12.7719 17.776 12.6474 18.0748 12.4234 18.3237C12.1993 18.5727 11.9005 18.6972 11.552 18.6972ZM12.5478 15.5851H10.5561V13.8424C10.5561 13.4689 10.6308 13.1204 10.7553 12.8216C10.8798 12.5478 11.0292 12.2988 11.2034 12.0748C11.3777 11.8756 11.552 11.7013 11.7263 11.527C11.8756 11.4026 12.0001 11.2532 12.1246 11.0789C12.2491 10.9544 12.3487 10.805 12.4234 10.6557C12.4731 10.5312 12.498 10.3818 12.498 10.2075C12.498 9.90878 12.4234 9.68471 12.274 9.51044C12.1993 9.38596 12.025 9.26148 11.6516 9.26148C11.3777 9.26148 11.1536 9.33617 11.0043 9.51044C10.83 9.68471 10.7055 9.93368 10.6308 10.2573L10.5063 10.8299L8.48975 10.581L8.61423 9.90878C8.7636 9.0872 9.11215 8.4399 9.68477 7.96687C10.2325 7.51874 10.9047 7.26978 11.6765 7.26978C12.0748 7.26978 12.4483 7.31957 12.7968 7.44405C13.1205 7.59343 13.4441 7.7677 13.6931 8.01666C13.9669 8.26563 14.1661 8.58928 14.3404 8.93782C14.4897 9.31127 14.5644 9.70961 14.5644 10.1577C14.5644 10.6059 14.4897 11.0042 14.3653 11.3279C14.2408 11.6266 14.0914 11.9005 13.8922 12.1494C13.718 12.3735 13.5437 12.5727 13.3445 12.747C13.1951 12.8963 13.0458 13.0457 12.8964 13.1951C12.7968 13.3196 12.6972 13.444 12.6225 13.6183C12.5727 13.7428 12.5478 13.9171 12.5478 14.1162V15.5851Z" fill="#00AEEF"/>
</svg>
