<svg width="24" height="24" viewBox="0 0 24 24" fill="none" xmlns="http://www.w3.org/2000/svg">
<g clip-path="url(#clip0_325_770)">
<path d="M11.9752 23.2282C5.65157 23.2282 0.498047 18.224 0.498047 12.0498C0.498047 5.87549 5.65157 0.871338 11.9752 0.871338C18.2989 0.871338 23.4524 5.90038 23.4524 12.0498C23.4524 18.1991 18.3238 23.2282 11.9752 23.2282ZM11.9752 2.51449C6.57274 2.51449 2.19099 6.79665 2.19099 12.0498C2.19099 17.3029 6.57274 21.585 11.9752 21.585C17.3777 21.585 21.7595 17.3029 21.7595 12.0498C21.7595 6.79665 17.3777 2.51449 11.9752 2.51449Z" fill="#0033A1"/>
<path d="M13.22 13.7428H7.04569C6.57266 13.7428 6.19922 13.3694 6.19922 12.9212C6.19922 12.4731 6.57266 12.0996 7.04569 12.0996H11.527V5.054C11.527 4.60587 11.9005 4.23242 12.3735 4.23242C12.8465 4.23242 13.22 4.60587 13.22 5.054V13.7428Z" fill="#00AEEF"/>
</g>
<defs>
<clipPath id="clip0_325_770">
<rect width="24" height="24" fill="white"/>
</clipPath>
</defs>
</svg>
