<svg width="24" height="24" viewBox="0 0 24 24" fill="none" xmlns="http://www.w3.org/2000/svg">
<path d="M11.8758 13.3694L1.41939 6.62251C1.14553 6.44824 1.07084 6.09969 1.24512 5.82583C1.39449 5.55197 1.74304 5.47729 2.0169 5.62666L11.9007 12.0001L21.5356 5.77604C21.8094 5.60177 22.1331 5.70135 22.3074 5.97521C22.4318 6.22417 22.3571 6.59762 22.1082 6.747L11.8758 13.3694Z" fill="#00AEEF"/>
<path d="M21.7595 18.7967H1.99184C1.19516 18.7967 0.572754 18.1245 0.572754 17.303V6.69715C0.572754 5.87557 1.22006 5.20337 1.99184 5.20337H21.7595C22.5562 5.20337 23.1786 5.87557 23.1786 6.69715V17.303C23.1786 18.1245 22.5562 18.7967 21.7595 18.7967ZM1.99184 6.37349C1.81757 6.37349 1.69309 6.52287 1.69309 6.69715V17.303C1.69309 17.4772 1.84246 17.6266 1.99184 17.6266H21.7595C21.9337 17.6266 22.0582 17.4772 22.0582 17.303V6.69715C22.0582 6.52287 21.9089 6.37349 21.7595 6.37349H1.99184Z" fill="#0033A1"/>
</svg>
