<svg width="24" height="24" viewBox="0 0 24 24" fill="none" xmlns="http://www.w3.org/2000/svg">
<path d="M10.5082 15.0702L8.42486 11.9342C8.20557 11.6053 8.29328 11.1667 8.62223 10.9474C8.95118 10.7281 9.38977 10.8158 9.60907 11.1448L10.7275 12.8553L14.9818 8.6667C15.2669 8.38161 15.7055 8.38161 15.9906 8.6667C16.2757 8.95178 16.2757 9.39037 15.9906 9.65353L10.5082 15.0702Z" fill="#00AEEF"/>
<path d="M18.6008 21.7367H5.3991C3.51315 21.7367 2 20.2236 2 18.3815V5.35524C2 3.51315 3.53508 2 5.3991 2H18.6008C20.4867 2 21.9999 3.51315 21.9999 5.35524V18.3815C21.9999 20.2455 20.4867 21.7367 18.6008 21.7367ZM5.3991 3.4035C4.30262 3.4035 3.42543 4.28069 3.42543 5.35524V18.3815C3.42543 19.456 4.30262 20.3332 5.3991 20.3332H18.6008C19.6973 20.3332 20.5745 19.456 20.5745 18.3815V5.35524C20.5745 4.28069 19.6973 3.4035 18.6008 3.4035H5.3991Z" fill="#0033A1"/>
</svg>
