<svg width="24" height="24" viewBox="0 0 24 24" fill="none" xmlns="http://www.w3.org/2000/svg">
<path d="M9.06232 18.7967C8.91294 18.7967 8.76356 18.7469 8.63908 18.6722C8.43991 18.5228 8.31543 18.2739 8.31543 18.0249V12.5726L13.942 12L8.31543 11.4274V5.9751C8.31543 5.70124 8.43991 5.47718 8.66398 5.3278C8.88804 5.17842 9.13701 5.15353 9.38597 5.25311L23.1536 11.278C23.4275 11.4025 23.6266 11.6763 23.6266 12C23.6266 12.3236 23.4524 12.5975 23.1536 12.722L9.36107 18.7469C9.26149 18.7718 9.1619 18.7967 9.06232 18.7967ZM9.41087 13.6183V17.4772L21.9835 12L9.41087 6.52282V10.3817L19.1702 11.3776C19.7677 11.4523 19.7926 11.9502 19.7926 12C19.7926 12.0498 19.7677 12.5477 19.1702 12.6224L9.41087 13.6183Z" fill="#0033A1"/>
<path d="M6.62258 10.1079H3.26158C2.96283 10.1079 2.71387 9.85891 2.71387 9.53526C2.71387 9.21161 2.96283 8.96265 3.26158 8.96265H6.62258C6.92134 8.96265 7.1703 9.21161 7.1703 9.53526C7.1703 9.83402 6.92134 10.1079 6.62258 10.1079Z" fill="#00AEEF"/>
<path d="M6.62242 14.9626H4.58092C4.28217 14.9626 4.0332 14.7136 4.0332 14.39C4.0332 14.0663 4.28217 13.8174 4.58092 13.8174H6.62242C6.92117 13.8174 7.17013 14.0663 7.17013 14.39C7.17013 14.7136 6.92117 14.9626 6.62242 14.9626Z" fill="#00AEEF"/>
<path d="M6.6225 12.5228H0.921253C0.622498 12.5228 0.373535 12.2738 0.373535 11.9502C0.373535 11.6265 0.622498 11.3776 0.921253 11.3776H6.6225C6.92125 11.3776 7.17022 11.6265 7.17022 11.9502C7.17022 12.2738 6.92125 12.5228 6.6225 12.5228Z" fill="#00AEEF"/>
</svg>
