<svg width="24" height="24" viewBox="0 0 24 24" fill="none" xmlns="http://www.w3.org/2000/svg">
<path d="M11.9998 12.9271C9.52109 12.9271 7.5293 10.9131 7.5293 8.43446C7.5293 8.08036 7.57356 7.72626 7.66208 7.3943C7.75061 7.06233 8.08257 6.86315 8.41454 6.92954C8.72437 7.01807 8.92355 7.35004 8.85716 7.682C8.79077 7.92544 8.76864 8.19102 8.76864 8.43446C8.76864 10.2271 10.2293 11.6656 11.9998 11.6656C13.7924 11.6656 15.2309 10.2049 15.2309 8.43446C15.2309 8.14675 15.1866 7.83692 15.1202 7.57135C15.0317 7.23938 15.2309 6.90741 15.5407 6.79676C15.8727 6.70823 16.2047 6.90741 16.3153 7.21725C16.426 7.61561 16.4702 8.01397 16.4702 8.43446C16.4702 10.9131 14.4563 12.9271 11.9998 12.9271Z" fill="#00AEEF"/>
<path d="M21.3836 12.2852C21.1844 12.2852 20.9852 12.1967 20.8746 11.9975C18.9049 9.00982 15.5852 7.21721 12.0221 7.21721C8.4369 7.21721 5.13937 9.00982 3.16971 11.9975C2.9484 12.2852 2.57217 12.3737 2.28447 12.1746C1.99677 11.9975 1.90824 11.5992 2.10742 11.3336C4.29839 7.9918 8.01641 6 12 6C16.0057 6 19.7016 7.9918 21.8926 11.3336C22.0918 11.6213 22.0032 11.9975 21.7155 12.1967C21.6049 12.2631 21.4942 12.2852 21.3836 12.2852Z" fill="#0033A1"/>
<path d="M11.9997 17.0212C8.96778 17.0212 6.15713 15.5163 4.4973 12.9713C4.29812 12.6836 4.36452 12.3073 4.65222 12.1082C4.93992 11.909 5.31615 11.9975 5.51533 12.2852C6.95385 14.4762 9.36613 15.7819 11.9997 15.7819C14.6112 15.7819 17.0235 14.4762 18.4841 12.2852C18.6612 11.9975 19.0374 11.9311 19.3251 12.1082C19.6128 12.3073 19.7013 12.6836 19.5022 12.9713C17.8423 15.5163 15.0317 17.0212 11.9997 17.0212Z" fill="#0033A1"/>
</svg>
