<svg width="24" height="24" viewBox="0 0 24 24" fill="none" xmlns="http://www.w3.org/2000/svg">
<path d="M21.4608 1.61829H11.4525C11.1288 1.61829 10.8799 1.86725 10.8799 2.1909V9.01248C10.8799 9.33613 11.1288 9.58509 11.4525 9.58509H11.9255L10.7056 12.1743C10.5811 12.4731 10.7056 12.7967 10.9795 12.9461C11.1537 13.0208 11.3529 13.0208 11.5272 12.9212L16.7554 9.60999H21.4608C21.7844 9.60999 22.0334 9.36102 22.0334 9.03737V2.1909C22.0334 1.86725 21.7595 1.61829 21.4608 1.61829ZM20.8882 8.43986H16.5811C16.4815 8.43986 16.357 8.46476 16.2824 8.53945L12.5728 10.8797L13.3197 9.26144C13.4442 8.96268 13.3197 8.63903 13.0458 8.48966C12.9712 8.46476 12.8965 8.43986 12.8218 8.43986H12.0251V2.76351H20.8882V8.43986Z" fill="#00AEEF"/>
<path d="M19.6932 18.9212L16.133 16.2324C15.9836 16.083 15.7844 16.0083 15.5604 16.0083C15.3363 16.0083 15.1122 16.1079 14.938 16.2573L13.6932 17.4772C13.494 17.6764 13.2201 17.7262 12.9961 17.6017C12.3737 17.3279 11.7513 16.9793 11.1537 16.581C10.4566 16.1079 9.78445 15.5602 9.18694 14.9378C8.56453 14.3154 8.01681 13.6432 7.54379 12.9461C7.14544 12.3735 6.7969 11.7511 6.49814 11.1287C6.39856 10.8797 6.44835 10.6059 6.62262 10.4067L7.86744 9.18677C8.04171 9.0125 8.1164 8.78843 8.1164 8.56437C8.1164 8.3403 8.04171 8.11623 7.86744 7.96686L5.22843 4.48138C5.25333 4.48138 5.22843 4.45648 5.20354 4.43159C5.02926 4.28221 4.83009 4.20752 4.60603 4.20752C4.38196 4.20752 4.15789 4.3071 3.98362 4.45648L3.48569 4.95441C1.4691 6.72204 0.772002 9.58511 1.74296 12.0747C2.63922 14.3403 3.95872 16.3818 5.70146 18.1494C7.4691 19.9669 9.56038 21.3361 11.9504 22.2822C12.7471 22.6059 13.5687 22.7552 14.3903 22.7552C16.1579 22.7552 17.9006 22.0332 19.1952 20.7137L19.6932 20.2158C19.8674 20.0415 19.9421 19.8175 19.9421 19.5934C19.9421 19.3693 19.8674 19.1702 19.7181 18.9959C19.7181 18.971 19.6932 18.9461 19.6932 18.9212ZM18.4981 19.9917C16.8799 21.6598 14.4649 22.1826 12.3239 21.3361C10.0583 20.4399 8.0915 19.1453 6.42345 17.4523C4.7803 15.7843 3.53549 13.8673 2.68901 11.7262C1.89233 9.61001 2.46495 7.19507 4.18279 5.7013L4.20769 5.6764L4.58113 5.30296L7.04586 8.56437L5.92553 9.6847C5.4276 10.1826 5.27822 10.9295 5.57698 11.5519C5.90063 12.2241 6.27408 12.8963 6.69731 13.5187C7.19524 14.2656 7.79275 14.9876 8.46495 15.6598C9.11225 16.332 9.83424 16.9046 10.5811 17.4274C11.2284 17.8507 11.8757 18.2241 12.5479 18.5478C13.1952 18.8216 13.9421 18.6971 14.4152 18.1992L15.5604 17.0789L18.8716 19.5934L18.4981 19.9917Z" fill="#0033A1"/>
</svg>
