<svg width="24" height="24" viewBox="0 0 24 24" fill="none" xmlns="http://www.w3.org/2000/svg">
<path d="M11.7412 22.0001C10.4399 22.0001 9.11398 21.73 7.91085 21.1652C5.62735 20.134 3.90858 18.2925 3.0492 15.9598C2.90187 15.5915 3.09831 15.1741 3.46661 15.0514C3.83492 14.904 4.25233 15.1005 4.3751 15.4688C5.11172 17.4331 6.56039 19.0045 8.47558 19.8639C10.3908 20.7233 12.527 20.7969 14.4667 20.0849C16.431 19.3483 18.0025 17.8996 18.8618 15.9844C19.7458 14.0692 19.8194 11.933 19.0828 9.96872C17.806 6.53119 14.3439 4.46867 10.71 4.93519C10.3171 4.9843 9.94881 4.71421 9.8997 4.32135C9.8506 3.92849 10.1207 3.58473 10.5135 3.51107C14.8105 2.94634 18.8864 5.37716 20.4087 9.45309C21.2681 11.7857 21.1944 14.2902 20.1632 16.5491C19.1565 18.8081 17.3149 20.5268 14.9823 21.4108C13.9265 21.8036 12.8216 22.0001 11.7412 22.0001Z" fill="#0033A1"/>
<path d="M10.8566 7.21866C10.8321 7.21866 10.8075 7.21866 10.783 7.21866L5.67579 6.67847C5.33204 6.65392 5.06195 6.43294 4.93918 6.11374C4.81641 5.79454 4.89007 5.45079 5.13561 5.20525L8.62225 1.44852C8.89234 1.15387 9.33431 1.15387 9.62895 1.42396C9.9236 1.69406 9.9236 2.13602 9.65351 2.43067L6.90348 5.37712L10.9303 5.79454C11.3232 5.84365 11.6178 6.1874 11.5687 6.58026C11.5196 6.94857 11.2004 7.21866 10.8566 7.21866Z" fill="#00AEEF"/>
</svg>
