<svg width="24" height="24" viewBox="0 0 24 24" fill="none" xmlns="http://www.w3.org/2000/svg">
<path d="M11.8753 23.5269C9.21138 23.5269 7.02051 21.2614 7.02051 18.473V6.87134C7.02051 6.57259 7.26947 6.32363 7.54333 6.32363C7.84208 6.32363 8.06615 6.57259 8.06615 6.87134V18.4979C8.06615 20.6639 9.7591 22.4315 11.8504 22.4315C13.9417 22.4315 15.6346 20.6639 15.6346 18.4979V4.63068C15.6346 3.1867 14.4894 1.99168 13.1201 1.99168C11.7259 1.99168 10.6056 3.1618 10.6056 4.63068V17.2282C10.6056 18 11.2031 18.6224 11.95 18.6224C12.6969 18.6224 13.2944 18 13.2944 17.2282V5.77591C13.2944 5.47715 13.5433 5.22819 13.8172 5.22819C14.091 5.22819 14.34 5.47715 14.34 5.77591V17.2282C14.34 18.6224 13.2695 19.7427 11.9251 19.7427C10.5807 19.7427 9.55993 18.5975 9.55993 17.2282V4.63068C9.55993 2.56429 11.1782 0.89624 13.145 0.89624C15.1118 0.89624 16.7301 2.56429 16.7301 4.63068V18.4979C16.7301 21.2614 14.5641 23.5269 11.8753 23.5269Z" fill="#0033A1"/>
<path d="M7.56823 5.25318C7.26948 5.25318 7.04541 5.00422 7.04541 4.70547V2.83825C7.04541 2.53949 7.29437 2.29053 7.56823 2.29053C7.84209 2.29053 8.09105 2.53949 8.09105 2.83825V4.68057C8.09105 5.00422 7.84209 5.25318 7.56823 5.25318Z" fill="#00AEEF"/>
</svg>
