<svg width="24" height="24" viewBox="0 0 24 24" fill="none" xmlns="http://www.w3.org/2000/svg">
<path d="M11.9943 21.9826C11.9509 21.9826 11.9076 21.9826 11.8642 21.9826C9.17678 21.9392 6.64103 20.8339 4.77714 18.8833C2.93493 16.9544 1.93797 14.4187 2.00299 11.7312C2.13303 6.35629 6.57601 2 11.9726 2C11.9943 2 12.0376 2 12.0593 2C14.7468 2.02167 17.3475 3.17035 19.2331 5.12092C21.1186 7.09317 22.0939 9.67226 21.9856 12.4031C21.7688 17.7997 17.3909 21.9826 11.9943 21.9826ZM11.8859 20.6388C11.9293 20.6388 11.9509 20.6388 11.9943 20.6388C16.6757 20.6388 20.4468 17.0411 20.6418 12.3814C20.7285 10.019 19.8833 7.78671 18.2578 6.07454C16.6323 4.36236 14.3783 3.38708 12.0376 3.3654C12.0159 3.3654 11.9726 3.3654 11.9509 3.3654C7.29122 3.3654 3.43341 7.11484 3.32505 11.7746C3.30338 14.0936 4.14862 16.2825 5.75243 17.9514C7.37791 19.6419 9.54522 20.5955 11.8859 20.6388Z" fill="#0033A1"/>
<path d="M12.4276 18.0598C12.4276 17.6696 12.4276 17.3012 12.4276 16.9328C12.4276 16.5643 12.4276 16.1959 12.4276 15.8274C12.4276 15.459 12.4276 15.0906 12.4276 14.7438C12.4276 14.3753 12.4276 14.0069 12.4276 13.6385C12.4276 13.27 12.4059 12.9232 12.4276 12.5331H14.2698C14.3565 11.8179 14.4432 11.1027 14.5515 10.3658H12.4276C12.4276 10.1491 12.4276 9.97571 12.4276 9.78066C12.4276 9.41221 12.4276 9.04377 12.4492 8.697C12.4926 8.28522 12.7093 8.04681 13.1211 7.98179C13.2511 7.96012 13.4029 7.96012 13.5762 7.93845C13.858 7.93845 14.1397 7.93845 14.4215 7.93845C14.4865 7.93845 14.5515 7.91677 14.6382 7.91677C14.6382 7.26658 14.6599 6.63806 14.6165 5.98787C14.1181 5.9662 13.6629 5.92285 13.2078 5.92285C12.8827 5.92285 12.5793 5.92285 12.2542 5.98787C11.3439 6.16126 10.6937 6.68141 10.3903 7.57C10.2386 7.96012 10.1952 8.35023 10.1952 8.76202C10.1952 9.19548 10.1952 9.65062 10.1952 10.0841C10.1952 10.1708 10.1736 10.2575 10.1736 10.3442C9.54505 10.3875 8.95987 10.3442 8.35303 10.3875V12.5331H10.1736C10.1736 12.6848 10.1952 12.7932 10.1952 12.9016C10.1952 14.5054 10.2169 16.1309 10.2169 17.7347C10.2169 17.843 10.2169 17.9514 10.2386 18.0598H12.4276Z" fill="#00AEEF"/>
</svg>
