<svg width="24" height="24" viewBox="0 0 24 24" fill="none" xmlns="http://www.w3.org/2000/svg">
<path d="M11.9998 23.2034C11.6015 23.2034 11.2778 22.8797 11.2778 22.5063V14.9129C11.2778 14.5146 11.6015 14.2158 11.9998 14.2158C12.3982 14.2158 12.7218 14.5395 12.7218 14.9129V22.5063C12.7218 22.8797 12.3982 23.2034 11.9998 23.2034Z" fill="#00AEEF"/>
<path d="M18.4731 15.2614H5.52702C4.80503 15.2614 4.20752 14.6389 4.20752 13.8921V12.0746C4.20752 11.3775 4.65565 10.8049 5.30296 10.7053C6.47308 10.5311 7.04569 8.9377 7.26976 8.01654C7.49383 7.12028 7.71789 6.2738 7.54362 5.55181C7.46893 5.07878 7.24486 4.80492 7.14528 4.80492C6.09964 4.85472 5.82578 4.82982 5.55192 4.58086L5.30296 4.33189V1.94185C5.30296 1.29455 5.80088 0.771729 6.42329 0.771729H17.5519C18.1743 0.771729 18.6722 1.29455 18.6722 1.94185V4.33189L18.4233 4.58086C18.1743 4.82982 17.9005 4.85472 16.8548 4.80492C16.8299 4.82982 16.7054 4.9543 16.5312 5.30285C16.1577 6.17422 16.581 7.6431 16.8299 8.43978C17.054 9.21156 17.6017 10.556 18.6971 10.7053C19.3196 10.8049 19.7926 11.3775 19.7926 12.0497V13.8672C19.7677 14.6389 19.1951 15.2614 18.4731 15.2614ZM5.85067 13.668H18.1743V12.2489C16.8299 11.9004 15.8092 10.7302 15.2615 8.88791C14.9627 7.89206 14.415 6.04974 15.0374 4.63065C15.6349 3.31115 16.4814 3.16177 16.9295 3.18667C16.9793 3.18667 17.0042 3.18667 17.054 3.18667V2.38999H6.92121V3.21156C6.971 3.21156 6.9959 3.21156 7.04569 3.21156C8.01665 3.16177 8.86312 3.95845 9.13698 5.22816C9.36105 6.3236 9.11208 7.36924 8.86312 8.3153C8.3154 10.5311 7.24486 11.8755 5.85067 12.2489V13.668Z" fill="#0033A1"/>
</svg>
