<svg width="24" height="24" viewBox="0 0 24 24" fill="none" xmlns="http://www.w3.org/2000/svg">
<path d="M12.1639 13.1642C10.2141 13.1642 8.60547 11.58 8.60547 9.60574C8.60547 9.33763 8.62984 9.04516 8.70296 8.77705C8.77608 8.50895 9.04418 8.36271 9.28792 8.41146C9.58039 8.48458 9.72663 8.75268 9.67788 9.02078C9.62914 9.21577 9.60477 9.41075 9.60477 9.63011C9.60477 11.0438 10.7503 12.1893 12.1639 12.1893C13.5776 12.1893 14.7231 11.0438 14.7231 9.63011C14.7231 9.38638 14.6987 9.16702 14.6256 8.94767C14.5525 8.67956 14.6987 8.41146 14.9668 8.33834C15.2349 8.26522 15.5031 8.41146 15.5762 8.67956C15.6737 8.97204 15.698 9.28889 15.698 9.63011C15.698 11.58 14.1138 13.1642 12.1639 13.1642Z" fill="#00AEEF"/>
<path d="M19.5977 12.6769C19.4271 12.6769 19.2809 12.6038 19.1834 12.4575C17.6235 10.069 14.9912 8.65534 12.164 8.65534C9.33668 8.65534 6.70439 10.069 5.14451 12.4332C4.99827 12.6769 4.68142 12.75 4.46207 12.5794C4.24271 12.4332 4.16959 12.1407 4.31583 11.897C6.07069 9.26467 8.99546 7.68042 12.164 7.68042C15.3325 7.68042 18.2572 9.26467 20.0121 11.9213C20.1583 12.1407 20.0852 12.4332 19.8659 12.5794C19.7927 12.6525 19.6952 12.6769 19.5977 12.6769Z" fill="#0033A1"/>
<path d="M12.1634 16.4303C9.75043 16.4303 7.53248 15.236 6.21633 13.2131C6.04572 12.9937 6.11884 12.6769 6.3382 12.5306C6.55756 12.3844 6.87441 12.4331 7.02065 12.6769C8.16618 14.4074 10.0917 15.4554 12.1634 15.4554C14.2351 15.4554 16.1605 14.4317 17.3061 12.6769C17.4523 12.4575 17.7448 12.3844 17.9642 12.5306C18.2079 12.6769 18.2566 12.9937 18.1104 13.2131C16.7943 15.236 14.5763 16.4303 12.1634 16.4303Z" fill="#0033A1"/>
<path d="M21.8156 7.53414C21.5475 7.53414 21.3281 7.31478 21.3281 7.04668V5.1212C21.3281 5.04808 21.2793 4.99934 21.2062 4.99934H19.4757C19.2076 4.99934 18.9883 4.77998 18.9883 4.51188C18.9883 4.24377 19.2076 4.02441 19.4757 4.02441H21.2062C21.8156 4.02441 22.3274 4.51188 22.3274 5.14558V7.04668C22.3274 7.31478 22.108 7.53414 21.8156 7.53414Z" fill="#00AEEF"/>
<path d="M2.48746 7.5341C2.21936 7.5341 2 7.31474 2 7.04663V5.12116C2 4.51183 2.48746 4 3.12116 4H4.85165C5.11975 4 5.33911 4.21936 5.33911 4.48746C5.33911 4.75557 5.11975 4.9993 4.85165 4.9993H3.12116C3.04804 4.9993 2.9993 5.04804 2.9993 5.12116V7.02226C2.9993 7.31474 2.77994 7.5341 2.48746 7.5341Z" fill="#00AEEF"/>
<path d="M21.2062 19.4769H19.4757C19.2076 19.4769 18.9883 19.2576 18.9883 18.9895C18.9883 18.7214 19.2076 18.502 19.4757 18.502H21.2062C21.2794 18.502 21.3281 18.4533 21.3281 18.3801V16.479C21.3281 16.2109 21.5475 15.9916 21.8156 15.9916C22.0837 15.9916 22.303 16.2109 22.303 16.479V18.3801C22.3274 18.9895 21.8156 19.4769 21.2062 19.4769Z" fill="#00AEEF"/>
<path d="M4.85165 19.4769H3.12116C2.51183 19.4769 2 18.9895 2 18.3558V16.479C2 16.2109 2.21936 15.9916 2.48746 15.9916C2.75557 15.9916 2.97492 16.2109 2.97492 16.479V18.3801C2.97492 18.4533 3.02367 18.502 3.09679 18.502H4.82728C5.09538 18.502 5.31474 18.7214 5.31474 18.9895C5.33911 19.2576 5.11975 19.4769 4.85165 19.4769Z" fill="#00AEEF"/>
</svg>
