<svg width="24" height="24" viewBox="0 0 24 24" fill="none" xmlns="http://www.w3.org/2000/svg">
<path d="M12.4306 12.4214C12.1487 12.4214 11.9102 12.1828 11.9102 11.9009V9.06012C11.9102 8.77821 12.1487 8.53967 12.4306 8.53967C12.7125 8.53967 12.9511 8.77821 12.9511 9.06012V11.9009C12.9511 12.1828 12.7125 12.4214 12.4306 12.4214Z" fill="#0033A1"/>
<path d="M12.431 14.6984L10.501 12.9418C10.2842 12.7467 10.2842 12.4214 10.4577 12.2262C10.6528 12.0094 10.9781 12.0094 11.1733 12.1829L12.4094 13.3105L13.6454 12.1829C13.8623 11.9877 14.1876 12.0094 14.3611 12.2262C14.5562 12.4431 14.5345 12.7684 14.3177 12.9418L12.431 14.6984Z" fill="#00AEEF"/>
<path d="M21.4736 16.1079H16.8329L16.7895 16.0645C16.1823 16.1079 15.0113 16.1079 12.7126 16.1079H3.23607L3.08427 15.9561C2.39034 15.2188 2 14.2646 2 13.2671C2 11.0986 3.75652 9.34203 5.92507 9.34203C6.53226 9.34203 7.13946 9.49383 7.68159 9.77574C8.7225 8.06259 10.6091 7 12.6042 7C15.2281 7 17.4617 8.73484 18.1557 11.207C18.4593 11.0986 18.7846 11.0552 19.0882 11.0552C20.7796 11.0552 22.1675 12.4431 22.1675 14.1345C22.1675 14.7851 21.9723 15.3923 21.582 15.9344L21.4736 16.1079ZM17.4184 15.0887H20.9097C21.0832 14.7851 21.17 14.4381 21.17 14.0911C21.17 12.9635 20.2592 12.0527 19.1315 12.0527C18.7629 12.0527 18.4159 12.1611 18.0906 12.3563L17.4401 12.7467L17.3099 11.9877C16.9413 9.66731 14.9679 7.99753 12.6259 7.99753C10.7826 7.99753 9.1562 9.03843 8.35384 10.6865L8.09362 11.2287L7.59485 10.8817C7.09609 10.5347 6.53226 10.3612 5.92507 10.3612C4.32035 10.3612 3.01922 11.6624 3.01922 13.2671C3.01922 13.9394 3.25776 14.5682 3.66978 15.0887H8.37553C10.891 15.0887 15.3582 15.0887 16.6377 15.0887L17.0497 13.961L17.4184 15.0887Z" fill="#0033A1"/>
</svg>
