<svg width="24" height="24" viewBox="0 0 24 24" fill="none" xmlns="http://www.w3.org/2000/svg">
<path d="M11.9999 16.0581C11.7011 16.0581 11.4521 15.7843 11.4521 15.4357V9.80917C11.4521 9.46063 11.7011 9.18677 11.9999 9.18677C12.2986 9.18677 12.5476 9.46063 12.5476 9.80917V15.4357C12.5476 15.7594 12.2986 16.0581 11.9999 16.0581Z" fill="#00AEEF"/>
<path d="M14.4899 13.2448H9.48571C9.18695 13.2448 8.93799 12.971 8.93799 12.6224C8.93799 12.2739 9.18695 12 9.48571 12H14.5148C14.8135 12 15.0625 12.2739 15.0625 12.6224C15.0625 12.971 14.8135 13.2448 14.4899 13.2448Z" fill="#00AEEF"/>
<path d="M14.3151 7.34432C14.0164 7.34432 13.7674 7.07046 13.7674 6.72191V4.87959L10.1823 4.90448L10.2072 6.69701C10.2072 7.04556 9.95828 7.31942 9.65953 7.31942C9.36077 7.31942 9.08691 7.04556 9.08691 6.69701V4.87959C9.08691 4.20739 9.58484 3.65967 10.1823 3.65967H13.7923C14.3898 3.65967 14.8877 4.20739 14.8877 4.87959V6.72191C14.8877 7.04556 14.6388 7.34432 14.3151 7.34432Z" fill="#00AEEF"/>
<path d="M20.938 20.0166H3.06245C1.84254 20.0166 0.871582 18.9212 0.871582 17.5519V8.53944C0.871582 7.17014 1.86743 6.07471 3.06245 6.07471H20.938C22.1579 6.07471 23.1288 7.17014 23.1288 8.53944V17.5519C23.1288 18.8963 22.133 20.0166 20.938 20.0166ZM3.06245 7.34442C2.46494 7.34442 1.99191 7.89213 1.99191 8.56433V17.5768C1.99191 18.249 2.46494 18.7967 3.06245 18.7967H20.938C21.5355 18.7967 22.0085 18.249 22.0085 17.5768V8.53944C22.0085 7.86724 21.5355 7.31952 20.938 7.31952H3.06245V7.34442Z" fill="#0033A1"/>
<path d="M20.0663 16.5311C19.7675 16.5311 19.5186 16.2572 19.5186 15.9086V9.33603C19.5186 8.98748 19.7675 8.71362 20.0663 8.71362C20.365 8.71362 20.614 8.98748 20.614 9.33603V15.9086C20.614 16.2572 20.365 16.5311 20.0663 16.5311Z" fill="#0033A1"/>
<path d="M3.90856 16.5311C3.6098 16.5311 3.36084 16.2572 3.36084 15.9086V9.33603C3.36084 8.98748 3.6098 8.71362 3.90856 8.71362C4.20731 8.71362 4.48117 8.98748 4.48117 9.33603V15.9086C4.48117 16.2572 4.23221 16.5311 3.90856 16.5311Z" fill="#0033A1"/>
</svg>
