<svg width="24" height="24" viewBox="0 0 24 24" fill="none" xmlns="http://www.w3.org/2000/svg">
<path d="M7.74268 16.805C7.74268 17.0539 7.94185 17.278 8.2157 17.278H19.6182C19.8672 17.278 20.0912 17.0788 20.0912 16.805V6.5477C20.0912 6.42322 20.0414 6.29873 19.9418 6.22405L16.2821 2.5394C16.1825 2.46471 16.0829 2.41492 15.9584 2.41492H8.2157C7.96674 2.41492 7.74268 2.61409 7.74268 2.88795V16.805Z" fill="white"/>
<path d="M19.6181 17.7759H8.21558C7.69276 17.7759 7.24463 17.3527 7.24463 16.805V2.86304C7.24463 2.34022 7.66787 1.89209 8.21558 1.89209H15.9334C16.1824 1.89209 16.4314 1.99167 16.6056 2.16595L20.2654 5.8506C20.4397 6.02487 20.5392 6.27383 20.5392 6.54769V16.805C20.589 17.3527 20.1658 17.7759 19.6181 17.7759ZM8.24048 16.7801H19.6181L19.5932 6.54769L15.9334 2.91284H8.21558L8.24048 16.7801Z" fill="#0033A1"/>
<path d="M16.1328 6.34861H19.7677C19.8921 6.34861 19.9419 6.19923 19.8673 6.12454L16.3569 2.63907C16.2822 2.53948 16.1328 2.61417 16.1328 2.71376V6.34861Z" fill="white"/>
<path d="M19.7675 6.84648H15.6348V2.7137C15.6348 2.46474 15.7841 2.24067 16.0331 2.14109C16.2572 2.0415 16.531 2.09129 16.7053 2.26557L20.2157 5.77594C20.3899 5.95022 20.4397 6.22407 20.3651 6.47304C20.2655 6.6971 20.0165 6.84648 19.7675 6.84648ZM16.6306 5.85063H18.8713L16.6306 3.60997V5.85063Z" fill="#0033A1"/>
<path d="M6.07471 19.195C6.07471 19.4439 6.27388 19.668 6.54774 19.668H17.9502C18.1992 19.668 18.4233 19.4688 18.4233 19.195V8.93771C18.4233 8.81322 18.3735 8.68874 18.2739 8.61405L14.6141 4.92941C14.5145 4.82982 14.415 4.78003 14.2905 4.78003H6.57263C6.32367 4.78003 6.0996 4.9792 6.0996 5.25306V19.195H6.07471Z" fill="white"/>
<path d="M17.9501 20.1659H6.54761C6.02479 20.1659 5.57666 19.7427 5.57666 19.195V5.25306C5.57666 4.73024 5.9999 4.2821 6.54761 4.2821H14.2655C14.5144 4.2821 14.7634 4.38169 14.9377 4.55596L18.5974 8.24061C18.8215 8.41488 18.9211 8.68874 18.9211 8.93771V19.195C18.9211 19.7178 18.4978 20.1659 17.9501 20.1659ZM6.57251 19.1701H17.9501L17.9252 8.93771L14.2655 5.27795H6.54761L6.57251 19.1701Z" fill="#0033A1"/>
<path d="M14.4648 8.73853H18.0997C18.2242 8.73853 18.274 8.58915 18.1993 8.51446L14.6889 5.00409C14.6142 4.9294 14.4648 4.97919 14.4648 5.10367V8.73853Z" fill="white"/>
<path d="M18.0996 9.2365H13.9668V5.10372C13.9668 4.85475 14.1162 4.63069 14.3651 4.5311C14.5892 4.43152 14.8631 4.48131 15.0373 4.65558L18.5477 8.16596C18.722 8.34023 18.7718 8.61409 18.6971 8.86305C18.5975 9.08712 18.3485 9.2365 18.0996 9.2365ZM14.9875 8.24064H17.2282L14.9875 5.99998V8.24064Z" fill="#0033A1"/>
<path d="M4.40674 21.4108C4.40674 21.6598 4.60591 21.8838 4.87977 21.8838H16.2823C16.5312 21.8838 16.7553 21.6847 16.7553 21.4108V11.1535C16.7553 11.0291 16.7055 10.9046 16.6059 10.8299L12.9462 7.14523C12.8466 7.07054 12.747 7.02075 12.6225 7.02075H4.90466C4.6557 7.02075 4.43163 7.21992 4.43163 7.49378V21.4108H4.40674Z" fill="white"/>
<path d="M16.2821 22.3817H4.87965C4.35682 22.3817 3.90869 21.9585 3.90869 21.4108V7.46888C3.90869 6.94606 4.33193 6.49792 4.87965 6.49792H12.5975C12.8465 6.49792 13.0954 6.59751 13.2697 6.77178L16.9543 10.4564C17.1286 10.6307 17.2282 10.8797 17.2282 11.1535V21.4108C17.2531 21.9585 16.8299 22.3817 16.2821 22.3817ZM4.90454 21.3859H16.2821L16.2572 11.1535L12.5975 7.49378H4.87965L4.90454 21.3859Z" fill="#0033A1"/>
<path d="M12.7969 10.9543H16.4317C16.5562 10.9543 16.606 10.805 16.5313 10.7303L13.0209 7.21991C12.9463 7.14522 12.7969 7.19501 12.7969 7.31949V10.9543Z" fill="white"/>
<path d="M16.4316 11.4523H12.2988V7.31954C12.2988 7.07057 12.4482 6.84651 12.6972 6.74692C12.9212 6.64734 13.1951 6.69713 13.3694 6.8714L16.8797 10.3818C17.054 10.5561 17.1038 10.8299 17.0291 11.0789C16.9295 11.3029 16.6806 11.4523 16.4316 11.4523ZM13.3196 10.4565H15.5602L13.3196 8.2158V10.4565Z" fill="#0033A1"/>
<path fill-rule="evenodd" clip-rule="evenodd" d="M13.9917 13.1204C13.8672 13.1204 13.7676 13.1702 13.6681 13.2697L9.18673 17.7511L7.29461 15.8341C7.12034 15.6598 6.82158 15.6598 6.64731 15.8341C6.47303 16.0083 6.47303 16.3071 6.64731 16.4814L8.86307 18.6971C9.03735 18.8714 9.3361 18.8714 9.51038 18.6971L14.3154 13.8921C14.4896 13.7179 14.4896 13.4191 14.3154 13.2448C14.2656 13.1702 14.1411 13.1204 13.9917 13.1204Z" fill="#00AEEF"/>
</svg>
