<svg width="24" height="24" viewBox="0 0 24 24" fill="none" xmlns="http://www.w3.org/2000/svg">
<path d="M21.4748 21.9999C21.2851 21.9999 21.0716 21.9288 20.9293 21.7864L15.5448 16.4494C15.2364 16.141 15.2364 15.6429 15.5448 15.3582C15.8531 15.0499 16.3512 15.0499 16.6359 15.3582L22.0204 20.6716C22.3288 20.9562 22.3288 21.4544 22.0441 21.7627C21.8781 21.9288 21.6883 21.9999 21.4748 21.9999Z" fill="#00AEEF"/>
<path d="M10.2547 19.5094C5.70038 19.5094 2 15.809 2 11.2547C2 6.70038 5.70038 3 10.2547 3C14.809 3 18.5094 6.70038 18.5094 11.2547C18.5094 15.809 14.809 19.5094 10.2547 19.5094ZM10.2547 4.54182C6.55431 4.54182 3.54182 7.55431 3.54182 11.2547C3.54182 14.9551 6.55431 17.9676 10.2547 17.9676C13.9551 17.9676 16.9676 14.9551 16.9676 11.2547C16.9676 7.55431 13.9551 4.54182 10.2547 4.54182Z" fill="#0033A1"/>
</svg>
