<svg width="24" height="24" viewBox="0 0 24 24" fill="none" xmlns="http://www.w3.org/2000/svg">
<path d="M12.0115 17.8818C11.6172 17.8818 11.2886 17.5532 11.2886 17.1589V6.79736C11.2886 6.40305 11.6172 6.07446 12.0115 6.07446C12.4058 6.07446 12.7344 6.40305 12.7344 6.79736V17.1589C12.7344 17.5532 12.4058 17.8818 12.0115 17.8818Z" fill="#00AEEF"/>
<path d="M17.1811 12.712H6.81958C6.42527 12.712 6.09668 12.3834 6.09668 11.9891C6.09668 11.5948 6.42527 11.2662 6.81958 11.2662H17.1811C17.5755 11.2662 17.904 11.5948 17.904 11.9891C17.926 12.3834 17.5974 12.712 17.1811 12.712Z" fill="#00AEEF"/>
<path d="M12.0111 21.9783C6.49074 21.9783 2 17.4876 2 11.9892C2 6.46884 6.49074 2 12.0111 2C17.5314 2 22.0002 6.49074 22.0002 11.9892C22.0002 17.4876 17.5095 21.9783 12.0111 21.9783ZM12.0111 3.4458C7.30127 3.4458 3.46771 7.27936 3.46771 11.9892C3.46771 16.699 7.30127 20.5325 12.0111 20.5325C16.7209 20.5325 20.5544 16.699 20.5544 11.9892C20.5325 7.25745 16.699 3.4458 12.0111 3.4458Z" fill="#0033A1"/>
</svg>
