<svg xmlns="http://www.w3.org/2000/svg" xmlns:xlink="http://www.w3.org/1999/xlink" width="0" height="0" style="display:none;"><symbol id="svg-comunicacion-call"><path fill="#b4b4b4" d="M3.833 4h4.49L9.77 7.618l-2.325 1.55A1 1 0 0 0 7 10c.003.094 0 .001 0 .001v.021a2 2 0 0 0 .006.134q.008.124.035.33c.04.27.114.642.26 1.08.294.88.87 2.019 1.992 3.141s2.261 1.698 3.14 1.992c.44.146.81.22 1.082.26a4 4 0 0 0 .463.04l.013.001h.008s.112-.006.001 0a1 1 0 0 0 .895-.553l.67-1.34 4.435.74v4.32c-2.11.305-7.812.606-12.293-3.874S3.527 6.11 3.833 4m5.24 6.486 1.807-1.204a2 2 0 0 0 .747-2.407L10.18 3.257A2 2 0 0 0 8.323 2H3.781c-.909 0-1.764.631-1.913 1.617-.34 2.242-.801 8.864 4.425 14.09s11.848 4.764 14.09 4.425C21.37 21.982 22 21.128 22 20.22v-4.372a2 2 0 0 0-1.671-1.973l-4.436-.739a2 2 0 0 0-2.118 1.078l-.346.693a5 5 0 0 1-.363-.105c-.62-.206-1.48-.63-2.359-1.508-.878-.878-1.301-1.739-1.508-2.36a5 5 0 0 1-.125-.447"></path></symbol><symbol id="svg-comunicacion-email"><path fill="#b4b4b4" d="M2 6a2 2 0 0 1 2-2h16a2 2 0 0 1 2 2v12a2 2 0 0 1-2 2H4a2 2 0 0 1-2-2zm3.519 0L12 11.671 18.481 6zM20 7.329l-7.341 6.424a1 1 0 0 1-1.318 0L4 7.329V18h16z"></path></symbol><symbol id="svg-comunicacion-facebook"><path fill="#b4b4b4" d="M22 12.06C22 6.505 17.523 2 12 2S2 6.504 2 12.06c0 5.023 3.656 9.185 8.437 9.94v-7.03H7.9v-2.91h2.538V9.844c0-2.521 1.493-3.915 3.778-3.915 1.093 0 2.238.197 2.238.197v2.476h-1.262c-1.242 0-1.628.776-1.628 1.572v1.887h2.773l-.443 2.908h-2.33V22C18.344 21.245 22 17.083 22 12.06"></path></symbol><symbol id="svg-comunicacion-instagram"><path fill="#b4b4b4" fill-rule="evenodd" d="M12 3c-2.444 0-2.75.01-3.71.054-.959.044-1.613.196-2.186.419-.6.225-1.144.58-1.594 1.038-.457.45-.812.993-1.038 1.593-.221.573-.374 1.228-.418 2.186C3.011 9.25 3 9.555 3 12s.01 2.75.054 3.71c.044.959.196 1.613.419 2.186.225.6.58 1.144 1.038 1.594.45.458.993.812 1.593 1.038.573.222 1.227.374 2.186.418.96.044 1.266.054 3.71.054s2.75-.01 3.71-.054c.959-.044 1.613-.196 2.186-.419.6-.225 1.144-.58 1.594-1.038.458-.45.812-.993 1.038-1.593.222-.573.374-1.227.418-2.186.044-.96.054-1.266.054-3.71s-.01-2.75-.054-3.71c-.044-.959-.196-1.613-.419-2.186A4.4 4.4 0 0 0 19.49 4.51a4.4 4.4 0 0 0-1.593-1.038c-.573-.221-1.228-.374-2.186-.418C14.75 3.011 14.445 3 12 3m0 1.622c2.403 0 2.688.009 3.637.052.877.04 1.354.186 1.671.31.42.163.72.358 1.035.673s.51.615.673 1.035c.123.317.27.794.31 1.67.043.95.052 1.235.052 3.638s-.009 2.688-.052 3.637c-.04.877-.186 1.354-.31 1.671-.144.391-.374.745-.673 1.035-.29.299-.644.529-1.035.673-.317.123-.794.27-1.67.31-.95.043-1.234.052-3.638.052s-2.688-.009-3.637-.052c-.877-.04-1.354-.186-1.671-.31a2.8 2.8 0 0 1-1.035-.673 2.8 2.8 0 0 1-.673-1.035c-.123-.317-.27-.794-.31-1.67-.043-.95-.052-1.235-.052-3.638s.009-2.688.052-3.637c.04-.877.186-1.354.31-1.671.163-.42.358-.72.673-1.035.29-.299.644-.529 1.035-.673.317-.123.794-.27 1.67-.31.95-.043 1.235-.052 3.638-.052" clip-rule="evenodd"></path><path fill="#b4b4b4" fill-rule="evenodd" d="M12 15.003a3.004 3.004 0 1 1 0-6.007 3.004 3.004 0 0 1 0 6.007m0-7.629a4.626 4.626 0 1 0 0 9.252 4.626 4.626 0 0 0 0-9.252m5.972-.084a1.093 1.093 0 1 1-2.187 0 1.093 1.093 0 0 1 2.187 0" clip-rule="evenodd"></path></symbol><symbol id="svg-comunicacion-linkedin"><path fill="#b4b4b4" d="M21 4.324v15.353A1.323 1.323 0 0 1 19.677 21H4.324A1.323 1.323 0 0 1 3 19.677V4.324A1.324 1.324 0 0 1 4.324 3h15.353A1.323 1.323 0 0 1 21 4.324M8.294 9.882H5.647v8.47h2.647zm.238-2.911a1.525 1.525 0 0 0-1.514-1.536h-.047a1.535 1.535 0 0 0 0 3.07 1.525 1.525 0 0 0 1.561-1.487zm9.82 6.236c0-2.546-1.62-3.536-3.229-3.536a3.02 3.02 0 0 0-2.678 1.366h-.074V9.882H9.882v8.47h2.647v-4.504a1.757 1.757 0 0 1 1.589-1.896h.1c.842 0 1.467.53 1.467 1.864v4.537h2.647z"></path></symbol><symbol id="svg-comunicacion-message-alt"><path fill="#b4b4b4" d="M2 6a2 2 0 0 1 2-2h16a2 2 0 0 1 2 2v11a2 2 0 0 1-2 2h-4.586l-2.707 2.707a1 1 0 0 1-1.414 0L8.586 19H4a2 2 0 0 1-2-2zm18 0H4v11h5a1 1 0 0 1 .707.293L12 19.586l2.293-2.293A1 1 0 0 1 15 17h5z"></path><path fill="#b4b4b4" d="M13.5 11.5a1.5 1.5 0 1 1-3 0 1.5 1.5 0 0 1 3 0M17.5 11.5a1.5 1.5 0 1 1-3 0 1.5 1.5 0 0 1 3 0M9.5 11.5a1.5 1.5 0 1 1-3 0 1.5 1.5 0 0 1 3 0"></path></symbol><symbol id="svg-comunicacion-message"><path fill="#b4b4b4" d="M2 6a2 2 0 0 1 2-2h16a2 2 0 0 1 2 2v11a2 2 0 0 1-2 2h-4.586l-2.707 2.707a1 1 0 0 1-1.414 0L8.586 19H4a2 2 0 0 1-2-2zm18 0H4v11h5a1 1 0 0 1 .707.293L12 19.586l2.293-2.293A1 1 0 0 1 15 17h5zM6 9.5a1 1 0 0 1 1-1h10a1 1 0 1 1 0 2H7a1 1 0 0 1-1-1m0 4a1 1 0 0 1 1-1h6a1 1 0 1 1 0 2H7a1 1 0 0 1-1-1"></path></symbol><symbol id="svg-comunicacion-messenger"><path fill="#b4b4b4" fill-rule="evenodd" d="M3 11.73C3 6.714 6.93 3 12 3s9 3.714 9 8.73-3.93 8.73-9 8.73c-.91 0-1.784-.12-2.605-.346a.72.72 0 0 0-.48.035l-1.787.789a.72.72 0 0 1-1.01-.637l-.05-1.6a.72.72 0 0 0-.241-.514C4.075 16.621 3 14.354 3 11.73m6.24-1.641-2.644 4.194c-.254.403.24.856.62.569l2.84-2.156a.54.54 0 0 1 .65-.002l2.103 1.578a1.35 1.35 0 0 0 1.952-.36l2.643-4.195c.254-.403-.24-.856-.62-.568l-2.84 2.155a.54.54 0 0 1-.65.002l-2.103-1.577a1.35 1.35 0 0 0-1.952.36" clip-rule="evenodd"></path></symbol><symbol id="svg-comunicacion-tiktok"><path fill="#b4b4b4" d="M18.115 6.009A4.8 4.8 0 0 1 15.937 2h-3.439l-.005 13.78a2.89 2.89 0 0 1-2.885 2.782 2.892 2.892 0 0 1-2.89-2.89 2.894 2.894 0 0 1 2.89-2.891c.298 0 .583.049.853.133v-3.51a6 6 0 0 0-.853-.062 6.336 6.336 0 0 0-6.329 6.33 6.32 6.32 0 0 0 2.702 5.181A6.3 6.3 0 0 0 9.608 22a6.336 6.336 0 0 0 6.329-6.329V8.684c1.348.968 3 1.538 4.784 1.538V6.784c-.96 0-1.855-.286-2.606-.775"></path></symbol><symbol id="svg-comunicacion-twitter"><path fill="#b4b4b4" d="M19.953 7.92c.012.176.012.353.012.53 0 5.423-4.128 11.676-11.675 11.676v-.004A11.6 11.6 0 0 1 2 18.282q.486.06.977.06a8.24 8.24 0 0 0 5.096-1.76 4.11 4.11 0 0 1-3.834-2.85 4.1 4.1 0 0 0 1.853-.07A4.104 4.104 0 0 1 2.8 9.64v-.052c.57.318 1.21.494 1.863.514a4.11 4.11 0 0 1-1.27-5.48 11.65 11.65 0 0 0 8.456 4.288 4.108 4.108 0 0 1 6.993-3.742 8.2 8.2 0 0 0 2.606-.997 4.12 4.12 0 0 1-1.804 2.27A8.2 8.2 0 0 0 22 5.795a8.3 8.3 0 0 1-2.047 2.125"></path></symbol><symbol id="svg-comunicacion-whatsapp"><path fill="#b4b4b4" d="M12.038 3.29c-4.94 0-8.96 3.873-8.963 8.632a8.37 8.37 0 0 0 1.197 4.315L3 20.71l4.751-1.2a9.2 9.2 0 0 0 4.283 1.05h.004c4.94 0 8.96-3.872 8.962-8.631.001-2.306-.93-4.475-2.623-6.106-1.692-1.632-3.942-2.532-6.34-2.533m0 15.812h-.003a7.65 7.65 0 0 1-3.792-1l-.273-.155-2.818.712.752-2.648-.177-.271a6.96 6.96 0 0 1-1.139-3.818c.002-3.956 3.344-7.174 7.453-7.174 1.989 0 3.86.748 5.266 2.104s2.181 3.159 2.18 5.076c-.002 3.956-3.343 7.174-7.45 7.174m4.086-5.373c-.224-.108-1.325-.63-1.53-.702s-.355-.109-.504.107-.579.702-.709.845-.261.162-.486.054-.945-.335-1.8-1.07c-.666-.572-1.116-1.278-1.246-1.494s-.014-.332.098-.44c.1-.096.224-.251.336-.377.11-.126.148-.216.224-.36.074-.144.037-.27-.02-.378s-.503-1.17-.69-1.601c-.182-.42-.366-.364-.504-.371-.13-.006-.28-.008-.43-.008a.84.84 0 0 0-.597.27c-.205.216-.783.738-.783 1.8 0 1.061.802 2.087.914 2.23.112.144 1.58 2.323 3.826 3.258.534.221.951.354 1.277.454.536.164 1.025.14 1.41.085.43-.062 1.325-.521 1.511-1.024.187-.504.187-.936.131-1.026-.054-.09-.204-.144-.428-.252"></path></symbol><symbol id="svg-comunicacion-youtube"><path fill="#b4b4b4" fill-rule="evenodd" d="M19.792 5.415c.86.23 1.54.911 1.771 1.771C21.988 8.752 22 12 22 12s0 3.26-.424 4.814a2.52 2.52 0 0 1-1.771 1.771c-1.553.424-7.805.424-7.805.424s-6.252 0-7.805-.424a2.52 2.52 0 0 1-1.771-1.771C2 15.248 2 12 2 12s0-3.248.41-4.801c.232-.86.912-1.54 1.772-1.771 1.554-.424 7.805-.437 7.805-.437s6.252 0 7.805.424M15.184 12l-5.187 3.004V8.996z" clip-rule="evenodd"></path></symbol></svg>